solid OpenSCAD_Model
  facet normal 0 -1 0
    outer loop
      vertex -3.3 -5.3 0
      vertex 6.8 -5.3 11.6
      vertex -3.3 -5.3 11.6
    endloop
  endfacet
  facet normal 0 -1 -0
    outer loop
      vertex 6.8 -5.3 11.6
      vertex -3.3 -5.3 0
      vertex 6.8 -5.3 0
    endloop
  endfacet
  facet normal -0.427555 0.903989 0
    outer loop
      vertex -5.32822 4.89656 0
      vertex -5.7984 4.67418 11.6
      vertex -5.32822 4.89656 11.6
    endloop
  endfacet
  facet normal -0.427555 0.903989 0
    outer loop
      vertex -5.7984 4.67418 11.6
      vertex -5.32822 4.89656 0
      vertex -5.7984 4.67418 0
    endloop
  endfacet
  facet normal -0.0490664 -0.998796 0
    outer loop
      vertex -3.81949 -5.27448 0
      vertex -3.3 -5.3 11.6
      vertex -3.81949 -5.27448 11.6
    endloop
  endfacet
  facet normal -0.0490664 -0.998796 -0
    outer loop
      vertex -3.3 -5.3 11.6
      vertex -3.81949 -5.27448 0
      vertex -3.3 -5.3 0
    endloop
  endfacet
  facet normal -0.671559 0.740951 0
    outer loop
      vertex -6.66228 4.09696 0
      vertex -7.04767 3.74767 11.6
      vertex -6.66228 4.09696 11.6
    endloop
  endfacet
  facet normal -0.671559 0.740951 0
    outer loop
      vertex -7.04767 3.74767 11.6
      vertex -6.66228 4.09696 0
      vertex -7.04767 3.74767 0
    endloop
  endfacet
  facet normal 0.0490649 -0.998796 0
    outer loop
      vertex 6.8 -5.3 0
      vertex 6.97643 -5.29133 11.6
      vertex 6.8 -5.3 11.6
    endloop
  endfacet
  facet normal 0.0490649 -0.998796 0
    outer loop
      vertex 6.97643 -5.29133 11.6
      vertex 6.8 -5.3 0
      vertex 6.97643 -5.29133 0
    endloop
  endfacet
  facet normal -0.970031 -0.24298 0
    outer loop
      vertex -8.37178 -1.53851 0
      vertex -8.49816 -1.03398 11.6
      vertex -8.49816 -1.03398 0
    endloop
  endfacet
  facet normal -0.970031 -0.24298 0
    outer loop
      vertex -8.49816 -1.03398 11.6
      vertex -8.37178 -1.53851 0
      vertex -8.37178 -1.53851 11.6
    endloop
  endfacet
  facet normal -0.998795 0.0490684 0
    outer loop
      vertex -8.6 0 0
      vertex -8.57448 0.51949 11.6
      vertex -8.57448 0.51949 0
    endloop
  endfacet
  facet normal -0.998795 0.0490684 0
    outer loop
      vertex -8.57448 0.51949 11.6
      vertex -8.6 0 0
      vertex -8.6 0 11.6
    endloop
  endfacet
  facet normal -0.803207 0.5957 0
    outer loop
      vertex -7.70679 2.94452 0
      vertex -7.39695 3.36228 11.6
      vertex -7.39695 3.36228 0
    endloop
  endfacet
  facet normal -0.803207 0.5957 0
    outer loop
      vertex -7.39695 3.36228 11.6
      vertex -7.70679 2.94452 0
      vertex -7.70679 2.94452 11.6
    endloop
  endfacet
  facet normal -0.740952 0.671558 0
    outer loop
      vertex -7.39695 3.36228 0
      vertex -7.04767 3.74767 11.6
      vertex -7.04767 3.74767 0
    endloop
  endfacet
  facet normal -0.740952 0.671558 0
    outer loop
      vertex -7.04767 3.74767 11.6
      vertex -7.39695 3.36228 0
      vertex -7.39695 3.36228 11.6
    endloop
  endfacet
  facet normal -0.0490664 0.998796 0
    outer loop
      vertex -3.3 5.3 0
      vertex -3.81949 5.27448 11.6
      vertex -3.3 5.3 11.6
    endloop
  endfacet
  facet normal -0.0490664 0.998796 0
    outer loop
      vertex -3.81949 5.27448 11.6
      vertex -3.3 5.3 0
      vertex -3.81949 5.27448 0
    endloop
  endfacet
  facet normal 0 1 -0
    outer loop
      vertex 6.8 5.3 0
      vertex -3.3 5.3 11.6
      vertex 6.8 5.3 11.6
    endloop
  endfacet
  facet normal 0 1 0
    outer loop
      vertex -3.3 5.3 11.6
      vertex 6.8 5.3 0
      vertex -3.3 5.3 0
    endloop
  endfacet
  facet normal -0.336891 0.941544 0
    outer loop
      vertex -4.83851 5.07178 0
      vertex -5.32822 4.89656 11.6
      vertex -4.83851 5.07178 11.6
    endloop
  endfacet
  facet normal -0.336891 0.941544 0
    outer loop
      vertex -5.32822 4.89656 11.6
      vertex -4.83851 5.07178 0
      vertex -5.32822 4.89656 0
    endloop
  endfacet
  facet normal -0.24298 0.970031 0
    outer loop
      vertex -4.33398 5.19816 0
      vertex -4.83851 5.07178 11.6
      vertex -4.33398 5.19816 11.6
    endloop
  endfacet
  facet normal -0.24298 0.970031 0
    outer loop
      vertex -4.83851 5.07178 11.6
      vertex -4.33398 5.19816 0
      vertex -4.83851 5.07178 0
    endloop
  endfacet
  facet normal -0.24298 -0.970031 0
    outer loop
      vertex -4.83851 -5.07178 0
      vertex -4.33398 -5.19816 11.6
      vertex -4.83851 -5.07178 11.6
    endloop
  endfacet
  facet normal -0.24298 -0.970031 -0
    outer loop
      vertex -4.33398 -5.19816 11.6
      vertex -4.83851 -5.07178 0
      vertex -4.33398 -5.19816 0
    endloop
  endfacet
  facet normal -0.146732 -0.989176 0
    outer loop
      vertex -4.33398 -5.19816 0
      vertex -3.81949 -5.27448 11.6
      vertex -4.33398 -5.19816 11.6
    endloop
  endfacet
  facet normal -0.146732 -0.989176 -0
    outer loop
      vertex -3.81949 -5.27448 11.6
      vertex -4.33398 -5.19816 0
      vertex -3.81949 -5.27448 0
    endloop
  endfacet
  facet normal 0.595698 0.803208 -0
    outer loop
      vertex 7.94191 4.89142 0
      vertex 7.80003 4.99664 11.6
      vertex 7.94191 4.89142 11.6
    endloop
  endfacet
  facet normal 0.595698 0.803208 0
    outer loop
      vertex 7.80003 4.99664 11.6
      vertex 7.94191 4.89142 0
      vertex 7.80003 4.99664 0
    endloop
  endfacet
  facet normal 0.941544 -0.336889 0
    outer loop
      vertex 8.46298 -4.18883 11.6
      vertex 8.52249 -4.02251 0
      vertex 8.52249 -4.02251 11.6
    endloop
  endfacet
  facet normal 0.941544 -0.336889 0
    outer loop
      vertex 8.52249 -4.02251 0
      vertex 8.46298 -4.18883 11.6
      vertex 8.46298 -4.18883 0
    endloop
  endfacet
  facet normal 0.427556 -0.903989 0
    outer loop
      vertex 7.48883 -5.16298 0
      vertex 7.64851 -5.08746 11.6
      vertex 7.48883 -5.16298 11.6
    endloop
  endfacet
  facet normal 0.427556 -0.903989 0
    outer loop
      vertex 7.64851 -5.08746 11.6
      vertex 7.48883 -5.16298 0
      vertex 7.64851 -5.08746 0
    endloop
  endfacet
  facet normal -0.989177 -0.14673 0
    outer loop
      vertex -8.49816 -1.03398 0
      vertex -8.57448 -0.51949 11.6
      vertex -8.57448 -0.51949 0
    endloop
  endfacet
  facet normal -0.989177 -0.14673 0
    outer loop
      vertex -8.57448 -0.51949 11.6
      vertex -8.49816 -1.03398 0
      vertex -8.49816 -1.03398 11.6
    endloop
  endfacet
  facet normal 0 0 1
    outer loop
      vertex 7 3.5 11.6
      vertex 8.6 3.5 11.6
      vertex 8.59133 3.67643 11.6
    endloop
  endfacet
  facet normal 0 0 1
    outer loop
      vertex 8.6 3.5 11.6
      vertex 7 3.5 11.6
      vertex 8.6 -3.5 11.6
    endloop
  endfacet
  facet normal 0 0 1
    outer loop
      vertex 6.99904 3.5196 11.6
      vertex 8.59133 3.67643 11.6
      vertex 8.56541 3.85116 11.6
    endloop
  endfacet
  facet normal 0 0 1
    outer loop
      vertex 7 -3.5 11.6
      vertex 8.6 -3.5 11.6
      vertex 7 3.5 11.6
    endloop
  endfacet
  facet normal 0 0 1
    outer loop
      vertex 6.99616 3.53902 11.6
      vertex 8.56541 3.85116 11.6
      vertex 8.52249 4.02251 11.6
    endloop
  endfacet
  facet normal 0 0 1
    outer loop
      vertex 8.6 -3.5 11.6
      vertex 7 -3.5 11.6
      vertex 8.59133 -3.67643 11.6
    endloop
  endfacet
  facet normal 0 0 1
    outer loop
      vertex 6.99139 3.55806 11.6
      vertex 8.52249 4.02251 11.6
      vertex 8.46298 4.18883 11.6
    endloop
  endfacet
  facet normal -0 0 1
    outer loop
      vertex 6.99904 -3.5196 11.6
      vertex 8.59133 -3.67643 11.6
      vertex 7 -3.5 11.6
    endloop
  endfacet
  facet normal 0 0 1
    outer loop
      vertex 6.98478 3.57654 11.6
      vertex 8.46298 4.18883 11.6
      vertex 8.38746 4.34851 11.6
    endloop
  endfacet
  facet normal 0 0 1
    outer loop
      vertex 8.59133 -3.67643 11.6
      vertex 6.99904 -3.5196 11.6
      vertex 8.56541 -3.85116 11.6
    endloop
  endfacet
  facet normal 0 0 1
    outer loop
      vertex 6.97638 3.59428 11.6
      vertex 8.38746 4.34851 11.6
      vertex 8.29665 4.50003 11.6
    endloop
  endfacet
  facet normal -0 0 1
    outer loop
      vertex 6.99616 -3.53902 11.6
      vertex 8.56541 -3.85116 11.6
      vertex 6.99904 -3.5196 11.6
    endloop
  endfacet
  facet normal 0 0 1
    outer loop
      vertex 6.96629 3.61111 11.6
      vertex 8.29665 4.50003 11.6
      vertex 8.19142 4.64191 11.6
    endloop
  endfacet
  facet normal 0 0 1
    outer loop
      vertex 8.56541 -3.85116 11.6
      vertex 6.99616 -3.53902 11.6
      vertex 8.52249 -4.02251 11.6
    endloop
  endfacet
  facet normal 0 0 1
    outer loop
      vertex 6.9546 3.62688 11.6
      vertex 8.19142 4.64191 11.6
      vertex 8.07279 4.77279 11.6
    endloop
  endfacet
  facet normal -0 0 1
    outer loop
      vertex 6.99139 -3.55806 11.6
      vertex 8.52249 -4.02251 11.6
      vertex 6.99616 -3.53902 11.6
    endloop
  endfacet
  facet normal 0 0 1
    outer loop
      vertex 6.94142 3.64142 11.6
      vertex 8.07279 4.77279 11.6
      vertex 7.94191 4.89142 11.6
    endloop
  endfacet
  facet normal 0 0 1
    outer loop
      vertex 8.52249 -4.02251 11.6
      vertex 6.99139 -3.55806 11.6
      vertex 8.46298 -4.18883 11.6
    endloop
  endfacet
  facet normal 0 0 1
    outer loop
      vertex 6.92688 3.6546 11.6
      vertex 7.94191 4.89142 11.6
      vertex 7.80003 4.99664 11.6
    endloop
  endfacet
  facet normal -0 0 1
    outer loop
      vertex 6.98478 -3.57654 11.6
      vertex 8.46298 -4.18883 11.6
      vertex 6.99139 -3.55806 11.6
    endloop
  endfacet
  facet normal 0 0 1
    outer loop
      vertex 6.91111 3.66629 11.6
      vertex 7.80003 4.99664 11.6
      vertex 7.64851 5.08746 11.6
    endloop
  endfacet
  facet normal 0 0 1
    outer loop
      vertex 8.46298 -4.18883 11.6
      vertex 6.98478 -3.57654 11.6
      vertex 8.38746 -4.34851 11.6
    endloop
  endfacet
  facet normal 0 0 1
    outer loop
      vertex 6.89428 3.67638 11.6
      vertex 7.64851 5.08746 11.6
      vertex 7.48883 5.16298 11.6
    endloop
  endfacet
  facet normal -0 0 1
    outer loop
      vertex 6.97638 -3.59428 11.6
      vertex 8.38746 -4.34851 11.6
      vertex 6.98478 -3.57654 11.6
    endloop
  endfacet
  facet normal 0 0 1
    outer loop
      vertex 6.87654 3.68478 11.6
      vertex 7.48883 5.16298 11.6
      vertex 7.32251 5.22249 11.6
    endloop
  endfacet
  facet normal 0 0 1
    outer loop
      vertex 8.38746 -4.34851 11.6
      vertex 6.97638 -3.59428 11.6
      vertex 8.29665 -4.50003 11.6
    endloop
  endfacet
  facet normal 0 0 1
    outer loop
      vertex 6.85806 3.69139 11.6
      vertex 7.32251 5.22249 11.6
      vertex 7.15116 5.26541 11.6
    endloop
  endfacet
  facet normal -0 0 1
    outer loop
      vertex 6.96629 -3.61111 11.6
      vertex 8.29665 -4.50003 11.6
      vertex 6.97638 -3.59428 11.6
    endloop
  endfacet
  facet normal 0 0 1
    outer loop
      vertex 8.29665 -4.50003 11.6
      vertex 6.96629 -3.61111 11.6
      vertex 8.19142 -4.64191 11.6
    endloop
  endfacet
  facet normal 0 0 1
    outer loop
      vertex 8.59133 3.67643 11.6
      vertex 6.99904 3.5196 11.6
      vertex 7 3.5 11.6
    endloop
  endfacet
  facet normal 0 0 1
    outer loop
      vertex 8.56541 3.85116 11.6
      vertex 6.99616 3.53902 11.6
      vertex 6.99904 3.5196 11.6
    endloop
  endfacet
  facet normal 0 0 1
    outer loop
      vertex 8.52249 4.02251 11.6
      vertex 6.99139 3.55806 11.6
      vertex 6.99616 3.53902 11.6
    endloop
  endfacet
  facet normal 0 0 1
    outer loop
      vertex 8.46298 4.18883 11.6
      vertex 6.98478 3.57654 11.6
      vertex 6.99139 3.55806 11.6
    endloop
  endfacet
  facet normal 0 0 1
    outer loop
      vertex 6.83902 3.69616 11.6
      vertex 7.15116 5.26541 11.6
      vertex 6.97643 5.29133 11.6
    endloop
  endfacet
  facet normal 0 0 1
    outer loop
      vertex 8.38746 4.34851 11.6
      vertex 6.97638 3.59428 11.6
      vertex 6.98478 3.57654 11.6
    endloop
  endfacet
  facet normal 0 0 1
    outer loop
      vertex 8.29665 4.50003 11.6
      vertex 6.96629 3.61111 11.6
      vertex 6.97638 3.59428 11.6
    endloop
  endfacet
  facet normal 0 0 1
    outer loop
      vertex 8.19142 4.64191 11.6
      vertex 6.9546 3.62688 11.6
      vertex 6.96629 3.61111 11.6
    endloop
  endfacet
  facet normal 0 0 1
    outer loop
      vertex 8.07279 4.77279 11.6
      vertex 6.94142 3.64142 11.6
      vertex 6.9546 3.62688 11.6
    endloop
  endfacet
  facet normal 0 0 1
    outer loop
      vertex 7.94191 4.89142 11.6
      vertex 6.92688 3.6546 11.6
      vertex 6.94142 3.64142 11.6
    endloop
  endfacet
  facet normal 0 0 1
    outer loop
      vertex 7.80003 4.99664 11.6
      vertex 6.91111 3.66629 11.6
      vertex 6.92688 3.6546 11.6
    endloop
  endfacet
  facet normal 0 0 1
    outer loop
      vertex 7.64851 5.08746 11.6
      vertex 6.89428 3.67638 11.6
      vertex 6.91111 3.66629 11.6
    endloop
  endfacet
  facet normal 0 0 1
    outer loop
      vertex 7.48883 5.16298 11.6
      vertex 6.87654 3.68478 11.6
      vertex 6.89428 3.67638 11.6
    endloop
  endfacet
  facet normal 0 0 1
    outer loop
      vertex 7.32251 5.22249 11.6
      vertex 6.85806 3.69139 11.6
      vertex 6.87654 3.68478 11.6
    endloop
  endfacet
  facet normal 0 0 1
    outer loop
      vertex 7.15116 5.26541 11.6
      vertex 6.83902 3.69616 11.6
      vertex 6.85806 3.69139 11.6
    endloop
  endfacet
  facet normal 0 0 1
    outer loop
      vertex 6.97643 5.29133 11.6
      vertex 6.8196 3.69904 11.6
      vertex 6.83902 3.69616 11.6
    endloop
  endfacet
  facet normal 0 0 1
    outer loop
      vertex 6.8 5.3 11.6
      vertex 6.8196 3.69904 11.6
      vertex 6.97643 5.29133 11.6
    endloop
  endfacet
  facet normal 0 0 1
    outer loop
      vertex 6.8 5.3 11.6
      vertex 6.8 3.7 11.6
      vertex 6.8196 3.69904 11.6
    endloop
  endfacet
  facet normal -0 0 1
    outer loop
      vertex -3.3 5.3 11.6
      vertex 6.8 3.7 11.6
      vertex 6.8 5.3 11.6
    endloop
  endfacet
  facet normal 0 0 1
    outer loop
      vertex -3.3 5.3 11.6
      vertex -3.3 3.7 11.6
      vertex 6.8 3.7 11.6
    endloop
  endfacet
  facet normal 0 0 1
    outer loop
      vertex -3.3 5.3 11.6
      vertex -3.66266 3.68218 11.6
      vertex -3.3 3.7 11.6
    endloop
  endfacet
  facet normal -0 0 1
    outer loop
      vertex -3.81949 5.27448 11.6
      vertex -3.66266 3.68218 11.6
      vertex -3.3 5.3 11.6
    endloop
  endfacet
  facet normal 0 0 1
    outer loop
      vertex -3.81949 5.27448 11.6
      vertex -4.02183 3.62891 11.6
      vertex -3.66266 3.68218 11.6
    endloop
  endfacet
  facet normal -0 0 1
    outer loop
      vertex -4.33398 5.19816 11.6
      vertex -4.02183 3.62891 11.6
      vertex -3.81949 5.27448 11.6
    endloop
  endfacet
  facet normal 0 0 1
    outer loop
      vertex -4.33398 5.19816 11.6
      vertex -4.37405 3.54068 11.6
      vertex -4.02183 3.62891 11.6
    endloop
  endfacet
  facet normal -0 0 1
    outer loop
      vertex -4.83851 5.07178 11.6
      vertex -4.37405 3.54068 11.6
      vertex -4.33398 5.19816 11.6
    endloop
  endfacet
  facet normal 0 0 1
    outer loop
      vertex -4.37405 3.54068 11.6
      vertex -4.83851 5.07178 11.6
      vertex -4.71593 3.41835 11.6
    endloop
  endfacet
  facet normal -0 0 1
    outer loop
      vertex -5.32822 4.89656 11.6
      vertex -4.71593 3.41835 11.6
      vertex -4.83851 5.07178 11.6
    endloop
  endfacet
  facet normal 0 0 1
    outer loop
      vertex -4.71593 3.41835 11.6
      vertex -5.32822 4.89656 11.6
      vertex -5.04417 3.26311 11.6
    endloop
  endfacet
  facet normal -0 0 1
    outer loop
      vertex -5.7984 4.67418 11.6
      vertex -5.04417 3.26311 11.6
      vertex -5.32822 4.89656 11.6
    endloop
  endfacet
  facet normal 0 0 1
    outer loop
      vertex -5.04417 3.26311 11.6
      vertex -5.7984 4.67418 11.6
      vertex -5.35561 3.07644 11.6
    endloop
  endfacet
  facet normal -0 0 1
    outer loop
      vertex -6.24452 4.40679 11.6
      vertex -5.35561 3.07644 11.6
      vertex -5.7984 4.67418 11.6
    endloop
  endfacet
  facet normal 0 0 1
    outer loop
      vertex -5.35561 3.07644 11.6
      vertex -6.24452 4.40679 11.6
      vertex -5.64725 2.86014 11.6
    endloop
  endfacet
  facet normal -0 0 1
    outer loop
      vertex -6.66228 4.09696 11.6
      vertex -5.64725 2.86014 11.6
      vertex -6.24452 4.40679 11.6
    endloop
  endfacet
  facet normal 0 0 1
    outer loop
      vertex -5.64725 2.86014 11.6
      vertex -6.66228 4.09696 11.6
      vertex -5.9163 2.61629 11.6
    endloop
  endfacet
  facet normal -0 0 1
    outer loop
      vertex -7.04767 3.74767 11.6
      vertex -5.9163 2.61629 11.6
      vertex -6.66228 4.09696 11.6
    endloop
  endfacet
  facet normal 0 0 1
    outer loop
      vertex -5.9163 2.61629 11.6
      vertex -7.04767 3.74767 11.6
      vertex -6.16014 2.34725 11.6
    endloop
  endfacet
  facet normal -0 0 1
    outer loop
      vertex -7.39695 3.36228 11.6
      vertex -6.16014 2.34725 11.6
      vertex -7.04767 3.74767 11.6
    endloop
  endfacet
  facet normal 0 0 1
    outer loop
      vertex -6.16014 2.34725 11.6
      vertex -7.39695 3.36228 11.6
      vertex -6.37644 2.05561 11.6
    endloop
  endfacet
  facet normal -0 0 1
    outer loop
      vertex -7.70679 2.94452 11.6
      vertex -6.37644 2.05561 11.6
      vertex -7.39695 3.36228 11.6
    endloop
  endfacet
  facet normal 0 0 1
    outer loop
      vertex -6.37644 2.05561 11.6
      vertex -7.70679 2.94452 11.6
      vertex -6.56311 1.74417 11.6
    endloop
  endfacet
  facet normal -0 0 1
    outer loop
      vertex -7.97418 2.4984 11.6
      vertex -6.56311 1.74417 11.6
      vertex -7.70679 2.94452 11.6
    endloop
  endfacet
  facet normal -0 0 1
    outer loop
      vertex -8.19656 2.02822 11.6
      vertex -6.71835 1.41593 11.6
      vertex -7.97418 2.4984 11.6
    endloop
  endfacet
  facet normal 0 0 1
    outer loop
      vertex -6.56311 1.74417 11.6
      vertex -7.97418 2.4984 11.6
      vertex -6.71835 1.41593 11.6
    endloop
  endfacet
  facet normal -0 0 1
    outer loop
      vertex 6.9546 -3.62688 11.6
      vertex 8.19142 -4.64191 11.6
      vertex 6.96629 -3.61111 11.6
    endloop
  endfacet
  facet normal 0 0 1
    outer loop
      vertex 8.19142 -4.64191 11.6
      vertex 6.9546 -3.62688 11.6
      vertex 8.07279 -4.77279 11.6
    endloop
  endfacet
  facet normal -0 0 1
    outer loop
      vertex 6.94142 -3.64142 11.6
      vertex 8.07279 -4.77279 11.6
      vertex 6.9546 -3.62688 11.6
    endloop
  endfacet
  facet normal 0 0 1
    outer loop
      vertex 8.07279 -4.77279 11.6
      vertex 6.94142 -3.64142 11.6
      vertex 7.94191 -4.89142 11.6
    endloop
  endfacet
  facet normal -0 0 1
    outer loop
      vertex 6.92688 -3.6546 11.6
      vertex 7.94191 -4.89142 11.6
      vertex 6.94142 -3.64142 11.6
    endloop
  endfacet
  facet normal 0 0 1
    outer loop
      vertex 7.94191 -4.89142 11.6
      vertex 6.92688 -3.6546 11.6
      vertex 7.80003 -4.99664 11.6
    endloop
  endfacet
  facet normal -0 0 1
    outer loop
      vertex 6.91111 -3.66629 11.6
      vertex 7.80003 -4.99664 11.6
      vertex 6.92688 -3.6546 11.6
    endloop
  endfacet
  facet normal 0 0 1
    outer loop
      vertex 7.80003 -4.99664 11.6
      vertex 6.91111 -3.66629 11.6
      vertex 7.64851 -5.08746 11.6
    endloop
  endfacet
  facet normal -0 0 1
    outer loop
      vertex 6.89428 -3.67638 11.6
      vertex 7.64851 -5.08746 11.6
      vertex 6.91111 -3.66629 11.6
    endloop
  endfacet
  facet normal 0 0 1
    outer loop
      vertex 7.64851 -5.08746 11.6
      vertex 6.89428 -3.67638 11.6
      vertex 7.48883 -5.16298 11.6
    endloop
  endfacet
  facet normal -0 0 1
    outer loop
      vertex 6.87654 -3.68478 11.6
      vertex 7.48883 -5.16298 11.6
      vertex 6.89428 -3.67638 11.6
    endloop
  endfacet
  facet normal 0 0 1
    outer loop
      vertex 7.48883 -5.16298 11.6
      vertex 6.87654 -3.68478 11.6
      vertex 7.32251 -5.22249 11.6
    endloop
  endfacet
  facet normal -0 0 1
    outer loop
      vertex 6.85806 -3.69139 11.6
      vertex 7.32251 -5.22249 11.6
      vertex 6.87654 -3.68478 11.6
    endloop
  endfacet
  facet normal 0 0 1
    outer loop
      vertex 7.32251 -5.22249 11.6
      vertex 6.85806 -3.69139 11.6
      vertex 7.15116 -5.26541 11.6
    endloop
  endfacet
  facet normal -0 0 1
    outer loop
      vertex 6.83902 -3.69616 11.6
      vertex 7.15116 -5.26541 11.6
      vertex 6.85806 -3.69139 11.6
    endloop
  endfacet
  facet normal 0 0 1
    outer loop
      vertex 7.15116 -5.26541 11.6
      vertex 6.83902 -3.69616 11.6
      vertex 6.97643 -5.29133 11.6
    endloop
  endfacet
  facet normal -0 0 1
    outer loop
      vertex 6.8196 -3.69904 11.6
      vertex 6.97643 -5.29133 11.6
      vertex 6.83902 -3.69616 11.6
    endloop
  endfacet
  facet normal -0 0 1
    outer loop
      vertex 6.8 -3.7 11.6
      vertex 6.97643 -5.29133 11.6
      vertex 6.8196 -3.69904 11.6
    endloop
  endfacet
  facet normal 0 0 1
    outer loop
      vertex 6.8 -3.7 11.6
      vertex 6.8 -5.3 11.6
      vertex 6.97643 -5.29133 11.6
    endloop
  endfacet
  facet normal -0 0 1
    outer loop
      vertex -3.3 -3.7 11.6
      vertex 6.8 -5.3 11.6
      vertex 6.8 -3.7 11.6
    endloop
  endfacet
  facet normal 0 0 1
    outer loop
      vertex -3.3 -3.7 11.6
      vertex -3.3 -5.3 11.6
      vertex 6.8 -5.3 11.6
    endloop
  endfacet
  facet normal 0 0 1
    outer loop
      vertex -3.66266 -3.68218 11.6
      vertex -3.3 -5.3 11.6
      vertex -3.3 -3.7 11.6
    endloop
  endfacet
  facet normal 0 0 1
    outer loop
      vertex -3.66266 -3.68218 11.6
      vertex -3.81949 -5.27448 11.6
      vertex -3.3 -5.3 11.6
    endloop
  endfacet
  facet normal 0 0 1
    outer loop
      vertex -4.02183 -3.62891 11.6
      vertex -3.81949 -5.27448 11.6
      vertex -3.66266 -3.68218 11.6
    endloop
  endfacet
  facet normal 0 0 1
    outer loop
      vertex -4.02183 -3.62891 11.6
      vertex -4.33398 -5.19816 11.6
      vertex -3.81949 -5.27448 11.6
    endloop
  endfacet
  facet normal 0 0 1
    outer loop
      vertex -4.37405 -3.54068 11.6
      vertex -4.33398 -5.19816 11.6
      vertex -4.02183 -3.62891 11.6
    endloop
  endfacet
  facet normal 0 0 1
    outer loop
      vertex -4.83851 -5.07178 11.6
      vertex -4.37405 -3.54068 11.6
      vertex -4.71593 -3.41835 11.6
    endloop
  endfacet
  facet normal 0 0 1
    outer loop
      vertex -4.37405 -3.54068 11.6
      vertex -4.83851 -5.07178 11.6
      vertex -4.33398 -5.19816 11.6
    endloop
  endfacet
  facet normal 0 0 1
    outer loop
      vertex -5.32822 -4.89656 11.6
      vertex -4.71593 -3.41835 11.6
      vertex -5.04417 -3.26311 11.6
    endloop
  endfacet
  facet normal 0 0 1
    outer loop
      vertex -4.71593 -3.41835 11.6
      vertex -5.32822 -4.89656 11.6
      vertex -4.83851 -5.07178 11.6
    endloop
  endfacet
  facet normal 0 0 1
    outer loop
      vertex -5.7984 -4.67418 11.6
      vertex -5.04417 -3.26311 11.6
      vertex -5.35561 -3.07644 11.6
    endloop
  endfacet
  facet normal 0 0 1
    outer loop
      vertex -6.24452 -4.40679 11.6
      vertex -5.35561 -3.07644 11.6
      vertex -5.64725 -2.86014 11.6
    endloop
  endfacet
  facet normal 0 0 1
    outer loop
      vertex -5.04417 -3.26311 11.6
      vertex -5.7984 -4.67418 11.6
      vertex -5.32822 -4.89656 11.6
    endloop
  endfacet
  facet normal 0 0 1
    outer loop
      vertex -6.66228 -4.09696 11.6
      vertex -5.64725 -2.86014 11.6
      vertex -5.9163 -2.61629 11.6
    endloop
  endfacet
  facet normal 0 0 1
    outer loop
      vertex -7.04767 -3.74767 11.6
      vertex -5.9163 -2.61629 11.6
      vertex -6.16014 -2.34725 11.6
    endloop
  endfacet
  facet normal 0 0 1
    outer loop
      vertex -5.35561 -3.07644 11.6
      vertex -6.24452 -4.40679 11.6
      vertex -5.7984 -4.67418 11.6
    endloop
  endfacet
  facet normal 0 0 1
    outer loop
      vertex -7.39695 -3.36228 11.6
      vertex -6.16014 -2.34725 11.6
      vertex -6.37644 -2.05561 11.6
    endloop
  endfacet
  facet normal 0 0 1
    outer loop
      vertex -7.70679 -2.94452 11.6
      vertex -6.37644 -2.05561 11.6
      vertex -6.56311 -1.74417 11.6
    endloop
  endfacet
  facet normal 0 0 1
    outer loop
      vertex -5.64725 -2.86014 11.6
      vertex -6.66228 -4.09696 11.6
      vertex -6.24452 -4.40679 11.6
    endloop
  endfacet
  facet normal 0 0 1
    outer loop
      vertex -7.97418 -2.4984 11.6
      vertex -6.56311 -1.74417 11.6
      vertex -6.71835 -1.41593 11.6
    endloop
  endfacet
  facet normal 0 0 1
    outer loop
      vertex -8.19656 -2.02822 11.6
      vertex -6.71835 -1.41593 11.6
      vertex -6.84068 -1.07405 11.6
    endloop
  endfacet
  facet normal 0 0 1
    outer loop
      vertex -8.37178 -1.53851 11.6
      vertex -6.84068 -1.07405 11.6
      vertex -6.92891 -0.721834 11.6
    endloop
  endfacet
  facet normal 0 0 1
    outer loop
      vertex -8.49816 -1.03398 11.6
      vertex -6.92891 -0.721834 11.6
      vertex -6.98218 -0.362663 11.6
    endloop
  endfacet
  facet normal 0 0 1
    outer loop
      vertex -5.9163 -2.61629 11.6
      vertex -7.04767 -3.74767 11.6
      vertex -6.66228 -4.09696 11.6
    endloop
  endfacet
  facet normal 0 0 1
    outer loop
      vertex -8.57448 -0.51949 11.6
      vertex -6.98218 -0.362663 11.6
      vertex -7 0 11.6
    endloop
  endfacet
  facet normal 0 0 1
    outer loop
      vertex -6.71835 1.41593 11.6
      vertex -8.19656 2.02822 11.6
      vertex -6.84068 1.07405 11.6
    endloop
  endfacet
  facet normal -0 0 1
    outer loop
      vertex -8.37178 1.53851 11.6
      vertex -6.84068 1.07405 11.6
      vertex -8.19656 2.02822 11.6
    endloop
  endfacet
  facet normal 0 0 1
    outer loop
      vertex -6.16014 -2.34725 11.6
      vertex -7.39695 -3.36228 11.6
      vertex -7.04767 -3.74767 11.6
    endloop
  endfacet
  facet normal 0 0 1
    outer loop
      vertex -6.84068 1.07405 11.6
      vertex -8.37178 1.53851 11.6
      vertex -6.92891 0.721834 11.6
    endloop
  endfacet
  facet normal 0 0 1
    outer loop
      vertex -6.37644 -2.05561 11.6
      vertex -7.70679 -2.94452 11.6
      vertex -7.39695 -3.36228 11.6
    endloop
  endfacet
  facet normal -0 0 1
    outer loop
      vertex -8.49816 1.03398 11.6
      vertex -6.92891 0.721834 11.6
      vertex -8.37178 1.53851 11.6
    endloop
  endfacet
  facet normal 0 0 1
    outer loop
      vertex -6.56311 -1.74417 11.6
      vertex -7.97418 -2.4984 11.6
      vertex -7.70679 -2.94452 11.6
    endloop
  endfacet
  facet normal 0 0 1
    outer loop
      vertex -6.92891 0.721834 11.6
      vertex -8.49816 1.03398 11.6
      vertex -6.98218 0.362663 11.6
    endloop
  endfacet
  facet normal 0 0 1
    outer loop
      vertex -6.71835 -1.41593 11.6
      vertex -8.19656 -2.02822 11.6
      vertex -7.97418 -2.4984 11.6
    endloop
  endfacet
  facet normal -0 0 1
    outer loop
      vertex -8.57448 0.51949 11.6
      vertex -6.98218 0.362663 11.6
      vertex -8.49816 1.03398 11.6
    endloop
  endfacet
  facet normal 0 0 1
    outer loop
      vertex -6.84068 -1.07405 11.6
      vertex -8.37178 -1.53851 11.6
      vertex -8.19656 -2.02822 11.6
    endloop
  endfacet
  facet normal 0 0 1
    outer loop
      vertex -6.98218 0.362663 11.6
      vertex -8.57448 0.51949 11.6
      vertex -7 0 11.6
    endloop
  endfacet
  facet normal 0 0 1
    outer loop
      vertex -6.92891 -0.721834 11.6
      vertex -8.49816 -1.03398 11.6
      vertex -8.37178 -1.53851 11.6
    endloop
  endfacet
  facet normal 0 0 1
    outer loop
      vertex -8.6 0 11.6
      vertex -7 0 11.6
      vertex -8.57448 0.51949 11.6
    endloop
  endfacet
  facet normal 0 0 1
    outer loop
      vertex -6.98218 -0.362663 11.6
      vertex -8.57448 -0.51949 11.6
      vertex -8.49816 -1.03398 11.6
    endloop
  endfacet
  facet normal 0 0 1
    outer loop
      vertex -7 0 11.6
      vertex -8.6 0 11.6
      vertex -8.57448 -0.51949 11.6
    endloop
  endfacet
  facet normal -0.989177 0.14673 0
    outer loop
      vertex -8.57448 0.51949 0
      vertex -8.49816 1.03398 11.6
      vertex -8.49816 1.03398 0
    endloop
  endfacet
  facet normal -0.989177 0.14673 0
    outer loop
      vertex -8.49816 1.03398 11.6
      vertex -8.57448 0.51949 0
      vertex -8.57448 0.51949 11.6
    endloop
  endfacet
  facet normal -0.857728 0.514103 0
    outer loop
      vertex -7.97418 2.4984 0
      vertex -7.70679 2.94452 11.6
      vertex -7.70679 2.94452 0
    endloop
  endfacet
  facet normal -0.857728 0.514103 0
    outer loop
      vertex -7.70679 2.94452 11.6
      vertex -7.97418 2.4984 0
      vertex -7.97418 2.4984 11.6
    endloop
  endfacet
  facet normal -0.941544 0.33689 0
    outer loop
      vertex -8.37178 1.53851 0
      vertex -8.19656 2.02822 11.6
      vertex -8.19656 2.02822 0
    endloop
  endfacet
  facet normal -0.941544 0.33689 0
    outer loop
      vertex -8.19656 2.02822 11.6
      vertex -8.37178 1.53851 0
      vertex -8.37178 1.53851 11.6
    endloop
  endfacet
  facet normal -0.903989 0.427555 0
    outer loop
      vertex -8.19656 2.02822 0
      vertex -7.97418 2.4984 11.6
      vertex -7.97418 2.4984 0
    endloop
  endfacet
  facet normal -0.903989 0.427555 0
    outer loop
      vertex -7.97418 2.4984 11.6
      vertex -8.19656 2.02822 0
      vertex -8.19656 2.02822 11.6
    endloop
  endfacet
  facet normal -0.514101 0.85773 0
    outer loop
      vertex -5.7984 4.67418 0
      vertex -6.24452 4.40679 11.6
      vertex -5.7984 4.67418 11.6
    endloop
  endfacet
  facet normal -0.514101 0.85773 0
    outer loop
      vertex -6.24452 4.40679 11.6
      vertex -5.7984 4.67418 0
      vertex -6.24452 4.40679 0
    endloop
  endfacet
  facet normal -0.5957 0.803207 0
    outer loop
      vertex -6.24452 4.40679 0
      vertex -6.66228 4.09696 11.6
      vertex -6.24452 4.40679 11.6
    endloop
  endfacet
  facet normal -0.5957 0.803207 0
    outer loop
      vertex -6.66228 4.09696 11.6
      vertex -6.24452 4.40679 0
      vertex -6.66228 4.09696 0
    endloop
  endfacet
  facet normal -0.146732 0.989176 0
    outer loop
      vertex -3.81949 5.27448 0
      vertex -4.33398 5.19816 11.6
      vertex -3.81949 5.27448 11.6
    endloop
  endfacet
  facet normal -0.146732 0.989176 0
    outer loop
      vertex -4.33398 5.19816 11.6
      vertex -3.81949 5.27448 0
      vertex -4.33398 5.19816 0
    endloop
  endfacet
  facet normal 0.0490649 0.998796 -0
    outer loop
      vertex 6.97643 5.29133 0
      vertex 6.8 5.3 11.6
      vertex 6.97643 5.29133 11.6
    endloop
  endfacet
  facet normal 0.0490649 0.998796 0
    outer loop
      vertex 6.8 5.3 11.6
      vertex 6.97643 5.29133 0
      vertex 6.8 5.3 0
    endloop
  endfacet
  facet normal 0.998796 -0.0490649 0
    outer loop
      vertex 8.59133 -3.67643 11.6
      vertex 8.6 -3.5 0
      vertex 8.6 -3.5 11.6
    endloop
  endfacet
  facet normal 0.998796 -0.0490649 0
    outer loop
      vertex 8.6 -3.5 0
      vertex 8.59133 -3.67643 11.6
      vertex 8.59133 -3.67643 0
    endloop
  endfacet
  facet normal 1 -0 0
    outer loop
      vertex 8.6 -3.5 11.6
      vertex 8.6 3.5 0
      vertex 8.6 3.5 11.6
    endloop
  endfacet
  facet normal 1 0 0
    outer loop
      vertex 8.6 3.5 0
      vertex 8.6 -3.5 11.6
      vertex 8.6 -3.5 0
    endloop
  endfacet
  facet normal 0.14673 -0.989177 0
    outer loop
      vertex 6.97643 -5.29133 0
      vertex 7.15116 -5.26541 11.6
      vertex 6.97643 -5.29133 11.6
    endloop
  endfacet
  facet normal 0.14673 -0.989177 0
    outer loop
      vertex 7.15116 -5.26541 11.6
      vertex 6.97643 -5.29133 0
      vertex 7.15116 -5.26541 0
    endloop
  endfacet
  facet normal -0.336891 -0.941544 0
    outer loop
      vertex -5.32822 -4.89656 0
      vertex -4.83851 -5.07178 11.6
      vertex -5.32822 -4.89656 11.6
    endloop
  endfacet
  facet normal -0.336891 -0.941544 -0
    outer loop
      vertex -4.83851 -5.07178 11.6
      vertex -5.32822 -4.89656 0
      vertex -4.83851 -5.07178 0
    endloop
  endfacet
  facet normal -0.514101 -0.85773 0
    outer loop
      vertex -6.24452 -4.40679 0
      vertex -5.7984 -4.67418 11.6
      vertex -6.24452 -4.40679 11.6
    endloop
  endfacet
  facet normal -0.514101 -0.85773 -0
    outer loop
      vertex -5.7984 -4.67418 11.6
      vertex -6.24452 -4.40679 0
      vertex -5.7984 -4.67418 0
    endloop
  endfacet
  facet normal -0.857728 -0.514103 0
    outer loop
      vertex -7.70679 -2.94452 0
      vertex -7.97418 -2.4984 11.6
      vertex -7.97418 -2.4984 0
    endloop
  endfacet
  facet normal -0.857728 -0.514103 0
    outer loop
      vertex -7.97418 -2.4984 11.6
      vertex -7.70679 -2.94452 0
      vertex -7.70679 -2.94452 11.6
    endloop
  endfacet
  facet normal -0.903989 -0.427555 0
    outer loop
      vertex -7.97418 -2.4984 0
      vertex -8.19656 -2.02822 11.6
      vertex -8.19656 -2.02822 0
    endloop
  endfacet
  facet normal -0.903989 -0.427555 0
    outer loop
      vertex -8.19656 -2.02822 11.6
      vertex -7.97418 -2.4984 0
      vertex -7.97418 -2.4984 11.6
    endloop
  endfacet
  facet normal -0.941544 -0.33689 0
    outer loop
      vertex -8.19656 -2.02822 0
      vertex -8.37178 -1.53851 11.6
      vertex -8.37178 -1.53851 0
    endloop
  endfacet
  facet normal -0.941544 -0.33689 0
    outer loop
      vertex -8.37178 -1.53851 11.6
      vertex -8.19656 -2.02822 0
      vertex -8.19656 -2.02822 11.6
    endloop
  endfacet
  facet normal 0 0 -1
    outer loop
      vertex 6.8 -5.3 0
      vertex 8.6 -3.5 0
      vertex 8.59133 -3.67643 0
    endloop
  endfacet
  facet normal -0 0 -1
    outer loop
      vertex 8.6 -3.5 0
      vertex 6.8 -5.3 0
      vertex 8.6 3.5 0
    endloop
  endfacet
  facet normal 0 0 -1
    outer loop
      vertex 6.8 -5.3 0
      vertex 8.59133 -3.67643 0
      vertex 8.56541 -3.85116 0
    endloop
  endfacet
  facet normal 0 0 -1
    outer loop
      vertex 6.8 5.3 0
      vertex 8.6 3.5 0
      vertex 6.8 -5.3 0
    endloop
  endfacet
  facet normal 0 0 -1
    outer loop
      vertex 6.8 -5.3 0
      vertex 8.56541 -3.85116 0
      vertex 8.52249 -4.02251 0
    endloop
  endfacet
  facet normal 0 0 -1
    outer loop
      vertex 8.6 3.5 0
      vertex 6.8 5.3 0
      vertex 8.59133 3.67643 0
    endloop
  endfacet
  facet normal 0 0 -1
    outer loop
      vertex 6.8 -5.3 0
      vertex 8.52249 -4.02251 0
      vertex 8.46298 -4.18883 0
    endloop
  endfacet
  facet normal 0 0 -1
    outer loop
      vertex 8.59133 3.67643 0
      vertex 6.8 5.3 0
      vertex 8.56541 3.85116 0
    endloop
  endfacet
  facet normal 0 0 -1
    outer loop
      vertex 6.8 -5.3 0
      vertex 8.46298 -4.18883 0
      vertex 8.38746 -4.34851 0
    endloop
  endfacet
  facet normal 0 0 -1
    outer loop
      vertex 8.56541 3.85116 0
      vertex 6.8 5.3 0
      vertex 8.52249 4.02251 0
    endloop
  endfacet
  facet normal 0 0 -1
    outer loop
      vertex 6.8 -5.3 0
      vertex 8.38746 -4.34851 0
      vertex 8.29665 -4.50003 0
    endloop
  endfacet
  facet normal 0 0 -1
    outer loop
      vertex 8.52249 4.02251 0
      vertex 6.8 5.3 0
      vertex 8.46298 4.18883 0
    endloop
  endfacet
  facet normal 0 0 -1
    outer loop
      vertex 6.8 -5.3 0
      vertex 8.29665 -4.50003 0
      vertex 8.19142 -4.64191 0
    endloop
  endfacet
  facet normal 0 0 -1
    outer loop
      vertex 8.46298 4.18883 0
      vertex 6.8 5.3 0
      vertex 8.38746 4.34851 0
    endloop
  endfacet
  facet normal 0 0 -1
    outer loop
      vertex 6.8 -5.3 0
      vertex 8.19142 -4.64191 0
      vertex 8.07279 -4.77279 0
    endloop
  endfacet
  facet normal 0 0 -1
    outer loop
      vertex 8.38746 4.34851 0
      vertex 6.8 5.3 0
      vertex 8.29665 4.50003 0
    endloop
  endfacet
  facet normal 0 0 -1
    outer loop
      vertex 6.8 -5.3 0
      vertex 8.07279 -4.77279 0
      vertex 7.94191 -4.89142 0
    endloop
  endfacet
  facet normal 0 0 -1
    outer loop
      vertex 8.29665 4.50003 0
      vertex 6.8 5.3 0
      vertex 8.19142 4.64191 0
    endloop
  endfacet
  facet normal 0 0 -1
    outer loop
      vertex 6.8 -5.3 0
      vertex 7.94191 -4.89142 0
      vertex 7.80003 -4.99664 0
    endloop
  endfacet
  facet normal 0 0 -1
    outer loop
      vertex 8.19142 4.64191 0
      vertex 6.8 5.3 0
      vertex 8.07279 4.77279 0
    endloop
  endfacet
  facet normal 0 0 -1
    outer loop
      vertex 6.8 -5.3 0
      vertex 7.80003 -4.99664 0
      vertex 7.64851 -5.08746 0
    endloop
  endfacet
  facet normal 0 0 -1
    outer loop
      vertex 8.07279 4.77279 0
      vertex 6.8 5.3 0
      vertex 7.94191 4.89142 0
    endloop
  endfacet
  facet normal 0 0 -1
    outer loop
      vertex 6.8 -5.3 0
      vertex 7.64851 -5.08746 0
      vertex 7.48883 -5.16298 0
    endloop
  endfacet
  facet normal 0 0 -1
    outer loop
      vertex 7.94191 4.89142 0
      vertex 6.8 5.3 0
      vertex 7.80003 4.99664 0
    endloop
  endfacet
  facet normal 0 0 -1
    outer loop
      vertex 6.8 -5.3 0
      vertex 7.48883 -5.16298 0
      vertex 7.32251 -5.22249 0
    endloop
  endfacet
  facet normal 0 0 -1
    outer loop
      vertex 7.80003 4.99664 0
      vertex 6.8 5.3 0
      vertex 7.64851 5.08746 0
    endloop
  endfacet
  facet normal 0 0 -1
    outer loop
      vertex 6.8 -5.3 0
      vertex 7.32251 -5.22249 0
      vertex 7.15116 -5.26541 0
    endloop
  endfacet
  facet normal 0 0 -1
    outer loop
      vertex 7.64851 5.08746 0
      vertex 6.8 5.3 0
      vertex 7.48883 5.16298 0
    endloop
  endfacet
  facet normal 0 0 -1
    outer loop
      vertex 6.8 -5.3 0
      vertex 7.15116 -5.26541 0
      vertex 6.97643 -5.29133 0
    endloop
  endfacet
  facet normal 0 0 -1
    outer loop
      vertex 7.48883 5.16298 0
      vertex 6.8 5.3 0
      vertex 7.32251 5.22249 0
    endloop
  endfacet
  facet normal 0 0 -1
    outer loop
      vertex 7.32251 5.22249 0
      vertex 6.8 5.3 0
      vertex 7.15116 5.26541 0
    endloop
  endfacet
  facet normal 0 0 -1
    outer loop
      vertex 7.15116 5.26541 0
      vertex 6.8 5.3 0
      vertex 6.97643 5.29133 0
    endloop
  endfacet
  facet normal 0 0 -1
    outer loop
      vertex -3.3 -5.3 0
      vertex 6.8 5.3 0
      vertex 6.8 -5.3 0
    endloop
  endfacet
  facet normal 0 0 -1
    outer loop
      vertex -3.3 -5.3 0
      vertex -3.3 5.3 0
      vertex 6.8 5.3 0
    endloop
  endfacet
  facet normal 0 0 -1
    outer loop
      vertex -3.81949 -5.27448 0
      vertex -3.3 5.3 0
      vertex -3.3 -5.3 0
    endloop
  endfacet
  facet normal 0 0 -1
    outer loop
      vertex -3.81949 -5.27448 0
      vertex -3.81949 5.27448 0
      vertex -3.3 5.3 0
    endloop
  endfacet
  facet normal 0 0 -1
    outer loop
      vertex -4.33398 -5.19816 0
      vertex -3.81949 5.27448 0
      vertex -3.81949 -5.27448 0
    endloop
  endfacet
  facet normal 0 0 -1
    outer loop
      vertex -4.33398 -5.19816 0
      vertex -4.33398 5.19816 0
      vertex -3.81949 5.27448 0
    endloop
  endfacet
  facet normal 0 0 -1
    outer loop
      vertex -4.83851 -5.07178 0
      vertex -4.33398 5.19816 0
      vertex -4.33398 -5.19816 0
    endloop
  endfacet
  facet normal 0 0 -1
    outer loop
      vertex -4.83851 -5.07178 0
      vertex -4.83851 5.07178 0
      vertex -4.33398 5.19816 0
    endloop
  endfacet
  facet normal 0 0 -1
    outer loop
      vertex -5.32822 -4.89656 0
      vertex -4.83851 5.07178 0
      vertex -4.83851 -5.07178 0
    endloop
  endfacet
  facet normal 0 0 -1
    outer loop
      vertex -5.32822 -4.89656 0
      vertex -5.32822 4.89656 0
      vertex -4.83851 5.07178 0
    endloop
  endfacet
  facet normal 0 0 -1
    outer loop
      vertex -5.7984 -4.67418 0
      vertex -5.32822 4.89656 0
      vertex -5.32822 -4.89656 0
    endloop
  endfacet
  facet normal 0 0 -1
    outer loop
      vertex -5.7984 -4.67418 0
      vertex -5.7984 4.67418 0
      vertex -5.32822 4.89656 0
    endloop
  endfacet
  facet normal 0 0 -1
    outer loop
      vertex -6.24452 -4.40679 0
      vertex -5.7984 4.67418 0
      vertex -5.7984 -4.67418 0
    endloop
  endfacet
  facet normal 0 0 -1
    outer loop
      vertex -6.24452 -4.40679 0
      vertex -6.24452 4.40679 0
      vertex -5.7984 4.67418 0
    endloop
  endfacet
  facet normal 0 0 -1
    outer loop
      vertex -6.66228 -4.09696 0
      vertex -6.24452 4.40679 0
      vertex -6.24452 -4.40679 0
    endloop
  endfacet
  facet normal 0 0 -1
    outer loop
      vertex -6.66228 -4.09696 0
      vertex -6.66228 4.09696 0
      vertex -6.24452 4.40679 0
    endloop
  endfacet
  facet normal 0 0 -1
    outer loop
      vertex -7.04767 -3.74767 0
      vertex -6.66228 4.09696 0
      vertex -6.66228 -4.09696 0
    endloop
  endfacet
  facet normal 0 0 -1
    outer loop
      vertex -7.04767 -3.74767 0
      vertex -7.04767 3.74767 0
      vertex -6.66228 4.09696 0
    endloop
  endfacet
  facet normal 0 0 -1
    outer loop
      vertex -7.39695 -3.36228 0
      vertex -7.04767 3.74767 0
      vertex -7.04767 -3.74767 0
    endloop
  endfacet
  facet normal 0 0 -1
    outer loop
      vertex -7.39695 -3.36228 0
      vertex -7.39695 3.36228 0
      vertex -7.04767 3.74767 0
    endloop
  endfacet
  facet normal 0 0 -1
    outer loop
      vertex -7.70679 -2.94452 0
      vertex -7.39695 3.36228 0
      vertex -7.39695 -3.36228 0
    endloop
  endfacet
  facet normal 0 0 -1
    outer loop
      vertex -7.70679 -2.94452 0
      vertex -7.70679 2.94452 0
      vertex -7.39695 3.36228 0
    endloop
  endfacet
  facet normal 0 0 -1
    outer loop
      vertex -7.97418 -2.4984 0
      vertex -7.70679 2.94452 0
      vertex -7.70679 -2.94452 0
    endloop
  endfacet
  facet normal 0 0 -1
    outer loop
      vertex -7.97418 -2.4984 0
      vertex -7.97418 2.4984 0
      vertex -7.70679 2.94452 0
    endloop
  endfacet
  facet normal 0 0 -1
    outer loop
      vertex -8.19656 -2.02822 0
      vertex -7.97418 2.4984 0
      vertex -7.97418 -2.4984 0
    endloop
  endfacet
  facet normal 0 0 -1
    outer loop
      vertex -8.19656 -2.02822 0
      vertex -8.19656 2.02822 0
      vertex -7.97418 2.4984 0
    endloop
  endfacet
  facet normal 0 0 -1
    outer loop
      vertex -8.37178 -1.53851 0
      vertex -8.19656 2.02822 0
      vertex -8.19656 -2.02822 0
    endloop
  endfacet
  facet normal 0 0 -1
    outer loop
      vertex -8.37178 -1.53851 0
      vertex -8.37178 1.53851 0
      vertex -8.19656 2.02822 0
    endloop
  endfacet
  facet normal 0 0 -1
    outer loop
      vertex -8.49816 -1.03398 0
      vertex -8.37178 1.53851 0
      vertex -8.37178 -1.53851 0
    endloop
  endfacet
  facet normal 0 0 -1
    outer loop
      vertex -8.49816 -1.03398 0
      vertex -8.49816 1.03398 0
      vertex -8.37178 1.53851 0
    endloop
  endfacet
  facet normal 0 0 -1
    outer loop
      vertex -8.57448 -0.51949 0
      vertex -8.49816 1.03398 0
      vertex -8.49816 -1.03398 0
    endloop
  endfacet
  facet normal 0 0 -1
    outer loop
      vertex -8.57448 -0.51949 0
      vertex -8.57448 0.51949 0
      vertex -8.49816 1.03398 0
    endloop
  endfacet
  facet normal 0 -0 -1
    outer loop
      vertex -8.57448 0.51949 0
      vertex -8.57448 -0.51949 0
      vertex -8.6 0 0
    endloop
  endfacet
  facet normal -0.998795 -0.0490684 0
    outer loop
      vertex -8.57448 -0.51949 0
      vertex -8.6 0 11.6
      vertex -8.6 0 0
    endloop
  endfacet
  facet normal -0.998795 -0.0490684 0
    outer loop
      vertex -8.6 0 11.6
      vertex -8.57448 -0.51949 0
      vertex -8.57448 -0.51949 11.6
    endloop
  endfacet
  facet normal -0.970031 0.24298 0
    outer loop
      vertex -8.49816 1.03398 0
      vertex -8.37178 1.53851 11.6
      vertex -8.37178 1.53851 0
    endloop
  endfacet
  facet normal -0.970031 0.24298 0
    outer loop
      vertex -8.37178 1.53851 11.6
      vertex -8.49816 1.03398 0
      vertex -8.49816 1.03398 11.6
    endloop
  endfacet
  facet normal 0.242981 0.970031 -0
    outer loop
      vertex 7.32251 5.22249 0
      vertex 7.15116 5.26541 11.6
      vertex 7.32251 5.22249 11.6
    endloop
  endfacet
  facet normal 0.242981 0.970031 0
    outer loop
      vertex 7.15116 5.26541 11.6
      vertex 7.32251 5.22249 0
      vertex 7.15116 5.26541 0
    endloop
  endfacet
  facet normal 0.427556 0.903989 -0
    outer loop
      vertex 7.64851 5.08746 0
      vertex 7.48883 5.16298 11.6
      vertex 7.64851 5.08746 11.6
    endloop
  endfacet
  facet normal 0.427556 0.903989 0
    outer loop
      vertex 7.48883 5.16298 11.6
      vertex 7.64851 5.08746 0
      vertex 7.48883 5.16298 0
    endloop
  endfacet
  facet normal 0.514102 0.857729 -0
    outer loop
      vertex 7.80003 4.99664 0
      vertex 7.64851 5.08746 11.6
      vertex 7.80003 4.99664 11.6
    endloop
  endfacet
  facet normal 0.514102 0.857729 0
    outer loop
      vertex 7.64851 5.08746 11.6
      vertex 7.80003 4.99664 0
      vertex 7.64851 5.08746 0
    endloop
  endfacet
  facet normal 0.336889 -0.941544 0
    outer loop
      vertex 7.32251 -5.22249 0
      vertex 7.48883 -5.16298 11.6
      vertex 7.32251 -5.22249 11.6
    endloop
  endfacet
  facet normal 0.336889 -0.941544 0
    outer loop
      vertex 7.48883 -5.16298 11.6
      vertex 7.32251 -5.22249 0
      vertex 7.48883 -5.16298 0
    endloop
  endfacet
  facet normal 0.242981 -0.970031 0
    outer loop
      vertex 7.15116 -5.26541 0
      vertex 7.32251 -5.22249 11.6
      vertex 7.15116 -5.26541 11.6
    endloop
  endfacet
  facet normal 0.242981 -0.970031 0
    outer loop
      vertex 7.32251 -5.22249 11.6
      vertex 7.15116 -5.26541 0
      vertex 7.32251 -5.22249 0
    endloop
  endfacet
  facet normal 0.595698 -0.803208 0
    outer loop
      vertex 7.80003 -4.99664 0
      vertex 7.94191 -4.89142 11.6
      vertex 7.80003 -4.99664 11.6
    endloop
  endfacet
  facet normal 0.595698 -0.803208 0
    outer loop
      vertex 7.94191 -4.89142 11.6
      vertex 7.80003 -4.99664 0
      vertex 7.94191 -4.89142 0
    endloop
  endfacet
  facet normal 0.671559 -0.740951 0
    outer loop
      vertex 7.94191 -4.89142 0
      vertex 8.07279 -4.77279 11.6
      vertex 7.94191 -4.89142 11.6
    endloop
  endfacet
  facet normal 0.671559 -0.740951 0
    outer loop
      vertex 8.07279 -4.77279 11.6
      vertex 7.94191 -4.89142 0
      vertex 8.07279 -4.77279 0
    endloop
  endfacet
  facet normal 0.989176 -0.146731 0
    outer loop
      vertex 8.56541 -3.85116 11.6
      vertex 8.59133 -3.67643 0
      vertex 8.59133 -3.67643 11.6
    endloop
  endfacet
  facet normal 0.989176 -0.146731 0
    outer loop
      vertex 8.59133 -3.67643 0
      vertex 8.56541 -3.85116 11.6
      vertex 8.56541 -3.85116 0
    endloop
  endfacet
  facet normal 0.857729 -0.514102 0
    outer loop
      vertex 8.29665 -4.50003 11.6
      vertex 8.38746 -4.34851 0
      vertex 8.38746 -4.34851 11.6
    endloop
  endfacet
  facet normal 0.857729 -0.514102 0
    outer loop
      vertex 8.38746 -4.34851 0
      vertex 8.29665 -4.50003 11.6
      vertex 8.29665 -4.50003 0
    endloop
  endfacet
  facet normal 0.903989 -0.427556 0
    outer loop
      vertex 8.38746 -4.34851 11.6
      vertex 8.46298 -4.18883 0
      vertex 8.46298 -4.18883 11.6
    endloop
  endfacet
  facet normal 0.903989 -0.427556 0
    outer loop
      vertex 8.46298 -4.18883 0
      vertex 8.38746 -4.34851 11.6
      vertex 8.38746 -4.34851 0
    endloop
  endfacet
  facet normal 0.740951 -0.671559 0
    outer loop
      vertex 8.07279 -4.77279 11.6
      vertex 8.19142 -4.64191 0
      vertex 8.19142 -4.64191 11.6
    endloop
  endfacet
  facet normal 0.740951 -0.671559 0
    outer loop
      vertex 8.19142 -4.64191 0
      vertex 8.07279 -4.77279 11.6
      vertex 8.07279 -4.77279 0
    endloop
  endfacet
  facet normal -0.671559 -0.740951 0
    outer loop
      vertex -7.04767 -3.74767 0
      vertex -6.66228 -4.09696 11.6
      vertex -7.04767 -3.74767 11.6
    endloop
  endfacet
  facet normal -0.671559 -0.740951 -0
    outer loop
      vertex -6.66228 -4.09696 11.6
      vertex -7.04767 -3.74767 0
      vertex -6.66228 -4.09696 0
    endloop
  endfacet
  facet normal -0.5957 -0.803207 0
    outer loop
      vertex -6.66228 -4.09696 0
      vertex -6.24452 -4.40679 11.6
      vertex -6.66228 -4.09696 11.6
    endloop
  endfacet
  facet normal -0.5957 -0.803207 -0
    outer loop
      vertex -6.24452 -4.40679 11.6
      vertex -6.66228 -4.09696 0
      vertex -6.24452 -4.40679 0
    endloop
  endfacet
  facet normal -0.427555 -0.903989 0
    outer loop
      vertex -5.7984 -4.67418 0
      vertex -5.32822 -4.89656 11.6
      vertex -5.7984 -4.67418 11.6
    endloop
  endfacet
  facet normal -0.427555 -0.903989 -0
    outer loop
      vertex -5.32822 -4.89656 11.6
      vertex -5.7984 -4.67418 0
      vertex -5.32822 -4.89656 0
    endloop
  endfacet
  facet normal 0.998796 0.0490649 0
    outer loop
      vertex 8.6 3.5 11.6
      vertex 8.59133 3.67643 0
      vertex 8.59133 3.67643 11.6
    endloop
  endfacet
  facet normal 0.998796 0.0490649 0
    outer loop
      vertex 8.59133 3.67643 0
      vertex 8.6 3.5 11.6
      vertex 8.6 3.5 0
    endloop
  endfacet
  facet normal 0.14673 0.989177 -0
    outer loop
      vertex 7.15116 5.26541 0
      vertex 6.97643 5.29133 11.6
      vertex 7.15116 5.26541 11.6
    endloop
  endfacet
  facet normal 0.14673 0.989177 0
    outer loop
      vertex 6.97643 5.29133 11.6
      vertex 7.15116 5.26541 0
      vertex 6.97643 5.29133 0
    endloop
  endfacet
  facet normal 0.989176 0.146731 0
    outer loop
      vertex 8.59133 3.67643 11.6
      vertex 8.56541 3.85116 0
      vertex 8.56541 3.85116 11.6
    endloop
  endfacet
  facet normal 0.989176 0.146731 0
    outer loop
      vertex 8.56541 3.85116 0
      vertex 8.59133 3.67643 11.6
      vertex 8.59133 3.67643 0
    endloop
  endfacet
  facet normal 0.803208 0.595698 0
    outer loop
      vertex 8.29665 4.50003 11.6
      vertex 8.19142 4.64191 0
      vertex 8.19142 4.64191 11.6
    endloop
  endfacet
  facet normal 0.803208 0.595698 0
    outer loop
      vertex 8.19142 4.64191 0
      vertex 8.29665 4.50003 11.6
      vertex 8.29665 4.50003 0
    endloop
  endfacet
  facet normal 0.514102 -0.857729 0
    outer loop
      vertex 7.64851 -5.08746 0
      vertex 7.80003 -4.99664 11.6
      vertex 7.64851 -5.08746 11.6
    endloop
  endfacet
  facet normal 0.514102 -0.857729 0
    outer loop
      vertex 7.80003 -4.99664 11.6
      vertex 7.64851 -5.08746 0
      vertex 7.80003 -4.99664 0
    endloop
  endfacet
  facet normal 0.970031 -0.242981 0
    outer loop
      vertex 8.52249 -4.02251 11.6
      vertex 8.56541 -3.85116 0
      vertex 8.56541 -3.85116 11.6
    endloop
  endfacet
  facet normal 0.970031 -0.242981 0
    outer loop
      vertex 8.56541 -3.85116 0
      vertex 8.52249 -4.02251 11.6
      vertex 8.52249 -4.02251 0
    endloop
  endfacet
  facet normal 0.803208 -0.595698 0
    outer loop
      vertex 8.19142 -4.64191 11.6
      vertex 8.29665 -4.50003 0
      vertex 8.29665 -4.50003 11.6
    endloop
  endfacet
  facet normal 0.803208 -0.595698 0
    outer loop
      vertex 8.29665 -4.50003 0
      vertex 8.19142 -4.64191 11.6
      vertex 8.19142 -4.64191 0
    endloop
  endfacet
  facet normal -0.740952 -0.671558 0
    outer loop
      vertex -7.04767 -3.74767 0
      vertex -7.39695 -3.36228 11.6
      vertex -7.39695 -3.36228 0
    endloop
  endfacet
  facet normal -0.740952 -0.671558 0
    outer loop
      vertex -7.39695 -3.36228 11.6
      vertex -7.04767 -3.74767 0
      vertex -7.04767 -3.74767 11.6
    endloop
  endfacet
  facet normal -0.803207 -0.5957 0
    outer loop
      vertex -7.39695 -3.36228 0
      vertex -7.70679 -2.94452 11.6
      vertex -7.70679 -2.94452 0
    endloop
  endfacet
  facet normal -0.803207 -0.5957 0
    outer loop
      vertex -7.70679 -2.94452 11.6
      vertex -7.39695 -3.36228 0
      vertex -7.39695 -3.36228 11.6
    endloop
  endfacet
  facet normal 0.336889 0.941544 -0
    outer loop
      vertex 7.48883 5.16298 0
      vertex 7.32251 5.22249 11.6
      vertex 7.48883 5.16298 11.6
    endloop
  endfacet
  facet normal 0.336889 0.941544 0
    outer loop
      vertex 7.32251 5.22249 11.6
      vertex 7.48883 5.16298 0
      vertex 7.32251 5.22249 0
    endloop
  endfacet
  facet normal 0.941544 0.336889 0
    outer loop
      vertex 8.52249 4.02251 11.6
      vertex 8.46298 4.18883 0
      vertex 8.46298 4.18883 11.6
    endloop
  endfacet
  facet normal 0.941544 0.336889 0
    outer loop
      vertex 8.46298 4.18883 0
      vertex 8.52249 4.02251 11.6
      vertex 8.52249 4.02251 0
    endloop
  endfacet
  facet normal 0.671559 0.740951 -0
    outer loop
      vertex 8.07279 4.77279 0
      vertex 7.94191 4.89142 11.6
      vertex 8.07279 4.77279 11.6
    endloop
  endfacet
  facet normal 0.671559 0.740951 0
    outer loop
      vertex 7.94191 4.89142 11.6
      vertex 8.07279 4.77279 0
      vertex 7.94191 4.89142 0
    endloop
  endfacet
  facet normal 0.740951 0.671559 0
    outer loop
      vertex 8.19142 4.64191 11.6
      vertex 8.07279 4.77279 0
      vertex 8.07279 4.77279 11.6
    endloop
  endfacet
  facet normal 0.740951 0.671559 0
    outer loop
      vertex 8.07279 4.77279 0
      vertex 8.19142 4.64191 11.6
      vertex 8.19142 4.64191 0
    endloop
  endfacet
  facet normal 0.970031 0.242981 0
    outer loop
      vertex 8.56541 3.85116 11.6
      vertex 8.52249 4.02251 0
      vertex 8.52249 4.02251 11.6
    endloop
  endfacet
  facet normal 0.970031 0.242981 0
    outer loop
      vertex 8.52249 4.02251 0
      vertex 8.56541 3.85116 11.6
      vertex 8.56541 3.85116 0
    endloop
  endfacet
  facet normal 0.857729 0.514102 0
    outer loop
      vertex 8.38746 4.34851 11.6
      vertex 8.29665 4.50003 0
      vertex 8.29665 4.50003 11.6
    endloop
  endfacet
  facet normal 0.857729 0.514102 0
    outer loop
      vertex 8.29665 4.50003 0
      vertex 8.38746 4.34851 11.6
      vertex 8.38746 4.34851 0
    endloop
  endfacet
  facet normal 0.903989 0.427556 0
    outer loop
      vertex 8.46298 4.18883 11.6
      vertex 8.38746 4.34851 0
      vertex 8.38746 4.34851 11.6
    endloop
  endfacet
  facet normal 0.903989 0.427556 0
    outer loop
      vertex 8.38746 4.34851 0
      vertex 8.46298 4.18883 11.6
      vertex 8.46298 4.18883 0
    endloop
  endfacet
  facet normal -1 0 0
    outer loop
      vertex 7 -3.5 1.6
      vertex 7 3.5 11.6
      vertex 7 3.5 1.6
    endloop
  endfacet
  facet normal -1 -0 0
    outer loop
      vertex 7 3.5 11.6
      vertex 7 -3.5 1.6
      vertex 7 -3.5 11.6
    endloop
  endfacet
  facet normal -0.970028 0.242993 0
    outer loop
      vertex 6.99139 -3.55806 1.6
      vertex 6.99616 -3.53902 11.6
      vertex 6.99616 -3.53902 1.6
    endloop
  endfacet
  facet normal -0.970028 0.242993 0
    outer loop
      vertex 6.99616 -3.53902 11.6
      vertex 6.99139 -3.55806 1.6
      vertex 6.99139 -3.55806 11.6
    endloop
  endfacet
  facet normal 0.33689 -0.941544 0
    outer loop
      vertex -4.71593 3.41835 1.6
      vertex -4.37405 3.54068 11.6
      vertex -4.71593 3.41835 11.6
    endloop
  endfacet
  facet normal 0.33689 -0.941544 0
    outer loop
      vertex -4.37405 3.54068 11.6
      vertex -4.71593 3.41835 1.6
      vertex -4.37405 3.54068 1.6
    endloop
  endfacet
  facet normal -0.998795 -0.0490773 0
    outer loop
      vertex 7 3.5 1.6
      vertex 6.99904 3.5196 11.6
      vertex 6.99904 3.5196 1.6
    endloop
  endfacet
  facet normal -0.998795 -0.0490773 0
    outer loop
      vertex 6.99904 3.5196 11.6
      vertex 7 3.5 1.6
      vertex 7 3.5 11.6
    endloop
  endfacet
  facet normal -0.243004 0.970025 0
    outer loop
      vertex 6.85806 -3.69139 1.6
      vertex 6.83902 -3.69616 11.6
      vertex 6.85806 -3.69139 11.6
    endloop
  endfacet
  facet normal -0.243004 0.970025 0
    outer loop
      vertex 6.83902 -3.69616 11.6
      vertex 6.85806 -3.69139 1.6
      vertex 6.83902 -3.69616 1.6
    endloop
  endfacet
  facet normal 0.941544 -0.33689 0
    outer loop
      vertex -6.84068 1.07405 11.6
      vertex -6.71835 1.41593 1.6
      vertex -6.71835 1.41593 11.6
    endloop
  endfacet
  facet normal 0.941544 -0.33689 0
    outer loop
      vertex -6.71835 1.41593 1.6
      vertex -6.84068 1.07405 11.6
      vertex -6.84068 1.07405 1.6
    endloop
  endfacet
  facet normal 0.857729 -0.514103 0
    outer loop
      vertex -6.56311 1.74417 11.6
      vertex -6.37644 2.05561 1.6
      vertex -6.37644 2.05561 11.6
    endloop
  endfacet
  facet normal 0.857729 -0.514103 0
    outer loop
      vertex -6.37644 2.05561 1.6
      vertex -6.56311 1.74417 11.6
      vertex -6.56311 1.74417 1.6
    endloop
  endfacet
  facet normal 0.0490678 -0.998795 0
    outer loop
      vertex -3.66266 3.68218 1.6
      vertex -3.3 3.7 11.6
      vertex -3.66266 3.68218 11.6
    endloop
  endfacet
  facet normal 0.0490678 -0.998795 0
    outer loop
      vertex -3.3 3.7 11.6
      vertex -3.66266 3.68218 1.6
      vertex -3.3 3.7 1.6
    endloop
  endfacet
  facet normal 0 -1 0
    outer loop
      vertex -3.3 3.7 1.6
      vertex 6.8 3.7 11.6
      vertex -3.3 3.7 11.6
    endloop
  endfacet
  facet normal 0 -1 -0
    outer loop
      vertex 6.8 3.7 11.6
      vertex -3.3 3.7 1.6
      vertex 6.8 3.7 1.6
    endloop
  endfacet
  facet normal -0.336866 0.941553 0
    outer loop
      vertex 6.87654 -3.68478 1.6
      vertex 6.85806 -3.69139 11.6
      vertex 6.87654 -3.68478 11.6
    endloop
  endfacet
  facet normal -0.336866 0.941553 0
    outer loop
      vertex 6.85806 -3.69139 11.6
      vertex 6.87654 -3.68478 1.6
      vertex 6.85806 -3.69139 1.6
    endloop
  endfacet
  facet normal 0 1 -0
    outer loop
      vertex 6.8 -3.7 1.6
      vertex -3.3 -3.7 11.6
      vertex 6.8 -3.7 11.6
    endloop
  endfacet
  facet normal 0 1 0
    outer loop
      vertex -3.3 -3.7 11.6
      vertex 6.8 -3.7 1.6
      vertex -3.3 -3.7 1.6
    endloop
  endfacet
  facet normal 0.14673 0.989177 -0
    outer loop
      vertex -3.66266 -3.68218 1.6
      vertex -4.02183 -3.62891 11.6
      vertex -3.66266 -3.68218 11.6
    endloop
  endfacet
  facet normal 0.14673 0.989177 0
    outer loop
      vertex -4.02183 -3.62891 11.6
      vertex -3.66266 -3.68218 1.6
      vertex -4.02183 -3.62891 1.6
    endloop
  endfacet
  facet normal 0.0490678 0.998795 -0
    outer loop
      vertex -3.3 -3.7 1.6
      vertex -3.66266 -3.68218 11.6
      vertex -3.3 -3.7 11.6
    endloop
  endfacet
  facet normal 0.0490678 0.998795 0
    outer loop
      vertex -3.66266 -3.68218 11.6
      vertex -3.3 -3.7 1.6
      vertex -3.66266 -3.68218 1.6
    endloop
  endfacet
  facet normal 0.989177 0.14673 0
    outer loop
      vertex -6.92891 -0.721834 11.6
      vertex -6.98218 -0.362663 1.6
      vertex -6.98218 -0.362663 11.6
    endloop
  endfacet
  facet normal 0.989177 0.14673 0
    outer loop
      vertex -6.98218 -0.362663 1.6
      vertex -6.92891 -0.721834 11.6
      vertex -6.92891 -0.721834 1.6
    endloop
  endfacet
  facet normal 0.903989 0.427555 0
    outer loop
      vertex -6.56311 -1.74417 11.6
      vertex -6.71835 -1.41593 1.6
      vertex -6.71835 -1.41593 11.6
    endloop
  endfacet
  facet normal 0.903989 0.427555 0
    outer loop
      vertex -6.71835 -1.41593 1.6
      vertex -6.56311 -1.74417 11.6
      vertex -6.56311 -1.74417 1.6
    endloop
  endfacet
  facet normal 0.671558 0.740952 -0
    outer loop
      vertex -5.64725 -2.86014 1.6
      vertex -5.9163 -2.61629 11.6
      vertex -5.64725 -2.86014 11.6
    endloop
  endfacet
  facet normal 0.671558 0.740952 0
    outer loop
      vertex -5.9163 -2.61629 11.6
      vertex -5.64725 -2.86014 1.6
      vertex -5.9163 -2.61629 1.6
    endloop
  endfacet
  facet normal 0.514104 0.857728 -0
    outer loop
      vertex -5.04417 -3.26311 1.6
      vertex -5.35561 -3.07644 11.6
      vertex -5.04417 -3.26311 11.6
    endloop
  endfacet
  facet normal 0.514104 0.857728 0
    outer loop
      vertex -5.35561 -3.07644 11.6
      vertex -5.04417 -3.26311 1.6
      vertex -5.35561 -3.07644 1.6
    endloop
  endfacet
  facet normal 0.970031 0.242981 0
    outer loop
      vertex -6.84068 -1.07405 11.6
      vertex -6.92891 -0.721834 1.6
      vertex -6.92891 -0.721834 11.6
    endloop
  endfacet
  facet normal 0.970031 0.242981 0
    outer loop
      vertex -6.92891 -0.721834 1.6
      vertex -6.84068 -1.07405 11.6
      vertex -6.84068 -1.07405 1.6
    endloop
  endfacet
  facet normal 0.514104 -0.857728 0
    outer loop
      vertex -5.35561 3.07644 1.6
      vertex -5.04417 3.26311 11.6
      vertex -5.35561 3.07644 11.6
    endloop
  endfacet
  facet normal 0.514104 -0.857728 0
    outer loop
      vertex -5.04417 3.26311 11.6
      vertex -5.35561 3.07644 1.6
      vertex -5.04417 3.26311 1.6
    endloop
  endfacet
  facet normal 0.671558 -0.740952 0
    outer loop
      vertex -5.9163 2.61629 1.6
      vertex -5.64725 2.86014 11.6
      vertex -5.9163 2.61629 11.6
    endloop
  endfacet
  facet normal 0.671558 -0.740952 0
    outer loop
      vertex -5.64725 2.86014 11.6
      vertex -5.9163 2.61629 1.6
      vertex -5.64725 2.86014 1.6
    endloop
  endfacet
  facet normal 0.595699 -0.803208 0
    outer loop
      vertex -5.64725 2.86014 1.6
      vertex -5.35561 3.07644 11.6
      vertex -5.64725 2.86014 11.6
    endloop
  endfacet
  facet normal 0.595699 -0.803208 0
    outer loop
      vertex -5.35561 3.07644 11.6
      vertex -5.64725 2.86014 1.6
      vertex -5.35561 3.07644 1.6
    endloop
  endfacet
  facet normal 0.740952 -0.671558 0
    outer loop
      vertex -6.16014 2.34725 11.6
      vertex -5.9163 2.61629 1.6
      vertex -5.9163 2.61629 11.6
    endloop
  endfacet
  facet normal 0.740952 -0.671558 0
    outer loop
      vertex -5.9163 2.61629 1.6
      vertex -6.16014 2.34725 11.6
      vertex -6.16014 2.34725 1.6
    endloop
  endfacet
  facet normal 0.970031 -0.242981 0
    outer loop
      vertex -6.92891 0.721834 11.6
      vertex -6.84068 1.07405 1.6
      vertex -6.84068 1.07405 11.6
    endloop
  endfacet
  facet normal 0.970031 -0.242981 0
    outer loop
      vertex -6.84068 1.07405 1.6
      vertex -6.92891 0.721834 11.6
      vertex -6.92891 0.721834 1.6
    endloop
  endfacet
  facet normal 0.998795 0.0490678 0
    outer loop
      vertex -6.98218 -0.362663 11.6
      vertex -7 0 1.6
      vertex -7 0 11.6
    endloop
  endfacet
  facet normal 0.998795 0.0490678 0
    outer loop
      vertex -7 0 1.6
      vertex -6.98218 -0.362663 11.6
      vertex -6.98218 -0.362663 1.6
    endloop
  endfacet
  facet normal 0.998795 -0.0490678 0
    outer loop
      vertex -7 0 11.6
      vertex -6.98218 0.362663 1.6
      vertex -6.98218 0.362663 11.6
    endloop
  endfacet
  facet normal 0.998795 -0.0490678 0
    outer loop
      vertex -6.98218 0.362663 1.6
      vertex -7 0 11.6
      vertex -7 0 1.6
    endloop
  endfacet
  facet normal -0.989175 0.146739 0
    outer loop
      vertex 6.99616 -3.53902 1.6
      vertex 6.99904 -3.5196 11.6
      vertex 6.99904 -3.5196 1.6
    endloop
  endfacet
  facet normal -0.989175 0.146739 0
    outer loop
      vertex 6.99904 -3.5196 11.6
      vertex 6.99616 -3.53902 1.6
      vertex 6.99616 -3.53902 11.6
    endloop
  endfacet
  facet normal 0.24298 -0.970031 0
    outer loop
      vertex -4.37405 3.54068 1.6
      vertex -4.02183 3.62891 11.6
      vertex -4.37405 3.54068 11.6
    endloop
  endfacet
  facet normal 0.24298 -0.970031 0
    outer loop
      vertex -4.02183 3.62891 11.6
      vertex -4.37405 3.54068 1.6
      vertex -4.02183 3.62891 1.6
    endloop
  endfacet
  facet normal 0.14673 -0.989177 0
    outer loop
      vertex -4.02183 3.62891 1.6
      vertex -3.66266 3.68218 11.6
      vertex -4.02183 3.62891 11.6
    endloop
  endfacet
  facet normal 0.14673 -0.989177 0
    outer loop
      vertex -3.66266 3.68218 11.6
      vertex -4.02183 3.62891 1.6
      vertex -3.66266 3.68218 1.6
    endloop
  endfacet
  facet normal -0.51411 -0.857724 0
    outer loop
      vertex 6.89428 3.67638 1.6
      vertex 6.91111 3.66629 11.6
      vertex 6.89428 3.67638 11.6
    endloop
  endfacet
  facet normal -0.51411 -0.857724 -0
    outer loop
      vertex 6.91111 3.66629 11.6
      vertex 6.89428 3.67638 1.6
      vertex 6.91111 3.66629 1.6
    endloop
  endfacet
  facet normal -0.427554 -0.90399 0
    outer loop
      vertex 6.87654 3.68478 1.6
      vertex 6.89428 3.67638 11.6
      vertex 6.87654 3.68478 11.6
    endloop
  endfacet
  facet normal -0.427554 -0.90399 -0
    outer loop
      vertex 6.89428 3.67638 11.6
      vertex 6.87654 3.68478 1.6
      vertex 6.89428 3.67638 1.6
    endloop
  endfacet
  facet normal -0.74097 0.671538 0
    outer loop
      vertex 6.94142 -3.64142 1.6
      vertex 6.9546 -3.62688 11.6
      vertex 6.9546 -3.62688 1.6
    endloop
  endfacet
  facet normal -0.74097 0.671538 0
    outer loop
      vertex 6.9546 -3.62688 11.6
      vertex 6.94142 -3.64142 1.6
      vertex 6.94142 -3.64142 11.6
    endloop
  endfacet
  facet normal -0.803196 0.595715 0
    outer loop
      vertex 6.9546 -3.62688 1.6
      vertex 6.96629 -3.61111 11.6
      vertex 6.96629 -3.61111 1.6
    endloop
  endfacet
  facet normal -0.803196 0.595715 0
    outer loop
      vertex 6.96629 -3.61111 11.6
      vertex 6.9546 -3.62688 1.6
      vertex 6.9546 -3.62688 11.6
    endloop
  endfacet
  facet normal -0.595684 0.803219 0
    outer loop
      vertex 6.92688 -3.6546 1.6
      vertex 6.91111 -3.66629 11.6
      vertex 6.92688 -3.6546 11.6
    endloop
  endfacet
  facet normal -0.595684 0.803219 0
    outer loop
      vertex 6.91111 -3.66629 11.6
      vertex 6.92688 -3.6546 1.6
      vertex 6.91111 -3.66629 1.6
    endloop
  endfacet
  facet normal -0.0490749 0.998795 0
    outer loop
      vertex 6.8196 -3.69904 1.6
      vertex 6.8 -3.7 11.6
      vertex 6.8196 -3.69904 11.6
    endloop
  endfacet
  facet normal -0.0490749 0.998795 0
    outer loop
      vertex 6.8 -3.7 11.6
      vertex 6.8196 -3.69904 1.6
      vertex 6.8 -3.7 1.6
    endloop
  endfacet
  facet normal 0.427555 0.903989 -0
    outer loop
      vertex -4.71593 -3.41835 1.6
      vertex -5.04417 -3.26311 11.6
      vertex -4.71593 -3.41835 11.6
    endloop
  endfacet
  facet normal 0.427555 0.903989 0
    outer loop
      vertex -5.04417 -3.26311 11.6
      vertex -4.71593 -3.41835 1.6
      vertex -5.04417 -3.26311 1.6
    endloop
  endfacet
  facet normal 0.24298 0.970031 -0
    outer loop
      vertex -4.02183 -3.62891 1.6
      vertex -4.37405 -3.54068 11.6
      vertex -4.02183 -3.62891 11.6
    endloop
  endfacet
  facet normal 0.24298 0.970031 0
    outer loop
      vertex -4.37405 -3.54068 11.6
      vertex -4.02183 -3.62891 1.6
      vertex -4.37405 -3.54068 1.6
    endloop
  endfacet
  facet normal 0.595699 0.803208 -0
    outer loop
      vertex -5.35561 -3.07644 1.6
      vertex -5.64725 -2.86014 11.6
      vertex -5.35561 -3.07644 11.6
    endloop
  endfacet
  facet normal 0.595699 0.803208 0
    outer loop
      vertex -5.64725 -2.86014 11.6
      vertex -5.35561 -3.07644 1.6
      vertex -5.64725 -2.86014 1.6
    endloop
  endfacet
  facet normal 0.941544 0.33689 0
    outer loop
      vertex -6.71835 -1.41593 11.6
      vertex -6.84068 -1.07405 1.6
      vertex -6.84068 -1.07405 11.6
    endloop
  endfacet
  facet normal 0.941544 0.33689 0
    outer loop
      vertex -6.84068 -1.07405 1.6
      vertex -6.71835 -1.41593 11.6
      vertex -6.71835 -1.41593 1.6
    endloop
  endfacet
  facet normal 0.803207 0.5957 0
    outer loop
      vertex -6.16014 -2.34725 11.6
      vertex -6.37644 -2.05561 1.6
      vertex -6.37644 -2.05561 11.6
    endloop
  endfacet
  facet normal 0.803207 0.5957 0
    outer loop
      vertex -6.37644 -2.05561 1.6
      vertex -6.16014 -2.34725 11.6
      vertex -6.16014 -2.34725 1.6
    endloop
  endfacet
  facet normal 0.427555 -0.903989 0
    outer loop
      vertex -5.04417 3.26311 1.6
      vertex -4.71593 3.41835 11.6
      vertex -5.04417 3.26311 11.6
    endloop
  endfacet
  facet normal 0.427555 -0.903989 0
    outer loop
      vertex -4.71593 3.41835 11.6
      vertex -5.04417 3.26311 1.6
      vertex -4.71593 3.41835 1.6
    endloop
  endfacet
  facet normal 0.803207 -0.5957 0
    outer loop
      vertex -6.37644 2.05561 11.6
      vertex -6.16014 2.34725 1.6
      vertex -6.16014 2.34725 11.6
    endloop
  endfacet
  facet normal 0.803207 -0.5957 0
    outer loop
      vertex -6.16014 2.34725 1.6
      vertex -6.37644 2.05561 11.6
      vertex -6.37644 2.05561 1.6
    endloop
  endfacet
  facet normal 0.903989 -0.427555 0
    outer loop
      vertex -6.71835 1.41593 11.6
      vertex -6.56311 1.74417 1.6
      vertex -6.56311 1.74417 11.6
    endloop
  endfacet
  facet normal 0.903989 -0.427555 0
    outer loop
      vertex -6.56311 1.74417 1.6
      vertex -6.71835 1.41593 11.6
      vertex -6.71835 1.41593 1.6
    endloop
  endfacet
  facet normal 0.989177 -0.14673 0
    outer loop
      vertex -6.98218 0.362663 11.6
      vertex -6.92891 0.721834 1.6
      vertex -6.92891 0.721834 11.6
    endloop
  endfacet
  facet normal 0.989177 -0.14673 0
    outer loop
      vertex -6.92891 0.721834 1.6
      vertex -6.98218 0.362663 11.6
      vertex -6.98218 0.362663 1.6
    endloop
  endfacet
  facet normal 0 0 1
    outer loop
      vertex 6.8 3.7 1.6
      vertex 7 3.5 1.6
      vertex 6.99904 3.5196 1.6
    endloop
  endfacet
  facet normal 0 0 1
    outer loop
      vertex 7 3.5 1.6
      vertex 6.8 3.7 1.6
      vertex 7 -3.5 1.6
    endloop
  endfacet
  facet normal 0 0 1
    outer loop
      vertex 6.8 3.7 1.6
      vertex 6.99904 3.5196 1.6
      vertex 6.99616 3.53902 1.6
    endloop
  endfacet
  facet normal 0 0 1
    outer loop
      vertex 6.8 -3.7 1.6
      vertex 7 -3.5 1.6
      vertex 6.8 3.7 1.6
    endloop
  endfacet
  facet normal 0 0 1
    outer loop
      vertex 6.8 3.7 1.6
      vertex 6.99616 3.53902 1.6
      vertex 6.99139 3.55806 1.6
    endloop
  endfacet
  facet normal 0 0 1
    outer loop
      vertex 7 -3.5 1.6
      vertex 6.8 -3.7 1.6
      vertex 6.99904 -3.5196 1.6
    endloop
  endfacet
  facet normal 0 0 1
    outer loop
      vertex 6.8 3.7 1.6
      vertex 6.99139 3.55806 1.6
      vertex 6.98478 3.57654 1.6
    endloop
  endfacet
  facet normal 0 0 1
    outer loop
      vertex 6.99904 -3.5196 1.6
      vertex 6.8 -3.7 1.6
      vertex 6.99616 -3.53902 1.6
    endloop
  endfacet
  facet normal 0 0 1
    outer loop
      vertex 6.8 3.7 1.6
      vertex 6.98478 3.57654 1.6
      vertex 6.97638 3.59428 1.6
    endloop
  endfacet
  facet normal 0 0 1
    outer loop
      vertex 6.99616 -3.53902 1.6
      vertex 6.8 -3.7 1.6
      vertex 6.99139 -3.55806 1.6
    endloop
  endfacet
  facet normal 0 0 1
    outer loop
      vertex 6.8 3.7 1.6
      vertex 6.97638 3.59428 1.6
      vertex 6.96629 3.61111 1.6
    endloop
  endfacet
  facet normal 0 0 1
    outer loop
      vertex 6.99139 -3.55806 1.6
      vertex 6.8 -3.7 1.6
      vertex 6.98478 -3.57654 1.6
    endloop
  endfacet
  facet normal 0 0 1
    outer loop
      vertex 6.8 3.7 1.6
      vertex 6.96629 3.61111 1.6
      vertex 6.9546 3.62688 1.6
    endloop
  endfacet
  facet normal 0 0 1
    outer loop
      vertex 6.98478 -3.57654 1.6
      vertex 6.8 -3.7 1.6
      vertex 6.97638 -3.59428 1.6
    endloop
  endfacet
  facet normal 0 0 1
    outer loop
      vertex 6.8 3.7 1.6
      vertex 6.9546 3.62688 1.6
      vertex 6.94142 3.64142 1.6
    endloop
  endfacet
  facet normal 0 0 1
    outer loop
      vertex 6.97638 -3.59428 1.6
      vertex 6.8 -3.7 1.6
      vertex 6.96629 -3.61111 1.6
    endloop
  endfacet
  facet normal 0 0 1
    outer loop
      vertex 6.8 3.7 1.6
      vertex 6.94142 3.64142 1.6
      vertex 6.92688 3.6546 1.6
    endloop
  endfacet
  facet normal 0 0 1
    outer loop
      vertex 6.96629 -3.61111 1.6
      vertex 6.8 -3.7 1.6
      vertex 6.9546 -3.62688 1.6
    endloop
  endfacet
  facet normal 0 0 1
    outer loop
      vertex 6.8 3.7 1.6
      vertex 6.92688 3.6546 1.6
      vertex 6.91111 3.66629 1.6
    endloop
  endfacet
  facet normal 0 0 1
    outer loop
      vertex 6.9546 -3.62688 1.6
      vertex 6.8 -3.7 1.6
      vertex 6.94142 -3.64142 1.6
    endloop
  endfacet
  facet normal 0 0 1
    outer loop
      vertex 6.8 3.7 1.6
      vertex 6.91111 3.66629 1.6
      vertex 6.89428 3.67638 1.6
    endloop
  endfacet
  facet normal 0 0 1
    outer loop
      vertex 6.94142 -3.64142 1.6
      vertex 6.8 -3.7 1.6
      vertex 6.92688 -3.6546 1.6
    endloop
  endfacet
  facet normal 0 0 1
    outer loop
      vertex 6.8 3.7 1.6
      vertex 6.89428 3.67638 1.6
      vertex 6.87654 3.68478 1.6
    endloop
  endfacet
  facet normal 0 0 1
    outer loop
      vertex 6.92688 -3.6546 1.6
      vertex 6.8 -3.7 1.6
      vertex 6.91111 -3.66629 1.6
    endloop
  endfacet
  facet normal 0 0 1
    outer loop
      vertex 6.8 3.7 1.6
      vertex 6.87654 3.68478 1.6
      vertex 6.85806 3.69139 1.6
    endloop
  endfacet
  facet normal 0 0 1
    outer loop
      vertex 6.91111 -3.66629 1.6
      vertex 6.8 -3.7 1.6
      vertex 6.89428 -3.67638 1.6
    endloop
  endfacet
  facet normal 0 0 1
    outer loop
      vertex 6.8 3.7 1.6
      vertex 6.85806 3.69139 1.6
      vertex 6.83902 3.69616 1.6
    endloop
  endfacet
  facet normal 0 0 1
    outer loop
      vertex 6.89428 -3.67638 1.6
      vertex 6.8 -3.7 1.6
      vertex 6.87654 -3.68478 1.6
    endloop
  endfacet
  facet normal 0 0 1
    outer loop
      vertex 6.8 3.7 1.6
      vertex 6.83902 3.69616 1.6
      vertex 6.8196 3.69904 1.6
    endloop
  endfacet
  facet normal 0 0 1
    outer loop
      vertex 6.87654 -3.68478 1.6
      vertex 6.8 -3.7 1.6
      vertex 6.85806 -3.69139 1.6
    endloop
  endfacet
  facet normal 0 0 1
    outer loop
      vertex 6.85806 -3.69139 1.6
      vertex 6.8 -3.7 1.6
      vertex 6.83902 -3.69616 1.6
    endloop
  endfacet
  facet normal 0 0 1
    outer loop
      vertex 6.83902 -3.69616 1.6
      vertex 6.8 -3.7 1.6
      vertex 6.8196 -3.69904 1.6
    endloop
  endfacet
  facet normal -0 0 1
    outer loop
      vertex -3.3 3.7 1.6
      vertex 6.8 -3.7 1.6
      vertex 6.8 3.7 1.6
    endloop
  endfacet
  facet normal 0 0 1
    outer loop
      vertex -3.3 3.7 1.6
      vertex -3.3 -3.7 1.6
      vertex 6.8 -3.7 1.6
    endloop
  endfacet
  facet normal -0 0 1
    outer loop
      vertex -3.66266 3.68218 1.6
      vertex -3.3 -3.7 1.6
      vertex -3.3 3.7 1.6
    endloop
  endfacet
  facet normal 0 0 1
    outer loop
      vertex -3.66266 3.68218 1.6
      vertex -3.66266 -3.68218 1.6
      vertex -3.3 -3.7 1.6
    endloop
  endfacet
  facet normal -0 0 1
    outer loop
      vertex -4.02183 3.62891 1.6
      vertex -3.66266 -3.68218 1.6
      vertex -3.66266 3.68218 1.6
    endloop
  endfacet
  facet normal 0 0 1
    outer loop
      vertex -4.02183 3.62891 1.6
      vertex -4.02183 -3.62891 1.6
      vertex -3.66266 -3.68218 1.6
    endloop
  endfacet
  facet normal -0 0 1
    outer loop
      vertex -4.37405 3.54068 1.6
      vertex -4.02183 -3.62891 1.6
      vertex -4.02183 3.62891 1.6
    endloop
  endfacet
  facet normal 0 0 1
    outer loop
      vertex -4.37405 3.54068 1.6
      vertex -4.37405 -3.54068 1.6
      vertex -4.02183 -3.62891 1.6
    endloop
  endfacet
  facet normal -0 0 1
    outer loop
      vertex -4.71593 3.41835 1.6
      vertex -4.37405 -3.54068 1.6
      vertex -4.37405 3.54068 1.6
    endloop
  endfacet
  facet normal 0 0 1
    outer loop
      vertex -4.71593 3.41835 1.6
      vertex -4.71593 -3.41835 1.6
      vertex -4.37405 -3.54068 1.6
    endloop
  endfacet
  facet normal -0 0 1
    outer loop
      vertex -5.04417 3.26311 1.6
      vertex -4.71593 -3.41835 1.6
      vertex -4.71593 3.41835 1.6
    endloop
  endfacet
  facet normal 0 0 1
    outer loop
      vertex -5.04417 3.26311 1.6
      vertex -5.04417 -3.26311 1.6
      vertex -4.71593 -3.41835 1.6
    endloop
  endfacet
  facet normal -0 0 1
    outer loop
      vertex -5.35561 3.07644 1.6
      vertex -5.04417 -3.26311 1.6
      vertex -5.04417 3.26311 1.6
    endloop
  endfacet
  facet normal 0 0 1
    outer loop
      vertex -5.35561 3.07644 1.6
      vertex -5.35561 -3.07644 1.6
      vertex -5.04417 -3.26311 1.6
    endloop
  endfacet
  facet normal -0 0 1
    outer loop
      vertex -5.64725 2.86014 1.6
      vertex -5.35561 -3.07644 1.6
      vertex -5.35561 3.07644 1.6
    endloop
  endfacet
  facet normal 0 0 1
    outer loop
      vertex -5.64725 2.86014 1.6
      vertex -5.64725 -2.86014 1.6
      vertex -5.35561 -3.07644 1.6
    endloop
  endfacet
  facet normal -0 0 1
    outer loop
      vertex -5.9163 2.61629 1.6
      vertex -5.64725 -2.86014 1.6
      vertex -5.64725 2.86014 1.6
    endloop
  endfacet
  facet normal 0 0 1
    outer loop
      vertex -5.9163 2.61629 1.6
      vertex -5.9163 -2.61629 1.6
      vertex -5.64725 -2.86014 1.6
    endloop
  endfacet
  facet normal -0 0 1
    outer loop
      vertex -6.16014 2.34725 1.6
      vertex -5.9163 -2.61629 1.6
      vertex -5.9163 2.61629 1.6
    endloop
  endfacet
  facet normal 0 0 1
    outer loop
      vertex -6.16014 2.34725 1.6
      vertex -6.16014 -2.34725 1.6
      vertex -5.9163 -2.61629 1.6
    endloop
  endfacet
  facet normal -0 0 1
    outer loop
      vertex -6.37644 2.05561 1.6
      vertex -6.16014 -2.34725 1.6
      vertex -6.16014 2.34725 1.6
    endloop
  endfacet
  facet normal 0 0 1
    outer loop
      vertex -6.37644 2.05561 1.6
      vertex -6.37644 -2.05561 1.6
      vertex -6.16014 -2.34725 1.6
    endloop
  endfacet
  facet normal -0 0 1
    outer loop
      vertex -6.56311 1.74417 1.6
      vertex -6.37644 -2.05561 1.6
      vertex -6.37644 2.05561 1.6
    endloop
  endfacet
  facet normal 0 0 1
    outer loop
      vertex -6.56311 1.74417 1.6
      vertex -6.56311 -1.74417 1.6
      vertex -6.37644 -2.05561 1.6
    endloop
  endfacet
  facet normal -0 0 1
    outer loop
      vertex -6.71835 1.41593 1.6
      vertex -6.56311 -1.74417 1.6
      vertex -6.56311 1.74417 1.6
    endloop
  endfacet
  facet normal 0 0 1
    outer loop
      vertex -6.71835 1.41593 1.6
      vertex -6.71835 -1.41593 1.6
      vertex -6.56311 -1.74417 1.6
    endloop
  endfacet
  facet normal -0 0 1
    outer loop
      vertex -6.84068 1.07405 1.6
      vertex -6.71835 -1.41593 1.6
      vertex -6.71835 1.41593 1.6
    endloop
  endfacet
  facet normal 0 0 1
    outer loop
      vertex -6.84068 1.07405 1.6
      vertex -6.84068 -1.07405 1.6
      vertex -6.71835 -1.41593 1.6
    endloop
  endfacet
  facet normal -0 0 1
    outer loop
      vertex -6.92891 0.721834 1.6
      vertex -6.84068 -1.07405 1.6
      vertex -6.84068 1.07405 1.6
    endloop
  endfacet
  facet normal 0 0 1
    outer loop
      vertex -6.92891 0.721834 1.6
      vertex -6.92891 -0.721834 1.6
      vertex -6.84068 -1.07405 1.6
    endloop
  endfacet
  facet normal -0 0 1
    outer loop
      vertex -6.98218 0.362663 1.6
      vertex -6.92891 -0.721834 1.6
      vertex -6.92891 0.721834 1.6
    endloop
  endfacet
  facet normal 0 0 1
    outer loop
      vertex -6.98218 0.362663 1.6
      vertex -6.98218 -0.362663 1.6
      vertex -6.92891 -0.721834 1.6
    endloop
  endfacet
  facet normal 0 -0 1
    outer loop
      vertex -6.98218 -0.362663 1.6
      vertex -6.98218 0.362663 1.6
      vertex -7 0 1.6
    endloop
  endfacet
  facet normal -0.857712 0.514131 0
    outer loop
      vertex 6.96629 -3.61111 1.6
      vertex 6.97638 -3.59428 11.6
      vertex 6.97638 -3.59428 1.6
    endloop
  endfacet
  facet normal -0.857712 0.514131 0
    outer loop
      vertex 6.97638 -3.59428 11.6
      vertex 6.96629 -3.61111 1.6
      vertex 6.96629 -3.61111 11.6
    endloop
  endfacet
  facet normal -0.0490749 -0.998795 0
    outer loop
      vertex 6.8 3.7 1.6
      vertex 6.8196 3.69904 11.6
      vertex 6.8 3.7 11.6
    endloop
  endfacet
  facet normal -0.0490749 -0.998795 -0
    outer loop
      vertex 6.8196 3.69904 11.6
      vertex 6.8 3.7 1.6
      vertex 6.8196 3.69904 1.6
    endloop
  endfacet
  facet normal -0.336866 -0.941553 0
    outer loop
      vertex 6.85806 3.69139 1.6
      vertex 6.87654 3.68478 11.6
      vertex 6.85806 3.69139 11.6
    endloop
  endfacet
  facet normal -0.336866 -0.941553 -0
    outer loop
      vertex 6.87654 3.68478 11.6
      vertex 6.85806 3.69139 1.6
      vertex 6.87654 3.68478 1.6
    endloop
  endfacet
  facet normal -0.243004 -0.970025 0
    outer loop
      vertex 6.83902 3.69616 1.6
      vertex 6.85806 3.69139 11.6
      vertex 6.83902 3.69616 11.6
    endloop
  endfacet
  facet normal -0.243004 -0.970025 -0
    outer loop
      vertex 6.85806 3.69139 11.6
      vertex 6.83902 3.69616 1.6
      vertex 6.85806 3.69139 1.6
    endloop
  endfacet
  facet normal -0.595684 -0.803219 0
    outer loop
      vertex 6.91111 3.66629 1.6
      vertex 6.92688 3.6546 11.6
      vertex 6.91111 3.66629 11.6
    endloop
  endfacet
  facet normal -0.595684 -0.803219 -0
    outer loop
      vertex 6.92688 3.6546 11.6
      vertex 6.91111 3.66629 1.6
      vertex 6.92688 3.6546 1.6
    endloop
  endfacet
  facet normal -0.903999 -0.427535 0
    outer loop
      vertex 6.98478 3.57654 1.6
      vertex 6.97638 3.59428 11.6
      vertex 6.97638 3.59428 1.6
    endloop
  endfacet
  facet normal -0.903999 -0.427535 0
    outer loop
      vertex 6.97638 3.59428 11.6
      vertex 6.98478 3.57654 1.6
      vertex 6.98478 3.57654 11.6
    endloop
  endfacet
  facet normal -0.146739 0.989175 0
    outer loop
      vertex 6.83902 -3.69616 1.6
      vertex 6.8196 -3.69904 11.6
      vertex 6.83902 -3.69616 11.6
    endloop
  endfacet
  facet normal -0.146739 0.989175 0
    outer loop
      vertex 6.8196 -3.69904 11.6
      vertex 6.83902 -3.69616 1.6
      vertex 6.8196 -3.69904 1.6
    endloop
  endfacet
  facet normal -0.427554 0.90399 0
    outer loop
      vertex 6.89428 -3.67638 1.6
      vertex 6.87654 -3.68478 11.6
      vertex 6.89428 -3.67638 11.6
    endloop
  endfacet
  facet normal -0.427554 0.90399 0
    outer loop
      vertex 6.87654 -3.68478 11.6
      vertex 6.89428 -3.67638 1.6
      vertex 6.87654 -3.68478 1.6
    endloop
  endfacet
  facet normal -0.51411 0.857724 0
    outer loop
      vertex 6.91111 -3.66629 1.6
      vertex 6.89428 -3.67638 11.6
      vertex 6.91111 -3.66629 11.6
    endloop
  endfacet
  facet normal -0.51411 0.857724 0
    outer loop
      vertex 6.89428 -3.67638 11.6
      vertex 6.91111 -3.66629 1.6
      vertex 6.89428 -3.67638 1.6
    endloop
  endfacet
  facet normal 0.33689 0.941544 -0
    outer loop
      vertex -4.37405 -3.54068 1.6
      vertex -4.71593 -3.41835 11.6
      vertex -4.37405 -3.54068 11.6
    endloop
  endfacet
  facet normal 0.33689 0.941544 0
    outer loop
      vertex -4.71593 -3.41835 11.6
      vertex -4.37405 -3.54068 1.6
      vertex -4.71593 -3.41835 1.6
    endloop
  endfacet
  facet normal 0.740952 0.671558 0
    outer loop
      vertex -5.9163 -2.61629 11.6
      vertex -6.16014 -2.34725 1.6
      vertex -6.16014 -2.34725 11.6
    endloop
  endfacet
  facet normal 0.740952 0.671558 0
    outer loop
      vertex -6.16014 -2.34725 1.6
      vertex -5.9163 -2.61629 11.6
      vertex -5.9163 -2.61629 1.6
    endloop
  endfacet
  facet normal 0.857729 0.514103 0
    outer loop
      vertex -6.37644 -2.05561 11.6
      vertex -6.56311 -1.74417 1.6
      vertex -6.56311 -1.74417 11.6
    endloop
  endfacet
  facet normal 0.857729 0.514103 0
    outer loop
      vertex -6.56311 -1.74417 1.6
      vertex -6.37644 -2.05561 11.6
      vertex -6.37644 -2.05561 1.6
    endloop
  endfacet
  facet normal -0.146739 -0.989175 0
    outer loop
      vertex 6.8196 3.69904 1.6
      vertex 6.83902 3.69616 11.6
      vertex 6.8196 3.69904 11.6
    endloop
  endfacet
  facet normal -0.146739 -0.989175 -0
    outer loop
      vertex 6.83902 3.69616 11.6
      vertex 6.8196 3.69904 1.6
      vertex 6.83902 3.69616 1.6
    endloop
  endfacet
  facet normal -0.989175 -0.146739 0
    outer loop
      vertex 6.99904 3.5196 1.6
      vertex 6.99616 3.53902 11.6
      vertex 6.99616 3.53902 1.6
    endloop
  endfacet
  facet normal -0.989175 -0.146739 0
    outer loop
      vertex 6.99616 3.53902 11.6
      vertex 6.99904 3.5196 1.6
      vertex 6.99904 3.5196 11.6
    endloop
  endfacet
  facet normal -0.941547 -0.336881 0
    outer loop
      vertex 6.99139 3.55806 1.6
      vertex 6.98478 3.57654 11.6
      vertex 6.98478 3.57654 1.6
    endloop
  endfacet
  facet normal -0.941547 -0.336881 0
    outer loop
      vertex 6.98478 3.57654 11.6
      vertex 6.99139 3.55806 1.6
      vertex 6.99139 3.55806 11.6
    endloop
  endfacet
  facet normal -0.671562 -0.740948 0
    outer loop
      vertex 6.92688 3.6546 1.6
      vertex 6.94142 3.64142 11.6
      vertex 6.92688 3.6546 11.6
    endloop
  endfacet
  facet normal -0.671562 -0.740948 -0
    outer loop
      vertex 6.94142 3.64142 11.6
      vertex 6.92688 3.6546 1.6
      vertex 6.94142 3.64142 1.6
    endloop
  endfacet
  facet normal -0.74097 -0.671538 0
    outer loop
      vertex 6.9546 3.62688 1.6
      vertex 6.94142 3.64142 11.6
      vertex 6.94142 3.64142 1.6
    endloop
  endfacet
  facet normal -0.74097 -0.671538 0
    outer loop
      vertex 6.94142 3.64142 11.6
      vertex 6.9546 3.62688 1.6
      vertex 6.9546 3.62688 11.6
    endloop
  endfacet
  facet normal -0.803196 -0.595715 0
    outer loop
      vertex 6.96629 3.61111 1.6
      vertex 6.9546 3.62688 11.6
      vertex 6.9546 3.62688 1.6
    endloop
  endfacet
  facet normal -0.803196 -0.595715 0
    outer loop
      vertex 6.9546 3.62688 11.6
      vertex 6.96629 3.61111 1.6
      vertex 6.96629 3.61111 11.6
    endloop
  endfacet
  facet normal -0.903999 0.427535 0
    outer loop
      vertex 6.97638 -3.59428 1.6
      vertex 6.98478 -3.57654 11.6
      vertex 6.98478 -3.57654 1.6
    endloop
  endfacet
  facet normal -0.903999 0.427535 0
    outer loop
      vertex 6.98478 -3.57654 11.6
      vertex 6.97638 -3.59428 1.6
      vertex 6.97638 -3.59428 11.6
    endloop
  endfacet
  facet normal -0.671562 0.740948 0
    outer loop
      vertex 6.94142 -3.64142 1.6
      vertex 6.92688 -3.6546 11.6
      vertex 6.94142 -3.64142 11.6
    endloop
  endfacet
  facet normal -0.671562 0.740948 0
    outer loop
      vertex 6.92688 -3.6546 11.6
      vertex 6.94142 -3.64142 1.6
      vertex 6.92688 -3.6546 1.6
    endloop
  endfacet
  facet normal -0.998795 0.0490773 0
    outer loop
      vertex 6.99904 -3.5196 1.6
      vertex 7 -3.5 11.6
      vertex 7 -3.5 1.6
    endloop
  endfacet
  facet normal -0.998795 0.0490773 0
    outer loop
      vertex 7 -3.5 11.6
      vertex 6.99904 -3.5196 1.6
      vertex 6.99904 -3.5196 11.6
    endloop
  endfacet
  facet normal -0.857712 -0.514131 0
    outer loop
      vertex 6.97638 3.59428 1.6
      vertex 6.96629 3.61111 11.6
      vertex 6.96629 3.61111 1.6
    endloop
  endfacet
  facet normal -0.857712 -0.514131 0
    outer loop
      vertex 6.96629 3.61111 11.6
      vertex 6.97638 3.59428 1.6
      vertex 6.97638 3.59428 11.6
    endloop
  endfacet
  facet normal -0.941547 0.336881 0
    outer loop
      vertex 6.98478 -3.57654 1.6
      vertex 6.99139 -3.55806 11.6
      vertex 6.99139 -3.55806 1.6
    endloop
  endfacet
  facet normal -0.941547 0.336881 0
    outer loop
      vertex 6.99139 -3.55806 11.6
      vertex 6.98478 -3.57654 1.6
      vertex 6.98478 -3.57654 11.6
    endloop
  endfacet
  facet normal -0.970028 -0.242993 0
    outer loop
      vertex 6.99616 3.53902 1.6
      vertex 6.99139 3.55806 11.6
      vertex 6.99139 3.55806 1.6
    endloop
  endfacet
  facet normal -0.970028 -0.242993 0
    outer loop
      vertex 6.99139 3.55806 11.6
      vertex 6.99616 3.53902 1.6
      vertex 6.99616 3.53902 11.6
    endloop
  endfacet
endsolid OpenSCAD_Model
