solid OpenSCAD_Model
  facet normal -1 0 0
    outer loop
      vertex -0.2 -0.2 0
      vertex -0.2 0.2 0.2
      vertex -0.2 0.2 0
    endloop
  endfacet
  facet normal -1 -0 0
    outer loop
      vertex -0.2 0.2 0.2
      vertex -0.2 -0.2 0
      vertex -0.2 -0.2 0.2
    endloop
  endfacet
  facet normal 0 0 1
    outer loop
      vertex 145.2 145.2 0.2
      vertex 144.8 144.8 0.2
      vertex 145.2 139.8 0.2
    endloop
  endfacet
  facet normal -0 0 1
    outer loop
      vertex -0.2 145.2 0.2
      vertex 144.8 144.8 0.2
      vertex 145.2 145.2 0.2
    endloop
  endfacet
  facet normal 0 0 1
    outer loop
      vertex 144.8 144.8 0.2
      vertex -0.2 145.2 0.2
      vertex -0.2 144.8 0.2
    endloop
  endfacet
  facet normal -0 0 1
    outer loop
      vertex 144.8 140.2 0.2
      vertex 145.2 139.8 0.2
      vertex 144.8 144.8 0.2
    endloop
  endfacet
  facet normal 0 0 1
    outer loop
      vertex 144.8 140.2 0.2
      vertex 0.2 139.8 0.2
      vertex 145.2 139.8 0.2
    endloop
  endfacet
  facet normal 0 0 1
    outer loop
      vertex 0.2 139.8 0.2
      vertex -0.2 140.2 0.2
      vertex 0.2 135.2 0.2
    endloop
  endfacet
  facet normal -0 0 1
    outer loop
      vertex -0.2 140.2 0.2
      vertex 0.2 139.8 0.2
      vertex 144.8 140.2 0.2
    endloop
  endfacet
  facet normal 0 0 1
    outer loop
      vertex 145.2 135.2 0.2
      vertex 144.8 134.8 0.2
      vertex 145.2 129.8 0.2
    endloop
  endfacet
  facet normal -0 0 1
    outer loop
      vertex 0.2 135.2 0.2
      vertex 144.8 134.8 0.2
      vertex 145.2 135.2 0.2
    endloop
  endfacet
  facet normal 0 0 1
    outer loop
      vertex 0.2 135.2 0.2
      vertex -0.2 134.8 0.2
      vertex 144.8 134.8 0.2
    endloop
  endfacet
  facet normal 0 0 1
    outer loop
      vertex -0.2 134.8 0.2
      vertex 0.2 135.2 0.2
      vertex -0.2 140.2 0.2
    endloop
  endfacet
  facet normal -0 0 1
    outer loop
      vertex 144.8 130.2 0.2
      vertex 145.2 129.8 0.2
      vertex 144.8 134.8 0.2
    endloop
  endfacet
  facet normal 0 0 1
    outer loop
      vertex 144.8 130.2 0.2
      vertex 0.2 129.8 0.2
      vertex 145.2 129.8 0.2
    endloop
  endfacet
  facet normal 0 0 1
    outer loop
      vertex 0.2 129.8 0.2
      vertex -0.2 130.2 0.2
      vertex 0.2 125.2 0.2
    endloop
  endfacet
  facet normal -0 0 1
    outer loop
      vertex -0.2 130.2 0.2
      vertex 0.2 129.8 0.2
      vertex 144.8 130.2 0.2
    endloop
  endfacet
  facet normal 0 0 1
    outer loop
      vertex 145.2 125.2 0.2
      vertex 144.8 124.8 0.2
      vertex 145.2 119.8 0.2
    endloop
  endfacet
  facet normal -0 0 1
    outer loop
      vertex 0.2 125.2 0.2
      vertex 144.8 124.8 0.2
      vertex 145.2 125.2 0.2
    endloop
  endfacet
  facet normal 0 0 1
    outer loop
      vertex 0.2 125.2 0.2
      vertex -0.2 124.8 0.2
      vertex 144.8 124.8 0.2
    endloop
  endfacet
  facet normal 0 0 1
    outer loop
      vertex -0.2 124.8 0.2
      vertex 0.2 125.2 0.2
      vertex -0.2 130.2 0.2
    endloop
  endfacet
  facet normal -0 0 1
    outer loop
      vertex 144.8 120.2 0.2
      vertex 145.2 119.8 0.2
      vertex 144.8 124.8 0.2
    endloop
  endfacet
  facet normal 0 0 1
    outer loop
      vertex 144.8 120.2 0.2
      vertex 0.2 119.8 0.2
      vertex 145.2 119.8 0.2
    endloop
  endfacet
  facet normal 0 0 1
    outer loop
      vertex 0.2 119.8 0.2
      vertex -0.2 120.2 0.2
      vertex 0.2 115.2 0.2
    endloop
  endfacet
  facet normal -0 0 1
    outer loop
      vertex -0.2 120.2 0.2
      vertex 0.2 119.8 0.2
      vertex 144.8 120.2 0.2
    endloop
  endfacet
  facet normal 0 0 1
    outer loop
      vertex 145.2 115.2 0.2
      vertex 144.8 114.8 0.2
      vertex 145.2 109.8 0.2
    endloop
  endfacet
  facet normal -0 0 1
    outer loop
      vertex 0.2 115.2 0.2
      vertex 144.8 114.8 0.2
      vertex 145.2 115.2 0.2
    endloop
  endfacet
  facet normal 0 0 1
    outer loop
      vertex 0.2 115.2 0.2
      vertex -0.2 114.8 0.2
      vertex 144.8 114.8 0.2
    endloop
  endfacet
  facet normal 0 0 1
    outer loop
      vertex -0.2 114.8 0.2
      vertex 0.2 115.2 0.2
      vertex -0.2 120.2 0.2
    endloop
  endfacet
  facet normal -0 0 1
    outer loop
      vertex 144.8 110.2 0.2
      vertex 145.2 109.8 0.2
      vertex 144.8 114.8 0.2
    endloop
  endfacet
  facet normal 0 0 1
    outer loop
      vertex 144.8 110.2 0.2
      vertex 0.2 109.8 0.2
      vertex 145.2 109.8 0.2
    endloop
  endfacet
  facet normal 0 0 1
    outer loop
      vertex 0.2 109.8 0.2
      vertex -0.2 110.2 0.2
      vertex 0.2 105.2 0.2
    endloop
  endfacet
  facet normal -0 0 1
    outer loop
      vertex -0.2 110.2 0.2
      vertex 0.2 109.8 0.2
      vertex 144.8 110.2 0.2
    endloop
  endfacet
  facet normal 0 0 1
    outer loop
      vertex 145.2 105.2 0.2
      vertex 144.8 104.8 0.2
      vertex 145.2 99.8 0.2
    endloop
  endfacet
  facet normal -0 0 1
    outer loop
      vertex 0.2 105.2 0.2
      vertex 144.8 104.8 0.2
      vertex 145.2 105.2 0.2
    endloop
  endfacet
  facet normal 0 0 1
    outer loop
      vertex 0.2 105.2 0.2
      vertex -0.2 104.8 0.2
      vertex 144.8 104.8 0.2
    endloop
  endfacet
  facet normal 0 0 1
    outer loop
      vertex -0.2 104.8 0.2
      vertex 0.2 105.2 0.2
      vertex -0.2 110.2 0.2
    endloop
  endfacet
  facet normal -0 0 1
    outer loop
      vertex 144.8 100.2 0.2
      vertex 145.2 99.8 0.2
      vertex 144.8 104.8 0.2
    endloop
  endfacet
  facet normal 0 0 1
    outer loop
      vertex 144.8 100.2 0.2
      vertex 0.2 99.8 0.2
      vertex 145.2 99.8 0.2
    endloop
  endfacet
  facet normal 0 0 1
    outer loop
      vertex 0.2 99.8 0.2
      vertex -0.2 100.2 0.2
      vertex 0.2 95.2 0.2
    endloop
  endfacet
  facet normal -0 0 1
    outer loop
      vertex -0.2 100.2 0.2
      vertex 0.2 99.8 0.2
      vertex 144.8 100.2 0.2
    endloop
  endfacet
  facet normal 0 0 1
    outer loop
      vertex 145.2 95.2 0.2
      vertex 144.8 94.8 0.2
      vertex 145.2 89.8 0.2
    endloop
  endfacet
  facet normal -0 0 1
    outer loop
      vertex 0.2 95.2 0.2
      vertex 144.8 94.8 0.2
      vertex 145.2 95.2 0.2
    endloop
  endfacet
  facet normal 0 0 1
    outer loop
      vertex 0.2 95.2 0.2
      vertex -0.2 94.8 0.2
      vertex 144.8 94.8 0.2
    endloop
  endfacet
  facet normal 0 0 1
    outer loop
      vertex -0.2 94.8 0.2
      vertex 0.2 95.2 0.2
      vertex -0.2 100.2 0.2
    endloop
  endfacet
  facet normal -0 0 1
    outer loop
      vertex 144.8 90.2 0.2
      vertex 145.2 89.8 0.2
      vertex 144.8 94.8 0.2
    endloop
  endfacet
  facet normal 0 0 1
    outer loop
      vertex 144.8 90.2 0.2
      vertex 0.2 89.8 0.2
      vertex 145.2 89.8 0.2
    endloop
  endfacet
  facet normal 0 0 1
    outer loop
      vertex 0.2 89.8 0.2
      vertex -0.2 90.2 0.2
      vertex 0.2 85.2 0.2
    endloop
  endfacet
  facet normal -0 0 1
    outer loop
      vertex -0.2 90.2 0.2
      vertex 0.2 89.8 0.2
      vertex 144.8 90.2 0.2
    endloop
  endfacet
  facet normal 0 0 1
    outer loop
      vertex 145.2 85.2 0.2
      vertex 144.8 84.8 0.2
      vertex 145.2 79.8 0.2
    endloop
  endfacet
  facet normal -0 0 1
    outer loop
      vertex 0.2 85.2 0.2
      vertex 144.8 84.8 0.2
      vertex 145.2 85.2 0.2
    endloop
  endfacet
  facet normal 0 0 1
    outer loop
      vertex 0.2 85.2 0.2
      vertex -0.2 84.8 0.2
      vertex 144.8 84.8 0.2
    endloop
  endfacet
  facet normal 0 0 1
    outer loop
      vertex -0.2 84.8 0.2
      vertex 0.2 85.2 0.2
      vertex -0.2 90.2 0.2
    endloop
  endfacet
  facet normal -0 0 1
    outer loop
      vertex 144.8 80.2 0.2
      vertex 145.2 79.8 0.2
      vertex 144.8 84.8 0.2
    endloop
  endfacet
  facet normal 0 0 1
    outer loop
      vertex 144.8 80.2 0.2
      vertex 0.2 79.8 0.2
      vertex 145.2 79.8 0.2
    endloop
  endfacet
  facet normal 0 0 1
    outer loop
      vertex 0.2 79.8 0.2
      vertex -0.2 80.2 0.2
      vertex 0.2 75.2 0.2
    endloop
  endfacet
  facet normal -0 0 1
    outer loop
      vertex -0.2 80.2 0.2
      vertex 0.2 79.8 0.2
      vertex 144.8 80.2 0.2
    endloop
  endfacet
  facet normal 0 0 1
    outer loop
      vertex 145.2 75.2 0.2
      vertex 144.8 74.8 0.2
      vertex 145.2 69.8 0.2
    endloop
  endfacet
  facet normal -0 0 1
    outer loop
      vertex 0.2 75.2 0.2
      vertex 144.8 74.8 0.2
      vertex 145.2 75.2 0.2
    endloop
  endfacet
  facet normal 0 0 1
    outer loop
      vertex 0.2 75.2 0.2
      vertex -0.2 74.8 0.2
      vertex 144.8 74.8 0.2
    endloop
  endfacet
  facet normal 0 0 1
    outer loop
      vertex -0.2 74.8 0.2
      vertex 0.2 75.2 0.2
      vertex -0.2 80.2 0.2
    endloop
  endfacet
  facet normal -0 0 1
    outer loop
      vertex 144.8 70.2 0.2
      vertex 145.2 69.8 0.2
      vertex 144.8 74.8 0.2
    endloop
  endfacet
  facet normal 0 0 1
    outer loop
      vertex 144.8 70.2 0.2
      vertex 0.2 69.8 0.2
      vertex 145.2 69.8 0.2
    endloop
  endfacet
  facet normal 0 0 1
    outer loop
      vertex 0.2 69.8 0.2
      vertex -0.2 70.2 0.2
      vertex 0.2 65.2 0.2
    endloop
  endfacet
  facet normal -0 0 1
    outer loop
      vertex -0.2 70.2 0.2
      vertex 0.2 69.8 0.2
      vertex 144.8 70.2 0.2
    endloop
  endfacet
  facet normal 0 0 1
    outer loop
      vertex 145.2 65.2 0.2
      vertex 144.8 64.8 0.2
      vertex 145.2 59.8 0.2
    endloop
  endfacet
  facet normal -0 0 1
    outer loop
      vertex 0.2 65.2 0.2
      vertex 144.8 64.8 0.2
      vertex 145.2 65.2 0.2
    endloop
  endfacet
  facet normal 0 0 1
    outer loop
      vertex 0.2 65.2 0.2
      vertex -0.2 64.8 0.2
      vertex 144.8 64.8 0.2
    endloop
  endfacet
  facet normal 0 0 1
    outer loop
      vertex -0.2 64.8 0.2
      vertex 0.2 65.2 0.2
      vertex -0.2 70.2 0.2
    endloop
  endfacet
  facet normal -0 0 1
    outer loop
      vertex 144.8 60.2 0.2
      vertex 145.2 59.8 0.2
      vertex 144.8 64.8 0.2
    endloop
  endfacet
  facet normal 0 0 1
    outer loop
      vertex 144.8 60.2 0.2
      vertex 0.2 59.8 0.2
      vertex 145.2 59.8 0.2
    endloop
  endfacet
  facet normal 0 0 1
    outer loop
      vertex 0.2 59.8 0.2
      vertex -0.2 60.2 0.2
      vertex 0.2 55.2 0.2
    endloop
  endfacet
  facet normal -0 0 1
    outer loop
      vertex -0.2 60.2 0.2
      vertex 0.2 59.8 0.2
      vertex 144.8 60.2 0.2
    endloop
  endfacet
  facet normal 0 0 1
    outer loop
      vertex 145.2 55.2 0.2
      vertex 144.8 54.8 0.2
      vertex 145.2 49.8 0.2
    endloop
  endfacet
  facet normal -0 0 1
    outer loop
      vertex 0.2 55.2 0.2
      vertex 144.8 54.8 0.2
      vertex 145.2 55.2 0.2
    endloop
  endfacet
  facet normal 0 0 1
    outer loop
      vertex 0.2 55.2 0.2
      vertex -0.2 54.8 0.2
      vertex 144.8 54.8 0.2
    endloop
  endfacet
  facet normal 0 0 1
    outer loop
      vertex -0.2 54.8 0.2
      vertex 0.2 55.2 0.2
      vertex -0.2 60.2 0.2
    endloop
  endfacet
  facet normal -0 0 1
    outer loop
      vertex 144.8 50.2 0.2
      vertex 145.2 49.8 0.2
      vertex 144.8 54.8 0.2
    endloop
  endfacet
  facet normal 0 0 1
    outer loop
      vertex 144.8 50.2 0.2
      vertex 0.2 49.8 0.2
      vertex 145.2 49.8 0.2
    endloop
  endfacet
  facet normal 0 0 1
    outer loop
      vertex 0.2 49.8 0.2
      vertex -0.2 50.2 0.2
      vertex 0.2 45.2 0.2
    endloop
  endfacet
  facet normal -0 0 1
    outer loop
      vertex -0.2 50.2 0.2
      vertex 0.2 49.8 0.2
      vertex 144.8 50.2 0.2
    endloop
  endfacet
  facet normal 0 0 1
    outer loop
      vertex 145.2 45.2 0.2
      vertex 144.8 44.8 0.2
      vertex 145.2 39.8 0.2
    endloop
  endfacet
  facet normal -0 0 1
    outer loop
      vertex 0.2 45.2 0.2
      vertex 144.8 44.8 0.2
      vertex 145.2 45.2 0.2
    endloop
  endfacet
  facet normal 0 0 1
    outer loop
      vertex 0.2 45.2 0.2
      vertex -0.2 44.8 0.2
      vertex 144.8 44.8 0.2
    endloop
  endfacet
  facet normal 0 0 1
    outer loop
      vertex -0.2 44.8 0.2
      vertex 0.2 45.2 0.2
      vertex -0.2 50.2 0.2
    endloop
  endfacet
  facet normal -0 0 1
    outer loop
      vertex 144.8 40.2 0.2
      vertex 145.2 39.8 0.2
      vertex 144.8 44.8 0.2
    endloop
  endfacet
  facet normal 0 0 1
    outer loop
      vertex 144.8 40.2 0.2
      vertex 0.2 39.8 0.2
      vertex 145.2 39.8 0.2
    endloop
  endfacet
  facet normal 0 0 1
    outer loop
      vertex 0.2 39.8 0.2
      vertex -0.2 40.2 0.2
      vertex 0.2 35.2 0.2
    endloop
  endfacet
  facet normal -0 0 1
    outer loop
      vertex -0.2 40.2 0.2
      vertex 0.2 39.8 0.2
      vertex 144.8 40.2 0.2
    endloop
  endfacet
  facet normal 0 0 1
    outer loop
      vertex 145.2 35.2 0.2
      vertex 144.8 34.8 0.2
      vertex 145.2 29.8 0.2
    endloop
  endfacet
  facet normal -0 0 1
    outer loop
      vertex 0.2 35.2 0.2
      vertex 144.8 34.8 0.2
      vertex 145.2 35.2 0.2
    endloop
  endfacet
  facet normal 0 0 1
    outer loop
      vertex 0.2 35.2 0.2
      vertex -0.2 34.8 0.2
      vertex 144.8 34.8 0.2
    endloop
  endfacet
  facet normal 0 0 1
    outer loop
      vertex -0.2 34.8 0.2
      vertex 0.2 35.2 0.2
      vertex -0.2 40.2 0.2
    endloop
  endfacet
  facet normal -0 0 1
    outer loop
      vertex 144.8 30.2 0.2
      vertex 145.2 29.8 0.2
      vertex 144.8 34.8 0.2
    endloop
  endfacet
  facet normal 0 0 1
    outer loop
      vertex 144.8 30.2 0.2
      vertex 0.2 29.8 0.2
      vertex 145.2 29.8 0.2
    endloop
  endfacet
  facet normal 0 0 1
    outer loop
      vertex 0.2 29.8 0.2
      vertex -0.2 30.2 0.2
      vertex 0.2 25.2 0.2
    endloop
  endfacet
  facet normal -0 0 1
    outer loop
      vertex -0.2 30.2 0.2
      vertex 0.2 29.8 0.2
      vertex 144.8 30.2 0.2
    endloop
  endfacet
  facet normal 0 0 1
    outer loop
      vertex 145.2 25.2 0.2
      vertex 144.8 24.8 0.2
      vertex 145.2 19.8 0.2
    endloop
  endfacet
  facet normal -0 0 1
    outer loop
      vertex 0.2 25.2 0.2
      vertex 144.8 24.8 0.2
      vertex 145.2 25.2 0.2
    endloop
  endfacet
  facet normal 0 0 1
    outer loop
      vertex 0.2 25.2 0.2
      vertex -0.2 24.8 0.2
      vertex 144.8 24.8 0.2
    endloop
  endfacet
  facet normal 0 0 1
    outer loop
      vertex -0.2 24.8 0.2
      vertex 0.2 25.2 0.2
      vertex -0.2 30.2 0.2
    endloop
  endfacet
  facet normal -0 0 1
    outer loop
      vertex 144.8 20.2 0.2
      vertex 145.2 19.8 0.2
      vertex 144.8 24.8 0.2
    endloop
  endfacet
  facet normal 0 0 1
    outer loop
      vertex 144.8 20.2 0.2
      vertex 0.2 19.8 0.2
      vertex 145.2 19.8 0.2
    endloop
  endfacet
  facet normal 0 0 1
    outer loop
      vertex 0.2 19.8 0.2
      vertex -0.2 20.2 0.2
      vertex 0.2 15.2 0.2
    endloop
  endfacet
  facet normal -0 0 1
    outer loop
      vertex -0.2 20.2 0.2
      vertex 0.2 19.8 0.2
      vertex 144.8 20.2 0.2
    endloop
  endfacet
  facet normal 0 0 1
    outer loop
      vertex 145.2 15.2 0.2
      vertex 144.8 14.8 0.2
      vertex 145.2 9.8 0.2
    endloop
  endfacet
  facet normal -0 0 1
    outer loop
      vertex 0.2 15.2 0.2
      vertex 144.8 14.8 0.2
      vertex 145.2 15.2 0.2
    endloop
  endfacet
  facet normal 0 0 1
    outer loop
      vertex 0.2 15.2 0.2
      vertex -0.2 14.8 0.2
      vertex 144.8 14.8 0.2
    endloop
  endfacet
  facet normal 0 0 1
    outer loop
      vertex -0.2 14.8 0.2
      vertex 0.2 15.2 0.2
      vertex -0.2 20.2 0.2
    endloop
  endfacet
  facet normal -0 0 1
    outer loop
      vertex 144.8 10.2 0.2
      vertex 145.2 9.8 0.2
      vertex 144.8 14.8 0.2
    endloop
  endfacet
  facet normal 0 0 1
    outer loop
      vertex 144.8 10.2 0.2
      vertex 0.2 9.8 0.2
      vertex 145.2 9.8 0.2
    endloop
  endfacet
  facet normal 0 0 1
    outer loop
      vertex 0.2 9.8 0.2
      vertex -0.2 10.2 0.2
      vertex 0.2 5.2 0.2
    endloop
  endfacet
  facet normal -0 0 1
    outer loop
      vertex -0.2 10.2 0.2
      vertex 0.2 9.8 0.2
      vertex 144.8 10.2 0.2
    endloop
  endfacet
  facet normal 0 0 1
    outer loop
      vertex 145.2 5.2 0.2
      vertex 144.8 4.8 0.2
      vertex 145.2 -0.2 0.2
    endloop
  endfacet
  facet normal -0 0 1
    outer loop
      vertex 0.2 5.2 0.2
      vertex 144.8 4.8 0.2
      vertex 145.2 5.2 0.2
    endloop
  endfacet
  facet normal 0 0 1
    outer loop
      vertex 0.2 5.2 0.2
      vertex -0.2 4.8 0.2
      vertex 144.8 4.8 0.2
    endloop
  endfacet
  facet normal 0 0 1
    outer loop
      vertex -0.2 4.8 0.2
      vertex 0.2 5.2 0.2
      vertex -0.2 10.2 0.2
    endloop
  endfacet
  facet normal -0 0 1
    outer loop
      vertex 144.8 0.2 0.2
      vertex 145.2 -0.2 0.2
      vertex 144.8 4.8 0.2
    endloop
  endfacet
  facet normal 0 0 1
    outer loop
      vertex -0.2 -0.2 0.2
      vertex 144.8 0.2 0.2
      vertex -0.2 0.2 0.2
    endloop
  endfacet
  facet normal 0 0 1
    outer loop
      vertex 144.8 0.2 0.2
      vertex -0.2 -0.2 0.2
      vertex 145.2 -0.2 0.2
    endloop
  endfacet
  facet normal 1 -0 0
    outer loop
      vertex 145.2 -0.2 0.2
      vertex 145.2 5.2 0
      vertex 145.2 5.2 0.2
    endloop
  endfacet
  facet normal 1 0 0
    outer loop
      vertex 145.2 5.2 0
      vertex 145.2 -0.2 0.2
      vertex 145.2 -0.2 0
    endloop
  endfacet
  facet normal 0 0 -1
    outer loop
      vertex 145.2 -0.2 0
      vertex 144.8 0.2 0
      vertex 145.2 5.2 0
    endloop
  endfacet
  facet normal 0 0 -1
    outer loop
      vertex -0.2 -0.2 0
      vertex 144.8 0.2 0
      vertex 145.2 -0.2 0
    endloop
  endfacet
  facet normal -0 0 -1
    outer loop
      vertex 144.8 0.2 0
      vertex -0.2 -0.2 0
      vertex -0.2 0.2 0
    endloop
  endfacet
  facet normal 0 0 -1
    outer loop
      vertex 144.8 4.8 0
      vertex 145.2 5.2 0
      vertex 144.8 0.2 0
    endloop
  endfacet
  facet normal 0 0 -1
    outer loop
      vertex 144.8 4.8 0
      vertex 0.2 5.2 0
      vertex 145.2 5.2 0
    endloop
  endfacet
  facet normal -0 0 -1
    outer loop
      vertex 0.2 5.2 0
      vertex -0.2 4.8 0
      vertex 0.2 9.8 0
    endloop
  endfacet
  facet normal 0 0 -1
    outer loop
      vertex -0.2 4.8 0
      vertex 0.2 5.2 0
      vertex 144.8 4.8 0
    endloop
  endfacet
  facet normal 0 0 -1
    outer loop
      vertex 145.2 9.8 0
      vertex 144.8 10.2 0
      vertex 145.2 15.2 0
    endloop
  endfacet
  facet normal 0 0 -1
    outer loop
      vertex 0.2 9.8 0
      vertex 144.8 10.2 0
      vertex 145.2 9.8 0
    endloop
  endfacet
  facet normal 0 0 -1
    outer loop
      vertex 0.2 9.8 0
      vertex -0.2 10.2 0
      vertex 144.8 10.2 0
    endloop
  endfacet
  facet normal 0 0 -1
    outer loop
      vertex -0.2 10.2 0
      vertex 0.2 9.8 0
      vertex -0.2 4.8 0
    endloop
  endfacet
  facet normal 0 0 -1
    outer loop
      vertex 144.8 14.8 0
      vertex 145.2 15.2 0
      vertex 144.8 10.2 0
    endloop
  endfacet
  facet normal 0 0 -1
    outer loop
      vertex 144.8 14.8 0
      vertex 0.2 15.2 0
      vertex 145.2 15.2 0
    endloop
  endfacet
  facet normal -0 0 -1
    outer loop
      vertex 0.2 15.2 0
      vertex -0.2 14.8 0
      vertex 0.2 19.8 0
    endloop
  endfacet
  facet normal 0 0 -1
    outer loop
      vertex -0.2 14.8 0
      vertex 0.2 15.2 0
      vertex 144.8 14.8 0
    endloop
  endfacet
  facet normal 0 0 -1
    outer loop
      vertex 145.2 19.8 0
      vertex 144.8 20.2 0
      vertex 145.2 25.2 0
    endloop
  endfacet
  facet normal 0 0 -1
    outer loop
      vertex 0.2 19.8 0
      vertex 144.8 20.2 0
      vertex 145.2 19.8 0
    endloop
  endfacet
  facet normal 0 0 -1
    outer loop
      vertex 0.2 19.8 0
      vertex -0.2 20.2 0
      vertex 144.8 20.2 0
    endloop
  endfacet
  facet normal 0 0 -1
    outer loop
      vertex -0.2 20.2 0
      vertex 0.2 19.8 0
      vertex -0.2 14.8 0
    endloop
  endfacet
  facet normal 0 0 -1
    outer loop
      vertex 144.8 24.8 0
      vertex 145.2 25.2 0
      vertex 144.8 20.2 0
    endloop
  endfacet
  facet normal 0 0 -1
    outer loop
      vertex 144.8 24.8 0
      vertex 0.2 25.2 0
      vertex 145.2 25.2 0
    endloop
  endfacet
  facet normal -0 0 -1
    outer loop
      vertex 0.2 25.2 0
      vertex -0.2 24.8 0
      vertex 0.2 29.8 0
    endloop
  endfacet
  facet normal 0 0 -1
    outer loop
      vertex -0.2 24.8 0
      vertex 0.2 25.2 0
      vertex 144.8 24.8 0
    endloop
  endfacet
  facet normal 0 0 -1
    outer loop
      vertex 145.2 29.8 0
      vertex 144.8 30.2 0
      vertex 145.2 35.2 0
    endloop
  endfacet
  facet normal 0 0 -1
    outer loop
      vertex 0.2 29.8 0
      vertex 144.8 30.2 0
      vertex 145.2 29.8 0
    endloop
  endfacet
  facet normal 0 0 -1
    outer loop
      vertex 0.2 29.8 0
      vertex -0.2 30.2 0
      vertex 144.8 30.2 0
    endloop
  endfacet
  facet normal 0 0 -1
    outer loop
      vertex -0.2 30.2 0
      vertex 0.2 29.8 0
      vertex -0.2 24.8 0
    endloop
  endfacet
  facet normal 0 0 -1
    outer loop
      vertex 144.8 34.8 0
      vertex 145.2 35.2 0
      vertex 144.8 30.2 0
    endloop
  endfacet
  facet normal 0 0 -1
    outer loop
      vertex 144.8 34.8 0
      vertex 0.2 35.2 0
      vertex 145.2 35.2 0
    endloop
  endfacet
  facet normal -0 0 -1
    outer loop
      vertex 0.2 35.2 0
      vertex -0.2 34.8 0
      vertex 0.2 39.8 0
    endloop
  endfacet
  facet normal 0 0 -1
    outer loop
      vertex -0.2 34.8 0
      vertex 0.2 35.2 0
      vertex 144.8 34.8 0
    endloop
  endfacet
  facet normal 0 0 -1
    outer loop
      vertex 145.2 39.8 0
      vertex 144.8 40.2 0
      vertex 145.2 45.2 0
    endloop
  endfacet
  facet normal 0 0 -1
    outer loop
      vertex 0.2 39.8 0
      vertex 144.8 40.2 0
      vertex 145.2 39.8 0
    endloop
  endfacet
  facet normal 0 0 -1
    outer loop
      vertex 0.2 39.8 0
      vertex -0.2 40.2 0
      vertex 144.8 40.2 0
    endloop
  endfacet
  facet normal 0 0 -1
    outer loop
      vertex -0.2 40.2 0
      vertex 0.2 39.8 0
      vertex -0.2 34.8 0
    endloop
  endfacet
  facet normal 0 0 -1
    outer loop
      vertex 144.8 44.8 0
      vertex 145.2 45.2 0
      vertex 144.8 40.2 0
    endloop
  endfacet
  facet normal 0 0 -1
    outer loop
      vertex 144.8 44.8 0
      vertex 0.2 45.2 0
      vertex 145.2 45.2 0
    endloop
  endfacet
  facet normal -0 0 -1
    outer loop
      vertex 0.2 45.2 0
      vertex -0.2 44.8 0
      vertex 0.2 49.8 0
    endloop
  endfacet
  facet normal 0 0 -1
    outer loop
      vertex -0.2 44.8 0
      vertex 0.2 45.2 0
      vertex 144.8 44.8 0
    endloop
  endfacet
  facet normal 0 0 -1
    outer loop
      vertex 145.2 49.8 0
      vertex 144.8 50.2 0
      vertex 145.2 55.2 0
    endloop
  endfacet
  facet normal 0 0 -1
    outer loop
      vertex 0.2 49.8 0
      vertex 144.8 50.2 0
      vertex 145.2 49.8 0
    endloop
  endfacet
  facet normal 0 0 -1
    outer loop
      vertex 0.2 49.8 0
      vertex -0.2 50.2 0
      vertex 144.8 50.2 0
    endloop
  endfacet
  facet normal 0 0 -1
    outer loop
      vertex -0.2 50.2 0
      vertex 0.2 49.8 0
      vertex -0.2 44.8 0
    endloop
  endfacet
  facet normal 0 0 -1
    outer loop
      vertex 144.8 54.8 0
      vertex 145.2 55.2 0
      vertex 144.8 50.2 0
    endloop
  endfacet
  facet normal 0 0 -1
    outer loop
      vertex 144.8 54.8 0
      vertex 0.2 55.2 0
      vertex 145.2 55.2 0
    endloop
  endfacet
  facet normal -0 0 -1
    outer loop
      vertex 0.2 55.2 0
      vertex -0.2 54.8 0
      vertex 0.2 59.8 0
    endloop
  endfacet
  facet normal 0 0 -1
    outer loop
      vertex -0.2 54.8 0
      vertex 0.2 55.2 0
      vertex 144.8 54.8 0
    endloop
  endfacet
  facet normal 0 0 -1
    outer loop
      vertex 145.2 59.8 0
      vertex 144.8 60.2 0
      vertex 145.2 65.2 0
    endloop
  endfacet
  facet normal 0 0 -1
    outer loop
      vertex 0.2 59.8 0
      vertex 144.8 60.2 0
      vertex 145.2 59.8 0
    endloop
  endfacet
  facet normal 0 0 -1
    outer loop
      vertex 0.2 59.8 0
      vertex -0.2 60.2 0
      vertex 144.8 60.2 0
    endloop
  endfacet
  facet normal 0 0 -1
    outer loop
      vertex -0.2 60.2 0
      vertex 0.2 59.8 0
      vertex -0.2 54.8 0
    endloop
  endfacet
  facet normal 0 0 -1
    outer loop
      vertex 144.8 64.8 0
      vertex 145.2 65.2 0
      vertex 144.8 60.2 0
    endloop
  endfacet
  facet normal 0 0 -1
    outer loop
      vertex 144.8 64.8 0
      vertex 0.2 65.2 0
      vertex 145.2 65.2 0
    endloop
  endfacet
  facet normal -0 0 -1
    outer loop
      vertex 0.2 65.2 0
      vertex -0.2 64.8 0
      vertex 0.2 69.8 0
    endloop
  endfacet
  facet normal 0 0 -1
    outer loop
      vertex -0.2 64.8 0
      vertex 0.2 65.2 0
      vertex 144.8 64.8 0
    endloop
  endfacet
  facet normal 0 0 -1
    outer loop
      vertex 145.2 69.8 0
      vertex 144.8 70.2 0
      vertex 145.2 75.2 0
    endloop
  endfacet
  facet normal 0 0 -1
    outer loop
      vertex 0.2 69.8 0
      vertex 144.8 70.2 0
      vertex 145.2 69.8 0
    endloop
  endfacet
  facet normal 0 0 -1
    outer loop
      vertex 0.2 69.8 0
      vertex -0.2 70.2 0
      vertex 144.8 70.2 0
    endloop
  endfacet
  facet normal 0 0 -1
    outer loop
      vertex -0.2 70.2 0
      vertex 0.2 69.8 0
      vertex -0.2 64.8 0
    endloop
  endfacet
  facet normal 0 0 -1
    outer loop
      vertex 144.8 74.8 0
      vertex 145.2 75.2 0
      vertex 144.8 70.2 0
    endloop
  endfacet
  facet normal 0 0 -1
    outer loop
      vertex 144.8 74.8 0
      vertex 0.2 75.2 0
      vertex 145.2 75.2 0
    endloop
  endfacet
  facet normal -0 0 -1
    outer loop
      vertex 0.2 75.2 0
      vertex -0.2 74.8 0
      vertex 0.2 79.8 0
    endloop
  endfacet
  facet normal 0 0 -1
    outer loop
      vertex -0.2 74.8 0
      vertex 0.2 75.2 0
      vertex 144.8 74.8 0
    endloop
  endfacet
  facet normal 0 0 -1
    outer loop
      vertex 145.2 79.8 0
      vertex 144.8 80.2 0
      vertex 145.2 85.2 0
    endloop
  endfacet
  facet normal 0 0 -1
    outer loop
      vertex 0.2 79.8 0
      vertex 144.8 80.2 0
      vertex 145.2 79.8 0
    endloop
  endfacet
  facet normal 0 0 -1
    outer loop
      vertex 0.2 79.8 0
      vertex -0.2 80.2 0
      vertex 144.8 80.2 0
    endloop
  endfacet
  facet normal 0 0 -1
    outer loop
      vertex -0.2 80.2 0
      vertex 0.2 79.8 0
      vertex -0.2 74.8 0
    endloop
  endfacet
  facet normal 0 0 -1
    outer loop
      vertex 144.8 84.8 0
      vertex 145.2 85.2 0
      vertex 144.8 80.2 0
    endloop
  endfacet
  facet normal 0 0 -1
    outer loop
      vertex 144.8 84.8 0
      vertex 0.2 85.2 0
      vertex 145.2 85.2 0
    endloop
  endfacet
  facet normal -0 0 -1
    outer loop
      vertex 0.2 85.2 0
      vertex -0.2 84.8 0
      vertex 0.2 89.8 0
    endloop
  endfacet
  facet normal 0 0 -1
    outer loop
      vertex -0.2 84.8 0
      vertex 0.2 85.2 0
      vertex 144.8 84.8 0
    endloop
  endfacet
  facet normal 0 0 -1
    outer loop
      vertex 145.2 89.8 0
      vertex 144.8 90.2 0
      vertex 145.2 95.2 0
    endloop
  endfacet
  facet normal 0 0 -1
    outer loop
      vertex 0.2 89.8 0
      vertex 144.8 90.2 0
      vertex 145.2 89.8 0
    endloop
  endfacet
  facet normal 0 0 -1
    outer loop
      vertex 0.2 89.8 0
      vertex -0.2 90.2 0
      vertex 144.8 90.2 0
    endloop
  endfacet
  facet normal 0 0 -1
    outer loop
      vertex -0.2 90.2 0
      vertex 0.2 89.8 0
      vertex -0.2 84.8 0
    endloop
  endfacet
  facet normal 0 0 -1
    outer loop
      vertex 144.8 94.8 0
      vertex 145.2 95.2 0
      vertex 144.8 90.2 0
    endloop
  endfacet
  facet normal 0 0 -1
    outer loop
      vertex 144.8 94.8 0
      vertex 0.2 95.2 0
      vertex 145.2 95.2 0
    endloop
  endfacet
  facet normal -0 0 -1
    outer loop
      vertex 0.2 95.2 0
      vertex -0.2 94.8 0
      vertex 0.2 99.8 0
    endloop
  endfacet
  facet normal 0 0 -1
    outer loop
      vertex -0.2 94.8 0
      vertex 0.2 95.2 0
      vertex 144.8 94.8 0
    endloop
  endfacet
  facet normal 0 0 -1
    outer loop
      vertex 145.2 99.8 0
      vertex 144.8 100.2 0
      vertex 145.2 105.2 0
    endloop
  endfacet
  facet normal 0 0 -1
    outer loop
      vertex 0.2 99.8 0
      vertex 144.8 100.2 0
      vertex 145.2 99.8 0
    endloop
  endfacet
  facet normal 0 0 -1
    outer loop
      vertex 0.2 99.8 0
      vertex -0.2 100.2 0
      vertex 144.8 100.2 0
    endloop
  endfacet
  facet normal 0 0 -1
    outer loop
      vertex -0.2 100.2 0
      vertex 0.2 99.8 0
      vertex -0.2 94.8 0
    endloop
  endfacet
  facet normal 0 0 -1
    outer loop
      vertex 144.8 104.8 0
      vertex 145.2 105.2 0
      vertex 144.8 100.2 0
    endloop
  endfacet
  facet normal 0 0 -1
    outer loop
      vertex 144.8 104.8 0
      vertex 0.2 105.2 0
      vertex 145.2 105.2 0
    endloop
  endfacet
  facet normal -0 0 -1
    outer loop
      vertex 0.2 105.2 0
      vertex -0.2 104.8 0
      vertex 0.2 109.8 0
    endloop
  endfacet
  facet normal 0 0 -1
    outer loop
      vertex -0.2 104.8 0
      vertex 0.2 105.2 0
      vertex 144.8 104.8 0
    endloop
  endfacet
  facet normal 0 0 -1
    outer loop
      vertex 145.2 109.8 0
      vertex 144.8 110.2 0
      vertex 145.2 115.2 0
    endloop
  endfacet
  facet normal 0 0 -1
    outer loop
      vertex 0.2 109.8 0
      vertex 144.8 110.2 0
      vertex 145.2 109.8 0
    endloop
  endfacet
  facet normal 0 0 -1
    outer loop
      vertex 0.2 109.8 0
      vertex -0.2 110.2 0
      vertex 144.8 110.2 0
    endloop
  endfacet
  facet normal 0 0 -1
    outer loop
      vertex -0.2 110.2 0
      vertex 0.2 109.8 0
      vertex -0.2 104.8 0
    endloop
  endfacet
  facet normal 0 0 -1
    outer loop
      vertex 144.8 114.8 0
      vertex 145.2 115.2 0
      vertex 144.8 110.2 0
    endloop
  endfacet
  facet normal 0 0 -1
    outer loop
      vertex 144.8 114.8 0
      vertex 0.2 115.2 0
      vertex 145.2 115.2 0
    endloop
  endfacet
  facet normal -0 0 -1
    outer loop
      vertex 0.2 115.2 0
      vertex -0.2 114.8 0
      vertex 0.2 119.8 0
    endloop
  endfacet
  facet normal 0 0 -1
    outer loop
      vertex -0.2 114.8 0
      vertex 0.2 115.2 0
      vertex 144.8 114.8 0
    endloop
  endfacet
  facet normal 0 0 -1
    outer loop
      vertex 145.2 119.8 0
      vertex 144.8 120.2 0
      vertex 145.2 125.2 0
    endloop
  endfacet
  facet normal 0 0 -1
    outer loop
      vertex 0.2 119.8 0
      vertex 144.8 120.2 0
      vertex 145.2 119.8 0
    endloop
  endfacet
  facet normal 0 0 -1
    outer loop
      vertex 0.2 119.8 0
      vertex -0.2 120.2 0
      vertex 144.8 120.2 0
    endloop
  endfacet
  facet normal 0 0 -1
    outer loop
      vertex -0.2 120.2 0
      vertex 0.2 119.8 0
      vertex -0.2 114.8 0
    endloop
  endfacet
  facet normal 0 0 -1
    outer loop
      vertex 144.8 124.8 0
      vertex 145.2 125.2 0
      vertex 144.8 120.2 0
    endloop
  endfacet
  facet normal 0 0 -1
    outer loop
      vertex 144.8 124.8 0
      vertex 0.2 125.2 0
      vertex 145.2 125.2 0
    endloop
  endfacet
  facet normal -0 0 -1
    outer loop
      vertex 0.2 125.2 0
      vertex -0.2 124.8 0
      vertex 0.2 129.8 0
    endloop
  endfacet
  facet normal 0 0 -1
    outer loop
      vertex -0.2 124.8 0
      vertex 0.2 125.2 0
      vertex 144.8 124.8 0
    endloop
  endfacet
  facet normal 0 0 -1
    outer loop
      vertex 145.2 129.8 0
      vertex 144.8 130.2 0
      vertex 145.2 135.2 0
    endloop
  endfacet
  facet normal 0 0 -1
    outer loop
      vertex 0.2 129.8 0
      vertex 144.8 130.2 0
      vertex 145.2 129.8 0
    endloop
  endfacet
  facet normal 0 0 -1
    outer loop
      vertex 0.2 129.8 0
      vertex -0.2 130.2 0
      vertex 144.8 130.2 0
    endloop
  endfacet
  facet normal 0 0 -1
    outer loop
      vertex -0.2 130.2 0
      vertex 0.2 129.8 0
      vertex -0.2 124.8 0
    endloop
  endfacet
  facet normal 0 0 -1
    outer loop
      vertex 144.8 134.8 0
      vertex 145.2 135.2 0
      vertex 144.8 130.2 0
    endloop
  endfacet
  facet normal 0 0 -1
    outer loop
      vertex 144.8 134.8 0
      vertex 0.2 135.2 0
      vertex 145.2 135.2 0
    endloop
  endfacet
  facet normal -0 0 -1
    outer loop
      vertex 0.2 135.2 0
      vertex -0.2 134.8 0
      vertex 0.2 139.8 0
    endloop
  endfacet
  facet normal 0 0 -1
    outer loop
      vertex -0.2 134.8 0
      vertex 0.2 135.2 0
      vertex 144.8 134.8 0
    endloop
  endfacet
  facet normal 0 0 -1
    outer loop
      vertex 145.2 139.8 0
      vertex 144.8 140.2 0
      vertex 145.2 145.2 0
    endloop
  endfacet
  facet normal 0 0 -1
    outer loop
      vertex 0.2 139.8 0
      vertex 144.8 140.2 0
      vertex 145.2 139.8 0
    endloop
  endfacet
  facet normal 0 0 -1
    outer loop
      vertex 0.2 139.8 0
      vertex -0.2 140.2 0
      vertex 144.8 140.2 0
    endloop
  endfacet
  facet normal 0 0 -1
    outer loop
      vertex -0.2 140.2 0
      vertex 0.2 139.8 0
      vertex -0.2 134.8 0
    endloop
  endfacet
  facet normal 0 0 -1
    outer loop
      vertex 144.8 144.8 0
      vertex 145.2 145.2 0
      vertex 144.8 140.2 0
    endloop
  endfacet
  facet normal 0 0 -1
    outer loop
      vertex -0.2 145.2 0
      vertex 144.8 144.8 0
      vertex -0.2 144.8 0
    endloop
  endfacet
  facet normal 0 0 -1
    outer loop
      vertex 144.8 144.8 0
      vertex -0.2 145.2 0
      vertex 145.2 145.2 0
    endloop
  endfacet
  facet normal 0 -1 0
    outer loop
      vertex -0.2 -0.2 0
      vertex 145.2 -0.2 0.2
      vertex -0.2 -0.2 0.2
    endloop
  endfacet
  facet normal 0 -1 -0
    outer loop
      vertex 145.2 -0.2 0.2
      vertex -0.2 -0.2 0
      vertex 145.2 -0.2 0
    endloop
  endfacet
  facet normal 0 1 -0
    outer loop
      vertex 144.8 0.2 0
      vertex -0.2 0.2 0.2
      vertex 144.8 0.2 0.2
    endloop
  endfacet
  facet normal 0 1 0
    outer loop
      vertex -0.2 0.2 0.2
      vertex 144.8 0.2 0
      vertex -0.2 0.2 0
    endloop
  endfacet
  facet normal -1 0 0
    outer loop
      vertex -0.2 4.8 0
      vertex -0.2 10.2 0.2
      vertex -0.2 10.2 0
    endloop
  endfacet
  facet normal -1 -0 0
    outer loop
      vertex -0.2 10.2 0.2
      vertex -0.2 4.8 0
      vertex -0.2 4.8 0.2
    endloop
  endfacet
  facet normal 0 -1 0
    outer loop
      vertex -0.2 4.8 0
      vertex 144.8 4.8 0.2
      vertex -0.2 4.8 0.2
    endloop
  endfacet
  facet normal 0 -1 -0
    outer loop
      vertex 144.8 4.8 0.2
      vertex -0.2 4.8 0
      vertex 144.8 4.8 0
    endloop
  endfacet
  facet normal 0 1 -0
    outer loop
      vertex 145.2 5.2 0
      vertex 0.2 5.2 0.2
      vertex 145.2 5.2 0.2
    endloop
  endfacet
  facet normal 0 1 0
    outer loop
      vertex 0.2 5.2 0.2
      vertex 145.2 5.2 0
      vertex 0.2 5.2 0
    endloop
  endfacet
  facet normal 1 -0 0
    outer loop
      vertex 145.2 9.8 0.2
      vertex 145.2 15.2 0
      vertex 145.2 15.2 0.2
    endloop
  endfacet
  facet normal 1 0 0
    outer loop
      vertex 145.2 15.2 0
      vertex 145.2 9.8 0.2
      vertex 145.2 9.8 0
    endloop
  endfacet
  facet normal 0 1 -0
    outer loop
      vertex 144.8 10.2 0
      vertex -0.2 10.2 0.2
      vertex 144.8 10.2 0.2
    endloop
  endfacet
  facet normal 0 1 0
    outer loop
      vertex -0.2 10.2 0.2
      vertex 144.8 10.2 0
      vertex -0.2 10.2 0
    endloop
  endfacet
  facet normal 0 -1 0
    outer loop
      vertex 0.2 9.8 0
      vertex 145.2 9.8 0.2
      vertex 0.2 9.8 0.2
    endloop
  endfacet
  facet normal 0 -1 -0
    outer loop
      vertex 145.2 9.8 0.2
      vertex 0.2 9.8 0
      vertex 145.2 9.8 0
    endloop
  endfacet
  facet normal -1 0 0
    outer loop
      vertex -0.2 14.8 0
      vertex -0.2 20.2 0.2
      vertex -0.2 20.2 0
    endloop
  endfacet
  facet normal -1 -0 0
    outer loop
      vertex -0.2 20.2 0.2
      vertex -0.2 14.8 0
      vertex -0.2 14.8 0.2
    endloop
  endfacet
  facet normal 0 1 -0
    outer loop
      vertex 145.2 15.2 0
      vertex 0.2 15.2 0.2
      vertex 145.2 15.2 0.2
    endloop
  endfacet
  facet normal 0 1 0
    outer loop
      vertex 0.2 15.2 0.2
      vertex 145.2 15.2 0
      vertex 0.2 15.2 0
    endloop
  endfacet
  facet normal 0 -1 0
    outer loop
      vertex -0.2 14.8 0
      vertex 144.8 14.8 0.2
      vertex -0.2 14.8 0.2
    endloop
  endfacet
  facet normal 0 -1 -0
    outer loop
      vertex 144.8 14.8 0.2
      vertex -0.2 14.8 0
      vertex 144.8 14.8 0
    endloop
  endfacet
  facet normal 1 -0 0
    outer loop
      vertex 145.2 19.8 0.2
      vertex 145.2 25.2 0
      vertex 145.2 25.2 0.2
    endloop
  endfacet
  facet normal 1 0 0
    outer loop
      vertex 145.2 25.2 0
      vertex 145.2 19.8 0.2
      vertex 145.2 19.8 0
    endloop
  endfacet
  facet normal 0 -1 0
    outer loop
      vertex 0.2 19.8 0
      vertex 145.2 19.8 0.2
      vertex 0.2 19.8 0.2
    endloop
  endfacet
  facet normal 0 -1 -0
    outer loop
      vertex 145.2 19.8 0.2
      vertex 0.2 19.8 0
      vertex 145.2 19.8 0
    endloop
  endfacet
  facet normal 0 1 -0
    outer loop
      vertex 144.8 20.2 0
      vertex -0.2 20.2 0.2
      vertex 144.8 20.2 0.2
    endloop
  endfacet
  facet normal 0 1 0
    outer loop
      vertex -0.2 20.2 0.2
      vertex 144.8 20.2 0
      vertex -0.2 20.2 0
    endloop
  endfacet
  facet normal -1 0 0
    outer loop
      vertex -0.2 24.8 0
      vertex -0.2 30.2 0.2
      vertex -0.2 30.2 0
    endloop
  endfacet
  facet normal -1 -0 0
    outer loop
      vertex -0.2 30.2 0.2
      vertex -0.2 24.8 0
      vertex -0.2 24.8 0.2
    endloop
  endfacet
  facet normal 0 1 -0
    outer loop
      vertex 145.2 25.2 0
      vertex 0.2 25.2 0.2
      vertex 145.2 25.2 0.2
    endloop
  endfacet
  facet normal 0 1 0
    outer loop
      vertex 0.2 25.2 0.2
      vertex 145.2 25.2 0
      vertex 0.2 25.2 0
    endloop
  endfacet
  facet normal 0 -1 0
    outer loop
      vertex -0.2 24.8 0
      vertex 144.8 24.8 0.2
      vertex -0.2 24.8 0.2
    endloop
  endfacet
  facet normal 0 -1 -0
    outer loop
      vertex 144.8 24.8 0.2
      vertex -0.2 24.8 0
      vertex 144.8 24.8 0
    endloop
  endfacet
  facet normal 1 -0 0
    outer loop
      vertex 145.2 29.8 0.2
      vertex 145.2 35.2 0
      vertex 145.2 35.2 0.2
    endloop
  endfacet
  facet normal 1 0 0
    outer loop
      vertex 145.2 35.2 0
      vertex 145.2 29.8 0.2
      vertex 145.2 29.8 0
    endloop
  endfacet
  facet normal 0 1 -0
    outer loop
      vertex 144.8 30.2 0
      vertex -0.2 30.2 0.2
      vertex 144.8 30.2 0.2
    endloop
  endfacet
  facet normal 0 1 0
    outer loop
      vertex -0.2 30.2 0.2
      vertex 144.8 30.2 0
      vertex -0.2 30.2 0
    endloop
  endfacet
  facet normal 0 -1 0
    outer loop
      vertex 0.2 29.8 0
      vertex 145.2 29.8 0.2
      vertex 0.2 29.8 0.2
    endloop
  endfacet
  facet normal 0 -1 -0
    outer loop
      vertex 145.2 29.8 0.2
      vertex 0.2 29.8 0
      vertex 145.2 29.8 0
    endloop
  endfacet
  facet normal -1 0 0
    outer loop
      vertex -0.2 34.8 0
      vertex -0.2 40.2 0.2
      vertex -0.2 40.2 0
    endloop
  endfacet
  facet normal -1 -0 0
    outer loop
      vertex -0.2 40.2 0.2
      vertex -0.2 34.8 0
      vertex -0.2 34.8 0.2
    endloop
  endfacet
  facet normal 0 -1 0
    outer loop
      vertex -0.2 34.8 0
      vertex 144.8 34.8 0.2
      vertex -0.2 34.8 0.2
    endloop
  endfacet
  facet normal 0 -1 -0
    outer loop
      vertex 144.8 34.8 0.2
      vertex -0.2 34.8 0
      vertex 144.8 34.8 0
    endloop
  endfacet
  facet normal 0 1 -0
    outer loop
      vertex 145.2 35.2 0
      vertex 0.2 35.2 0.2
      vertex 145.2 35.2 0.2
    endloop
  endfacet
  facet normal 0 1 0
    outer loop
      vertex 0.2 35.2 0.2
      vertex 145.2 35.2 0
      vertex 0.2 35.2 0
    endloop
  endfacet
  facet normal 1 -0 0
    outer loop
      vertex 145.2 39.8 0.2
      vertex 145.2 45.2 0
      vertex 145.2 45.2 0.2
    endloop
  endfacet
  facet normal 1 0 0
    outer loop
      vertex 145.2 45.2 0
      vertex 145.2 39.8 0.2
      vertex 145.2 39.8 0
    endloop
  endfacet
  facet normal 0 1 -0
    outer loop
      vertex 144.8 40.2 0
      vertex -0.2 40.2 0.2
      vertex 144.8 40.2 0.2
    endloop
  endfacet
  facet normal 0 1 0
    outer loop
      vertex -0.2 40.2 0.2
      vertex 144.8 40.2 0
      vertex -0.2 40.2 0
    endloop
  endfacet
  facet normal 0 -1 0
    outer loop
      vertex 0.2 39.8 0
      vertex 145.2 39.8 0.2
      vertex 0.2 39.8 0.2
    endloop
  endfacet
  facet normal 0 -1 -0
    outer loop
      vertex 145.2 39.8 0.2
      vertex 0.2 39.8 0
      vertex 145.2 39.8 0
    endloop
  endfacet
  facet normal -1 0 0
    outer loop
      vertex -0.2 44.8 0
      vertex -0.2 50.2 0.2
      vertex -0.2 50.2 0
    endloop
  endfacet
  facet normal -1 -0 0
    outer loop
      vertex -0.2 50.2 0.2
      vertex -0.2 44.8 0
      vertex -0.2 44.8 0.2
    endloop
  endfacet
  facet normal 0 1 -0
    outer loop
      vertex 145.2 45.2 0
      vertex 0.2 45.2 0.2
      vertex 145.2 45.2 0.2
    endloop
  endfacet
  facet normal 0 1 0
    outer loop
      vertex 0.2 45.2 0.2
      vertex 145.2 45.2 0
      vertex 0.2 45.2 0
    endloop
  endfacet
  facet normal 0 -1 0
    outer loop
      vertex -0.2 44.8 0
      vertex 144.8 44.8 0.2
      vertex -0.2 44.8 0.2
    endloop
  endfacet
  facet normal 0 -1 -0
    outer loop
      vertex 144.8 44.8 0.2
      vertex -0.2 44.8 0
      vertex 144.8 44.8 0
    endloop
  endfacet
  facet normal 1 -0 0
    outer loop
      vertex 145.2 49.8 0.2
      vertex 145.2 55.2 0
      vertex 145.2 55.2 0.2
    endloop
  endfacet
  facet normal 1 0 0
    outer loop
      vertex 145.2 55.2 0
      vertex 145.2 49.8 0.2
      vertex 145.2 49.8 0
    endloop
  endfacet
  facet normal 0 1 -0
    outer loop
      vertex 144.8 50.2 0
      vertex -0.2 50.2 0.2
      vertex 144.8 50.2 0.2
    endloop
  endfacet
  facet normal 0 1 0
    outer loop
      vertex -0.2 50.2 0.2
      vertex 144.8 50.2 0
      vertex -0.2 50.2 0
    endloop
  endfacet
  facet normal 0 -1 0
    outer loop
      vertex 0.2 49.8 0
      vertex 145.2 49.8 0.2
      vertex 0.2 49.8 0.2
    endloop
  endfacet
  facet normal 0 -1 -0
    outer loop
      vertex 145.2 49.8 0.2
      vertex 0.2 49.8 0
      vertex 145.2 49.8 0
    endloop
  endfacet
  facet normal -1 0 0
    outer loop
      vertex -0.2 54.8 0
      vertex -0.2 60.2 0.2
      vertex -0.2 60.2 0
    endloop
  endfacet
  facet normal -1 -0 0
    outer loop
      vertex -0.2 60.2 0.2
      vertex -0.2 54.8 0
      vertex -0.2 54.8 0.2
    endloop
  endfacet
  facet normal 0 1 -0
    outer loop
      vertex 145.2 55.2 0
      vertex 0.2 55.2 0.2
      vertex 145.2 55.2 0.2
    endloop
  endfacet
  facet normal 0 1 0
    outer loop
      vertex 0.2 55.2 0.2
      vertex 145.2 55.2 0
      vertex 0.2 55.2 0
    endloop
  endfacet
  facet normal 0 -1 0
    outer loop
      vertex -0.2 54.8 0
      vertex 144.8 54.8 0.2
      vertex -0.2 54.8 0.2
    endloop
  endfacet
  facet normal 0 -1 -0
    outer loop
      vertex 144.8 54.8 0.2
      vertex -0.2 54.8 0
      vertex 144.8 54.8 0
    endloop
  endfacet
  facet normal 1 -0 0
    outer loop
      vertex 145.2 59.8 0.2
      vertex 145.2 65.2 0
      vertex 145.2 65.2 0.2
    endloop
  endfacet
  facet normal 1 0 0
    outer loop
      vertex 145.2 65.2 0
      vertex 145.2 59.8 0.2
      vertex 145.2 59.8 0
    endloop
  endfacet
  facet normal 0 -1 0
    outer loop
      vertex 0.2 59.8 0
      vertex 145.2 59.8 0.2
      vertex 0.2 59.8 0.2
    endloop
  endfacet
  facet normal 0 -1 -0
    outer loop
      vertex 145.2 59.8 0.2
      vertex 0.2 59.8 0
      vertex 145.2 59.8 0
    endloop
  endfacet
  facet normal 0 1 -0
    outer loop
      vertex 144.8 60.2 0
      vertex -0.2 60.2 0.2
      vertex 144.8 60.2 0.2
    endloop
  endfacet
  facet normal 0 1 0
    outer loop
      vertex -0.2 60.2 0.2
      vertex 144.8 60.2 0
      vertex -0.2 60.2 0
    endloop
  endfacet
  facet normal -1 0 0
    outer loop
      vertex -0.2 64.8 0
      vertex -0.2 70.2 0.2
      vertex -0.2 70.2 0
    endloop
  endfacet
  facet normal -1 -0 0
    outer loop
      vertex -0.2 70.2 0.2
      vertex -0.2 64.8 0
      vertex -0.2 64.8 0.2
    endloop
  endfacet
  facet normal 0 -1 0
    outer loop
      vertex -0.2 64.8 0
      vertex 144.8 64.8 0.2
      vertex -0.2 64.8 0.2
    endloop
  endfacet
  facet normal 0 -1 -0
    outer loop
      vertex 144.8 64.8 0.2
      vertex -0.2 64.8 0
      vertex 144.8 64.8 0
    endloop
  endfacet
  facet normal 0 1 -0
    outer loop
      vertex 145.2 65.2 0
      vertex 0.2 65.2 0.2
      vertex 145.2 65.2 0.2
    endloop
  endfacet
  facet normal 0 1 0
    outer loop
      vertex 0.2 65.2 0.2
      vertex 145.2 65.2 0
      vertex 0.2 65.2 0
    endloop
  endfacet
  facet normal 1 -0 0
    outer loop
      vertex 145.2 69.8 0.2
      vertex 145.2 75.2 0
      vertex 145.2 75.2 0.2
    endloop
  endfacet
  facet normal 1 0 0
    outer loop
      vertex 145.2 75.2 0
      vertex 145.2 69.8 0.2
      vertex 145.2 69.8 0
    endloop
  endfacet
  facet normal 0 1 -0
    outer loop
      vertex 144.8 70.2 0
      vertex -0.2 70.2 0.2
      vertex 144.8 70.2 0.2
    endloop
  endfacet
  facet normal 0 1 0
    outer loop
      vertex -0.2 70.2 0.2
      vertex 144.8 70.2 0
      vertex -0.2 70.2 0
    endloop
  endfacet
  facet normal 0 -1 0
    outer loop
      vertex 0.2 69.8 0
      vertex 145.2 69.8 0.2
      vertex 0.2 69.8 0.2
    endloop
  endfacet
  facet normal 0 -1 -0
    outer loop
      vertex 145.2 69.8 0.2
      vertex 0.2 69.8 0
      vertex 145.2 69.8 0
    endloop
  endfacet
  facet normal -1 0 0
    outer loop
      vertex -0.2 74.8 0
      vertex -0.2 80.2 0.2
      vertex -0.2 80.2 0
    endloop
  endfacet
  facet normal -1 -0 0
    outer loop
      vertex -0.2 80.2 0.2
      vertex -0.2 74.8 0
      vertex -0.2 74.8 0.2
    endloop
  endfacet
  facet normal 0 -1 0
    outer loop
      vertex -0.2 74.8 0
      vertex 144.8 74.8 0.2
      vertex -0.2 74.8 0.2
    endloop
  endfacet
  facet normal 0 -1 -0
    outer loop
      vertex 144.8 74.8 0.2
      vertex -0.2 74.8 0
      vertex 144.8 74.8 0
    endloop
  endfacet
  facet normal 0 1 -0
    outer loop
      vertex 145.2 75.2 0
      vertex 0.2 75.2 0.2
      vertex 145.2 75.2 0.2
    endloop
  endfacet
  facet normal 0 1 0
    outer loop
      vertex 0.2 75.2 0.2
      vertex 145.2 75.2 0
      vertex 0.2 75.2 0
    endloop
  endfacet
  facet normal 1 -0 0
    outer loop
      vertex 145.2 79.8 0.2
      vertex 145.2 85.2 0
      vertex 145.2 85.2 0.2
    endloop
  endfacet
  facet normal 1 0 0
    outer loop
      vertex 145.2 85.2 0
      vertex 145.2 79.8 0.2
      vertex 145.2 79.8 0
    endloop
  endfacet
  facet normal 0 -1 0
    outer loop
      vertex 0.2 79.8 0
      vertex 145.2 79.8 0.2
      vertex 0.2 79.8 0.2
    endloop
  endfacet
  facet normal 0 -1 -0
    outer loop
      vertex 145.2 79.8 0.2
      vertex 0.2 79.8 0
      vertex 145.2 79.8 0
    endloop
  endfacet
  facet normal 0 1 -0
    outer loop
      vertex 144.8 80.2 0
      vertex -0.2 80.2 0.2
      vertex 144.8 80.2 0.2
    endloop
  endfacet
  facet normal 0 1 0
    outer loop
      vertex -0.2 80.2 0.2
      vertex 144.8 80.2 0
      vertex -0.2 80.2 0
    endloop
  endfacet
  facet normal -1 0 0
    outer loop
      vertex -0.2 84.8 0
      vertex -0.2 90.2 0.2
      vertex -0.2 90.2 0
    endloop
  endfacet
  facet normal -1 -0 0
    outer loop
      vertex -0.2 90.2 0.2
      vertex -0.2 84.8 0
      vertex -0.2 84.8 0.2
    endloop
  endfacet
  facet normal 0 1 -0
    outer loop
      vertex 145.2 85.2 0
      vertex 0.2 85.2 0.2
      vertex 145.2 85.2 0.2
    endloop
  endfacet
  facet normal 0 1 0
    outer loop
      vertex 0.2 85.2 0.2
      vertex 145.2 85.2 0
      vertex 0.2 85.2 0
    endloop
  endfacet
  facet normal 0 -1 0
    outer loop
      vertex -0.2 84.8 0
      vertex 144.8 84.8 0.2
      vertex -0.2 84.8 0.2
    endloop
  endfacet
  facet normal 0 -1 -0
    outer loop
      vertex 144.8 84.8 0.2
      vertex -0.2 84.8 0
      vertex 144.8 84.8 0
    endloop
  endfacet
  facet normal 1 -0 0
    outer loop
      vertex 145.2 89.8 0.2
      vertex 145.2 95.2 0
      vertex 145.2 95.2 0.2
    endloop
  endfacet
  facet normal 1 0 0
    outer loop
      vertex 145.2 95.2 0
      vertex 145.2 89.8 0.2
      vertex 145.2 89.8 0
    endloop
  endfacet
  facet normal 0 1 -0
    outer loop
      vertex 144.8 90.2 0
      vertex -0.2 90.2 0.2
      vertex 144.8 90.2 0.2
    endloop
  endfacet
  facet normal 0 1 0
    outer loop
      vertex -0.2 90.2 0.2
      vertex 144.8 90.2 0
      vertex -0.2 90.2 0
    endloop
  endfacet
  facet normal 0 -1 0
    outer loop
      vertex 0.2 89.8 0
      vertex 145.2 89.8 0.2
      vertex 0.2 89.8 0.2
    endloop
  endfacet
  facet normal 0 -1 -0
    outer loop
      vertex 145.2 89.8 0.2
      vertex 0.2 89.8 0
      vertex 145.2 89.8 0
    endloop
  endfacet
  facet normal -1 0 0
    outer loop
      vertex -0.2 94.8 0
      vertex -0.2 100.2 0.2
      vertex -0.2 100.2 0
    endloop
  endfacet
  facet normal -1 -0 0
    outer loop
      vertex -0.2 100.2 0.2
      vertex -0.2 94.8 0
      vertex -0.2 94.8 0.2
    endloop
  endfacet
  facet normal 0 1 -0
    outer loop
      vertex 145.2 95.2 0
      vertex 0.2 95.2 0.2
      vertex 145.2 95.2 0.2
    endloop
  endfacet
  facet normal 0 1 0
    outer loop
      vertex 0.2 95.2 0.2
      vertex 145.2 95.2 0
      vertex 0.2 95.2 0
    endloop
  endfacet
  facet normal 0 -1 0
    outer loop
      vertex -0.2 94.8 0
      vertex 144.8 94.8 0.2
      vertex -0.2 94.8 0.2
    endloop
  endfacet
  facet normal 0 -1 -0
    outer loop
      vertex 144.8 94.8 0.2
      vertex -0.2 94.8 0
      vertex 144.8 94.8 0
    endloop
  endfacet
  facet normal 1 -0 0
    outer loop
      vertex 145.2 99.8 0.2
      vertex 145.2 105.2 0
      vertex 145.2 105.2 0.2
    endloop
  endfacet
  facet normal 1 0 0
    outer loop
      vertex 145.2 105.2 0
      vertex 145.2 99.8 0.2
      vertex 145.2 99.8 0
    endloop
  endfacet
  facet normal 0 1 -0
    outer loop
      vertex 144.8 100.2 0
      vertex -0.2 100.2 0.2
      vertex 144.8 100.2 0.2
    endloop
  endfacet
  facet normal 0 1 0
    outer loop
      vertex -0.2 100.2 0.2
      vertex 144.8 100.2 0
      vertex -0.2 100.2 0
    endloop
  endfacet
  facet normal 0 -1 0
    outer loop
      vertex 0.2 99.8 0
      vertex 145.2 99.8 0.2
      vertex 0.2 99.8 0.2
    endloop
  endfacet
  facet normal 0 -1 -0
    outer loop
      vertex 145.2 99.8 0.2
      vertex 0.2 99.8 0
      vertex 145.2 99.8 0
    endloop
  endfacet
  facet normal -1 0 0
    outer loop
      vertex -0.2 104.8 0
      vertex -0.2 110.2 0.2
      vertex -0.2 110.2 0
    endloop
  endfacet
  facet normal -1 -0 0
    outer loop
      vertex -0.2 110.2 0.2
      vertex -0.2 104.8 0
      vertex -0.2 104.8 0.2
    endloop
  endfacet
  facet normal 0 -1 0
    outer loop
      vertex -0.2 104.8 0
      vertex 144.8 104.8 0.2
      vertex -0.2 104.8 0.2
    endloop
  endfacet
  facet normal 0 -1 -0
    outer loop
      vertex 144.8 104.8 0.2
      vertex -0.2 104.8 0
      vertex 144.8 104.8 0
    endloop
  endfacet
  facet normal 0 1 -0
    outer loop
      vertex 145.2 105.2 0
      vertex 0.2 105.2 0.2
      vertex 145.2 105.2 0.2
    endloop
  endfacet
  facet normal 0 1 0
    outer loop
      vertex 0.2 105.2 0.2
      vertex 145.2 105.2 0
      vertex 0.2 105.2 0
    endloop
  endfacet
  facet normal 1 -0 0
    outer loop
      vertex 145.2 109.8 0.2
      vertex 145.2 115.2 0
      vertex 145.2 115.2 0.2
    endloop
  endfacet
  facet normal 1 0 0
    outer loop
      vertex 145.2 115.2 0
      vertex 145.2 109.8 0.2
      vertex 145.2 109.8 0
    endloop
  endfacet
  facet normal 0 1 -0
    outer loop
      vertex 144.8 110.2 0
      vertex -0.2 110.2 0.2
      vertex 144.8 110.2 0.2
    endloop
  endfacet
  facet normal 0 1 0
    outer loop
      vertex -0.2 110.2 0.2
      vertex 144.8 110.2 0
      vertex -0.2 110.2 0
    endloop
  endfacet
  facet normal 0 -1 0
    outer loop
      vertex 0.2 109.8 0
      vertex 145.2 109.8 0.2
      vertex 0.2 109.8 0.2
    endloop
  endfacet
  facet normal 0 -1 -0
    outer loop
      vertex 145.2 109.8 0.2
      vertex 0.2 109.8 0
      vertex 145.2 109.8 0
    endloop
  endfacet
  facet normal -1 0 0
    outer loop
      vertex -0.2 114.8 0
      vertex -0.2 120.2 0.2
      vertex -0.2 120.2 0
    endloop
  endfacet
  facet normal -1 -0 0
    outer loop
      vertex -0.2 120.2 0.2
      vertex -0.2 114.8 0
      vertex -0.2 114.8 0.2
    endloop
  endfacet
  facet normal 0 -1 0
    outer loop
      vertex -0.2 114.8 0
      vertex 144.8 114.8 0.2
      vertex -0.2 114.8 0.2
    endloop
  endfacet
  facet normal 0 -1 -0
    outer loop
      vertex 144.8 114.8 0.2
      vertex -0.2 114.8 0
      vertex 144.8 114.8 0
    endloop
  endfacet
  facet normal 0 1 -0
    outer loop
      vertex 145.2 115.2 0
      vertex 0.2 115.2 0.2
      vertex 145.2 115.2 0.2
    endloop
  endfacet
  facet normal 0 1 0
    outer loop
      vertex 0.2 115.2 0.2
      vertex 145.2 115.2 0
      vertex 0.2 115.2 0
    endloop
  endfacet
  facet normal 1 -0 0
    outer loop
      vertex 145.2 119.8 0.2
      vertex 145.2 125.2 0
      vertex 145.2 125.2 0.2
    endloop
  endfacet
  facet normal 1 0 0
    outer loop
      vertex 145.2 125.2 0
      vertex 145.2 119.8 0.2
      vertex 145.2 119.8 0
    endloop
  endfacet
  facet normal 0 -1 0
    outer loop
      vertex 0.2 119.8 0
      vertex 145.2 119.8 0.2
      vertex 0.2 119.8 0.2
    endloop
  endfacet
  facet normal 0 -1 -0
    outer loop
      vertex 145.2 119.8 0.2
      vertex 0.2 119.8 0
      vertex 145.2 119.8 0
    endloop
  endfacet
  facet normal 0 1 -0
    outer loop
      vertex 144.8 120.2 0
      vertex -0.2 120.2 0.2
      vertex 144.8 120.2 0.2
    endloop
  endfacet
  facet normal 0 1 0
    outer loop
      vertex -0.2 120.2 0.2
      vertex 144.8 120.2 0
      vertex -0.2 120.2 0
    endloop
  endfacet
  facet normal -1 0 0
    outer loop
      vertex -0.2 124.8 0
      vertex -0.2 130.2 0.2
      vertex -0.2 130.2 0
    endloop
  endfacet
  facet normal -1 -0 0
    outer loop
      vertex -0.2 130.2 0.2
      vertex -0.2 124.8 0
      vertex -0.2 124.8 0.2
    endloop
  endfacet
  facet normal 0 1 -0
    outer loop
      vertex 145.2 125.2 0
      vertex 0.2 125.2 0.2
      vertex 145.2 125.2 0.2
    endloop
  endfacet
  facet normal 0 1 0
    outer loop
      vertex 0.2 125.2 0.2
      vertex 145.2 125.2 0
      vertex 0.2 125.2 0
    endloop
  endfacet
  facet normal 0 -1 0
    outer loop
      vertex -0.2 124.8 0
      vertex 144.8 124.8 0.2
      vertex -0.2 124.8 0.2
    endloop
  endfacet
  facet normal 0 -1 -0
    outer loop
      vertex 144.8 124.8 0.2
      vertex -0.2 124.8 0
      vertex 144.8 124.8 0
    endloop
  endfacet
  facet normal 1 -0 0
    outer loop
      vertex 145.2 129.8 0.2
      vertex 145.2 135.2 0
      vertex 145.2 135.2 0.2
    endloop
  endfacet
  facet normal 1 0 0
    outer loop
      vertex 145.2 135.2 0
      vertex 145.2 129.8 0.2
      vertex 145.2 129.8 0
    endloop
  endfacet
  facet normal 0 -1 0
    outer loop
      vertex 0.2 129.8 0
      vertex 145.2 129.8 0.2
      vertex 0.2 129.8 0.2
    endloop
  endfacet
  facet normal 0 -1 -0
    outer loop
      vertex 145.2 129.8 0.2
      vertex 0.2 129.8 0
      vertex 145.2 129.8 0
    endloop
  endfacet
  facet normal 0 1 -0
    outer loop
      vertex 144.8 130.2 0
      vertex -0.2 130.2 0.2
      vertex 144.8 130.2 0.2
    endloop
  endfacet
  facet normal 0 1 0
    outer loop
      vertex -0.2 130.2 0.2
      vertex 144.8 130.2 0
      vertex -0.2 130.2 0
    endloop
  endfacet
  facet normal -1 0 0
    outer loop
      vertex -0.2 134.8 0
      vertex -0.2 140.2 0.2
      vertex -0.2 140.2 0
    endloop
  endfacet
  facet normal -1 -0 0
    outer loop
      vertex -0.2 140.2 0.2
      vertex -0.2 134.8 0
      vertex -0.2 134.8 0.2
    endloop
  endfacet
  facet normal 0 1 -0
    outer loop
      vertex 145.2 135.2 0
      vertex 0.2 135.2 0.2
      vertex 145.2 135.2 0.2
    endloop
  endfacet
  facet normal 0 1 0
    outer loop
      vertex 0.2 135.2 0.2
      vertex 145.2 135.2 0
      vertex 0.2 135.2 0
    endloop
  endfacet
  facet normal 0 -1 0
    outer loop
      vertex -0.2 134.8 0
      vertex 144.8 134.8 0.2
      vertex -0.2 134.8 0.2
    endloop
  endfacet
  facet normal 0 -1 -0
    outer loop
      vertex 144.8 134.8 0.2
      vertex -0.2 134.8 0
      vertex 144.8 134.8 0
    endloop
  endfacet
  facet normal 1 -0 0
    outer loop
      vertex 145.2 139.8 0.2
      vertex 145.2 145.2 0
      vertex 145.2 145.2 0.2
    endloop
  endfacet
  facet normal 1 0 0
    outer loop
      vertex 145.2 145.2 0
      vertex 145.2 139.8 0.2
      vertex 145.2 139.8 0
    endloop
  endfacet
  facet normal 0 1 -0
    outer loop
      vertex 144.8 140.2 0
      vertex -0.2 140.2 0.2
      vertex 144.8 140.2 0.2
    endloop
  endfacet
  facet normal 0 1 0
    outer loop
      vertex -0.2 140.2 0.2
      vertex 144.8 140.2 0
      vertex -0.2 140.2 0
    endloop
  endfacet
  facet normal 0 -1 0
    outer loop
      vertex 0.2 139.8 0
      vertex 145.2 139.8 0.2
      vertex 0.2 139.8 0.2
    endloop
  endfacet
  facet normal 0 -1 -0
    outer loop
      vertex 145.2 139.8 0.2
      vertex 0.2 139.8 0
      vertex 145.2 139.8 0
    endloop
  endfacet
  facet normal -1 0 0
    outer loop
      vertex -0.2 144.8 0
      vertex -0.2 145.2 0.2
      vertex -0.2 145.2 0
    endloop
  endfacet
  facet normal -1 -0 0
    outer loop
      vertex -0.2 145.2 0.2
      vertex -0.2 144.8 0
      vertex -0.2 144.8 0.2
    endloop
  endfacet
  facet normal 0 -1 0
    outer loop
      vertex -0.2 144.8 0
      vertex 144.8 144.8 0.2
      vertex -0.2 144.8 0.2
    endloop
  endfacet
  facet normal 0 -1 -0
    outer loop
      vertex 144.8 144.8 0.2
      vertex -0.2 144.8 0
      vertex 144.8 144.8 0
    endloop
  endfacet
  facet normal 0 1 -0
    outer loop
      vertex 145.2 145.2 0
      vertex -0.2 145.2 0.2
      vertex 145.2 145.2 0.2
    endloop
  endfacet
  facet normal 0 1 0
    outer loop
      vertex -0.2 145.2 0.2
      vertex 145.2 145.2 0
      vertex -0.2 145.2 0
    endloop
  endfacet
  facet normal 1 -0 0
    outer loop
      vertex 0.2 5.2 0.2
      vertex 0.2 9.8 0
      vertex 0.2 9.8 0.2
    endloop
  endfacet
  facet normal 1 0 0
    outer loop
      vertex 0.2 9.8 0
      vertex 0.2 5.2 0.2
      vertex 0.2 5.2 0
    endloop
  endfacet
  facet normal 1 -0 0
    outer loop
      vertex 0.2 15.2 0.2
      vertex 0.2 19.8 0
      vertex 0.2 19.8 0.2
    endloop
  endfacet
  facet normal 1 0 0
    outer loop
      vertex 0.2 19.8 0
      vertex 0.2 15.2 0.2
      vertex 0.2 15.2 0
    endloop
  endfacet
  facet normal 1 -0 0
    outer loop
      vertex 0.2 25.2 0.2
      vertex 0.2 29.8 0
      vertex 0.2 29.8 0.2
    endloop
  endfacet
  facet normal 1 0 0
    outer loop
      vertex 0.2 29.8 0
      vertex 0.2 25.2 0.2
      vertex 0.2 25.2 0
    endloop
  endfacet
  facet normal 1 -0 0
    outer loop
      vertex 0.2 35.2 0.2
      vertex 0.2 39.8 0
      vertex 0.2 39.8 0.2
    endloop
  endfacet
  facet normal 1 0 0
    outer loop
      vertex 0.2 39.8 0
      vertex 0.2 35.2 0.2
      vertex 0.2 35.2 0
    endloop
  endfacet
  facet normal 1 -0 0
    outer loop
      vertex 0.2 45.2 0.2
      vertex 0.2 49.8 0
      vertex 0.2 49.8 0.2
    endloop
  endfacet
  facet normal 1 0 0
    outer loop
      vertex 0.2 49.8 0
      vertex 0.2 45.2 0.2
      vertex 0.2 45.2 0
    endloop
  endfacet
  facet normal 1 -0 0
    outer loop
      vertex 0.2 55.2 0.2
      vertex 0.2 59.8 0
      vertex 0.2 59.8 0.2
    endloop
  endfacet
  facet normal 1 0 0
    outer loop
      vertex 0.2 59.8 0
      vertex 0.2 55.2 0.2
      vertex 0.2 55.2 0
    endloop
  endfacet
  facet normal 1 -0 0
    outer loop
      vertex 0.2 65.2 0.2
      vertex 0.2 69.8 0
      vertex 0.2 69.8 0.2
    endloop
  endfacet
  facet normal 1 0 0
    outer loop
      vertex 0.2 69.8 0
      vertex 0.2 65.2 0.2
      vertex 0.2 65.2 0
    endloop
  endfacet
  facet normal 1 -0 0
    outer loop
      vertex 0.2 75.2 0.2
      vertex 0.2 79.8 0
      vertex 0.2 79.8 0.2
    endloop
  endfacet
  facet normal 1 0 0
    outer loop
      vertex 0.2 79.8 0
      vertex 0.2 75.2 0.2
      vertex 0.2 75.2 0
    endloop
  endfacet
  facet normal 1 -0 0
    outer loop
      vertex 0.2 85.2 0.2
      vertex 0.2 89.8 0
      vertex 0.2 89.8 0.2
    endloop
  endfacet
  facet normal 1 0 0
    outer loop
      vertex 0.2 89.8 0
      vertex 0.2 85.2 0.2
      vertex 0.2 85.2 0
    endloop
  endfacet
  facet normal 1 -0 0
    outer loop
      vertex 0.2 95.2 0.2
      vertex 0.2 99.8 0
      vertex 0.2 99.8 0.2
    endloop
  endfacet
  facet normal 1 0 0
    outer loop
      vertex 0.2 99.8 0
      vertex 0.2 95.2 0.2
      vertex 0.2 95.2 0
    endloop
  endfacet
  facet normal 1 -0 0
    outer loop
      vertex 0.2 105.2 0.2
      vertex 0.2 109.8 0
      vertex 0.2 109.8 0.2
    endloop
  endfacet
  facet normal 1 0 0
    outer loop
      vertex 0.2 109.8 0
      vertex 0.2 105.2 0.2
      vertex 0.2 105.2 0
    endloop
  endfacet
  facet normal 1 -0 0
    outer loop
      vertex 0.2 115.2 0.2
      vertex 0.2 119.8 0
      vertex 0.2 119.8 0.2
    endloop
  endfacet
  facet normal 1 0 0
    outer loop
      vertex 0.2 119.8 0
      vertex 0.2 115.2 0.2
      vertex 0.2 115.2 0
    endloop
  endfacet
  facet normal 1 -0 0
    outer loop
      vertex 0.2 125.2 0.2
      vertex 0.2 129.8 0
      vertex 0.2 129.8 0.2
    endloop
  endfacet
  facet normal 1 0 0
    outer loop
      vertex 0.2 129.8 0
      vertex 0.2 125.2 0.2
      vertex 0.2 125.2 0
    endloop
  endfacet
  facet normal 1 -0 0
    outer loop
      vertex 0.2 135.2 0.2
      vertex 0.2 139.8 0
      vertex 0.2 139.8 0.2
    endloop
  endfacet
  facet normal 1 0 0
    outer loop
      vertex 0.2 139.8 0
      vertex 0.2 135.2 0.2
      vertex 0.2 135.2 0
    endloop
  endfacet
  facet normal -1 0 0
    outer loop
      vertex 144.8 0.2 0
      vertex 144.8 4.8 0.2
      vertex 144.8 4.8 0
    endloop
  endfacet
  facet normal -1 -0 0
    outer loop
      vertex 144.8 4.8 0.2
      vertex 144.8 0.2 0
      vertex 144.8 0.2 0.2
    endloop
  endfacet
  facet normal -1 0 0
    outer loop
      vertex 144.8 10.2 0
      vertex 144.8 14.8 0.2
      vertex 144.8 14.8 0
    endloop
  endfacet
  facet normal -1 -0 0
    outer loop
      vertex 144.8 14.8 0.2
      vertex 144.8 10.2 0
      vertex 144.8 10.2 0.2
    endloop
  endfacet
  facet normal -1 0 0
    outer loop
      vertex 144.8 20.2 0
      vertex 144.8 24.8 0.2
      vertex 144.8 24.8 0
    endloop
  endfacet
  facet normal -1 -0 0
    outer loop
      vertex 144.8 24.8 0.2
      vertex 144.8 20.2 0
      vertex 144.8 20.2 0.2
    endloop
  endfacet
  facet normal -1 0 0
    outer loop
      vertex 144.8 30.2 0
      vertex 144.8 34.8 0.2
      vertex 144.8 34.8 0
    endloop
  endfacet
  facet normal -1 -0 0
    outer loop
      vertex 144.8 34.8 0.2
      vertex 144.8 30.2 0
      vertex 144.8 30.2 0.2
    endloop
  endfacet
  facet normal -1 0 0
    outer loop
      vertex 144.8 40.2 0
      vertex 144.8 44.8 0.2
      vertex 144.8 44.8 0
    endloop
  endfacet
  facet normal -1 -0 0
    outer loop
      vertex 144.8 44.8 0.2
      vertex 144.8 40.2 0
      vertex 144.8 40.2 0.2
    endloop
  endfacet
  facet normal -1 0 0
    outer loop
      vertex 144.8 50.2 0
      vertex 144.8 54.8 0.2
      vertex 144.8 54.8 0
    endloop
  endfacet
  facet normal -1 -0 0
    outer loop
      vertex 144.8 54.8 0.2
      vertex 144.8 50.2 0
      vertex 144.8 50.2 0.2
    endloop
  endfacet
  facet normal -1 0 0
    outer loop
      vertex 144.8 60.2 0
      vertex 144.8 64.8 0.2
      vertex 144.8 64.8 0
    endloop
  endfacet
  facet normal -1 -0 0
    outer loop
      vertex 144.8 64.8 0.2
      vertex 144.8 60.2 0
      vertex 144.8 60.2 0.2
    endloop
  endfacet
  facet normal -1 0 0
    outer loop
      vertex 144.8 70.2 0
      vertex 144.8 74.8 0.2
      vertex 144.8 74.8 0
    endloop
  endfacet
  facet normal -1 -0 0
    outer loop
      vertex 144.8 74.8 0.2
      vertex 144.8 70.2 0
      vertex 144.8 70.2 0.2
    endloop
  endfacet
  facet normal -1 0 0
    outer loop
      vertex 144.8 80.2 0
      vertex 144.8 84.8 0.2
      vertex 144.8 84.8 0
    endloop
  endfacet
  facet normal -1 -0 0
    outer loop
      vertex 144.8 84.8 0.2
      vertex 144.8 80.2 0
      vertex 144.8 80.2 0.2
    endloop
  endfacet
  facet normal -1 0 0
    outer loop
      vertex 144.8 90.2 0
      vertex 144.8 94.8 0.2
      vertex 144.8 94.8 0
    endloop
  endfacet
  facet normal -1 -0 0
    outer loop
      vertex 144.8 94.8 0.2
      vertex 144.8 90.2 0
      vertex 144.8 90.2 0.2
    endloop
  endfacet
  facet normal -1 0 0
    outer loop
      vertex 144.8 100.2 0
      vertex 144.8 104.8 0.2
      vertex 144.8 104.8 0
    endloop
  endfacet
  facet normal -1 -0 0
    outer loop
      vertex 144.8 104.8 0.2
      vertex 144.8 100.2 0
      vertex 144.8 100.2 0.2
    endloop
  endfacet
  facet normal -1 0 0
    outer loop
      vertex 144.8 110.2 0
      vertex 144.8 114.8 0.2
      vertex 144.8 114.8 0
    endloop
  endfacet
  facet normal -1 -0 0
    outer loop
      vertex 144.8 114.8 0.2
      vertex 144.8 110.2 0
      vertex 144.8 110.2 0.2
    endloop
  endfacet
  facet normal -1 0 0
    outer loop
      vertex 144.8 120.2 0
      vertex 144.8 124.8 0.2
      vertex 144.8 124.8 0
    endloop
  endfacet
  facet normal -1 -0 0
    outer loop
      vertex 144.8 124.8 0.2
      vertex 144.8 120.2 0
      vertex 144.8 120.2 0.2
    endloop
  endfacet
  facet normal -1 0 0
    outer loop
      vertex 144.8 130.2 0
      vertex 144.8 134.8 0.2
      vertex 144.8 134.8 0
    endloop
  endfacet
  facet normal -1 -0 0
    outer loop
      vertex 144.8 134.8 0.2
      vertex 144.8 130.2 0
      vertex 144.8 130.2 0.2
    endloop
  endfacet
  facet normal -1 0 0
    outer loop
      vertex 144.8 140.2 0
      vertex 144.8 144.8 0.2
      vertex 144.8 144.8 0
    endloop
  endfacet
  facet normal -1 -0 0
    outer loop
      vertex 144.8 144.8 0.2
      vertex 144.8 140.2 0
      vertex 144.8 140.2 0.2
    endloop
  endfacet
endsolid OpenSCAD_Model
