solid OpenSCAD_Model
  facet normal -0.118851 -0.801209 0.586463
    outer loop
      vertex 72.0736 -39.7118 25
      vertex 0 -40 10
      vertex 73.5297 -39.9278 25
    endloop
  endfacet
  facet normal 0.998796 0.0490666 0
    outer loop
      vertex 90 25 25
      vertex 89.9278 26.4703 0.2
      vertex 89.9278 26.4703 25
    endloop
  endfacet
  facet normal 0.998796 0.0490666 0
    outer loop
      vertex 89.9278 26.4703 0.2
      vertex 90 25 25
      vertex 90 25 0.2
    endloop
  endfacet
  facet normal -1 0 0
    outer loop
      vertex 0 40 0.2
      vertex 0 37.5 0.799999
      vertex 0 40 10
    endloop
  endfacet
  facet normal -1 0 0
    outer loop
      vertex 0 40 0.2
      vertex 0 -37.5 0.799999
      vertex 0 37.5 0.799999
    endloop
  endfacet
  facet normal -1 0 0
    outer loop
      vertex 0 -40 0.2
      vertex 0 -37.5 0.799999
      vertex 0 40 0.2
    endloop
  endfacet
  facet normal -1 0 0
    outer loop
      vertex 0 -40 10
      vertex 0 -37.5 0.799999
      vertex 0 -40 0.2
    endloop
  endfacet
  facet normal -1 0 0
    outer loop
      vertex 0 -37.5 0.799999
      vertex 0 -40 10
      vertex 0 -37.5 10
    endloop
  endfacet
  facet normal -1 -0 0
    outer loop
      vertex 0 40 10
      vertex 0 37.5 0.799999
      vertex 0 37.5 10
    endloop
  endfacet
  facet normal -0.239746 -0.0117784 0.970764
    outer loop
      vertex 10 -37.5 12.5
      vertex 0 -40 10
      vertex 11.1 -37.5 12.7717
    endloop
  endfacet
  facet normal 0 1 -0
    outer loop
      vertex 75 40 0.2
      vertex 0 40 10
      vertex 75 40 25
    endloop
  endfacet
  facet normal 0 1 0
    outer loop
      vertex 0 40 10
      vertex 75 40 0.2
      vertex 0 40 0.2
    endloop
  endfacet
  facet normal 0 -1 0
    outer loop
      vertex 75 -40 0.2
      vertex 0 -40 10
      vertex 0 -40 0.2
    endloop
  endfacet
  facet normal 0 -1 0
    outer loop
      vertex 0 -40 10
      vertex 75 -40 0.2
      vertex 75 -40 25
    endloop
  endfacet
  facet normal -0.242536 0 0.970142
    outer loop
      vertex 0 -37.5 10
      vertex 0 -40 10
      vertex 10 -37.5 12.5
    endloop
  endfacet
  facet normal -0.242536 0 0.970143
    outer loop
      vertex 0 40 10
      vertex 0 37.5 10
      vertex 10 37.5 12.5
    endloop
  endfacet
  facet normal 0.0490665 0.998796 -0
    outer loop
      vertex 76.4703 39.9278 0.2
      vertex 75 40 25
      vertex 76.4703 39.9278 25
    endloop
  endfacet
  facet normal 0.0490665 0.998796 0
    outer loop
      vertex 75 40 25
      vertex 76.4703 39.9278 0.2
      vertex 75 40 0.2
    endloop
  endfacet
  facet normal 0 0 1
    outer loop
      vertex 87.5 25 25
      vertex 90 25 25
      vertex 89.9278 26.4703 25
    endloop
  endfacet
  facet normal 0 0 1
    outer loop
      vertex 90 25 25
      vertex 87.5 25 25
      vertex 90 -25 25
    endloop
  endfacet
  facet normal 0 0 1
    outer loop
      vertex 87.4398 26.2252 25
      vertex 89.9278 26.4703 25
      vertex 89.7118 27.9264 25
    endloop
  endfacet
  facet normal 0 0 1
    outer loop
      vertex 87.5 -25 25
      vertex 90 -25 25
      vertex 87.5 25 25
    endloop
  endfacet
  facet normal 0 0 1
    outer loop
      vertex 87.2598 27.4386 25
      vertex 89.7118 27.9264 25
      vertex 89.3541 29.3543 25
    endloop
  endfacet
  facet normal 0 0 1
    outer loop
      vertex 90 -25 25
      vertex 87.5 -25 25
      vertex 89.9278 -26.4703 25
    endloop
  endfacet
  facet normal 0 0 1
    outer loop
      vertex 86.9618 28.6286 25
      vertex 89.3541 29.3543 25
      vertex 88.8582 30.7402 25
    endloop
  endfacet
  facet normal -0 0 1
    outer loop
      vertex 87.4398 -26.2252 25
      vertex 89.9278 -26.4703 25
      vertex 87.5 -25 25
    endloop
  endfacet
  facet normal 0 0 1
    outer loop
      vertex 86.5485 29.7835 25
      vertex 88.8582 30.7402 25
      vertex 88.2288 32.0709 25
    endloop
  endfacet
  facet normal 0 0 1
    outer loop
      vertex 89.9278 -26.4703 25
      vertex 87.4398 -26.2252 25
      vertex 89.7118 -27.9264 25
    endloop
  endfacet
  facet normal -0 0 1
    outer loop
      vertex 87.2598 -27.4386 25
      vertex 89.7118 -27.9264 25
      vertex 87.4398 -26.2252 25
    endloop
  endfacet
  facet normal 0 0 1
    outer loop
      vertex 86.024 30.8925 25
      vertex 88.2288 32.0709 25
      vertex 87.472 33.3336 25
    endloop
  endfacet
  facet normal 0 0 1
    outer loop
      vertex 89.9278 26.4703 25
      vertex 87.4398 26.2252 25
      vertex 87.5 25 25
    endloop
  endfacet
  facet normal 0 0 1
    outer loop
      vertex 89.7118 27.9264 25
      vertex 87.2598 27.4386 25
      vertex 87.4398 26.2252 25
    endloop
  endfacet
  facet normal 0 0 1
    outer loop
      vertex 89.3541 29.3543 25
      vertex 86.9618 28.6286 25
      vertex 87.2598 27.4386 25
    endloop
  endfacet
  facet normal 0 0 1
    outer loop
      vertex 85.3934 31.9446 25
      vertex 87.472 33.3336 25
      vertex 86.5952 34.5159 25
    endloop
  endfacet
  facet normal 0 0 1
    outer loop
      vertex 88.8582 30.7402 25
      vertex 86.5485 29.7835 25
      vertex 86.9618 28.6286 25
    endloop
  endfacet
  facet normal 0 0 1
    outer loop
      vertex 88.2288 32.0709 25
      vertex 86.024 30.8925 25
      vertex 86.5485 29.7835 25
    endloop
  endfacet
  facet normal 0 0 1
    outer loop
      vertex 84.6626 32.9299 25
      vertex 86.5952 34.5159 25
      vertex 85.6066 35.6066 25
    endloop
  endfacet
  facet normal 0 0 1
    outer loop
      vertex 87.472 33.3336 25
      vertex 85.3934 31.9446 25
      vertex 86.024 30.8925 25
    endloop
  endfacet
  facet normal 0 0 1
    outer loop
      vertex 86.5952 34.5159 25
      vertex 84.6626 32.9299 25
      vertex 85.3934 31.9446 25
    endloop
  endfacet
  facet normal 0 0 1
    outer loop
      vertex 83.8388 33.8388 25
      vertex 85.6066 35.6066 25
      vertex 84.5159 36.5952 25
    endloop
  endfacet
  facet normal 0 0 1
    outer loop
      vertex 85.6066 35.6066 25
      vertex 83.8388 33.8388 25
      vertex 84.6626 32.9299 25
    endloop
  endfacet
  facet normal 0 0 1
    outer loop
      vertex 82.9299 34.6626 25
      vertex 84.5159 36.5952 25
      vertex 83.3336 37.472 25
    endloop
  endfacet
  facet normal 0 0 1
    outer loop
      vertex 84.5159 36.5952 25
      vertex 82.9299 34.6626 25
      vertex 83.8388 33.8388 25
    endloop
  endfacet
  facet normal 0 0 1
    outer loop
      vertex 81.9446 35.3934 25
      vertex 83.3336 37.472 25
      vertex 82.071 38.2288 25
    endloop
  endfacet
  facet normal 0 0 1
    outer loop
      vertex 83.3336 37.472 25
      vertex 81.9446 35.3934 25
      vertex 82.9299 34.6626 25
    endloop
  endfacet
  facet normal 0 0 1
    outer loop
      vertex 82.071 38.2288 25
      vertex 80.8925 36.024 25
      vertex 81.9446 35.3934 25
    endloop
  endfacet
  facet normal 0 0 1
    outer loop
      vertex 80.7402 38.8582 25
      vertex 80.8925 36.024 25
      vertex 82.071 38.2288 25
    endloop
  endfacet
  facet normal 0 0 1
    outer loop
      vertex 80.7402 38.8582 25
      vertex 79.7835 36.5485 25
      vertex 80.8925 36.024 25
    endloop
  endfacet
  facet normal 0 0 1
    outer loop
      vertex 79.3543 39.3541 25
      vertex 79.7835 36.5485 25
      vertex 80.7402 38.8582 25
    endloop
  endfacet
  facet normal 0 0 1
    outer loop
      vertex 79.3543 39.3541 25
      vertex 78.6286 36.9618 25
      vertex 79.7835 36.5485 25
    endloop
  endfacet
  facet normal 0 0 1
    outer loop
      vertex 77.9264 39.7118 25
      vertex 78.6286 36.9618 25
      vertex 79.3543 39.3541 25
    endloop
  endfacet
  facet normal 0 0 1
    outer loop
      vertex 77.9264 39.7118 25
      vertex 77.4386 37.2598 25
      vertex 78.6286 36.9618 25
    endloop
  endfacet
  facet normal 0 0 1
    outer loop
      vertex 76.4703 39.9278 25
      vertex 77.4386 37.2598 25
      vertex 77.9264 39.7118 25
    endloop
  endfacet
  facet normal 0 0 1
    outer loop
      vertex 76.4703 39.9278 25
      vertex 76.2252 37.4398 25
      vertex 77.4386 37.2598 25
    endloop
  endfacet
  facet normal 0 0 1
    outer loop
      vertex 75 40 25
      vertex 76.2252 37.4398 25
      vertex 76.4703 39.9278 25
    endloop
  endfacet
  facet normal 0 0 1
    outer loop
      vertex 75 40 25
      vertex 75 37.5 25
      vertex 76.2252 37.4398 25
    endloop
  endfacet
  facet normal -0 0 1
    outer loop
      vertex 73.5297 39.9278 25
      vertex 75 37.5 25
      vertex 75 40 25
    endloop
  endfacet
  facet normal -0 0 1
    outer loop
      vertex 72.0736 39.7118 25
      vertex 75 37.5 25
      vertex 73.5297 39.9278 25
    endloop
  endfacet
  facet normal -0 0 1
    outer loop
      vertex 70.6457 39.3541 25
      vertex 75 37.5 25
      vertex 72.0736 39.7118 25
    endloop
  endfacet
  facet normal -0 0 1
    outer loop
      vertex 69.2598 38.8582 25
      vertex 75 37.5 25
      vertex 70.6457 39.3541 25
    endloop
  endfacet
  facet normal -0 0 1
    outer loop
      vertex 67.929 38.2288 25
      vertex 75 37.5 25
      vertex 69.2598 38.8582 25
    endloop
  endfacet
  facet normal 0 0 1
    outer loop
      vertex 75 37.5 25
      vertex 67.929 38.2288 25
      vertex 66.7131 37.5 25
    endloop
  endfacet
  facet normal 0 0 1
    outer loop
      vertex 89.7118 -27.9264 25
      vertex 87.2598 -27.4386 25
      vertex 89.3541 -29.3543 25
    endloop
  endfacet
  facet normal -0 0 1
    outer loop
      vertex 86.9618 -28.6286 25
      vertex 89.3541 -29.3543 25
      vertex 87.2598 -27.4386 25
    endloop
  endfacet
  facet normal 0 0 1
    outer loop
      vertex 89.3541 -29.3543 25
      vertex 86.9618 -28.6286 25
      vertex 88.8582 -30.7402 25
    endloop
  endfacet
  facet normal -0 0 1
    outer loop
      vertex 86.5485 -29.7835 25
      vertex 88.8582 -30.7402 25
      vertex 86.9618 -28.6286 25
    endloop
  endfacet
  facet normal 0 0 1
    outer loop
      vertex 88.8582 -30.7402 25
      vertex 86.5485 -29.7835 25
      vertex 88.2288 -32.0709 25
    endloop
  endfacet
  facet normal -0 0 1
    outer loop
      vertex 86.024 -30.8925 25
      vertex 88.2288 -32.0709 25
      vertex 86.5485 -29.7835 25
    endloop
  endfacet
  facet normal 0 0 1
    outer loop
      vertex 88.2288 -32.0709 25
      vertex 86.024 -30.8925 25
      vertex 87.472 -33.3336 25
    endloop
  endfacet
  facet normal -0 0 1
    outer loop
      vertex 85.3934 -31.9446 25
      vertex 87.472 -33.3336 25
      vertex 86.024 -30.8925 25
    endloop
  endfacet
  facet normal 0 0 1
    outer loop
      vertex 87.472 -33.3336 25
      vertex 85.3934 -31.9446 25
      vertex 86.5952 -34.5159 25
    endloop
  endfacet
  facet normal -0 0 1
    outer loop
      vertex 84.6626 -32.9299 25
      vertex 86.5952 -34.5159 25
      vertex 85.3934 -31.9446 25
    endloop
  endfacet
  facet normal 0 0 1
    outer loop
      vertex 86.5952 -34.5159 25
      vertex 84.6626 -32.9299 25
      vertex 85.6066 -35.6066 25
    endloop
  endfacet
  facet normal -0 0 1
    outer loop
      vertex 83.8388 -33.8388 25
      vertex 85.6066 -35.6066 25
      vertex 84.6626 -32.9299 25
    endloop
  endfacet
  facet normal 0 0 1
    outer loop
      vertex 85.6066 -35.6066 25
      vertex 83.8388 -33.8388 25
      vertex 84.5159 -36.5952 25
    endloop
  endfacet
  facet normal -0 0 1
    outer loop
      vertex 82.9299 -34.6626 25
      vertex 84.5159 -36.5952 25
      vertex 83.8388 -33.8388 25
    endloop
  endfacet
  facet normal 0 0 1
    outer loop
      vertex 84.5159 -36.5952 25
      vertex 82.9299 -34.6626 25
      vertex 83.3336 -37.472 25
    endloop
  endfacet
  facet normal -0 0 1
    outer loop
      vertex 81.9446 -35.3934 25
      vertex 83.3336 -37.472 25
      vertex 82.9299 -34.6626 25
    endloop
  endfacet
  facet normal 0 0 1
    outer loop
      vertex 83.3336 -37.472 25
      vertex 81.9446 -35.3934 25
      vertex 82.071 -38.2288 25
    endloop
  endfacet
  facet normal -0 0 1
    outer loop
      vertex 80.8925 -36.024 25
      vertex 82.071 -38.2288 25
      vertex 81.9446 -35.3934 25
    endloop
  endfacet
  facet normal 0 0 1
    outer loop
      vertex 80.8925 -36.024 25
      vertex 80.7402 -38.8582 25
      vertex 82.071 -38.2288 25
    endloop
  endfacet
  facet normal -0 0 1
    outer loop
      vertex 79.7835 -36.5485 25
      vertex 80.7402 -38.8582 25
      vertex 80.8925 -36.024 25
    endloop
  endfacet
  facet normal 0 0 1
    outer loop
      vertex 79.7835 -36.5485 25
      vertex 79.3543 -39.3541 25
      vertex 80.7402 -38.8582 25
    endloop
  endfacet
  facet normal -0 0 1
    outer loop
      vertex 78.6286 -36.9618 25
      vertex 79.3543 -39.3541 25
      vertex 79.7835 -36.5485 25
    endloop
  endfacet
  facet normal 0 0 1
    outer loop
      vertex 78.6286 -36.9618 25
      vertex 77.9264 -39.7118 25
      vertex 79.3543 -39.3541 25
    endloop
  endfacet
  facet normal -0 0 1
    outer loop
      vertex 77.4386 -37.2598 25
      vertex 77.9264 -39.7118 25
      vertex 78.6286 -36.9618 25
    endloop
  endfacet
  facet normal 0 0 1
    outer loop
      vertex 77.4386 -37.2598 25
      vertex 76.4703 -39.9278 25
      vertex 77.9264 -39.7118 25
    endloop
  endfacet
  facet normal -0 0 1
    outer loop
      vertex 76.2252 -37.4398 25
      vertex 76.4703 -39.9278 25
      vertex 77.4386 -37.2598 25
    endloop
  endfacet
  facet normal -0 0 1
    outer loop
      vertex 75 -37.5 25
      vertex 76.4703 -39.9278 25
      vertex 76.2252 -37.4398 25
    endloop
  endfacet
  facet normal 0 0 1
    outer loop
      vertex 75 -37.5 25
      vertex 75 -40 25
      vertex 76.4703 -39.9278 25
    endloop
  endfacet
  facet normal 0 0 1
    outer loop
      vertex 75 -37.5 25
      vertex 73.5297 -39.9278 25
      vertex 75 -40 25
    endloop
  endfacet
  facet normal 0 0 1
    outer loop
      vertex 75 -37.5 25
      vertex 72.0736 -39.7118 25
      vertex 73.5297 -39.9278 25
    endloop
  endfacet
  facet normal 0 0 1
    outer loop
      vertex 75 -37.5 25
      vertex 70.6457 -39.3541 25
      vertex 72.0736 -39.7118 25
    endloop
  endfacet
  facet normal 0 0 1
    outer loop
      vertex 75 -37.5 25
      vertex 69.2598 -38.8582 25
      vertex 70.6457 -39.3541 25
    endloop
  endfacet
  facet normal 0 0 1
    outer loop
      vertex 75 -37.5 25
      vertex 67.929 -38.2288 25
      vertex 69.2598 -38.8582 25
    endloop
  endfacet
  facet normal 0 -0 1
    outer loop
      vertex 67.929 -38.2288 25
      vertex 75 -37.5 25
      vertex 66.7131 -37.5 25
    endloop
  endfacet
  facet normal 0.90399 -0.427554 0
    outer loop
      vertex 88.2288 -32.0709 25
      vertex 88.8582 -30.7402 0.2
      vertex 88.8582 -30.7402 25
    endloop
  endfacet
  facet normal 0.90399 -0.427554 0
    outer loop
      vertex 88.8582 -30.7402 0.2
      vertex 88.2288 -32.0709 25
      vertex 88.2288 -32.0709 0.2
    endloop
  endfacet
  facet normal 0.970031 -0.242979 0
    outer loop
      vertex 89.3541 -29.3543 25
      vertex 89.7118 -27.9264 0.2
      vertex 89.7118 -27.9264 25
    endloop
  endfacet
  facet normal 0.970031 -0.242979 0
    outer loop
      vertex 89.7118 -27.9264 0.2
      vertex 89.3541 -29.3543 25
      vertex 89.3541 -29.3543 0.2
    endloop
  endfacet
  facet normal 1 -0 0
    outer loop
      vertex 90 -25 25
      vertex 90 25 0.2
      vertex 90 25 25
    endloop
  endfacet
  facet normal 1 0 0
    outer loop
      vertex 90 25 0.2
      vertex 90 -25 25
      vertex 90 -25 0.2
    endloop
  endfacet
  facet normal 0.146734 0.989176 -0
    outer loop
      vertex 77.9264 39.7118 0.2
      vertex 76.4703 39.9278 25
      vertex 77.9264 39.7118 25
    endloop
  endfacet
  facet normal 0.146734 0.989176 0
    outer loop
      vertex 76.4703 39.9278 25
      vertex 77.9264 39.7118 0.2
      vertex 76.4703 39.9278 0.2
    endloop
  endfacet
  facet normal -0.230155 0.0576518 0.971445
    outer loop
      vertex 14.2418 37.5 13.5225
      vertex 0 40 10
      vertex 12.4834 37.5 13.1059
    endloop
  endfacet
  facet normal -0.0476533 -0.97003 0.238267
    outer loop
      vertex 73.5297 -39.9278 25
      vertex 0 -40 10
      vertex 75 -40 25
    endloop
  endfacet
  facet normal -0.206174 -0.227476 0.951707
    outer loop
      vertex 36.6421 -37.5 18.5355
      vertex 0 -40 10
      vertex 48.0816 -37.5 21.0137
    endloop
  endfacet
  facet normal 0.941544 -0.33689 0
    outer loop
      vertex 88.8582 -30.7402 25
      vertex 89.3541 -29.3543 0.2
      vertex 89.3541 -29.3543 25
    endloop
  endfacet
  facet normal 0.941544 -0.33689 0
    outer loop
      vertex 89.3541 -29.3543 0.2
      vertex 88.8582 -30.7402 25
      vertex 88.8582 -30.7402 0.2
    endloop
  endfacet
  facet normal 0.857729 0.514102 0
    outer loop
      vertex 88.2288 32.0709 25
      vertex 87.472 33.3336 0.2
      vertex 87.472 33.3336 25
    endloop
  endfacet
  facet normal 0.857729 0.514102 0
    outer loop
      vertex 87.472 33.3336 0.2
      vertex 88.2288 32.0709 25
      vertex 88.2288 32.0709 0.2
    endloop
  endfacet
  facet normal 0.970031 0.242979 0
    outer loop
      vertex 89.7118 27.9264 25
      vertex 89.3541 29.3543 0.2
      vertex 89.3541 29.3543 25
    endloop
  endfacet
  facet normal 0.970031 0.242979 0
    outer loop
      vertex 89.3541 29.3543 0.2
      vertex 89.7118 27.9264 25
      vertex 89.7118 27.9264 0.2
    endloop
  endfacet
  facet normal 0.90399 0.427554 0
    outer loop
      vertex 88.8582 30.7402 25
      vertex 88.2288 32.0709 0.2
      vertex 88.2288 32.0709 25
    endloop
  endfacet
  facet normal 0.90399 0.427554 0
    outer loop
      vertex 88.2288 32.0709 0.2
      vertex 88.8582 30.7402 25
      vertex 88.8582 30.7402 0.2
    endloop
  endfacet
  facet normal -0.0476533 0.97003 0.238267
    outer loop
      vertex 75 40 25
      vertex 0 40 10
      vertex 73.5297 39.9278 25
    endloop
  endfacet
  facet normal -0.239747 0.0117774 0.970764
    outer loop
      vertex 11.1 37.5 12.7717
      vertex 0 40 10
      vertex 10 37.5 12.5
    endloop
  endfacet
  facet normal 0.0490665 -0.998796 0
    outer loop
      vertex 75 -40 0.2
      vertex 76.4703 -39.9278 25
      vertex 75 -40 25
    endloop
  endfacet
  facet normal 0.0490665 -0.998796 0
    outer loop
      vertex 76.4703 -39.9278 25
      vertex 75 -40 0.2
      vertex 76.4703 -39.9278 0.2
    endloop
  endfacet
  facet normal -0.218074 -0.130708 0.96714
    outer loop
      vertex 19.4762 -37.5 14.7294
      vertex 0 -40 10
      vertex 23.4488 -37.5 15.6252
    endloop
  endfacet
  facet normal -0.195683 -0.326476 0.924728
    outer loop
      vertex 65.9292 -37.5 24.8341
      vertex 67.929 -38.2288 25
      vertex 66.7131 -37.5 25
    endloop
  endfacet
  facet normal -0.195684 -0.326479 0.924726
    outer loop
      vertex 67.929 -38.2288 25
      vertex 65.9292 -37.5 24.8341
      vertex 0 -40 10
    endloop
  endfacet
  facet normal -0.187971 -0.397433 0.898173
    outer loop
      vertex 67.929 -38.2288 25
      vertex 0 -40 10
      vertex 69.2598 -38.8582 25
    endloop
  endfacet
  facet normal -0.156617 -0.625253 0.764546
    outer loop
      vertex 70.6457 -39.3541 25
      vertex 0 -40 10
      vertex 72.0736 -39.7118 25
    endloop
  endfacet
  facet normal 0.998796 -0.0490666 0
    outer loop
      vertex 89.9278 -26.4703 25
      vertex 90 -25 0.2
      vertex 90 -25 25
    endloop
  endfacet
  facet normal 0.998796 -0.0490666 0
    outer loop
      vertex 90 -25 0.2
      vertex 89.9278 -26.4703 25
      vertex 89.9278 -26.4703 0.2
    endloop
  endfacet
  facet normal 0.740951 0.671559 0
    outer loop
      vertex 86.5952 34.5159 25
      vertex 85.6066 35.6066 0.2
      vertex 85.6066 35.6066 25
    endloop
  endfacet
  facet normal 0.740951 0.671559 0
    outer loop
      vertex 85.6066 35.6066 0.2
      vertex 86.5952 34.5159 25
      vertex 86.5952 34.5159 0.2
    endloop
  endfacet
  facet normal 0.803206 0.595701 0
    outer loop
      vertex 87.472 33.3336 25
      vertex 86.5952 34.5159 0.2
      vertex 86.5952 34.5159 25
    endloop
  endfacet
  facet normal 0.803206 0.595701 0
    outer loop
      vertex 86.5952 34.5159 0.2
      vertex 87.472 33.3336 25
      vertex 87.472 33.3336 0.2
    endloop
  endfacet
  facet normal 0.989176 0.146733 0
    outer loop
      vertex 89.9278 26.4703 25
      vertex 89.7118 27.9264 0.2
      vertex 89.7118 27.9264 25
    endloop
  endfacet
  facet normal 0.989176 0.146733 0
    outer loop
      vertex 89.7118 27.9264 0.2
      vertex 89.9278 26.4703 25
      vertex 89.9278 26.4703 0.2
    endloop
  endfacet
  facet normal 0.941544 0.33689 0
    outer loop
      vertex 89.3541 29.3543 25
      vertex 88.8582 30.7402 0.2
      vertex 88.8582 30.7402 25
    endloop
  endfacet
  facet normal 0.941544 0.33689 0
    outer loop
      vertex 88.8582 30.7402 0.2
      vertex 89.3541 29.3543 25
      vertex 89.3541 29.3543 0.2
    endloop
  endfacet
  facet normal 0.671561 0.74095 -0
    outer loop
      vertex 85.6066 35.6066 0.2
      vertex 84.5159 36.5952 25
      vertex 85.6066 35.6066 25
    endloop
  endfacet
  facet normal 0.671561 0.74095 0
    outer loop
      vertex 84.5159 36.5952 25
      vertex 85.6066 35.6066 0.2
      vertex 84.5159 36.5952 0.2
    endloop
  endfacet
  facet normal 0.514102 0.857729 -0
    outer loop
      vertex 83.3336 37.472 0.2
      vertex 82.071 38.2288 25
      vertex 83.3336 37.472 25
    endloop
  endfacet
  facet normal 0.514102 0.857729 0
    outer loop
      vertex 82.071 38.2288 25
      vertex 83.3336 37.472 0.2
      vertex 82.071 38.2288 0.2
    endloop
  endfacet
  facet normal 0.242979 0.970031 -0
    outer loop
      vertex 79.3543 39.3541 0.2
      vertex 77.9264 39.7118 25
      vertex 79.3543 39.3541 25
    endloop
  endfacet
  facet normal 0.242979 0.970031 0
    outer loop
      vertex 77.9264 39.7118 25
      vertex 79.3543 39.3541 0.2
      vertex 77.9264 39.7118 0.2
    endloop
  endfacet
  facet normal -0.201446 0.271618 0.941086
    outer loop
      vertex 65.9292 37.5 24.8341
      vertex 0 40 10
      vertex 48.0816 37.5 21.0137
    endloop
  endfacet
  facet normal -0.234726 0.0348175 0.971438
    outer loop
      vertex 12.4834 37.5 13.1059
      vertex 0 40 10
      vertex 11.1 37.5 12.7717
    endloop
  endfacet
  facet normal -0.234726 -0.0348175 0.971438
    outer loop
      vertex 11.1 -37.5 12.7717
      vertex 0 -40 10
      vertex 12.4834 -37.5 13.1059
    endloop
  endfacet
  facet normal -0.230155 -0.0576518 0.971445
    outer loop
      vertex 12.4834 -37.5 13.1059
      vertex 0 -40 10
      vertex 14.2418 -37.5 13.5225
    endloop
  endfacet
  facet normal -0.225922 -0.0808363 0.970786
    outer loop
      vertex 14.2418 -37.5 13.5225
      vertex 0 -40 10
      vertex 16.5074 -37.5 14.0498
    endloop
  endfacet
  facet normal -0.221927 -0.104964 0.969397
    outer loop
      vertex 16.5074 -37.5 14.0498
      vertex 0 -40 10
      vertex 19.4762 -37.5 14.7294
    endloop
  endfacet
  facet normal -0.214258 -0.158906 0.963765
    outer loop
      vertex 23.4488 -37.5 15.6252
      vertex 0 -40 10
      vertex 28.9039 -37.5 16.8379
    endloop
  endfacet
  facet normal -0.210351 -0.190651 0.958856
    outer loop
      vertex 28.9039 -37.5 16.8379
      vertex 0 -40 10
      vertex 36.6421 -37.5 18.5355
    endloop
  endfacet
  facet normal -0.201446 -0.271618 0.941086
    outer loop
      vertex 48.0816 -37.5 21.0137
      vertex 0 -40 10
      vertex 65.9292 -37.5 24.8341
    endloop
  endfacet
  facet normal -0.17639 -0.492977 0.851974
    outer loop
      vertex 69.2598 -38.8582 25
      vertex 0 -40 10
      vertex 70.6457 -39.3541 25
    endloop
  endfacet
  facet normal 0.989176 -0.146733 0
    outer loop
      vertex 89.7118 -27.9264 25
      vertex 89.9278 -26.4703 0.2
      vertex 89.9278 -26.4703 25
    endloop
  endfacet
  facet normal 0.989176 -0.146733 0
    outer loop
      vertex 89.9278 -26.4703 0.2
      vertex 89.7118 -27.9264 25
      vertex 89.7118 -27.9264 0.2
    endloop
  endfacet
  facet normal 0.595701 0.803206 -0
    outer loop
      vertex 84.5159 36.5952 0.2
      vertex 83.3336 37.472 25
      vertex 84.5159 36.5952 25
    endloop
  endfacet
  facet normal 0.595701 0.803206 0
    outer loop
      vertex 83.3336 37.472 25
      vertex 84.5159 36.5952 0.2
      vertex 83.3336 37.472 0.2
    endloop
  endfacet
  facet normal 0.33689 0.941544 -0
    outer loop
      vertex 80.7402 38.8582 0.2
      vertex 79.3543 39.3541 25
      vertex 80.7402 38.8582 25
    endloop
  endfacet
  facet normal 0.33689 0.941544 0
    outer loop
      vertex 79.3543 39.3541 25
      vertex 80.7402 38.8582 0.2
      vertex 79.3543 39.3541 0.2
    endloop
  endfacet
  facet normal 0.427553 0.90399 -0
    outer loop
      vertex 82.071 38.2288 0.2
      vertex 80.7402 38.8582 25
      vertex 82.071 38.2288 25
    endloop
  endfacet
  facet normal 0.427553 0.90399 0
    outer loop
      vertex 80.7402 38.8582 25
      vertex 82.071 38.2288 0.2
      vertex 80.7402 38.8582 0.2
    endloop
  endfacet
  facet normal -0.17639 0.492977 0.851974
    outer loop
      vertex 70.6457 39.3541 25
      vertex 0 40 10
      vertex 69.2598 38.8582 25
    endloop
  endfacet
  facet normal -0.195683 0.326476 0.924728
    outer loop
      vertex 67.929 38.2288 25
      vertex 65.9292 37.5 24.8341
      vertex 66.7131 37.5 25
    endloop
  endfacet
  facet normal -0.195684 0.326479 0.924726
    outer loop
      vertex 65.9292 37.5 24.8341
      vertex 67.929 38.2288 25
      vertex 0 40 10
    endloop
  endfacet
  facet normal -0.218074 0.130708 0.96714
    outer loop
      vertex 23.4488 37.5 15.6252
      vertex 0 40 10
      vertex 19.4762 37.5 14.7294
    endloop
  endfacet
  facet normal 0.740951 -0.671559 0
    outer loop
      vertex 85.6066 -35.6066 25
      vertex 86.5952 -34.5159 0.2
      vertex 86.5952 -34.5159 25
    endloop
  endfacet
  facet normal 0.740951 -0.671559 0
    outer loop
      vertex 86.5952 -34.5159 0.2
      vertex 85.6066 -35.6066 25
      vertex 85.6066 -35.6066 0.2
    endloop
  endfacet
  facet normal -0.118851 0.801209 0.586463
    outer loop
      vertex 73.5297 39.9278 25
      vertex 0 40 10
      vertex 72.0736 39.7118 25
    endloop
  endfacet
  facet normal -0.156617 0.625253 0.764546
    outer loop
      vertex 72.0736 39.7118 25
      vertex 0 40 10
      vertex 70.6457 39.3541 25
    endloop
  endfacet
  facet normal -0.187971 0.397433 0.898173
    outer loop
      vertex 69.2598 38.8582 25
      vertex 0 40 10
      vertex 67.929 38.2288 25
    endloop
  endfacet
  facet normal -0.206174 0.227476 0.951707
    outer loop
      vertex 48.0816 37.5 21.0137
      vertex 0 40 10
      vertex 36.6421 37.5 18.5355
    endloop
  endfacet
  facet normal -0.210351 0.190651 0.958856
    outer loop
      vertex 36.6421 37.5 18.5355
      vertex 0 40 10
      vertex 28.9039 37.5 16.8379
    endloop
  endfacet
  facet normal -0.214258 0.158906 0.963765
    outer loop
      vertex 28.9039 37.5 16.8379
      vertex 0 40 10
      vertex 23.4488 37.5 15.6252
    endloop
  endfacet
  facet normal -0.221927 0.104964 0.969397
    outer loop
      vertex 19.4762 37.5 14.7294
      vertex 0 40 10
      vertex 16.5074 37.5 14.0498
    endloop
  endfacet
  facet normal -0.225922 0.0808363 0.970786
    outer loop
      vertex 16.5074 37.5 14.0498
      vertex 0 40 10
      vertex 14.2418 37.5 13.5225
    endloop
  endfacet
  facet normal 0.671561 -0.74095 0
    outer loop
      vertex 84.5159 -36.5952 0.2
      vertex 85.6066 -35.6066 25
      vertex 84.5159 -36.5952 25
    endloop
  endfacet
  facet normal 0.671561 -0.74095 0
    outer loop
      vertex 85.6066 -35.6066 25
      vertex 84.5159 -36.5952 0.2
      vertex 85.6066 -35.6066 0.2
    endloop
  endfacet
  facet normal 0.595701 -0.803206 0
    outer loop
      vertex 83.3336 -37.472 0.2
      vertex 84.5159 -36.5952 25
      vertex 83.3336 -37.472 25
    endloop
  endfacet
  facet normal 0.595701 -0.803206 0
    outer loop
      vertex 84.5159 -36.5952 25
      vertex 83.3336 -37.472 0.2
      vertex 84.5159 -36.5952 0.2
    endloop
  endfacet
  facet normal 0.242979 -0.970031 0
    outer loop
      vertex 77.9264 -39.7118 0.2
      vertex 79.3543 -39.3541 25
      vertex 77.9264 -39.7118 25
    endloop
  endfacet
  facet normal 0.242979 -0.970031 0
    outer loop
      vertex 79.3543 -39.3541 25
      vertex 77.9264 -39.7118 0.2
      vertex 79.3543 -39.3541 0.2
    endloop
  endfacet
  facet normal 0.146734 -0.989176 0
    outer loop
      vertex 76.4703 -39.9278 0.2
      vertex 77.9264 -39.7118 25
      vertex 76.4703 -39.9278 25
    endloop
  endfacet
  facet normal 0.146734 -0.989176 0
    outer loop
      vertex 77.9264 -39.7118 25
      vertex 76.4703 -39.9278 0.2
      vertex 77.9264 -39.7118 0.2
    endloop
  endfacet
  facet normal 0.514102 -0.857729 0
    outer loop
      vertex 82.071 -38.2288 0.2
      vertex 83.3336 -37.472 25
      vertex 82.071 -38.2288 25
    endloop
  endfacet
  facet normal 0.514102 -0.857729 0
    outer loop
      vertex 83.3336 -37.472 25
      vertex 82.071 -38.2288 0.2
      vertex 83.3336 -37.472 0.2
    endloop
  endfacet
  facet normal 0.33689 -0.941544 0
    outer loop
      vertex 79.3543 -39.3541 0.2
      vertex 80.7402 -38.8582 25
      vertex 79.3543 -39.3541 25
    endloop
  endfacet
  facet normal 0.33689 -0.941544 0
    outer loop
      vertex 80.7402 -38.8582 25
      vertex 79.3543 -39.3541 0.2
      vertex 80.7402 -38.8582 0.2
    endloop
  endfacet
  facet normal 0.803206 -0.595701 0
    outer loop
      vertex 86.5952 -34.5159 25
      vertex 87.472 -33.3336 0.2
      vertex 87.472 -33.3336 25
    endloop
  endfacet
  facet normal 0.803206 -0.595701 0
    outer loop
      vertex 87.472 -33.3336 0.2
      vertex 86.5952 -34.5159 25
      vertex 86.5952 -34.5159 0.2
    endloop
  endfacet
  facet normal 0.857729 -0.514102 0
    outer loop
      vertex 87.472 -33.3336 25
      vertex 88.2288 -32.0709 0.2
      vertex 88.2288 -32.0709 25
    endloop
  endfacet
  facet normal 0.857729 -0.514102 0
    outer loop
      vertex 88.2288 -32.0709 0.2
      vertex 87.472 -33.3336 25
      vertex 87.472 -33.3336 0.2
    endloop
  endfacet
  facet normal 0.427553 -0.90399 0
    outer loop
      vertex 80.7402 -38.8582 0.2
      vertex 82.071 -38.2288 25
      vertex 80.7402 -38.8582 25
    endloop
  endfacet
  facet normal 0.427553 -0.90399 0
    outer loop
      vertex 82.071 -38.2288 25
      vertex 80.7402 -38.8582 0.2
      vertex 82.071 -38.2288 0.2
    endloop
  endfacet
  facet normal -0.998796 -0.0490656 0
    outer loop
      vertex 87.5 25 2.5
      vertex 87.4398 26.2252 25
      vertex 87.4398 26.2252 2.5
    endloop
  endfacet
  facet normal -0.998796 -0.0490656 0
    outer loop
      vertex 87.4398 26.2252 25
      vertex 87.5 25 2.5
      vertex 87.5 25 25
    endloop
  endfacet
  facet normal -0.336891 0.941544 0
    outer loop
      vertex 79.7835 -36.5485 2.5
      vertex 78.6286 -36.9618 25
      vertex 79.7835 -36.5485 25
    endloop
  endfacet
  facet normal -0.336891 0.941544 0
    outer loop
      vertex 78.6286 -36.9618 25
      vertex 79.7835 -36.5485 2.5
      vertex 78.6286 -36.9618 2.5
    endloop
  endfacet
  facet normal 0 1 -0
    outer loop
      vertex 75 -37.5 2.5
      vertex 66.7131 -37.5 25
      vertex 75 -37.5 25
    endloop
  endfacet
  facet normal 0 1 0
    outer loop
      vertex 66.7131 -37.5 25
      vertex 75 -37.5 2.5
      vertex 65.9292 -37.5 24.8341
    endloop
  endfacet
  facet normal 0 1 0
    outer loop
      vertex 65.9292 -37.5 24.8341
      vertex 75 -37.5 2.5
      vertex 48.0816 -37.5 21.0137
    endloop
  endfacet
  facet normal 0 1 0
    outer loop
      vertex 29.8246 -37.5 2.5
      vertex 48.0816 -37.5 21.0137
      vertex 75 -37.5 2.5
    endloop
  endfacet
  facet normal 0 1 0
    outer loop
      vertex 48.0816 -37.5 21.0137
      vertex 29.8246 -37.5 2.5
      vertex 36.6421 -37.5 18.5355
    endloop
  endfacet
  facet normal 0 1 0
    outer loop
      vertex 28.9039 -37.5 16.8379
      vertex 29.8246 -37.5 2.5
      vertex 23.4488 -37.5 15.6252
    endloop
  endfacet
  facet normal 0 1 0
    outer loop
      vertex 23.4488 -37.5 15.6252
      vertex 29.8246 -37.5 2.5
      vertex 19.4762 -37.5 14.7294
    endloop
  endfacet
  facet normal 0 1 0
    outer loop
      vertex 19.4762 -37.5 14.7294
      vertex 29.8246 -37.5 2.5
      vertex 16.5074 -37.5 14.0498
    endloop
  endfacet
  facet normal 0 1 0
    outer loop
      vertex 16.5074 -37.5 14.0498
      vertex 29.8246 -37.5 2.5
      vertex 14.2418 -37.5 13.5225
    endloop
  endfacet
  facet normal 0 1 0
    outer loop
      vertex 14.2418 -37.5 13.5225
      vertex 29.8246 -37.5 2.5
      vertex 12.4834 -37.5 13.1059
    endloop
  endfacet
  facet normal 0 1 0
    outer loop
      vertex 12.4834 -37.5 13.1059
      vertex 29.8246 -37.5 2.5
      vertex 11.1 -37.5 12.7717
    endloop
  endfacet
  facet normal 0 1 0
    outer loop
      vertex 0 -37.5 0.799999
      vertex 11.1 -37.5 12.7717
      vertex 29.8246 -37.5 2.5
    endloop
  endfacet
  facet normal 0 1 0
    outer loop
      vertex 36.6421 -37.5 18.5355
      vertex 29.8246 -37.5 2.5
      vertex 28.9039 -37.5 16.8379
    endloop
  endfacet
  facet normal 0 1 0
    outer loop
      vertex 11.1 -37.5 12.7717
      vertex 0 -37.5 0.799999
      vertex 10 -37.5 12.5
    endloop
  endfacet
  facet normal 0 1 0
    outer loop
      vertex 10 -37.5 12.5
      vertex 0 -37.5 0.799999
      vertex 0 -37.5 10
    endloop
  endfacet
  facet normal -0.803206 -0.595701 0
    outer loop
      vertex 85.3934 31.9446 2.5
      vertex 84.6626 32.9299 25
      vertex 84.6626 32.9299 2.5
    endloop
  endfacet
  facet normal -0.803206 -0.595701 0
    outer loop
      vertex 84.6626 32.9299 25
      vertex 85.3934 31.9446 2.5
      vertex 85.3934 31.9446 25
    endloop
  endfacet
  facet normal -0.998796 0.0490656 0
    outer loop
      vertex 87.4398 -26.2252 2.5
      vertex 87.5 -25 25
      vertex 87.5 -25 2.5
    endloop
  endfacet
  facet normal -0.998796 0.0490656 0
    outer loop
      vertex 87.5 -25 25
      vertex 87.4398 -26.2252 2.5
      vertex 87.4398 -26.2252 25
    endloop
  endfacet
  facet normal 0 -1 -0
    outer loop
      vertex 11.1 37.5 12.7717
      vertex 0 37.5 0.799999
      vertex 29.8246 37.5 2.5
    endloop
  endfacet
  facet normal 0 -1 0
    outer loop
      vertex 75 37.5 2.5
      vertex 66.7131 37.5 25
      vertex 65.9292 37.5 24.8341
    endloop
  endfacet
  facet normal 0 -1 0
    outer loop
      vertex 75 37.5 2.5
      vertex 65.9292 37.5 24.8341
      vertex 48.0816 37.5 21.0137
    endloop
  endfacet
  facet normal 0 -1 0
    outer loop
      vertex 29.8246 37.5 2.5
      vertex 48.0816 37.5 21.0137
      vertex 36.6421 37.5 18.5355
    endloop
  endfacet
  facet normal 0 -1 0
    outer loop
      vertex 29.8246 37.5 2.5
      vertex 36.6421 37.5 18.5355
      vertex 28.9039 37.5 16.8379
    endloop
  endfacet
  facet normal 0 -1 0
    outer loop
      vertex 29.8246 37.5 2.5
      vertex 28.9039 37.5 16.8379
      vertex 23.4488 37.5 15.6252
    endloop
  endfacet
  facet normal 0 -1 0
    outer loop
      vertex 29.8246 37.5 2.5
      vertex 23.4488 37.5 15.6252
      vertex 19.4762 37.5 14.7294
    endloop
  endfacet
  facet normal 0 -1 0
    outer loop
      vertex 29.8246 37.5 2.5
      vertex 19.4762 37.5 14.7294
      vertex 16.5074 37.5 14.0498
    endloop
  endfacet
  facet normal 0 -1 0
    outer loop
      vertex 29.8246 37.5 2.5
      vertex 16.5074 37.5 14.0498
      vertex 14.2418 37.5 13.5225
    endloop
  endfacet
  facet normal 0 -1 0
    outer loop
      vertex 29.8246 37.5 2.5
      vertex 14.2418 37.5 13.5225
      vertex 12.4834 37.5 13.1059
    endloop
  endfacet
  facet normal 0 -1 0
    outer loop
      vertex 29.8246 37.5 2.5
      vertex 12.4834 37.5 13.1059
      vertex 11.1 37.5 12.7717
    endloop
  endfacet
  facet normal 0 -1 0
    outer loop
      vertex 0 37.5 0.799999
      vertex 11.1 37.5 12.7717
      vertex 10 37.5 12.5
    endloop
  endfacet
  facet normal 0 -1 0
    outer loop
      vertex 0 37.5 0.799999
      vertex 10 37.5 12.5
      vertex 0 37.5 10
    endloop
  endfacet
  facet normal 0 -1 -0
    outer loop
      vertex 48.0816 37.5 21.0137
      vertex 29.8246 37.5 2.5
      vertex 75 37.5 2.5
    endloop
  endfacet
  facet normal 0 -1 0
    outer loop
      vertex 66.7131 37.5 25
      vertex 75 37.5 2.5
      vertex 75 37.5 25
    endloop
  endfacet
  facet normal 0 0 1
    outer loop
      vertex 75 37.5 2.5
      vertex 87.5 25 2.5
      vertex 87.4398 26.2252 2.5
    endloop
  endfacet
  facet normal -0 0 1
    outer loop
      vertex 29.8246 37.5 2.5
      vertex 87.5 25 2.5
      vertex 75 37.5 2.5
    endloop
  endfacet
  facet normal 0 0 1
    outer loop
      vertex 75 37.5 2.5
      vertex 87.4398 26.2252 2.5
      vertex 87.2598 27.4386 2.5
    endloop
  endfacet
  facet normal 0 0 1
    outer loop
      vertex 87.5 25 2.5
      vertex 29.8246 37.5 2.5
      vertex 87.5 -25 2.5
    endloop
  endfacet
  facet normal 0 0 1
    outer loop
      vertex 75 37.5 2.5
      vertex 87.2598 27.4386 2.5
      vertex 86.9618 28.6286 2.5
    endloop
  endfacet
  facet normal 0 0 1
    outer loop
      vertex 87.5 -25 2.5
      vertex 75 -37.5 2.5
      vertex 87.4398 -26.2252 2.5
    endloop
  endfacet
  facet normal 0 0 1
    outer loop
      vertex 75 37.5 2.5
      vertex 86.9618 28.6286 2.5
      vertex 86.5485 29.7835 2.5
    endloop
  endfacet
  facet normal 0 0 1
    outer loop
      vertex 87.4398 -26.2252 2.5
      vertex 75 -37.5 2.5
      vertex 87.2598 -27.4386 2.5
    endloop
  endfacet
  facet normal 0 0 1
    outer loop
      vertex 75 37.5 2.5
      vertex 86.5485 29.7835 2.5
      vertex 86.024 30.8925 2.5
    endloop
  endfacet
  facet normal 0 0 1
    outer loop
      vertex 87.2598 -27.4386 2.5
      vertex 75 -37.5 2.5
      vertex 86.9618 -28.6286 2.5
    endloop
  endfacet
  facet normal 0 0 1
    outer loop
      vertex 75 37.5 2.5
      vertex 86.024 30.8925 2.5
      vertex 85.3934 31.9446 2.5
    endloop
  endfacet
  facet normal 0 0 1
    outer loop
      vertex 86.9618 -28.6286 2.5
      vertex 75 -37.5 2.5
      vertex 86.5485 -29.7835 2.5
    endloop
  endfacet
  facet normal 0 0 1
    outer loop
      vertex 75 37.5 2.5
      vertex 85.3934 31.9446 2.5
      vertex 84.6626 32.9299 2.5
    endloop
  endfacet
  facet normal 0 0 1
    outer loop
      vertex 86.5485 -29.7835 2.5
      vertex 75 -37.5 2.5
      vertex 86.024 -30.8925 2.5
    endloop
  endfacet
  facet normal 0 0 1
    outer loop
      vertex 75 37.5 2.5
      vertex 84.6626 32.9299 2.5
      vertex 83.8388 33.8388 2.5
    endloop
  endfacet
  facet normal 0 0 1
    outer loop
      vertex 86.024 -30.8925 2.5
      vertex 75 -37.5 2.5
      vertex 85.3934 -31.9446 2.5
    endloop
  endfacet
  facet normal 0 0 1
    outer loop
      vertex 75 37.5 2.5
      vertex 83.8388 33.8388 2.5
      vertex 82.9299 34.6626 2.5
    endloop
  endfacet
  facet normal 0 0 1
    outer loop
      vertex 85.3934 -31.9446 2.5
      vertex 75 -37.5 2.5
      vertex 84.6626 -32.9299 2.5
    endloop
  endfacet
  facet normal 0 0 1
    outer loop
      vertex 75 37.5 2.5
      vertex 82.9299 34.6626 2.5
      vertex 81.9446 35.3934 2.5
    endloop
  endfacet
  facet normal 0 0 1
    outer loop
      vertex 84.6626 -32.9299 2.5
      vertex 75 -37.5 2.5
      vertex 83.8388 -33.8388 2.5
    endloop
  endfacet
  facet normal 0 0 1
    outer loop
      vertex 75 37.5 2.5
      vertex 81.9446 35.3934 2.5
      vertex 80.8925 36.024 2.5
    endloop
  endfacet
  facet normal 0 0 1
    outer loop
      vertex 83.8388 -33.8388 2.5
      vertex 75 -37.5 2.5
      vertex 82.9299 -34.6626 2.5
    endloop
  endfacet
  facet normal 0 0 1
    outer loop
      vertex 75 37.5 2.5
      vertex 80.8925 36.024 2.5
      vertex 79.7835 36.5485 2.5
    endloop
  endfacet
  facet normal 0 0 1
    outer loop
      vertex 82.9299 -34.6626 2.5
      vertex 75 -37.5 2.5
      vertex 81.9446 -35.3934 2.5
    endloop
  endfacet
  facet normal 0 0 1
    outer loop
      vertex 75 37.5 2.5
      vertex 79.7835 36.5485 2.5
      vertex 78.6286 36.9618 2.5
    endloop
  endfacet
  facet normal 0 0 1
    outer loop
      vertex 81.9446 -35.3934 2.5
      vertex 75 -37.5 2.5
      vertex 80.8925 -36.024 2.5
    endloop
  endfacet
  facet normal 0 0 1
    outer loop
      vertex 75 37.5 2.5
      vertex 78.6286 36.9618 2.5
      vertex 77.4386 37.2598 2.5
    endloop
  endfacet
  facet normal 0 0 1
    outer loop
      vertex 80.8925 -36.024 2.5
      vertex 75 -37.5 2.5
      vertex 79.7835 -36.5485 2.5
    endloop
  endfacet
  facet normal 0 0 1
    outer loop
      vertex 75 37.5 2.5
      vertex 77.4386 37.2598 2.5
      vertex 76.2252 37.4398 2.5
    endloop
  endfacet
  facet normal 0 0 1
    outer loop
      vertex 79.7835 -36.5485 2.5
      vertex 75 -37.5 2.5
      vertex 78.6286 -36.9618 2.5
    endloop
  endfacet
  facet normal 0 0 1
    outer loop
      vertex 78.6286 -36.9618 2.5
      vertex 75 -37.5 2.5
      vertex 77.4386 -37.2598 2.5
    endloop
  endfacet
  facet normal 0 0 1
    outer loop
      vertex 77.4386 -37.2598 2.5
      vertex 75 -37.5 2.5
      vertex 76.2252 -37.4398 2.5
    endloop
  endfacet
  facet normal 0 0 1
    outer loop
      vertex 29.8246 -37.5 2.5
      vertex 87.5 -25 2.5
      vertex 29.8246 37.5 2.5
    endloop
  endfacet
  facet normal 0 0 1
    outer loop
      vertex 87.5 -25 2.5
      vertex 29.8246 -37.5 2.5
      vertex 75 -37.5 2.5
    endloop
  endfacet
  facet normal -0.857728 0.514103 0
    outer loop
      vertex 85.3934 -31.9446 2.5
      vertex 86.024 -30.8925 25
      vertex 86.024 -30.8925 2.5
    endloop
  endfacet
  facet normal -0.857728 0.514103 0
    outer loop
      vertex 86.024 -30.8925 25
      vertex 85.3934 -31.9446 2.5
      vertex 85.3934 -31.9446 25
    endloop
  endfacet
  facet normal -0.740953 -0.671556 0
    outer loop
      vertex 84.6626 32.9299 2.5
      vertex 83.8388 33.8388 25
      vertex 83.8388 33.8388 2.5
    endloop
  endfacet
  facet normal -0.740953 -0.671556 0
    outer loop
      vertex 83.8388 33.8388 25
      vertex 84.6626 32.9299 2.5
      vertex 84.6626 32.9299 25
    endloop
  endfacet
  facet normal -1 0 0
    outer loop
      vertex 87.5 -25 2.5
      vertex 87.5 25 25
      vertex 87.5 25 2.5
    endloop
  endfacet
  facet normal -1 -0 0
    outer loop
      vertex 87.5 25 25
      vertex 87.5 -25 2.5
      vertex 87.5 -25 25
    endloop
  endfacet
  facet normal -0.0490687 0.998795 0
    outer loop
      vertex 76.2252 -37.4398 2.5
      vertex 75 -37.5 25
      vertex 76.2252 -37.4398 25
    endloop
  endfacet
  facet normal -0.0490687 0.998795 0
    outer loop
      vertex 75 -37.5 25
      vertex 76.2252 -37.4398 2.5
      vertex 75 -37.5 2.5
    endloop
  endfacet
  facet normal -0.5957 0.803207 0
    outer loop
      vertex 82.9299 -34.6626 2.5
      vertex 81.9446 -35.3934 25
      vertex 82.9299 -34.6626 25
    endloop
  endfacet
  facet normal -0.5957 0.803207 0
    outer loop
      vertex 81.9446 -35.3934 25
      vertex 82.9299 -34.6626 2.5
      vertex 81.9446 -35.3934 2.5
    endloop
  endfacet
  facet normal -0.989176 0.146736 0
    outer loop
      vertex 87.2598 -27.4386 2.5
      vertex 87.4398 -26.2252 25
      vertex 87.4398 -26.2252 2.5
    endloop
  endfacet
  facet normal -0.989176 0.146736 0
    outer loop
      vertex 87.4398 -26.2252 25
      vertex 87.2598 -27.4386 2.5
      vertex 87.2598 -27.4386 25
    endloop
  endfacet
  facet normal -0.671556 0.740953 0
    outer loop
      vertex 83.8388 -33.8388 2.5
      vertex 82.9299 -34.6626 25
      vertex 83.8388 -33.8388 25
    endloop
  endfacet
  facet normal -0.671556 0.740953 0
    outer loop
      vertex 82.9299 -34.6626 25
      vertex 83.8388 -33.8388 2.5
      vertex 82.9299 -34.6626 2.5
    endloop
  endfacet
  facet normal -0.0490687 -0.998795 0
    outer loop
      vertex 75 37.5 2.5
      vertex 76.2252 37.4398 25
      vertex 75 37.5 25
    endloop
  endfacet
  facet normal -0.0490687 -0.998795 -0
    outer loop
      vertex 76.2252 37.4398 25
      vertex 75 37.5 2.5
      vertex 76.2252 37.4398 2.5
    endloop
  endfacet
  facet normal -0.14673 -0.989177 0
    outer loop
      vertex 76.2252 37.4398 2.5
      vertex 77.4386 37.2598 25
      vertex 76.2252 37.4398 25
    endloop
  endfacet
  facet normal -0.14673 -0.989177 -0
    outer loop
      vertex 77.4386 37.2598 25
      vertex 76.2252 37.4398 2.5
      vertex 77.4386 37.2598 2.5
    endloop
  endfacet
  facet normal -0.857728 -0.514103 0
    outer loop
      vertex 86.024 30.8925 2.5
      vertex 85.3934 31.9446 25
      vertex 85.3934 31.9446 2.5
    endloop
  endfacet
  facet normal -0.857728 -0.514103 0
    outer loop
      vertex 85.3934 31.9446 25
      vertex 86.024 30.8925 2.5
      vertex 86.024 30.8925 25
    endloop
  endfacet
  facet normal -0.514102 0.857729 0
    outer loop
      vertex 81.9446 -35.3934 2.5
      vertex 80.8925 -36.024 25
      vertex 81.9446 -35.3934 25
    endloop
  endfacet
  facet normal -0.514102 0.857729 0
    outer loop
      vertex 80.8925 -36.024 25
      vertex 81.9446 -35.3934 2.5
      vertex 80.8925 -36.024 2.5
    endloop
  endfacet
  facet normal -0.14673 0.989177 0
    outer loop
      vertex 77.4386 -37.2598 2.5
      vertex 76.2252 -37.4398 25
      vertex 77.4386 -37.2598 25
    endloop
  endfacet
  facet normal -0.14673 0.989177 0
    outer loop
      vertex 76.2252 -37.4398 25
      vertex 77.4386 -37.2598 2.5
      vertex 76.2252 -37.4398 2.5
    endloop
  endfacet
  facet normal -0.941544 0.336891 0
    outer loop
      vertex 86.5485 -29.7835 2.5
      vertex 86.9618 -28.6286 25
      vertex 86.9618 -28.6286 2.5
    endloop
  endfacet
  facet normal -0.941544 0.336891 0
    outer loop
      vertex 86.9618 -28.6286 25
      vertex 86.5485 -29.7835 2.5
      vertex 86.5485 -29.7835 25
    endloop
  endfacet
  facet normal -0.90399 0.427553 0
    outer loop
      vertex 86.024 -30.8925 2.5
      vertex 86.5485 -29.7835 25
      vertex 86.5485 -29.7835 2.5
    endloop
  endfacet
  facet normal -0.90399 0.427553 0
    outer loop
      vertex 86.5485 -29.7835 25
      vertex 86.024 -30.8925 2.5
      vertex 86.024 -30.8925 25
    endloop
  endfacet
  facet normal -0.740953 0.671556 0
    outer loop
      vertex 83.8388 -33.8388 2.5
      vertex 84.6626 -32.9299 25
      vertex 84.6626 -32.9299 2.5
    endloop
  endfacet
  facet normal -0.740953 0.671556 0
    outer loop
      vertex 84.6626 -32.9299 25
      vertex 83.8388 -33.8388 2.5
      vertex 83.8388 -33.8388 25
    endloop
  endfacet
  facet normal -0.24298 -0.970031 0
    outer loop
      vertex 77.4386 37.2598 2.5
      vertex 78.6286 36.9618 25
      vertex 77.4386 37.2598 25
    endloop
  endfacet
  facet normal -0.24298 -0.970031 -0
    outer loop
      vertex 78.6286 36.9618 25
      vertex 77.4386 37.2598 2.5
      vertex 78.6286 36.9618 2.5
    endloop
  endfacet
  facet normal -0.427553 0.90399 0
    outer loop
      vertex 80.8925 -36.024 2.5
      vertex 79.7835 -36.5485 25
      vertex 80.8925 -36.024 25
    endloop
  endfacet
  facet normal -0.427553 0.90399 0
    outer loop
      vertex 79.7835 -36.5485 25
      vertex 80.8925 -36.024 2.5
      vertex 79.7835 -36.5485 2.5
    endloop
  endfacet
  facet normal -0.24298 0.970031 0
    outer loop
      vertex 78.6286 -36.9618 2.5
      vertex 77.4386 -37.2598 25
      vertex 78.6286 -36.9618 25
    endloop
  endfacet
  facet normal -0.24298 0.970031 0
    outer loop
      vertex 77.4386 -37.2598 25
      vertex 78.6286 -36.9618 2.5
      vertex 77.4386 -37.2598 2.5
    endloop
  endfacet
  facet normal -0.970032 0.242977 0
    outer loop
      vertex 86.9618 -28.6286 2.5
      vertex 87.2598 -27.4386 25
      vertex 87.2598 -27.4386 2.5
    endloop
  endfacet
  facet normal -0.970032 0.242977 0
    outer loop
      vertex 87.2598 -27.4386 25
      vertex 86.9618 -28.6286 2.5
      vertex 86.9618 -28.6286 25
    endloop
  endfacet
  facet normal -0.803206 0.595701 0
    outer loop
      vertex 84.6626 -32.9299 2.5
      vertex 85.3934 -31.9446 25
      vertex 85.3934 -31.9446 2.5
    endloop
  endfacet
  facet normal -0.803206 0.595701 0
    outer loop
      vertex 85.3934 -31.9446 25
      vertex 84.6626 -32.9299 2.5
      vertex 84.6626 -32.9299 25
    endloop
  endfacet
  facet normal -0.514102 -0.857729 0
    outer loop
      vertex 80.8925 36.024 2.5
      vertex 81.9446 35.3934 25
      vertex 80.8925 36.024 25
    endloop
  endfacet
  facet normal -0.514102 -0.857729 -0
    outer loop
      vertex 81.9446 35.3934 25
      vertex 80.8925 36.024 2.5
      vertex 81.9446 35.3934 2.5
    endloop
  endfacet
  facet normal -0.5957 -0.803207 0
    outer loop
      vertex 81.9446 35.3934 2.5
      vertex 82.9299 34.6626 25
      vertex 81.9446 35.3934 25
    endloop
  endfacet
  facet normal -0.5957 -0.803207 -0
    outer loop
      vertex 82.9299 34.6626 25
      vertex 81.9446 35.3934 2.5
      vertex 82.9299 34.6626 2.5
    endloop
  endfacet
  facet normal -0.336891 -0.941544 0
    outer loop
      vertex 78.6286 36.9618 2.5
      vertex 79.7835 36.5485 25
      vertex 78.6286 36.9618 25
    endloop
  endfacet
  facet normal -0.336891 -0.941544 -0
    outer loop
      vertex 79.7835 36.5485 25
      vertex 78.6286 36.9618 2.5
      vertex 79.7835 36.5485 2.5
    endloop
  endfacet
  facet normal -0.427553 -0.90399 0
    outer loop
      vertex 79.7835 36.5485 2.5
      vertex 80.8925 36.024 25
      vertex 79.7835 36.5485 25
    endloop
  endfacet
  facet normal -0.427553 -0.90399 -0
    outer loop
      vertex 80.8925 36.024 25
      vertex 79.7835 36.5485 2.5
      vertex 80.8925 36.024 2.5
    endloop
  endfacet
  facet normal -0.671556 -0.740953 0
    outer loop
      vertex 82.9299 34.6626 2.5
      vertex 83.8388 33.8388 25
      vertex 82.9299 34.6626 25
    endloop
  endfacet
  facet normal -0.671556 -0.740953 -0
    outer loop
      vertex 83.8388 33.8388 25
      vertex 82.9299 34.6626 2.5
      vertex 83.8388 33.8388 2.5
    endloop
  endfacet
  facet normal -0.90399 -0.427553 0
    outer loop
      vertex 86.5485 29.7835 2.5
      vertex 86.024 30.8925 25
      vertex 86.024 30.8925 2.5
    endloop
  endfacet
  facet normal -0.90399 -0.427553 0
    outer loop
      vertex 86.024 30.8925 25
      vertex 86.5485 29.7835 2.5
      vertex 86.5485 29.7835 25
    endloop
  endfacet
  facet normal -0.941544 -0.336891 0
    outer loop
      vertex 86.9618 28.6286 2.5
      vertex 86.5485 29.7835 25
      vertex 86.5485 29.7835 2.5
    endloop
  endfacet
  facet normal -0.941544 -0.336891 0
    outer loop
      vertex 86.5485 29.7835 25
      vertex 86.9618 28.6286 2.5
      vertex 86.9618 28.6286 25
    endloop
  endfacet
  facet normal -0.970032 -0.242977 0
    outer loop
      vertex 87.2598 27.4386 2.5
      vertex 86.9618 28.6286 25
      vertex 86.9618 28.6286 2.5
    endloop
  endfacet
  facet normal -0.970032 -0.242977 0
    outer loop
      vertex 86.9618 28.6286 25
      vertex 87.2598 27.4386 2.5
      vertex 87.2598 27.4386 25
    endloop
  endfacet
  facet normal -0.989176 -0.146736 0
    outer loop
      vertex 87.4398 26.2252 2.5
      vertex 87.2598 27.4386 25
      vertex 87.2598 27.4386 2.5
    endloop
  endfacet
  facet normal -0.989176 -0.146736 0
    outer loop
      vertex 87.2598 27.4386 25
      vertex 87.4398 26.2252 2.5
      vertex 87.4398 26.2252 25
    endloop
  endfacet
  facet normal -0.0569076 0 0.998379
    outer loop
      vertex 0 37.5 0.799999
      vertex 29.8246 -37.5 2.5
      vertex 29.8246 37.5 2.5
    endloop
  endfacet
  facet normal -0.0569076 0 0.998379
    outer loop
      vertex 29.8246 -37.5 2.5
      vertex 0 37.5 0.799999
      vertex 0 -37.5 0.799999
    endloop
  endfacet
  facet normal 0 0 -1
    outer loop
      vertex 89.6288 -26.4408 0.2
      vertex 90 -25 0.2
      vertex 89.9278 -26.4703 0.2
    endloop
  endfacet
  facet normal 0 0 -1
    outer loop
      vertex 90 -25 0.2
      vertex 89.7 -24.9927 0.2
      vertex 90 25 0.2
    endloop
  endfacet
  facet normal 0 0 -1
    outer loop
      vertex 89.6288 -26.4408 0.2
      vertex 89.9278 -26.4703 0.2
      vertex 89.7118 -27.9264 0.2
    endloop
  endfacet
  facet normal 0 0 -1
    outer loop
      vertex 89.7 24.9927 0.2
      vertex 90 25 0.2
      vertex 89.7 -24.9927 0.2
    endloop
  endfacet
  facet normal 0 0 -1
    outer loop
      vertex 89.6288 26.4408 0.2
      vertex 90 25 0.2
      vertex 89.7 24.9927 0.2
    endloop
  endfacet
  facet normal -0 0 -1
    outer loop
      vertex 90 -25 0.2
      vertex 89.6288 -26.4408 0.2
      vertex 89.7 -24.9927 0.2
    endloop
  endfacet
  facet normal 0 0 -1
    outer loop
      vertex 89.7118 -27.9264 0.2
      vertex 89.4172 -27.8677 0.2
      vertex 89.6288 -26.4408 0.2
    endloop
  endfacet
  facet normal 0 0 -1
    outer loop
      vertex 89.3541 -29.3543 0.2
      vertex 89.4172 -27.8677 0.2
      vertex 89.7118 -27.9264 0.2
    endloop
  endfacet
  facet normal 0 0 -1
    outer loop
      vertex 89.3541 -29.3543 0.2
      vertex 89.0667 -29.2671 0.2
      vertex 89.4172 -27.8677 0.2
    endloop
  endfacet
  facet normal 0 0 -1
    outer loop
      vertex 88.8582 -30.7402 0.2
      vertex 89.0667 -29.2671 0.2
      vertex 89.3541 -29.3543 0.2
    endloop
  endfacet
  facet normal 0 0 -1
    outer loop
      vertex 88.8582 -30.7402 0.2
      vertex 88.5807 -30.6254 0.2
      vertex 89.0667 -29.2671 0.2
    endloop
  endfacet
  facet normal 0 0 -1
    outer loop
      vertex 88.2288 -32.0709 0.2
      vertex 88.5807 -30.6254 0.2
      vertex 88.8582 -30.7402 0.2
    endloop
  endfacet
  facet normal 0 0 -1
    outer loop
      vertex 88.2288 -32.0709 0.2
      vertex 87.964 -31.9293 0.2
      vertex 88.5807 -30.6254 0.2
    endloop
  endfacet
  facet normal 0 0 -1
    outer loop
      vertex 87.472 -33.3336 0.2
      vertex 87.964 -31.9293 0.2
      vertex 88.2288 -32.0709 0.2
    endloop
  endfacet
  facet normal 0 0 -1
    outer loop
      vertex 87.472 -33.3336 0.2
      vertex 87.2223 -33.1667 0.2
      vertex 87.964 -31.9293 0.2
    endloop
  endfacet
  facet normal 0 0 -1
    outer loop
      vertex 86.5952 -34.5159 0.2
      vertex 87.2223 -33.1667 0.2
      vertex 87.472 -33.3336 0.2
    endloop
  endfacet
  facet normal 0 0 -1
    outer loop
      vertex 86.5952 -34.5159 0.2
      vertex 86.3629 -34.3254 0.2
      vertex 87.2223 -33.1667 0.2
    endloop
  endfacet
  facet normal 0 0 -1
    outer loop
      vertex 85.6066 -35.6066 0.2
      vertex 86.3629 -34.3254 0.2
      vertex 86.5952 -34.5159 0.2
    endloop
  endfacet
  facet normal 0 0 -1
    outer loop
      vertex 85.6066 -35.6066 0.2
      vertex 85.3942 -35.3942 0.2
      vertex 86.3629 -34.3254 0.2
    endloop
  endfacet
  facet normal 0 0 -1
    outer loop
      vertex 84.5159 -36.5952 0.2
      vertex 85.3942 -35.3942 0.2
      vertex 85.6066 -35.6066 0.2
    endloop
  endfacet
  facet normal 0 0 -1
    outer loop
      vertex 84.5159 -36.5952 0.2
      vertex 84.3254 -36.3629 0.2
      vertex 85.3942 -35.3942 0.2
    endloop
  endfacet
  facet normal 0 0 -1
    outer loop
      vertex 83.3336 -37.472 0.2
      vertex 84.3254 -36.3629 0.2
      vertex 84.5159 -36.5952 0.2
    endloop
  endfacet
  facet normal 0 0 -1
    outer loop
      vertex 83.3336 -37.472 0.2
      vertex 83.1667 -37.2223 0.2
      vertex 84.3254 -36.3629 0.2
    endloop
  endfacet
  facet normal 0 0 -1
    outer loop
      vertex 82.071 -38.2288 0.2
      vertex 83.1667 -37.2223 0.2
      vertex 83.3336 -37.472 0.2
    endloop
  endfacet
  facet normal 0 0 -1
    outer loop
      vertex 82.071 -38.2288 0.2
      vertex 81.9293 -37.964 0.2
      vertex 83.1667 -37.2223 0.2
    endloop
  endfacet
  facet normal 0 0 -1
    outer loop
      vertex 80.7402 -38.8582 0.2
      vertex 81.9293 -37.964 0.2
      vertex 82.071 -38.2288 0.2
    endloop
  endfacet
  facet normal 0 0 -1
    outer loop
      vertex 80.7402 -38.8582 0.2
      vertex 80.6254 -38.5807 0.2
      vertex 81.9293 -37.964 0.2
    endloop
  endfacet
  facet normal 0 0 -1
    outer loop
      vertex 79.3543 -39.3541 0.2
      vertex 80.6254 -38.5807 0.2
      vertex 80.7402 -38.8582 0.2
    endloop
  endfacet
  facet normal 0 0 -1
    outer loop
      vertex 79.3543 -39.3541 0.2
      vertex 79.2671 -39.0667 0.2
      vertex 80.6254 -38.5807 0.2
    endloop
  endfacet
  facet normal 0 0 -1
    outer loop
      vertex 77.9264 -39.7118 0.2
      vertex 79.2671 -39.0667 0.2
      vertex 79.3543 -39.3541 0.2
    endloop
  endfacet
  facet normal 0 0 -1
    outer loop
      vertex 77.9264 -39.7118 0.2
      vertex 77.8677 -39.4172 0.2
      vertex 79.2671 -39.0667 0.2
    endloop
  endfacet
  facet normal 0 0 -1
    outer loop
      vertex 76.4703 -39.9278 0.2
      vertex 77.8677 -39.4172 0.2
      vertex 77.9264 -39.7118 0.2
    endloop
  endfacet
  facet normal 0 0 -1
    outer loop
      vertex 76.4703 -39.9278 0.2
      vertex 76.4408 -39.6288 0.2
      vertex 77.8677 -39.4172 0.2
    endloop
  endfacet
  facet normal 0 0 -1
    outer loop
      vertex 75 -40 0.2
      vertex 76.4408 -39.6288 0.2
      vertex 76.4703 -39.9278 0.2
    endloop
  endfacet
  facet normal 0 0 -1
    outer loop
      vertex 75 -40 0.2
      vertex 74.9927 -39.7 0.2
      vertex 76.4408 -39.6288 0.2
    endloop
  endfacet
  facet normal 0 0 -1
    outer loop
      vertex 75 -40 0.2
      vertex 0.300003 -39.7 0.2
      vertex 74.9927 -39.7 0.2
    endloop
  endfacet
  facet normal -0 0 -1
    outer loop
      vertex 0.300003 -39.7 0.2
      vertex 0 -40 0.2
      vertex 0.300003 39.7 0.2
    endloop
  endfacet
  facet normal 0 0 -1
    outer loop
      vertex 0 -40 0.2
      vertex 0.300003 -39.7 0.2
      vertex 75 -40 0.2
    endloop
  endfacet
  facet normal 0 0 -1
    outer loop
      vertex 90 25 0.2
      vertex 89.6288 26.4408 0.2
      vertex 89.9278 26.4703 0.2
    endloop
  endfacet
  facet normal -0 0 -1
    outer loop
      vertex 89.9278 26.4703 0.2
      vertex 89.6288 26.4408 0.2
      vertex 89.7118 27.9264 0.2
    endloop
  endfacet
  facet normal 0 0 -1
    outer loop
      vertex 89.4172 27.8677 0.2
      vertex 89.7118 27.9264 0.2
      vertex 89.6288 26.4408 0.2
    endloop
  endfacet
  facet normal 0 0 -1
    outer loop
      vertex 89.4172 27.8677 0.2
      vertex 89.3541 29.3543 0.2
      vertex 89.7118 27.9264 0.2
    endloop
  endfacet
  facet normal 0 0 -1
    outer loop
      vertex 89.0667 29.2671 0.2
      vertex 89.3541 29.3543 0.2
      vertex 89.4172 27.8677 0.2
    endloop
  endfacet
  facet normal 0 0 -1
    outer loop
      vertex 89.0667 29.2671 0.2
      vertex 88.8582 30.7402 0.2
      vertex 89.3541 29.3543 0.2
    endloop
  endfacet
  facet normal 0 0 -1
    outer loop
      vertex 88.5807 30.6254 0.2
      vertex 88.8582 30.7402 0.2
      vertex 89.0667 29.2671 0.2
    endloop
  endfacet
  facet normal 0 0 -1
    outer loop
      vertex 88.5807 30.6254 0.2
      vertex 88.2288 32.0709 0.2
      vertex 88.8582 30.7402 0.2
    endloop
  endfacet
  facet normal 0 0 -1
    outer loop
      vertex 87.964 31.9293 0.2
      vertex 88.2288 32.0709 0.2
      vertex 88.5807 30.6254 0.2
    endloop
  endfacet
  facet normal 0 0 -1
    outer loop
      vertex 87.964 31.9293 0.2
      vertex 87.472 33.3336 0.2
      vertex 88.2288 32.0709 0.2
    endloop
  endfacet
  facet normal 0 0 -1
    outer loop
      vertex 87.2223 33.1667 0.2
      vertex 87.472 33.3336 0.2
      vertex 87.964 31.9293 0.2
    endloop
  endfacet
  facet normal 0 0 -1
    outer loop
      vertex 87.2223 33.1667 0.2
      vertex 86.5952 34.5159 0.2
      vertex 87.472 33.3336 0.2
    endloop
  endfacet
  facet normal 0 0 -1
    outer loop
      vertex 86.3629 34.3254 0.2
      vertex 86.5952 34.5159 0.2
      vertex 87.2223 33.1667 0.2
    endloop
  endfacet
  facet normal 0 0 -1
    outer loop
      vertex 86.3629 34.3254 0.2
      vertex 85.6066 35.6066 0.2
      vertex 86.5952 34.5159 0.2
    endloop
  endfacet
  facet normal 0 0 -1
    outer loop
      vertex 85.3942 35.3942 0.2
      vertex 85.6066 35.6066 0.2
      vertex 86.3629 34.3254 0.2
    endloop
  endfacet
  facet normal 0 0 -1
    outer loop
      vertex 85.3942 35.3942 0.2
      vertex 84.5159 36.5952 0.2
      vertex 85.6066 35.6066 0.2
    endloop
  endfacet
  facet normal 0 0 -1
    outer loop
      vertex 84.3254 36.3629 0.2
      vertex 84.5159 36.5952 0.2
      vertex 85.3942 35.3942 0.2
    endloop
  endfacet
  facet normal 0 0 -1
    outer loop
      vertex 84.3254 36.3629 0.2
      vertex 83.3336 37.472 0.2
      vertex 84.5159 36.5952 0.2
    endloop
  endfacet
  facet normal 0 0 -1
    outer loop
      vertex 83.1667 37.2223 0.2
      vertex 83.3336 37.472 0.2
      vertex 84.3254 36.3629 0.2
    endloop
  endfacet
  facet normal 0 0 -1
    outer loop
      vertex 83.1667 37.2223 0.2
      vertex 82.071 38.2288 0.2
      vertex 83.3336 37.472 0.2
    endloop
  endfacet
  facet normal 0 0 -1
    outer loop
      vertex 81.9293 37.964 0.2
      vertex 82.071 38.2288 0.2
      vertex 83.1667 37.2223 0.2
    endloop
  endfacet
  facet normal 0 0 -1
    outer loop
      vertex 81.9293 37.964 0.2
      vertex 80.7402 38.8582 0.2
      vertex 82.071 38.2288 0.2
    endloop
  endfacet
  facet normal 0 0 -1
    outer loop
      vertex 80.6254 38.5807 0.2
      vertex 80.7402 38.8582 0.2
      vertex 81.9293 37.964 0.2
    endloop
  endfacet
  facet normal 0 0 -1
    outer loop
      vertex 80.6254 38.5807 0.2
      vertex 79.3543 39.3541 0.2
      vertex 80.7402 38.8582 0.2
    endloop
  endfacet
  facet normal 0 0 -1
    outer loop
      vertex 79.2671 39.0667 0.2
      vertex 79.3543 39.3541 0.2
      vertex 80.6254 38.5807 0.2
    endloop
  endfacet
  facet normal 0 0 -1
    outer loop
      vertex 79.2671 39.0667 0.2
      vertex 77.9264 39.7118 0.2
      vertex 79.3543 39.3541 0.2
    endloop
  endfacet
  facet normal 0 0 -1
    outer loop
      vertex 77.8677 39.4172 0.2
      vertex 77.9264 39.7118 0.2
      vertex 79.2671 39.0667 0.2
    endloop
  endfacet
  facet normal 0 0 -1
    outer loop
      vertex 77.8677 39.4172 0.2
      vertex 76.4703 39.9278 0.2
      vertex 77.9264 39.7118 0.2
    endloop
  endfacet
  facet normal 0 0 -1
    outer loop
      vertex 76.4408 39.6288 0.2
      vertex 76.4703 39.9278 0.2
      vertex 77.8677 39.4172 0.2
    endloop
  endfacet
  facet normal 0 0 -1
    outer loop
      vertex 76.4408 39.6288 0.2
      vertex 75 40 0.2
      vertex 76.4703 39.9278 0.2
    endloop
  endfacet
  facet normal 0 0 -1
    outer loop
      vertex 74.9927 39.7 0.2
      vertex 75 40 0.2
      vertex 76.4408 39.6288 0.2
    endloop
  endfacet
  facet normal 0 0 -1
    outer loop
      vertex 0.300003 39.7 0.2
      vertex 75 40 0.2
      vertex 74.9927 39.7 0.2
    endloop
  endfacet
  facet normal 0 0 -1
    outer loop
      vertex 0.300003 39.7 0.2
      vertex 0 40 0.2
      vertex 75 40 0.2
    endloop
  endfacet
  facet normal 0 0 -1
    outer loop
      vertex 0 40 0.2
      vertex 0.300003 39.7 0.2
      vertex 0 -40 0.2
    endloop
  endfacet
  facet normal 0.242979 -0.970032 0
    outer loop
      vertex 77.8677 -39.4172 0
      vertex 79.2671 -39.0667 0.2
      vertex 77.8677 -39.4172 0.2
    endloop
  endfacet
  facet normal 0.242979 -0.970032 0
    outer loop
      vertex 79.2671 -39.0667 0.2
      vertex 77.8677 -39.4172 0
      vertex 79.2671 -39.0667 0
    endloop
  endfacet
  facet normal 0 1 -0
    outer loop
      vertex 74.9927 39.7 0
      vertex 0.300003 39.7 0.2
      vertex 74.9927 39.7 0.2
    endloop
  endfacet
  facet normal 0 1 0
    outer loop
      vertex 0.300003 39.7 0.2
      vertex 74.9927 39.7 0
      vertex 0.300003 39.7 0
    endloop
  endfacet
  facet normal 0.146725 -0.989177 0
    outer loop
      vertex 76.4408 -39.6288 0
      vertex 77.8677 -39.4172 0.2
      vertex 76.4408 -39.6288 0.2
    endloop
  endfacet
  facet normal 0.146725 -0.989177 0
    outer loop
      vertex 77.8677 -39.4172 0.2
      vertex 76.4408 -39.6288 0
      vertex 77.8677 -39.4172 0
    endloop
  endfacet
  facet normal -1 0 0
    outer loop
      vertex 0.300003 -39.7 0
      vertex 0.300003 39.7 0.2
      vertex 0.300003 39.7 0
    endloop
  endfacet
  facet normal -1 -0 0
    outer loop
      vertex 0.300003 39.7 0.2
      vertex 0.300003 -39.7 0
      vertex 0.300003 -39.7 0.2
    endloop
  endfacet
  facet normal 0 0 -1
    outer loop
      vertex 74.9927 -39.7 0
      vertex 89.7 -24.9927 0
      vertex 89.6288 -26.4408 0
    endloop
  endfacet
  facet normal -0 0 -1
    outer loop
      vertex 89.7 -24.9927 0
      vertex 74.9927 -39.7 0
      vertex 89.7 24.9927 0
    endloop
  endfacet
  facet normal 0 0 -1
    outer loop
      vertex 74.9927 -39.7 0
      vertex 89.6288 -26.4408 0
      vertex 89.4172 -27.8677 0
    endloop
  endfacet
  facet normal 0 0 -1
    outer loop
      vertex 74.9927 39.7 0
      vertex 89.7 24.9927 0
      vertex 74.9927 -39.7 0
    endloop
  endfacet
  facet normal 0 0 -1
    outer loop
      vertex 74.9927 -39.7 0
      vertex 89.4172 -27.8677 0
      vertex 89.0667 -29.2671 0
    endloop
  endfacet
  facet normal 0 0 -1
    outer loop
      vertex 89.7 24.9927 0
      vertex 74.9927 39.7 0
      vertex 89.6288 26.4408 0
    endloop
  endfacet
  facet normal 0 0 -1
    outer loop
      vertex 74.9927 -39.7 0
      vertex 89.0667 -29.2671 0
      vertex 88.5807 -30.6254 0
    endloop
  endfacet
  facet normal 0 0 -1
    outer loop
      vertex 89.6288 26.4408 0
      vertex 74.9927 39.7 0
      vertex 89.4172 27.8677 0
    endloop
  endfacet
  facet normal 0 0 -1
    outer loop
      vertex 74.9927 -39.7 0
      vertex 88.5807 -30.6254 0
      vertex 87.964 -31.9293 0
    endloop
  endfacet
  facet normal 0 0 -1
    outer loop
      vertex 89.4172 27.8677 0
      vertex 74.9927 39.7 0
      vertex 89.0667 29.2671 0
    endloop
  endfacet
  facet normal 0 0 -1
    outer loop
      vertex 74.9927 -39.7 0
      vertex 87.964 -31.9293 0
      vertex 87.2223 -33.1667 0
    endloop
  endfacet
  facet normal 0 0 -1
    outer loop
      vertex 89.0667 29.2671 0
      vertex 74.9927 39.7 0
      vertex 88.5807 30.6254 0
    endloop
  endfacet
  facet normal 0 0 -1
    outer loop
      vertex 74.9927 -39.7 0
      vertex 87.2223 -33.1667 0
      vertex 86.3629 -34.3254 0
    endloop
  endfacet
  facet normal 0 0 -1
    outer loop
      vertex 88.5807 30.6254 0
      vertex 74.9927 39.7 0
      vertex 87.964 31.9293 0
    endloop
  endfacet
  facet normal 0 0 -1
    outer loop
      vertex 74.9927 -39.7 0
      vertex 86.3629 -34.3254 0
      vertex 85.3942 -35.3942 0
    endloop
  endfacet
  facet normal 0 0 -1
    outer loop
      vertex 87.964 31.9293 0
      vertex 74.9927 39.7 0
      vertex 87.2223 33.1667 0
    endloop
  endfacet
  facet normal 0 0 -1
    outer loop
      vertex 74.9927 -39.7 0
      vertex 85.3942 -35.3942 0
      vertex 84.3254 -36.3629 0
    endloop
  endfacet
  facet normal 0 0 -1
    outer loop
      vertex 87.2223 33.1667 0
      vertex 74.9927 39.7 0
      vertex 86.3629 34.3254 0
    endloop
  endfacet
  facet normal 0 0 -1
    outer loop
      vertex 74.9927 -39.7 0
      vertex 84.3254 -36.3629 0
      vertex 83.1667 -37.2223 0
    endloop
  endfacet
  facet normal 0 0 -1
    outer loop
      vertex 86.3629 34.3254 0
      vertex 74.9927 39.7 0
      vertex 85.3942 35.3942 0
    endloop
  endfacet
  facet normal 0 0 -1
    outer loop
      vertex 74.9927 -39.7 0
      vertex 83.1667 -37.2223 0
      vertex 81.9293 -37.964 0
    endloop
  endfacet
  facet normal 0 0 -1
    outer loop
      vertex 85.3942 35.3942 0
      vertex 74.9927 39.7 0
      vertex 84.3254 36.3629 0
    endloop
  endfacet
  facet normal 0 0 -1
    outer loop
      vertex 74.9927 -39.7 0
      vertex 81.9293 -37.964 0
      vertex 80.6254 -38.5807 0
    endloop
  endfacet
  facet normal 0 0 -1
    outer loop
      vertex 84.3254 36.3629 0
      vertex 74.9927 39.7 0
      vertex 83.1667 37.2223 0
    endloop
  endfacet
  facet normal 0 0 -1
    outer loop
      vertex 74.9927 -39.7 0
      vertex 80.6254 -38.5807 0
      vertex 79.2671 -39.0667 0
    endloop
  endfacet
  facet normal 0 0 -1
    outer loop
      vertex 83.1667 37.2223 0
      vertex 74.9927 39.7 0
      vertex 81.9293 37.964 0
    endloop
  endfacet
  facet normal 0 0 -1
    outer loop
      vertex 74.9927 -39.7 0
      vertex 79.2671 -39.0667 0
      vertex 77.8677 -39.4172 0
    endloop
  endfacet
  facet normal 0 0 -1
    outer loop
      vertex 81.9293 37.964 0
      vertex 74.9927 39.7 0
      vertex 80.6254 38.5807 0
    endloop
  endfacet
  facet normal 0 0 -1
    outer loop
      vertex 74.9927 -39.7 0
      vertex 77.8677 -39.4172 0
      vertex 76.4408 -39.6288 0
    endloop
  endfacet
  facet normal 0 0 -1
    outer loop
      vertex 80.6254 38.5807 0
      vertex 74.9927 39.7 0
      vertex 79.2671 39.0667 0
    endloop
  endfacet
  facet normal 0 0 -1
    outer loop
      vertex 79.2671 39.0667 0
      vertex 74.9927 39.7 0
      vertex 77.8677 39.4172 0
    endloop
  endfacet
  facet normal 0 0 -1
    outer loop
      vertex 77.8677 39.4172 0
      vertex 74.9927 39.7 0
      vertex 76.4408 39.6288 0
    endloop
  endfacet
  facet normal 0 0 -1
    outer loop
      vertex 0.300003 -39.7 0
      vertex 74.9927 39.7 0
      vertex 74.9927 -39.7 0
    endloop
  endfacet
  facet normal -0 0 -1
    outer loop
      vertex 74.9927 39.7 0
      vertex 0.300003 -39.7 0
      vertex 0.300003 39.7 0
    endloop
  endfacet
  facet normal 0.740956 0.671554 0
    outer loop
      vertex 86.3629 34.3254 0.2
      vertex 85.3942 35.3942 0
      vertex 85.3942 35.3942 0.2
    endloop
  endfacet
  facet normal 0.740956 0.671554 0
    outer loop
      vertex 85.3942 35.3942 0
      vertex 86.3629 34.3254 0.2
      vertex 86.3629 34.3254 0
    endloop
  endfacet
  facet normal 0 -1 0
    outer loop
      vertex 0.300003 -39.7 0
      vertex 74.9927 -39.7 0.2
      vertex 0.300003 -39.7 0.2
    endloop
  endfacet
  facet normal 0 -1 -0
    outer loop
      vertex 74.9927 -39.7 0.2
      vertex 0.300003 -39.7 0
      vertex 74.9927 -39.7 0
    endloop
  endfacet
  facet normal 0.0490767 -0.998795 0
    outer loop
      vertex 74.9927 -39.7 0
      vertex 76.4408 -39.6288 0.2
      vertex 74.9927 -39.7 0.2
    endloop
  endfacet
  facet normal 0.0490767 -0.998795 0
    outer loop
      vertex 76.4408 -39.6288 0.2
      vertex 74.9927 -39.7 0
      vertex 76.4408 -39.6288 0
    endloop
  endfacet
  facet normal 0.146725 0.989177 -0
    outer loop
      vertex 77.8677 39.4172 0
      vertex 76.4408 39.6288 0.2
      vertex 77.8677 39.4172 0.2
    endloop
  endfacet
  facet normal 0.146725 0.989177 0
    outer loop
      vertex 76.4408 39.6288 0.2
      vertex 77.8677 39.4172 0
      vertex 76.4408 39.6288 0
    endloop
  endfacet
  facet normal 0.0490767 0.998795 -0
    outer loop
      vertex 76.4408 39.6288 0
      vertex 74.9927 39.7 0.2
      vertex 76.4408 39.6288 0.2
    endloop
  endfacet
  facet normal 0.0490767 0.998795 0
    outer loop
      vertex 74.9927 39.7 0.2
      vertex 76.4408 39.6288 0
      vertex 74.9927 39.7 0
    endloop
  endfacet
  facet normal 0.427557 0.903988 -0
    outer loop
      vertex 81.9293 37.964 0
      vertex 80.6254 38.5807 0.2
      vertex 81.9293 37.964 0.2
    endloop
  endfacet
  facet normal 0.427557 0.903988 0
    outer loop
      vertex 80.6254 38.5807 0.2
      vertex 81.9293 37.964 0
      vertex 80.6254 38.5807 0
    endloop
  endfacet
  facet normal 0.336892 0.941543 -0
    outer loop
      vertex 80.6254 38.5807 0
      vertex 79.2671 39.0667 0.2
      vertex 80.6254 38.5807 0.2
    endloop
  endfacet
  facet normal 0.336892 0.941543 0
    outer loop
      vertex 79.2671 39.0667 0.2
      vertex 80.6254 38.5807 0
      vertex 79.2671 39.0667 0
    endloop
  endfacet
  facet normal 0.998795 0.0490767 0
    outer loop
      vertex 89.7 24.9927 0.2
      vertex 89.6288 26.4408 0
      vertex 89.6288 26.4408 0.2
    endloop
  endfacet
  facet normal 0.998795 0.0490767 0
    outer loop
      vertex 89.6288 26.4408 0
      vertex 89.7 24.9927 0.2
      vertex 89.7 24.9927 0
    endloop
  endfacet
  facet normal 0.998795 -0.0490767 0
    outer loop
      vertex 89.6288 -26.4408 0.2
      vertex 89.7 -24.9927 0
      vertex 89.7 -24.9927 0.2
    endloop
  endfacet
  facet normal 0.998795 -0.0490767 0
    outer loop
      vertex 89.7 -24.9927 0
      vertex 89.6288 -26.4408 0.2
      vertex 89.6288 -26.4408 0
    endloop
  endfacet
  facet normal 0.595693 0.803212 -0
    outer loop
      vertex 84.3254 36.3629 0
      vertex 83.1667 37.2223 0.2
      vertex 84.3254 36.3629 0.2
    endloop
  endfacet
  facet normal 0.595693 0.803212 0
    outer loop
      vertex 83.1667 37.2223 0.2
      vertex 84.3254 36.3629 0
      vertex 83.1667 37.2223 0
    endloop
  endfacet
  facet normal 0.671554 0.740956 -0
    outer loop
      vertex 85.3942 35.3942 0
      vertex 84.3254 36.3629 0.2
      vertex 85.3942 35.3942 0.2
    endloop
  endfacet
  facet normal 0.671554 0.740956 0
    outer loop
      vertex 84.3254 36.3629 0.2
      vertex 85.3942 35.3942 0
      vertex 84.3254 36.3629 0
    endloop
  endfacet
  facet normal 0.51411 0.857724 -0
    outer loop
      vertex 83.1667 37.2223 0
      vertex 81.9293 37.964 0.2
      vertex 83.1667 37.2223 0.2
    endloop
  endfacet
  facet normal 0.51411 0.857724 0
    outer loop
      vertex 81.9293 37.964 0.2
      vertex 83.1667 37.2223 0
      vertex 81.9293 37.964 0
    endloop
  endfacet
  facet normal 0.242979 0.970032 -0
    outer loop
      vertex 79.2671 39.0667 0
      vertex 77.8677 39.4172 0.2
      vertex 79.2671 39.0667 0.2
    endloop
  endfacet
  facet normal 0.242979 0.970032 0
    outer loop
      vertex 77.8677 39.4172 0.2
      vertex 79.2671 39.0667 0
      vertex 77.8677 39.4172 0
    endloop
  endfacet
  facet normal 0.941543 0.336892 0
    outer loop
      vertex 89.0667 29.2671 0.2
      vertex 88.5807 30.6254 0
      vertex 88.5807 30.6254 0.2
    endloop
  endfacet
  facet normal 0.941543 0.336892 0
    outer loop
      vertex 88.5807 30.6254 0
      vertex 89.0667 29.2671 0.2
      vertex 89.0667 29.2671 0
    endloop
  endfacet
  facet normal 1 -0 0
    outer loop
      vertex 89.7 -24.9927 0.2
      vertex 89.7 24.9927 0
      vertex 89.7 24.9927 0.2
    endloop
  endfacet
  facet normal 1 0 0
    outer loop
      vertex 89.7 24.9927 0
      vertex 89.7 -24.9927 0.2
      vertex 89.7 -24.9927 0
    endloop
  endfacet
  facet normal 0.941543 -0.336892 0
    outer loop
      vertex 88.5807 -30.6254 0.2
      vertex 89.0667 -29.2671 0
      vertex 89.0667 -29.2671 0.2
    endloop
  endfacet
  facet normal 0.941543 -0.336892 0
    outer loop
      vertex 89.0667 -29.2671 0
      vertex 88.5807 -30.6254 0.2
      vertex 88.5807 -30.6254 0
    endloop
  endfacet
  facet normal 0.857724 0.51411 0
    outer loop
      vertex 87.964 31.9293 0.2
      vertex 87.2223 33.1667 0
      vertex 87.2223 33.1667 0.2
    endloop
  endfacet
  facet normal 0.857724 0.51411 0
    outer loop
      vertex 87.2223 33.1667 0
      vertex 87.964 31.9293 0.2
      vertex 87.964 31.9293 0
    endloop
  endfacet
  facet normal 0.970032 0.242979 0
    outer loop
      vertex 89.4172 27.8677 0.2
      vertex 89.0667 29.2671 0
      vertex 89.0667 29.2671 0.2
    endloop
  endfacet
  facet normal 0.970032 0.242979 0
    outer loop
      vertex 89.0667 29.2671 0
      vertex 89.4172 27.8677 0.2
      vertex 89.4172 27.8677 0
    endloop
  endfacet
  facet normal 0.989177 0.146725 0
    outer loop
      vertex 89.6288 26.4408 0.2
      vertex 89.4172 27.8677 0
      vertex 89.4172 27.8677 0.2
    endloop
  endfacet
  facet normal 0.989177 0.146725 0
    outer loop
      vertex 89.4172 27.8677 0
      vertex 89.6288 26.4408 0.2
      vertex 89.6288 26.4408 0
    endloop
  endfacet
  facet normal 0.903988 0.427557 0
    outer loop
      vertex 88.5807 30.6254 0.2
      vertex 87.964 31.9293 0
      vertex 87.964 31.9293 0.2
    endloop
  endfacet
  facet normal 0.903988 0.427557 0
    outer loop
      vertex 87.964 31.9293 0
      vertex 88.5807 30.6254 0.2
      vertex 88.5807 30.6254 0
    endloop
  endfacet
  facet normal 0.803212 0.595693 0
    outer loop
      vertex 87.2223 33.1667 0.2
      vertex 86.3629 34.3254 0
      vertex 86.3629 34.3254 0.2
    endloop
  endfacet
  facet normal 0.803212 0.595693 0
    outer loop
      vertex 86.3629 34.3254 0
      vertex 87.2223 33.1667 0.2
      vertex 87.2223 33.1667 0
    endloop
  endfacet
  facet normal 0.803212 -0.595693 0
    outer loop
      vertex 86.3629 -34.3254 0.2
      vertex 87.2223 -33.1667 0
      vertex 87.2223 -33.1667 0.2
    endloop
  endfacet
  facet normal 0.803212 -0.595693 0
    outer loop
      vertex 87.2223 -33.1667 0
      vertex 86.3629 -34.3254 0.2
      vertex 86.3629 -34.3254 0
    endloop
  endfacet
  facet normal 0.903988 -0.427557 0
    outer loop
      vertex 87.964 -31.9293 0.2
      vertex 88.5807 -30.6254 0
      vertex 88.5807 -30.6254 0.2
    endloop
  endfacet
  facet normal 0.903988 -0.427557 0
    outer loop
      vertex 88.5807 -30.6254 0
      vertex 87.964 -31.9293 0.2
      vertex 87.964 -31.9293 0
    endloop
  endfacet
  facet normal 0.970032 -0.242979 0
    outer loop
      vertex 89.0667 -29.2671 0.2
      vertex 89.4172 -27.8677 0
      vertex 89.4172 -27.8677 0.2
    endloop
  endfacet
  facet normal 0.970032 -0.242979 0
    outer loop
      vertex 89.4172 -27.8677 0
      vertex 89.0667 -29.2671 0.2
      vertex 89.0667 -29.2671 0
    endloop
  endfacet
  facet normal 0.595693 -0.803212 0
    outer loop
      vertex 83.1667 -37.2223 0
      vertex 84.3254 -36.3629 0.2
      vertex 83.1667 -37.2223 0.2
    endloop
  endfacet
  facet normal 0.595693 -0.803212 0
    outer loop
      vertex 84.3254 -36.3629 0.2
      vertex 83.1667 -37.2223 0
      vertex 84.3254 -36.3629 0
    endloop
  endfacet
  facet normal 0.740956 -0.671554 0
    outer loop
      vertex 85.3942 -35.3942 0.2
      vertex 86.3629 -34.3254 0
      vertex 86.3629 -34.3254 0.2
    endloop
  endfacet
  facet normal 0.740956 -0.671554 0
    outer loop
      vertex 86.3629 -34.3254 0
      vertex 85.3942 -35.3942 0.2
      vertex 85.3942 -35.3942 0
    endloop
  endfacet
  facet normal 0.51411 -0.857724 0
    outer loop
      vertex 81.9293 -37.964 0
      vertex 83.1667 -37.2223 0.2
      vertex 81.9293 -37.964 0.2
    endloop
  endfacet
  facet normal 0.51411 -0.857724 0
    outer loop
      vertex 83.1667 -37.2223 0.2
      vertex 81.9293 -37.964 0
      vertex 83.1667 -37.2223 0
    endloop
  endfacet
  facet normal 0.336892 -0.941543 0
    outer loop
      vertex 79.2671 -39.0667 0
      vertex 80.6254 -38.5807 0.2
      vertex 79.2671 -39.0667 0.2
    endloop
  endfacet
  facet normal 0.336892 -0.941543 0
    outer loop
      vertex 80.6254 -38.5807 0.2
      vertex 79.2671 -39.0667 0
      vertex 80.6254 -38.5807 0
    endloop
  endfacet
  facet normal 0.857724 -0.51411 0
    outer loop
      vertex 87.2223 -33.1667 0.2
      vertex 87.964 -31.9293 0
      vertex 87.964 -31.9293 0.2
    endloop
  endfacet
  facet normal 0.857724 -0.51411 0
    outer loop
      vertex 87.964 -31.9293 0
      vertex 87.2223 -33.1667 0.2
      vertex 87.2223 -33.1667 0
    endloop
  endfacet
  facet normal 0.989177 -0.146725 0
    outer loop
      vertex 89.4172 -27.8677 0.2
      vertex 89.6288 -26.4408 0
      vertex 89.6288 -26.4408 0.2
    endloop
  endfacet
  facet normal 0.989177 -0.146725 0
    outer loop
      vertex 89.6288 -26.4408 0
      vertex 89.4172 -27.8677 0.2
      vertex 89.4172 -27.8677 0
    endloop
  endfacet
  facet normal 0.671554 -0.740956 0
    outer loop
      vertex 84.3254 -36.3629 0
      vertex 85.3942 -35.3942 0.2
      vertex 84.3254 -36.3629 0.2
    endloop
  endfacet
  facet normal 0.671554 -0.740956 0
    outer loop
      vertex 85.3942 -35.3942 0.2
      vertex 84.3254 -36.3629 0
      vertex 85.3942 -35.3942 0
    endloop
  endfacet
  facet normal 0.427557 -0.903988 0
    outer loop
      vertex 80.6254 -38.5807 0
      vertex 81.9293 -37.964 0.2
      vertex 80.6254 -38.5807 0.2
    endloop
  endfacet
  facet normal 0.427557 -0.903988 0
    outer loop
      vertex 81.9293 -37.964 0.2
      vertex 80.6254 -38.5807 0
      vertex 81.9293 -37.964 0
    endloop
  endfacet
endsolid OpenSCAD_Model
