solid OpenSCAD_Model
  facet normal -1 0 0
    outer loop
      vertex 17.5 24 -7.5
      vertex 17.5 17.5 -7.5
      vertex 17.5 24 1
    endloop
  endfacet
  facet normal -1 0 0
    outer loop
      vertex 17.5 26 1
      vertex 17.5 32.5 -7.5
      vertex 17.5 26 -7.5
    endloop
  endfacet
  facet normal -1 0 0
    outer loop
      vertex 17.5 32.5 -7.5
      vertex 17.5 26 1
      vertex 17.5 32.5 7.5
    endloop
  endfacet
  facet normal -1 0 0
    outer loop
      vertex 17.5 24 1
      vertex 17.5 32.5 7.5
      vertex 17.5 26 1
    endloop
  endfacet
  facet normal -1 0 0
    outer loop
      vertex 17.5 24 1
      vertex 17.5 17.5 7.5
      vertex 17.5 32.5 7.5
    endloop
  endfacet
  facet normal -1 0 0
    outer loop
      vertex 17.5 17.5 7.5
      vertex 17.5 24 1
      vertex 17.5 17.5 -7.5
    endloop
  endfacet
  facet normal -0 0 1
    outer loop
      vertex 17.5 32.5 7.5
      vertex 24 17.5 7.5
      vertex 24 32.5 7.5
    endloop
  endfacet
  facet normal 0 0 1
    outer loop
      vertex 24 17.5 7.5
      vertex 17.5 32.5 7.5
      vertex 17.5 17.5 7.5
    endloop
  endfacet
  facet normal -0 0 1
    outer loop
      vertex 26 32.5 7.5
      vertex 32.5 17.5 7.5
      vertex 32.5 32.5 7.5
    endloop
  endfacet
  facet normal 0 0 1
    outer loop
      vertex 32.5 17.5 7.5
      vertex 26 32.5 7.5
      vertex 26 17.5 7.5
    endloop
  endfacet
  facet normal 1 0 0
    outer loop
      vertex 32.5 32.5 7.5
      vertex 32.5 26 1
      vertex 32.5 32.5 -7.5
    endloop
  endfacet
  facet normal 1 0 0
    outer loop
      vertex 32.5 32.5 7.5
      vertex 32.5 24 1
      vertex 32.5 26 1
    endloop
  endfacet
  facet normal 1 -0 0
    outer loop
      vertex 32.5 17.5 7.5
      vertex 32.5 24 1
      vertex 32.5 32.5 7.5
    endloop
  endfacet
  facet normal 1 0 0
    outer loop
      vertex 32.5 17.5 -7.5
      vertex 32.5 24 1
      vertex 32.5 17.5 7.5
    endloop
  endfacet
  facet normal 1 0 0
    outer loop
      vertex 32.5 24 1
      vertex 32.5 17.5 -7.5
      vertex 32.5 24 -7.5
    endloop
  endfacet
  facet normal 1 0 0
    outer loop
      vertex 32.5 32.5 -7.5
      vertex 32.5 26 1
      vertex 32.5 26 -7.5
    endloop
  endfacet
  facet normal 0 1 0
    outer loop
      vertex 32.5 32.5 7.5
      vertex 26 32.5 -1
      vertex 26 32.5 7.5
    endloop
  endfacet
  facet normal 0 1 0
    outer loop
      vertex 26 32.5 -1
      vertex 32.5 32.5 -7.5
      vertex 24 32.5 -1
    endloop
  endfacet
  facet normal 0 1 -0
    outer loop
      vertex 32.5 32.5 -7.5
      vertex 26 32.5 -1
      vertex 32.5 32.5 7.5
    endloop
  endfacet
  facet normal 0 1 -0
    outer loop
      vertex 24 32.5 -1
      vertex 17.5 32.5 7.5
      vertex 24 32.5 7.5
    endloop
  endfacet
  facet normal 0 1 0
    outer loop
      vertex 24 32.5 -1
      vertex 17.5 32.5 -7.5
      vertex 17.5 32.5 7.5
    endloop
  endfacet
  facet normal 0 1 0
    outer loop
      vertex 17.5 32.5 -7.5
      vertex 24 32.5 -1
      vertex 32.5 32.5 -7.5
    endloop
  endfacet
  facet normal 0 0 -1
    outer loop
      vertex 17.5 26 -7.5
      vertex 32.5 32.5 -7.5
      vertex 32.5 26 -7.5
    endloop
  endfacet
  facet normal -0 0 -1
    outer loop
      vertex 32.5 32.5 -7.5
      vertex 17.5 26 -7.5
      vertex 17.5 32.5 -7.5
    endloop
  endfacet
  facet normal 0 0 -1
    outer loop
      vertex 17.5 17.5 -7.5
      vertex 32.5 24 -7.5
      vertex 32.5 17.5 -7.5
    endloop
  endfacet
  facet normal -0 0 -1
    outer loop
      vertex 32.5 24 -7.5
      vertex 17.5 17.5 -7.5
      vertex 17.5 24 -7.5
    endloop
  endfacet
  facet normal 0 -1 0
    outer loop
      vertex 17.5 17.5 7.5
      vertex 24 17.5 -1
      vertex 24 17.5 7.5
    endloop
  endfacet
  facet normal 0 -1 -0
    outer loop
      vertex 24 17.5 -1
      vertex 17.5 17.5 -7.5
      vertex 26 17.5 -1
    endloop
  endfacet
  facet normal 0 -1 0
    outer loop
      vertex 17.5 17.5 -7.5
      vertex 24 17.5 -1
      vertex 17.5 17.5 7.5
    endloop
  endfacet
  facet normal 0 -1 0
    outer loop
      vertex 26 17.5 -1
      vertex 32.5 17.5 7.5
      vertex 26 17.5 7.5
    endloop
  endfacet
  facet normal 0 -1 0
    outer loop
      vertex 26 17.5 -1
      vertex 32.5 17.5 -7.5
      vertex 32.5 17.5 7.5
    endloop
  endfacet
  facet normal 0 -1 0
    outer loop
      vertex 32.5 17.5 -7.5
      vertex 26 17.5 -1
      vertex 17.5 17.5 -7.5
    endloop
  endfacet
  facet normal 1 0 0
    outer loop
      vertex 24 32.5 7.5
      vertex 24 26 1
      vertex 24 32.5 -1
    endloop
  endfacet
  facet normal 1 0 0
    outer loop
      vertex 24 32.5 7.5
      vertex 24 24 1
      vertex 24 26 1
    endloop
  endfacet
  facet normal 1 -0 0
    outer loop
      vertex 24 17.5 7.5
      vertex 24 24 1
      vertex 24 32.5 7.5
    endloop
  endfacet
  facet normal 1 0 0
    outer loop
      vertex 24 17.5 -1
      vertex 24 24 1
      vertex 24 17.5 7.5
    endloop
  endfacet
  facet normal 1 0 0
    outer loop
      vertex 24 24 1
      vertex 24 17.5 -1
      vertex 24 24 -1
    endloop
  endfacet
  facet normal 1 0 0
    outer loop
      vertex 24 32.5 -1
      vertex 24 26 1
      vertex 24 26 -1
    endloop
  endfacet
  facet normal -1 0 0
    outer loop
      vertex 26 24 -1
      vertex 26 17.5 -1
      vertex 26 24 1
    endloop
  endfacet
  facet normal -1 0 0
    outer loop
      vertex 26 26 1
      vertex 26 32.5 -1
      vertex 26 26 -1
    endloop
  endfacet
  facet normal -1 0 0
    outer loop
      vertex 26 32.5 -1
      vertex 26 26 1
      vertex 26 32.5 7.5
    endloop
  endfacet
  facet normal -1 0 0
    outer loop
      vertex 26 24 1
      vertex 26 32.5 7.5
      vertex 26 26 1
    endloop
  endfacet
  facet normal -1 0 0
    outer loop
      vertex 26 17.5 7.5
      vertex 26 24 1
      vertex 26 17.5 -1
    endloop
  endfacet
  facet normal -1 0 0
    outer loop
      vertex 26 24 1
      vertex 26 17.5 7.5
      vertex 26 32.5 7.5
    endloop
  endfacet
  facet normal -0 0 1
    outer loop
      vertex 24 24 -1
      vertex 26 17.5 -1
      vertex 26 24 -1
    endloop
  endfacet
  facet normal 0 0 1
    outer loop
      vertex 26 17.5 -1
      vertex 24 24 -1
      vertex 24 17.5 -1
    endloop
  endfacet
  facet normal -0 0 1
    outer loop
      vertex 24 32.5 -1
      vertex 26 26 -1
      vertex 26 32.5 -1
    endloop
  endfacet
  facet normal 0 0 1
    outer loop
      vertex 26 26 -1
      vertex 24 32.5 -1
      vertex 24 26 -1
    endloop
  endfacet
  facet normal 0 0 -1
    outer loop
      vertex 17.5 24 1
      vertex 24 26 1
      vertex 24 24 1
    endloop
  endfacet
  facet normal -0 0 -1
    outer loop
      vertex 24 26 1
      vertex 17.5 24 1
      vertex 17.5 26 1
    endloop
  endfacet
  facet normal 0 0 -1
    outer loop
      vertex 26 24 1
      vertex 32.5 26 1
      vertex 32.5 24 1
    endloop
  endfacet
  facet normal -0 0 -1
    outer loop
      vertex 32.5 26 1
      vertex 26 24 1
      vertex 26 26 1
    endloop
  endfacet
  facet normal 0 -1 0
    outer loop
      vertex 17.5 26 1
      vertex 24 26 -1
      vertex 24 26 1
    endloop
  endfacet
  facet normal 0 -1 -0
    outer loop
      vertex 24 26 -1
      vertex 17.5 26 -7.5
      vertex 26 26 -1
    endloop
  endfacet
  facet normal 0 -1 0
    outer loop
      vertex 17.5 26 -7.5
      vertex 24 26 -1
      vertex 17.5 26 1
    endloop
  endfacet
  facet normal 0 -1 0
    outer loop
      vertex 26 26 -1
      vertex 32.5 26 1
      vertex 26 26 1
    endloop
  endfacet
  facet normal 0 -1 0
    outer loop
      vertex 32.5 26 -7.5
      vertex 26 26 -1
      vertex 17.5 26 -7.5
    endloop
  endfacet
  facet normal 0 -1 0
    outer loop
      vertex 26 26 -1
      vertex 32.5 26 -7.5
      vertex 32.5 26 1
    endloop
  endfacet
  facet normal 0 1 0
    outer loop
      vertex 32.5 24 1
      vertex 26 24 -1
      vertex 26 24 1
    endloop
  endfacet
  facet normal 0 1 0
    outer loop
      vertex 26 24 -1
      vertex 32.5 24 -7.5
      vertex 24 24 -1
    endloop
  endfacet
  facet normal 0 1 -0
    outer loop
      vertex 32.5 24 -7.5
      vertex 26 24 -1
      vertex 32.5 24 1
    endloop
  endfacet
  facet normal 0 1 -0
    outer loop
      vertex 24 24 -1
      vertex 17.5 24 1
      vertex 24 24 1
    endloop
  endfacet
  facet normal 0 1 0
    outer loop
      vertex 17.5 24 -7.5
      vertex 24 24 -1
      vertex 32.5 24 -7.5
    endloop
  endfacet
  facet normal 0 1 0
    outer loop
      vertex 24 24 -1
      vertex 17.5 24 -7.5
      vertex 17.5 24 1
    endloop
  endfacet
  facet normal -1 0 0
    outer loop
      vertex 17.5 49 -7.5
      vertex 17.5 42.5 -7.5
      vertex 17.5 49 1
    endloop
  endfacet
  facet normal -1 0 0
    outer loop
      vertex 17.5 51 1
      vertex 17.5 57.5 -7.5
      vertex 17.5 51 -7.5
    endloop
  endfacet
  facet normal -1 0 0
    outer loop
      vertex 17.5 57.5 -7.5
      vertex 17.5 51 1
      vertex 17.5 57.5 7.5
    endloop
  endfacet
  facet normal -1 0 0
    outer loop
      vertex 17.5 49 1
      vertex 17.5 57.5 7.5
      vertex 17.5 51 1
    endloop
  endfacet
  facet normal -1 0 0
    outer loop
      vertex 17.5 49 1
      vertex 17.5 42.5 7.5
      vertex 17.5 57.5 7.5
    endloop
  endfacet
  facet normal -1 0 0
    outer loop
      vertex 17.5 42.5 7.5
      vertex 17.5 49 1
      vertex 17.5 42.5 -7.5
    endloop
  endfacet
  facet normal -0 0 1
    outer loop
      vertex 17.5 57.5 7.5
      vertex 24 42.5 7.5
      vertex 24 57.5 7.5
    endloop
  endfacet
  facet normal 0 0 1
    outer loop
      vertex 24 42.5 7.5
      vertex 17.5 57.5 7.5
      vertex 17.5 42.5 7.5
    endloop
  endfacet
  facet normal -0 0 1
    outer loop
      vertex 26 57.5 7.5
      vertex 32.5 42.5 7.5
      vertex 32.5 57.5 7.5
    endloop
  endfacet
  facet normal 0 0 1
    outer loop
      vertex 32.5 42.5 7.5
      vertex 26 57.5 7.5
      vertex 26 42.5 7.5
    endloop
  endfacet
  facet normal 1 0 0
    outer loop
      vertex 32.5 57.5 7.5
      vertex 32.5 51 1
      vertex 32.5 57.5 -7.5
    endloop
  endfacet
  facet normal 1 0 0
    outer loop
      vertex 32.5 57.5 7.5
      vertex 32.5 49 1
      vertex 32.5 51 1
    endloop
  endfacet
  facet normal 1 -0 0
    outer loop
      vertex 32.5 42.5 7.5
      vertex 32.5 49 1
      vertex 32.5 57.5 7.5
    endloop
  endfacet
  facet normal 1 0 0
    outer loop
      vertex 32.5 42.5 -7.5
      vertex 32.5 49 1
      vertex 32.5 42.5 7.5
    endloop
  endfacet
  facet normal 1 0 0
    outer loop
      vertex 32.5 49 1
      vertex 32.5 42.5 -7.5
      vertex 32.5 49 -7.5
    endloop
  endfacet
  facet normal 1 0 0
    outer loop
      vertex 32.5 57.5 -7.5
      vertex 32.5 51 1
      vertex 32.5 51 -7.5
    endloop
  endfacet
  facet normal 0 1 0
    outer loop
      vertex 32.5 57.5 7.5
      vertex 26 57.5 -1
      vertex 26 57.5 7.5
    endloop
  endfacet
  facet normal 0 1 0
    outer loop
      vertex 26 57.5 -1
      vertex 32.5 57.5 -7.5
      vertex 24 57.5 -1
    endloop
  endfacet
  facet normal 0 1 -0
    outer loop
      vertex 32.5 57.5 -7.5
      vertex 26 57.5 -1
      vertex 32.5 57.5 7.5
    endloop
  endfacet
  facet normal 0 1 -0
    outer loop
      vertex 24 57.5 -1
      vertex 17.5 57.5 7.5
      vertex 24 57.5 7.5
    endloop
  endfacet
  facet normal 0 1 0
    outer loop
      vertex 24 57.5 -1
      vertex 17.5 57.5 -7.5
      vertex 17.5 57.5 7.5
    endloop
  endfacet
  facet normal 0 1 0
    outer loop
      vertex 17.5 57.5 -7.5
      vertex 24 57.5 -1
      vertex 32.5 57.5 -7.5
    endloop
  endfacet
  facet normal 0 0 -1
    outer loop
      vertex 17.5 51 -7.5
      vertex 32.5 57.5 -7.5
      vertex 32.5 51 -7.5
    endloop
  endfacet
  facet normal -0 0 -1
    outer loop
      vertex 32.5 57.5 -7.5
      vertex 17.5 51 -7.5
      vertex 17.5 57.5 -7.5
    endloop
  endfacet
  facet normal 0 0 -1
    outer loop
      vertex 17.5 42.5 -7.5
      vertex 32.5 49 -7.5
      vertex 32.5 42.5 -7.5
    endloop
  endfacet
  facet normal -0 0 -1
    outer loop
      vertex 32.5 49 -7.5
      vertex 17.5 42.5 -7.5
      vertex 17.5 49 -7.5
    endloop
  endfacet
  facet normal 0 -1 0
    outer loop
      vertex 17.5 42.5 7.5
      vertex 24 42.5 -1
      vertex 24 42.5 7.5
    endloop
  endfacet
  facet normal 0 -1 -0
    outer loop
      vertex 24 42.5 -1
      vertex 17.5 42.5 -7.5
      vertex 26 42.5 -1
    endloop
  endfacet
  facet normal 0 -1 0
    outer loop
      vertex 17.5 42.5 -7.5
      vertex 24 42.5 -1
      vertex 17.5 42.5 7.5
    endloop
  endfacet
  facet normal 0 -1 0
    outer loop
      vertex 26 42.5 -1
      vertex 32.5 42.5 7.5
      vertex 26 42.5 7.5
    endloop
  endfacet
  facet normal 0 -1 0
    outer loop
      vertex 26 42.5 -1
      vertex 32.5 42.5 -7.5
      vertex 32.5 42.5 7.5
    endloop
  endfacet
  facet normal 0 -1 0
    outer loop
      vertex 32.5 42.5 -7.5
      vertex 26 42.5 -1
      vertex 17.5 42.5 -7.5
    endloop
  endfacet
  facet normal 1 0 0
    outer loop
      vertex 24 57.5 7.5
      vertex 24 51 1
      vertex 24 57.5 -1
    endloop
  endfacet
  facet normal 1 0 0
    outer loop
      vertex 24 57.5 7.5
      vertex 24 49 1
      vertex 24 51 1
    endloop
  endfacet
  facet normal 1 -0 0
    outer loop
      vertex 24 42.5 7.5
      vertex 24 49 1
      vertex 24 57.5 7.5
    endloop
  endfacet
  facet normal 1 0 0
    outer loop
      vertex 24 42.5 -1
      vertex 24 49 1
      vertex 24 42.5 7.5
    endloop
  endfacet
  facet normal 1 0 0
    outer loop
      vertex 24 49 1
      vertex 24 42.5 -1
      vertex 24 49 -1
    endloop
  endfacet
  facet normal 1 0 0
    outer loop
      vertex 24 57.5 -1
      vertex 24 51 1
      vertex 24 51 -1
    endloop
  endfacet
  facet normal -1 0 0
    outer loop
      vertex 26 49 -1
      vertex 26 42.5 -1
      vertex 26 49 1
    endloop
  endfacet
  facet normal -1 0 0
    outer loop
      vertex 26 51 1
      vertex 26 57.5 -1
      vertex 26 51 -1
    endloop
  endfacet
  facet normal -1 0 0
    outer loop
      vertex 26 57.5 -1
      vertex 26 51 1
      vertex 26 57.5 7.5
    endloop
  endfacet
  facet normal -1 0 0
    outer loop
      vertex 26 49 1
      vertex 26 57.5 7.5
      vertex 26 51 1
    endloop
  endfacet
  facet normal -1 0 0
    outer loop
      vertex 26 42.5 7.5
      vertex 26 49 1
      vertex 26 42.5 -1
    endloop
  endfacet
  facet normal -1 0 0
    outer loop
      vertex 26 49 1
      vertex 26 42.5 7.5
      vertex 26 57.5 7.5
    endloop
  endfacet
  facet normal -0 0 1
    outer loop
      vertex 24 49 -1
      vertex 26 42.5 -1
      vertex 26 49 -1
    endloop
  endfacet
  facet normal 0 0 1
    outer loop
      vertex 26 42.5 -1
      vertex 24 49 -1
      vertex 24 42.5 -1
    endloop
  endfacet
  facet normal -0 0 1
    outer loop
      vertex 24 57.5 -1
      vertex 26 51 -1
      vertex 26 57.5 -1
    endloop
  endfacet
  facet normal 0 0 1
    outer loop
      vertex 26 51 -1
      vertex 24 57.5 -1
      vertex 24 51 -1
    endloop
  endfacet
  facet normal 0 0 -1
    outer loop
      vertex 17.5 49 1
      vertex 24 51 1
      vertex 24 49 1
    endloop
  endfacet
  facet normal -0 0 -1
    outer loop
      vertex 24 51 1
      vertex 17.5 49 1
      vertex 17.5 51 1
    endloop
  endfacet
  facet normal 0 0 -1
    outer loop
      vertex 26 49 1
      vertex 32.5 51 1
      vertex 32.5 49 1
    endloop
  endfacet
  facet normal -0 0 -1
    outer loop
      vertex 32.5 51 1
      vertex 26 49 1
      vertex 26 51 1
    endloop
  endfacet
  facet normal 0 -1 0
    outer loop
      vertex 17.5 51 1
      vertex 24 51 -1
      vertex 24 51 1
    endloop
  endfacet
  facet normal 0 -1 -0
    outer loop
      vertex 24 51 -1
      vertex 17.5 51 -7.5
      vertex 26 51 -1
    endloop
  endfacet
  facet normal 0 -1 0
    outer loop
      vertex 17.5 51 -7.5
      vertex 24 51 -1
      vertex 17.5 51 1
    endloop
  endfacet
  facet normal 0 -1 0
    outer loop
      vertex 26 51 -1
      vertex 32.5 51 1
      vertex 26 51 1
    endloop
  endfacet
  facet normal 0 -1 0
    outer loop
      vertex 32.5 51 -7.5
      vertex 26 51 -1
      vertex 17.5 51 -7.5
    endloop
  endfacet
  facet normal 0 -1 0
    outer loop
      vertex 26 51 -1
      vertex 32.5 51 -7.5
      vertex 32.5 51 1
    endloop
  endfacet
  facet normal 0 1 0
    outer loop
      vertex 32.5 49 1
      vertex 26 49 -1
      vertex 26 49 1
    endloop
  endfacet
  facet normal 0 1 0
    outer loop
      vertex 26 49 -1
      vertex 32.5 49 -7.5
      vertex 24 49 -1
    endloop
  endfacet
  facet normal 0 1 -0
    outer loop
      vertex 32.5 49 -7.5
      vertex 26 49 -1
      vertex 32.5 49 1
    endloop
  endfacet
  facet normal 0 1 -0
    outer loop
      vertex 24 49 -1
      vertex 17.5 49 1
      vertex 24 49 1
    endloop
  endfacet
  facet normal 0 1 0
    outer loop
      vertex 17.5 49 -7.5
      vertex 24 49 -1
      vertex 32.5 49 -7.5
    endloop
  endfacet
  facet normal 0 1 0
    outer loop
      vertex 24 49 -1
      vertex 17.5 49 -7.5
      vertex 17.5 49 1
    endloop
  endfacet
  facet normal -1 0 0
    outer loop
      vertex 42.5 24 -7.5
      vertex 42.5 17.5 -7.5
      vertex 42.5 24 1
    endloop
  endfacet
  facet normal -1 0 0
    outer loop
      vertex 42.5 26 1
      vertex 42.5 32.5 -7.5
      vertex 42.5 26 -7.5
    endloop
  endfacet
  facet normal -1 0 0
    outer loop
      vertex 42.5 32.5 -7.5
      vertex 42.5 26 1
      vertex 42.5 32.5 7.5
    endloop
  endfacet
  facet normal -1 0 0
    outer loop
      vertex 42.5 24 1
      vertex 42.5 32.5 7.5
      vertex 42.5 26 1
    endloop
  endfacet
  facet normal -1 0 0
    outer loop
      vertex 42.5 24 1
      vertex 42.5 17.5 7.5
      vertex 42.5 32.5 7.5
    endloop
  endfacet
  facet normal -1 0 0
    outer loop
      vertex 42.5 17.5 7.5
      vertex 42.5 24 1
      vertex 42.5 17.5 -7.5
    endloop
  endfacet
  facet normal -0 0 1
    outer loop
      vertex 42.5 32.5 7.5
      vertex 49 17.5 7.5
      vertex 49 32.5 7.5
    endloop
  endfacet
  facet normal 0 0 1
    outer loop
      vertex 49 17.5 7.5
      vertex 42.5 32.5 7.5
      vertex 42.5 17.5 7.5
    endloop
  endfacet
  facet normal -0 0 1
    outer loop
      vertex 51 32.5 7.5
      vertex 57.5 17.5 7.5
      vertex 57.5 32.5 7.5
    endloop
  endfacet
  facet normal 0 0 1
    outer loop
      vertex 57.5 17.5 7.5
      vertex 51 32.5 7.5
      vertex 51 17.5 7.5
    endloop
  endfacet
  facet normal 1 0 0
    outer loop
      vertex 57.5 32.5 7.5
      vertex 57.5 26 1
      vertex 57.5 32.5 -7.5
    endloop
  endfacet
  facet normal 1 0 0
    outer loop
      vertex 57.5 32.5 7.5
      vertex 57.5 24 1
      vertex 57.5 26 1
    endloop
  endfacet
  facet normal 1 -0 0
    outer loop
      vertex 57.5 17.5 7.5
      vertex 57.5 24 1
      vertex 57.5 32.5 7.5
    endloop
  endfacet
  facet normal 1 0 0
    outer loop
      vertex 57.5 17.5 -7.5
      vertex 57.5 24 1
      vertex 57.5 17.5 7.5
    endloop
  endfacet
  facet normal 1 0 0
    outer loop
      vertex 57.5 24 1
      vertex 57.5 17.5 -7.5
      vertex 57.5 24 -7.5
    endloop
  endfacet
  facet normal 1 0 0
    outer loop
      vertex 57.5 32.5 -7.5
      vertex 57.5 26 1
      vertex 57.5 26 -7.5
    endloop
  endfacet
  facet normal 0 1 0
    outer loop
      vertex 57.5 32.5 7.5
      vertex 51 32.5 -1
      vertex 51 32.5 7.5
    endloop
  endfacet
  facet normal 0 1 0
    outer loop
      vertex 51 32.5 -1
      vertex 57.5 32.5 -7.5
      vertex 49 32.5 -1
    endloop
  endfacet
  facet normal 0 1 -0
    outer loop
      vertex 57.5 32.5 -7.5
      vertex 51 32.5 -1
      vertex 57.5 32.5 7.5
    endloop
  endfacet
  facet normal 0 1 -0
    outer loop
      vertex 49 32.5 -1
      vertex 42.5 32.5 7.5
      vertex 49 32.5 7.5
    endloop
  endfacet
  facet normal 0 1 0
    outer loop
      vertex 49 32.5 -1
      vertex 42.5 32.5 -7.5
      vertex 42.5 32.5 7.5
    endloop
  endfacet
  facet normal 0 1 0
    outer loop
      vertex 42.5 32.5 -7.5
      vertex 49 32.5 -1
      vertex 57.5 32.5 -7.5
    endloop
  endfacet
  facet normal 0 0 -1
    outer loop
      vertex 42.5 26 -7.5
      vertex 57.5 32.5 -7.5
      vertex 57.5 26 -7.5
    endloop
  endfacet
  facet normal -0 0 -1
    outer loop
      vertex 57.5 32.5 -7.5
      vertex 42.5 26 -7.5
      vertex 42.5 32.5 -7.5
    endloop
  endfacet
  facet normal 0 0 -1
    outer loop
      vertex 42.5 17.5 -7.5
      vertex 57.5 24 -7.5
      vertex 57.5 17.5 -7.5
    endloop
  endfacet
  facet normal -0 0 -1
    outer loop
      vertex 57.5 24 -7.5
      vertex 42.5 17.5 -7.5
      vertex 42.5 24 -7.5
    endloop
  endfacet
  facet normal 0 -1 0
    outer loop
      vertex 42.5 17.5 7.5
      vertex 49 17.5 -1
      vertex 49 17.5 7.5
    endloop
  endfacet
  facet normal 0 -1 -0
    outer loop
      vertex 49 17.5 -1
      vertex 42.5 17.5 -7.5
      vertex 51 17.5 -1
    endloop
  endfacet
  facet normal 0 -1 0
    outer loop
      vertex 42.5 17.5 -7.5
      vertex 49 17.5 -1
      vertex 42.5 17.5 7.5
    endloop
  endfacet
  facet normal 0 -1 0
    outer loop
      vertex 51 17.5 -1
      vertex 57.5 17.5 7.5
      vertex 51 17.5 7.5
    endloop
  endfacet
  facet normal 0 -1 0
    outer loop
      vertex 51 17.5 -1
      vertex 57.5 17.5 -7.5
      vertex 57.5 17.5 7.5
    endloop
  endfacet
  facet normal 0 -1 0
    outer loop
      vertex 57.5 17.5 -7.5
      vertex 51 17.5 -1
      vertex 42.5 17.5 -7.5
    endloop
  endfacet
  facet normal 1 0 0
    outer loop
      vertex 49 32.5 7.5
      vertex 49 26 1
      vertex 49 32.5 -1
    endloop
  endfacet
  facet normal 1 0 0
    outer loop
      vertex 49 32.5 7.5
      vertex 49 24 1
      vertex 49 26 1
    endloop
  endfacet
  facet normal 1 -0 0
    outer loop
      vertex 49 17.5 7.5
      vertex 49 24 1
      vertex 49 32.5 7.5
    endloop
  endfacet
  facet normal 1 0 0
    outer loop
      vertex 49 17.5 -1
      vertex 49 24 1
      vertex 49 17.5 7.5
    endloop
  endfacet
  facet normal 1 0 0
    outer loop
      vertex 49 24 1
      vertex 49 17.5 -1
      vertex 49 24 -1
    endloop
  endfacet
  facet normal 1 0 0
    outer loop
      vertex 49 32.5 -1
      vertex 49 26 1
      vertex 49 26 -1
    endloop
  endfacet
  facet normal -1 0 0
    outer loop
      vertex 51 24 -1
      vertex 51 17.5 -1
      vertex 51 24 1
    endloop
  endfacet
  facet normal -1 0 0
    outer loop
      vertex 51 26 1
      vertex 51 32.5 -1
      vertex 51 26 -1
    endloop
  endfacet
  facet normal -1 0 0
    outer loop
      vertex 51 32.5 -1
      vertex 51 26 1
      vertex 51 32.5 7.5
    endloop
  endfacet
  facet normal -1 0 0
    outer loop
      vertex 51 24 1
      vertex 51 32.5 7.5
      vertex 51 26 1
    endloop
  endfacet
  facet normal -1 0 0
    outer loop
      vertex 51 17.5 7.5
      vertex 51 24 1
      vertex 51 17.5 -1
    endloop
  endfacet
  facet normal -1 0 0
    outer loop
      vertex 51 24 1
      vertex 51 17.5 7.5
      vertex 51 32.5 7.5
    endloop
  endfacet
  facet normal -0 0 1
    outer loop
      vertex 49 24 -1
      vertex 51 17.5 -1
      vertex 51 24 -1
    endloop
  endfacet
  facet normal 0 0 1
    outer loop
      vertex 51 17.5 -1
      vertex 49 24 -1
      vertex 49 17.5 -1
    endloop
  endfacet
  facet normal -0 0 1
    outer loop
      vertex 49 32.5 -1
      vertex 51 26 -1
      vertex 51 32.5 -1
    endloop
  endfacet
  facet normal 0 0 1
    outer loop
      vertex 51 26 -1
      vertex 49 32.5 -1
      vertex 49 26 -1
    endloop
  endfacet
  facet normal 0 0 -1
    outer loop
      vertex 42.5 24 1
      vertex 49 26 1
      vertex 49 24 1
    endloop
  endfacet
  facet normal -0 0 -1
    outer loop
      vertex 49 26 1
      vertex 42.5 24 1
      vertex 42.5 26 1
    endloop
  endfacet
  facet normal 0 0 -1
    outer loop
      vertex 51 24 1
      vertex 57.5 26 1
      vertex 57.5 24 1
    endloop
  endfacet
  facet normal -0 0 -1
    outer loop
      vertex 57.5 26 1
      vertex 51 24 1
      vertex 51 26 1
    endloop
  endfacet
  facet normal 0 -1 0
    outer loop
      vertex 42.5 26 1
      vertex 49 26 -1
      vertex 49 26 1
    endloop
  endfacet
  facet normal 0 -1 -0
    outer loop
      vertex 49 26 -1
      vertex 42.5 26 -7.5
      vertex 51 26 -1
    endloop
  endfacet
  facet normal 0 -1 0
    outer loop
      vertex 42.5 26 -7.5
      vertex 49 26 -1
      vertex 42.5 26 1
    endloop
  endfacet
  facet normal 0 -1 0
    outer loop
      vertex 51 26 -1
      vertex 57.5 26 1
      vertex 51 26 1
    endloop
  endfacet
  facet normal 0 -1 0
    outer loop
      vertex 57.5 26 -7.5
      vertex 51 26 -1
      vertex 42.5 26 -7.5
    endloop
  endfacet
  facet normal 0 -1 0
    outer loop
      vertex 51 26 -1
      vertex 57.5 26 -7.5
      vertex 57.5 26 1
    endloop
  endfacet
  facet normal 0 1 0
    outer loop
      vertex 57.5 24 1
      vertex 51 24 -1
      vertex 51 24 1
    endloop
  endfacet
  facet normal 0 1 0
    outer loop
      vertex 51 24 -1
      vertex 57.5 24 -7.5
      vertex 49 24 -1
    endloop
  endfacet
  facet normal 0 1 -0
    outer loop
      vertex 57.5 24 -7.5
      vertex 51 24 -1
      vertex 57.5 24 1
    endloop
  endfacet
  facet normal 0 1 -0
    outer loop
      vertex 49 24 -1
      vertex 42.5 24 1
      vertex 49 24 1
    endloop
  endfacet
  facet normal 0 1 0
    outer loop
      vertex 42.5 24 -7.5
      vertex 49 24 -1
      vertex 57.5 24 -7.5
    endloop
  endfacet
  facet normal 0 1 0
    outer loop
      vertex 49 24 -1
      vertex 42.5 24 -7.5
      vertex 42.5 24 1
    endloop
  endfacet
  facet normal -1 0 0
    outer loop
      vertex 42.5 49 -7.5
      vertex 42.5 42.5 -7.5
      vertex 42.5 49 1
    endloop
  endfacet
  facet normal -1 0 0
    outer loop
      vertex 42.5 51 1
      vertex 42.5 57.5 -7.5
      vertex 42.5 51 -7.5
    endloop
  endfacet
  facet normal -1 0 0
    outer loop
      vertex 42.5 57.5 -7.5
      vertex 42.5 51 1
      vertex 42.5 57.5 7.5
    endloop
  endfacet
  facet normal -1 0 0
    outer loop
      vertex 42.5 49 1
      vertex 42.5 57.5 7.5
      vertex 42.5 51 1
    endloop
  endfacet
  facet normal -1 0 0
    outer loop
      vertex 42.5 49 1
      vertex 42.5 42.5 7.5
      vertex 42.5 57.5 7.5
    endloop
  endfacet
  facet normal -1 0 0
    outer loop
      vertex 42.5 42.5 7.5
      vertex 42.5 49 1
      vertex 42.5 42.5 -7.5
    endloop
  endfacet
  facet normal -0 0 1
    outer loop
      vertex 42.5 57.5 7.5
      vertex 49 42.5 7.5
      vertex 49 57.5 7.5
    endloop
  endfacet
  facet normal 0 0 1
    outer loop
      vertex 49 42.5 7.5
      vertex 42.5 57.5 7.5
      vertex 42.5 42.5 7.5
    endloop
  endfacet
  facet normal -0 0 1
    outer loop
      vertex 51 57.5 7.5
      vertex 57.5 42.5 7.5
      vertex 57.5 57.5 7.5
    endloop
  endfacet
  facet normal 0 0 1
    outer loop
      vertex 57.5 42.5 7.5
      vertex 51 57.5 7.5
      vertex 51 42.5 7.5
    endloop
  endfacet
  facet normal 1 0 0
    outer loop
      vertex 57.5 57.5 7.5
      vertex 57.5 51 1
      vertex 57.5 57.5 -7.5
    endloop
  endfacet
  facet normal 1 0 0
    outer loop
      vertex 57.5 57.5 7.5
      vertex 57.5 49 1
      vertex 57.5 51 1
    endloop
  endfacet
  facet normal 1 -0 0
    outer loop
      vertex 57.5 42.5 7.5
      vertex 57.5 49 1
      vertex 57.5 57.5 7.5
    endloop
  endfacet
  facet normal 1 0 0
    outer loop
      vertex 57.5 42.5 -7.5
      vertex 57.5 49 1
      vertex 57.5 42.5 7.5
    endloop
  endfacet
  facet normal 1 0 0
    outer loop
      vertex 57.5 49 1
      vertex 57.5 42.5 -7.5
      vertex 57.5 49 -7.5
    endloop
  endfacet
  facet normal 1 0 0
    outer loop
      vertex 57.5 57.5 -7.5
      vertex 57.5 51 1
      vertex 57.5 51 -7.5
    endloop
  endfacet
  facet normal 0 1 0
    outer loop
      vertex 57.5 57.5 7.5
      vertex 51 57.5 -1
      vertex 51 57.5 7.5
    endloop
  endfacet
  facet normal 0 1 0
    outer loop
      vertex 51 57.5 -1
      vertex 57.5 57.5 -7.5
      vertex 49 57.5 -1
    endloop
  endfacet
  facet normal 0 1 -0
    outer loop
      vertex 57.5 57.5 -7.5
      vertex 51 57.5 -1
      vertex 57.5 57.5 7.5
    endloop
  endfacet
  facet normal 0 1 -0
    outer loop
      vertex 49 57.5 -1
      vertex 42.5 57.5 7.5
      vertex 49 57.5 7.5
    endloop
  endfacet
  facet normal 0 1 0
    outer loop
      vertex 49 57.5 -1
      vertex 42.5 57.5 -7.5
      vertex 42.5 57.5 7.5
    endloop
  endfacet
  facet normal 0 1 0
    outer loop
      vertex 42.5 57.5 -7.5
      vertex 49 57.5 -1
      vertex 57.5 57.5 -7.5
    endloop
  endfacet
  facet normal 0 0 -1
    outer loop
      vertex 42.5 51 -7.5
      vertex 57.5 57.5 -7.5
      vertex 57.5 51 -7.5
    endloop
  endfacet
  facet normal -0 0 -1
    outer loop
      vertex 57.5 57.5 -7.5
      vertex 42.5 51 -7.5
      vertex 42.5 57.5 -7.5
    endloop
  endfacet
  facet normal 0 0 -1
    outer loop
      vertex 42.5 42.5 -7.5
      vertex 57.5 49 -7.5
      vertex 57.5 42.5 -7.5
    endloop
  endfacet
  facet normal -0 0 -1
    outer loop
      vertex 57.5 49 -7.5
      vertex 42.5 42.5 -7.5
      vertex 42.5 49 -7.5
    endloop
  endfacet
  facet normal 0 -1 0
    outer loop
      vertex 42.5 42.5 7.5
      vertex 49 42.5 -1
      vertex 49 42.5 7.5
    endloop
  endfacet
  facet normal 0 -1 -0
    outer loop
      vertex 49 42.5 -1
      vertex 42.5 42.5 -7.5
      vertex 51 42.5 -1
    endloop
  endfacet
  facet normal 0 -1 0
    outer loop
      vertex 42.5 42.5 -7.5
      vertex 49 42.5 -1
      vertex 42.5 42.5 7.5
    endloop
  endfacet
  facet normal 0 -1 0
    outer loop
      vertex 51 42.5 -1
      vertex 57.5 42.5 7.5
      vertex 51 42.5 7.5
    endloop
  endfacet
  facet normal 0 -1 0
    outer loop
      vertex 51 42.5 -1
      vertex 57.5 42.5 -7.5
      vertex 57.5 42.5 7.5
    endloop
  endfacet
  facet normal 0 -1 0
    outer loop
      vertex 57.5 42.5 -7.5
      vertex 51 42.5 -1
      vertex 42.5 42.5 -7.5
    endloop
  endfacet
  facet normal 1 0 0
    outer loop
      vertex 49 57.5 7.5
      vertex 49 51 1
      vertex 49 57.5 -1
    endloop
  endfacet
  facet normal 1 0 0
    outer loop
      vertex 49 57.5 7.5
      vertex 49 49 1
      vertex 49 51 1
    endloop
  endfacet
  facet normal 1 -0 0
    outer loop
      vertex 49 42.5 7.5
      vertex 49 49 1
      vertex 49 57.5 7.5
    endloop
  endfacet
  facet normal 1 0 0
    outer loop
      vertex 49 42.5 -1
      vertex 49 49 1
      vertex 49 42.5 7.5
    endloop
  endfacet
  facet normal 1 0 0
    outer loop
      vertex 49 49 1
      vertex 49 42.5 -1
      vertex 49 49 -1
    endloop
  endfacet
  facet normal 1 0 0
    outer loop
      vertex 49 57.5 -1
      vertex 49 51 1
      vertex 49 51 -1
    endloop
  endfacet
  facet normal -1 0 0
    outer loop
      vertex 51 49 -1
      vertex 51 42.5 -1
      vertex 51 49 1
    endloop
  endfacet
  facet normal -1 0 0
    outer loop
      vertex 51 51 1
      vertex 51 57.5 -1
      vertex 51 51 -1
    endloop
  endfacet
  facet normal -1 0 0
    outer loop
      vertex 51 57.5 -1
      vertex 51 51 1
      vertex 51 57.5 7.5
    endloop
  endfacet
  facet normal -1 0 0
    outer loop
      vertex 51 49 1
      vertex 51 57.5 7.5
      vertex 51 51 1
    endloop
  endfacet
  facet normal -1 0 0
    outer loop
      vertex 51 42.5 7.5
      vertex 51 49 1
      vertex 51 42.5 -1
    endloop
  endfacet
  facet normal -1 0 0
    outer loop
      vertex 51 49 1
      vertex 51 42.5 7.5
      vertex 51 57.5 7.5
    endloop
  endfacet
  facet normal -0 0 1
    outer loop
      vertex 49 49 -1
      vertex 51 42.5 -1
      vertex 51 49 -1
    endloop
  endfacet
  facet normal 0 0 1
    outer loop
      vertex 51 42.5 -1
      vertex 49 49 -1
      vertex 49 42.5 -1
    endloop
  endfacet
  facet normal -0 0 1
    outer loop
      vertex 49 57.5 -1
      vertex 51 51 -1
      vertex 51 57.5 -1
    endloop
  endfacet
  facet normal 0 0 1
    outer loop
      vertex 51 51 -1
      vertex 49 57.5 -1
      vertex 49 51 -1
    endloop
  endfacet
  facet normal 0 0 -1
    outer loop
      vertex 42.5 49 1
      vertex 49 51 1
      vertex 49 49 1
    endloop
  endfacet
  facet normal -0 0 -1
    outer loop
      vertex 49 51 1
      vertex 42.5 49 1
      vertex 42.5 51 1
    endloop
  endfacet
  facet normal 0 0 -1
    outer loop
      vertex 51 49 1
      vertex 57.5 51 1
      vertex 57.5 49 1
    endloop
  endfacet
  facet normal -0 0 -1
    outer loop
      vertex 57.5 51 1
      vertex 51 49 1
      vertex 51 51 1
    endloop
  endfacet
  facet normal 0 -1 0
    outer loop
      vertex 42.5 51 1
      vertex 49 51 -1
      vertex 49 51 1
    endloop
  endfacet
  facet normal 0 -1 -0
    outer loop
      vertex 49 51 -1
      vertex 42.5 51 -7.5
      vertex 51 51 -1
    endloop
  endfacet
  facet normal 0 -1 0
    outer loop
      vertex 42.5 51 -7.5
      vertex 49 51 -1
      vertex 42.5 51 1
    endloop
  endfacet
  facet normal 0 -1 0
    outer loop
      vertex 51 51 -1
      vertex 57.5 51 1
      vertex 51 51 1
    endloop
  endfacet
  facet normal 0 -1 0
    outer loop
      vertex 57.5 51 -7.5
      vertex 51 51 -1
      vertex 42.5 51 -7.5
    endloop
  endfacet
  facet normal 0 -1 0
    outer loop
      vertex 51 51 -1
      vertex 57.5 51 -7.5
      vertex 57.5 51 1
    endloop
  endfacet
  facet normal 0 1 0
    outer loop
      vertex 57.5 49 1
      vertex 51 49 -1
      vertex 51 49 1
    endloop
  endfacet
  facet normal 0 1 0
    outer loop
      vertex 51 49 -1
      vertex 57.5 49 -7.5
      vertex 49 49 -1
    endloop
  endfacet
  facet normal 0 1 -0
    outer loop
      vertex 57.5 49 -7.5
      vertex 51 49 -1
      vertex 57.5 49 1
    endloop
  endfacet
  facet normal 0 1 -0
    outer loop
      vertex 49 49 -1
      vertex 42.5 49 1
      vertex 49 49 1
    endloop
  endfacet
  facet normal 0 1 0
    outer loop
      vertex 42.5 49 -7.5
      vertex 49 49 -1
      vertex 57.5 49 -7.5
    endloop
  endfacet
  facet normal 0 1 0
    outer loop
      vertex 49 49 -1
      vertex 42.5 49 -7.5
      vertex 42.5 49 1
    endloop
  endfacet
  facet normal -1 0 0
    outer loop
      vertex 67.5 24 -7.5
      vertex 67.5 17.5 -7.5
      vertex 67.5 24 1
    endloop
  endfacet
  facet normal -1 0 0
    outer loop
      vertex 67.5 26 1
      vertex 67.5 32.5 -7.5
      vertex 67.5 26 -7.5
    endloop
  endfacet
  facet normal -1 0 0
    outer loop
      vertex 67.5 32.5 -7.5
      vertex 67.5 26 1
      vertex 67.5 32.5 7.5
    endloop
  endfacet
  facet normal -1 0 0
    outer loop
      vertex 67.5 24 1
      vertex 67.5 32.5 7.5
      vertex 67.5 26 1
    endloop
  endfacet
  facet normal -1 0 0
    outer loop
      vertex 67.5 24 1
      vertex 67.5 17.5 7.5
      vertex 67.5 32.5 7.5
    endloop
  endfacet
  facet normal -1 0 0
    outer loop
      vertex 67.5 17.5 7.5
      vertex 67.5 24 1
      vertex 67.5 17.5 -7.5
    endloop
  endfacet
  facet normal -0 0 1
    outer loop
      vertex 67.5 32.5 7.5
      vertex 74 17.5 7.5
      vertex 74 32.5 7.5
    endloop
  endfacet
  facet normal 0 0 1
    outer loop
      vertex 74 17.5 7.5
      vertex 67.5 32.5 7.5
      vertex 67.5 17.5 7.5
    endloop
  endfacet
  facet normal -0 0 1
    outer loop
      vertex 76 32.5 7.5
      vertex 82.5 17.5 7.5
      vertex 82.5 32.5 7.5
    endloop
  endfacet
  facet normal 0 0 1
    outer loop
      vertex 82.5 17.5 7.5
      vertex 76 32.5 7.5
      vertex 76 17.5 7.5
    endloop
  endfacet
  facet normal 1 0 0
    outer loop
      vertex 82.5 32.5 7.5
      vertex 82.5 26 1
      vertex 82.5 32.5 -7.5
    endloop
  endfacet
  facet normal 1 0 0
    outer loop
      vertex 82.5 32.5 7.5
      vertex 82.5 24 1
      vertex 82.5 26 1
    endloop
  endfacet
  facet normal 1 -0 0
    outer loop
      vertex 82.5 17.5 7.5
      vertex 82.5 24 1
      vertex 82.5 32.5 7.5
    endloop
  endfacet
  facet normal 1 0 0
    outer loop
      vertex 82.5 17.5 -7.5
      vertex 82.5 24 1
      vertex 82.5 17.5 7.5
    endloop
  endfacet
  facet normal 1 0 0
    outer loop
      vertex 82.5 24 1
      vertex 82.5 17.5 -7.5
      vertex 82.5 24 -7.5
    endloop
  endfacet
  facet normal 1 0 0
    outer loop
      vertex 82.5 32.5 -7.5
      vertex 82.5 26 1
      vertex 82.5 26 -7.5
    endloop
  endfacet
  facet normal 0 1 0
    outer loop
      vertex 82.5 32.5 7.5
      vertex 76 32.5 -1
      vertex 76 32.5 7.5
    endloop
  endfacet
  facet normal 0 1 0
    outer loop
      vertex 76 32.5 -1
      vertex 82.5 32.5 -7.5
      vertex 74 32.5 -1
    endloop
  endfacet
  facet normal 0 1 -0
    outer loop
      vertex 82.5 32.5 -7.5
      vertex 76 32.5 -1
      vertex 82.5 32.5 7.5
    endloop
  endfacet
  facet normal 0 1 -0
    outer loop
      vertex 74 32.5 -1
      vertex 67.5 32.5 7.5
      vertex 74 32.5 7.5
    endloop
  endfacet
  facet normal 0 1 0
    outer loop
      vertex 74 32.5 -1
      vertex 67.5 32.5 -7.5
      vertex 67.5 32.5 7.5
    endloop
  endfacet
  facet normal 0 1 0
    outer loop
      vertex 67.5 32.5 -7.5
      vertex 74 32.5 -1
      vertex 82.5 32.5 -7.5
    endloop
  endfacet
  facet normal 0 0 -1
    outer loop
      vertex 67.5 26 -7.5
      vertex 82.5 32.5 -7.5
      vertex 82.5 26 -7.5
    endloop
  endfacet
  facet normal -0 0 -1
    outer loop
      vertex 82.5 32.5 -7.5
      vertex 67.5 26 -7.5
      vertex 67.5 32.5 -7.5
    endloop
  endfacet
  facet normal 0 0 -1
    outer loop
      vertex 67.5 17.5 -7.5
      vertex 82.5 24 -7.5
      vertex 82.5 17.5 -7.5
    endloop
  endfacet
  facet normal -0 0 -1
    outer loop
      vertex 82.5 24 -7.5
      vertex 67.5 17.5 -7.5
      vertex 67.5 24 -7.5
    endloop
  endfacet
  facet normal 0 -1 0
    outer loop
      vertex 67.5 17.5 7.5
      vertex 74 17.5 -1
      vertex 74 17.5 7.5
    endloop
  endfacet
  facet normal 0 -1 -0
    outer loop
      vertex 74 17.5 -1
      vertex 67.5 17.5 -7.5
      vertex 76 17.5 -1
    endloop
  endfacet
  facet normal 0 -1 0
    outer loop
      vertex 67.5 17.5 -7.5
      vertex 74 17.5 -1
      vertex 67.5 17.5 7.5
    endloop
  endfacet
  facet normal 0 -1 0
    outer loop
      vertex 76 17.5 -1
      vertex 82.5 17.5 7.5
      vertex 76 17.5 7.5
    endloop
  endfacet
  facet normal 0 -1 0
    outer loop
      vertex 76 17.5 -1
      vertex 82.5 17.5 -7.5
      vertex 82.5 17.5 7.5
    endloop
  endfacet
  facet normal 0 -1 0
    outer loop
      vertex 82.5 17.5 -7.5
      vertex 76 17.5 -1
      vertex 67.5 17.5 -7.5
    endloop
  endfacet
  facet normal 1 0 0
    outer loop
      vertex 74 32.5 7.5
      vertex 74 26 1
      vertex 74 32.5 -1
    endloop
  endfacet
  facet normal 1 0 0
    outer loop
      vertex 74 32.5 7.5
      vertex 74 24 1
      vertex 74 26 1
    endloop
  endfacet
  facet normal 1 -0 0
    outer loop
      vertex 74 17.5 7.5
      vertex 74 24 1
      vertex 74 32.5 7.5
    endloop
  endfacet
  facet normal 1 0 0
    outer loop
      vertex 74 17.5 -1
      vertex 74 24 1
      vertex 74 17.5 7.5
    endloop
  endfacet
  facet normal 1 0 0
    outer loop
      vertex 74 24 1
      vertex 74 17.5 -1
      vertex 74 24 -1
    endloop
  endfacet
  facet normal 1 0 0
    outer loop
      vertex 74 32.5 -1
      vertex 74 26 1
      vertex 74 26 -1
    endloop
  endfacet
  facet normal -1 0 0
    outer loop
      vertex 76 24 -1
      vertex 76 17.5 -1
      vertex 76 24 1
    endloop
  endfacet
  facet normal -1 0 0
    outer loop
      vertex 76 26 1
      vertex 76 32.5 -1
      vertex 76 26 -1
    endloop
  endfacet
  facet normal -1 0 0
    outer loop
      vertex 76 32.5 -1
      vertex 76 26 1
      vertex 76 32.5 7.5
    endloop
  endfacet
  facet normal -1 0 0
    outer loop
      vertex 76 24 1
      vertex 76 32.5 7.5
      vertex 76 26 1
    endloop
  endfacet
  facet normal -1 0 0
    outer loop
      vertex 76 17.5 7.5
      vertex 76 24 1
      vertex 76 17.5 -1
    endloop
  endfacet
  facet normal -1 0 0
    outer loop
      vertex 76 24 1
      vertex 76 17.5 7.5
      vertex 76 32.5 7.5
    endloop
  endfacet
  facet normal -0 0 1
    outer loop
      vertex 74 24 -1
      vertex 76 17.5 -1
      vertex 76 24 -1
    endloop
  endfacet
  facet normal 0 0 1
    outer loop
      vertex 76 17.5 -1
      vertex 74 24 -1
      vertex 74 17.5 -1
    endloop
  endfacet
  facet normal -0 0 1
    outer loop
      vertex 74 32.5 -1
      vertex 76 26 -1
      vertex 76 32.5 -1
    endloop
  endfacet
  facet normal 0 0 1
    outer loop
      vertex 76 26 -1
      vertex 74 32.5 -1
      vertex 74 26 -1
    endloop
  endfacet
  facet normal 0 0 -1
    outer loop
      vertex 67.5 24 1
      vertex 74 26 1
      vertex 74 24 1
    endloop
  endfacet
  facet normal -0 0 -1
    outer loop
      vertex 74 26 1
      vertex 67.5 24 1
      vertex 67.5 26 1
    endloop
  endfacet
  facet normal 0 0 -1
    outer loop
      vertex 76 24 1
      vertex 82.5 26 1
      vertex 82.5 24 1
    endloop
  endfacet
  facet normal -0 0 -1
    outer loop
      vertex 82.5 26 1
      vertex 76 24 1
      vertex 76 26 1
    endloop
  endfacet
  facet normal 0 -1 0
    outer loop
      vertex 67.5 26 1
      vertex 74 26 -1
      vertex 74 26 1
    endloop
  endfacet
  facet normal 0 -1 -0
    outer loop
      vertex 74 26 -1
      vertex 67.5 26 -7.5
      vertex 76 26 -1
    endloop
  endfacet
  facet normal 0 -1 0
    outer loop
      vertex 67.5 26 -7.5
      vertex 74 26 -1
      vertex 67.5 26 1
    endloop
  endfacet
  facet normal 0 -1 0
    outer loop
      vertex 76 26 -1
      vertex 82.5 26 1
      vertex 76 26 1
    endloop
  endfacet
  facet normal 0 -1 0
    outer loop
      vertex 82.5 26 -7.5
      vertex 76 26 -1
      vertex 67.5 26 -7.5
    endloop
  endfacet
  facet normal 0 -1 0
    outer loop
      vertex 76 26 -1
      vertex 82.5 26 -7.5
      vertex 82.5 26 1
    endloop
  endfacet
  facet normal 0 1 0
    outer loop
      vertex 82.5 24 1
      vertex 76 24 -1
      vertex 76 24 1
    endloop
  endfacet
  facet normal 0 1 0
    outer loop
      vertex 76 24 -1
      vertex 82.5 24 -7.5
      vertex 74 24 -1
    endloop
  endfacet
  facet normal 0 1 -0
    outer loop
      vertex 82.5 24 -7.5
      vertex 76 24 -1
      vertex 82.5 24 1
    endloop
  endfacet
  facet normal 0 1 -0
    outer loop
      vertex 74 24 -1
      vertex 67.5 24 1
      vertex 74 24 1
    endloop
  endfacet
  facet normal 0 1 0
    outer loop
      vertex 67.5 24 -7.5
      vertex 74 24 -1
      vertex 82.5 24 -7.5
    endloop
  endfacet
  facet normal 0 1 0
    outer loop
      vertex 74 24 -1
      vertex 67.5 24 -7.5
      vertex 67.5 24 1
    endloop
  endfacet
  facet normal -1 0 0
    outer loop
      vertex 67.5 49 -7.5
      vertex 67.5 42.5 -7.5
      vertex 67.5 49 1
    endloop
  endfacet
  facet normal -1 0 0
    outer loop
      vertex 67.5 51 1
      vertex 67.5 57.5 -7.5
      vertex 67.5 51 -7.5
    endloop
  endfacet
  facet normal -1 0 0
    outer loop
      vertex 67.5 57.5 -7.5
      vertex 67.5 51 1
      vertex 67.5 57.5 7.5
    endloop
  endfacet
  facet normal -1 0 0
    outer loop
      vertex 67.5 49 1
      vertex 67.5 57.5 7.5
      vertex 67.5 51 1
    endloop
  endfacet
  facet normal -1 0 0
    outer loop
      vertex 67.5 49 1
      vertex 67.5 42.5 7.5
      vertex 67.5 57.5 7.5
    endloop
  endfacet
  facet normal -1 0 0
    outer loop
      vertex 67.5 42.5 7.5
      vertex 67.5 49 1
      vertex 67.5 42.5 -7.5
    endloop
  endfacet
  facet normal -0 0 1
    outer loop
      vertex 67.5 57.5 7.5
      vertex 74 42.5 7.5
      vertex 74 57.5 7.5
    endloop
  endfacet
  facet normal 0 0 1
    outer loop
      vertex 74 42.5 7.5
      vertex 67.5 57.5 7.5
      vertex 67.5 42.5 7.5
    endloop
  endfacet
  facet normal -0 0 1
    outer loop
      vertex 76 57.5 7.5
      vertex 82.5 42.5 7.5
      vertex 82.5 57.5 7.5
    endloop
  endfacet
  facet normal 0 0 1
    outer loop
      vertex 82.5 42.5 7.5
      vertex 76 57.5 7.5
      vertex 76 42.5 7.5
    endloop
  endfacet
  facet normal 1 0 0
    outer loop
      vertex 82.5 57.5 7.5
      vertex 82.5 51 1
      vertex 82.5 57.5 -7.5
    endloop
  endfacet
  facet normal 1 0 0
    outer loop
      vertex 82.5 57.5 7.5
      vertex 82.5 49 1
      vertex 82.5 51 1
    endloop
  endfacet
  facet normal 1 -0 0
    outer loop
      vertex 82.5 42.5 7.5
      vertex 82.5 49 1
      vertex 82.5 57.5 7.5
    endloop
  endfacet
  facet normal 1 0 0
    outer loop
      vertex 82.5 42.5 -7.5
      vertex 82.5 49 1
      vertex 82.5 42.5 7.5
    endloop
  endfacet
  facet normal 1 0 0
    outer loop
      vertex 82.5 49 1
      vertex 82.5 42.5 -7.5
      vertex 82.5 49 -7.5
    endloop
  endfacet
  facet normal 1 0 0
    outer loop
      vertex 82.5 57.5 -7.5
      vertex 82.5 51 1
      vertex 82.5 51 -7.5
    endloop
  endfacet
  facet normal 0 1 0
    outer loop
      vertex 82.5 57.5 7.5
      vertex 76 57.5 -1
      vertex 76 57.5 7.5
    endloop
  endfacet
  facet normal 0 1 0
    outer loop
      vertex 76 57.5 -1
      vertex 82.5 57.5 -7.5
      vertex 74 57.5 -1
    endloop
  endfacet
  facet normal 0 1 -0
    outer loop
      vertex 82.5 57.5 -7.5
      vertex 76 57.5 -1
      vertex 82.5 57.5 7.5
    endloop
  endfacet
  facet normal 0 1 -0
    outer loop
      vertex 74 57.5 -1
      vertex 67.5 57.5 7.5
      vertex 74 57.5 7.5
    endloop
  endfacet
  facet normal 0 1 0
    outer loop
      vertex 74 57.5 -1
      vertex 67.5 57.5 -7.5
      vertex 67.5 57.5 7.5
    endloop
  endfacet
  facet normal 0 1 0
    outer loop
      vertex 67.5 57.5 -7.5
      vertex 74 57.5 -1
      vertex 82.5 57.5 -7.5
    endloop
  endfacet
  facet normal 0 0 -1
    outer loop
      vertex 67.5 51 -7.5
      vertex 82.5 57.5 -7.5
      vertex 82.5 51 -7.5
    endloop
  endfacet
  facet normal -0 0 -1
    outer loop
      vertex 82.5 57.5 -7.5
      vertex 67.5 51 -7.5
      vertex 67.5 57.5 -7.5
    endloop
  endfacet
  facet normal 0 0 -1
    outer loop
      vertex 67.5 42.5 -7.5
      vertex 82.5 49 -7.5
      vertex 82.5 42.5 -7.5
    endloop
  endfacet
  facet normal -0 0 -1
    outer loop
      vertex 82.5 49 -7.5
      vertex 67.5 42.5 -7.5
      vertex 67.5 49 -7.5
    endloop
  endfacet
  facet normal 0 -1 0
    outer loop
      vertex 67.5 42.5 7.5
      vertex 74 42.5 -1
      vertex 74 42.5 7.5
    endloop
  endfacet
  facet normal 0 -1 -0
    outer loop
      vertex 74 42.5 -1
      vertex 67.5 42.5 -7.5
      vertex 76 42.5 -1
    endloop
  endfacet
  facet normal 0 -1 0
    outer loop
      vertex 67.5 42.5 -7.5
      vertex 74 42.5 -1
      vertex 67.5 42.5 7.5
    endloop
  endfacet
  facet normal 0 -1 0
    outer loop
      vertex 76 42.5 -1
      vertex 82.5 42.5 7.5
      vertex 76 42.5 7.5
    endloop
  endfacet
  facet normal 0 -1 0
    outer loop
      vertex 76 42.5 -1
      vertex 82.5 42.5 -7.5
      vertex 82.5 42.5 7.5
    endloop
  endfacet
  facet normal 0 -1 0
    outer loop
      vertex 82.5 42.5 -7.5
      vertex 76 42.5 -1
      vertex 67.5 42.5 -7.5
    endloop
  endfacet
  facet normal 1 0 0
    outer loop
      vertex 74 57.5 7.5
      vertex 74 51 1
      vertex 74 57.5 -1
    endloop
  endfacet
  facet normal 1 0 0
    outer loop
      vertex 74 57.5 7.5
      vertex 74 49 1
      vertex 74 51 1
    endloop
  endfacet
  facet normal 1 -0 0
    outer loop
      vertex 74 42.5 7.5
      vertex 74 49 1
      vertex 74 57.5 7.5
    endloop
  endfacet
  facet normal 1 0 0
    outer loop
      vertex 74 42.5 -1
      vertex 74 49 1
      vertex 74 42.5 7.5
    endloop
  endfacet
  facet normal 1 0 0
    outer loop
      vertex 74 49 1
      vertex 74 42.5 -1
      vertex 74 49 -1
    endloop
  endfacet
  facet normal 1 0 0
    outer loop
      vertex 74 57.5 -1
      vertex 74 51 1
      vertex 74 51 -1
    endloop
  endfacet
  facet normal -1 0 0
    outer loop
      vertex 76 49 -1
      vertex 76 42.5 -1
      vertex 76 49 1
    endloop
  endfacet
  facet normal -1 0 0
    outer loop
      vertex 76 51 1
      vertex 76 57.5 -1
      vertex 76 51 -1
    endloop
  endfacet
  facet normal -1 0 0
    outer loop
      vertex 76 57.5 -1
      vertex 76 51 1
      vertex 76 57.5 7.5
    endloop
  endfacet
  facet normal -1 0 0
    outer loop
      vertex 76 49 1
      vertex 76 57.5 7.5
      vertex 76 51 1
    endloop
  endfacet
  facet normal -1 0 0
    outer loop
      vertex 76 42.5 7.5
      vertex 76 49 1
      vertex 76 42.5 -1
    endloop
  endfacet
  facet normal -1 0 0
    outer loop
      vertex 76 49 1
      vertex 76 42.5 7.5
      vertex 76 57.5 7.5
    endloop
  endfacet
  facet normal -0 0 1
    outer loop
      vertex 74 49 -1
      vertex 76 42.5 -1
      vertex 76 49 -1
    endloop
  endfacet
  facet normal 0 0 1
    outer loop
      vertex 76 42.5 -1
      vertex 74 49 -1
      vertex 74 42.5 -1
    endloop
  endfacet
  facet normal -0 0 1
    outer loop
      vertex 74 57.5 -1
      vertex 76 51 -1
      vertex 76 57.5 -1
    endloop
  endfacet
  facet normal 0 0 1
    outer loop
      vertex 76 51 -1
      vertex 74 57.5 -1
      vertex 74 51 -1
    endloop
  endfacet
  facet normal 0 0 -1
    outer loop
      vertex 67.5 49 1
      vertex 74 51 1
      vertex 74 49 1
    endloop
  endfacet
  facet normal -0 0 -1
    outer loop
      vertex 74 51 1
      vertex 67.5 49 1
      vertex 67.5 51 1
    endloop
  endfacet
  facet normal 0 0 -1
    outer loop
      vertex 76 49 1
      vertex 82.5 51 1
      vertex 82.5 49 1
    endloop
  endfacet
  facet normal -0 0 -1
    outer loop
      vertex 82.5 51 1
      vertex 76 49 1
      vertex 76 51 1
    endloop
  endfacet
  facet normal 0 -1 0
    outer loop
      vertex 67.5 51 1
      vertex 74 51 -1
      vertex 74 51 1
    endloop
  endfacet
  facet normal 0 -1 -0
    outer loop
      vertex 74 51 -1
      vertex 67.5 51 -7.5
      vertex 76 51 -1
    endloop
  endfacet
  facet normal 0 -1 0
    outer loop
      vertex 67.5 51 -7.5
      vertex 74 51 -1
      vertex 67.5 51 1
    endloop
  endfacet
  facet normal 0 -1 0
    outer loop
      vertex 76 51 -1
      vertex 82.5 51 1
      vertex 76 51 1
    endloop
  endfacet
  facet normal 0 -1 0
    outer loop
      vertex 82.5 51 -7.5
      vertex 76 51 -1
      vertex 67.5 51 -7.5
    endloop
  endfacet
  facet normal 0 -1 0
    outer loop
      vertex 76 51 -1
      vertex 82.5 51 -7.5
      vertex 82.5 51 1
    endloop
  endfacet
  facet normal 0 1 0
    outer loop
      vertex 82.5 49 1
      vertex 76 49 -1
      vertex 76 49 1
    endloop
  endfacet
  facet normal 0 1 0
    outer loop
      vertex 76 49 -1
      vertex 82.5 49 -7.5
      vertex 74 49 -1
    endloop
  endfacet
  facet normal 0 1 -0
    outer loop
      vertex 82.5 49 -7.5
      vertex 76 49 -1
      vertex 82.5 49 1
    endloop
  endfacet
  facet normal 0 1 -0
    outer loop
      vertex 74 49 -1
      vertex 67.5 49 1
      vertex 74 49 1
    endloop
  endfacet
  facet normal 0 1 0
    outer loop
      vertex 67.5 49 -7.5
      vertex 74 49 -1
      vertex 82.5 49 -7.5
    endloop
  endfacet
  facet normal 0 1 0
    outer loop
      vertex 74 49 -1
      vertex 67.5 49 -7.5
      vertex 67.5 49 1
    endloop
  endfacet
endsolid OpenSCAD_Model
