solid OpenSCAD_Model
  facet normal -1 0 0
    outer loop
      vertex -7.2 -7.2 0
      vertex -7.2 7.2 0.2
      vertex -7.2 7.2 0
    endloop
  endfacet
  facet normal -1 -0 0
    outer loop
      vertex -7.2 7.2 0.2
      vertex -7.2 -7.2 0
      vertex -7.2 -7.2 0.2
    endloop
  endfacet
  facet normal 1 -0 0
    outer loop
      vertex 7.2 -7.2 0.2
      vertex 7.2 7.2 0
      vertex 7.2 7.2 0.2
    endloop
  endfacet
  facet normal 1 0 0
    outer loop
      vertex 7.2 7.2 0
      vertex 7.2 -7.2 0.2
      vertex 7.2 -7.2 0
    endloop
  endfacet
  facet normal 0 1 -0
    outer loop
      vertex 7.2 7.2 0
      vertex -7.2 7.2 0.2
      vertex 7.2 7.2 0.2
    endloop
  endfacet
  facet normal 0 1 0
    outer loop
      vertex -7.2 7.2 0.2
      vertex 7.2 7.2 0
      vertex -7.2 7.2 0
    endloop
  endfacet
  facet normal 0 0 -1
    outer loop
      vertex -7.2 -7.2 0
      vertex 7.2 7.2 0
      vertex 7.2 -7.2 0
    endloop
  endfacet
  facet normal -0 0 -1
    outer loop
      vertex 7.2 7.2 0
      vertex -7.2 -7.2 0
      vertex -7.2 7.2 0
    endloop
  endfacet
  facet normal 0 -1 0
    outer loop
      vertex -7.2 -7.2 0
      vertex 7.2 -7.2 0.2
      vertex -7.2 -7.2 0.2
    endloop
  endfacet
  facet normal 0 -1 -0
    outer loop
      vertex 7.2 -7.2 0.2
      vertex -7.2 -7.2 0
      vertex 7.2 -7.2 0
    endloop
  endfacet
  facet normal -1 0 0
    outer loop
      vertex -7.3 -7.3 0.2
      vertex -7.3 7.3 0.4
      vertex -7.3 7.3 0.2
    endloop
  endfacet
  facet normal -1 -0 0
    outer loop
      vertex -7.3 7.3 0.4
      vertex -7.3 -7.3 0.2
      vertex -7.3 -7.3 0.4
    endloop
  endfacet
  facet normal 1 -0 0
    outer loop
      vertex 7.3 -7.3 0.4
      vertex 7.3 7.3 0.2
      vertex 7.3 7.3 0.4
    endloop
  endfacet
  facet normal 1 0 0
    outer loop
      vertex 7.3 7.3 0.2
      vertex 7.3 -7.3 0.4
      vertex 7.3 -7.3 0.2
    endloop
  endfacet
  facet normal 0 1 -0
    outer loop
      vertex 7.3 7.3 0.2
      vertex -7.3 7.3 0.4
      vertex 7.3 7.3 0.4
    endloop
  endfacet
  facet normal 0 1 0
    outer loop
      vertex -7.3 7.3 0.4
      vertex 7.3 7.3 0.2
      vertex -7.3 7.3 0.2
    endloop
  endfacet
  facet normal 0 0 -1
    outer loop
      vertex 7.3 -7.3 0.2
      vertex 7.2 -7.2 0.2
      vertex 7.3 7.3 0.2
    endloop
  endfacet
  facet normal 0 0 -1
    outer loop
      vertex 7.3 -7.3 0.2
      vertex -7.2 -7.2 0.2
      vertex 7.2 -7.2 0.2
    endloop
  endfacet
  facet normal -0 0 -1
    outer loop
      vertex -7.2 -7.2 0.2
      vertex -7.3 -7.3 0.2
      vertex -7.2 7.2 0.2
    endloop
  endfacet
  facet normal 0 0 -1
    outer loop
      vertex -7.3 -7.3 0.2
      vertex -7.2 -7.2 0.2
      vertex 7.3 -7.3 0.2
    endloop
  endfacet
  facet normal 0 0 -1
    outer loop
      vertex 7.2 7.2 0.2
      vertex 7.3 7.3 0.2
      vertex 7.2 -7.2 0.2
    endloop
  endfacet
  facet normal 0 0 -1
    outer loop
      vertex -7.2 7.2 0.2
      vertex 7.3 7.3 0.2
      vertex 7.2 7.2 0.2
    endloop
  endfacet
  facet normal 0 0 -1
    outer loop
      vertex -7.2 7.2 0.2
      vertex -7.3 7.3 0.2
      vertex 7.3 7.3 0.2
    endloop
  endfacet
  facet normal 0 0 -1
    outer loop
      vertex -7.3 7.3 0.2
      vertex -7.2 7.2 0.2
      vertex -7.3 -7.3 0.2
    endloop
  endfacet
  facet normal 0 -1 0
    outer loop
      vertex -7.3 -7.3 0.2
      vertex 7.3 -7.3 0.4
      vertex -7.3 -7.3 0.4
    endloop
  endfacet
  facet normal 0 -1 -0
    outer loop
      vertex 7.3 -7.3 0.4
      vertex -7.3 -7.3 0.2
      vertex 7.3 -7.3 0.2
    endloop
  endfacet
  facet normal -1 0 0
    outer loop
      vertex -7.4 -7.4 0.4
      vertex -7.4 7.4 0.599999
      vertex -7.4 7.4 0.4
    endloop
  endfacet
  facet normal -1 -0 0
    outer loop
      vertex -7.4 7.4 0.599999
      vertex -7.4 -7.4 0.4
      vertex -7.4 -7.4 0.599999
    endloop
  endfacet
  facet normal 1 -0 0
    outer loop
      vertex 7.4 -7.4 0.599999
      vertex 7.4 7.4 0.4
      vertex 7.4 7.4 0.599999
    endloop
  endfacet
  facet normal 1 0 0
    outer loop
      vertex 7.4 7.4 0.4
      vertex 7.4 -7.4 0.599999
      vertex 7.4 -7.4 0.4
    endloop
  endfacet
  facet normal 0 1 -0
    outer loop
      vertex 7.4 7.4 0.4
      vertex -7.4 7.4 0.599999
      vertex 7.4 7.4 0.599999
    endloop
  endfacet
  facet normal 0 1 0
    outer loop
      vertex -7.4 7.4 0.599999
      vertex 7.4 7.4 0.4
      vertex -7.4 7.4 0.4
    endloop
  endfacet
  facet normal 0 0 -1
    outer loop
      vertex 7.4 -7.4 0.4
      vertex 7.3 -7.3 0.4
      vertex 7.4 7.4 0.4
    endloop
  endfacet
  facet normal 0 0 -1
    outer loop
      vertex 7.4 -7.4 0.4
      vertex -7.3 -7.3 0.4
      vertex 7.3 -7.3 0.4
    endloop
  endfacet
  facet normal -0 0 -1
    outer loop
      vertex -7.3 -7.3 0.4
      vertex -7.4 -7.4 0.4
      vertex -7.3 7.3 0.4
    endloop
  endfacet
  facet normal 0 0 -1
    outer loop
      vertex -7.4 -7.4 0.4
      vertex -7.3 -7.3 0.4
      vertex 7.4 -7.4 0.4
    endloop
  endfacet
  facet normal 0 0 -1
    outer loop
      vertex 7.3 7.3 0.4
      vertex 7.4 7.4 0.4
      vertex 7.3 -7.3 0.4
    endloop
  endfacet
  facet normal 0 0 -1
    outer loop
      vertex -7.3 7.3 0.4
      vertex 7.4 7.4 0.4
      vertex 7.3 7.3 0.4
    endloop
  endfacet
  facet normal 0 0 -1
    outer loop
      vertex -7.3 7.3 0.4
      vertex -7.4 7.4 0.4
      vertex 7.4 7.4 0.4
    endloop
  endfacet
  facet normal 0 0 -1
    outer loop
      vertex -7.4 7.4 0.4
      vertex -7.3 7.3 0.4
      vertex -7.4 -7.4 0.4
    endloop
  endfacet
  facet normal 0 -1 0
    outer loop
      vertex -7.4 -7.4 0.4
      vertex 7.4 -7.4 0.599999
      vertex -7.4 -7.4 0.599999
    endloop
  endfacet
  facet normal 0 -1 -0
    outer loop
      vertex 7.4 -7.4 0.599999
      vertex -7.4 -7.4 0.4
      vertex 7.4 -7.4 0.4
    endloop
  endfacet
  facet normal -1 0 0
    outer loop
      vertex -7.5 -7.5 0.599999
      vertex -7.5 7.5 15.01
      vertex -7.5 7.5 0.599999
    endloop
  endfacet
  facet normal -1 -0 0
    outer loop
      vertex -7.5 7.5 15.01
      vertex -7.5 -7.5 0.599999
      vertex -7.5 -7.5 15.01
    endloop
  endfacet
  facet normal -0 0 1
    outer loop
      vertex -7.5 7.5 15.01
      vertex 7.5 -7.5 15.01
      vertex 7.5 7.5 15.01
    endloop
  endfacet
  facet normal 0 0 1
    outer loop
      vertex 7.5 -7.5 15.01
      vertex -7.5 7.5 15.01
      vertex -7.5 -7.5 15.01
    endloop
  endfacet
  facet normal 1 -0 0
    outer loop
      vertex 7.5 -7.5 15.01
      vertex 7.5 7.5 0.599999
      vertex 7.5 7.5 15.01
    endloop
  endfacet
  facet normal 1 0 0
    outer loop
      vertex 7.5 7.5 0.599999
      vertex 7.5 -7.5 15.01
      vertex 7.5 -7.5 0.599999
    endloop
  endfacet
  facet normal 0 1 -0
    outer loop
      vertex 7.5 7.5 0.599999
      vertex -7.5 7.5 15.01
      vertex 7.5 7.5 15.01
    endloop
  endfacet
  facet normal 0 1 0
    outer loop
      vertex -7.5 7.5 15.01
      vertex 7.5 7.5 0.599999
      vertex -7.5 7.5 0.599999
    endloop
  endfacet
  facet normal 0 0 -1
    outer loop
      vertex 7.5 -7.5 0.599999
      vertex 7.4 -7.4 0.599999
      vertex 7.5 7.5 0.599999
    endloop
  endfacet
  facet normal 0 0 -1
    outer loop
      vertex 7.5 -7.5 0.599999
      vertex -7.4 -7.4 0.599999
      vertex 7.4 -7.4 0.599999
    endloop
  endfacet
  facet normal -0 0 -1
    outer loop
      vertex -7.4 -7.4 0.599999
      vertex -7.5 -7.5 0.599999
      vertex -7.4 7.4 0.599999
    endloop
  endfacet
  facet normal 0 0 -1
    outer loop
      vertex -7.5 -7.5 0.599999
      vertex -7.4 -7.4 0.599999
      vertex 7.5 -7.5 0.599999
    endloop
  endfacet
  facet normal 0 0 -1
    outer loop
      vertex 7.4 7.4 0.599999
      vertex 7.5 7.5 0.599999
      vertex 7.4 -7.4 0.599999
    endloop
  endfacet
  facet normal 0 0 -1
    outer loop
      vertex -7.4 7.4 0.599999
      vertex 7.5 7.5 0.599999
      vertex 7.4 7.4 0.599999
    endloop
  endfacet
  facet normal 0 0 -1
    outer loop
      vertex -7.4 7.4 0.599999
      vertex -7.5 7.5 0.599999
      vertex 7.5 7.5 0.599999
    endloop
  endfacet
  facet normal 0 0 -1
    outer loop
      vertex -7.5 7.5 0.599999
      vertex -7.4 7.4 0.599999
      vertex -7.5 -7.5 0.599999
    endloop
  endfacet
  facet normal 0 -1 0
    outer loop
      vertex -7.5 -7.5 0.599999
      vertex 7.5 -7.5 15.01
      vertex -7.5 -7.5 15.01
    endloop
  endfacet
  facet normal 0 -1 -0
    outer loop
      vertex 7.5 -7.5 15.01
      vertex -7.5 -7.5 0.599999
      vertex 7.5 -7.5 0.599999
    endloop
  endfacet
endsolid OpenSCAD_Model
