solid OpenSCAD_Model
  facet normal -1 0 0
    outer loop
      vertex -17.5 -17.5 0
      vertex -17.5 17.5 1
      vertex -17.5 17.5 0
    endloop
  endfacet
  facet normal -1 -0 0
    outer loop
      vertex -17.5 17.5 1
      vertex -17.5 -17.5 0
      vertex -17.5 -17.5 1
    endloop
  endfacet
  facet normal 0 0 1
    outer loop
      vertex 17.5 17.5 1
      vertex 12.5 12.5 1
      vertex 17.5 -17.5 1
    endloop
  endfacet
  facet normal 0 0 1
    outer loop
      vertex 17.5 17.5 1
      vertex 7.505 12.5 1
      vertex 12.5 12.5 1
    endloop
  endfacet
  facet normal 0 0 1
    outer loop
      vertex 7.505 12.5 1
      vertex 2.495 12.5 1
      vertex 7.505 9.995 1
    endloop
  endfacet
  facet normal 0 0 1
    outer loop
      vertex 17.5 17.5 1
      vertex 2.495 12.5 1
      vertex 7.505 12.5 1
    endloop
  endfacet
  facet normal -0 0 1
    outer loop
      vertex -17.5 17.5 1
      vertex 2.495 12.5 1
      vertex 17.5 17.5 1
    endloop
  endfacet
  facet normal 0 0 1
    outer loop
      vertex -12.5 12.5 1
      vertex -17.5 17.5 1
      vertex -12.5 -12.5 1
    endloop
  endfacet
  facet normal 0 0 1
    outer loop
      vertex 2.495 12.5 1
      vertex -17.5 17.5 1
      vertex -12.5 12.5 1
    endloop
  endfacet
  facet normal -0 0 1
    outer loop
      vertex 12.5 -12.5 1
      vertex 17.5 -17.5 1
      vertex 12.5 12.5 1
    endloop
  endfacet
  facet normal -0 0 1
    outer loop
      vertex -12.5 -12.5 1
      vertex 17.5 -17.5 1
      vertex 12.5 -12.5 1
    endloop
  endfacet
  facet normal 0 0 1
    outer loop
      vertex -12.5 -12.5 1
      vertex -17.5 -17.5 1
      vertex 17.5 -17.5 1
    endloop
  endfacet
  facet normal 0 0 1
    outer loop
      vertex -17.5 -17.5 1
      vertex -12.5 -12.5 1
      vertex -17.5 17.5 1
    endloop
  endfacet
  facet normal 0 0 1
    outer loop
      vertex 7.505 9.995 1
      vertex 2.495 12.5 1
      vertex 2.495 9.995 1
    endloop
  endfacet
  facet normal 1 -0 0
    outer loop
      vertex 17.5 -17.5 1
      vertex 17.5 17.5 0
      vertex 17.5 17.5 1
    endloop
  endfacet
  facet normal 1 0 0
    outer loop
      vertex 17.5 17.5 0
      vertex 17.5 -17.5 1
      vertex 17.5 -17.5 0
    endloop
  endfacet
  facet normal 0 1 -0
    outer loop
      vertex 17.5 17.5 0
      vertex -17.5 17.5 1
      vertex 17.5 17.5 1
    endloop
  endfacet
  facet normal 0 1 0
    outer loop
      vertex -17.5 17.5 1
      vertex 17.5 17.5 0
      vertex -17.5 17.5 0
    endloop
  endfacet
  facet normal 0 0 -1
    outer loop
      vertex 7.505 9.995 0
      vertex 2.495 9.995 0
      vertex 7.505 12.5 0
    endloop
  endfacet
  facet normal 0 0 -1
    outer loop
      vertex 17.5 -17.5 0
      vertex 12.5 -12.5 0
      vertex 17.5 17.5 0
    endloop
  endfacet
  facet normal 0 0 -1
    outer loop
      vertex 17.5 -17.5 0
      vertex -12.5 -12.5 0
      vertex 12.5 -12.5 0
    endloop
  endfacet
  facet normal -0 0 -1
    outer loop
      vertex -12.5 -12.5 0
      vertex -17.5 -17.5 0
      vertex -12.5 12.5 0
    endloop
  endfacet
  facet normal 0 0 -1
    outer loop
      vertex -17.5 -17.5 0
      vertex -12.5 -12.5 0
      vertex 17.5 -17.5 0
    endloop
  endfacet
  facet normal 0 0 -1
    outer loop
      vertex 12.5 12.5 0
      vertex 17.5 17.5 0
      vertex 12.5 -12.5 0
    endloop
  endfacet
  facet normal 0 0 -1
    outer loop
      vertex 7.505 12.5 0
      vertex 17.5 17.5 0
      vertex 12.5 12.5 0
    endloop
  endfacet
  facet normal 0 0 -1
    outer loop
      vertex 2.495 12.5 0
      vertex 7.505 12.5 0
      vertex 2.495 9.995 0
    endloop
  endfacet
  facet normal 0 0 -1
    outer loop
      vertex 7.505 12.5 0
      vertex 2.495 12.5 0
      vertex 17.5 17.5 0
    endloop
  endfacet
  facet normal 0 0 -1
    outer loop
      vertex -17.5 17.5 0
      vertex 2.495 12.5 0
      vertex -12.5 12.5 0
    endloop
  endfacet
  facet normal 0 0 -1
    outer loop
      vertex 2.495 12.5 0
      vertex -17.5 17.5 0
      vertex 17.5 17.5 0
    endloop
  endfacet
  facet normal 0 0 -1
    outer loop
      vertex -17.5 17.5 0
      vertex -12.5 12.5 0
      vertex -17.5 -17.5 0
    endloop
  endfacet
  facet normal 0 -1 0
    outer loop
      vertex -17.5 -17.5 0
      vertex 17.5 -17.5 1
      vertex -17.5 -17.5 1
    endloop
  endfacet
  facet normal 0 -1 -0
    outer loop
      vertex 17.5 -17.5 1
      vertex -17.5 -17.5 0
      vertex 17.5 -17.5 0
    endloop
  endfacet
  facet normal 1 -0 0
    outer loop
      vertex -12.5 -12.5 1
      vertex -12.5 12.5 0
      vertex -12.5 12.5 1
    endloop
  endfacet
  facet normal 1 0 0
    outer loop
      vertex -12.5 12.5 0
      vertex -12.5 -12.5 1
      vertex -12.5 -12.5 0
    endloop
  endfacet
  facet normal -1 0 0
    outer loop
      vertex 12.5 -12.5 0
      vertex 12.5 12.5 1
      vertex 12.5 12.5 0
    endloop
  endfacet
  facet normal -1 -0 0
    outer loop
      vertex 12.5 12.5 1
      vertex 12.5 -12.5 0
      vertex 12.5 -12.5 1
    endloop
  endfacet
  facet normal 0 -1 0
    outer loop
      vertex -12.5 12.5 0
      vertex 2.495 12.5 1
      vertex -12.5 12.5 1
    endloop
  endfacet
  facet normal 0 -1 -0
    outer loop
      vertex 2.495 12.5 1
      vertex -12.5 12.5 0
      vertex 2.495 12.5 0
    endloop
  endfacet
  facet normal 0 -1 0
    outer loop
      vertex 7.505 12.5 0
      vertex 12.5 12.5 1
      vertex 7.505 12.5 1
    endloop
  endfacet
  facet normal 0 -1 -0
    outer loop
      vertex 12.5 12.5 1
      vertex 7.505 12.5 0
      vertex 12.5 12.5 0
    endloop
  endfacet
  facet normal 0 1 -0
    outer loop
      vertex 12.5 -12.5 0
      vertex -12.5 -12.5 1
      vertex 12.5 -12.5 1
    endloop
  endfacet
  facet normal 0 1 0
    outer loop
      vertex -12.5 -12.5 1
      vertex 12.5 -12.5 0
      vertex -12.5 -12.5 0
    endloop
  endfacet
  facet normal -1 0 0
    outer loop
      vertex 2.495 9.995 0
      vertex 2.495 12.5 1
      vertex 2.495 12.5 0
    endloop
  endfacet
  facet normal -1 -0 0
    outer loop
      vertex 2.495 12.5 1
      vertex 2.495 9.995 0
      vertex 2.495 9.995 1
    endloop
  endfacet
  facet normal 1 -0 0
    outer loop
      vertex 7.505 9.995 1
      vertex 7.505 12.5 0
      vertex 7.505 12.5 1
    endloop
  endfacet
  facet normal 1 0 0
    outer loop
      vertex 7.505 12.5 0
      vertex 7.505 9.995 1
      vertex 7.505 9.995 0
    endloop
  endfacet
  facet normal 0 -1 0
    outer loop
      vertex 2.495 9.995 0
      vertex 7.505 9.995 1
      vertex 2.495 9.995 1
    endloop
  endfacet
  facet normal 0 -1 -0
    outer loop
      vertex 7.505 9.995 1
      vertex 2.495 9.995 0
      vertex 7.505 9.995 0
    endloop
  endfacet
endsolid OpenSCAD_Model
