solid OpenSCAD_Model
  facet normal 0 1 -0
    outer loop
      vertex 35.647 23 0.4
      vertex -5.35 23 1.60868
      vertex 35.647 23 1.60868
    endloop
  endfacet
  facet normal 0 1 0
    outer loop
      vertex -5.35 23 1.60868
      vertex 35.647 23 0.4
      vertex -5.35 23 0.4
    endloop
  endfacet
  facet normal -0 0 1
    outer loop
      vertex 20.815 21.5515 10.176
      vertex 35.647 10.8957 10.176
      vertex 35.647 21.5515 10.176
    endloop
  endfacet
  facet normal 0 0 1
    outer loop
      vertex 35.647 10.8957 10.176
      vertex 20.815 21.5515 10.176
      vertex 20.815 10.8957 10.176
    endloop
  endfacet
  facet normal -0 0 1
    outer loop
      vertex 20.815 -32.3243 10.176
      vertex 35.647 -43.0655 10.176
      vertex 35.647 -32.3243 10.176
    endloop
  endfacet
  facet normal 0 0 1
    outer loop
      vertex 35.647 -43.0655 10.176
      vertex 20.815 -32.3243 10.176
      vertex 20.815 -43.0655 10.176
    endloop
  endfacet
  facet normal -0 0 1
    outer loop
      vertex 20.815 -2.4196 10.176
      vertex 20.83 -18.9837 10.176
      vertex 20.83 -2.4196 10.176
    endloop
  endfacet
  facet normal 0 0 1
    outer loop
      vertex 20.83 -18.9837 10.176
      vertex 20.815 -2.4196 10.176
      vertex 20.815 -18.9837 10.176
    endloop
  endfacet
  facet normal 1 0 0
    outer loop
      vertex 20.815 18.446 28.5433
      vertex 20.815 10.8957 10.176
      vertex 20.815 21.5515 10.176
    endloop
  endfacet
  facet normal 1 -0 0
    outer loop
      vertex 20.815 6.40799 36.539
      vertex 20.815 18.446 28.5433
      vertex 20.815 15.1348 48.128
    endloop
  endfacet
  facet normal 1 0 0
    outer loop
      vertex 20.815 18.446 28.5433
      vertex 20.815 6.40799 36.539
      vertex 20.815 10.8957 10.176
    endloop
  endfacet
  facet normal 1 -0 0
    outer loop
      vertex 20.815 -0.425304 48.128
      vertex 20.815 6.40799 36.539
      vertex 20.815 15.1348 48.128
    endloop
  endfacet
  facet normal 1 0 0
    outer loop
      vertex 20.815 -10.68 17.502
      vertex 20.815 6.40799 36.539
      vertex 20.815 -0.425304 48.128
    endloop
  endfacet
  facet normal 1 0 0
    outer loop
      vertex 20.815 6.40799 36.539
      vertex 20.815 -10.68 17.502
      vertex 20.815 -2.4196 10.176
    endloop
  endfacet
  facet normal 1 0 0
    outer loop
      vertex 20.815 -10.68 17.502
      vertex 20.815 -18.9837 10.176
      vertex 20.815 -2.4196 10.176
    endloop
  endfacet
  facet normal 1 -0 0
    outer loop
      vertex 20.815 -27.768 36.539
      vertex 20.815 -10.68 17.502
      vertex 20.815 -20.8846 48.128
    endloop
  endfacet
  facet normal 1 0 0
    outer loop
      vertex 20.815 -10.68 17.502
      vertex 20.815 -27.768 36.539
      vertex 20.815 -18.9837 10.176
    endloop
  endfacet
  facet normal 1 -0 0
    outer loop
      vertex 20.815 -36.5071 48.128
      vertex 20.815 -27.768 36.539
      vertex 20.815 -20.8846 48.128
    endloop
  endfacet
  facet normal 1 0 0
    outer loop
      vertex 20.815 -43.0655 10.176
      vertex 20.815 -27.768 36.539
      vertex 20.815 -36.5071 48.128
    endloop
  endfacet
  facet normal 1 0 0
    outer loop
      vertex 20.815 -27.768 36.539
      vertex 20.815 -43.0655 10.176
      vertex 20.815 -32.3243 10.176
    endloop
  endfacet
  facet normal 0 0 -1
    outer loop
      vertex 20.815 -0.425304 48.128
      vertex 35.647 15.1348 48.128
      vertex 35.647 -0.425304 48.128
    endloop
  endfacet
  facet normal -0 0 -1
    outer loop
      vertex 35.647 15.1348 48.128
      vertex 20.815 -0.425304 48.128
      vertex 20.815 15.1348 48.128
    endloop
  endfacet
  facet normal 0 0 -1
    outer loop
      vertex 20.815 -36.5071 48.128
      vertex 35.647 -20.8846 48.128
      vertex 35.647 -36.5071 48.128
    endloop
  endfacet
  facet normal -0 0 -1
    outer loop
      vertex 35.647 -20.8846 48.128
      vertex 20.815 -36.5071 48.128
      vertex 20.815 -20.8846 48.128
    endloop
  endfacet
  facet normal 1 -0 0
    outer loop
      vertex 35.647 2.83199 57.856
      vertex 35.647 15.1348 48.128
      vertex 35.647 13.49 57.856
    endloop
  endfacet
  facet normal 1 0 0
    outer loop
      vertex 35.647 15.1348 48.128
      vertex 35.647 2.83199 57.856
      vertex 35.647 -0.425304 48.128
    endloop
  endfacet
  facet normal 1 0 0
    outer loop
      vertex 35.647 -36.5071 48.128
      vertex 35.647 -24.126 57.856
      vertex 35.647 -34.826 57.856
    endloop
  endfacet
  facet normal 1 0 0
    outer loop
      vertex 35.647 -24.126 57.856
      vertex 35.647 -36.5071 48.128
      vertex 35.647 -20.8846 48.128
    endloop
  endfacet
  facet normal -1 0 0
    outer loop
      vertex -5.35 15.1348 48.128
      vertex -5.35 2.83199 57.856
      vertex -5.35 13.49 57.856
    endloop
  endfacet
  facet normal -1 0 -0
    outer loop
      vertex -5.35 2.83199 57.856
      vertex -5.35 15.1348 48.128
      vertex -5.35 -0.425304 48.128
    endloop
  endfacet
  facet normal -1 0 0
    outer loop
      vertex -5.35 -36.5071 48.128
      vertex -5.35 -24.126 57.856
      vertex -5.35 -20.8846 48.128
    endloop
  endfacet
  facet normal -1 -0 0
    outer loop
      vertex -5.35 -24.126 57.856
      vertex -5.35 -36.5071 48.128
      vertex -5.35 -34.826 57.856
    endloop
  endfacet
  facet normal 0 0 -1
    outer loop
      vertex -5.35 -0.425304 48.128
      vertex 9.39899 15.1348 48.128
      vertex 9.39899 -0.425304 48.128
    endloop
  endfacet
  facet normal -0 0 -1
    outer loop
      vertex 9.39899 15.1348 48.128
      vertex -5.35 -0.425304 48.128
      vertex -5.35 15.1348 48.128
    endloop
  endfacet
  facet normal 0 0 -1
    outer loop
      vertex -5.35 -36.5071 48.128
      vertex 9.39899 -20.8846 48.128
      vertex 9.39899 -36.5071 48.128
    endloop
  endfacet
  facet normal -0 0 -1
    outer loop
      vertex 9.39899 -20.8846 48.128
      vertex -5.35 -36.5071 48.128
      vertex -5.35 -20.8846 48.128
    endloop
  endfacet
  facet normal -1 0 0
    outer loop
      vertex 9.39899 10.8957 10.176
      vertex 9.39899 17.3293 35.1481
      vertex 9.39899 21.5515 10.176
    endloop
  endfacet
  facet normal -1 0 0
    outer loop
      vertex 9.39899 6.40799 36.539
      vertex 9.39899 17.3293 35.1481
      vertex 9.39899 10.8957 10.176
    endloop
  endfacet
  facet normal -1 0 0
    outer loop
      vertex 9.39899 17.3293 35.1481
      vertex 9.39899 6.40799 36.539
      vertex 9.39899 15.1348 48.128
    endloop
  endfacet
  facet normal -1 0 0
    outer loop
      vertex 9.39899 0 19.99
      vertex 9.39899 6.40799 36.539
      vertex 9.39899 0 17.402
    endloop
  endfacet
  facet normal -1 0 0
    outer loop
      vertex 9.39899 6.40799 36.539
      vertex 9.39899 -0.425304 48.128
      vertex 9.39899 15.1348 48.128
    endloop
  endfacet
  facet normal -1 0 0
    outer loop
      vertex 9.39899 -9.84693 19.99
      vertex 9.39899 6.40799 36.539
      vertex 9.39899 0 19.99
    endloop
  endfacet
  facet normal -1 -0 0
    outer loop
      vertex 9.39899 6.40799 36.539
      vertex 9.39899 -9.84693 19.99
      vertex 9.39899 -0.425304 48.128
    endloop
  endfacet
  facet normal -1 0 0
    outer loop
      vertex 9.39899 -27.768 36.539
      vertex 9.39899 -20 19.99
      vertex 9.39899 -20 13.2261
    endloop
  endfacet
  facet normal -1 0 0
    outer loop
      vertex 9.39899 -20 19.99
      vertex 9.39899 -27.768 36.539
      vertex 9.39899 -20.8846 48.128
    endloop
  endfacet
  facet normal -1 0 0
    outer loop
      vertex 9.39899 -27.768 36.539
      vertex 9.39899 -36.5071 48.128
      vertex 9.39899 -20.8846 48.128
    endloop
  endfacet
  facet normal -1 0 0
    outer loop
      vertex 9.39899 -43.0655 10.176
      vertex 9.39899 -27.768 36.539
      vertex 9.39899 -32.3243 10.176
    endloop
  endfacet
  facet normal -1 -0 0
    outer loop
      vertex 9.39899 -27.768 36.539
      vertex 9.39899 -43.0655 10.176
      vertex 9.39899 -36.5071 48.128
    endloop
  endfacet
  facet normal -1 0 0
    outer loop
      vertex 9.39899 -11.509 19.99
      vertex 9.39899 -20 19.99
      vertex 9.39899 -20.8846 48.128
    endloop
  endfacet
  facet normal -0 0 1
    outer loop
      vertex -5.35 21.5515 10.176
      vertex 9.39899 10.8957 10.176
      vertex 9.39899 21.5515 10.176
    endloop
  endfacet
  facet normal 0 0 1
    outer loop
      vertex 9.39899 10.8957 10.176
      vertex -5.35 21.5515 10.176
      vertex -5.35 10.8957 10.176
    endloop
  endfacet
  facet normal -0 0 1
    outer loop
      vertex -5.35 -32.3243 10.176
      vertex 9.39899 -43.0655 10.176
      vertex 9.39899 -32.3243 10.176
    endloop
  endfacet
  facet normal 0 0 1
    outer loop
      vertex 9.39899 -43.0655 10.176
      vertex -5.35 -32.3243 10.176
      vertex -5.35 -43.0655 10.176
    endloop
  endfacet
  facet normal -1 0 0
    outer loop
      vertex -5.35 12.5599 0.4
      vertex -5.35 23 1.60868
      vertex -5.35 23 0.4
    endloop
  endfacet
  facet normal -1 -0 0
    outer loop
      vertex -5.35 23 1.60868
      vertex -5.35 12.5599 0.4
      vertex -5.35 21.5515 10.176
    endloop
  endfacet
  facet normal -1 -0 0
    outer loop
      vertex -5.35 21.5515 10.176
      vertex -5.35 12.5599 0.4
      vertex -5.35 10.8957 10.176
    endloop
  endfacet
  facet normal -1 0 0
    outer loop
      vertex -5.35 -34.0139 0.4
      vertex -5.35 -43.0655 10.176
      vertex -5.35 -32.3243 10.176
    endloop
  endfacet
  facet normal -1 0 -0
    outer loop
      vertex -5.35 -43.0655 10.176
      vertex -5.35 -34.0139 0.4
      vertex -5.35 -44.7549 0.4
    endloop
  endfacet
  facet normal 1 0 0
    outer loop
      vertex 35.647 12.5599 0.4
      vertex 35.647 23 1.60868
      vertex 35.647 21.5515 10.176
    endloop
  endfacet
  facet normal 1 0 0
    outer loop
      vertex 35.647 23 1.60868
      vertex 35.647 12.5599 0.4
      vertex 35.647 23 0.4
    endloop
  endfacet
  facet normal 1 0 -0
    outer loop
      vertex 35.647 12.5599 0.4
      vertex 35.647 21.5515 10.176
      vertex 35.647 10.8957 10.176
    endloop
  endfacet
  facet normal 1 -0 0
    outer loop
      vertex 35.647 -43.0655 10.176
      vertex 35.647 -34.0139 0.4
      vertex 35.647 -32.3243 10.176
    endloop
  endfacet
  facet normal 1 0 0
    outer loop
      vertex 35.647 -34.0139 0.4
      vertex 35.647 -43.0655 10.176
      vertex 35.647 -44.7549 0.4
    endloop
  endfacet
  facet normal -0 -0.94872 -0.316119
    outer loop
      vertex 9.4 -20 13.2261
      vertex 9.39899 -27.768 36.539
      vertex 9.39899 -20 13.2261
    endloop
  endfacet
  facet normal 0 -0.94872 -0.316119
    outer loop
      vertex 9.39899 -27.768 36.539
      vertex 9.4 -20 13.2261
      vertex 20.815 -27.768 36.539
    endloop
  endfacet
  facet normal -3.73385e-08 -0.94872 -0.316119
    outer loop
      vertex 9.4 -20 13.2261
      vertex 20.815 -18.9837 10.176
      vertex 20.815 -27.768 36.539
    endloop
  endfacet
  facet normal -3.36158e-08 -0.94872 -0.316119
    outer loop
      vertex 9.4 -15.7263 0.4
      vertex 20.815 -18.9837 10.176
      vertex 9.4 -20 13.2261
    endloop
  endfacet
  facet normal -0 -0.94872 -0.316119
    outer loop
      vertex 20.83 -15.7263 0.4
      vertex 20.815 -18.9837 10.176
      vertex 9.4 -15.7263 0.4
    endloop
  endfacet
  facet normal 0 -0.94872 -0.316119
    outer loop
      vertex 20.815 -18.9837 10.176
      vertex 20.83 -15.7263 0.4
      vertex 20.83 -18.9837 10.176
    endloop
  endfacet
  facet normal 0 0.948252 -0.31752
    outer loop
      vertex 20.83 -2.4196 10.176
      vertex 20.83 -5.69307 0.4
      vertex 20.815 -2.4196 10.176
    endloop
  endfacet
  facet normal 0 0.948252 -0.31752
    outer loop
      vertex 20.815 6.40799 36.539
      vertex 9.4 0 17.402
      vertex 9.39899 6.40799 36.539
    endloop
  endfacet
  facet normal -2.42791e-08 0.948252 -0.31752
    outer loop
      vertex 20.815 -2.4196 10.176
      vertex 9.4 0 17.402
      vertex 20.815 6.40799 36.539
    endloop
  endfacet
  facet normal 0 0.948252 -0.31752
    outer loop
      vertex 9.4 -5.69307 0.4
      vertex 20.815 -2.4196 10.176
      vertex 20.83 -5.69307 0.4
    endloop
  endfacet
  facet normal -2.18028e-08 0.948252 -0.31752
    outer loop
      vertex 20.815 -2.4196 10.176
      vertex 9.4 -5.69307 0.4
      vertex 9.4 0 17.402
    endloop
  endfacet
  facet normal 0 0.948252 -0.31752
    outer loop
      vertex 9.39899 6.40799 36.539
      vertex 9.4 0 17.402
      vertex 9.39899 0 17.402
    endloop
  endfacet
  facet normal 0 -0.985818 -0.167815
    outer loop
      vertex -5.35 12.5599 0.4
      vertex 9.39899 10.8957 10.176
      vertex -5.35 10.8957 10.176
    endloop
  endfacet
  facet normal 0 -0.985818 -0.167815
    outer loop
      vertex 9.39899 10.8957 10.176
      vertex -5.35 12.5599 0.4
      vertex 20.815 10.8957 10.176
    endloop
  endfacet
  facet normal -0 -0.985818 -0.167815
    outer loop
      vertex 35.647 12.5599 0.4
      vertex 20.815 10.8957 10.176
      vertex -5.35 12.5599 0.4
    endloop
  endfacet
  facet normal 0 -0.985818 -0.167815
    outer loop
      vertex 20.815 10.8957 10.176
      vertex 35.647 12.5599 0.4
      vertex 35.647 10.8957 10.176
    endloop
  endfacet
  facet normal 0 -0.985818 -0.167815
    outer loop
      vertex 9.39899 10.8957 10.176
      vertex 20.815 6.40799 36.539
      vertex 9.39899 6.40799 36.539
    endloop
  endfacet
  facet normal 0 -0.985818 -0.167815
    outer loop
      vertex 20.815 6.40799 36.539
      vertex 9.39899 10.8957 10.176
      vertex 20.815 10.8957 10.176
    endloop
  endfacet
  facet normal 0 0.986006 0.166709
    outer loop
      vertex 35.647 23 1.60868
      vertex 20.815 21.5515 10.176
      vertex 35.647 21.5515 10.176
    endloop
  endfacet
  facet normal 0 0.986006 0.166709
    outer loop
      vertex 20.815 21.5515 10.176
      vertex 35.647 23 1.60868
      vertex 9.39899 21.5515 10.176
    endloop
  endfacet
  facet normal 0 0.986006 0.166709
    outer loop
      vertex 9.39899 21.5515 10.176
      vertex -5.35 23 1.60868
      vertex -5.35 21.5515 10.176
    endloop
  endfacet
  facet normal 9.21023e-09 0.986006 0.166709
    outer loop
      vertex 9.39899 21.5515 10.176
      vertex 35.647 23 1.60868
      vertex -5.35 23 1.60868
    endloop
  endfacet
  facet normal -0 0.986006 0.166709
    outer loop
      vertex 9.39899 21.5515 10.176
      vertex 20.815 18.446 28.5433
      vertex 20.815 21.5515 10.176
    endloop
  endfacet
  facet normal 2.85449e-08 0.986006 0.166709
    outer loop
      vertex 20.815 18.446 28.5433
      vertex 9.39899 21.5515 10.176
      vertex 9.39899 17.3293 35.1481
    endloop
  endfacet
  facet normal 0 0.986006 0.166709
    outer loop
      vertex 20.815 15.1348 48.128
      vertex 9.39899 17.3293 35.1481
      vertex 9.39899 15.1348 48.128
    endloop
  endfacet
  facet normal -1.15698e-08 0.986006 0.166709
    outer loop
      vertex 9.39899 17.3293 35.1481
      vertex 20.815 15.1348 48.128
      vertex 20.815 18.446 28.5433
    endloop
  endfacet
  facet normal -0 0.986006 0.166709
    outer loop
      vertex 20.815 15.1348 48.128
      vertex 35.647 13.49 57.856
      vertex 35.647 15.1348 48.128
    endloop
  endfacet
  facet normal 0 0.986006 0.166709
    outer loop
      vertex 35.647 13.49 57.856
      vertex 20.815 15.1348 48.128
      vertex -5.35 13.49 57.856
    endloop
  endfacet
  facet normal -0 0.986006 0.166709
    outer loop
      vertex 9.39899 15.1348 48.128
      vertex -5.35 13.49 57.856
      vertex 20.815 15.1348 48.128
    endloop
  endfacet
  facet normal 0 0.986006 0.166709
    outer loop
      vertex -5.35 13.49 57.856
      vertex 9.39899 15.1348 48.128
      vertex -5.35 15.1348 48.128
    endloop
  endfacet
  facet normal -0 0 1
    outer loop
      vertex -5.35 13.49 57.856
      vertex 35.647 2.83199 57.856
      vertex 35.647 13.49 57.856
    endloop
  endfacet
  facet normal 0 0 1
    outer loop
      vertex 35.647 2.83199 57.856
      vertex -5.35 13.49 57.856
      vertex -5.35 2.83199 57.856
    endloop
  endfacet
  facet normal 0 -0.948255 0.31751
    outer loop
      vertex 9.4 -9.84693 19.99
      vertex 9.39899 -0.425304 48.128
      vertex 9.39899 -9.84693 19.99
    endloop
  endfacet
  facet normal 0 -0.948255 0.31751
    outer loop
      vertex 9.39899 -0.425304 48.128
      vertex 9.4 -9.84693 19.99
      vertex 20.815 -0.425304 48.128
    endloop
  endfacet
  facet normal 0 -0.948255 0.31751
    outer loop
      vertex 20.815 -10.68 17.502
      vertex 9.4 -9.84693 19.99
      vertex 9.4 -10.68 17.502
    endloop
  endfacet
  facet normal 1.6609e-08 -0.948255 0.31751
    outer loop
      vertex 9.4 -9.84693 19.99
      vertex 20.815 -10.68 17.502
      vertex 20.815 -0.425304 48.128
    endloop
  endfacet
  facet normal 0 -0.948255 0.31751
    outer loop
      vertex 9.39899 -0.425304 48.128
      vertex -5.35 2.83199 57.856
      vertex -5.35 -0.425304 48.128
    endloop
  endfacet
  facet normal 0 -0.948255 0.31751
    outer loop
      vertex -5.35 2.83199 57.856
      vertex 9.39899 -0.425304 48.128
      vertex 35.647 2.83199 57.856
    endloop
  endfacet
  facet normal 0 -0.948255 0.31751
    outer loop
      vertex 20.815 -0.425304 48.128
      vertex 35.647 2.83199 57.856
      vertex 9.39899 -0.425304 48.128
    endloop
  endfacet
  facet normal 0 -0.948255 0.31751
    outer loop
      vertex 35.647 2.83199 57.856
      vertex 20.815 -0.425304 48.128
      vertex 35.647 -0.425304 48.128
    endloop
  endfacet
  facet normal 0 0.948721 0.316115
    outer loop
      vertex 20.815 -20.8846 48.128
      vertex 9.4 -11.509 19.99
      vertex 9.39899 -20.8846 48.128
    endloop
  endfacet
  facet normal -2.21274e-08 0.948721 0.316115
    outer loop
      vertex 20.815 -10.68 17.502
      vertex 9.4 -11.509 19.99
      vertex 20.815 -20.8846 48.128
    endloop
  endfacet
  facet normal 0 0.948721 0.316115
    outer loop
      vertex 9.4 -11.509 19.99
      vertex 20.815 -10.68 17.502
      vertex 9.4 -10.68 17.502
    endloop
  endfacet
  facet normal -0 0.948721 0.316115
    outer loop
      vertex 20.815 -20.8846 48.128
      vertex 35.647 -24.126 57.856
      vertex 35.647 -20.8846 48.128
    endloop
  endfacet
  facet normal 0 0.948721 0.316115
    outer loop
      vertex 35.647 -24.126 57.856
      vertex 20.815 -20.8846 48.128
      vertex -5.35 -24.126 57.856
    endloop
  endfacet
  facet normal -0 0.948721 0.316115
    outer loop
      vertex 9.39899 -20.8846 48.128
      vertex -5.35 -24.126 57.856
      vertex 20.815 -20.8846 48.128
    endloop
  endfacet
  facet normal 0 0.948721 0.316115
    outer loop
      vertex -5.35 -24.126 57.856
      vertex 9.39899 -20.8846 48.128
      vertex -5.35 -20.8846 48.128
    endloop
  endfacet
  facet normal 0 0.948721 0.316115
    outer loop
      vertex 9.39899 -20.8846 48.128
      vertex 9.4 -11.509 19.99
      vertex 9.39899 -11.509 19.99
    endloop
  endfacet
  facet normal -0 0 1
    outer loop
      vertex -5.35 -24.126 57.856
      vertex 35.647 -34.826 57.856
      vertex 35.647 -24.126 57.856
    endloop
  endfacet
  facet normal 0 0 1
    outer loop
      vertex 35.647 -34.826 57.856
      vertex -5.35 -24.126 57.856
      vertex -5.35 -34.826 57.856
    endloop
  endfacet
  facet normal 0 -0.985395 0.170285
    outer loop
      vertex -5.35 -44.7549 0.4
      vertex 9.39899 -43.0655 10.176
      vertex -5.35 -43.0655 10.176
    endloop
  endfacet
  facet normal 0 -0.985395 0.170285
    outer loop
      vertex 9.39899 -43.0655 10.176
      vertex -5.35 -44.7549 0.4
      vertex 20.815 -43.0655 10.176
    endloop
  endfacet
  facet normal 0 -0.985395 0.170285
    outer loop
      vertex 35.647 -44.7549 0.4
      vertex 20.815 -43.0655 10.176
      vertex -5.35 -44.7549 0.4
    endloop
  endfacet
  facet normal 0 -0.985395 0.170285
    outer loop
      vertex 20.815 -43.0655 10.176
      vertex 35.647 -44.7549 0.4
      vertex 35.647 -43.0655 10.176
    endloop
  endfacet
  facet normal 0 -0.985395 0.170284
    outer loop
      vertex 9.39899 -43.0655 10.176
      vertex 20.815 -36.5071 48.128
      vertex 9.39899 -36.5071 48.128
    endloop
  endfacet
  facet normal 0 -0.985395 0.170284
    outer loop
      vertex 20.815 -36.5071 48.128
      vertex 9.39899 -43.0655 10.176
      vertex 20.815 -43.0655 10.176
    endloop
  endfacet
  facet normal 0 -0.985395 0.170285
    outer loop
      vertex 9.39899 -36.5071 48.128
      vertex -5.35 -34.826 57.856
      vertex -5.35 -36.5071 48.128
    endloop
  endfacet
  facet normal 0 -0.985395 0.170285
    outer loop
      vertex -5.35 -34.826 57.856
      vertex 9.39899 -36.5071 48.128
      vertex 35.647 -34.826 57.856
    endloop
  endfacet
  facet normal 0 -0.985395 0.170285
    outer loop
      vertex 20.815 -36.5071 48.128
      vertex 35.647 -34.826 57.856
      vertex 9.39899 -36.5071 48.128
    endloop
  endfacet
  facet normal 0 -0.985395 0.170285
    outer loop
      vertex 35.647 -34.826 57.856
      vertex 20.815 -36.5071 48.128
      vertex 35.647 -36.5071 48.128
    endloop
  endfacet
  facet normal 0 0.985391 -0.170305
    outer loop
      vertex 35.647 -34.0139 0.4
      vertex 20.815 -32.3243 10.176
      vertex 35.647 -32.3243 10.176
    endloop
  endfacet
  facet normal 0 0.985391 -0.170305
    outer loop
      vertex 20.815 -32.3243 10.176
      vertex 35.647 -34.0139 0.4
      vertex 9.39899 -32.3243 10.176
    endloop
  endfacet
  facet normal 0 0.985391 -0.170305
    outer loop
      vertex -5.35 -34.0139 0.4
      vertex 9.39899 -32.3243 10.176
      vertex 35.647 -34.0139 0.4
    endloop
  endfacet
  facet normal 0 0.985391 -0.170305
    outer loop
      vertex 9.39899 -32.3243 10.176
      vertex -5.35 -34.0139 0.4
      vertex -5.35 -32.3243 10.176
    endloop
  endfacet
  facet normal 0 0.985392 -0.170304
    outer loop
      vertex 20.815 -32.3243 10.176
      vertex 9.39899 -27.768 36.539
      vertex 20.815 -27.768 36.539
    endloop
  endfacet
  facet normal 0 0.985392 -0.170304
    outer loop
      vertex 9.39899 -27.768 36.539
      vertex 20.815 -32.3243 10.176
      vertex 9.39899 -32.3243 10.176
    endloop
  endfacet
  facet normal 0 0 -1
    outer loop
      vertex 9.39899 -20 19.99
      vertex 9.4 -11.509 19.99
      vertex 9.4 -20 19.99
    endloop
  endfacet
  facet normal -0 0 -1
    outer loop
      vertex 9.4 -11.509 19.99
      vertex 9.39899 -20 19.99
      vertex 9.39899 -11.509 19.99
    endloop
  endfacet
  facet normal 0 0 -1
    outer loop
      vertex 9.39899 -9.84693 19.99
      vertex 9.4 0 19.99
      vertex 9.4 -9.84693 19.99
    endloop
  endfacet
  facet normal -0 0 -1
    outer loop
      vertex 9.4 0 19.99
      vertex 9.39899 -9.84693 19.99
      vertex 9.39899 0 19.99
    endloop
  endfacet
  facet normal -1 0 0
    outer loop
      vertex 9.4 -10.68 17.502
      vertex 9.4 0 17.402
      vertex 9.4 -5.69307 0.4
    endloop
  endfacet
  facet normal -1 0 -0
    outer loop
      vertex 9.4 -9.84693 19.99
      vertex 9.4 0 17.402
      vertex 9.4 -10.68 17.502
    endloop
  endfacet
  facet normal -1 0 0
    outer loop
      vertex 9.4 0 17.402
      vertex 9.4 -9.84693 19.99
      vertex 9.4 0 19.99
    endloop
  endfacet
  facet normal -1 0 0
    outer loop
      vertex 9.4 -15.7263 0.4
      vertex 9.4 -10.68 17.502
      vertex 9.4 -5.69307 0.4
    endloop
  endfacet
  facet normal -1 0 0
    outer loop
      vertex 9.4 -10.68 17.502
      vertex 9.4 -15.7263 0.4
      vertex 9.4 -20 13.2261
    endloop
  endfacet
  facet normal -1 0 0
    outer loop
      vertex 9.4 -20 19.99
      vertex 9.4 -10.68 17.502
      vertex 9.4 -20 13.2261
    endloop
  endfacet
  facet normal -1 0 0
    outer loop
      vertex 9.4 -10.68 17.502
      vertex 9.4 -20 19.99
      vertex 9.4 -11.509 19.99
    endloop
  endfacet
  facet normal 0 1 -0
    outer loop
      vertex 9.4 -20 13.2261
      vertex 9.39899 -20 19.99
      vertex 9.4 -20 19.99
    endloop
  endfacet
  facet normal 0 1 0
    outer loop
      vertex 9.39899 -20 19.99
      vertex 9.4 -20 13.2261
      vertex 9.39899 -20 13.2261
    endloop
  endfacet
  facet normal 0 -1 0
    outer loop
      vertex 9.39899 0 17.402
      vertex 9.4 0 19.99
      vertex 9.39899 0 19.99
    endloop
  endfacet
  facet normal 0 -1 -0
    outer loop
      vertex 9.4 0 19.99
      vertex 9.39899 0 17.402
      vertex 9.4 0 17.402
    endloop
  endfacet
  facet normal 1 0 0
    outer loop
      vertex 20.83 -2.4196 10.176
      vertex 20.83 -15.7263 0.4
      vertex 20.83 -5.69307 0.4
    endloop
  endfacet
  facet normal 1 0 -0
    outer loop
      vertex 20.83 -15.7263 0.4
      vertex 20.83 -2.4196 10.176
      vertex 20.83 -18.9837 10.176
    endloop
  endfacet
  facet normal 0 0 -1
    outer loop
      vertex 35.647 12.5599 0.4
      vertex 35.047 13.1939 0.4
      vertex 35.647 23 0.4
    endloop
  endfacet
  facet normal 0 0 -1
    outer loop
      vertex 35.647 12.5599 0.4
      vertex -4.74998 13.1939 0.4
      vertex 35.047 13.1939 0.4
    endloop
  endfacet
  facet normal 0 0 -1
    outer loop
      vertex -5.35 23 0.4
      vertex -4.74998 13.1939 0.4
      vertex -5.35 12.5599 0.4
    endloop
  endfacet
  facet normal 0 0 -1
    outer loop
      vertex -5.35 12.5599 0.4
      vertex -4.74998 13.1939 0.4
      vertex 35.647 12.5599 0.4
    endloop
  endfacet
  facet normal 0 0 -1
    outer loop
      vertex 35.047 22.4 0.4
      vertex 35.647 23 0.4
      vertex 35.047 13.1939 0.4
    endloop
  endfacet
  facet normal 0 0 -1
    outer loop
      vertex -4.74998 22.4 0.4
      vertex 35.647 23 0.4
      vertex 35.047 22.4 0.4
    endloop
  endfacet
  facet normal 0 0 -1
    outer loop
      vertex -4.74998 22.4 0.4
      vertex -5.35 23 0.4
      vertex 35.647 23 0.4
    endloop
  endfacet
  facet normal 0 0 -1
    outer loop
      vertex -4.74998 13.1939 0.4
      vertex -5.35 23 0.4
      vertex -4.74998 22.4 0.4
    endloop
  endfacet
  facet normal 0 0 -1
    outer loop
      vertex 35.047 -34.6484 0.4
      vertex 35.647 -44.7549 0.4
      vertex 35.047 -44.1894 0.4
    endloop
  endfacet
  facet normal 0 0 -1
    outer loop
      vertex 35.647 -44.7549 0.4
      vertex -4.74998 -44.1894 0.4
      vertex 35.047 -44.1894 0.4
    endloop
  endfacet
  facet normal -0 0 -1
    outer loop
      vertex -4.74998 -44.1894 0.4
      vertex -5.35 -44.7549 0.4
      vertex -4.74998 -34.6484 0.4
    endloop
  endfacet
  facet normal 0 0 -1
    outer loop
      vertex -5.35 -44.7549 0.4
      vertex -4.74998 -44.1894 0.4
      vertex 35.647 -44.7549 0.4
    endloop
  endfacet
  facet normal 0 0 -1
    outer loop
      vertex 35.647 -44.7549 0.4
      vertex 35.047 -34.6484 0.4
      vertex 35.647 -34.0139 0.4
    endloop
  endfacet
  facet normal 0 0 -1
    outer loop
      vertex -4.74998 -34.6484 0.4
      vertex 35.647 -34.0139 0.4
      vertex 35.047 -34.6484 0.4
    endloop
  endfacet
  facet normal 0 0 -1
    outer loop
      vertex -4.74998 -34.6484 0.4
      vertex -5.35 -34.0139 0.4
      vertex 35.647 -34.0139 0.4
    endloop
  endfacet
  facet normal 0 0 -1
    outer loop
      vertex -5.35 -34.0139 0.4
      vertex -4.74998 -34.6484 0.4
      vertex -5.35 -44.7549 0.4
    endloop
  endfacet
  facet normal 0 0 -1
    outer loop
      vertex 20.83 -15.7263 0.4
      vertex 20.23 -15.0596 0.4
      vertex 20.83 -5.69307 0.4
    endloop
  endfacet
  facet normal 0 0 -1
    outer loop
      vertex 20.83 -15.7263 0.4
      vertex 10 -15.0596 0.4
      vertex 20.23 -15.0596 0.4
    endloop
  endfacet
  facet normal -0 0 -1
    outer loop
      vertex 10 -15.0596 0.4
      vertex 9.4 -15.7263 0.4
      vertex 10 -6.36005 0.4
    endloop
  endfacet
  facet normal 0 0 -1
    outer loop
      vertex 9.4 -15.7263 0.4
      vertex 10 -15.0596 0.4
      vertex 20.83 -15.7263 0.4
    endloop
  endfacet
  facet normal 0 0 -1
    outer loop
      vertex 20.23 -6.36005 0.4
      vertex 20.83 -5.69307 0.4
      vertex 20.23 -15.0596 0.4
    endloop
  endfacet
  facet normal 0 0 -1
    outer loop
      vertex 10 -6.36005 0.4
      vertex 20.83 -5.69307 0.4
      vertex 20.23 -6.36005 0.4
    endloop
  endfacet
  facet normal 0 0 -1
    outer loop
      vertex 10 -6.36005 0.4
      vertex 9.4 -5.69307 0.4
      vertex 20.83 -5.69307 0.4
    endloop
  endfacet
  facet normal 0 0 -1
    outer loop
      vertex 9.4 -5.69307 0.4
      vertex 10 -6.36005 0.4
      vertex 9.4 -15.7263 0.4
    endloop
  endfacet
  facet normal 0 0 -1
    outer loop
      vertex -4.74998 13.1939 0
      vertex 35.047 22.4 0
      vertex 35.047 13.1939 0
    endloop
  endfacet
  facet normal -0 0 -1
    outer loop
      vertex 35.047 22.4 0
      vertex -4.74998 13.1939 0
      vertex -4.74998 22.4 0
    endloop
  endfacet
  facet normal 0 0 -1
    outer loop
      vertex 10 -15.0596 0
      vertex 20.23 -6.36005 0
      vertex 20.23 -15.0596 0
    endloop
  endfacet
  facet normal -0 0 -1
    outer loop
      vertex 20.23 -6.36005 0
      vertex 10 -15.0596 0
      vertex 10 -6.36005 0
    endloop
  endfacet
  facet normal 0 0 -1
    outer loop
      vertex -4.74998 -44.1894 0
      vertex 35.047 -34.6484 0
      vertex 35.047 -44.1894 0
    endloop
  endfacet
  facet normal -0 0 -1
    outer loop
      vertex 35.047 -34.6484 0
      vertex -4.74998 -44.1894 0
      vertex -4.74998 -34.6484 0
    endloop
  endfacet
  facet normal 0 1 -0
    outer loop
      vertex 35.047 22.4 0
      vertex -4.74998 22.4 0.4
      vertex 35.047 22.4 0.4
    endloop
  endfacet
  facet normal 0 1 0
    outer loop
      vertex -4.74998 22.4 0.4
      vertex 35.047 22.4 0
      vertex -4.74998 22.4 0
    endloop
  endfacet
  facet normal -1 0 0
    outer loop
      vertex -4.74998 13.1939 0
      vertex -4.74998 22.4 0.4
      vertex -4.74998 22.4 0
    endloop
  endfacet
  facet normal -1 -0 0
    outer loop
      vertex -4.74998 22.4 0.4
      vertex -4.74998 13.1939 0
      vertex -4.74998 13.1939 0.4
    endloop
  endfacet
  facet normal 0 -1 0
    outer loop
      vertex -4.74998 13.1939 0
      vertex 35.047 13.1939 0.4
      vertex -4.74998 13.1939 0.4
    endloop
  endfacet
  facet normal 0 -1 -0
    outer loop
      vertex 35.047 13.1939 0.4
      vertex -4.74998 13.1939 0
      vertex 35.047 13.1939 0
    endloop
  endfacet
  facet normal 1 -0 0
    outer loop
      vertex 35.047 13.1939 0.4
      vertex 35.047 22.4 0
      vertex 35.047 22.4 0.4
    endloop
  endfacet
  facet normal 1 0 0
    outer loop
      vertex 35.047 22.4 0
      vertex 35.047 13.1939 0.4
      vertex 35.047 13.1939 0
    endloop
  endfacet
  facet normal 0 1 -0
    outer loop
      vertex 20.23 -6.36005 0
      vertex 10 -6.36005 0.4
      vertex 20.23 -6.36005 0.4
    endloop
  endfacet
  facet normal 0 1 0
    outer loop
      vertex 10 -6.36005 0.4
      vertex 20.23 -6.36005 0
      vertex 10 -6.36005 0
    endloop
  endfacet
  facet normal -1 0 0
    outer loop
      vertex 10 -15.0596 0
      vertex 10 -6.36005 0.4
      vertex 10 -6.36005 0
    endloop
  endfacet
  facet normal -1 -0 0
    outer loop
      vertex 10 -6.36005 0.4
      vertex 10 -15.0596 0
      vertex 10 -15.0596 0.4
    endloop
  endfacet
  facet normal 0 -1 0
    outer loop
      vertex 10 -15.0596 0
      vertex 20.23 -15.0596 0.4
      vertex 10 -15.0596 0.4
    endloop
  endfacet
  facet normal 0 -1 -0
    outer loop
      vertex 20.23 -15.0596 0.4
      vertex 10 -15.0596 0
      vertex 20.23 -15.0596 0
    endloop
  endfacet
  facet normal 1 -0 0
    outer loop
      vertex 20.23 -15.0596 0.4
      vertex 20.23 -6.36005 0
      vertex 20.23 -6.36005 0.4
    endloop
  endfacet
  facet normal 1 0 0
    outer loop
      vertex 20.23 -6.36005 0
      vertex 20.23 -15.0596 0.4
      vertex 20.23 -15.0596 0
    endloop
  endfacet
  facet normal 0 1 -0
    outer loop
      vertex 35.047 -34.6484 0
      vertex -4.74998 -34.6484 0.4
      vertex 35.047 -34.6484 0.4
    endloop
  endfacet
  facet normal 0 1 0
    outer loop
      vertex -4.74998 -34.6484 0.4
      vertex 35.047 -34.6484 0
      vertex -4.74998 -34.6484 0
    endloop
  endfacet
  facet normal -1 0 0
    outer loop
      vertex -4.74998 -44.1894 0
      vertex -4.74998 -34.6484 0.4
      vertex -4.74998 -34.6484 0
    endloop
  endfacet
  facet normal -1 -0 0
    outer loop
      vertex -4.74998 -34.6484 0.4
      vertex -4.74998 -44.1894 0
      vertex -4.74998 -44.1894 0.4
    endloop
  endfacet
  facet normal 0 -1 0
    outer loop
      vertex -4.74998 -44.1894 0
      vertex 35.047 -44.1894 0.4
      vertex -4.74998 -44.1894 0.4
    endloop
  endfacet
  facet normal 0 -1 -0
    outer loop
      vertex 35.047 -44.1894 0.4
      vertex -4.74998 -44.1894 0
      vertex 35.047 -44.1894 0
    endloop
  endfacet
  facet normal 1 -0 0
    outer loop
      vertex 35.047 -44.1894 0.4
      vertex 35.047 -34.6484 0
      vertex 35.047 -34.6484 0.4
    endloop
  endfacet
  facet normal 1 0 0
    outer loop
      vertex 35.047 -34.6484 0
      vertex 35.047 -44.1894 0.4
      vertex 35.047 -44.1894 0
    endloop
  endfacet
endsolid OpenSCAD_Model
