solid OpenSCAD_Model
  facet normal -0 0 1
    outer loop
      vertex 0 0.6 0.2
      vertex 10 0 0.2
      vertex 10 0.6 0.2
    endloop
  endfacet
  facet normal 0 0 1
    outer loop
      vertex 10 0 0.2
      vertex 0 0.6 0.2
      vertex 0 0 0.2
    endloop
  endfacet
  facet normal 0 0 -1
    outer loop
      vertex 0 0 0
      vertex 10 0.6 0
      vertex 10 0 0
    endloop
  endfacet
  facet normal -0 0 -1
    outer loop
      vertex 10 0.6 0
      vertex 0 0 0
      vertex 0 0.6 0
    endloop
  endfacet
  facet normal 0 -1 0
    outer loop
      vertex 0 0 0
      vertex 10 0 0.2
      vertex 0 0 0.2
    endloop
  endfacet
  facet normal 0 -1 -0
    outer loop
      vertex 10 0 0.2
      vertex 0 0 0
      vertex 10 0 0
    endloop
  endfacet
  facet normal 1 -0 0
    outer loop
      vertex 10 0 0.2
      vertex 10 0.6 0
      vertex 10 0.6 0.2
    endloop
  endfacet
  facet normal 1 0 0
    outer loop
      vertex 10 0.6 0
      vertex 10 0 0.2
      vertex 10 0 0
    endloop
  endfacet
  facet normal 0 1 -0
    outer loop
      vertex 10 0.6 0
      vertex 0 0.6 0.2
      vertex 10 0.6 0.2
    endloop
  endfacet
  facet normal 0 1 0
    outer loop
      vertex 0 0.6 0.2
      vertex 10 0.6 0
      vertex 0 0.6 0
    endloop
  endfacet
  facet normal -1 0 0
    outer loop
      vertex 0 0 0
      vertex 0 0.6 0.2
      vertex 0 0.6 0
    endloop
  endfacet
  facet normal -1 -0 0
    outer loop
      vertex 0 0.6 0.2
      vertex 0 0 0
      vertex 0 0 0.2
    endloop
  endfacet
endsolid OpenSCAD_Model
