solid OpenSCAD_Model
  facet normal 0 0 -1
    outer loop
      vertex 15 12 0
      vertex 13.65 4.04999 0
      vertex 13.65 11.2 0
    endloop
  endfacet
  facet normal -0 -0 -1
    outer loop
      vertex 11.8618 2.20979 0
      vertex 12.5 0 0
      vertex 1.21179 2.20979 0
    endloop
  endfacet
  facet normal 0 0 -1
    outer loop
      vertex 15 2.5 0
      vertex 12.5 0 0
      vertex 11.8618 2.20979 0
    endloop
  endfacet
  facet normal -0 0 -1
    outer loop
      vertex 15 2.5 0
      vertex 11.8618 2.20979 0
      vertex 13.5118 3.85979 0
    endloop
  endfacet
  facet normal 0 0 -1
    outer loop
      vertex 12.5 0 0
      vertex 0 0 0
      vertex 1.21179 2.20979 0
    endloop
  endfacet
  facet normal -0 0 -1
    outer loop
      vertex 1.21179 2.20979 0
      vertex 0 0 0
      vertex 0.988205 2.28244 0
    endloop
  endfacet
  facet normal -0 0 -1
    outer loop
      vertex 0.988205 2.28244 0
      vertex 0 0 0
      vertex 0 12 0
    endloop
  endfacet
  facet normal -0 -0 -1
    outer loop
      vertex 0.988205 11.3175 0
      vertex 0.988205 2.28244 0
      vertex 0 12 0
    endloop
  endfacet
  facet normal 0 0 -1
    outer loop
      vertex 13.5118 11.3902 0
      vertex 1.21179 11.3902 0
      vertex 0 12 0
    endloop
  endfacet
  facet normal -0 0 -1
    outer loop
      vertex 1.21179 11.3902 0
      vertex 0.988205 11.3175 0
      vertex 0 12 0
    endloop
  endfacet
  facet normal -0 0 -1
    outer loop
      vertex 15 12 0
      vertex 13.5118 11.3902 0
      vertex 0 12 0
    endloop
  endfacet
  facet normal 0 0 -1
    outer loop
      vertex 15 12 0
      vertex 13.65 11.2 0
      vertex 13.5118 11.3902 0
    endloop
  endfacet
  facet normal 0 0 -1
    outer loop
      vertex 15 2.5 0
      vertex 13.65 4.04999 0
      vertex 15 12 0
    endloop
  endfacet
  facet normal 0 0 -1
    outer loop
      vertex 15 2.5 0
      vertex 13.5118 3.85979 0
      vertex 13.65 4.04999 0
    endloop
  endfacet
  facet normal -0 0 1
    outer loop
      vertex 13.65 11.2 0.67
      vertex 13.65 4.04999 0.67
      vertex 15 12 0.67
    endloop
  endfacet
  facet normal -0 0 1
    outer loop
      vertex 1.21179 2.20979 0.67
      vertex 12.5 0 0.67
      vertex 11.8618 2.20979 0.67
    endloop
  endfacet
  facet normal -0 0 1
    outer loop
      vertex 11.8618 2.20979 0.67
      vertex 12.5 0 0.67
      vertex 15 2.5 0.67
    endloop
  endfacet
  facet normal 0 0 1
    outer loop
      vertex 13.5118 3.85979 0.67
      vertex 11.8618 2.20979 0.67
      vertex 15 2.5 0.67
    endloop
  endfacet
  facet normal 0 0 1
    outer loop
      vertex 1.21179 2.20979 0.67
      vertex 0 0 0.67
      vertex 12.5 0 0.67
    endloop
  endfacet
  facet normal 0 0 1
    outer loop
      vertex 0.988205 2.28244 0.67
      vertex 0 0 0.67
      vertex 1.21179 2.20979 0.67
    endloop
  endfacet
  facet normal 0 0 1
    outer loop
      vertex 0 12 0.67
      vertex 0 0 0.67
      vertex 0.988205 2.28244 0.67
    endloop
  endfacet
  facet normal 0 0 1
    outer loop
      vertex 0 12 0.67
      vertex 0.988205 2.28244 0.67
      vertex 0.988205 11.3175 0.67
    endloop
  endfacet
  facet normal 0 0 1
    outer loop
      vertex 0 12 0.67
      vertex 1.21179 11.3902 0.67
      vertex 13.5118 11.3902 0.67
    endloop
  endfacet
  facet normal 0 0 1
    outer loop
      vertex 0 12 0.67
      vertex 0.988205 11.3175 0.67
      vertex 1.21179 11.3902 0.67
    endloop
  endfacet
  facet normal -0 0 1
    outer loop
      vertex 0 12 0.67
      vertex 13.5118 11.3902 0.67
      vertex 15 12 0.67
    endloop
  endfacet
  facet normal -0 0 1
    outer loop
      vertex 13.5118 11.3902 0.67
      vertex 13.65 11.2 0.67
      vertex 15 12 0.67
    endloop
  endfacet
  facet normal 0 0 1
    outer loop
      vertex 15 12 0.67
      vertex 13.65 4.04999 0.67
      vertex 15 2.5 0.67
    endloop
  endfacet
  facet normal 0 0 1
    outer loop
      vertex 13.65 4.04999 0.67
      vertex 13.5118 3.85979 0.67
      vertex 15 2.5 0.67
    endloop
  endfacet
  facet normal 1 0 0
    outer loop
      vertex 15 12 0
      vertex 15 2.5 0.67
      vertex 15 2.5 0
    endloop
  endfacet
  facet normal 1 0 -0
    outer loop
      vertex 15 12 0
      vertex 15 12 0.67
      vertex 15 2.5 0.67
    endloop
  endfacet
  facet normal 0 1 0
    outer loop
      vertex 0 12 0
      vertex 15 12 0.67
      vertex 15 12 0
    endloop
  endfacet
  facet normal 0 1 0
    outer loop
      vertex 0 12 0
      vertex 0 12 0.67
      vertex 15 12 0.67
    endloop
  endfacet
  facet normal -1 0 0
    outer loop
      vertex 0 0 0
      vertex 0 12 0.67
      vertex 0 12 0
    endloop
  endfacet
  facet normal -1 0 0
    outer loop
      vertex 0 0 0
      vertex 0 0 0.67
      vertex 0 12 0.67
    endloop
  endfacet
  facet normal 0 -1 0
    outer loop
      vertex 12.5 0 0
      vertex 0 0 0.67
      vertex 0 0 0
    endloop
  endfacet
  facet normal 0 -1 0
    outer loop
      vertex 12.5 0 0
      vertex 12.5 0 0.67
      vertex 0 0 0.67
    endloop
  endfacet
  facet normal 0.707107 -0.707107 0
    outer loop
      vertex 15 2.5 0
      vertex 12.5 0 0.67
      vertex 12.5 0 0
    endloop
  endfacet
  facet normal 0.707107 -0.707107 0
    outer loop
      vertex 15 2.5 0
      vertex 15 2.5 0.67
      vertex 12.5 0 0.67
    endloop
  endfacet
  facet normal 0.309014 0.951057 -0
    outer loop
      vertex 0.988205 2.28244 0
      vertex 0.988205 2.28244 0.67
      vertex 1.21179 2.20979 0
    endloop
  endfacet
  facet normal 0.309014 0.951057 0
    outer loop
      vertex 1.21179 2.20979 0.67
      vertex 1.21179 2.20979 0
      vertex 0.988205 2.28244 0.67
    endloop
  endfacet
  facet normal 1 0 -0
    outer loop
      vertex 0.988205 11.3175 0
      vertex 0.988205 11.3175 0.67
      vertex 0.988205 2.28244 0
    endloop
  endfacet
  facet normal 1 -0 0
    outer loop
      vertex 0.988205 2.28244 0.67
      vertex 0.988205 2.28244 0
      vertex 0.988205 11.3175 0.67
    endloop
  endfacet
  facet normal 0.309014 -0.951057 0
    outer loop
      vertex 1.21179 11.3902 0
      vertex 1.21179 11.3902 0.67
      vertex 0.988205 11.3175 0
    endloop
  endfacet
  facet normal 0.309014 -0.951057 0
    outer loop
      vertex 0.988205 11.3175 0.67
      vertex 0.988205 11.3175 0
      vertex 1.21179 11.3902 0.67
    endloop
  endfacet
  facet normal 0 -1 0
    outer loop
      vertex 13.5118 11.3902 0
      vertex 13.5118 11.3902 0.67
      vertex 1.21179 11.3902 0
    endloop
  endfacet
  facet normal 0 -1 0
    outer loop
      vertex 1.21179 11.3902 0.67
      vertex 1.21179 11.3902 0
      vertex 13.5118 11.3902 0.67
    endloop
  endfacet
  facet normal -0.808997 -0.587813 0
    outer loop
      vertex 13.65 11.2 0
      vertex 13.65 11.2 0.67
      vertex 13.5118 11.3902 0
    endloop
  endfacet
  facet normal -0.808997 -0.587813 -0
    outer loop
      vertex 13.5118 11.3902 0.67
      vertex 13.5118 11.3902 0
      vertex 13.65 11.2 0.67
    endloop
  endfacet
  facet normal -1 0 0
    outer loop
      vertex 13.65 4.04999 0
      vertex 13.65 4.04999 0.67
      vertex 13.65 11.2 0
    endloop
  endfacet
  facet normal -1 -0 -0
    outer loop
      vertex 13.65 11.2 0.67
      vertex 13.65 11.2 0
      vertex 13.65 4.04999 0.67
    endloop
  endfacet
  facet normal -0.808997 0.587813 0
    outer loop
      vertex 13.5118 3.85979 0
      vertex 13.5118 3.85979 0.67
      vertex 13.65 4.04999 0
    endloop
  endfacet
  facet normal -0.808997 0.587813 0
    outer loop
      vertex 13.65 4.04999 0.67
      vertex 13.65 4.04999 0
      vertex 13.5118 3.85979 0.67
    endloop
  endfacet
  facet normal -0.707107 0.707107 0
    outer loop
      vertex 11.8618 2.20979 0
      vertex 11.8618 2.20979 0.67
      vertex 13.5118 3.85979 0
    endloop
  endfacet
  facet normal -0.707107 0.707107 0
    outer loop
      vertex 13.5118 3.85979 0.67
      vertex 13.5118 3.85979 0
      vertex 11.8618 2.20979 0.67
    endloop
  endfacet
  facet normal 0 1 0
    outer loop
      vertex 1.21179 2.20979 0
      vertex 1.21179 2.20979 0.67
      vertex 11.8618 2.20979 0
    endloop
  endfacet
  facet normal 0 1 0
    outer loop
      vertex 11.8618 2.20979 0.67
      vertex 11.8618 2.20979 0
      vertex 1.21179 2.20979 0.67
    endloop
  endfacet
endsolid OpenSCAD_Model
