solid OpenSCAD_Model
  facet normal -2.22045e-16 1 0
    outer loop
      vertex 34 7.54952e-15 8
      vertex 30 6.66134e-15 4
      vertex 30 6.66134e-15 8
    endloop
  endfacet
  facet normal -2.22045e-16 1 0
    outer loop
      vertex 34 7.54952e-15 0
      vertex 28 6.21725e-15 4
      vertex 30 6.66134e-15 4
    endloop
  endfacet
  facet normal -2.22045e-16 1 0
    outer loop
      vertex 28 6.21725e-15 4
      vertex 34 7.54952e-15 0
      vertex 24 5.32907e-15 4
    endloop
  endfacet
  facet normal -2.22045e-16 1 0
    outer loop
      vertex 24 5.32907e-15 4
      vertex 34 7.54952e-15 0
      vertex 22 4.88498e-15 4
    endloop
  endfacet
  facet normal -2.22045e-16 1 0
    outer loop
      vertex 22 4.88498e-15 4
      vertex 34 7.54952e-15 0
      vertex 18 3.9968e-15 4
    endloop
  endfacet
  facet normal -2.22045e-16 1 0
    outer loop
      vertex 18 3.9968e-15 4
      vertex 34 7.54952e-15 0
      vertex 16 3.55271e-15 4
    endloop
  endfacet
  facet normal -2.22045e-16 1 0
    outer loop
      vertex 0 0 0
      vertex 16 3.55271e-15 4
      vertex 34 7.54952e-15 0
    endloop
  endfacet
  facet normal -2.22045e-16 1 0
    outer loop
      vertex 16 3.55271e-15 4
      vertex 0 0 0
      vertex 12 2.66454e-15 4
    endloop
  endfacet
  facet normal -2.22045e-16 1 0
    outer loop
      vertex 12 2.66454e-15 4
      vertex 0 0 0
      vertex 10 2.22045e-15 4
    endloop
  endfacet
  facet normal -2.22045e-16 1 0
    outer loop
      vertex 10 2.22045e-15 4
      vertex 0 0 0
      vertex 6 1.33227e-15 4
    endloop
  endfacet
  facet normal -2.22045e-16 1 0
    outer loop
      vertex 34 7.54952e-15 0
      vertex 30 6.66134e-15 4
      vertex 34 7.54952e-15 8
    endloop
  endfacet
  facet normal -2.22045e-16 1 0
    outer loop
      vertex 28 6.21725e-15 4
      vertex 24 5.32907e-15 8
      vertex 28 6.21725e-15 8
    endloop
  endfacet
  facet normal -2.22045e-16 1 0
    outer loop
      vertex 24 5.32907e-15 8
      vertex 28 6.21725e-15 4
      vertex 24 5.32907e-15 4
    endloop
  endfacet
  facet normal -2.22045e-16 1 0
    outer loop
      vertex 22 4.88498e-15 4
      vertex 18 3.9968e-15 8
      vertex 22 4.88498e-15 8
    endloop
  endfacet
  facet normal -2.22045e-16 1 0
    outer loop
      vertex 18 3.9968e-15 8
      vertex 22 4.88498e-15 4
      vertex 18 3.9968e-15 4
    endloop
  endfacet
  facet normal -2.22045e-16 1 0
    outer loop
      vertex 16 3.55271e-15 4
      vertex 12 2.66454e-15 8
      vertex 16 3.55271e-15 8
    endloop
  endfacet
  facet normal -2.22045e-16 1 0
    outer loop
      vertex 12 2.66454e-15 8
      vertex 16 3.55271e-15 4
      vertex 12 2.66454e-15 4
    endloop
  endfacet
  facet normal -2.22045e-16 1 0
    outer loop
      vertex 10 2.22045e-15 4
      vertex 6 1.33227e-15 8
      vertex 10 2.22045e-15 8
    endloop
  endfacet
  facet normal -2.22045e-16 1 0
    outer loop
      vertex 6 1.33227e-15 8
      vertex 10 2.22045e-15 4
      vertex 6 1.33227e-15 4
    endloop
  endfacet
  facet normal -2.22045e-16 1 0
    outer loop
      vertex 4 8.88178e-16 4
      vertex 0 0 8
      vertex 4 8.88178e-16 8
    endloop
  endfacet
  facet normal -2.22045e-16 1 0
    outer loop
      vertex 4 8.88178e-16 4
      vertex 0 0 0
      vertex 0 0 8
    endloop
  endfacet
  facet normal -2.22045e-16 1 0
    outer loop
      vertex 6 1.33227e-15 4
      vertex 0 0 0
      vertex 4 8.88178e-16 4
    endloop
  endfacet
  facet normal 0 0 -1
    outer loop
      vertex 4 -10 0
      vertex 2.22045e-15 -10 0
      vertex 4 -6 0
    endloop
  endfacet
  facet normal 0 0 -1
    outer loop
      vertex 10 -10 0
      vertex 6 -10 0
      vertex 10 -6 0
    endloop
  endfacet
  facet normal 0 0 -1
    outer loop
      vertex 16 -10 0
      vertex 12 -10 0
      vertex 16 -6 0
    endloop
  endfacet
  facet normal 0 0 -1
    outer loop
      vertex 22 -10 0
      vertex 18 -10 0
      vertex 22 -6 0
    endloop
  endfacet
  facet normal 0 0 -1
    outer loop
      vertex 28 -10 0
      vertex 24 -10 0
      vertex 28 -6 0
    endloop
  endfacet
  facet normal 0 0 -1
    outer loop
      vertex 30 -6 0
      vertex 34 -10 0
      vertex 30 -10 0
    endloop
  endfacet
  facet normal 0 0 -1
    outer loop
      vertex 34 -10 0
      vertex 30 -6 0
      vertex 34 7.54952e-15 0
    endloop
  endfacet
  facet normal 0 0 -1
    outer loop
      vertex 28 -6 0
      vertex 34 7.54952e-15 0
      vertex 30 -6 0
    endloop
  endfacet
  facet normal 0 0 -1
    outer loop
      vertex 24 -6 0
      vertex 28 -6 0
      vertex 24 -10 0
    endloop
  endfacet
  facet normal 0 0 -1
    outer loop
      vertex 28 -6 0
      vertex 24 -6 0
      vertex 34 7.54952e-15 0
    endloop
  endfacet
  facet normal 0 0 -1
    outer loop
      vertex 22 -6 0
      vertex 34 7.54952e-15 0
      vertex 24 -6 0
    endloop
  endfacet
  facet normal 0 0 -1
    outer loop
      vertex 18 -6 0
      vertex 22 -6 0
      vertex 18 -10 0
    endloop
  endfacet
  facet normal 0 0 -1
    outer loop
      vertex 18 -6 0
      vertex 34 7.54952e-15 0
      vertex 22 -6 0
    endloop
  endfacet
  facet normal 0 0 -1
    outer loop
      vertex 16 -6 0
      vertex 34 7.54952e-15 0
      vertex 18 -6 0
    endloop
  endfacet
  facet normal 0 0 -1
    outer loop
      vertex 12 -6 0
      vertex 16 -6 0
      vertex 12 -10 0
    endloop
  endfacet
  facet normal 0 0 -1
    outer loop
      vertex 0 0 0
      vertex 16 -6 0
      vertex 12 -6 0
    endloop
  endfacet
  facet normal 0 0 -1
    outer loop
      vertex 0 0 0
      vertex 12 -6 0
      vertex 10 -6 0
    endloop
  endfacet
  facet normal 0 0 -1
    outer loop
      vertex 6 -6 0
      vertex 10 -6 0
      vertex 6 -10 0
    endloop
  endfacet
  facet normal 0 0 -1
    outer loop
      vertex 0 0 0
      vertex 10 -6 0
      vertex 6 -6 0
    endloop
  endfacet
  facet normal 0 0 -1
    outer loop
      vertex 0 0 0
      vertex 6 -6 0
      vertex 4 -6 0
    endloop
  endfacet
  facet normal 0 0 -1
    outer loop
      vertex 16 -6 0
      vertex 0 0 0
      vertex 34 7.54952e-15 0
    endloop
  endfacet
  facet normal 0 0 -1
    outer loop
      vertex 0 0 0
      vertex 4 -6 0
      vertex 2.22045e-15 -10 0
    endloop
  endfacet
  facet normal -1 -2.22045e-16 0
    outer loop
      vertex 2.22045e-15 -10 0
      vertex 0 0 8
      vertex 0 0 0
    endloop
  endfacet
  facet normal -1 -2.22045e-16 -0
    outer loop
      vertex 6.02986e-15 -27.1561 8
      vertex 2.22045e-15 -10 0
      vertex 6.02986e-15 -27.1561 7.99
    endloop
  endfacet
  facet normal -1 -2.22045e-16 0
    outer loop
      vertex 2.22045e-15 -10 0
      vertex 6.02986e-15 -27.1561 8
      vertex 0 0 8
    endloop
  endfacet
  facet normal 0 0 1
    outer loop
      vertex 4 8.88178e-16 8
      vertex 6.02986e-15 -27.1561 8
      vertex 4 -27.1561 8
    endloop
  endfacet
  facet normal 0 -0 1
    outer loop
      vertex 6.02986e-15 -27.1561 8
      vertex 4 8.88178e-16 8
      vertex 0 0 8
    endloop
  endfacet
  facet normal 1 0 0
    outer loop
      vertex 4 8.88178e-16 8
      vertex 4 -6 4
      vertex 4 8.88178e-16 4
    endloop
  endfacet
  facet normal 1 0 0
    outer loop
      vertex 4 -6 4
      vertex 4 -10 0
      vertex 4 -6 0
    endloop
  endfacet
  facet normal 1 -0 0
    outer loop
      vertex 4 -27.1561 8
      vertex 4 -6 4
      vertex 4 8.88178e-16 8
    endloop
  endfacet
  facet normal 1 0 0
    outer loop
      vertex 4 -27.1561 8
      vertex 4 -10 0
      vertex 4 -6 4
    endloop
  endfacet
  facet normal 1 0 0
    outer loop
      vertex 4 -10 0
      vertex 4 -27.1561 8
      vertex 4 -27.1561 7.99
    endloop
  endfacet
  facet normal 4.76837e-07 -1 0
    outer loop
      vertex 6.02986e-15 -27.1561 7.99
      vertex 4 -27.1561 8
      vertex 6.02986e-15 -27.1561 8
    endloop
  endfacet
  facet normal 4.76837e-07 -1 0
    outer loop
      vertex 4 -27.1561 8
      vertex 6.02986e-15 -27.1561 7.99
      vertex 4 -27.1561 7.99
    endloop
  endfacet
  facet normal 2.01313e-07 -0.422184 -0.90651
    outer loop
      vertex 6.02986e-15 -27.1561 7.99
      vertex 4 -10 0
      vertex 4 -27.1561 7.99
    endloop
  endfacet
  facet normal -0 -0.422184 -0.90651
    outer loop
      vertex 4 -10 0
      vertex 6.02986e-15 -27.1561 7.99
      vertex 2.22045e-15 -10 0
    endloop
  endfacet
  facet normal -1 0 0
    outer loop
      vertex 6 -6 0
      vertex 6 -10 0
      vertex 6 -6 4
    endloop
  endfacet
  facet normal -1 0 0
    outer loop
      vertex 6 -6 4
      vertex 6 1.33227e-15 8
      vertex 6 1.33227e-15 4
    endloop
  endfacet
  facet normal -1 0 0
    outer loop
      vertex 6 -23.8564 8
      vertex 6 -10 0
      vertex 6 -23.8564 7.99
    endloop
  endfacet
  facet normal -1 0 0
    outer loop
      vertex 6 -10 0
      vertex 6 -23.8564 8
      vertex 6 -6 4
    endloop
  endfacet
  facet normal -1 0 0
    outer loop
      vertex 6 -6 4
      vertex 6 -23.8564 8
      vertex 6 1.33227e-15 8
    endloop
  endfacet
  facet normal -0 0 1
    outer loop
      vertex 6 1.33227e-15 8
      vertex 10 -23.8564 8
      vertex 10 2.22045e-15 8
    endloop
  endfacet
  facet normal 0 0 1
    outer loop
      vertex 10 -23.8564 8
      vertex 6 1.33227e-15 8
      vertex 6 -23.8564 8
    endloop
  endfacet
  facet normal 1 0 0
    outer loop
      vertex 10 2.22045e-15 8
      vertex 10 -6 4
      vertex 10 2.22045e-15 4
    endloop
  endfacet
  facet normal 1 0 0
    outer loop
      vertex 10 -6 4
      vertex 10 -10 0
      vertex 10 -6 0
    endloop
  endfacet
  facet normal 1 -0 0
    outer loop
      vertex 10 -23.8564 8
      vertex 10 -6 4
      vertex 10 2.22045e-15 8
    endloop
  endfacet
  facet normal 1 0 0
    outer loop
      vertex 10 -23.8564 8
      vertex 10 -10 0
      vertex 10 -6 4
    endloop
  endfacet
  facet normal 1 0 0
    outer loop
      vertex 10 -10 0
      vertex 10 -23.8564 8
      vertex 10 -23.8564 7.99
    endloop
  endfacet
  facet normal 0 -1 0
    outer loop
      vertex 6 -23.8564 7.99
      vertex 10 -23.8564 8
      vertex 6 -23.8564 8
    endloop
  endfacet
  facet normal 0 -1 -0
    outer loop
      vertex 10 -23.8564 8
      vertex 6 -23.8564 7.99
      vertex 10 -23.8564 7.99
    endloop
  endfacet
  facet normal 0 -0.499531 -0.866296
    outer loop
      vertex 6 -23.8564 7.99
      vertex 10 -10 0
      vertex 10 -23.8564 7.99
    endloop
  endfacet
  facet normal -0 -0.499531 -0.866296
    outer loop
      vertex 10 -10 0
      vertex 6 -23.8564 7.99
      vertex 6 -10 0
    endloop
  endfacet
  facet normal -1 0 0
    outer loop
      vertex 12 -6 0
      vertex 12 -10 0
      vertex 12 -6 4
    endloop
  endfacet
  facet normal -1 0 0
    outer loop
      vertex 12 -6 4
      vertex 12 2.66454e-15 8
      vertex 12 2.66454e-15 4
    endloop
  endfacet
  facet normal -1 0 0
    outer loop
      vertex 12 -21.4252 7.99
      vertex 12 -6 4
      vertex 12 -10 0
    endloop
  endfacet
  facet normal -1 0 0
    outer loop
      vertex 12 -21.4252 8
      vertex 12 -6 4
      vertex 12 -21.4252 7.99
    endloop
  endfacet
  facet normal -1 0 0
    outer loop
      vertex 12 -6 4
      vertex 12 -21.4252 8
      vertex 12 2.66454e-15 8
    endloop
  endfacet
  facet normal -0 0 1
    outer loop
      vertex 12 2.66454e-15 8
      vertex 16 -21.4252 8
      vertex 16 3.55271e-15 8
    endloop
  endfacet
  facet normal 0 0 1
    outer loop
      vertex 16 -21.4252 8
      vertex 12 2.66454e-15 8
      vertex 12 -21.4252 8
    endloop
  endfacet
  facet normal 1 0 0
    outer loop
      vertex 16 3.55271e-15 8
      vertex 16 -6 4
      vertex 16 3.55271e-15 4
    endloop
  endfacet
  facet normal 1 0 0
    outer loop
      vertex 16 -6 4
      vertex 16 -10 0
      vertex 16 -6 0
    endloop
  endfacet
  facet normal 1 -0 0
    outer loop
      vertex 16 -21.4252 8
      vertex 16 -6 4
      vertex 16 3.55271e-15 8
    endloop
  endfacet
  facet normal 1 -0 0
    outer loop
      vertex 16 -21.4252 7.99
      vertex 16 -6 4
      vertex 16 -21.4252 8
    endloop
  endfacet
  facet normal 1 0 0
    outer loop
      vertex 16 -6 4
      vertex 16 -21.4252 7.99
      vertex 16 -10 0
    endloop
  endfacet
  facet normal 0 -1 0
    outer loop
      vertex 12 -21.4252 7.99
      vertex 16 -21.4252 8
      vertex 12 -21.4252 8
    endloop
  endfacet
  facet normal 0 -1 -0
    outer loop
      vertex 16 -21.4252 8
      vertex 12 -21.4252 7.99
      vertex 16 -21.4252 7.99
    endloop
  endfacet
  facet normal 0 -0.573095 -0.819489
    outer loop
      vertex 12 -21.4252 7.99
      vertex 16 -10 0
      vertex 16 -21.4252 7.99
    endloop
  endfacet
  facet normal -0 -0.573095 -0.819489
    outer loop
      vertex 16 -10 0
      vertex 12 -21.4252 7.99
      vertex 12 -10 0
    endloop
  endfacet
  facet normal -1 0 0
    outer loop
      vertex 18 -6 0
      vertex 18 -10 0
      vertex 18 -6 4
    endloop
  endfacet
  facet normal -1 0 0
    outer loop
      vertex 18 -6 4
      vertex 18 3.9968e-15 8
      vertex 18 3.9968e-15 4
    endloop
  endfacet
  facet normal -1 0 0
    outer loop
      vertex 18 -19.534 7.99
      vertex 18 -6 4
      vertex 18 -10 0
    endloop
  endfacet
  facet normal -1 0 0
    outer loop
      vertex 18 -19.534 8
      vertex 18 -6 4
      vertex 18 -19.534 7.99
    endloop
  endfacet
  facet normal -1 0 0
    outer loop
      vertex 18 -6 4
      vertex 18 -19.534 8
      vertex 18 3.9968e-15 8
    endloop
  endfacet
  facet normal -0 0 1
    outer loop
      vertex 18 3.9968e-15 8
      vertex 22 -19.534 8
      vertex 22 4.88498e-15 8
    endloop
  endfacet
  facet normal 0 0 1
    outer loop
      vertex 22 -19.534 8
      vertex 18 3.9968e-15 8
      vertex 18 -19.534 8
    endloop
  endfacet
  facet normal 1 0 0
    outer loop
      vertex 22 4.88498e-15 8
      vertex 22 -6 4
      vertex 22 4.88498e-15 4
    endloop
  endfacet
  facet normal 1 0 0
    outer loop
      vertex 22 -6 4
      vertex 22 -10 0
      vertex 22 -6 0
    endloop
  endfacet
  facet normal 1 -0 0
    outer loop
      vertex 22 -19.534 8
      vertex 22 -6 4
      vertex 22 4.88498e-15 8
    endloop
  endfacet
  facet normal 1 -0 0
    outer loop
      vertex 22 -19.534 7.99
      vertex 22 -6 4
      vertex 22 -19.534 8
    endloop
  endfacet
  facet normal 1 0 0
    outer loop
      vertex 22 -6 4
      vertex 22 -19.534 7.99
      vertex 22 -10 0
    endloop
  endfacet
  facet normal 0 -1 0
    outer loop
      vertex 18 -19.534 7.99
      vertex 22 -19.534 8
      vertex 18 -19.534 8
    endloop
  endfacet
  facet normal 0 -1 -0
    outer loop
      vertex 22 -19.534 8
      vertex 18 -19.534 7.99
      vertex 22 -19.534 7.99
    endloop
  endfacet
  facet normal 0 -0.642316 -0.76644
    outer loop
      vertex 18 -19.534 7.99
      vertex 22 -10 0
      vertex 22 -19.534 7.99
    endloop
  endfacet
  facet normal -0 -0.642316 -0.76644
    outer loop
      vertex 22 -10 0
      vertex 18 -19.534 7.99
      vertex 18 -10 0
    endloop
  endfacet
  facet normal -1 0 0
    outer loop
      vertex 24 -6 0
      vertex 24 -10 0
      vertex 24 -6 4
    endloop
  endfacet
  facet normal -1 0 0
    outer loop
      vertex 24 -6 4
      vertex 24 5.32907e-15 8
      vertex 24 5.32907e-15 4
    endloop
  endfacet
  facet normal -1 0 0
    outer loop
      vertex 24 -18 7.99
      vertex 24 -6 4
      vertex 24 -10 0
    endloop
  endfacet
  facet normal -1 0 0
    outer loop
      vertex 24 -18 8
      vertex 24 -6 4
      vertex 24 -18 7.99
    endloop
  endfacet
  facet normal -1 0 0
    outer loop
      vertex 24 -6 4
      vertex 24 -18 8
      vertex 24 5.32907e-15 8
    endloop
  endfacet
  facet normal -0 0 1
    outer loop
      vertex 24 5.32907e-15 8
      vertex 28 -18 8
      vertex 28 6.21725e-15 8
    endloop
  endfacet
  facet normal 0 0 1
    outer loop
      vertex 28 -18 8
      vertex 24 5.32907e-15 8
      vertex 24 -18 8
    endloop
  endfacet
  facet normal 1 0 0
    outer loop
      vertex 28 6.21725e-15 8
      vertex 28 -6 4
      vertex 28 6.21725e-15 4
    endloop
  endfacet
  facet normal 1 0 0
    outer loop
      vertex 28 -6 4
      vertex 28 -10 0
      vertex 28 -6 0
    endloop
  endfacet
  facet normal 1 -0 0
    outer loop
      vertex 28 -18 8
      vertex 28 -6 4
      vertex 28 6.21725e-15 8
    endloop
  endfacet
  facet normal 1 -0 0
    outer loop
      vertex 28 -18 7.99
      vertex 28 -6 4
      vertex 28 -18 8
    endloop
  endfacet
  facet normal 1 0 0
    outer loop
      vertex 28 -6 4
      vertex 28 -18 7.99
      vertex 28 -10 0
    endloop
  endfacet
  facet normal 0 -1 0
    outer loop
      vertex 24 -18 7.99
      vertex 28 -18 8
      vertex 24 -18 8
    endloop
  endfacet
  facet normal 0 -1 -0
    outer loop
      vertex 28 -18 8
      vertex 24 -18 7.99
      vertex 28 -18 7.99
    endloop
  endfacet
  facet normal 0 -0.706664 -0.707549
    outer loop
      vertex 24 -18 7.99
      vertex 28 -10 0
      vertex 28 -18 7.99
    endloop
  endfacet
  facet normal -0 -0.706664 -0.707549
    outer loop
      vertex 28 -10 0
      vertex 24 -18 7.99
      vertex 24 -10 0
    endloop
  endfacet
  facet normal -1 0 0
    outer loop
      vertex 30 -6 0
      vertex 30 -10 0
      vertex 30 -6 4
    endloop
  endfacet
  facet normal -1 0 0
    outer loop
      vertex 30 -6 4
      vertex 30 6.66134e-15 8
      vertex 30 6.66134e-15 4
    endloop
  endfacet
  facet normal -1 0 0
    outer loop
      vertex 30 -16.7128 7.99
      vertex 30 -6 4
      vertex 30 -10 0
    endloop
  endfacet
  facet normal -1 0 0
    outer loop
      vertex 30 -16.7128 8
      vertex 30 -6 4
      vertex 30 -16.7128 7.99
    endloop
  endfacet
  facet normal -1 0 0
    outer loop
      vertex 30 -6 4
      vertex 30 -16.7128 8
      vertex 30 6.66134e-15 8
    endloop
  endfacet
  facet normal -0 0 1
    outer loop
      vertex 30 6.66134e-15 8
      vertex 34 -16.7128 8
      vertex 34 7.54952e-15 8
    endloop
  endfacet
  facet normal 0 0 1
    outer loop
      vertex 34 -16.7128 8
      vertex 30 6.66134e-15 8
      vertex 30 -16.7128 8
    endloop
  endfacet
  facet normal 1 0 0
    outer loop
      vertex 34 7.54952e-15 8
      vertex 34 -10 0
      vertex 34 7.54952e-15 0
    endloop
  endfacet
  facet normal 1 -0 0
    outer loop
      vertex 34 -16.7128 8
      vertex 34 -10 0
      vertex 34 7.54952e-15 8
    endloop
  endfacet
  facet normal 1 0 0
    outer loop
      vertex 34 -10 0
      vertex 34 -16.7128 8
      vertex 34 -16.7128 7.99
    endloop
  endfacet
  facet normal 0 -1 0
    outer loop
      vertex 30 -16.7128 7.99
      vertex 34 -16.7128 8
      vertex 30 -16.7128 8
    endloop
  endfacet
  facet normal 0 -1 -0
    outer loop
      vertex 34 -16.7128 8
      vertex 30 -16.7128 7.99
      vertex 34 -16.7128 7.99
    endloop
  endfacet
  facet normal 0 -0.765648 -0.643259
    outer loop
      vertex 30 -10 0
      vertex 34 -16.7128 7.99
      vertex 30 -16.7128 7.99
    endloop
  endfacet
  facet normal 0 -0.765648 -0.643259
    outer loop
      vertex 34 -16.7128 7.99
      vertex 30 -10 0
      vertex 34 -10 0
    endloop
  endfacet
  facet normal -0 0 1
    outer loop
      vertex 28 6.21725e-15 4
      vertex 30 -6 4
      vertex 30 6.66134e-15 4
    endloop
  endfacet
  facet normal 0 0 1
    outer loop
      vertex 30 -6 4
      vertex 28 6.21725e-15 4
      vertex 28 -6 4
    endloop
  endfacet
  facet normal -0 0 1
    outer loop
      vertex 22 4.88498e-15 4
      vertex 24 -6 4
      vertex 24 5.32907e-15 4
    endloop
  endfacet
  facet normal 0 0 1
    outer loop
      vertex 24 -6 4
      vertex 22 4.88498e-15 4
      vertex 22 -6 4
    endloop
  endfacet
  facet normal -0 0 1
    outer loop
      vertex 16 3.55271e-15 4
      vertex 18 -6 4
      vertex 18 3.9968e-15 4
    endloop
  endfacet
  facet normal 0 0 1
    outer loop
      vertex 18 -6 4
      vertex 16 3.55271e-15 4
      vertex 16 -6 4
    endloop
  endfacet
  facet normal -0 0 1
    outer loop
      vertex 10 2.22045e-15 4
      vertex 12 -6 4
      vertex 12 2.66454e-15 4
    endloop
  endfacet
  facet normal 0 0 1
    outer loop
      vertex 12 -6 4
      vertex 10 2.22045e-15 4
      vertex 10 -6 4
    endloop
  endfacet
  facet normal -0 0 1
    outer loop
      vertex 4 8.88178e-16 4
      vertex 6 -6 4
      vertex 6 1.33227e-15 4
    endloop
  endfacet
  facet normal 0 0 1
    outer loop
      vertex 6 -6 4
      vertex 4 8.88178e-16 4
      vertex 4 -6 4
    endloop
  endfacet
  facet normal 0 -1 0
    outer loop
      vertex 28 -6 0
      vertex 30 -6 4
      vertex 28 -6 4
    endloop
  endfacet
  facet normal 0 -1 -0
    outer loop
      vertex 30 -6 4
      vertex 28 -6 0
      vertex 30 -6 0
    endloop
  endfacet
  facet normal 0 -1 0
    outer loop
      vertex 22 -6 0
      vertex 24 -6 4
      vertex 22 -6 4
    endloop
  endfacet
  facet normal 0 -1 -0
    outer loop
      vertex 24 -6 4
      vertex 22 -6 0
      vertex 24 -6 0
    endloop
  endfacet
  facet normal 0 -1 0
    outer loop
      vertex 16 -6 0
      vertex 18 -6 4
      vertex 16 -6 4
    endloop
  endfacet
  facet normal 0 -1 -0
    outer loop
      vertex 18 -6 4
      vertex 16 -6 0
      vertex 18 -6 0
    endloop
  endfacet
  facet normal 0 -1 0
    outer loop
      vertex 10 -6 0
      vertex 12 -6 4
      vertex 10 -6 4
    endloop
  endfacet
  facet normal 0 -1 -0
    outer loop
      vertex 12 -6 4
      vertex 10 -6 0
      vertex 12 -6 0
    endloop
  endfacet
  facet normal 0 -1 0
    outer loop
      vertex 4 -6 0
      vertex 6 -6 4
      vertex 4 -6 4
    endloop
  endfacet
  facet normal 0 -1 -0
    outer loop
      vertex 6 -6 4
      vertex 4 -6 0
      vertex 6 -6 0
    endloop
  endfacet
endsolid OpenSCAD_Model
