solid OpenSCAD_Model
  facet normal 0 0 -1
    outer loop
      vertex 0 20.2 0
      vertex 20 20 0
      vertex 20 -20 0
    endloop
  endfacet
  facet normal 0 -0 -1
    outer loop
      vertex 0 20.2 0
      vertex 20 -20 0
      vertex -20 -20 0
    endloop
  endfacet
  facet normal 0 0 -1
    outer loop
      vertex 0 20.2 0
      vertex -20 -20 0
      vertex -20 20 0
    endloop
  endfacet
  facet normal 0 -0 1
    outer loop
      vertex 20 -20 40
      vertex 20 20 40
      vertex 0 20.2 40
    endloop
  endfacet
  facet normal 0 0 1
    outer loop
      vertex -20 -20 40
      vertex 20 -20 40
      vertex 0 20.2 40
    endloop
  endfacet
  facet normal -0 0 1
    outer loop
      vertex -20 20 40
      vertex -20 -20 40
      vertex 0 20.2 40
    endloop
  endfacet
  facet normal 0.00999935 0.99995 0
    outer loop
      vertex 0 20.2 0
      vertex 20 20 40
      vertex 20 20 0
    endloop
  endfacet
  facet normal 0.00999935 0.99995 -0
    outer loop
      vertex 0 20.2 0
      vertex 0 20.2 40
      vertex 20 20 40
    endloop
  endfacet
  facet normal -0.00999935 0.99995 0
    outer loop
      vertex -20 20 0
      vertex 0 20.2 40
      vertex 0 20.2 0
    endloop
  endfacet
  facet normal -0.00999935 0.99995 0
    outer loop
      vertex -20 20 0
      vertex -20 20 40
      vertex 0 20.2 40
    endloop
  endfacet
  facet normal -1 0 0
    outer loop
      vertex -20 -20 0
      vertex -20 20 40
      vertex -20 20 0
    endloop
  endfacet
  facet normal -1 0 0
    outer loop
      vertex -20 -20 0
      vertex -20 -20 40
      vertex -20 20 40
    endloop
  endfacet
  facet normal 0 -1 0
    outer loop
      vertex 20 -20 0
      vertex -20 -20 40
      vertex -20 -20 0
    endloop
  endfacet
  facet normal 0 -1 0
    outer loop
      vertex 20 -20 0
      vertex 20 -20 40
      vertex -20 -20 40
    endloop
  endfacet
  facet normal 1 0 0
    outer loop
      vertex 20 20 0
      vertex 20 -20 40
      vertex 20 -20 0
    endloop
  endfacet
  facet normal 1 0 -0
    outer loop
      vertex 20 20 0
      vertex 20 20 40
      vertex 20 -20 40
    endloop
  endfacet
endsolid OpenSCAD_Model
