solid sim1
facet normal 0.0 0.0 1.0
  outer loop
    vertex 0.8193174751887173 2.016464446795379 0.8010000000000012
    vertex 4.658950269022082 5.033036441824006 0.8010000000000012
    vertex 0.8193174751887173 24.035172735919975 0.8010000000000012
  endloop
endfacet
facet normal 0.0 0.0 1.0
  outer loop
    vertex 4.658950269022082 5.033036441824006 0.8010000000000012
    vertex 0.8193174751887173 2.016464446795379 0.8010000000000012
    vertex 15.799347787688724 2.016464446795379 0.8010000000000012
  endloop
endfacet
facet normal 0.0 0.0 1.0
  outer loop
    vertex 0.8193174751887173 24.035172735919975 0.8010000000000012
    vertex 4.658950269022082 5.033036441824006 0.8010000000000012
    vertex 3.7835683703025222 26.851683646795347 0.8010000000000012
  endloop
endfacet
facet normal 0.0 0.0 1.0
  outer loop
    vertex 3.7835683703025222 26.851683646795347 0.8010000000000012
    vertex 4.658950269022082 5.033036441824006 0.8010000000000012
    vertex 4.658950269022081 16.2592748630342 0.8010000000000012
  endloop
endfacet
facet normal 0.0 0.0 1.0
  outer loop
    vertex 4.658950269022082 5.033036441824006 0.8010000000000012
    vertex 15.799347787688724 2.016464446795379 0.8010000000000012
    vertex 13.794371954797086 5.033036441824006 0.8010000000000012
  endloop
endfacet
facet normal 0.0 0.0 1.0
  outer loop
    vertex 13.794371954797086 5.033036441824006 0.8010000000000012
    vertex 15.799347787688724 2.016464446795379 0.8010000000000012
    vertex 13.794371954797086 17.695272950944016 0.8010000000000012
  endloop
endfacet
facet normal 0.0 0.0 1.0
  outer loop
    vertex 4.658950269022081 16.2592748630342 0.8010000000000012
    vertex 15.799347787688724 26.851683646795358 0.8010000000000012
    vertex 3.7835683703025222 26.851683646795347 0.8010000000000012
  endloop
endfacet
facet normal 0.0 0.0 1.0
  outer loop
    vertex 15.799347787688724 26.851683646795358 0.8010000000000012
    vertex 4.658950269022081 16.2592748630342 0.8010000000000012
    vertex 6.466669034898286 17.695272950944016 0.8010000000000012
  endloop
endfacet
facet normal 0.0 0.0 1.0
  outer loop
    vertex 15.799347787688724 26.851683646795358 0.8010000000000012
    vertex 6.466669034898286 17.695272950944016 0.8010000000000012
    vertex 13.794371954797086 17.695272950944016 0.8010000000000012
  endloop
endfacet
facet normal 0.0 0.0 1.0
  outer loop
    vertex 15.799347787688724 26.851683646795358 0.8010000000000012
    vertex 13.794371954797086 17.695272950944016 0.8010000000000012
    vertex 15.799347787688724 2.016464446795379 0.8010000000000012
  endloop
endfacet
facet normal 0.0 -1.0 0.0
  outer loop
    vertex 15.799347787688724 2.016464446795379 0.8010000000000012
    vertex 0.8193174751887173 2.016464446795379 1.4099832412739487e-15
    vertex 15.799347787688724 2.016464446795379 1.4099832412739487e-15
  endloop
endfacet
facet normal 0.0 -1.0 0.0
  outer loop
    vertex 0.8193174751887173 2.016464446795379 1.4099832412739487e-15
    vertex 15.799347787688724 2.016464446795379 0.8010000000000012
    vertex 0.8193174751887173 2.016464446795379 0.8010000000000012
  endloop
endfacet
facet normal -0.9473571650353796 0.320178703002134 -0.0
  outer loop
    vertex 3.7835683703025222 26.851683646795347 0.8010000000000012
    vertex 0.8193174751887173 24.035172735919975 1.4099832412739487e-15
    vertex 0.8193174751887173 24.035172735919975 0.8010000000000012
  endloop
endfacet
facet normal -0.9473571650353796 0.320178703002134 -0.0
  outer loop
    vertex 0.8193174751887173 24.035172735919975 1.4099832412739487e-15
    vertex 3.7835683703025222 26.851683646795347 0.8010000000000012
    vertex 3.7835683703025222 26.851683646795347 1.4099832412739487e-15
  endloop
endfacet
facet normal 0.0 0.0 -1.0
  outer loop
    vertex 15.799347787688724 26.851683646795358 1.4099832412739487e-15
    vertex 4.658950269022081 16.2592748630342 1.4099832412739487e-15
    vertex 3.7835683703025222 26.851683646795347 1.4099832412739487e-15
  endloop
endfacet
facet normal 0.0 0.0 -1.0
  outer loop
    vertex 4.658950269022081 16.2592748630342 1.4099832412739487e-15
    vertex 15.799347787688724 26.851683646795358 1.4099832412739487e-15
    vertex 6.466669034898286 17.69527295094401 1.4099832412739487e-15
  endloop
endfacet
facet normal 0.0 0.0 -1.0
  outer loop
    vertex 6.466669034898286 17.69527295094401 1.4099832412739487e-15
    vertex 15.799347787688724 26.851683646795358 1.4099832412739487e-15
    vertex 13.794371954797086 17.695272950944013 1.4099832412739487e-15
  endloop
endfacet
facet normal 0.0 0.0 -1.0
  outer loop
    vertex 13.794371954797086 17.695272950944013 1.4099832412739487e-15
    vertex 15.799347787688724 26.851683646795358 1.4099832412739487e-15
    vertex 13.794371954797086 5.033036441824006 1.4099832412739487e-15
  endloop
endfacet
facet normal 0.0 0.0 -1.0
  outer loop
    vertex 3.7835683703025222 26.851683646795347 1.4099832412739487e-15
    vertex 0.8193174751887173 2.016464446795379 1.4099832412739487e-15
    vertex 0.8193174751887173 24.035172735919975 1.4099832412739487e-15
  endloop
endfacet
facet normal 0.0 0.0 -1.0
  outer loop
    vertex 0.8193174751887173 2.016464446795379 1.4099832412739487e-15
    vertex 3.7835683703025222 26.851683646795347 1.4099832412739487e-15
    vertex 4.658950269022082 5.033036441824006 1.4099832412739487e-15
  endloop
endfacet
facet normal 0.0 0.0 -1.0
  outer loop
    vertex 0.8193174751887173 2.016464446795379 1.4099832412739487e-15
    vertex 4.658950269022082 5.033036441824006 1.4099832412739487e-15
    vertex 15.799347787688724 2.016464446795379 1.4099832412739487e-15
  endloop
endfacet
facet normal 0.0 0.0 -1.0
  outer loop
    vertex 4.658950269022082 5.033036441824006 1.4099832412739487e-15
    vertex 3.7835683703025222 26.851683646795347 1.4099832412739487e-15
    vertex 4.658950269022081 16.2592748630342 1.4099832412739487e-15
  endloop
endfacet
facet normal 0.0 0.0 -1.0
  outer loop
    vertex 15.799347787688724 2.016464446795379 1.4099832412739487e-15
    vertex 4.658950269022082 5.033036441824006 1.4099832412739487e-15
    vertex 13.794371954797086 5.033036441824006 1.4099832412739487e-15
  endloop
endfacet
facet normal 0.0 0.0 -1.0
  outer loop
    vertex 15.799347787688724 2.016464446795379 1.4099832412739487e-15
    vertex 13.794371954797086 5.033036441824006 1.4099832412739487e-15
    vertex 15.799347787688724 26.851683646795358 1.4099832412739487e-15
  endloop
endfacet
facet normal 1.0 0.0 0.0
  outer loop
    vertex 15.799347787688724 26.851683646795358 1.4099832412739487e-15
    vertex 15.799347787688724 2.016464446795379 0.8010000000000012
    vertex 15.799347787688724 2.016464446795379 1.4099832412739487e-15
  endloop
endfacet
facet normal 1.0 0.0 0.0
  outer loop
    vertex 15.799347787688724 2.016464446795379 0.8010000000000012
    vertex 15.799347787688724 26.851683646795358 1.4099832412739487e-15
    vertex 15.799347787688724 26.851683646795358 0.8010000000000012
  endloop
endfacet
facet normal -1.0 0.0 0.0
  outer loop
    vertex 0.8193174751887173 24.035172735919975 0.8010000000000012
    vertex 0.8193174751887173 2.016464446795379 1.4099832412739487e-15
    vertex 0.8193174751887173 2.016464446795379 0.8010000000000012
  endloop
endfacet
facet normal -1.0 0.0 0.0
  outer loop
    vertex 0.8193174751887173 2.016464446795379 1.4099832412739487e-15
    vertex 0.8193174751887173 24.035172735919975 0.8010000000000012
    vertex 0.8193174751887173 24.035172735919975 1.4099832412739487e-15
  endloop
endfacet
facet normal -1.461661540277667e-15 1.0 -0.0
  outer loop
    vertex 3.7835683703025222 26.851683646795347 0.8010000000000012
    vertex 15.799347787688724 26.851683646795358 1.4099832412739487e-15
    vertex 3.7835683703025222 26.851683646795347 1.4099832412739487e-15
  endloop
endfacet
facet normal -1.461661540277667e-15 1.0 -0.0
  outer loop
    vertex 15.799347787688724 26.851683646795358 1.4099832412739487e-15
    vertex 3.7835683703025222 26.851683646795347 0.8010000000000012
    vertex 15.799347787688724 26.851683646795358 0.8010000000000012
  endloop
endfacet
facet normal -1.0 0.0 0.0
  outer loop
    vertex 13.794371954797086 17.695272950944016 0.8010000000000012
    vertex 13.794371954797086 5.033036441824006 1.4099832412739487e-15
    vertex 13.794371954797086 5.033036441824006 0.8010000000000012
  endloop
endfacet
facet normal -1.0 0.0 0.0
  outer loop
    vertex 13.794371954797086 5.033036441824006 1.4099832412739487e-15
    vertex 13.794371954797086 17.695272950944016 0.8010000000000012
    vertex 13.794371954797086 17.695272950944013 1.4099832412739487e-15
  endloop
endfacet
facet normal 0.9271111340998963 -0.3747865326129048 5.469666434799895e-17
  outer loop
    vertex 6.466669034898286 17.69527295094401 1.4099832412739487e-15
    vertex 4.658950269022081 16.2592748630342 0.8010000000000012
    vertex 4.658950269022081 16.2592748630342 1.4099832412739487e-15
  endloop
endfacet
facet normal 0.9271111340998963 -0.3747865326129048 5.469666434799895e-17
  outer loop
    vertex 4.658950269022081 16.2592748630342 0.8010000000000012
    vertex 6.466669034898286 17.69527295094401 1.4099832412739487e-15
    vertex 6.466669034898286 17.695272950944016 0.8010000000000012
  endloop
endfacet
facet normal -0.0 1.0 -0.0
  outer loop
    vertex 4.658950269022082 5.033036441824006 0.8010000000000012
    vertex 13.794371954797086 5.033036441824006 1.4099832412739487e-15
    vertex 4.658950269022082 5.033036441824006 1.4099832412739487e-15
  endloop
endfacet
facet normal -0.0 1.0 -0.0
  outer loop
    vertex 13.794371954797086 5.033036441824006 1.4099832412739487e-15
    vertex 4.658950269022082 5.033036441824006 0.8010000000000012
    vertex 13.794371954797086 5.033036441824006 0.8010000000000012
  endloop
endfacet
facet normal 5.99198781761473e-16 -1.0 2.4292593964871287e-16
  outer loop
    vertex 13.794371954797086 17.695272950944016 0.8010000000000012
    vertex 6.466669034898286 17.69527295094401 1.4099832412739487e-15
    vertex 13.794371954797086 17.695272950944013 1.4099832412739487e-15
  endloop
endfacet
facet normal 5.99198781761473e-16 -1.0 2.4292593964871287e-16
  outer loop
    vertex 6.466669034898286 17.69527295094401 1.4099832412739487e-15
    vertex 13.794371954797086 17.695272950944016 0.8010000000000012
    vertex 6.466669034898286 17.695272950944016 0.8010000000000012
  endloop
endfacet
facet normal 1.0 4.0332474185886916e-17 0.0
  outer loop
    vertex 4.658950269022081 16.2592748630342 1.4099832412739487e-15
    vertex 4.658950269022082 5.033036441824006 0.8010000000000012
    vertex 4.658950269022082 5.033036441824006 1.4099832412739487e-15
  endloop
endfacet
facet normal 1.0 4.0332474185886916e-17 0.0
  outer loop
    vertex 4.658950269022082 5.033036441824006 0.8010000000000012
    vertex 4.658950269022081 16.2592748630342 1.4099832412739487e-15
    vertex 4.658950269022081 16.2592748630342 0.8010000000000012
  endloop
endfacet
endsolid sim1
