solid OpenSCAD_Model
  facet normal -1 0 0
    outer loop
      vertex -30 0 0
      vertex -30 150 8
      vertex -30 150 0
    endloop
  endfacet
  facet normal -1 -0 0
    outer loop
      vertex -30 150 8
      vertex -30 0 0
      vertex -30 0 8
    endloop
  endfacet
  facet normal 0 0 1
    outer loop
      vertex 30 150 8
      vertex 7.5 10 8
      vertex 30 0 8
    endloop
  endfacet
  facet normal 0 0 1
    outer loop
      vertex 30 150 8
      vertex -7.5 10 8
      vertex 7.5 10 8
    endloop
  endfacet
  facet normal 0 0 1
    outer loop
      vertex -30 0 8
      vertex -7.5 10 8
      vertex -30 150 8
    endloop
  endfacet
  facet normal -0 0 1
    outer loop
      vertex -30 150 8
      vertex -7.5 10 8
      vertex 30 150 8
    endloop
  endfacet
  facet normal -0 0 1
    outer loop
      vertex 7.5 5 8
      vertex 30 0 8
      vertex 7.5 10 8
    endloop
  endfacet
  facet normal -0 0 1
    outer loop
      vertex -7.5 5 8
      vertex 30 0 8
      vertex 7.5 5 8
    endloop
  endfacet
  facet normal 0 0 1
    outer loop
      vertex -7.5 5 8
      vertex -30 0 8
      vertex 30 0 8
    endloop
  endfacet
  facet normal 0 0 1
    outer loop
      vertex -7.5 10 8
      vertex -30 0 8
      vertex -7.5 5 8
    endloop
  endfacet
  facet normal 1 -0 0
    outer loop
      vertex 30 0 8
      vertex 30 150 0
      vertex 30 150 8
    endloop
  endfacet
  facet normal 1 0 0
    outer loop
      vertex 30 150 0
      vertex 30 0 8
      vertex 30 0 0
    endloop
  endfacet
  facet normal 0 0 -1
    outer loop
      vertex 7.5 10 0
      vertex 30 0 0
      vertex 7.5 5 0
    endloop
  endfacet
  facet normal 0 0 -1
    outer loop
      vertex 30 0 0
      vertex -7.5 5 0
      vertex 7.5 5 0
    endloop
  endfacet
  facet normal -0 0 -1
    outer loop
      vertex -7.5 5 0
      vertex -30 0 0
      vertex -7.5 10 0
    endloop
  endfacet
  facet normal 0 0 -1
    outer loop
      vertex -30 0 0
      vertex -7.5 5 0
      vertex 30 0 0
    endloop
  endfacet
  facet normal 0 0 -1
    outer loop
      vertex 30 0 0
      vertex 7.5 10 0
      vertex 30 150 0
    endloop
  endfacet
  facet normal 0 0 -1
    outer loop
      vertex -7.5 10 0
      vertex 30 150 0
      vertex 7.5 10 0
    endloop
  endfacet
  facet normal 0 0 -1
    outer loop
      vertex -30 150 0
      vertex -7.5 10 0
      vertex -30 0 0
    endloop
  endfacet
  facet normal 0 0 -1
    outer loop
      vertex -7.5 10 0
      vertex -30 150 0
      vertex 30 150 0
    endloop
  endfacet
  facet normal 0 -1 0
    outer loop
      vertex -30 0 0
      vertex 30 0 8
      vertex -30 0 8
    endloop
  endfacet
  facet normal 0 -1 -0
    outer loop
      vertex 30 0 8
      vertex -30 0 0
      vertex 30 0 0
    endloop
  endfacet
  facet normal 0 1 -0
    outer loop
      vertex 30 150 0
      vertex -30 150 8
      vertex 30 150 8
    endloop
  endfacet
  facet normal 0 1 0
    outer loop
      vertex -30 150 8
      vertex 30 150 0
      vertex -30 150 0
    endloop
  endfacet
  facet normal 1 -0 0
    outer loop
      vertex -7.5 5 8
      vertex -7.5 10 0
      vertex -7.5 10 8
    endloop
  endfacet
  facet normal 1 0 0
    outer loop
      vertex -7.5 10 0
      vertex -7.5 5 8
      vertex -7.5 5 0
    endloop
  endfacet
  facet normal -1 0 0
    outer loop
      vertex 7.5 5 0
      vertex 7.5 10 8
      vertex 7.5 10 0
    endloop
  endfacet
  facet normal -1 -0 0
    outer loop
      vertex 7.5 10 8
      vertex 7.5 5 0
      vertex 7.5 5 8
    endloop
  endfacet
  facet normal 0 1 -0
    outer loop
      vertex 7.5 5 0
      vertex -7.5 5 8
      vertex 7.5 5 8
    endloop
  endfacet
  facet normal 0 1 0
    outer loop
      vertex -7.5 5 8
      vertex 7.5 5 0
      vertex -7.5 5 0
    endloop
  endfacet
  facet normal 0 -1 0
    outer loop
      vertex -7.5 10 0
      vertex 7.5 10 8
      vertex -7.5 10 8
    endloop
  endfacet
  facet normal 0 -1 -0
    outer loop
      vertex 7.5 10 8
      vertex -7.5 10 0
      vertex 7.5 10 0
    endloop
  endfacet
endsolid OpenSCAD_Model
