solid OpenSCAD_Model
  facet normal 1 -0 0
    outer loop
      vertex 45 -35 20
      vertex 45 35 0
      vertex 45 35 20
    endloop
  endfacet
  facet normal 1 0 0
    outer loop
      vertex 45 35 0
      vertex 45 -35 20
      vertex 45 -35 0
    endloop
  endfacet
  facet normal 0.866025 -0.5 0
    outer loop
      vertex 43.4805 -40.2992 20
      vertex 43.8295 -39.6947 0
      vertex 43.8295 -39.6947 20
    endloop
  endfacet
  facet normal 0.866025 -0.5 0
    outer loop
      vertex 43.8295 -39.6947 0
      vertex 43.4805 -40.2992 20
      vertex 43.4805 -40.2992 0
    endloop
  endfacet
  facet normal 0 -1 -0
    outer loop
      vertex -23.7929 -44.9939 20
      vertex -23.7929 -44.9939 0
      vertex 35.349 -44.9939 20
    endloop
  endfacet
  facet normal 0 -1 -0
    outer loop
      vertex 35.349 -44.9939 20
      vertex -23.7929 -44.9939 0
      vertex 35.349 -44.9939 0
    endloop
  endfacet
  facet normal 0 0 1
    outer loop
      vertex 43 35 20
      vertex 45 35 20
      vertex 44.9756 35.6976 20
    endloop
  endfacet
  facet normal 0 0 1
    outer loop
      vertex 45 35 20
      vertex 43 35 20
      vertex 45 -35 20
    endloop
  endfacet
  facet normal 0 0 1
    outer loop
      vertex 42.9805 35.5581 20
      vertex 44.9756 35.6976 20
      vertex 44.9027 36.3917 20
    endloop
  endfacet
  facet normal 0 0 1
    outer loop
      vertex 43 -35 20
      vertex 45 -35 20
      vertex 43 35 20
    endloop
  endfacet
  facet normal 0 0 1
    outer loop
      vertex 42.9221 36.1134 20
      vertex 44.9027 36.3917 20
      vertex 44.7815 37.0791 20
    endloop
  endfacet
  facet normal 0 0 1
    outer loop
      vertex 45 -35 20
      vertex 43 -35 20
      vertex 44.9756 -35.6976 20
    endloop
  endfacet
  facet normal 0 0 1
    outer loop
      vertex 42.8252 36.6633 20
      vertex 44.7815 37.0791 20
      vertex 44.6126 37.7564 20
    endloop
  endfacet
  facet normal -0 0 1
    outer loop
      vertex 42.9805 -35.5581 20
      vertex 44.9756 -35.6976 20
      vertex 43 -35 20
    endloop
  endfacet
  facet normal 0 0 1
    outer loop
      vertex 42.6901 37.2051 20
      vertex 44.6126 37.7564 20
      vertex 44.3969 38.4202 20
    endloop
  endfacet
  facet normal 0 0 1
    outer loop
      vertex 44.9756 -35.6976 20
      vertex 42.9805 -35.5581 20
      vertex 44.9027 -36.3917 20
    endloop
  endfacet
  facet normal 0 0 1
    outer loop
      vertex 42.5175 37.7362 20
      vertex 44.3969 38.4202 20
      vertex 44.1355 39.0674 20
    endloop
  endfacet
  facet normal -0 0 1
    outer loop
      vertex 42.9221 -36.1134 20
      vertex 44.9027 -36.3917 20
      vertex 42.9805 -35.5581 20
    endloop
  endfacet
  facet normal 0 0 1
    outer loop
      vertex 42.3084 38.2539 20
      vertex 44.1355 39.0674 20
      vertex 43.8295 39.6947 20
    endloop
  endfacet
  facet normal 0 0 1
    outer loop
      vertex 44.9027 -36.3917 20
      vertex 42.9221 -36.1134 20
      vertex 44.7815 -37.0791 20
    endloop
  endfacet
  facet normal 0 0 1
    outer loop
      vertex 42.0636 38.7558 20
      vertex 43.8295 39.6947 20
      vertex 43.4805 40.2992 20
    endloop
  endfacet
  facet normal -0 0 1
    outer loop
      vertex 42.8252 -36.6633 20
      vertex 44.7815 -37.0791 20
      vertex 42.9221 -36.1134 20
    endloop
  endfacet
  facet normal 0 0 1
    outer loop
      vertex 41.7844 39.2394 20
      vertex 43.4805 40.2992 20
      vertex 43.0902 40.8779 20
    endloop
  endfacet
  facet normal 0 0 1
    outer loop
      vertex 44.7815 -37.0791 20
      vertex 42.8252 -36.6633 20
      vertex 44.6126 -37.7564 20
    endloop
  endfacet
  facet normal -0 0 1
    outer loop
      vertex 42.6901 -37.2051 20
      vertex 44.6126 -37.7564 20
      vertex 42.8252 -36.6633 20
    endloop
  endfacet
  facet normal 0 0 1
    outer loop
      vertex 44.9756 35.6976 20
      vertex 42.9805 35.5581 20
      vertex 43 35 20
    endloop
  endfacet
  facet normal 0 0 1
    outer loop
      vertex 44.9027 36.3917 20
      vertex 42.9221 36.1134 20
      vertex 42.9805 35.5581 20
    endloop
  endfacet
  facet normal 0 0 1
    outer loop
      vertex 44.7815 37.0791 20
      vertex 42.8252 36.6633 20
      vertex 42.9221 36.1134 20
    endloop
  endfacet
  facet normal 0 0 1
    outer loop
      vertex 44.6126 37.7564 20
      vertex 42.6901 37.2051 20
      vertex 42.8252 36.6633 20
    endloop
  endfacet
  facet normal 0 0 1
    outer loop
      vertex 41.4721 39.7023 20
      vertex 43.0902 40.8779 20
      vertex 42.6604 41.4279 20
    endloop
  endfacet
  facet normal 0 0 1
    outer loop
      vertex 44.3969 38.4202 20
      vertex 42.5175 37.7362 20
      vertex 42.6901 37.2051 20
    endloop
  endfacet
  facet normal 0 0 1
    outer loop
      vertex 44.1355 39.0674 20
      vertex 42.3084 38.2539 20
      vertex 42.5175 37.7362 20
    endloop
  endfacet
  facet normal 0 0 1
    outer loop
      vertex 41.1284 40.1423 20
      vertex 42.6604 41.4279 20
      vertex 42.1934 41.9466 20
    endloop
  endfacet
  facet normal 0 0 1
    outer loop
      vertex 43.8295 39.6947 20
      vertex 42.0636 38.7558 20
      vertex 42.3084 38.2539 20
    endloop
  endfacet
  facet normal 0 0 1
    outer loop
      vertex 43.4805 40.2992 20
      vertex 41.7844 39.2394 20
      vertex 42.0636 38.7558 20
    endloop
  endfacet
  facet normal 0 0 1
    outer loop
      vertex 40.7547 40.5573 20
      vertex 42.1934 41.9466 20
      vertex 41.6913 42.4314 20
    endloop
  endfacet
  facet normal 0 0 1
    outer loop
      vertex 43.0902 40.8779 20
      vertex 41.4721 39.7023 20
      vertex 41.7844 39.2394 20
    endloop
  endfacet
  facet normal 0 0 1
    outer loop
      vertex 40.353 40.9452 20
      vertex 41.6913 42.4314 20
      vertex 41.1566 42.8801 20
    endloop
  endfacet
  facet normal 0 0 1
    outer loop
      vertex 42.6604 41.4279 20
      vertex 41.1284 40.1423 20
      vertex 41.4721 39.7023 20
    endloop
  endfacet
  facet normal 0 0 1
    outer loop
      vertex 42.1934 41.9466 20
      vertex 40.7547 40.5573 20
      vertex 41.1284 40.1423 20
    endloop
  endfacet
  facet normal 0 0 1
    outer loop
      vertex 39.9253 41.3041 20
      vertex 41.1566 42.8801 20
      vertex 40.5919 43.2904 20
    endloop
  endfacet
  facet normal 0 0 1
    outer loop
      vertex 41.6913 42.4314 20
      vertex 40.353 40.9452 20
      vertex 40.7547 40.5573 20
    endloop
  endfacet
  facet normal 0 0 1
    outer loop
      vertex 39.4735 41.6323 20
      vertex 40.5919 43.2904 20
      vertex 40 43.6603 20
    endloop
  endfacet
  facet normal 0 0 1
    outer loop
      vertex 41.1566 42.8801 20
      vertex 39.9253 41.3041 20
      vertex 40.353 40.9452 20
    endloop
  endfacet
  facet normal 0 0 1
    outer loop
      vertex 40.5919 43.2904 20
      vertex 39.4735 41.6323 20
      vertex 39.9253 41.3041 20
    endloop
  endfacet
  facet normal 0 0 1
    outer loop
      vertex 39 41.9282 20
      vertex 40 43.6603 20
      vertex 39.3837 43.9879 20
    endloop
  endfacet
  facet normal 0 0 1
    outer loop
      vertex 40 43.6603 20
      vertex 39 41.9282 20
      vertex 39.4735 41.6323 20
    endloop
  endfacet
  facet normal 0 0 1
    outer loop
      vertex 38.507 42.1903 20
      vertex 39.3837 43.9879 20
      vertex 38.7461 44.2718 20
    endloop
  endfacet
  facet normal 0 0 1
    outer loop
      vertex 39.3837 43.9879 20
      vertex 38.507 42.1903 20
      vertex 39 41.9282 20
    endloop
  endfacet
  facet normal 0 0 1
    outer loop
      vertex 37.9969 42.4175 20
      vertex 38.7461 44.2718 20
      vertex 38.0902 44.5106 20
    endloop
  endfacet
  facet normal 0 0 1
    outer loop
      vertex 38.7461 44.2718 20
      vertex 37.9969 42.4175 20
      vertex 38.507 42.1903 20
    endloop
  endfacet
  facet normal 0 0 1
    outer loop
      vertex 38.0902 44.5106 20
      vertex 37.4721 42.6085 20
      vertex 37.9969 42.4175 20
    endloop
  endfacet
  facet normal 0 0 1
    outer loop
      vertex 37.4192 44.703 20
      vertex 37.4721 42.6085 20
      vertex 38.0902 44.5106 20
    endloop
  endfacet
  facet normal 0 0 1
    outer loop
      vertex 37.4192 44.703 20
      vertex 36.9354 42.7624 20
      vertex 37.4721 42.6085 20
    endloop
  endfacet
  facet normal 0 0 1
    outer loop
      vertex 36.7365 44.8481 20
      vertex 36.9354 42.7624 20
      vertex 37.4192 44.703 20
    endloop
  endfacet
  facet normal 0 0 1
    outer loop
      vertex 36.7365 44.8481 20
      vertex 36.3892 42.8785 20
      vertex 36.9354 42.7624 20
    endloop
  endfacet
  facet normal 0 0 1
    outer loop
      vertex 36.0453 44.9452 20
      vertex 36.3892 42.8785 20
      vertex 36.7365 44.8481 20
    endloop
  endfacet
  facet normal 0 0 1
    outer loop
      vertex 36.0453 44.9452 20
      vertex 35.8362 42.9562 20
      vertex 36.3892 42.8785 20
    endloop
  endfacet
  facet normal 0 0 1
    outer loop
      vertex 35.349 44.9939 20
      vertex 35.8362 42.9562 20
      vertex 36.0453 44.9452 20
    endloop
  endfacet
  facet normal 0 0 1
    outer loop
      vertex 35.349 44.9939 20
      vertex 35.2792 42.9951 20
      vertex 35.8362 42.9562 20
    endloop
  endfacet
  facet normal 0 0 1
    outer loop
      vertex 35.349 44.9939 20
      vertex -35.2792 42.9951 20
      vertex 35.2792 42.9951 20
    endloop
  endfacet
  facet normal -0 0 1
    outer loop
      vertex -35.349 44.9939 20
      vertex -35.2792 42.9951 20
      vertex 35.349 44.9939 20
    endloop
  endfacet
  facet normal 0 0 1
    outer loop
      vertex -35.349 44.9939 20
      vertex -35.8362 42.9562 20
      vertex -35.2792 42.9951 20
    endloop
  endfacet
  facet normal -0 0 1
    outer loop
      vertex -36.0453 44.9452 20
      vertex -35.8362 42.9562 20
      vertex -35.349 44.9939 20
    endloop
  endfacet
  facet normal 0 0 1
    outer loop
      vertex -36.0453 44.9452 20
      vertex -36.3892 42.8785 20
      vertex -35.8362 42.9562 20
    endloop
  endfacet
  facet normal -0 0 1
    outer loop
      vertex -36.7365 44.8481 20
      vertex -36.3892 42.8785 20
      vertex -36.0453 44.9452 20
    endloop
  endfacet
  facet normal 0 0 1
    outer loop
      vertex -36.7365 44.8481 20
      vertex -36.9354 42.7624 20
      vertex -36.3892 42.8785 20
    endloop
  endfacet
  facet normal -0 0 1
    outer loop
      vertex -37.4192 44.703 20
      vertex -36.9354 42.7624 20
      vertex -36.7365 44.8481 20
    endloop
  endfacet
  facet normal 0 0 1
    outer loop
      vertex -37.4192 44.703 20
      vertex -37.4721 42.6085 20
      vertex -36.9354 42.7624 20
    endloop
  endfacet
  facet normal -0 0 1
    outer loop
      vertex -38.0902 44.5106 20
      vertex -37.4721 42.6085 20
      vertex -37.4192 44.703 20
    endloop
  endfacet
  facet normal 0 0 1
    outer loop
      vertex -37.4721 42.6085 20
      vertex -38.0902 44.5106 20
      vertex -37.9969 42.4175 20
    endloop
  endfacet
  facet normal -0 0 1
    outer loop
      vertex -38.7461 44.2718 20
      vertex -37.9969 42.4175 20
      vertex -38.0902 44.5106 20
    endloop
  endfacet
  facet normal 0 0 1
    outer loop
      vertex -37.9969 42.4175 20
      vertex -38.7461 44.2718 20
      vertex -38.507 42.1904 20
    endloop
  endfacet
  facet normal -0 0 1
    outer loop
      vertex -39.3837 43.9879 20
      vertex -38.507 42.1904 20
      vertex -38.7461 44.2718 20
    endloop
  endfacet
  facet normal 0 0 1
    outer loop
      vertex -38.507 42.1904 20
      vertex -39.3837 43.9879 20
      vertex -39 41.9282 20
    endloop
  endfacet
  facet normal -0 0 1
    outer loop
      vertex -40 43.6603 20
      vertex -39 41.9282 20
      vertex -39.3837 43.9879 20
    endloop
  endfacet
  facet normal 0 0 1
    outer loop
      vertex -39 41.9282 20
      vertex -40 43.6603 20
      vertex -39.4735 41.6323 20
    endloop
  endfacet
  facet normal -0 0 1
    outer loop
      vertex -40.5919 43.2904 20
      vertex -39.4735 41.6323 20
      vertex -40 43.6603 20
    endloop
  endfacet
  facet normal 0 0 1
    outer loop
      vertex -39.4735 41.6323 20
      vertex -40.5919 43.2904 20
      vertex -39.9253 41.3041 20
    endloop
  endfacet
  facet normal -0 0 1
    outer loop
      vertex -41.1566 42.8801 20
      vertex -39.9253 41.3041 20
      vertex -40.5919 43.2904 20
    endloop
  endfacet
  facet normal 0 0 1
    outer loop
      vertex -39.9253 41.3041 20
      vertex -41.1566 42.8801 20
      vertex -40.353 40.9452 20
    endloop
  endfacet
  facet normal -0 0 1
    outer loop
      vertex -41.6913 42.4314 20
      vertex -40.353 40.9452 20
      vertex -41.1566 42.8801 20
    endloop
  endfacet
  facet normal 0 0 1
    outer loop
      vertex -40.353 40.9452 20
      vertex -41.6913 42.4314 20
      vertex -40.7547 40.5573 20
    endloop
  endfacet
  facet normal -0 0 1
    outer loop
      vertex -42.1934 41.9466 20
      vertex -40.7547 40.5573 20
      vertex -41.6913 42.4314 20
    endloop
  endfacet
  facet normal 0 0 1
    outer loop
      vertex -40.7547 40.5573 20
      vertex -42.1934 41.9466 20
      vertex -41.1284 40.1423 20
    endloop
  endfacet
  facet normal -0 0 1
    outer loop
      vertex -42.6604 41.4279 20
      vertex -41.1284 40.1423 20
      vertex -42.1934 41.9466 20
    endloop
  endfacet
  facet normal 0 0 1
    outer loop
      vertex -41.1284 40.1423 20
      vertex -42.6604 41.4279 20
      vertex -41.4721 39.7023 20
    endloop
  endfacet
  facet normal -0 0 1
    outer loop
      vertex -43.0902 40.8779 20
      vertex -41.4721 39.7023 20
      vertex -42.6604 41.4279 20
    endloop
  endfacet
  facet normal 0 0 1
    outer loop
      vertex -41.4721 39.7023 20
      vertex -43.0902 40.8779 20
      vertex -41.7844 39.2394 20
    endloop
  endfacet
  facet normal -0 0 1
    outer loop
      vertex -43.4805 40.2992 20
      vertex -41.7844 39.2394 20
      vertex -43.0902 40.8779 20
    endloop
  endfacet
  facet normal 0 0 1
    outer loop
      vertex -41.7844 39.2394 20
      vertex -43.4805 40.2992 20
      vertex -42.0636 38.7558 20
    endloop
  endfacet
  facet normal -0 0 1
    outer loop
      vertex -43.8295 39.6947 20
      vertex -42.0636 38.7558 20
      vertex -43.4805 40.2992 20
    endloop
  endfacet
  facet normal 0 0 1
    outer loop
      vertex -42.0636 38.7558 20
      vertex -43.8295 39.6947 20
      vertex -42.3084 38.2539 20
    endloop
  endfacet
  facet normal -0 0 1
    outer loop
      vertex -44.1355 39.0674 20
      vertex -42.3084 38.2539 20
      vertex -43.8295 39.6947 20
    endloop
  endfacet
  facet normal 0 0 1
    outer loop
      vertex -42.3084 38.2539 20
      vertex -44.1355 39.0674 20
      vertex -42.5175 37.7362 20
    endloop
  endfacet
  facet normal -0 0 1
    outer loop
      vertex -44.3969 38.4202 20
      vertex -42.5175 37.7362 20
      vertex -44.1355 39.0674 20
    endloop
  endfacet
  facet normal 0 0 1
    outer loop
      vertex -42.5175 37.7362 20
      vertex -44.3969 38.4202 20
      vertex -42.6901 37.2051 20
    endloop
  endfacet
  facet normal -0 0 1
    outer loop
      vertex -44.6126 37.7564 20
      vertex -42.6901 37.2051 20
      vertex -44.3969 38.4202 20
    endloop
  endfacet
  facet normal 0 0 1
    outer loop
      vertex -42.6901 37.2051 20
      vertex -44.6126 37.7564 20
      vertex -42.8252 36.6633 20
    endloop
  endfacet
  facet normal -0 0 1
    outer loop
      vertex -44.7815 37.0791 20
      vertex -42.8252 36.6633 20
      vertex -44.6126 37.7564 20
    endloop
  endfacet
  facet normal 0 0 1
    outer loop
      vertex -42.8252 36.6633 20
      vertex -44.7815 37.0791 20
      vertex -42.9221 36.1134 20
    endloop
  endfacet
  facet normal -0 0 1
    outer loop
      vertex -44.9027 36.3917 20
      vertex -42.9221 36.1134 20
      vertex -44.7815 37.0791 20
    endloop
  endfacet
  facet normal 0 0 1
    outer loop
      vertex -42.9221 36.1134 20
      vertex -44.9027 36.3917 20
      vertex -42.9805 35.5581 20
    endloop
  endfacet
  facet normal -0 0 1
    outer loop
      vertex -44.9756 35.6976 20
      vertex -42.9805 35.5581 20
      vertex -44.9027 36.3917 20
    endloop
  endfacet
  facet normal 0 0 1
    outer loop
      vertex -42.9805 35.5581 20
      vertex -44.9756 35.6976 20
      vertex -43 35 20
    endloop
  endfacet
  facet normal 0 0 1
    outer loop
      vertex -43 35 20
      vertex -44.9756 35.6976 20
      vertex -45 35 20
    endloop
  endfacet
  facet normal 0 0 1
    outer loop
      vertex -45 -23.7868 20
      vertex -43 35 20
      vertex -45 35 20
    endloop
  endfacet
  facet normal 0 0 1
    outer loop
      vertex -43 35 20
      vertex -45 -23.7868 20
      vertex -43 -25.7868 20
    endloop
  endfacet
  facet normal 0 0 1
    outer loop
      vertex 44.6126 -37.7564 20
      vertex 42.6901 -37.2051 20
      vertex 44.3969 -38.4202 20
    endloop
  endfacet
  facet normal -0 0 1
    outer loop
      vertex 42.5175 -37.7362 20
      vertex 44.3969 -38.4202 20
      vertex 42.6901 -37.2051 20
    endloop
  endfacet
  facet normal 0 0 1
    outer loop
      vertex 44.3969 -38.4202 20
      vertex 42.5175 -37.7362 20
      vertex 44.1355 -39.0674 20
    endloop
  endfacet
  facet normal -0 0 1
    outer loop
      vertex 42.3084 -38.2539 20
      vertex 44.1355 -39.0674 20
      vertex 42.5175 -37.7362 20
    endloop
  endfacet
  facet normal 0 0 1
    outer loop
      vertex 44.1355 -39.0674 20
      vertex 42.3084 -38.2539 20
      vertex 43.8295 -39.6947 20
    endloop
  endfacet
  facet normal -0 0 1
    outer loop
      vertex 42.0636 -38.7558 20
      vertex 43.8295 -39.6947 20
      vertex 42.3084 -38.2539 20
    endloop
  endfacet
  facet normal 0 0 1
    outer loop
      vertex 43.8295 -39.6947 20
      vertex 42.0636 -38.7558 20
      vertex 43.4805 -40.2992 20
    endloop
  endfacet
  facet normal -0 0 1
    outer loop
      vertex 41.7844 -39.2394 20
      vertex 43.4805 -40.2992 20
      vertex 42.0636 -38.7558 20
    endloop
  endfacet
  facet normal 0 0 1
    outer loop
      vertex 43.4805 -40.2992 20
      vertex 41.7844 -39.2394 20
      vertex 43.0902 -40.8779 20
    endloop
  endfacet
  facet normal -0 0 1
    outer loop
      vertex 41.4721 -39.7023 20
      vertex 43.0902 -40.8779 20
      vertex 41.7844 -39.2394 20
    endloop
  endfacet
  facet normal 0 0 1
    outer loop
      vertex 43.0902 -40.8779 20
      vertex 41.4721 -39.7023 20
      vertex 42.6604 -41.4279 20
    endloop
  endfacet
  facet normal -0 0 1
    outer loop
      vertex 41.1284 -40.1423 20
      vertex 42.6604 -41.4279 20
      vertex 41.4721 -39.7023 20
    endloop
  endfacet
  facet normal 0 0 1
    outer loop
      vertex 42.6604 -41.4279 20
      vertex 41.1284 -40.1423 20
      vertex 42.1934 -41.9466 20
    endloop
  endfacet
  facet normal -0 0 1
    outer loop
      vertex 40.7547 -40.5573 20
      vertex 42.1934 -41.9466 20
      vertex 41.1284 -40.1423 20
    endloop
  endfacet
  facet normal 0 0 1
    outer loop
      vertex 42.1934 -41.9466 20
      vertex 40.7547 -40.5573 20
      vertex 41.6913 -42.4314 20
    endloop
  endfacet
  facet normal -0 0 1
    outer loop
      vertex 40.353 -40.9452 20
      vertex 41.6913 -42.4314 20
      vertex 40.7547 -40.5573 20
    endloop
  endfacet
  facet normal 0 0 1
    outer loop
      vertex 41.6913 -42.4314 20
      vertex 40.353 -40.9452 20
      vertex 41.1566 -42.8801 20
    endloop
  endfacet
  facet normal -0 0 1
    outer loop
      vertex 39.9253 -41.3041 20
      vertex 41.1566 -42.8801 20
      vertex 40.353 -40.9452 20
    endloop
  endfacet
  facet normal 0 0 1
    outer loop
      vertex 41.1566 -42.8801 20
      vertex 39.9253 -41.3041 20
      vertex 40.5919 -43.2904 20
    endloop
  endfacet
  facet normal -0 0 1
    outer loop
      vertex 39.4735 -41.6323 20
      vertex 40.5919 -43.2904 20
      vertex 39.9253 -41.3041 20
    endloop
  endfacet
  facet normal 0 0 1
    outer loop
      vertex 40.5919 -43.2904 20
      vertex 39.4735 -41.6323 20
      vertex 40 -43.6603 20
    endloop
  endfacet
  facet normal -0 0 1
    outer loop
      vertex 39 -41.9282 20
      vertex 40 -43.6603 20
      vertex 39.4735 -41.6323 20
    endloop
  endfacet
  facet normal 0 0 1
    outer loop
      vertex 40 -43.6603 20
      vertex 39 -41.9282 20
      vertex 39.3837 -43.9879 20
    endloop
  endfacet
  facet normal -0 0 1
    outer loop
      vertex 38.507 -42.1904 20
      vertex 39.3837 -43.9879 20
      vertex 39 -41.9282 20
    endloop
  endfacet
  facet normal 0 0 1
    outer loop
      vertex 39.3837 -43.9879 20
      vertex 38.507 -42.1904 20
      vertex 38.7461 -44.2718 20
    endloop
  endfacet
  facet normal -0 0 1
    outer loop
      vertex 37.9969 -42.4175 20
      vertex 38.7461 -44.2718 20
      vertex 38.507 -42.1904 20
    endloop
  endfacet
  facet normal 0 0 1
    outer loop
      vertex 38.7461 -44.2718 20
      vertex 37.9969 -42.4175 20
      vertex 38.0902 -44.5106 20
    endloop
  endfacet
  facet normal -0 0 1
    outer loop
      vertex 37.4721 -42.6085 20
      vertex 38.0902 -44.5106 20
      vertex 37.9969 -42.4175 20
    endloop
  endfacet
  facet normal 0 0 1
    outer loop
      vertex 37.4721 -42.6085 20
      vertex 37.4192 -44.703 20
      vertex 38.0902 -44.5106 20
    endloop
  endfacet
  facet normal -0 0 1
    outer loop
      vertex 36.9354 -42.7624 20
      vertex 37.4192 -44.703 20
      vertex 37.4721 -42.6085 20
    endloop
  endfacet
  facet normal 0 0 1
    outer loop
      vertex 36.9354 -42.7624 20
      vertex 36.7365 -44.8481 20
      vertex 37.4192 -44.703 20
    endloop
  endfacet
  facet normal -0 0 1
    outer loop
      vertex 36.3892 -42.8785 20
      vertex 36.7365 -44.8481 20
      vertex 36.9354 -42.7624 20
    endloop
  endfacet
  facet normal 0 0 1
    outer loop
      vertex 36.3892 -42.8785 20
      vertex 36.0453 -44.9452 20
      vertex 36.7365 -44.8481 20
    endloop
  endfacet
  facet normal -0 0 1
    outer loop
      vertex 35.8362 -42.9562 20
      vertex 36.0453 -44.9452 20
      vertex 36.3892 -42.8785 20
    endloop
  endfacet
  facet normal 0 0 1
    outer loop
      vertex 35.8362 -42.9562 20
      vertex 35.349 -44.9939 20
      vertex 36.0453 -44.9452 20
    endloop
  endfacet
  facet normal -0 0 1
    outer loop
      vertex 35.2792 -42.9951 20
      vertex 35.349 -44.9939 20
      vertex 35.8362 -42.9562 20
    endloop
  endfacet
  facet normal 0 0 1
    outer loop
      vertex 35.2792 -42.9951 20
      vertex -23.7929 -44.9939 20
      vertex 35.349 -44.9939 20
    endloop
  endfacet
  facet normal -0 0 1
    outer loop
      vertex -25.7819 -42.9951 20
      vertex -23.7929 -44.9939 20
      vertex 35.2792 -42.9951 20
    endloop
  endfacet
  facet normal 0 0 1
    outer loop
      vertex -23.7929 -44.9939 20
      vertex -25.7819 -42.9951 20
      vertex -25.7868 -43 20
    endloop
  endfacet
  facet normal 0.999391 -0.0349012 0
    outer loop
      vertex 44.9756 -35.6976 20
      vertex 45 -35 0
      vertex 45 -35 20
    endloop
  endfacet
  facet normal 0.999391 -0.0349012 0
    outer loop
      vertex 45 -35 0
      vertex 44.9756 -35.6976 20
      vertex 44.9756 -35.6976 0
    endloop
  endfacet
  facet normal 0.743146 -0.66913 0
    outer loop
      vertex 42.1934 -41.9466 20
      vertex 42.6604 -41.4279 0
      vertex 42.6604 -41.4279 20
    endloop
  endfacet
  facet normal 0.743146 -0.66913 0
    outer loop
      vertex 42.6604 -41.4279 0
      vertex 42.1934 -41.9466 20
      vertex 42.1934 -41.9466 0
    endloop
  endfacet
  facet normal -0.999391 0.0349012 0
    outer loop
      vertex -45 35 0
      vertex -44.9756 35.6976 20
      vertex -44.9756 35.6976 0
    endloop
  endfacet
  facet normal -0.999391 0.0349012 0
    outer loop
      vertex -44.9756 35.6976 20
      vertex -45 35 0
      vertex -45 35 20
    endloop
  endfacet
  facet normal 0.0697586 0.997564 -0
    outer loop
      vertex 36.0453 44.9452 0
      vertex 35.349 44.9939 20
      vertex 36.0453 44.9452 20
    endloop
  endfacet
  facet normal 0.0697586 0.997564 0
    outer loop
      vertex 35.349 44.9939 20
      vertex 36.0453 44.9452 0
      vertex 35.349 44.9939 0
    endloop
  endfacet
  facet normal 0.951056 0.309018 0
    outer loop
      vertex 44.6126 37.7564 20
      vertex 44.3969 38.4202 0
      vertex 44.3969 38.4202 20
    endloop
  endfacet
  facet normal 0.951056 0.309018 0
    outer loop
      vertex 44.3969 38.4202 0
      vertex 44.6126 37.7564 20
      vertex 44.6126 37.7564 0
    endloop
  endfacet
  facet normal 0.275635 -0.961262 0
    outer loop
      vertex 37.4192 -44.703 0
      vertex 38.0902 -44.5106 20
      vertex 37.4192 -44.703 20
    endloop
  endfacet
  facet normal 0.275635 -0.961262 0
    outer loop
      vertex 38.0902 -44.5106 20
      vertex 37.4192 -44.703 0
      vertex 38.0902 -44.5106 0
    endloop
  endfacet
  facet normal 0.78801 -0.615663 0
    outer loop
      vertex 42.6604 -41.4279 20
      vertex 43.0902 -40.8779 0
      vertex 43.0902 -40.8779 20
    endloop
  endfacet
  facet normal 0.78801 -0.615663 0
    outer loop
      vertex 43.0902 -40.8779 0
      vertex 42.6604 -41.4279 20
      vertex 42.6604 -41.4279 0
    endloop
  endfacet
  facet normal 0.642787 -0.766045 0
    outer loop
      vertex 41.1566 -42.8801 0
      vertex 41.6913 -42.4314 20
      vertex 41.1566 -42.8801 20
    endloop
  endfacet
  facet normal 0.642787 -0.766045 0
    outer loop
      vertex 41.6913 -42.4314 20
      vertex 41.1566 -42.8801 0
      vertex 41.6913 -42.4314 0
    endloop
  endfacet
  facet normal 0.951056 -0.309018 0
    outer loop
      vertex 44.3969 -38.4202 20
      vertex 44.6126 -37.7564 0
      vertex 44.6126 -37.7564 20
    endloop
  endfacet
  facet normal 0.951056 -0.309018 0
    outer loop
      vertex 44.6126 -37.7564 0
      vertex 44.3969 -38.4202 20
      vertex 44.3969 -38.4202 0
    endloop
  endfacet
  facet normal 0.927183 -0.374609 0
    outer loop
      vertex 44.1355 -39.0674 20
      vertex 44.3969 -38.4202 0
      vertex 44.3969 -38.4202 20
    endloop
  endfacet
  facet normal 0.927183 -0.374609 0
    outer loop
      vertex 44.3969 -38.4202 0
      vertex 44.1355 -39.0674 20
      vertex 44.1355 -39.0674 0
    endloop
  endfacet
  facet normal 0.994522 -0.104528 0
    outer loop
      vertex 44.9027 -36.3917 20
      vertex 44.9756 -35.6976 0
      vertex 44.9756 -35.6976 20
    endloop
  endfacet
  facet normal 0.994522 -0.104528 0
    outer loop
      vertex 44.9756 -35.6976 0
      vertex 44.9027 -36.3917 20
      vertex 44.9027 -36.3917 0
    endloop
  endfacet
  facet normal -1 0 0
    outer loop
      vertex -45 35 0
      vertex -45 -23.7868 20
      vertex -45 35 20
    endloop
  endfacet
  facet normal -1 0 0
    outer loop
      vertex -45 -23.7868 0
      vertex -45 -23.7868 20
      vertex -45 35 0
    endloop
  endfacet
  facet normal -0.642787 0.766045 0
    outer loop
      vertex -41.1566 42.8801 0
      vertex -41.6913 42.4314 20
      vertex -41.1566 42.8801 20
    endloop
  endfacet
  facet normal -0.642787 0.766045 0
    outer loop
      vertex -41.6913 42.4314 20
      vertex -41.1566 42.8801 0
      vertex -41.6913 42.4314 0
    endloop
  endfacet
  facet normal -0.994522 0.104528 0
    outer loop
      vertex -44.9756 35.6976 0
      vertex -44.9027 36.3917 20
      vertex -44.9027 36.3917 0
    endloop
  endfacet
  facet normal -0.994522 0.104528 0
    outer loop
      vertex -44.9027 36.3917 20
      vertex -44.9756 35.6976 0
      vertex -44.9756 35.6976 20
    endloop
  endfacet
  facet normal -0.743146 0.66913 0
    outer loop
      vertex -42.6604 41.4279 0
      vertex -42.1934 41.9466 20
      vertex -42.1934 41.9466 0
    endloop
  endfacet
  facet normal -0.743146 0.66913 0
    outer loop
      vertex -42.1934 41.9466 20
      vertex -42.6604 41.4279 0
      vertex -42.6604 41.4279 20
    endloop
  endfacet
  facet normal -0.78801 0.615663 0
    outer loop
      vertex -43.0902 40.8779 0
      vertex -42.6604 41.4279 20
      vertex -42.6604 41.4279 0
    endloop
  endfacet
  facet normal -0.78801 0.615663 0
    outer loop
      vertex -42.6604 41.4279 20
      vertex -43.0902 40.8779 0
      vertex -43.0902 40.8779 20
    endloop
  endfacet
  facet normal -0.529923 0.848046 0
    outer loop
      vertex -40 43.6603 0
      vertex -40.5919 43.2904 20
      vertex -40 43.6603 20
    endloop
  endfacet
  facet normal -0.529923 0.848046 0
    outer loop
      vertex -40.5919 43.2904 20
      vertex -40 43.6603 0
      vertex -40.5919 43.2904 0
    endloop
  endfacet
  facet normal -0.275635 0.961262 0
    outer loop
      vertex -37.4192 44.703 0
      vertex -38.0902 44.5106 20
      vertex -37.4192 44.703 20
    endloop
  endfacet
  facet normal -0.275635 0.961262 0
    outer loop
      vertex -38.0902 44.5106 20
      vertex -37.4192 44.703 0
      vertex -38.0902 44.5106 0
    endloop
  endfacet
  facet normal 0 1 -0
    outer loop
      vertex 35.349 44.9939 0
      vertex -35.349 44.9939 20
      vertex 35.349 44.9939 20
    endloop
  endfacet
  facet normal 0 1 0
    outer loop
      vertex -35.349 44.9939 20
      vertex 35.349 44.9939 0
      vertex -35.349 44.9939 0
    endloop
  endfacet
  facet normal 0.587784 -0.809018 0
    outer loop
      vertex 40.5919 -43.2904 0
      vertex 41.1566 -42.8801 20
      vertex 40.5919 -43.2904 20
    endloop
  endfacet
  facet normal 0.587784 -0.809018 0
    outer loop
      vertex 41.1566 -42.8801 20
      vertex 40.5919 -43.2904 0
      vertex 41.1566 -42.8801 0
    endloop
  endfacet
  facet normal 0.139173 -0.990268 0
    outer loop
      vertex 36.0453 -44.9452 0
      vertex 36.7365 -44.8481 20
      vertex 36.0453 -44.9452 20
    endloop
  endfacet
  facet normal 0.139173 -0.990268 0
    outer loop
      vertex 36.7365 -44.8481 20
      vertex 36.0453 -44.9452 0
      vertex 36.7365 -44.8481 0
    endloop
  endfacet
  facet normal 0.0697586 -0.997564 0
    outer loop
      vertex 35.349 -44.9939 0
      vertex 36.0453 -44.9452 20
      vertex 35.349 -44.9939 20
    endloop
  endfacet
  facet normal 0.0697586 -0.997564 0
    outer loop
      vertex 36.0453 -44.9452 20
      vertex 35.349 -44.9939 0
      vertex 36.0453 -44.9452 0
    endloop
  endfacet
  facet normal 0.342022 -0.939692 0
    outer loop
      vertex 38.0902 -44.5106 0
      vertex 38.7461 -44.2718 20
      vertex 38.0902 -44.5106 20
    endloop
  endfacet
  facet normal 0.342022 -0.939692 0
    outer loop
      vertex 38.7461 -44.2718 20
      vertex 38.0902 -44.5106 0
      vertex 38.7461 -44.2718 0
    endloop
  endfacet
  facet normal 0.469466 -0.882951 0
    outer loop
      vertex 39.3837 -43.9879 0
      vertex 40 -43.6603 20
      vertex 39.3837 -43.9879 20
    endloop
  endfacet
  facet normal 0.469466 -0.882951 0
    outer loop
      vertex 40 -43.6603 20
      vertex 39.3837 -43.9879 0
      vertex 40 -43.6603 0
    endloop
  endfacet
  facet normal 0.20791 -0.978148 0
    outer loop
      vertex 36.7365 -44.8481 0
      vertex 37.4192 -44.703 20
      vertex 36.7365 -44.8481 20
    endloop
  endfacet
  facet normal 0.20791 -0.978148 0
    outer loop
      vertex 37.4192 -44.703 20
      vertex 36.7365 -44.8481 0
      vertex 37.4192 -44.703 0
    endloop
  endfacet
  facet normal 0.829036 -0.559195 0
    outer loop
      vertex 43.0902 -40.8779 20
      vertex 43.4805 -40.2992 0
      vertex 43.4805 -40.2992 20
    endloop
  endfacet
  facet normal 0.829036 -0.559195 0
    outer loop
      vertex 43.4805 -40.2992 0
      vertex 43.0902 -40.8779 20
      vertex 43.0902 -40.8779 0
    endloop
  endfacet
  facet normal 0.694659 -0.71934 0
    outer loop
      vertex 41.6913 -42.4314 0
      vertex 42.1934 -41.9466 20
      vertex 41.6913 -42.4314 20
    endloop
  endfacet
  facet normal 0.694659 -0.71934 0
    outer loop
      vertex 42.1934 -41.9466 20
      vertex 41.6913 -42.4314 0
      vertex 42.1934 -41.9466 0
    endloop
  endfacet
  facet normal 0.898795 -0.438369 0
    outer loop
      vertex 43.8295 -39.6947 20
      vertex 44.1355 -39.0674 0
      vertex 44.1355 -39.0674 20
    endloop
  endfacet
  facet normal 0.898795 -0.438369 0
    outer loop
      vertex 44.1355 -39.0674 0
      vertex 43.8295 -39.6947 20
      vertex 43.8295 -39.6947 0
    endloop
  endfacet
  facet normal 0.984808 -0.173648 0
    outer loop
      vertex 44.7815 -37.0791 20
      vertex 44.9027 -36.3917 0
      vertex 44.9027 -36.3917 20
    endloop
  endfacet
  facet normal 0.984808 -0.173648 0
    outer loop
      vertex 44.9027 -36.3917 0
      vertex 44.7815 -37.0791 20
      vertex 44.7815 -37.0791 0
    endloop
  endfacet
  facet normal 0.970296 -0.24192 0
    outer loop
      vertex 44.6126 -37.7564 20
      vertex 44.7815 -37.0791 0
      vertex 44.7815 -37.0791 20
    endloop
  endfacet
  facet normal 0.970296 -0.24192 0
    outer loop
      vertex 44.7815 -37.0791 0
      vertex 44.6126 -37.7564 20
      vertex 44.6126 -37.7564 0
    endloop
  endfacet
  facet normal -0.898795 0.438369 0
    outer loop
      vertex -44.1355 39.0674 0
      vertex -43.8295 39.6947 20
      vertex -43.8295 39.6947 0
    endloop
  endfacet
  facet normal -0.898795 0.438369 0
    outer loop
      vertex -43.8295 39.6947 20
      vertex -44.1355 39.0674 0
      vertex -44.1355 39.0674 20
    endloop
  endfacet
  facet normal -0.951056 0.309018 0
    outer loop
      vertex -44.6126 37.7564 0
      vertex -44.3969 38.4202 20
      vertex -44.3969 38.4202 0
    endloop
  endfacet
  facet normal -0.951056 0.309018 0
    outer loop
      vertex -44.3969 38.4202 20
      vertex -44.6126 37.7564 0
      vertex -44.6126 37.7564 20
    endloop
  endfacet
  facet normal -0.970296 0.24192 0
    outer loop
      vertex -44.7815 37.0791 0
      vertex -44.6126 37.7564 20
      vertex -44.6126 37.7564 0
    endloop
  endfacet
  facet normal -0.970296 0.24192 0
    outer loop
      vertex -44.6126 37.7564 20
      vertex -44.7815 37.0791 0
      vertex -44.7815 37.0791 20
    endloop
  endfacet
  facet normal -0.694659 0.71934 0
    outer loop
      vertex -41.6913 42.4314 0
      vertex -42.1934 41.9466 20
      vertex -41.6913 42.4314 20
    endloop
  endfacet
  facet normal -0.694659 0.71934 0
    outer loop
      vertex -42.1934 41.9466 20
      vertex -41.6913 42.4314 0
      vertex -42.1934 41.9466 0
    endloop
  endfacet
  facet normal -0.829036 0.559195 0
    outer loop
      vertex -43.4805 40.2992 0
      vertex -43.0902 40.8779 20
      vertex -43.0902 40.8779 0
    endloop
  endfacet
  facet normal -0.829036 0.559195 0
    outer loop
      vertex -43.0902 40.8779 20
      vertex -43.4805 40.2992 0
      vertex -43.4805 40.2992 20
    endloop
  endfacet
  facet normal -0.0697586 0.997564 0
    outer loop
      vertex -35.349 44.9939 0
      vertex -36.0453 44.9452 20
      vertex -35.349 44.9939 20
    endloop
  endfacet
  facet normal -0.0697586 0.997564 0
    outer loop
      vertex -36.0453 44.9452 20
      vertex -35.349 44.9939 0
      vertex -36.0453 44.9452 0
    endloop
  endfacet
  facet normal -0.587784 0.809018 0
    outer loop
      vertex -40.5919 43.2904 0
      vertex -41.1566 42.8801 20
      vertex -40.5919 43.2904 20
    endloop
  endfacet
  facet normal -0.587784 0.809018 0
    outer loop
      vertex -41.1566 42.8801 20
      vertex -40.5919 43.2904 0
      vertex -41.1566 42.8801 0
    endloop
  endfacet
  facet normal -0.342022 0.939692 0
    outer loop
      vertex -38.0902 44.5106 0
      vertex -38.7461 44.2718 20
      vertex -38.0902 44.5106 20
    endloop
  endfacet
  facet normal -0.342022 0.939692 0
    outer loop
      vertex -38.7461 44.2718 20
      vertex -38.0902 44.5106 0
      vertex -38.7461 44.2718 0
    endloop
  endfacet
  facet normal -0.20791 0.978148 0
    outer loop
      vertex -36.7365 44.8481 0
      vertex -37.4192 44.703 20
      vertex -36.7365 44.8481 20
    endloop
  endfacet
  facet normal -0.20791 0.978148 0
    outer loop
      vertex -37.4192 44.703 20
      vertex -36.7365 44.8481 0
      vertex -37.4192 44.703 0
    endloop
  endfacet
  facet normal 0.927182 0.374611 0
    outer loop
      vertex 44.3969 38.4202 20
      vertex 44.1355 39.0674 0
      vertex 44.1355 39.0674 20
    endloop
  endfacet
  facet normal 0.927182 0.374611 0
    outer loop
      vertex 44.1355 39.0674 0
      vertex 44.3969 38.4202 20
      vertex 44.3969 38.4202 0
    endloop
  endfacet
  facet normal 0.999391 0.0349012 0
    outer loop
      vertex 45 35 20
      vertex 44.9756 35.6976 0
      vertex 44.9756 35.6976 20
    endloop
  endfacet
  facet normal 0.999391 0.0349012 0
    outer loop
      vertex 44.9756 35.6976 0
      vertex 45 35 20
      vertex 45 35 0
    endloop
  endfacet
  facet normal -0 0 -1
    outer loop
      vertex -23.7868 -45 0
      vertex -23.7939 -45.0071 0
      vertex -23.7929 -44.9939 0
    endloop
  endfacet
  facet normal 0 0 -1
    outer loop
      vertex 35.349 -44.9939 0
      vertex 45 -35 0
      vertex 44.9756 -35.6976 0
    endloop
  endfacet
  facet normal -0 0 -1
    outer loop
      vertex 45 -35 0
      vertex -23.7929 -44.9939 0
      vertex 45 35 0
    endloop
  endfacet
  facet normal 0 0 -1
    outer loop
      vertex 35.349 -44.9939 0
      vertex 44.9756 -35.6976 0
      vertex 44.9027 -36.3917 0
    endloop
  endfacet
  facet normal 0 0 -1
    outer loop
      vertex -45 -23.7868 0
      vertex 45 35 0
      vertex -23.7929 -44.9939 0
    endloop
  endfacet
  facet normal 0 0 -1
    outer loop
      vertex 35.349 -44.9939 0
      vertex 44.9027 -36.3917 0
      vertex 44.7815 -37.0791 0
    endloop
  endfacet
  facet normal 0 0 -1
    outer loop
      vertex 45 -35 0
      vertex 35.349 -44.9939 0
      vertex -23.7929 -44.9939 0
    endloop
  endfacet
  facet normal 0 0 -1
    outer loop
      vertex 35.349 -44.9939 0
      vertex 44.7815 -37.0791 0
      vertex 44.6126 -37.7564 0
    endloop
  endfacet
  facet normal 0 0 -1
    outer loop
      vertex 45 35 0
      vertex 35.349 44.9939 0
      vertex 44.9756 35.6976 0
    endloop
  endfacet
  facet normal 0 0 -1
    outer loop
      vertex 35.349 -44.9939 0
      vertex 44.6126 -37.7564 0
      vertex 44.3969 -38.4202 0
    endloop
  endfacet
  facet normal 0 0 -1
    outer loop
      vertex 44.9027 36.3917 0
      vertex 35.349 44.9939 0
      vertex 44.7815 37.0791 0
    endloop
  endfacet
  facet normal 0 0 -1
    outer loop
      vertex 35.349 -44.9939 0
      vertex 44.3969 -38.4202 0
      vertex 44.1355 -39.0674 0
    endloop
  endfacet
  facet normal 0 0 -1
    outer loop
      vertex 44.7815 37.0791 0
      vertex 35.349 44.9939 0
      vertex 44.6126 37.7564 0
    endloop
  endfacet
  facet normal 0 0 -1
    outer loop
      vertex 35.349 -44.9939 0
      vertex 44.1355 -39.0674 0
      vertex 43.8295 -39.6947 0
    endloop
  endfacet
  facet normal 0 0 -1
    outer loop
      vertex 44.6126 37.7564 0
      vertex 35.349 44.9939 0
      vertex 44.3969 38.4202 0
    endloop
  endfacet
  facet normal 0 0 -1
    outer loop
      vertex 35.349 -44.9939 0
      vertex 43.8295 -39.6947 0
      vertex 43.4805 -40.2992 0
    endloop
  endfacet
  facet normal 0 0 -1
    outer loop
      vertex 44.3969 38.4202 0
      vertex 35.349 44.9939 0
      vertex 44.1355 39.0674 0
    endloop
  endfacet
  facet normal 0 0 -1
    outer loop
      vertex 43.8295 39.6947 0
      vertex 35.349 44.9939 0
      vertex 43.4805 40.2992 0
    endloop
  endfacet
  facet normal 0 0 -1
    outer loop
      vertex 35.349 -44.9939 0
      vertex 43.4805 -40.2992 0
      vertex 43.0902 -40.8779 0
    endloop
  endfacet
  facet normal 0 0 -1
    outer loop
      vertex 43.4805 40.2992 0
      vertex 35.349 44.9939 0
      vertex 43.0902 40.8779 0
    endloop
  endfacet
  facet normal 0 0 -1
    outer loop
      vertex 35.349 -44.9939 0
      vertex 43.0902 -40.8779 0
      vertex 42.6604 -41.4279 0
    endloop
  endfacet
  facet normal 0 0 -1
    outer loop
      vertex 35.349 -44.9939 0
      vertex 42.6604 -41.4279 0
      vertex 42.1934 -41.9466 0
    endloop
  endfacet
  facet normal 0 0 -1
    outer loop
      vertex 44.1355 39.0674 0
      vertex 35.349 44.9939 0
      vertex 43.8295 39.6947 0
    endloop
  endfacet
  facet normal 0 0 -1
    outer loop
      vertex 42.6604 41.4279 0
      vertex 35.349 44.9939 0
      vertex 42.1934 41.9466 0
    endloop
  endfacet
  facet normal 0 0 -1
    outer loop
      vertex 35.349 -44.9939 0
      vertex 42.1934 -41.9466 0
      vertex 41.6913 -42.4314 0
    endloop
  endfacet
  facet normal 0 0 -1
    outer loop
      vertex 42.1934 41.9466 0
      vertex 35.349 44.9939 0
      vertex 41.6913 42.4314 0
    endloop
  endfacet
  facet normal 0 0 -1
    outer loop
      vertex 35.349 -44.9939 0
      vertex 41.6913 -42.4314 0
      vertex 41.1566 -42.8801 0
    endloop
  endfacet
  facet normal 0 0 -1
    outer loop
      vertex 35.349 -44.9939 0
      vertex 41.1566 -42.8801 0
      vertex 40.5919 -43.2904 0
    endloop
  endfacet
  facet normal 0 0 -1
    outer loop
      vertex 43.0902 40.8779 0
      vertex 35.349 44.9939 0
      vertex 42.6604 41.4279 0
    endloop
  endfacet
  facet normal 0 0 -1
    outer loop
      vertex 35.349 -44.9939 0
      vertex 40.5919 -43.2904 0
      vertex 40 -43.6603 0
    endloop
  endfacet
  facet normal 0 0 -1
    outer loop
      vertex 41.6913 42.4314 0
      vertex 35.349 44.9939 0
      vertex 41.1566 42.8801 0
    endloop
  endfacet
  facet normal 0 0 -1
    outer loop
      vertex 40.5919 43.2904 0
      vertex 35.349 44.9939 0
      vertex 40 43.6603 0
    endloop
  endfacet
  facet normal 0 0 -1
    outer loop
      vertex 35.349 -44.9939 0
      vertex 40 -43.6603 0
      vertex 39.3837 -43.9879 0
    endloop
  endfacet
  facet normal 0 0 -1
    outer loop
      vertex 35.349 -44.9939 0
      vertex 39.3837 -43.9879 0
      vertex 38.7461 -44.2718 0
    endloop
  endfacet
  facet normal 0 0 -1
    outer loop
      vertex 41.1566 42.8801 0
      vertex 35.349 44.9939 0
      vertex 40.5919 43.2904 0
    endloop
  endfacet
  facet normal 0 0 -1
    outer loop
      vertex 39.3837 43.9879 0
      vertex 35.349 44.9939 0
      vertex 38.7461 44.2718 0
    endloop
  endfacet
  facet normal 0 0 -1
    outer loop
      vertex 35.349 -44.9939 0
      vertex 38.7461 -44.2718 0
      vertex 38.0902 -44.5106 0
    endloop
  endfacet
  facet normal 0 0 -1
    outer loop
      vertex 38.7461 44.2718 0
      vertex 35.349 44.9939 0
      vertex 38.0902 44.5106 0
    endloop
  endfacet
  facet normal 0 0 -1
    outer loop
      vertex 35.349 -44.9939 0
      vertex 38.0902 -44.5106 0
      vertex 37.4192 -44.703 0
    endloop
  endfacet
  facet normal 0 0 -1
    outer loop
      vertex 35.349 -44.9939 0
      vertex 37.4192 -44.703 0
      vertex 36.7365 -44.8481 0
    endloop
  endfacet
  facet normal 0 0 -1
    outer loop
      vertex 40 43.6603 0
      vertex 35.349 44.9939 0
      vertex 39.3837 43.9879 0
    endloop
  endfacet
  facet normal 0 0 -1
    outer loop
      vertex 35.349 -44.9939 0
      vertex 36.7365 -44.8481 0
      vertex 36.0453 -44.9452 0
    endloop
  endfacet
  facet normal 0 0 -1
    outer loop
      vertex 38.0902 44.5106 0
      vertex 35.349 44.9939 0
      vertex 37.4192 44.703 0
    endloop
  endfacet
  facet normal 0 0 -1
    outer loop
      vertex 37.4192 44.703 0
      vertex 35.349 44.9939 0
      vertex 36.7365 44.8481 0
    endloop
  endfacet
  facet normal 0 0 -1
    outer loop
      vertex 36.7365 44.8481 0
      vertex 35.349 44.9939 0
      vertex 36.0453 44.9452 0
    endloop
  endfacet
  facet normal 0 0 -1
    outer loop
      vertex 44.9756 35.6976 0
      vertex 35.349 44.9939 0
      vertex 44.9027 36.3917 0
    endloop
  endfacet
  facet normal -0 0 -1
    outer loop
      vertex 45 35 0
      vertex -45 -23.7868 0
      vertex 35.349 44.9939 0
    endloop
  endfacet
  facet normal 0 0 -1
    outer loop
      vertex -37.9195 -52.0664 0
      vertex -23.7929 -44.9939 0
      vertex -23.7939 -45.0071 0
    endloop
  endfacet
  facet normal -0 0 -1
    outer loop
      vertex 35.349 44.9939 0
      vertex -45 -23.7868 0
      vertex -35.349 44.9939 0
    endloop
  endfacet
  facet normal 0 0 -1
    outer loop
      vertex -45 35 0
      vertex -35.349 44.9939 0
      vertex -45 -23.7868 0
    endloop
  endfacet
  facet normal 0 0 -1
    outer loop
      vertex -35.349 44.9939 0
      vertex -45 35 0
      vertex -36.0453 44.9452 0
    endloop
  endfacet
  facet normal -0 0 -1
    outer loop
      vertex -23.7929 -44.9939 0
      vertex -37.9195 -52.0664 0
      vertex -45.0071 -23.7939 0
    endloop
  endfacet
  facet normal 0 0 -1
    outer loop
      vertex -36.0453 44.9452 0
      vertex -45 35 0
      vertex -36.7365 44.8481 0
    endloop
  endfacet
  facet normal 0 0 -1
    outer loop
      vertex -36.7365 44.8481 0
      vertex -45 35 0
      vertex -37.4192 44.703 0
    endloop
  endfacet
  facet normal 0 0 -1
    outer loop
      vertex -37.4192 44.703 0
      vertex -45 35 0
      vertex -38.0902 44.5106 0
    endloop
  endfacet
  facet normal 0 0 -1
    outer loop
      vertex -38.0902 44.5106 0
      vertex -45 35 0
      vertex -38.7461 44.2718 0
    endloop
  endfacet
  facet normal 0 0 -1
    outer loop
      vertex -38.7461 44.2718 0
      vertex -45 35 0
      vertex -39.3837 43.9879 0
    endloop
  endfacet
  facet normal 0 0 -1
    outer loop
      vertex -39.3837 43.9879 0
      vertex -45 35 0
      vertex -40 43.6603 0
    endloop
  endfacet
  facet normal 0 0 -1
    outer loop
      vertex -40 43.6603 0
      vertex -45 35 0
      vertex -40.5919 43.2904 0
    endloop
  endfacet
  facet normal 0 0 -1
    outer loop
      vertex -40.5919 43.2904 0
      vertex -45 35 0
      vertex -41.1566 42.8801 0
    endloop
  endfacet
  facet normal 0 0 -1
    outer loop
      vertex -41.1566 42.8801 0
      vertex -45 35 0
      vertex -41.6913 42.4314 0
    endloop
  endfacet
  facet normal 0 0 -1
    outer loop
      vertex -41.6913 42.4314 0
      vertex -45 35 0
      vertex -42.1934 41.9466 0
    endloop
  endfacet
  facet normal 0 0 -1
    outer loop
      vertex -42.1934 41.9466 0
      vertex -45 35 0
      vertex -42.6604 41.4279 0
    endloop
  endfacet
  facet normal 0 0 -1
    outer loop
      vertex -42.6604 41.4279 0
      vertex -45 35 0
      vertex -43.0902 40.8779 0
    endloop
  endfacet
  facet normal 0 0 -1
    outer loop
      vertex -43.0902 40.8779 0
      vertex -45 35 0
      vertex -43.4805 40.2992 0
    endloop
  endfacet
  facet normal 0 0 -1
    outer loop
      vertex -43.4805 40.2992 0
      vertex -45 35 0
      vertex -43.8295 39.6947 0
    endloop
  endfacet
  facet normal 0 0 -1
    outer loop
      vertex -44.1355 39.0674 0
      vertex -45 35 0
      vertex -44.3969 38.4202 0
    endloop
  endfacet
  facet normal 0 0 -1
    outer loop
      vertex -44.3969 38.4202 0
      vertex -45 35 0
      vertex -44.6126 37.7564 0
    endloop
  endfacet
  facet normal 0 0 -1
    outer loop
      vertex -44.6126 37.7564 0
      vertex -45 35 0
      vertex -44.7815 37.0791 0
    endloop
  endfacet
  facet normal 0 0 -1
    outer loop
      vertex -44.7815 37.0791 0
      vertex -45 35 0
      vertex -44.9027 36.3917 0
    endloop
  endfacet
  facet normal 0 0 -1
    outer loop
      vertex -43.8295 39.6947 0
      vertex -45 35 0
      vertex -44.1355 39.0674 0
    endloop
  endfacet
  facet normal 0 0 -1
    outer loop
      vertex -23.7929 -44.9939 0
      vertex -45.0071 -23.7939 0
      vertex -45 -23.7868 0
    endloop
  endfacet
  facet normal 0 -0 -1
    outer loop
      vertex -45.0071 -23.7939 0
      vertex -37.9195 -52.0664 0
      vertex -52.0664 -37.9195 0
    endloop
  endfacet
  facet normal 0 0 -1
    outer loop
      vertex -44.9027 36.3917 0
      vertex -45 35 0
      vertex -44.9756 35.6976 0
    endloop
  endfacet
  facet normal 0.587781 0.80902 -0
    outer loop
      vertex 41.1566 42.8801 0
      vertex 40.5919 43.2904 20
      vertex 41.1566 42.8801 20
    endloop
  endfacet
  facet normal 0.587781 0.80902 0
    outer loop
      vertex 40.5919 43.2904 20
      vertex 41.1566 42.8801 0
      vertex 40.5919 43.2904 0
    endloop
  endfacet
  facet normal 0.27564 0.961261 -0
    outer loop
      vertex 38.0902 44.5106 0
      vertex 37.4192 44.703 20
      vertex 38.0902 44.5106 20
    endloop
  endfacet
  facet normal 0.27564 0.961261 0
    outer loop
      vertex 37.4192 44.703 20
      vertex 38.0902 44.5106 0
      vertex 37.4192 44.703 0
    endloop
  endfacet
  facet normal 0.529923 -0.848046 0
    outer loop
      vertex 40 -43.6603 0
      vertex 40.5919 -43.2904 20
      vertex 40 -43.6603 20
    endloop
  endfacet
  facet normal 0.529923 -0.848046 0
    outer loop
      vertex 40.5919 -43.2904 20
      vertex 40 -43.6603 0
      vertex 40.5919 -43.2904 0
    endloop
  endfacet
  facet normal 0.40674 -0.913544 0
    outer loop
      vertex 38.7461 -44.2718 0
      vertex 39.3837 -43.9879 20
      vertex 38.7461 -44.2718 20
    endloop
  endfacet
  facet normal 0.40674 -0.913544 0
    outer loop
      vertex 39.3837 -43.9879 20
      vertex 38.7461 -44.2718 0
      vertex 39.3837 -43.9879 0
    endloop
  endfacet
  facet normal -0.927183 0.374609 0
    outer loop
      vertex -44.3969 38.4202 0
      vertex -44.1355 39.0674 20
      vertex -44.1355 39.0674 0
    endloop
  endfacet
  facet normal -0.927183 0.374609 0
    outer loop
      vertex -44.1355 39.0674 20
      vertex -44.3969 38.4202 0
      vertex -44.3969 38.4202 20
    endloop
  endfacet
  facet normal -0.984808 0.173648 0
    outer loop
      vertex -44.9027 36.3917 0
      vertex -44.7815 37.0791 20
      vertex -44.7815 37.0791 0
    endloop
  endfacet
  facet normal -0.984808 0.173648 0
    outer loop
      vertex -44.7815 37.0791 20
      vertex -44.9027 36.3917 0
      vertex -44.9027 36.3917 20
    endloop
  endfacet
  facet normal -0.866025 0.5 0
    outer loop
      vertex -43.8295 39.6947 0
      vertex -43.4805 40.2992 20
      vertex -43.4805 40.2992 0
    endloop
  endfacet
  facet normal -0.866025 0.5 0
    outer loop
      vertex -43.4805 40.2992 20
      vertex -43.8295 39.6947 0
      vertex -43.8295 39.6947 20
    endloop
  endfacet
  facet normal -0.40674 0.913544 0
    outer loop
      vertex -38.7461 44.2718 0
      vertex -39.3837 43.9879 20
      vertex -38.7461 44.2718 20
    endloop
  endfacet
  facet normal -0.40674 0.913544 0
    outer loop
      vertex -39.3837 43.9879 20
      vertex -38.7461 44.2718 0
      vertex -39.3837 43.9879 0
    endloop
  endfacet
  facet normal -0.139173 0.990268 0
    outer loop
      vertex -36.0453 44.9452 0
      vertex -36.7365 44.8481 20
      vertex -36.0453 44.9452 20
    endloop
  endfacet
  facet normal -0.139173 0.990268 0
    outer loop
      vertex -36.7365 44.8481 20
      vertex -36.0453 44.9452 0
      vertex -36.7365 44.8481 0
    endloop
  endfacet
  facet normal 0.898795 0.438369 0
    outer loop
      vertex 44.1355 39.0674 20
      vertex 43.8295 39.6947 0
      vertex 43.8295 39.6947 20
    endloop
  endfacet
  facet normal 0.898795 0.438369 0
    outer loop
      vertex 43.8295 39.6947 0
      vertex 44.1355 39.0674 20
      vertex 44.1355 39.0674 0
    endloop
  endfacet
  facet normal 0.829041 0.559188 0
    outer loop
      vertex 43.4805 40.2992 20
      vertex 43.0902 40.8779 0
      vertex 43.0902 40.8779 20
    endloop
  endfacet
  facet normal 0.829041 0.559188 0
    outer loop
      vertex 43.0902 40.8779 0
      vertex 43.4805 40.2992 20
      vertex 43.4805 40.2992 0
    endloop
  endfacet
  facet normal 0.866025 0.5 0
    outer loop
      vertex 43.8295 39.6947 20
      vertex 43.4805 40.2992 0
      vertex 43.4805 40.2992 20
    endloop
  endfacet
  facet normal 0.866025 0.5 0
    outer loop
      vertex 43.4805 40.2992 0
      vertex 43.8295 39.6947 20
      vertex 43.8295 39.6947 0
    endloop
  endfacet
  facet normal 0.78801 0.615663 0
    outer loop
      vertex 43.0902 40.8779 20
      vertex 42.6604 41.4279 0
      vertex 42.6604 41.4279 20
    endloop
  endfacet
  facet normal 0.78801 0.615663 0
    outer loop
      vertex 42.6604 41.4279 0
      vertex 43.0902 40.8779 20
      vertex 43.0902 40.8779 0
    endloop
  endfacet
  facet normal 0.970296 0.24192 0
    outer loop
      vertex 44.7815 37.0791 20
      vertex 44.6126 37.7564 0
      vertex 44.6126 37.7564 20
    endloop
  endfacet
  facet normal 0.970296 0.24192 0
    outer loop
      vertex 44.6126 37.7564 0
      vertex 44.7815 37.0791 20
      vertex 44.7815 37.0791 0
    endloop
  endfacet
  facet normal 0.984808 0.173648 0
    outer loop
      vertex 44.9027 36.3917 20
      vertex 44.7815 37.0791 0
      vertex 44.7815 37.0791 20
    endloop
  endfacet
  facet normal 0.984808 0.173648 0
    outer loop
      vertex 44.7815 37.0791 0
      vertex 44.9027 36.3917 20
      vertex 44.9027 36.3917 0
    endloop
  endfacet
  facet normal 0.994522 0.104528 0
    outer loop
      vertex 44.9756 35.6976 20
      vertex 44.9027 36.3917 0
      vertex 44.9027 36.3917 20
    endloop
  endfacet
  facet normal 0.994522 0.104528 0
    outer loop
      vertex 44.9027 36.3917 0
      vertex 44.9756 35.6976 20
      vertex 44.9756 35.6976 0
    endloop
  endfacet
  facet normal 0.529919 0.848048 -0
    outer loop
      vertex 40.5919 43.2904 0
      vertex 40 43.6603 20
      vertex 40.5919 43.2904 20
    endloop
  endfacet
  facet normal 0.529919 0.848048 0
    outer loop
      vertex 40 43.6603 20
      vertex 40.5919 43.2904 0
      vertex 40 43.6603 0
    endloop
  endfacet
  facet normal 0.64279 0.766042 -0
    outer loop
      vertex 41.6913 42.4314 0
      vertex 41.1566 42.8801 20
      vertex 41.6913 42.4314 20
    endloop
  endfacet
  facet normal 0.64279 0.766042 0
    outer loop
      vertex 41.1566 42.8801 20
      vertex 41.6913 42.4314 0
      vertex 41.1566 42.8801 0
    endloop
  endfacet
  facet normal 0.743143 0.669133 0
    outer loop
      vertex 42.6604 41.4279 20
      vertex 42.1934 41.9466 0
      vertex 42.1934 41.9466 20
    endloop
  endfacet
  facet normal 0.743143 0.669133 0
    outer loop
      vertex 42.1934 41.9466 0
      vertex 42.6604 41.4279 20
      vertex 42.6604 41.4279 0
    endloop
  endfacet
  facet normal 0.342019 0.939693 -0
    outer loop
      vertex 38.7461 44.2718 0
      vertex 38.0902 44.5106 20
      vertex 38.7461 44.2718 20
    endloop
  endfacet
  facet normal 0.342019 0.939693 0
    outer loop
      vertex 38.0902 44.5106 20
      vertex 38.7461 44.2718 0
      vertex 38.0902 44.5106 0
    endloop
  endfacet
  facet normal 0.469472 0.882947 -0
    outer loop
      vertex 40 43.6603 0
      vertex 39.3837 43.9879 20
      vertex 40 43.6603 20
    endloop
  endfacet
  facet normal 0.469472 0.882947 0
    outer loop
      vertex 39.3837 43.9879 20
      vertex 40 43.6603 0
      vertex 39.3837 43.9879 0
    endloop
  endfacet
  facet normal 0.207909 0.978148 -0
    outer loop
      vertex 37.4192 44.703 0
      vertex 36.7365 44.8481 20
      vertex 37.4192 44.703 20
    endloop
  endfacet
  facet normal 0.207909 0.978148 0
    outer loop
      vertex 36.7365 44.8481 20
      vertex 37.4192 44.703 0
      vertex 36.7365 44.8481 0
    endloop
  endfacet
  facet normal 0.139173 0.990268 -0
    outer loop
      vertex 36.7365 44.8481 0
      vertex 36.0453 44.9452 20
      vertex 36.7365 44.8481 20
    endloop
  endfacet
  facet normal 0.139173 0.990268 0
    outer loop
      vertex 36.0453 44.9452 20
      vertex 36.7365 44.8481 0
      vertex 36.0453 44.9452 0
    endloop
  endfacet
  facet normal -0.469466 0.882951 0
    outer loop
      vertex -39.3837 43.9879 0
      vertex -40 43.6603 20
      vertex -39.3837 43.9879 20
    endloop
  endfacet
  facet normal -0.469466 0.882951 0
    outer loop
      vertex -40 43.6603 20
      vertex -39.3837 43.9879 0
      vertex -40 43.6603 0
    endloop
  endfacet
  facet normal 0.694658 0.71934 -0
    outer loop
      vertex 42.1934 41.9466 0
      vertex 41.6913 42.4314 20
      vertex 42.1934 41.9466 20
    endloop
  endfacet
  facet normal 0.694658 0.71934 0
    outer loop
      vertex 41.6913 42.4314 20
      vertex 42.1934 41.9466 0
      vertex 41.6913 42.4314 0
    endloop
  endfacet
  facet normal 0.406738 0.913545 -0
    outer loop
      vertex 39.3837 43.9879 0
      vertex 38.7461 44.2718 20
      vertex 39.3837 43.9879 20
    endloop
  endfacet
  facet normal 0.406738 0.913545 0
    outer loop
      vertex 38.7461 44.2718 20
      vertex 39.3837 43.9879 0
      vertex 38.7461 44.2718 0
    endloop
  endfacet
  facet normal -0.707107 0.707107 0
    outer loop
      vertex -45.0071 -23.7939 19.996
      vertex -45 -23.7868 0
      vertex -45.0071 -23.7939 0
    endloop
  endfacet
  facet normal -0.707107 0.707107 0
    outer loop
      vertex -45 -23.7868 0
      vertex -45.0071 -23.7939 19.996
      vertex -45 -23.7868 20
    endloop
  endfacet
  facet normal 0.707107 0.707107 0
    outer loop
      vertex -23.7868 -45 20
      vertex -23.7929 -44.9939 0
      vertex -23.7929 -44.9939 20
    endloop
  endfacet
  facet normal 0.707107 0.707107 0
    outer loop
      vertex -23.7929 -44.9939 0
      vertex -23.7868 -45 20
      vertex -23.7868 -45 0
    endloop
  endfacet
  facet normal -0.894517 0.447035 0
    outer loop
      vertex -52.0664 -37.9195 14.004
      vertex -45.0071 -23.7939 0
      vertex -52.0664 -37.9195 0
    endloop
  endfacet
  facet normal -0.894517 0.447035 0
    outer loop
      vertex -45.0071 -23.7939 0
      vertex -52.0664 -37.9195 14.004
      vertex -45.0071 -23.7939 19.996
    endloop
  endfacet
  facet normal 0.447035 -0.894517 0
    outer loop
      vertex -23.7939 -45.0071 0
      vertex -37.9195 -52.0664 14.004
      vertex -37.9195 -52.0664 0
    endloop
  endfacet
  facet normal 0.447035 -0.894517 0
    outer loop
      vertex -37.9195 -52.0664 14.004
      vertex -23.7939 -45.0071 0
      vertex -23.7939 -45.0071 19.996
    endloop
  endfacet
  facet normal 0.707011 -0.707202 0
    outer loop
      vertex -23.7868 -45 0
      vertex -23.7939 -45.0071 19.996
      vertex -23.7939 -45.0071 0
    endloop
  endfacet
  facet normal 0.707011 -0.707202 0
    outer loop
      vertex -23.7939 -45.0071 19.996
      vertex -23.7868 -45 0
      vertex -23.7868 -45 20
    endloop
  endfacet
  facet normal 0.870628 -0.491943 0
    outer loop
      vertex -50.6537 -39.3321 14.004
      vertex -43 -25.7868 2
      vertex -43 -25.7868 20
    endloop
  endfacet
  facet normal 0.870628 -0.491943 0
    outer loop
      vertex -43 -25.7868 2
      vertex -50.6537 -39.3321 14.004
      vertex -50.6537 -39.3321 0.801598
    endloop
  endfacet
  facet normal -0.707245 0.706968 0
    outer loop
      vertex -25.7868 -43 20
      vertex -25.7819 -42.9951 20
      vertex -25.7819 -42.9951 2
    endloop
  endfacet
  facet normal -0.707245 0.706968 0
    outer loop
      vertex -25.7868 -43 20
      vertex -25.7819 -42.9951 2
      vertex -25.7868 -43 2
    endloop
  endfacet
  facet normal 0.195366 -0.195419 0.961064
    outer loop
      vertex -43 -25.7868 2
      vertex -50.6517 -39.3341 0.800799
      vertex -42.9929 -25.7797 2
    endloop
  endfacet
  facet normal 0.19554 -0.195512 0.96101
    outer loop
      vertex -50.6517 -39.3341 0.800799
      vertex -43 -25.7868 2
      vertex -50.6537 -39.3321 0.801598
    endloop
  endfacet
  facet normal -0.0563511 -0.0563511 0.996819
    outer loop
      vertex -42.9929 -25.7797 2
      vertex -39.3341 -50.6517 0.800799
      vertex -25.7797 -42.9929 2
    endloop
  endfacet
  facet normal -0.0563511 -0.0563511 0.996819
    outer loop
      vertex -39.3341 -50.6517 0.800799
      vertex -42.9929 -25.7797 2
      vertex -50.6517 -39.3341 0.800799
    endloop
  endfacet
  facet normal -0.491943 0.870628 0
    outer loop
      vertex -25.7868 -43 2
      vertex -39.3321 -50.6537 14.004
      vertex -25.7868 -43 20
    endloop
  endfacet
  facet normal -0.491943 0.870628 0
    outer loop
      vertex -39.3321 -50.6537 14.004
      vertex -25.7868 -43 2
      vertex -39.3321 -50.6537 0.801598
    endloop
  endfacet
  facet normal -0.195391 0.195315 0.96108
    outer loop
      vertex -39.3341 -50.6517 0.800799
      vertex -25.7868 -43 2
      vertex -25.7819 -42.9951 2
    endloop
  endfacet
  facet normal -0.19548 0.19548 0.961028
    outer loop
      vertex -39.3341 -50.6517 0.800799
      vertex -25.7819 -42.9951 2
      vertex -25.7797 -42.9929 2
    endloop
  endfacet
  facet normal -0.195512 0.19554 0.96101
    outer loop
      vertex -25.7868 -43 2
      vertex -39.3341 -50.6517 0.800799
      vertex -39.3321 -50.6537 0.801598
    endloop
  endfacet
  facet normal -0.707107 -0.707107 0
    outer loop
      vertex -52.0664 -37.9195 0
      vertex -50.6537 -39.3321 0.801598
      vertex -52.0664 -37.9195 14.004
    endloop
  endfacet
  facet normal -0.707107 -0.707107 0
    outer loop
      vertex -52.0664 -37.9195 0
      vertex -50.6517 -39.3341 0.800799
      vertex -50.6537 -39.3321 0.801598
    endloop
  endfacet
  facet normal -0.707107 -0.707107 0
    outer loop
      vertex -52.0664 -37.9195 0
      vertex -39.3341 -50.6517 0.800799
      vertex -50.6517 -39.3341 0.800799
    endloop
  endfacet
  facet normal -0.707107 -0.707107 0
    outer loop
      vertex -37.9195 -52.0664 0
      vertex -39.3341 -50.6517 0.800799
      vertex -52.0664 -37.9195 0
    endloop
  endfacet
  facet normal -0.707107 -0.707107 0
    outer loop
      vertex -37.9195 -52.0664 0
      vertex -39.3321 -50.6537 0.801598
      vertex -39.3341 -50.6517 0.800799
    endloop
  endfacet
  facet normal -0.707107 -0.707107 -0
    outer loop
      vertex -37.9195 -52.0664 14.004
      vertex -39.3321 -50.6537 0.801598
      vertex -37.9195 -52.0664 0
    endloop
  endfacet
  facet normal -0.707107 -0.707107 0
    outer loop
      vertex -39.3321 -50.6537 0.801598
      vertex -37.9195 -52.0664 14.004
      vertex -39.3321 -50.6537 14.004
    endloop
  endfacet
  facet normal -0.707107 -0.707107 0
    outer loop
      vertex -52.0664 -37.9195 14.004
      vertex -50.6537 -39.3321 0.801598
      vertex -50.6537 -39.3321 14.004
    endloop
  endfacet
  facet normal -1 0 0
    outer loop
      vertex 43 -35 2
      vertex 43 35 20
      vertex 43 35 2
    endloop
  endfacet
  facet normal -1 -0 0
    outer loop
      vertex 43 35 20
      vertex 43 -35 2
      vertex 43 -35 20
    endloop
  endfacet
  facet normal 0 1 -0
    outer loop
      vertex 35.2792 -42.9951 2
      vertex -25.7819 -42.9951 20
      vertex 35.2792 -42.9951 20
    endloop
  endfacet
  facet normal 0 1 0
    outer loop
      vertex -25.7819 -42.9951 20
      vertex 35.2792 -42.9951 2
      vertex -25.7819 -42.9951 2
    endloop
  endfacet
  facet normal -0.999391 0.0349025 0
    outer loop
      vertex 42.9805 -35.5581 2
      vertex 43 -35 20
      vertex 43 -35 2
    endloop
  endfacet
  facet normal -0.999391 0.0349025 0
    outer loop
      vertex 43 -35 20
      vertex 42.9805 -35.5581 2
      vertex 42.9805 -35.5581 20
    endloop
  endfacet
  facet normal -0.829035 0.559196 0
    outer loop
      vertex 41.4721 -39.7023 2
      vertex 41.7844 -39.2394 20
      vertex 41.7844 -39.2394 2
    endloop
  endfacet
  facet normal -0.829035 0.559196 0
    outer loop
      vertex 41.7844 -39.2394 20
      vertex 41.4721 -39.7023 2
      vertex 41.4721 -39.7023 20
    endloop
  endfacet
  facet normal -0.970296 0.24192 0
    outer loop
      vertex 42.6901 -37.2051 2
      vertex 42.8252 -36.6633 20
      vertex 42.8252 -36.6633 2
    endloop
  endfacet
  facet normal -0.970296 0.24192 0
    outer loop
      vertex 42.8252 -36.6633 20
      vertex 42.6901 -37.2051 2
      vertex 42.6901 -37.2051 20
    endloop
  endfacet
  facet normal 0.999391 -0.0349025 0
    outer loop
      vertex -43 35 20
      vertex -42.9805 35.5581 2
      vertex -42.9805 35.5581 20
    endloop
  endfacet
  facet normal 0.999391 -0.0349025 0
    outer loop
      vertex -42.9805 35.5581 2
      vertex -43 35 20
      vertex -43 35 2
    endloop
  endfacet
  facet normal 0.951056 -0.309019 0
    outer loop
      vertex -42.6901 37.2051 20
      vertex -42.5175 37.7362 2
      vertex -42.5175 37.7362 20
    endloop
  endfacet
  facet normal 0.951056 -0.309019 0
    outer loop
      vertex -42.5175 37.7362 2
      vertex -42.6901 37.2051 20
      vertex -42.6901 37.2051 2
    endloop
  endfacet
  facet normal 0.994522 -0.10453 0
    outer loop
      vertex -42.9805 35.5581 20
      vertex -42.9221 36.1134 2
      vertex -42.9221 36.1134 20
    endloop
  endfacet
  facet normal 0.994522 -0.10453 0
    outer loop
      vertex -42.9221 36.1134 2
      vertex -42.9805 35.5581 20
      vertex -42.9805 35.5581 2
    endloop
  endfacet
  facet normal 0.78801 -0.615663 0
    outer loop
      vertex -41.4721 39.7023 20
      vertex -41.1284 40.1423 2
      vertex -41.1284 40.1423 20
    endloop
  endfacet
  facet normal 0.78801 -0.615663 0
    outer loop
      vertex -41.1284 40.1423 2
      vertex -41.4721 39.7023 20
      vertex -41.4721 39.7023 2
    endloop
  endfacet
  facet normal 0.52992 -0.848047 0
    outer loop
      vertex -39.4735 41.6323 2
      vertex -39 41.9282 20
      vertex -39.4735 41.6323 20
    endloop
  endfacet
  facet normal 0.52992 -0.848047 0
    outer loop
      vertex -39 41.9282 20
      vertex -39.4735 41.6323 2
      vertex -39 41.9282 2
    endloop
  endfacet
  facet normal -0.0697575 -0.997564 0
    outer loop
      vertex 35.2792 42.9951 2
      vertex 35.8362 42.9562 20
      vertex 35.2792 42.9951 20
    endloop
  endfacet
  facet normal -0.0697575 -0.997564 -0
    outer loop
      vertex 35.8362 42.9562 20
      vertex 35.2792 42.9951 2
      vertex 35.8362 42.9562 2
    endloop
  endfacet
  facet normal -0.829039 -0.559191 0
    outer loop
      vertex 41.7844 39.2394 2
      vertex 41.4721 39.7023 20
      vertex 41.4721 39.7023 2
    endloop
  endfacet
  facet normal -0.829039 -0.559191 0
    outer loop
      vertex 41.4721 39.7023 20
      vertex 41.7844 39.2394 2
      vertex 41.7844 39.2394 20
    endloop
  endfacet
  facet normal -0.469467 -0.88295 0
    outer loop
      vertex 38.507 42.1903 2
      vertex 39 41.9282 20
      vertex 38.507 42.1903 20
    endloop
  endfacet
  facet normal -0.469467 -0.88295 -0
    outer loop
      vertex 39 41.9282 20
      vertex 38.507 42.1903 2
      vertex 39 41.9282 2
    endloop
  endfacet
  facet normal -0.275641 0.961261 0
    outer loop
      vertex 37.4721 -42.6085 2
      vertex 36.9354 -42.7624 20
      vertex 37.4721 -42.6085 20
    endloop
  endfacet
  facet normal -0.275641 0.961261 0
    outer loop
      vertex 36.9354 -42.7624 20
      vertex 37.4721 -42.6085 2
      vertex 36.9354 -42.7624 2
    endloop
  endfacet
  facet normal -0.469473 0.882947 0
    outer loop
      vertex 39 -41.9282 2
      vertex 38.507 -42.1904 20
      vertex 39 -41.9282 20
    endloop
  endfacet
  facet normal -0.469473 0.882947 0
    outer loop
      vertex 38.507 -42.1904 20
      vertex 39 -41.9282 2
      vertex 38.507 -42.1904 2
    endloop
  endfacet
  facet normal -0.642785 0.766047 0
    outer loop
      vertex 40.353 -40.9452 2
      vertex 39.9253 -41.3041 20
      vertex 40.353 -40.9452 20
    endloop
  endfacet
  facet normal -0.642785 0.766047 0
    outer loop
      vertex 39.9253 -41.3041 20
      vertex 40.353 -40.9452 2
      vertex 39.9253 -41.3041 2
    endloop
  endfacet
  facet normal -0.78801 0.615663 0
    outer loop
      vertex 41.1284 -40.1423 2
      vertex 41.4721 -39.7023 20
      vertex 41.4721 -39.7023 2
    endloop
  endfacet
  facet normal -0.78801 0.615663 0
    outer loop
      vertex 41.4721 -39.7023 20
      vertex 41.1284 -40.1423 2
      vertex 41.1284 -40.1423 20
    endloop
  endfacet
  facet normal -0.927183 0.37461 0
    outer loop
      vertex 42.3084 -38.2539 2
      vertex 42.5175 -37.7362 20
      vertex 42.5175 -37.7362 2
    endloop
  endfacet
  facet normal -0.927183 0.37461 0
    outer loop
      vertex 42.5175 -37.7362 20
      vertex 42.3084 -38.2539 2
      vertex 42.3084 -38.2539 20
    endloop
  endfacet
  facet normal -0.951056 0.309019 0
    outer loop
      vertex 42.5175 -37.7362 2
      vertex 42.6901 -37.2051 20
      vertex 42.6901 -37.2051 2
    endloop
  endfacet
  facet normal -0.951056 0.309019 0
    outer loop
      vertex 42.6901 -37.2051 20
      vertex 42.5175 -37.7362 2
      vertex 42.5175 -37.7362 20
    endloop
  endfacet
  facet normal -0.994522 0.10453 0
    outer loop
      vertex 42.9221 -36.1134 2
      vertex 42.9805 -35.5581 20
      vertex 42.9805 -35.5581 2
    endloop
  endfacet
  facet normal -0.994522 0.10453 0
    outer loop
      vertex 42.9805 -35.5581 20
      vertex 42.9221 -36.1134 2
      vertex 42.9221 -36.1134 20
    endloop
  endfacet
  facet normal 1 -0 0
    outer loop
      vertex -43 -25.7868 20
      vertex -43 35 2
      vertex -43 35 20
    endloop
  endfacet
  facet normal 1 0 0
    outer loop
      vertex -43 -25.7868 20
      vertex -43 -25.7868 2
      vertex -43 35 2
    endloop
  endfacet
  facet normal 0.642785 -0.766047 0
    outer loop
      vertex -40.353 40.9452 2
      vertex -39.9253 41.3041 20
      vertex -40.353 40.9452 20
    endloop
  endfacet
  facet normal 0.642785 -0.766047 0
    outer loop
      vertex -39.9253 41.3041 20
      vertex -40.353 40.9452 2
      vertex -39.9253 41.3041 2
    endloop
  endfacet
  facet normal 0 -1 0
    outer loop
      vertex -35.2792 42.9951 2
      vertex 35.2792 42.9951 20
      vertex -35.2792 42.9951 20
    endloop
  endfacet
  facet normal 0 -1 -0
    outer loop
      vertex 35.2792 42.9951 20
      vertex -35.2792 42.9951 2
      vertex 35.2792 42.9951 2
    endloop
  endfacet
  facet normal -0.587788 0.809015 0
    outer loop
      vertex 39.9253 -41.3041 2
      vertex 39.4735 -41.6323 20
      vertex 39.9253 -41.3041 20
    endloop
  endfacet
  facet normal -0.587788 0.809015 0
    outer loop
      vertex 39.4735 -41.6323 20
      vertex 39.9253 -41.3041 2
      vertex 39.4735 -41.6323 2
    endloop
  endfacet
  facet normal -0.139173 0.990268 0
    outer loop
      vertex 36.3892 -42.8785 2
      vertex 35.8362 -42.9562 20
      vertex 36.3892 -42.8785 20
    endloop
  endfacet
  facet normal -0.139173 0.990268 0
    outer loop
      vertex 35.8362 -42.9562 20
      vertex 36.3892 -42.8785 2
      vertex 35.8362 -42.9562 2
    endloop
  endfacet
  facet normal -0.207911 0.978148 0
    outer loop
      vertex 36.9354 -42.7624 2
      vertex 36.3892 -42.8785 20
      vertex 36.9354 -42.7624 20
    endloop
  endfacet
  facet normal -0.207911 0.978148 0
    outer loop
      vertex 36.3892 -42.8785 20
      vertex 36.9354 -42.7624 2
      vertex 36.3892 -42.8785 2
    endloop
  endfacet
  facet normal -0.342021 0.939692 0
    outer loop
      vertex 37.9969 -42.4175 2
      vertex 37.4721 -42.6085 20
      vertex 37.9969 -42.4175 20
    endloop
  endfacet
  facet normal -0.342021 0.939692 0
    outer loop
      vertex 37.4721 -42.6085 20
      vertex 37.9969 -42.4175 2
      vertex 37.4721 -42.6085 2
    endloop
  endfacet
  facet normal -0.866027 0.499997 0
    outer loop
      vertex 41.7844 -39.2394 2
      vertex 42.0636 -38.7558 20
      vertex 42.0636 -38.7558 2
    endloop
  endfacet
  facet normal -0.866027 0.499997 0
    outer loop
      vertex 42.0636 -38.7558 20
      vertex 41.7844 -39.2394 2
      vertex 41.7844 -39.2394 20
    endloop
  endfacet
  facet normal -0.694658 0.71934 0
    outer loop
      vertex 40.7547 -40.5573 2
      vertex 40.353 -40.9452 20
      vertex 40.7547 -40.5573 20
    endloop
  endfacet
  facet normal -0.694658 0.71934 0
    outer loop
      vertex 40.353 -40.9452 20
      vertex 40.7547 -40.5573 2
      vertex 40.353 -40.9452 2
    endloop
  endfacet
  facet normal -0.743148 0.669127 0
    outer loop
      vertex 40.7547 -40.5573 2
      vertex 41.1284 -40.1423 20
      vertex 41.1284 -40.1423 2
    endloop
  endfacet
  facet normal -0.743148 0.669127 0
    outer loop
      vertex 41.1284 -40.1423 20
      vertex 40.7547 -40.5573 2
      vertex 40.7547 -40.5573 20
    endloop
  endfacet
  facet normal -0.898795 0.438368 0
    outer loop
      vertex 42.0636 -38.7558 2
      vertex 42.3084 -38.2539 20
      vertex 42.3084 -38.2539 2
    endloop
  endfacet
  facet normal -0.898795 0.438368 0
    outer loop
      vertex 42.3084 -38.2539 20
      vertex 42.0636 -38.7558 2
      vertex 42.0636 -38.7558 20
    endloop
  endfacet
  facet normal -0.984808 0.173645 0
    outer loop
      vertex 42.8252 -36.6633 2
      vertex 42.9221 -36.1134 20
      vertex 42.9221 -36.1134 2
    endloop
  endfacet
  facet normal -0.984808 0.173645 0
    outer loop
      vertex 42.9221 -36.1134 20
      vertex 42.8252 -36.6633 2
      vertex 42.8252 -36.6633 20
    endloop
  endfacet
  facet normal 0.898795 -0.438368 0
    outer loop
      vertex -42.3084 38.2539 20
      vertex -42.0636 38.7558 2
      vertex -42.0636 38.7558 20
    endloop
  endfacet
  facet normal 0.898795 -0.438368 0
    outer loop
      vertex -42.0636 38.7558 2
      vertex -42.3084 38.2539 20
      vertex -42.3084 38.2539 2
    endloop
  endfacet
  facet normal 0.927183 -0.37461 0
    outer loop
      vertex -42.5175 37.7362 20
      vertex -42.3084 38.2539 2
      vertex -42.3084 38.2539 20
    endloop
  endfacet
  facet normal 0.927183 -0.37461 0
    outer loop
      vertex -42.3084 38.2539 2
      vertex -42.5175 37.7362 20
      vertex -42.5175 37.7362 2
    endloop
  endfacet
  facet normal 0.970296 -0.24192 0
    outer loop
      vertex -42.8252 36.6633 20
      vertex -42.6901 37.2051 2
      vertex -42.6901 37.2051 20
    endloop
  endfacet
  facet normal 0.970296 -0.24192 0
    outer loop
      vertex -42.6901 37.2051 2
      vertex -42.8252 36.6633 20
      vertex -42.8252 36.6633 2
    endloop
  endfacet
  facet normal 0.694658 -0.71934 0
    outer loop
      vertex -40.7547 40.5573 2
      vertex -40.353 40.9452 20
      vertex -40.7547 40.5573 20
    endloop
  endfacet
  facet normal 0.694658 -0.71934 0
    outer loop
      vertex -40.353 40.9452 20
      vertex -40.7547 40.5573 2
      vertex -40.353 40.9452 2
    endloop
  endfacet
  facet normal 0.829035 -0.559196 0
    outer loop
      vertex -41.7844 39.2394 20
      vertex -41.4721 39.7023 2
      vertex -41.4721 39.7023 20
    endloop
  endfacet
  facet normal 0.829035 -0.559196 0
    outer loop
      vertex -41.4721 39.7023 2
      vertex -41.7844 39.2394 20
      vertex -41.7844 39.2394 2
    endloop
  endfacet
  facet normal 0.866027 -0.499997 0
    outer loop
      vertex -42.0636 38.7558 20
      vertex -41.7844 39.2394 2
      vertex -41.7844 39.2394 20
    endloop
  endfacet
  facet normal 0.866027 -0.499997 0
    outer loop
      vertex -41.7844 39.2394 2
      vertex -42.0636 38.7558 20
      vertex -42.0636 38.7558 2
    endloop
  endfacet
  facet normal 0.587788 -0.809015 0
    outer loop
      vertex -39.9253 41.3041 2
      vertex -39.4735 41.6323 20
      vertex -39.9253 41.3041 20
    endloop
  endfacet
  facet normal 0.587788 -0.809015 0
    outer loop
      vertex -39.4735 41.6323 20
      vertex -39.9253 41.3041 2
      vertex -39.4735 41.6323 2
    endloop
  endfacet
  facet normal 0.0697502 -0.997564 0
    outer loop
      vertex -35.8362 42.9562 2
      vertex -35.2792 42.9951 20
      vertex -35.8362 42.9562 20
    endloop
  endfacet
  facet normal 0.0697502 -0.997564 0
    outer loop
      vertex -35.2792 42.9951 20
      vertex -35.8362 42.9562 2
      vertex -35.2792 42.9951 2
    endloop
  endfacet
  facet normal 0.139173 -0.990268 0
    outer loop
      vertex -36.3892 42.8785 2
      vertex -35.8362 42.9562 20
      vertex -36.3892 42.8785 20
    endloop
  endfacet
  facet normal 0.139173 -0.990268 0
    outer loop
      vertex -35.8362 42.9562 20
      vertex -36.3892 42.8785 2
      vertex -35.8362 42.9562 2
    endloop
  endfacet
  facet normal 0.207911 -0.978148 0
    outer loop
      vertex -36.9354 42.7624 2
      vertex -36.3892 42.8785 20
      vertex -36.9354 42.7624 20
    endloop
  endfacet
  facet normal 0.207911 -0.978148 0
    outer loop
      vertex -36.3892 42.8785 20
      vertex -36.9354 42.7624 2
      vertex -36.3892 42.8785 2
    endloop
  endfacet
  facet normal 0.342021 -0.939692 0
    outer loop
      vertex -37.9969 42.4175 2
      vertex -37.4721 42.6085 20
      vertex -37.9969 42.4175 20
    endloop
  endfacet
  facet normal 0.342021 -0.939692 0
    outer loop
      vertex -37.4721 42.6085 20
      vertex -37.9969 42.4175 2
      vertex -37.4721 42.6085 2
    endloop
  endfacet
  facet normal -0.78801 -0.615663 0
    outer loop
      vertex 41.4721 39.7023 2
      vertex 41.1284 40.1423 20
      vertex 41.1284 40.1423 2
    endloop
  endfacet
  facet normal -0.78801 -0.615663 0
    outer loop
      vertex 41.1284 40.1423 20
      vertex 41.4721 39.7023 2
      vertex 41.4721 39.7023 20
    endloop
  endfacet
  facet normal -0.927185 -0.374604 0
    outer loop
      vertex 42.5175 37.7362 2
      vertex 42.3084 38.2539 20
      vertex 42.3084 38.2539 2
    endloop
  endfacet
  facet normal -0.927185 -0.374604 0
    outer loop
      vertex 42.3084 38.2539 20
      vertex 42.5175 37.7362 2
      vertex 42.5175 37.7362 20
    endloop
  endfacet
  facet normal -0.999391 -0.0349025 0
    outer loop
      vertex 43 35 2
      vertex 42.9805 35.5581 20
      vertex 42.9805 35.5581 2
    endloop
  endfacet
  facet normal -0.999391 -0.0349025 0
    outer loop
      vertex 42.9805 35.5581 20
      vertex 43 35 2
      vertex 43 35 20
    endloop
  endfacet
  facet normal 0 0 1
    outer loop
      vertex 35.2792 42.9951 2
      vertex 43 35 2
      vertex 42.9805 35.5581 2
    endloop
  endfacet
  facet normal 0 0 1
    outer loop
      vertex 43 35 2
      vertex -25.7797 -42.9929 2
      vertex 43 -35 2
    endloop
  endfacet
  facet normal 0 0 1
    outer loop
      vertex 35.2792 42.9951 2
      vertex 42.9805 35.5581 2
      vertex 42.9221 36.1134 2
    endloop
  endfacet
  facet normal 0 -0 1
    outer loop
      vertex 35.2792 -42.9951 2
      vertex 43 -35 2
      vertex -25.7797 -42.9929 2
    endloop
  endfacet
  facet normal 0 0 1
    outer loop
      vertex 35.2792 42.9951 2
      vertex 42.9221 36.1134 2
      vertex 42.8252 36.6633 2
    endloop
  endfacet
  facet normal 0 0 1
    outer loop
      vertex -42.9929 -25.7797 2
      vertex 43 35 2
      vertex 35.2792 42.9951 2
    endloop
  endfacet
  facet normal 0 0 1
    outer loop
      vertex 35.2792 42.9951 2
      vertex 42.8252 36.6633 2
      vertex 42.6901 37.2051 2
    endloop
  endfacet
  facet normal 0 0 1
    outer loop
      vertex 43 -35 2
      vertex 35.2792 -42.9951 2
      vertex 42.9805 -35.5581 2
    endloop
  endfacet
  facet normal 0 0 1
    outer loop
      vertex 35.2792 42.9951 2
      vertex 42.6901 37.2051 2
      vertex 42.5175 37.7362 2
    endloop
  endfacet
  facet normal 0 0 1
    outer loop
      vertex 42.9221 -36.1134 2
      vertex 35.2792 -42.9951 2
      vertex 42.8252 -36.6633 2
    endloop
  endfacet
  facet normal 0 0 1
    outer loop
      vertex 35.2792 42.9951 2
      vertex 42.5175 37.7362 2
      vertex 42.3084 38.2539 2
    endloop
  endfacet
  facet normal 0 0 1
    outer loop
      vertex 42.8252 -36.6633 2
      vertex 35.2792 -42.9951 2
      vertex 42.6901 -37.2051 2
    endloop
  endfacet
  facet normal 0 0 1
    outer loop
      vertex 35.2792 42.9951 2
      vertex 42.3084 38.2539 2
      vertex 42.0636 38.7558 2
    endloop
  endfacet
  facet normal 0 0 1
    outer loop
      vertex 42.6901 -37.2051 2
      vertex 35.2792 -42.9951 2
      vertex 42.5175 -37.7362 2
    endloop
  endfacet
  facet normal 0 0 1
    outer loop
      vertex 35.2792 42.9951 2
      vertex 42.0636 38.7558 2
      vertex 41.7844 39.2394 2
    endloop
  endfacet
  facet normal 0 0 1
    outer loop
      vertex 42.5175 -37.7362 2
      vertex 35.2792 -42.9951 2
      vertex 42.3084 -38.2539 2
    endloop
  endfacet
  facet normal 0 0 1
    outer loop
      vertex 35.2792 42.9951 2
      vertex 41.7844 39.2394 2
      vertex 41.4721 39.7023 2
    endloop
  endfacet
  facet normal 0 0 1
    outer loop
      vertex 42.3084 -38.2539 2
      vertex 35.2792 -42.9951 2
      vertex 42.0636 -38.7558 2
    endloop
  endfacet
  facet normal 0 0 1
    outer loop
      vertex 35.2792 42.9951 2
      vertex 41.4721 39.7023 2
      vertex 41.1284 40.1423 2
    endloop
  endfacet
  facet normal 0 0 1
    outer loop
      vertex 42.0636 -38.7558 2
      vertex 35.2792 -42.9951 2
      vertex 41.7844 -39.2394 2
    endloop
  endfacet
  facet normal 0 0 1
    outer loop
      vertex 35.2792 42.9951 2
      vertex 41.1284 40.1423 2
      vertex 40.7547 40.5573 2
    endloop
  endfacet
  facet normal 0 0 1
    outer loop
      vertex 41.7844 -39.2394 2
      vertex 35.2792 -42.9951 2
      vertex 41.4721 -39.7023 2
    endloop
  endfacet
  facet normal 0 0 1
    outer loop
      vertex 35.2792 42.9951 2
      vertex 40.7547 40.5573 2
      vertex 40.353 40.9452 2
    endloop
  endfacet
  facet normal 0 0 1
    outer loop
      vertex 41.4721 -39.7023 2
      vertex 35.2792 -42.9951 2
      vertex 41.1284 -40.1423 2
    endloop
  endfacet
  facet normal 0 0 1
    outer loop
      vertex 35.2792 42.9951 2
      vertex 40.353 40.9452 2
      vertex 39.9253 41.3041 2
    endloop
  endfacet
  facet normal 0 0 1
    outer loop
      vertex 41.1284 -40.1423 2
      vertex 35.2792 -42.9951 2
      vertex 40.7547 -40.5573 2
    endloop
  endfacet
  facet normal 0 0 1
    outer loop
      vertex 35.2792 42.9951 2
      vertex 39.9253 41.3041 2
      vertex 39.4735 41.6323 2
    endloop
  endfacet
  facet normal 0 0 1
    outer loop
      vertex 40.7547 -40.5573 2
      vertex 35.2792 -42.9951 2
      vertex 40.353 -40.9452 2
    endloop
  endfacet
  facet normal 0 0 1
    outer loop
      vertex 35.2792 42.9951 2
      vertex 39.4735 41.6323 2
      vertex 39 41.9282 2
    endloop
  endfacet
  facet normal 0 0 1
    outer loop
      vertex 40.353 -40.9452 2
      vertex 35.2792 -42.9951 2
      vertex 39.9253 -41.3041 2
    endloop
  endfacet
  facet normal 0 0 1
    outer loop
      vertex 35.2792 42.9951 2
      vertex 39 41.9282 2
      vertex 38.507 42.1903 2
    endloop
  endfacet
  facet normal 0 0 1
    outer loop
      vertex 39.9253 -41.3041 2
      vertex 35.2792 -42.9951 2
      vertex 39.4735 -41.6323 2
    endloop
  endfacet
  facet normal 0 0 1
    outer loop
      vertex 35.2792 42.9951 2
      vertex 38.507 42.1903 2
      vertex 37.9969 42.4175 2
    endloop
  endfacet
  facet normal 0 0 1
    outer loop
      vertex 39.4735 -41.6323 2
      vertex 35.2792 -42.9951 2
      vertex 39 -41.9282 2
    endloop
  endfacet
  facet normal 0 0 1
    outer loop
      vertex 35.2792 42.9951 2
      vertex 37.9969 42.4175 2
      vertex 37.4721 42.6085 2
    endloop
  endfacet
  facet normal 0 0 1
    outer loop
      vertex 39 -41.9282 2
      vertex 35.2792 -42.9951 2
      vertex 38.507 -42.1904 2
    endloop
  endfacet
  facet normal 0 0 1
    outer loop
      vertex 35.2792 42.9951 2
      vertex 37.4721 42.6085 2
      vertex 36.9354 42.7624 2
    endloop
  endfacet
  facet normal 0 0 1
    outer loop
      vertex 38.507 -42.1904 2
      vertex 35.2792 -42.9951 2
      vertex 37.9969 -42.4175 2
    endloop
  endfacet
  facet normal 0 0 1
    outer loop
      vertex 35.2792 42.9951 2
      vertex 36.9354 42.7624 2
      vertex 36.3892 42.8785 2
    endloop
  endfacet
  facet normal 0 0 1
    outer loop
      vertex 37.9969 -42.4175 2
      vertex 35.2792 -42.9951 2
      vertex 37.4721 -42.6085 2
    endloop
  endfacet
  facet normal 0 0 1
    outer loop
      vertex 35.2792 42.9951 2
      vertex 36.3892 42.8785 2
      vertex 35.8362 42.9562 2
    endloop
  endfacet
  facet normal 0 0 1
    outer loop
      vertex 37.4721 -42.6085 2
      vertex 35.2792 -42.9951 2
      vertex 36.9354 -42.7624 2
    endloop
  endfacet
  facet normal 0 0 1
    outer loop
      vertex 36.9354 -42.7624 2
      vertex 35.2792 -42.9951 2
      vertex 36.3892 -42.8785 2
    endloop
  endfacet
  facet normal 0 0 1
    outer loop
      vertex 36.3892 -42.8785 2
      vertex 35.2792 -42.9951 2
      vertex 35.8362 -42.9562 2
    endloop
  endfacet
  facet normal 0 0 1
    outer loop
      vertex 42.9805 -35.5581 2
      vertex 35.2792 -42.9951 2
      vertex 42.9221 -36.1134 2
    endloop
  endfacet
  facet normal 0 0 1
    outer loop
      vertex -42.9929 -25.7797 2
      vertex 35.2792 42.9951 2
      vertex -35.2792 42.9951 2
    endloop
  endfacet
  facet normal 0 0 1
    outer loop
      vertex -43 35 2
      vertex -35.2792 42.9951 2
      vertex -35.8362 42.9562 2
    endloop
  endfacet
  facet normal 0 0 1
    outer loop
      vertex -43 35 2
      vertex -35.8362 42.9562 2
      vertex -36.3892 42.8785 2
    endloop
  endfacet
  facet normal 0 0 1
    outer loop
      vertex -43 35 2
      vertex -36.3892 42.8785 2
      vertex -36.9354 42.7624 2
    endloop
  endfacet
  facet normal 0 0 1
    outer loop
      vertex -43 35 2
      vertex -36.9354 42.7624 2
      vertex -37.4721 42.6085 2
    endloop
  endfacet
  facet normal 0 0 1
    outer loop
      vertex -43 35 2
      vertex -37.4721 42.6085 2
      vertex -37.9969 42.4175 2
    endloop
  endfacet
  facet normal 0 0 1
    outer loop
      vertex -43 35 2
      vertex -37.9969 42.4175 2
      vertex -38.507 42.1904 2
    endloop
  endfacet
  facet normal 0 0 1
    outer loop
      vertex -43 35 2
      vertex -38.507 42.1904 2
      vertex -39 41.9282 2
    endloop
  endfacet
  facet normal 0 0 1
    outer loop
      vertex -43 35 2
      vertex -39 41.9282 2
      vertex -39.4735 41.6323 2
    endloop
  endfacet
  facet normal 0 0 1
    outer loop
      vertex -43 35 2
      vertex -39.4735 41.6323 2
      vertex -39.9253 41.3041 2
    endloop
  endfacet
  facet normal 0 0 1
    outer loop
      vertex -43 35 2
      vertex -39.9253 41.3041 2
      vertex -40.353 40.9452 2
    endloop
  endfacet
  facet normal 0 0 1
    outer loop
      vertex -43 35 2
      vertex -40.353 40.9452 2
      vertex -40.7547 40.5573 2
    endloop
  endfacet
  facet normal 0 0 1
    outer loop
      vertex -43 35 2
      vertex -40.7547 40.5573 2
      vertex -41.1284 40.1423 2
    endloop
  endfacet
  facet normal 0 0 1
    outer loop
      vertex -43 35 2
      vertex -41.1284 40.1423 2
      vertex -41.4721 39.7023 2
    endloop
  endfacet
  facet normal 0 0 1
    outer loop
      vertex -43 35 2
      vertex -41.4721 39.7023 2
      vertex -41.7844 39.2394 2
    endloop
  endfacet
  facet normal 0 0 1
    outer loop
      vertex -43 35 2
      vertex -41.7844 39.2394 2
      vertex -42.0636 38.7558 2
    endloop
  endfacet
  facet normal 0 0 1
    outer loop
      vertex -43 35 2
      vertex -42.0636 38.7558 2
      vertex -42.3084 38.2539 2
    endloop
  endfacet
  facet normal 0 0 1
    outer loop
      vertex -43 35 2
      vertex -42.3084 38.2539 2
      vertex -42.5175 37.7362 2
    endloop
  endfacet
  facet normal 0 0 1
    outer loop
      vertex -43 35 2
      vertex -42.5175 37.7362 2
      vertex -42.6901 37.2051 2
    endloop
  endfacet
  facet normal 0 0 1
    outer loop
      vertex -43 35 2
      vertex -42.6901 37.2051 2
      vertex -42.8252 36.6633 2
    endloop
  endfacet
  facet normal 0 0 1
    outer loop
      vertex -43 35 2
      vertex -42.8252 36.6633 2
      vertex -42.9221 36.1134 2
    endloop
  endfacet
  facet normal 0 0 1
    outer loop
      vertex -43 35 2
      vertex -42.9221 36.1134 2
      vertex -42.9805 35.5581 2
    endloop
  endfacet
  facet normal 0 0 1
    outer loop
      vertex -35.2792 42.9951 2
      vertex -43 35 2
      vertex -42.9929 -25.7797 2
    endloop
  endfacet
  facet normal 0 0 1
    outer loop
      vertex 43 35 2
      vertex -42.9929 -25.7797 2
      vertex -25.7797 -42.9929 2
    endloop
  endfacet
  facet normal 0 0 1
    outer loop
      vertex -42.9929 -25.7797 2
      vertex -43 35 2
      vertex -43 -25.7868 2
    endloop
  endfacet
  facet normal 0 0 1
    outer loop
      vertex 35.2792 -42.9951 2
      vertex -25.7797 -42.9929 2
      vertex -25.7819 -42.9951 2
    endloop
  endfacet
  facet normal -0.743144 -0.669131 0
    outer loop
      vertex 41.1284 40.1423 2
      vertex 40.7547 40.5573 20
      vertex 40.7547 40.5573 2
    endloop
  endfacet
  facet normal -0.743144 -0.669131 0
    outer loop
      vertex 40.7547 40.5573 20
      vertex 41.1284 40.1423 2
      vertex 41.1284 40.1423 20
    endloop
  endfacet
  facet normal -0.139173 -0.990268 0
    outer loop
      vertex 35.8362 42.9562 2
      vertex 36.3892 42.8785 20
      vertex 35.8362 42.9562 20
    endloop
  endfacet
  facet normal -0.139173 -0.990268 -0
    outer loop
      vertex 36.3892 42.8785 20
      vertex 35.8362 42.9562 2
      vertex 36.3892 42.8785 2
    endloop
  endfacet
  facet normal -0.52992 0.848047 0
    outer loop
      vertex 39.4735 -41.6323 2
      vertex 39 -41.9282 20
      vertex 39.4735 -41.6323 20
    endloop
  endfacet
  facet normal -0.52992 0.848047 0
    outer loop
      vertex 39 -41.9282 20
      vertex 39.4735 -41.6323 2
      vertex 39 -41.9282 2
    endloop
  endfacet
  facet normal -0.0697502 0.997564 0
    outer loop
      vertex 35.8362 -42.9562 2
      vertex 35.2792 -42.9951 20
      vertex 35.8362 -42.9562 20
    endloop
  endfacet
  facet normal -0.0697502 0.997564 0
    outer loop
      vertex 35.2792 -42.9951 20
      vertex 35.8362 -42.9562 2
      vertex 35.2792 -42.9951 2
    endloop
  endfacet
  facet normal -0.406732 0.913547 0
    outer loop
      vertex 38.507 -42.1904 2
      vertex 37.9969 -42.4175 20
      vertex 38.507 -42.1904 20
    endloop
  endfacet
  facet normal -0.406732 0.913547 0
    outer loop
      vertex 37.9969 -42.4175 20
      vertex 38.507 -42.1904 2
      vertex 37.9969 -42.4175 2
    endloop
  endfacet
  facet normal 0.984808 -0.173645 0
    outer loop
      vertex -42.9221 36.1134 20
      vertex -42.8252 36.6633 2
      vertex -42.8252 36.6633 20
    endloop
  endfacet
  facet normal 0.984808 -0.173645 0
    outer loop
      vertex -42.8252 36.6633 2
      vertex -42.9221 36.1134 20
      vertex -42.9221 36.1134 2
    endloop
  endfacet
  facet normal 0.743148 -0.669127 0
    outer loop
      vertex -41.1284 40.1423 20
      vertex -40.7547 40.5573 2
      vertex -40.7547 40.5573 20
    endloop
  endfacet
  facet normal 0.743148 -0.669127 0
    outer loop
      vertex -40.7547 40.5573 2
      vertex -41.1284 40.1423 20
      vertex -41.1284 40.1423 2
    endloop
  endfacet
  facet normal 0.275641 -0.961261 0
    outer loop
      vertex -37.4721 42.6085 2
      vertex -36.9354 42.7624 20
      vertex -37.4721 42.6085 20
    endloop
  endfacet
  facet normal 0.275641 -0.961261 0
    outer loop
      vertex -36.9354 42.7624 20
      vertex -37.4721 42.6085 2
      vertex -36.9354 42.7624 2
    endloop
  endfacet
  facet normal 0.469473 -0.882947 0
    outer loop
      vertex -39 41.9282 2
      vertex -38.507 42.1904 20
      vertex -39 41.9282 20
    endloop
  endfacet
  facet normal 0.469473 -0.882947 0
    outer loop
      vertex -38.507 42.1904 20
      vertex -39 41.9282 2
      vertex -38.507 42.1904 2
    endloop
  endfacet
  facet normal -0.866027 -0.499997 0
    outer loop
      vertex 42.0636 38.7558 2
      vertex 41.7844 39.2394 20
      vertex 41.7844 39.2394 2
    endloop
  endfacet
  facet normal -0.866027 -0.499997 0
    outer loop
      vertex 41.7844 39.2394 20
      vertex 42.0636 38.7558 2
      vertex 42.0636 38.7558 20
    endloop
  endfacet
  facet normal -0.994522 -0.10453 0
    outer loop
      vertex 42.9805 35.5581 2
      vertex 42.9221 36.1134 20
      vertex 42.9221 36.1134 2
    endloop
  endfacet
  facet normal -0.994522 -0.10453 0
    outer loop
      vertex 42.9221 36.1134 20
      vertex 42.9805 35.5581 2
      vertex 42.9805 35.5581 20
    endloop
  endfacet
  facet normal -0.951056 -0.309019 0
    outer loop
      vertex 42.6901 37.2051 2
      vertex 42.5175 37.7362 20
      vertex 42.5175 37.7362 2
    endloop
  endfacet
  facet normal -0.951056 -0.309019 0
    outer loop
      vertex 42.5175 37.7362 20
      vertex 42.6901 37.2051 2
      vertex 42.6901 37.2051 20
    endloop
  endfacet
  facet normal -0.984808 -0.173645 0
    outer loop
      vertex 42.9221 36.1134 2
      vertex 42.8252 36.6633 20
      vertex 42.8252 36.6633 2
    endloop
  endfacet
  facet normal -0.984808 -0.173645 0
    outer loop
      vertex 42.8252 36.6633 20
      vertex 42.9221 36.1134 2
      vertex 42.9221 36.1134 20
    endloop
  endfacet
  facet normal -0.694654 -0.719344 0
    outer loop
      vertex 40.353 40.9452 2
      vertex 40.7547 40.5573 20
      vertex 40.353 40.9452 20
    endloop
  endfacet
  facet normal -0.694654 -0.719344 -0
    outer loop
      vertex 40.7547 40.5573 20
      vertex 40.353 40.9452 2
      vertex 40.7547 40.5573 2
    endloop
  endfacet
  facet normal -0.52992 -0.848047 0
    outer loop
      vertex 39 41.9282 2
      vertex 39.4735 41.6323 20
      vertex 39 41.9282 20
    endloop
  endfacet
  facet normal -0.52992 -0.848047 -0
    outer loop
      vertex 39.4735 41.6323 20
      vertex 39 41.9282 2
      vertex 39.4735 41.6323 2
    endloop
  endfacet
  facet normal -0.642792 -0.766041 0
    outer loop
      vertex 39.9253 41.3041 2
      vertex 40.353 40.9452 20
      vertex 39.9253 41.3041 20
    endloop
  endfacet
  facet normal -0.642792 -0.766041 -0
    outer loop
      vertex 40.353 40.9452 20
      vertex 39.9253 41.3041 2
      vertex 40.353 40.9452 2
    endloop
  endfacet
  facet normal -0.406738 -0.913545 0
    outer loop
      vertex 37.9969 42.4175 2
      vertex 38.507 42.1903 20
      vertex 37.9969 42.4175 20
    endloop
  endfacet
  facet normal -0.406738 -0.913545 -0
    outer loop
      vertex 38.507 42.1903 20
      vertex 37.9969 42.4175 2
      vertex 38.507 42.1903 2
    endloop
  endfacet
  facet normal -0.275633 -0.961263 0
    outer loop
      vertex 36.9354 42.7624 2
      vertex 37.4721 42.6085 20
      vertex 36.9354 42.7624 20
    endloop
  endfacet
  facet normal -0.275633 -0.961263 -0
    outer loop
      vertex 37.4721 42.6085 20
      vertex 36.9354 42.7624 2
      vertex 37.4721 42.6085 2
    endloop
  endfacet
  facet normal 0.406732 -0.913547 0
    outer loop
      vertex -38.507 42.1904 2
      vertex -37.9969 42.4175 20
      vertex -38.507 42.1904 20
    endloop
  endfacet
  facet normal 0.406732 -0.913547 0
    outer loop
      vertex -37.9969 42.4175 20
      vertex -38.507 42.1904 2
      vertex -37.9969 42.4175 2
    endloop
  endfacet
  facet normal -0.898793 -0.438374 0
    outer loop
      vertex 42.3084 38.2539 2
      vertex 42.0636 38.7558 20
      vertex 42.0636 38.7558 2
    endloop
  endfacet
  facet normal -0.898793 -0.438374 0
    outer loop
      vertex 42.0636 38.7558 20
      vertex 42.3084 38.2539 2
      vertex 42.3084 38.2539 20
    endloop
  endfacet
  facet normal -0.970296 -0.24192 0
    outer loop
      vertex 42.8252 36.6633 2
      vertex 42.6901 37.2051 20
      vertex 42.6901 37.2051 2
    endloop
  endfacet
  facet normal -0.970296 -0.24192 0
    outer loop
      vertex 42.6901 37.2051 20
      vertex 42.8252 36.6633 2
      vertex 42.8252 36.6633 20
    endloop
  endfacet
  facet normal -0.587785 -0.809017 0
    outer loop
      vertex 39.4735 41.6323 2
      vertex 39.9253 41.3041 20
      vertex 39.4735 41.6323 20
    endloop
  endfacet
  facet normal -0.587785 -0.809017 -0
    outer loop
      vertex 39.9253 41.3041 20
      vertex 39.4735 41.6323 2
      vertex 39.9253 41.3041 2
    endloop
  endfacet
  facet normal -0.342023 -0.939691 0
    outer loop
      vertex 37.4721 42.6085 2
      vertex 37.9969 42.4175 20
      vertex 37.4721 42.6085 20
    endloop
  endfacet
  facet normal -0.342023 -0.939691 -0
    outer loop
      vertex 37.9969 42.4175 20
      vertex 37.4721 42.6085 2
      vertex 37.9969 42.4175 2
    endloop
  endfacet
  facet normal -0.207911 -0.978148 0
    outer loop
      vertex 36.3892 42.8785 2
      vertex 36.9354 42.7624 20
      vertex 36.3892 42.8785 20
    endloop
  endfacet
  facet normal -0.207911 -0.978148 -0
    outer loop
      vertex 36.9354 42.7624 20
      vertex 36.3892 42.8785 2
      vertex 36.9354 42.7624 2
    endloop
  endfacet
  facet normal -0.262753 -0.262752 0.928398
    outer loop
      vertex -23.7929 -44.9939 20
      vertex -25.7868 -43 20
      vertex -23.7939 -45.0071 19.996
    endloop
  endfacet
  facet normal -0.262613 -0.262613 0.928477
    outer loop
      vertex -25.7868 -43 20
      vertex -37.9195 -52.0664 14.004
      vertex -23.7939 -45.0071 19.996
    endloop
  endfacet
  facet normal -0.262613 -0.262613 0.928477
    outer loop
      vertex -37.9195 -52.0664 14.004
      vertex -25.7868 -43 20
      vertex -39.3321 -50.6537 14.004
    endloop
  endfacet
  facet normal -0.262752 -0.262752 0.928398
    outer loop
      vertex -23.7868 -45 20
      vertex -23.7929 -44.9939 20
      vertex -23.7939 -45.0071 19.996
    endloop
  endfacet
  facet normal -0.26266 -0.26266 0.92845
    outer loop
      vertex -45.0071 -23.7939 19.996
      vertex -43 -25.7868 20
      vertex -45 -23.7868 20
    endloop
  endfacet
  facet normal -0.262613 -0.262613 0.928477
    outer loop
      vertex -52.0664 -37.9195 14.004
      vertex -43 -25.7868 20
      vertex -45.0071 -23.7939 19.996
    endloop
  endfacet
  facet normal -0.262613 -0.262613 0.928477
    outer loop
      vertex -43 -25.7868 20
      vertex -52.0664 -37.9195 14.004
      vertex -50.6537 -39.3321 14.004
    endloop
  endfacet
endsolid OpenSCAD_Model
