solid OpenSCAD_Model
  facet normal 1 -0 0
    outer loop
      vertex 37.5 -27.5 15
      vertex 37.5 27.5 0
      vertex 37.5 27.5 15
    endloop
  endfacet
  facet normal 1 0 0
    outer loop
      vertex 37.5 27.5 0
      vertex 37.5 -27.5 15
      vertex 37.5 -27.5 0
    endloop
  endfacet
  facet normal 0.866025 -0.5 0
    outer loop
      vertex 35.9805 -32.7992 15
      vertex 36.3295 -32.1947 0
      vertex 36.3295 -32.1947 15
    endloop
  endfacet
  facet normal 0.866025 -0.5 0
    outer loop
      vertex 36.3295 -32.1947 0
      vertex 35.9805 -32.7992 15
      vertex 35.9805 -32.7992 0
    endloop
  endfacet
  facet normal 0 -1 -0
    outer loop
      vertex -16.2929 -37.4939 15
      vertex -16.2929 -37.4939 0
      vertex 27.849 -37.4939 15
    endloop
  endfacet
  facet normal 0 -1 -0
    outer loop
      vertex 27.849 -37.4939 15
      vertex -16.2929 -37.4939 0
      vertex 27.849 -37.4939 0
    endloop
  endfacet
  facet normal 0 0 1
    outer loop
      vertex 35.5 27.5 15
      vertex 37.5 27.5 15
      vertex 37.4756 28.1976 15
    endloop
  endfacet
  facet normal 0 0 1
    outer loop
      vertex 37.5 27.5 15
      vertex 35.5 27.5 15
      vertex 37.5 -27.5 15
    endloop
  endfacet
  facet normal 0 0 1
    outer loop
      vertex 35.4805 28.0581 15
      vertex 37.4756 28.1976 15
      vertex 37.4027 28.8917 15
    endloop
  endfacet
  facet normal 0 0 1
    outer loop
      vertex 35.5 -27.5 15
      vertex 37.5 -27.5 15
      vertex 35.5 27.5 15
    endloop
  endfacet
  facet normal 0 0 1
    outer loop
      vertex 35.4221 28.6134 15
      vertex 37.4027 28.8917 15
      vertex 37.2815 29.5791 15
    endloop
  endfacet
  facet normal 0 0 1
    outer loop
      vertex 37.5 -27.5 15
      vertex 35.5 -27.5 15
      vertex 37.4756 -28.1976 15
    endloop
  endfacet
  facet normal 0 0 1
    outer loop
      vertex 35.3252 29.1633 15
      vertex 37.2815 29.5791 15
      vertex 37.1126 30.2564 15
    endloop
  endfacet
  facet normal -0 0 1
    outer loop
      vertex 35.4805 -28.0581 15
      vertex 37.4756 -28.1976 15
      vertex 35.5 -27.5 15
    endloop
  endfacet
  facet normal 0 0 1
    outer loop
      vertex 35.1901 29.7051 15
      vertex 37.1126 30.2564 15
      vertex 36.8969 30.9202 15
    endloop
  endfacet
  facet normal 0 0 1
    outer loop
      vertex 37.4756 -28.1976 15
      vertex 35.4805 -28.0581 15
      vertex 37.4027 -28.8917 15
    endloop
  endfacet
  facet normal 0 0 1
    outer loop
      vertex 35.0175 30.2362 15
      vertex 36.8969 30.9202 15
      vertex 36.6355 31.5674 15
    endloop
  endfacet
  facet normal -0 0 1
    outer loop
      vertex 35.4221 -28.6134 15
      vertex 37.4027 -28.8917 15
      vertex 35.4805 -28.0581 15
    endloop
  endfacet
  facet normal 0 0 1
    outer loop
      vertex 34.8084 30.7539 15
      vertex 36.6355 31.5674 15
      vertex 36.3295 32.1947 15
    endloop
  endfacet
  facet normal 0 0 1
    outer loop
      vertex 37.4027 -28.8917 15
      vertex 35.4221 -28.6134 15
      vertex 37.2815 -29.5791 15
    endloop
  endfacet
  facet normal 0 0 1
    outer loop
      vertex 34.5636 31.2558 15
      vertex 36.3295 32.1947 15
      vertex 35.9805 32.7992 15
    endloop
  endfacet
  facet normal -0 0 1
    outer loop
      vertex 35.3252 -29.1633 15
      vertex 37.2815 -29.5791 15
      vertex 35.4221 -28.6134 15
    endloop
  endfacet
  facet normal 0 0 1
    outer loop
      vertex 34.2844 31.7394 15
      vertex 35.9805 32.7992 15
      vertex 35.5902 33.3779 15
    endloop
  endfacet
  facet normal 0 0 1
    outer loop
      vertex 37.2815 -29.5791 15
      vertex 35.3252 -29.1633 15
      vertex 37.1126 -30.2564 15
    endloop
  endfacet
  facet normal -0 0 1
    outer loop
      vertex 35.1901 -29.7051 15
      vertex 37.1126 -30.2564 15
      vertex 35.3252 -29.1633 15
    endloop
  endfacet
  facet normal 0 0 1
    outer loop
      vertex 37.4756 28.1976 15
      vertex 35.4805 28.0581 15
      vertex 35.5 27.5 15
    endloop
  endfacet
  facet normal 0 0 1
    outer loop
      vertex 37.4027 28.8917 15
      vertex 35.4221 28.6134 15
      vertex 35.4805 28.0581 15
    endloop
  endfacet
  facet normal 0 0 1
    outer loop
      vertex 37.2815 29.5791 15
      vertex 35.3252 29.1633 15
      vertex 35.4221 28.6134 15
    endloop
  endfacet
  facet normal 0 0 1
    outer loop
      vertex 37.1126 30.2564 15
      vertex 35.1901 29.7051 15
      vertex 35.3252 29.1633 15
    endloop
  endfacet
  facet normal 0 0 1
    outer loop
      vertex 33.9721 32.2023 15
      vertex 35.5902 33.3779 15
      vertex 35.1604 33.9279 15
    endloop
  endfacet
  facet normal 0 0 1
    outer loop
      vertex 36.8969 30.9202 15
      vertex 35.0175 30.2362 15
      vertex 35.1901 29.7051 15
    endloop
  endfacet
  facet normal 0 0 1
    outer loop
      vertex 36.6355 31.5674 15
      vertex 34.8084 30.7539 15
      vertex 35.0175 30.2362 15
    endloop
  endfacet
  facet normal 0 0 1
    outer loop
      vertex 33.6284 32.6423 15
      vertex 35.1604 33.9279 15
      vertex 34.6934 34.4466 15
    endloop
  endfacet
  facet normal 0 0 1
    outer loop
      vertex 36.3295 32.1947 15
      vertex 34.5636 31.2558 15
      vertex 34.8084 30.7539 15
    endloop
  endfacet
  facet normal 0 0 1
    outer loop
      vertex 35.9805 32.7992 15
      vertex 34.2844 31.7394 15
      vertex 34.5636 31.2558 15
    endloop
  endfacet
  facet normal 0 0 1
    outer loop
      vertex 33.2547 33.0573 15
      vertex 34.6934 34.4466 15
      vertex 34.1913 34.9314 15
    endloop
  endfacet
  facet normal 0 0 1
    outer loop
      vertex 35.5902 33.3779 15
      vertex 33.9721 32.2023 15
      vertex 34.2844 31.7394 15
    endloop
  endfacet
  facet normal 0 0 1
    outer loop
      vertex 32.853 33.4452 15
      vertex 34.1913 34.9314 15
      vertex 33.6566 35.3801 15
    endloop
  endfacet
  facet normal 0 0 1
    outer loop
      vertex 35.1604 33.9279 15
      vertex 33.6284 32.6423 15
      vertex 33.9721 32.2023 15
    endloop
  endfacet
  facet normal 0 0 1
    outer loop
      vertex 34.6934 34.4466 15
      vertex 33.2547 33.0573 15
      vertex 33.6284 32.6423 15
    endloop
  endfacet
  facet normal 0 0 1
    outer loop
      vertex 32.4253 33.8041 15
      vertex 33.6566 35.3801 15
      vertex 33.0919 35.7904 15
    endloop
  endfacet
  facet normal 0 0 1
    outer loop
      vertex 34.1913 34.9314 15
      vertex 32.853 33.4452 15
      vertex 33.2547 33.0573 15
    endloop
  endfacet
  facet normal 0 0 1
    outer loop
      vertex 31.9735 34.1323 15
      vertex 33.0919 35.7904 15
      vertex 32.5 36.1603 15
    endloop
  endfacet
  facet normal 0 0 1
    outer loop
      vertex 33.6566 35.3801 15
      vertex 32.4253 33.8041 15
      vertex 32.853 33.4452 15
    endloop
  endfacet
  facet normal 0 0 1
    outer loop
      vertex 33.0919 35.7904 15
      vertex 31.9735 34.1323 15
      vertex 32.4253 33.8041 15
    endloop
  endfacet
  facet normal 0 0 1
    outer loop
      vertex 31.5 34.4282 15
      vertex 32.5 36.1603 15
      vertex 31.8837 36.4879 15
    endloop
  endfacet
  facet normal 0 0 1
    outer loop
      vertex 32.5 36.1603 15
      vertex 31.5 34.4282 15
      vertex 31.9735 34.1323 15
    endloop
  endfacet
  facet normal 0 0 1
    outer loop
      vertex 31.007 34.6903 15
      vertex 31.8837 36.4879 15
      vertex 31.2461 36.7718 15
    endloop
  endfacet
  facet normal 0 0 1
    outer loop
      vertex 31.8837 36.4879 15
      vertex 31.007 34.6903 15
      vertex 31.5 34.4282 15
    endloop
  endfacet
  facet normal 0 0 1
    outer loop
      vertex 30.4969 34.9175 15
      vertex 31.2461 36.7718 15
      vertex 30.5902 37.0106 15
    endloop
  endfacet
  facet normal 0 0 1
    outer loop
      vertex 31.2461 36.7718 15
      vertex 30.4969 34.9175 15
      vertex 31.007 34.6903 15
    endloop
  endfacet
  facet normal 0 0 1
    outer loop
      vertex 30.5902 37.0106 15
      vertex 29.9721 35.1085 15
      vertex 30.4969 34.9175 15
    endloop
  endfacet
  facet normal 0 0 1
    outer loop
      vertex 29.9192 37.203 15
      vertex 29.9721 35.1085 15
      vertex 30.5902 37.0106 15
    endloop
  endfacet
  facet normal 0 0 1
    outer loop
      vertex 29.9192 37.203 15
      vertex 29.4354 35.2624 15
      vertex 29.9721 35.1085 15
    endloop
  endfacet
  facet normal 0 0 1
    outer loop
      vertex 29.2365 37.3481 15
      vertex 29.4354 35.2624 15
      vertex 29.9192 37.203 15
    endloop
  endfacet
  facet normal 0 0 1
    outer loop
      vertex 29.2365 37.3481 15
      vertex 28.8892 35.3785 15
      vertex 29.4354 35.2624 15
    endloop
  endfacet
  facet normal 0 0 1
    outer loop
      vertex 28.5453 37.4452 15
      vertex 28.8892 35.3785 15
      vertex 29.2365 37.3481 15
    endloop
  endfacet
  facet normal 0 0 1
    outer loop
      vertex 28.5453 37.4452 15
      vertex 28.3362 35.4562 15
      vertex 28.8892 35.3785 15
    endloop
  endfacet
  facet normal 0 0 1
    outer loop
      vertex 27.849 37.4939 15
      vertex 28.3362 35.4562 15
      vertex 28.5453 37.4452 15
    endloop
  endfacet
  facet normal 0 0 1
    outer loop
      vertex 27.849 37.4939 15
      vertex 27.7792 35.4951 15
      vertex 28.3362 35.4562 15
    endloop
  endfacet
  facet normal 0 0 1
    outer loop
      vertex 27.849 37.4939 15
      vertex -27.7792 35.4951 15
      vertex 27.7792 35.4951 15
    endloop
  endfacet
  facet normal -0 0 1
    outer loop
      vertex -27.849 37.4939 15
      vertex -27.7792 35.4951 15
      vertex 27.849 37.4939 15
    endloop
  endfacet
  facet normal 0 0 1
    outer loop
      vertex -27.849 37.4939 15
      vertex -28.3362 35.4562 15
      vertex -27.7792 35.4951 15
    endloop
  endfacet
  facet normal -0 0 1
    outer loop
      vertex -28.5453 37.4452 15
      vertex -28.3362 35.4562 15
      vertex -27.849 37.4939 15
    endloop
  endfacet
  facet normal 0 0 1
    outer loop
      vertex -28.5453 37.4452 15
      vertex -28.8892 35.3785 15
      vertex -28.3362 35.4562 15
    endloop
  endfacet
  facet normal -0 0 1
    outer loop
      vertex -29.2365 37.3481 15
      vertex -28.8892 35.3785 15
      vertex -28.5453 37.4452 15
    endloop
  endfacet
  facet normal 0 0 1
    outer loop
      vertex -29.2365 37.3481 15
      vertex -29.4354 35.2624 15
      vertex -28.8892 35.3785 15
    endloop
  endfacet
  facet normal -0 0 1
    outer loop
      vertex -29.9192 37.203 15
      vertex -29.4354 35.2624 15
      vertex -29.2365 37.3481 15
    endloop
  endfacet
  facet normal 0 0 1
    outer loop
      vertex -29.9192 37.203 15
      vertex -29.9721 35.1085 15
      vertex -29.4354 35.2624 15
    endloop
  endfacet
  facet normal -0 0 1
    outer loop
      vertex -30.5902 37.0106 15
      vertex -29.9721 35.1085 15
      vertex -29.9192 37.203 15
    endloop
  endfacet
  facet normal 0 0 1
    outer loop
      vertex -29.9721 35.1085 15
      vertex -30.5902 37.0106 15
      vertex -30.4969 34.9175 15
    endloop
  endfacet
  facet normal -0 0 1
    outer loop
      vertex -31.2461 36.7718 15
      vertex -30.4969 34.9175 15
      vertex -30.5902 37.0106 15
    endloop
  endfacet
  facet normal 0 0 1
    outer loop
      vertex -30.4969 34.9175 15
      vertex -31.2461 36.7718 15
      vertex -31.007 34.6904 15
    endloop
  endfacet
  facet normal -0 0 1
    outer loop
      vertex -31.8837 36.4879 15
      vertex -31.007 34.6904 15
      vertex -31.2461 36.7718 15
    endloop
  endfacet
  facet normal 0 0 1
    outer loop
      vertex -31.007 34.6904 15
      vertex -31.8837 36.4879 15
      vertex -31.5 34.4282 15
    endloop
  endfacet
  facet normal -0 0 1
    outer loop
      vertex -32.5 36.1603 15
      vertex -31.5 34.4282 15
      vertex -31.8837 36.4879 15
    endloop
  endfacet
  facet normal 0 0 1
    outer loop
      vertex -31.5 34.4282 15
      vertex -32.5 36.1603 15
      vertex -31.9735 34.1323 15
    endloop
  endfacet
  facet normal -0 0 1
    outer loop
      vertex -33.0919 35.7904 15
      vertex -31.9735 34.1323 15
      vertex -32.5 36.1603 15
    endloop
  endfacet
  facet normal 0 0 1
    outer loop
      vertex -31.9735 34.1323 15
      vertex -33.0919 35.7904 15
      vertex -32.4253 33.8041 15
    endloop
  endfacet
  facet normal -0 0 1
    outer loop
      vertex -33.6566 35.3801 15
      vertex -32.4253 33.8041 15
      vertex -33.0919 35.7904 15
    endloop
  endfacet
  facet normal 0 0 1
    outer loop
      vertex -32.4253 33.8041 15
      vertex -33.6566 35.3801 15
      vertex -32.853 33.4452 15
    endloop
  endfacet
  facet normal -0 0 1
    outer loop
      vertex -34.1913 34.9314 15
      vertex -32.853 33.4452 15
      vertex -33.6566 35.3801 15
    endloop
  endfacet
  facet normal 0 0 1
    outer loop
      vertex -32.853 33.4452 15
      vertex -34.1913 34.9314 15
      vertex -33.2547 33.0573 15
    endloop
  endfacet
  facet normal -0 0 1
    outer loop
      vertex -34.6934 34.4466 15
      vertex -33.2547 33.0573 15
      vertex -34.1913 34.9314 15
    endloop
  endfacet
  facet normal 0 0 1
    outer loop
      vertex -33.2547 33.0573 15
      vertex -34.6934 34.4466 15
      vertex -33.6284 32.6423 15
    endloop
  endfacet
  facet normal -0 0 1
    outer loop
      vertex -35.1604 33.9279 15
      vertex -33.6284 32.6423 15
      vertex -34.6934 34.4466 15
    endloop
  endfacet
  facet normal 0 0 1
    outer loop
      vertex -33.6284 32.6423 15
      vertex -35.1604 33.9279 15
      vertex -33.9721 32.2023 15
    endloop
  endfacet
  facet normal -0 0 1
    outer loop
      vertex -35.5902 33.3779 15
      vertex -33.9721 32.2023 15
      vertex -35.1604 33.9279 15
    endloop
  endfacet
  facet normal 0 0 1
    outer loop
      vertex -33.9721 32.2023 15
      vertex -35.5902 33.3779 15
      vertex -34.2844 31.7394 15
    endloop
  endfacet
  facet normal -0 0 1
    outer loop
      vertex -35.9805 32.7992 15
      vertex -34.2844 31.7394 15
      vertex -35.5902 33.3779 15
    endloop
  endfacet
  facet normal 0 0 1
    outer loop
      vertex -34.2844 31.7394 15
      vertex -35.9805 32.7992 15
      vertex -34.5636 31.2558 15
    endloop
  endfacet
  facet normal -0 0 1
    outer loop
      vertex -36.3295 32.1947 15
      vertex -34.5636 31.2558 15
      vertex -35.9805 32.7992 15
    endloop
  endfacet
  facet normal 0 0 1
    outer loop
      vertex -34.5636 31.2558 15
      vertex -36.3295 32.1947 15
      vertex -34.8084 30.7539 15
    endloop
  endfacet
  facet normal -0 0 1
    outer loop
      vertex -36.6355 31.5674 15
      vertex -34.8084 30.7539 15
      vertex -36.3295 32.1947 15
    endloop
  endfacet
  facet normal 0 0 1
    outer loop
      vertex -34.8084 30.7539 15
      vertex -36.6355 31.5674 15
      vertex -35.0175 30.2362 15
    endloop
  endfacet
  facet normal -0 0 1
    outer loop
      vertex -36.8969 30.9202 15
      vertex -35.0175 30.2362 15
      vertex -36.6355 31.5674 15
    endloop
  endfacet
  facet normal 0 0 1
    outer loop
      vertex -35.0175 30.2362 15
      vertex -36.8969 30.9202 15
      vertex -35.1901 29.7051 15
    endloop
  endfacet
  facet normal -0 0 1
    outer loop
      vertex -37.1126 30.2564 15
      vertex -35.1901 29.7051 15
      vertex -36.8969 30.9202 15
    endloop
  endfacet
  facet normal 0 0 1
    outer loop
      vertex -35.1901 29.7051 15
      vertex -37.1126 30.2564 15
      vertex -35.3252 29.1633 15
    endloop
  endfacet
  facet normal -0 0 1
    outer loop
      vertex -37.2815 29.5791 15
      vertex -35.3252 29.1633 15
      vertex -37.1126 30.2564 15
    endloop
  endfacet
  facet normal 0 0 1
    outer loop
      vertex -35.3252 29.1633 15
      vertex -37.2815 29.5791 15
      vertex -35.4221 28.6134 15
    endloop
  endfacet
  facet normal -0 0 1
    outer loop
      vertex -37.4027 28.8917 15
      vertex -35.4221 28.6134 15
      vertex -37.2815 29.5791 15
    endloop
  endfacet
  facet normal 0 0 1
    outer loop
      vertex -35.4221 28.6134 15
      vertex -37.4027 28.8917 15
      vertex -35.4805 28.0581 15
    endloop
  endfacet
  facet normal -0 0 1
    outer loop
      vertex -37.4756 28.1976 15
      vertex -35.4805 28.0581 15
      vertex -37.4027 28.8917 15
    endloop
  endfacet
  facet normal 0 0 1
    outer loop
      vertex -35.4805 28.0581 15
      vertex -37.4756 28.1976 15
      vertex -35.5 27.5 15
    endloop
  endfacet
  facet normal 0 0 1
    outer loop
      vertex -35.5 27.5 15
      vertex -37.4756 28.1976 15
      vertex -37.5 27.5 15
    endloop
  endfacet
  facet normal 0 0 1
    outer loop
      vertex -37.5 -16.2868 15
      vertex -35.5 27.5 15
      vertex -37.5 27.5 15
    endloop
  endfacet
  facet normal 0 0 1
    outer loop
      vertex -35.5 27.5 15
      vertex -37.5 -16.2868 15
      vertex -35.5 -18.2868 15
    endloop
  endfacet
  facet normal 0 0 1
    outer loop
      vertex 37.1126 -30.2564 15
      vertex 35.1901 -29.7051 15
      vertex 36.8969 -30.9202 15
    endloop
  endfacet
  facet normal -0 0 1
    outer loop
      vertex 35.0175 -30.2362 15
      vertex 36.8969 -30.9202 15
      vertex 35.1901 -29.7051 15
    endloop
  endfacet
  facet normal 0 0 1
    outer loop
      vertex 36.8969 -30.9202 15
      vertex 35.0175 -30.2362 15
      vertex 36.6355 -31.5674 15
    endloop
  endfacet
  facet normal -0 0 1
    outer loop
      vertex 34.8084 -30.7539 15
      vertex 36.6355 -31.5674 15
      vertex 35.0175 -30.2362 15
    endloop
  endfacet
  facet normal 0 0 1
    outer loop
      vertex 36.6355 -31.5674 15
      vertex 34.8084 -30.7539 15
      vertex 36.3295 -32.1947 15
    endloop
  endfacet
  facet normal -0 0 1
    outer loop
      vertex 34.5636 -31.2558 15
      vertex 36.3295 -32.1947 15
      vertex 34.8084 -30.7539 15
    endloop
  endfacet
  facet normal 0 0 1
    outer loop
      vertex 36.3295 -32.1947 15
      vertex 34.5636 -31.2558 15
      vertex 35.9805 -32.7992 15
    endloop
  endfacet
  facet normal -0 0 1
    outer loop
      vertex 34.2844 -31.7394 15
      vertex 35.9805 -32.7992 15
      vertex 34.5636 -31.2558 15
    endloop
  endfacet
  facet normal 0 0 1
    outer loop
      vertex 35.9805 -32.7992 15
      vertex 34.2844 -31.7394 15
      vertex 35.5902 -33.3779 15
    endloop
  endfacet
  facet normal -0 0 1
    outer loop
      vertex 33.9721 -32.2023 15
      vertex 35.5902 -33.3779 15
      vertex 34.2844 -31.7394 15
    endloop
  endfacet
  facet normal 0 0 1
    outer loop
      vertex 35.5902 -33.3779 15
      vertex 33.9721 -32.2023 15
      vertex 35.1604 -33.9279 15
    endloop
  endfacet
  facet normal -0 0 1
    outer loop
      vertex 33.6284 -32.6423 15
      vertex 35.1604 -33.9279 15
      vertex 33.9721 -32.2023 15
    endloop
  endfacet
  facet normal 0 0 1
    outer loop
      vertex 35.1604 -33.9279 15
      vertex 33.6284 -32.6423 15
      vertex 34.6934 -34.4466 15
    endloop
  endfacet
  facet normal -0 0 1
    outer loop
      vertex 33.2547 -33.0573 15
      vertex 34.6934 -34.4466 15
      vertex 33.6284 -32.6423 15
    endloop
  endfacet
  facet normal 0 0 1
    outer loop
      vertex 34.6934 -34.4466 15
      vertex 33.2547 -33.0573 15
      vertex 34.1913 -34.9314 15
    endloop
  endfacet
  facet normal -0 0 1
    outer loop
      vertex 32.853 -33.4452 15
      vertex 34.1913 -34.9314 15
      vertex 33.2547 -33.0573 15
    endloop
  endfacet
  facet normal 0 0 1
    outer loop
      vertex 34.1913 -34.9314 15
      vertex 32.853 -33.4452 15
      vertex 33.6566 -35.3801 15
    endloop
  endfacet
  facet normal -0 0 1
    outer loop
      vertex 32.4253 -33.8041 15
      vertex 33.6566 -35.3801 15
      vertex 32.853 -33.4452 15
    endloop
  endfacet
  facet normal 0 0 1
    outer loop
      vertex 33.6566 -35.3801 15
      vertex 32.4253 -33.8041 15
      vertex 33.0919 -35.7904 15
    endloop
  endfacet
  facet normal -0 0 1
    outer loop
      vertex 31.9735 -34.1323 15
      vertex 33.0919 -35.7904 15
      vertex 32.4253 -33.8041 15
    endloop
  endfacet
  facet normal 0 0 1
    outer loop
      vertex 33.0919 -35.7904 15
      vertex 31.9735 -34.1323 15
      vertex 32.5 -36.1603 15
    endloop
  endfacet
  facet normal -0 0 1
    outer loop
      vertex 31.5 -34.4282 15
      vertex 32.5 -36.1603 15
      vertex 31.9735 -34.1323 15
    endloop
  endfacet
  facet normal 0 0 1
    outer loop
      vertex 32.5 -36.1603 15
      vertex 31.5 -34.4282 15
      vertex 31.8837 -36.4879 15
    endloop
  endfacet
  facet normal -0 0 1
    outer loop
      vertex 31.007 -34.6904 15
      vertex 31.8837 -36.4879 15
      vertex 31.5 -34.4282 15
    endloop
  endfacet
  facet normal 0 0 1
    outer loop
      vertex 31.8837 -36.4879 15
      vertex 31.007 -34.6904 15
      vertex 31.2461 -36.7718 15
    endloop
  endfacet
  facet normal -0 0 1
    outer loop
      vertex 30.4969 -34.9175 15
      vertex 31.2461 -36.7718 15
      vertex 31.007 -34.6904 15
    endloop
  endfacet
  facet normal 0 0 1
    outer loop
      vertex 31.2461 -36.7718 15
      vertex 30.4969 -34.9175 15
      vertex 30.5902 -37.0106 15
    endloop
  endfacet
  facet normal -0 0 1
    outer loop
      vertex 29.9721 -35.1085 15
      vertex 30.5902 -37.0106 15
      vertex 30.4969 -34.9175 15
    endloop
  endfacet
  facet normal 0 0 1
    outer loop
      vertex 29.9721 -35.1085 15
      vertex 29.9192 -37.203 15
      vertex 30.5902 -37.0106 15
    endloop
  endfacet
  facet normal -0 0 1
    outer loop
      vertex 29.4354 -35.2624 15
      vertex 29.9192 -37.203 15
      vertex 29.9721 -35.1085 15
    endloop
  endfacet
  facet normal 0 0 1
    outer loop
      vertex 29.4354 -35.2624 15
      vertex 29.2365 -37.3481 15
      vertex 29.9192 -37.203 15
    endloop
  endfacet
  facet normal -0 0 1
    outer loop
      vertex 28.8892 -35.3785 15
      vertex 29.2365 -37.3481 15
      vertex 29.4354 -35.2624 15
    endloop
  endfacet
  facet normal 0 0 1
    outer loop
      vertex 28.8892 -35.3785 15
      vertex 28.5453 -37.4452 15
      vertex 29.2365 -37.3481 15
    endloop
  endfacet
  facet normal -0 0 1
    outer loop
      vertex 28.3362 -35.4562 15
      vertex 28.5453 -37.4452 15
      vertex 28.8892 -35.3785 15
    endloop
  endfacet
  facet normal 0 0 1
    outer loop
      vertex 28.3362 -35.4562 15
      vertex 27.849 -37.4939 15
      vertex 28.5453 -37.4452 15
    endloop
  endfacet
  facet normal -0 0 1
    outer loop
      vertex 27.7792 -35.4951 15
      vertex 27.849 -37.4939 15
      vertex 28.3362 -35.4562 15
    endloop
  endfacet
  facet normal 0 0 1
    outer loop
      vertex 27.7792 -35.4951 15
      vertex -16.2929 -37.4939 15
      vertex 27.849 -37.4939 15
    endloop
  endfacet
  facet normal -0 0 1
    outer loop
      vertex -18.2819 -35.4951 15
      vertex -16.2929 -37.4939 15
      vertex 27.7792 -35.4951 15
    endloop
  endfacet
  facet normal 0 0 1
    outer loop
      vertex -16.2929 -37.4939 15
      vertex -18.2819 -35.4951 15
      vertex -18.2868 -35.5 15
    endloop
  endfacet
  facet normal 0.999391 -0.0349011 0
    outer loop
      vertex 37.4756 -28.1976 15
      vertex 37.5 -27.5 0
      vertex 37.5 -27.5 15
    endloop
  endfacet
  facet normal 0.999391 -0.0349011 0
    outer loop
      vertex 37.5 -27.5 0
      vertex 37.4756 -28.1976 15
      vertex 37.4756 -28.1976 0
    endloop
  endfacet
  facet normal 0.743146 -0.66913 0
    outer loop
      vertex 34.6934 -34.4466 15
      vertex 35.1604 -33.9279 0
      vertex 35.1604 -33.9279 15
    endloop
  endfacet
  facet normal 0.743146 -0.66913 0
    outer loop
      vertex 35.1604 -33.9279 0
      vertex 34.6934 -34.4466 15
      vertex 34.6934 -34.4466 0
    endloop
  endfacet
  facet normal -0.999391 0.0349011 0
    outer loop
      vertex -37.5 27.5 0
      vertex -37.4756 28.1976 15
      vertex -37.4756 28.1976 0
    endloop
  endfacet
  facet normal -0.999391 0.0349011 0
    outer loop
      vertex -37.4756 28.1976 15
      vertex -37.5 27.5 0
      vertex -37.5 27.5 15
    endloop
  endfacet
  facet normal 0.0697586 0.997564 -0
    outer loop
      vertex 28.5453 37.4452 0
      vertex 27.849 37.4939 15
      vertex 28.5453 37.4452 15
    endloop
  endfacet
  facet normal 0.0697586 0.997564 0
    outer loop
      vertex 27.849 37.4939 15
      vertex 28.5453 37.4452 0
      vertex 27.849 37.4939 0
    endloop
  endfacet
  facet normal 0.275635 -0.961262 0
    outer loop
      vertex 29.9192 -37.203 0
      vertex 30.5902 -37.0106 15
      vertex 29.9192 -37.203 15
    endloop
  endfacet
  facet normal 0.275635 -0.961262 0
    outer loop
      vertex 30.5902 -37.0106 15
      vertex 29.9192 -37.203 0
      vertex 30.5902 -37.0106 0
    endloop
  endfacet
  facet normal 0.78801 -0.615663 0
    outer loop
      vertex 35.1604 -33.9279 15
      vertex 35.5902 -33.3779 0
      vertex 35.5902 -33.3779 15
    endloop
  endfacet
  facet normal 0.78801 -0.615663 0
    outer loop
      vertex 35.5902 -33.3779 0
      vertex 35.1604 -33.9279 15
      vertex 35.1604 -33.9279 0
    endloop
  endfacet
  facet normal 0.642787 -0.766045 0
    outer loop
      vertex 33.6566 -35.3801 0
      vertex 34.1913 -34.9314 15
      vertex 33.6566 -35.3801 15
    endloop
  endfacet
  facet normal 0.642787 -0.766045 0
    outer loop
      vertex 34.1913 -34.9314 15
      vertex 33.6566 -35.3801 0
      vertex 34.1913 -34.9314 0
    endloop
  endfacet
  facet normal 0.951057 -0.309017 0
    outer loop
      vertex 36.8969 -30.9202 15
      vertex 37.1126 -30.2564 0
      vertex 37.1126 -30.2564 15
    endloop
  endfacet
  facet normal 0.951057 -0.309017 0
    outer loop
      vertex 37.1126 -30.2564 0
      vertex 36.8969 -30.9202 15
      vertex 36.8969 -30.9202 0
    endloop
  endfacet
  facet normal 0.927182 -0.374611 0
    outer loop
      vertex 36.6355 -31.5674 15
      vertex 36.8969 -30.9202 0
      vertex 36.8969 -30.9202 15
    endloop
  endfacet
  facet normal 0.927182 -0.374611 0
    outer loop
      vertex 36.8969 -30.9202 0
      vertex 36.6355 -31.5674 15
      vertex 36.6355 -31.5674 0
    endloop
  endfacet
  facet normal 0.994522 -0.104529 0
    outer loop
      vertex 37.4027 -28.8917 15
      vertex 37.4756 -28.1976 0
      vertex 37.4756 -28.1976 15
    endloop
  endfacet
  facet normal 0.994522 -0.104529 0
    outer loop
      vertex 37.4756 -28.1976 0
      vertex 37.4027 -28.8917 15
      vertex 37.4027 -28.8917 0
    endloop
  endfacet
  facet normal -1 0 0
    outer loop
      vertex -37.5 27.5 0
      vertex -37.5 -16.2868 15
      vertex -37.5 27.5 15
    endloop
  endfacet
  facet normal -1 0 0
    outer loop
      vertex -37.5 -16.2868 0
      vertex -37.5 -16.2868 15
      vertex -37.5 27.5 0
    endloop
  endfacet
  facet normal -0.642787 0.766045 0
    outer loop
      vertex -33.6566 35.3801 0
      vertex -34.1913 34.9314 15
      vertex -33.6566 35.3801 15
    endloop
  endfacet
  facet normal -0.642787 0.766045 0
    outer loop
      vertex -34.1913 34.9314 15
      vertex -33.6566 35.3801 0
      vertex -34.1913 34.9314 0
    endloop
  endfacet
  facet normal -0.994522 0.104529 0
    outer loop
      vertex -37.4756 28.1976 0
      vertex -37.4027 28.8917 15
      vertex -37.4027 28.8917 0
    endloop
  endfacet
  facet normal -0.994522 0.104529 0
    outer loop
      vertex -37.4027 28.8917 15
      vertex -37.4756 28.1976 0
      vertex -37.4756 28.1976 15
    endloop
  endfacet
  facet normal -0.78801 0.615663 0
    outer loop
      vertex -35.5902 33.3779 0
      vertex -35.1604 33.9279 15
      vertex -35.1604 33.9279 0
    endloop
  endfacet
  facet normal -0.78801 0.615663 0
    outer loop
      vertex -35.1604 33.9279 15
      vertex -35.5902 33.3779 0
      vertex -35.5902 33.3779 15
    endloop
  endfacet
  facet normal -0.587784 0.809018 0
    outer loop
      vertex -33.0919 35.7904 0
      vertex -33.6566 35.3801 15
      vertex -33.0919 35.7904 15
    endloop
  endfacet
  facet normal -0.587784 0.809018 0
    outer loop
      vertex -33.6566 35.3801 15
      vertex -33.0919 35.7904 0
      vertex -33.6566 35.3801 0
    endloop
  endfacet
  facet normal 0 1 -0
    outer loop
      vertex 27.849 37.4939 0
      vertex -27.849 37.4939 15
      vertex 27.849 37.4939 15
    endloop
  endfacet
  facet normal 0 1 0
    outer loop
      vertex -27.849 37.4939 15
      vertex 27.849 37.4939 0
      vertex -27.849 37.4939 0
    endloop
  endfacet
  facet normal 0.951057 0.309017 0
    outer loop
      vertex 37.1126 30.2564 15
      vertex 36.8969 30.9202 0
      vertex 36.8969 30.9202 15
    endloop
  endfacet
  facet normal 0.951057 0.309017 0
    outer loop
      vertex 36.8969 30.9202 0
      vertex 37.1126 30.2564 15
      vertex 37.1126 30.2564 0
    endloop
  endfacet
  facet normal 0.587784 -0.809018 0
    outer loop
      vertex 33.0919 -35.7904 0
      vertex 33.6566 -35.3801 15
      vertex 33.0919 -35.7904 15
    endloop
  endfacet
  facet normal 0.587784 -0.809018 0
    outer loop
      vertex 33.6566 -35.3801 15
      vertex 33.0919 -35.7904 0
      vertex 33.6566 -35.3801 0
    endloop
  endfacet
  facet normal 0.469467 -0.88295 0
    outer loop
      vertex 31.8837 -36.4879 0
      vertex 32.5 -36.1603 15
      vertex 31.8837 -36.4879 15
    endloop
  endfacet
  facet normal 0.469467 -0.88295 0
    outer loop
      vertex 32.5 -36.1603 15
      vertex 31.8837 -36.4879 0
      vertex 32.5 -36.1603 0
    endloop
  endfacet
  facet normal 0.139173 -0.990268 0
    outer loop
      vertex 28.5453 -37.4452 0
      vertex 29.2365 -37.3481 15
      vertex 28.5453 -37.4452 15
    endloop
  endfacet
  facet normal 0.139173 -0.990268 0
    outer loop
      vertex 29.2365 -37.3481 15
      vertex 28.5453 -37.4452 0
      vertex 29.2365 -37.3481 0
    endloop
  endfacet
  facet normal 0.0697585 -0.997564 0
    outer loop
      vertex 27.849 -37.4939 0
      vertex 28.5453 -37.4452 15
      vertex 27.849 -37.4939 15
    endloop
  endfacet
  facet normal 0.0697585 -0.997564 0
    outer loop
      vertex 28.5453 -37.4452 15
      vertex 27.849 -37.4939 0
      vertex 28.5453 -37.4452 0
    endloop
  endfacet
  facet normal 0.342022 -0.939692 0
    outer loop
      vertex 30.5902 -37.0106 0
      vertex 31.2461 -36.7718 15
      vertex 30.5902 -37.0106 15
    endloop
  endfacet
  facet normal 0.342022 -0.939692 0
    outer loop
      vertex 31.2461 -36.7718 15
      vertex 30.5902 -37.0106 0
      vertex 31.2461 -36.7718 0
    endloop
  endfacet
  facet normal 0.20791 -0.978148 0
    outer loop
      vertex 29.2365 -37.3481 0
      vertex 29.9192 -37.203 15
      vertex 29.2365 -37.3481 15
    endloop
  endfacet
  facet normal 0.20791 -0.978148 0
    outer loop
      vertex 29.9192 -37.203 15
      vertex 29.2365 -37.3481 0
      vertex 29.9192 -37.203 0
    endloop
  endfacet
  facet normal 0.829036 -0.559195 0
    outer loop
      vertex 35.5902 -33.3779 15
      vertex 35.9805 -32.7992 0
      vertex 35.9805 -32.7992 15
    endloop
  endfacet
  facet normal 0.829036 -0.559195 0
    outer loop
      vertex 35.9805 -32.7992 0
      vertex 35.5902 -33.3779 15
      vertex 35.5902 -33.3779 0
    endloop
  endfacet
  facet normal 0.694659 -0.71934 0
    outer loop
      vertex 34.1913 -34.9314 0
      vertex 34.6934 -34.4466 15
      vertex 34.1913 -34.9314 15
    endloop
  endfacet
  facet normal 0.694659 -0.71934 0
    outer loop
      vertex 34.6934 -34.4466 15
      vertex 34.1913 -34.9314 0
      vertex 34.6934 -34.4466 0
    endloop
  endfacet
  facet normal 0.898796 -0.438368 0
    outer loop
      vertex 36.3295 -32.1947 15
      vertex 36.6355 -31.5674 0
      vertex 36.6355 -31.5674 15
    endloop
  endfacet
  facet normal 0.898796 -0.438368 0
    outer loop
      vertex 36.6355 -31.5674 0
      vertex 36.3295 -32.1947 15
      vertex 36.3295 -32.1947 0
    endloop
  endfacet
  facet normal 0.984808 -0.173648 0
    outer loop
      vertex 37.2815 -29.5791 15
      vertex 37.4027 -28.8917 0
      vertex 37.4027 -28.8917 15
    endloop
  endfacet
  facet normal 0.984808 -0.173648 0
    outer loop
      vertex 37.4027 -28.8917 0
      vertex 37.2815 -29.5791 15
      vertex 37.2815 -29.5791 0
    endloop
  endfacet
  facet normal 0.970296 -0.24192 0
    outer loop
      vertex 37.1126 -30.2564 15
      vertex 37.2815 -29.5791 0
      vertex 37.2815 -29.5791 15
    endloop
  endfacet
  facet normal 0.970296 -0.24192 0
    outer loop
      vertex 37.2815 -29.5791 0
      vertex 37.1126 -30.2564 15
      vertex 37.1126 -30.2564 0
    endloop
  endfacet
  facet normal -0.898796 0.438368 0
    outer loop
      vertex -36.6355 31.5674 0
      vertex -36.3295 32.1947 15
      vertex -36.3295 32.1947 0
    endloop
  endfacet
  facet normal -0.898796 0.438368 0
    outer loop
      vertex -36.3295 32.1947 15
      vertex -36.6355 31.5674 0
      vertex -36.6355 31.5674 15
    endloop
  endfacet
  facet normal -0.951057 0.309017 0
    outer loop
      vertex -37.1126 30.2564 0
      vertex -36.8969 30.9202 15
      vertex -36.8969 30.9202 0
    endloop
  endfacet
  facet normal -0.951057 0.309017 0
    outer loop
      vertex -36.8969 30.9202 15
      vertex -37.1126 30.2564 0
      vertex -37.1126 30.2564 15
    endloop
  endfacet
  facet normal -0.984808 0.173648 0
    outer loop
      vertex -37.4027 28.8917 0
      vertex -37.2815 29.5791 15
      vertex -37.2815 29.5791 0
    endloop
  endfacet
  facet normal -0.984808 0.173648 0
    outer loop
      vertex -37.2815 29.5791 15
      vertex -37.4027 28.8917 0
      vertex -37.4027 28.8917 15
    endloop
  endfacet
  facet normal -0.970296 0.24192 0
    outer loop
      vertex -37.2815 29.5791 0
      vertex -37.1126 30.2564 15
      vertex -37.1126 30.2564 0
    endloop
  endfacet
  facet normal -0.970296 0.24192 0
    outer loop
      vertex -37.1126 30.2564 15
      vertex -37.2815 29.5791 0
      vertex -37.2815 29.5791 15
    endloop
  endfacet
  facet normal -0.694659 0.71934 0
    outer loop
      vertex -34.1913 34.9314 0
      vertex -34.6934 34.4466 15
      vertex -34.1913 34.9314 15
    endloop
  endfacet
  facet normal -0.694659 0.71934 0
    outer loop
      vertex -34.6934 34.4466 15
      vertex -34.1913 34.9314 0
      vertex -34.6934 34.4466 0
    endloop
  endfacet
  facet normal -0.829036 0.559195 0
    outer loop
      vertex -35.9805 32.7992 0
      vertex -35.5902 33.3779 15
      vertex -35.5902 33.3779 0
    endloop
  endfacet
  facet normal -0.829036 0.559195 0
    outer loop
      vertex -35.5902 33.3779 15
      vertex -35.9805 32.7992 0
      vertex -35.9805 32.7992 15
    endloop
  endfacet
  facet normal -0.0697585 0.997564 0
    outer loop
      vertex -27.849 37.4939 0
      vertex -28.5453 37.4452 15
      vertex -27.849 37.4939 15
    endloop
  endfacet
  facet normal -0.0697585 0.997564 0
    outer loop
      vertex -28.5453 37.4452 15
      vertex -27.849 37.4939 0
      vertex -28.5453 37.4452 0
    endloop
  endfacet
  facet normal -0.342022 0.939692 0
    outer loop
      vertex -30.5902 37.0106 0
      vertex -31.2461 36.7718 15
      vertex -30.5902 37.0106 15
    endloop
  endfacet
  facet normal -0.342022 0.939692 0
    outer loop
      vertex -31.2461 36.7718 15
      vertex -30.5902 37.0106 0
      vertex -31.2461 36.7718 0
    endloop
  endfacet
  facet normal -0.40674 0.913544 0
    outer loop
      vertex -31.2461 36.7718 0
      vertex -31.8837 36.4879 15
      vertex -31.2461 36.7718 15
    endloop
  endfacet
  facet normal -0.40674 0.913544 0
    outer loop
      vertex -31.8837 36.4879 15
      vertex -31.2461 36.7718 0
      vertex -31.8837 36.4879 0
    endloop
  endfacet
  facet normal -0.529923 0.848046 0
    outer loop
      vertex -32.5 36.1603 0
      vertex -33.0919 35.7904 15
      vertex -32.5 36.1603 15
    endloop
  endfacet
  facet normal -0.529923 0.848046 0
    outer loop
      vertex -33.0919 35.7904 15
      vertex -32.5 36.1603 0
      vertex -33.0919 35.7904 0
    endloop
  endfacet
  facet normal -0.20791 0.978148 0
    outer loop
      vertex -29.2365 37.3481 0
      vertex -29.9192 37.203 15
      vertex -29.2365 37.3481 15
    endloop
  endfacet
  facet normal -0.20791 0.978148 0
    outer loop
      vertex -29.9192 37.203 15
      vertex -29.2365 37.3481 0
      vertex -29.9192 37.203 0
    endloop
  endfacet
  facet normal 0.898795 0.43837 0
    outer loop
      vertex 36.6355 31.5674 15
      vertex 36.3295 32.1947 0
      vertex 36.3295 32.1947 15
    endloop
  endfacet
  facet normal 0.898795 0.43837 0
    outer loop
      vertex 36.3295 32.1947 0
      vertex 36.6355 31.5674 15
      vertex 36.6355 31.5674 0
    endloop
  endfacet
  facet normal 0.927182 0.37461 0
    outer loop
      vertex 36.8969 30.9202 15
      vertex 36.6355 31.5674 0
      vertex 36.6355 31.5674 15
    endloop
  endfacet
  facet normal 0.927182 0.37461 0
    outer loop
      vertex 36.6355 31.5674 0
      vertex 36.8969 30.9202 15
      vertex 36.8969 30.9202 0
    endloop
  endfacet
  facet normal 0.829041 0.559188 0
    outer loop
      vertex 35.9805 32.7992 15
      vertex 35.5902 33.3779 0
      vertex 35.5902 33.3779 15
    endloop
  endfacet
  facet normal 0.829041 0.559188 0
    outer loop
      vertex 35.5902 33.3779 0
      vertex 35.9805 32.7992 15
      vertex 35.9805 32.7992 0
    endloop
  endfacet
  facet normal 0.999391 0.0349012 0
    outer loop
      vertex 37.5 27.5 15
      vertex 37.4756 28.1976 0
      vertex 37.4756 28.1976 15
    endloop
  endfacet
  facet normal 0.999391 0.0349012 0
    outer loop
      vertex 37.4756 28.1976 0
      vertex 37.5 27.5 15
      vertex 37.5 27.5 0
    endloop
  endfacet
  facet normal -0 0 -1
    outer loop
      vertex -16.2868 -37.5 0
      vertex -16.2939 -37.5071 0
      vertex -16.2929 -37.4939 0
    endloop
  endfacet
  facet normal 0 0 -1
    outer loop
      vertex 27.849 -37.4939 0
      vertex 37.5 -27.5 0
      vertex 37.4756 -28.1976 0
    endloop
  endfacet
  facet normal -0 0 -1
    outer loop
      vertex 37.5 -27.5 0
      vertex -16.2929 -37.4939 0
      vertex 37.5 27.5 0
    endloop
  endfacet
  facet normal 0 0 -1
    outer loop
      vertex 27.849 -37.4939 0
      vertex 37.4756 -28.1976 0
      vertex 37.4027 -28.8917 0
    endloop
  endfacet
  facet normal 0 0 -1
    outer loop
      vertex -37.5 -16.2868 0
      vertex 37.5 27.5 0
      vertex -16.2929 -37.4939 0
    endloop
  endfacet
  facet normal 0 0 -1
    outer loop
      vertex 27.849 -37.4939 0
      vertex 37.4027 -28.8917 0
      vertex 37.2815 -29.5791 0
    endloop
  endfacet
  facet normal 0 0 -1
    outer loop
      vertex 37.5 27.5 0
      vertex 27.849 37.4939 0
      vertex 37.4756 28.1976 0
    endloop
  endfacet
  facet normal 0 0 -1
    outer loop
      vertex 27.849 -37.4939 0
      vertex 37.2815 -29.5791 0
      vertex 37.1126 -30.2564 0
    endloop
  endfacet
  facet normal 0 0 -1
    outer loop
      vertex 37.5 -27.5 0
      vertex 27.849 -37.4939 0
      vertex -16.2929 -37.4939 0
    endloop
  endfacet
  facet normal 0 0 -1
    outer loop
      vertex 27.849 -37.4939 0
      vertex 37.1126 -30.2564 0
      vertex 36.8969 -30.9202 0
    endloop
  endfacet
  facet normal 0 0 -1
    outer loop
      vertex 37.4756 28.1976 0
      vertex 27.849 37.4939 0
      vertex 37.4027 28.8917 0
    endloop
  endfacet
  facet normal 0 0 -1
    outer loop
      vertex 27.849 -37.4939 0
      vertex 36.8969 -30.9202 0
      vertex 36.6355 -31.5674 0
    endloop
  endfacet
  facet normal 0 0 -1
    outer loop
      vertex 37.2815 29.5791 0
      vertex 27.849 37.4939 0
      vertex 37.1126 30.2564 0
    endloop
  endfacet
  facet normal 0 0 -1
    outer loop
      vertex 27.849 -37.4939 0
      vertex 36.6355 -31.5674 0
      vertex 36.3295 -32.1947 0
    endloop
  endfacet
  facet normal 0 0 -1
    outer loop
      vertex 37.1126 30.2564 0
      vertex 27.849 37.4939 0
      vertex 36.8969 30.9202 0
    endloop
  endfacet
  facet normal 0 0 -1
    outer loop
      vertex 27.849 -37.4939 0
      vertex 36.3295 -32.1947 0
      vertex 35.9805 -32.7992 0
    endloop
  endfacet
  facet normal 0 0 -1
    outer loop
      vertex 36.8969 30.9202 0
      vertex 27.849 37.4939 0
      vertex 36.6355 31.5674 0
    endloop
  endfacet
  facet normal 0 0 -1
    outer loop
      vertex 36.3295 32.1947 0
      vertex 27.849 37.4939 0
      vertex 35.9805 32.7992 0
    endloop
  endfacet
  facet normal 0 0 -1
    outer loop
      vertex 27.849 -37.4939 0
      vertex 35.9805 -32.7992 0
      vertex 35.5902 -33.3779 0
    endloop
  endfacet
  facet normal 0 0 -1
    outer loop
      vertex 35.9805 32.7992 0
      vertex 27.849 37.4939 0
      vertex 35.5902 33.3779 0
    endloop
  endfacet
  facet normal 0 0 -1
    outer loop
      vertex 27.849 -37.4939 0
      vertex 35.5902 -33.3779 0
      vertex 35.1604 -33.9279 0
    endloop
  endfacet
  facet normal 0 0 -1
    outer loop
      vertex 27.849 -37.4939 0
      vertex 35.1604 -33.9279 0
      vertex 34.6934 -34.4466 0
    endloop
  endfacet
  facet normal 0 0 -1
    outer loop
      vertex 36.6355 31.5674 0
      vertex 27.849 37.4939 0
      vertex 36.3295 32.1947 0
    endloop
  endfacet
  facet normal 0 0 -1
    outer loop
      vertex 35.1604 33.9279 0
      vertex 27.849 37.4939 0
      vertex 34.6934 34.4466 0
    endloop
  endfacet
  facet normal 0 0 -1
    outer loop
      vertex 27.849 -37.4939 0
      vertex 34.6934 -34.4466 0
      vertex 34.1913 -34.9314 0
    endloop
  endfacet
  facet normal 0 0 -1
    outer loop
      vertex 34.6934 34.4466 0
      vertex 27.849 37.4939 0
      vertex 34.1913 34.9314 0
    endloop
  endfacet
  facet normal 0 0 -1
    outer loop
      vertex 27.849 -37.4939 0
      vertex 34.1913 -34.9314 0
      vertex 33.6566 -35.3801 0
    endloop
  endfacet
  facet normal 0 0 -1
    outer loop
      vertex 27.849 -37.4939 0
      vertex 33.6566 -35.3801 0
      vertex 33.0919 -35.7904 0
    endloop
  endfacet
  facet normal 0 0 -1
    outer loop
      vertex 35.5902 33.3779 0
      vertex 27.849 37.4939 0
      vertex 35.1604 33.9279 0
    endloop
  endfacet
  facet normal 0 0 -1
    outer loop
      vertex 27.849 -37.4939 0
      vertex 33.0919 -35.7904 0
      vertex 32.5 -36.1603 0
    endloop
  endfacet
  facet normal 0 0 -1
    outer loop
      vertex 34.1913 34.9314 0
      vertex 27.849 37.4939 0
      vertex 33.6566 35.3801 0
    endloop
  endfacet
  facet normal 0 0 -1
    outer loop
      vertex 27.849 -37.4939 0
      vertex 32.5 -36.1603 0
      vertex 31.8837 -36.4879 0
    endloop
  endfacet
  facet normal 0 0 -1
    outer loop
      vertex 33.6566 35.3801 0
      vertex 27.849 37.4939 0
      vertex 33.0919 35.7904 0
    endloop
  endfacet
  facet normal 0 0 -1
    outer loop
      vertex 27.849 -37.4939 0
      vertex 31.8837 -36.4879 0
      vertex 31.2461 -36.7718 0
    endloop
  endfacet
  facet normal 0 0 -1
    outer loop
      vertex 33.0919 35.7904 0
      vertex 27.849 37.4939 0
      vertex 32.5 36.1603 0
    endloop
  endfacet
  facet normal 0 0 -1
    outer loop
      vertex 27.849 -37.4939 0
      vertex 31.2461 -36.7718 0
      vertex 30.5902 -37.0106 0
    endloop
  endfacet
  facet normal 0 0 -1
    outer loop
      vertex 32.5 36.1603 0
      vertex 27.849 37.4939 0
      vertex 31.8837 36.4879 0
    endloop
  endfacet
  facet normal 0 0 -1
    outer loop
      vertex 27.849 -37.4939 0
      vertex 30.5902 -37.0106 0
      vertex 29.9192 -37.203 0
    endloop
  endfacet
  facet normal 0 0 -1
    outer loop
      vertex 31.8837 36.4879 0
      vertex 27.849 37.4939 0
      vertex 31.2461 36.7718 0
    endloop
  endfacet
  facet normal 0 0 -1
    outer loop
      vertex 30.5902 37.0106 0
      vertex 27.849 37.4939 0
      vertex 29.9192 37.203 0
    endloop
  endfacet
  facet normal 0 0 -1
    outer loop
      vertex 27.849 -37.4939 0
      vertex 29.9192 -37.203 0
      vertex 29.2365 -37.3481 0
    endloop
  endfacet
  facet normal 0 0 -1
    outer loop
      vertex 27.849 -37.4939 0
      vertex 29.2365 -37.3481 0
      vertex 28.5453 -37.4452 0
    endloop
  endfacet
  facet normal 0 0 -1
    outer loop
      vertex 31.2461 36.7718 0
      vertex 27.849 37.4939 0
      vertex 30.5902 37.0106 0
    endloop
  endfacet
  facet normal 0 0 -1
    outer loop
      vertex 29.2365 37.3481 0
      vertex 27.849 37.4939 0
      vertex 28.5453 37.4452 0
    endloop
  endfacet
  facet normal 0 0 -1
    outer loop
      vertex 29.9192 37.203 0
      vertex 27.849 37.4939 0
      vertex 29.2365 37.3481 0
    endloop
  endfacet
  facet normal 0 0 -1
    outer loop
      vertex 37.4027 28.8917 0
      vertex 27.849 37.4939 0
      vertex 37.2815 29.5791 0
    endloop
  endfacet
  facet normal -0 0 -1
    outer loop
      vertex 37.5 27.5 0
      vertex -37.5 -16.2868 0
      vertex 27.849 37.4939 0
    endloop
  endfacet
  facet normal 0 0 -1
    outer loop
      vertex -30.4195 -44.5664 0
      vertex -16.2929 -37.4939 0
      vertex -16.2939 -37.5071 0
    endloop
  endfacet
  facet normal -0 0 -1
    outer loop
      vertex 27.849 37.4939 0
      vertex -37.5 -16.2868 0
      vertex -27.849 37.4939 0
    endloop
  endfacet
  facet normal 0 0 -1
    outer loop
      vertex -37.5 27.5 0
      vertex -27.849 37.4939 0
      vertex -37.5 -16.2868 0
    endloop
  endfacet
  facet normal 0 0 -1
    outer loop
      vertex -27.849 37.4939 0
      vertex -37.5 27.5 0
      vertex -28.5453 37.4452 0
    endloop
  endfacet
  facet normal -0 0 -1
    outer loop
      vertex -16.2929 -37.4939 0
      vertex -30.4195 -44.5664 0
      vertex -37.5071 -16.2939 0
    endloop
  endfacet
  facet normal 0 0 -1
    outer loop
      vertex -28.5453 37.4452 0
      vertex -37.5 27.5 0
      vertex -29.2365 37.3481 0
    endloop
  endfacet
  facet normal 0 0 -1
    outer loop
      vertex -29.2365 37.3481 0
      vertex -37.5 27.5 0
      vertex -29.9192 37.203 0
    endloop
  endfacet
  facet normal 0 0 -1
    outer loop
      vertex -29.9192 37.203 0
      vertex -37.5 27.5 0
      vertex -30.5902 37.0106 0
    endloop
  endfacet
  facet normal 0 0 -1
    outer loop
      vertex -30.5902 37.0106 0
      vertex -37.5 27.5 0
      vertex -31.2461 36.7718 0
    endloop
  endfacet
  facet normal 0 0 -1
    outer loop
      vertex -31.2461 36.7718 0
      vertex -37.5 27.5 0
      vertex -31.8837 36.4879 0
    endloop
  endfacet
  facet normal 0 0 -1
    outer loop
      vertex -31.8837 36.4879 0
      vertex -37.5 27.5 0
      vertex -32.5 36.1603 0
    endloop
  endfacet
  facet normal 0 0 -1
    outer loop
      vertex -32.5 36.1603 0
      vertex -37.5 27.5 0
      vertex -33.0919 35.7904 0
    endloop
  endfacet
  facet normal 0 0 -1
    outer loop
      vertex -33.0919 35.7904 0
      vertex -37.5 27.5 0
      vertex -33.6566 35.3801 0
    endloop
  endfacet
  facet normal 0 0 -1
    outer loop
      vertex -33.6566 35.3801 0
      vertex -37.5 27.5 0
      vertex -34.1913 34.9314 0
    endloop
  endfacet
  facet normal 0 0 -1
    outer loop
      vertex -34.1913 34.9314 0
      vertex -37.5 27.5 0
      vertex -34.6934 34.4466 0
    endloop
  endfacet
  facet normal 0 0 -1
    outer loop
      vertex -34.6934 34.4466 0
      vertex -37.5 27.5 0
      vertex -35.1604 33.9279 0
    endloop
  endfacet
  facet normal 0 0 -1
    outer loop
      vertex -35.1604 33.9279 0
      vertex -37.5 27.5 0
      vertex -35.5902 33.3779 0
    endloop
  endfacet
  facet normal 0 0 -1
    outer loop
      vertex -35.5902 33.3779 0
      vertex -37.5 27.5 0
      vertex -35.9805 32.7992 0
    endloop
  endfacet
  facet normal 0 0 -1
    outer loop
      vertex -35.9805 32.7992 0
      vertex -37.5 27.5 0
      vertex -36.3295 32.1947 0
    endloop
  endfacet
  facet normal 0 0 -1
    outer loop
      vertex -36.3295 32.1947 0
      vertex -37.5 27.5 0
      vertex -36.6355 31.5674 0
    endloop
  endfacet
  facet normal 0 0 -1
    outer loop
      vertex -36.8969 30.9202 0
      vertex -37.5 27.5 0
      vertex -37.1126 30.2564 0
    endloop
  endfacet
  facet normal 0 0 -1
    outer loop
      vertex -37.1126 30.2564 0
      vertex -37.5 27.5 0
      vertex -37.2815 29.5791 0
    endloop
  endfacet
  facet normal 0 0 -1
    outer loop
      vertex -37.2815 29.5791 0
      vertex -37.5 27.5 0
      vertex -37.4027 28.8917 0
    endloop
  endfacet
  facet normal 0 0 -1
    outer loop
      vertex -36.6355 31.5674 0
      vertex -37.5 27.5 0
      vertex -36.8969 30.9202 0
    endloop
  endfacet
  facet normal 0 0 -1
    outer loop
      vertex -16.2929 -37.4939 0
      vertex -37.5071 -16.2939 0
      vertex -37.5 -16.2868 0
    endloop
  endfacet
  facet normal 0 -0 -1
    outer loop
      vertex -37.5071 -16.2939 0
      vertex -30.4195 -44.5664 0
      vertex -44.5664 -30.4195 0
    endloop
  endfacet
  facet normal 0 0 -1
    outer loop
      vertex -37.4027 28.8917 0
      vertex -37.5 27.5 0
      vertex -37.4756 28.1976 0
    endloop
  endfacet
  facet normal 0.587781 0.80902 -0
    outer loop
      vertex 33.6566 35.3801 0
      vertex 33.0919 35.7904 15
      vertex 33.6566 35.3801 15
    endloop
  endfacet
  facet normal 0.587781 0.80902 0
    outer loop
      vertex 33.0919 35.7904 15
      vertex 33.6566 35.3801 0
      vertex 33.0919 35.7904 0
    endloop
  endfacet
  facet normal 0.529919 0.848048 -0
    outer loop
      vertex 33.0919 35.7904 0
      vertex 32.5 36.1603 15
      vertex 33.0919 35.7904 15
    endloop
  endfacet
  facet normal 0.529919 0.848048 0
    outer loop
      vertex 32.5 36.1603 15
      vertex 33.0919 35.7904 0
      vertex 32.5 36.1603 0
    endloop
  endfacet
  facet normal 0.27564 0.961261 -0
    outer loop
      vertex 30.5902 37.0106 0
      vertex 29.9192 37.203 15
      vertex 30.5902 37.0106 15
    endloop
  endfacet
  facet normal 0.27564 0.961261 0
    outer loop
      vertex 29.9192 37.203 15
      vertex 30.5902 37.0106 0
      vertex 29.9192 37.203 0
    endloop
  endfacet
  facet normal 0.529923 -0.848046 0
    outer loop
      vertex 32.5 -36.1603 0
      vertex 33.0919 -35.7904 15
      vertex 32.5 -36.1603 15
    endloop
  endfacet
  facet normal 0.529923 -0.848046 0
    outer loop
      vertex 33.0919 -35.7904 15
      vertex 32.5 -36.1603 0
      vertex 33.0919 -35.7904 0
    endloop
  endfacet
  facet normal 0.40674 -0.913544 0
    outer loop
      vertex 31.2461 -36.7718 0
      vertex 31.8837 -36.4879 15
      vertex 31.2461 -36.7718 15
    endloop
  endfacet
  facet normal 0.40674 -0.913544 0
    outer loop
      vertex 31.8837 -36.4879 15
      vertex 31.2461 -36.7718 0
      vertex 31.8837 -36.4879 0
    endloop
  endfacet
  facet normal -0.927182 0.374611 0
    outer loop
      vertex -36.8969 30.9202 0
      vertex -36.6355 31.5674 15
      vertex -36.6355 31.5674 0
    endloop
  endfacet
  facet normal -0.927182 0.374611 0
    outer loop
      vertex -36.6355 31.5674 15
      vertex -36.8969 30.9202 0
      vertex -36.8969 30.9202 15
    endloop
  endfacet
  facet normal -0.743146 0.66913 0
    outer loop
      vertex -35.1604 33.9279 0
      vertex -34.6934 34.4466 15
      vertex -34.6934 34.4466 0
    endloop
  endfacet
  facet normal -0.743146 0.66913 0
    outer loop
      vertex -34.6934 34.4466 15
      vertex -35.1604 33.9279 0
      vertex -35.1604 33.9279 15
    endloop
  endfacet
  facet normal -0.866025 0.5 0
    outer loop
      vertex -36.3295 32.1947 0
      vertex -35.9805 32.7992 15
      vertex -35.9805 32.7992 0
    endloop
  endfacet
  facet normal -0.866025 0.5 0
    outer loop
      vertex -35.9805 32.7992 15
      vertex -36.3295 32.1947 0
      vertex -36.3295 32.1947 15
    endloop
  endfacet
  facet normal -0.139173 0.990268 0
    outer loop
      vertex -28.5453 37.4452 0
      vertex -29.2365 37.3481 15
      vertex -28.5453 37.4452 15
    endloop
  endfacet
  facet normal -0.139173 0.990268 0
    outer loop
      vertex -29.2365 37.3481 15
      vertex -28.5453 37.4452 0
      vertex -29.2365 37.3481 0
    endloop
  endfacet
  facet normal -0.275635 0.961262 0
    outer loop
      vertex -29.9192 37.203 0
      vertex -30.5902 37.0106 15
      vertex -29.9192 37.203 15
    endloop
  endfacet
  facet normal -0.275635 0.961262 0
    outer loop
      vertex -30.5902 37.0106 15
      vertex -29.9192 37.203 0
      vertex -30.5902 37.0106 0
    endloop
  endfacet
  facet normal 0.866025 0.5 0
    outer loop
      vertex 36.3295 32.1947 15
      vertex 35.9805 32.7992 0
      vertex 35.9805 32.7992 15
    endloop
  endfacet
  facet normal 0.866025 0.5 0
    outer loop
      vertex 35.9805 32.7992 0
      vertex 36.3295 32.1947 15
      vertex 36.3295 32.1947 0
    endloop
  endfacet
  facet normal 0.78801 0.615663 0
    outer loop
      vertex 35.5902 33.3779 15
      vertex 35.1604 33.9279 0
      vertex 35.1604 33.9279 15
    endloop
  endfacet
  facet normal 0.78801 0.615663 0
    outer loop
      vertex 35.1604 33.9279 0
      vertex 35.5902 33.3779 15
      vertex 35.5902 33.3779 0
    endloop
  endfacet
  facet normal 0.984808 0.173647 0
    outer loop
      vertex 37.4027 28.8917 15
      vertex 37.2815 29.5791 0
      vertex 37.2815 29.5791 15
    endloop
  endfacet
  facet normal 0.984808 0.173647 0
    outer loop
      vertex 37.2815 29.5791 0
      vertex 37.4027 28.8917 15
      vertex 37.4027 28.8917 0
    endloop
  endfacet
  facet normal 0.970296 0.24192 0
    outer loop
      vertex 37.2815 29.5791 15
      vertex 37.1126 30.2564 0
      vertex 37.1126 30.2564 15
    endloop
  endfacet
  facet normal 0.970296 0.24192 0
    outer loop
      vertex 37.1126 30.2564 0
      vertex 37.2815 29.5791 15
      vertex 37.2815 29.5791 0
    endloop
  endfacet
  facet normal 0.994522 0.104529 0
    outer loop
      vertex 37.4756 28.1976 15
      vertex 37.4027 28.8917 0
      vertex 37.4027 28.8917 15
    endloop
  endfacet
  facet normal 0.994522 0.104529 0
    outer loop
      vertex 37.4027 28.8917 0
      vertex 37.4756 28.1976 15
      vertex 37.4756 28.1976 0
    endloop
  endfacet
  facet normal 0.64279 0.766042 -0
    outer loop
      vertex 34.1913 34.9314 0
      vertex 33.6566 35.3801 15
      vertex 34.1913 34.9314 15
    endloop
  endfacet
  facet normal 0.64279 0.766042 0
    outer loop
      vertex 33.6566 35.3801 15
      vertex 34.1913 34.9314 0
      vertex 33.6566 35.3801 0
    endloop
  endfacet
  facet normal 0.743143 0.669133 0
    outer loop
      vertex 35.1604 33.9279 15
      vertex 34.6934 34.4466 0
      vertex 34.6934 34.4466 15
    endloop
  endfacet
  facet normal 0.743143 0.669133 0
    outer loop
      vertex 34.6934 34.4466 0
      vertex 35.1604 33.9279 15
      vertex 35.1604 33.9279 0
    endloop
  endfacet
  facet normal 0.469471 0.882948 -0
    outer loop
      vertex 32.5 36.1603 0
      vertex 31.8837 36.4879 15
      vertex 32.5 36.1603 15
    endloop
  endfacet
  facet normal 0.469471 0.882948 0
    outer loop
      vertex 31.8837 36.4879 15
      vertex 32.5 36.1603 0
      vertex 31.8837 36.4879 0
    endloop
  endfacet
  facet normal 0.342017 0.939694 -0
    outer loop
      vertex 31.2461 36.7718 0
      vertex 30.5902 37.0106 15
      vertex 31.2461 36.7718 15
    endloop
  endfacet
  facet normal 0.342017 0.939694 0
    outer loop
      vertex 30.5902 37.0106 15
      vertex 31.2461 36.7718 0
      vertex 30.5902 37.0106 0
    endloop
  endfacet
  facet normal 0.40674 0.913544 -0
    outer loop
      vertex 31.8837 36.4879 0
      vertex 31.2461 36.7718 15
      vertex 31.8837 36.4879 15
    endloop
  endfacet
  facet normal 0.40674 0.913544 0
    outer loop
      vertex 31.2461 36.7718 15
      vertex 31.8837 36.4879 0
      vertex 31.2461 36.7718 0
    endloop
  endfacet
  facet normal 0.20791 0.978148 -0
    outer loop
      vertex 29.9192 37.203 0
      vertex 29.2365 37.3481 15
      vertex 29.9192 37.203 15
    endloop
  endfacet
  facet normal 0.20791 0.978148 0
    outer loop
      vertex 29.2365 37.3481 15
      vertex 29.9192 37.203 0
      vertex 29.2365 37.3481 0
    endloop
  endfacet
  facet normal 0.139173 0.990268 -0
    outer loop
      vertex 29.2365 37.3481 0
      vertex 28.5453 37.4452 15
      vertex 29.2365 37.3481 15
    endloop
  endfacet
  facet normal 0.139173 0.990268 0
    outer loop
      vertex 28.5453 37.4452 15
      vertex 29.2365 37.3481 0
      vertex 28.5453 37.4452 0
    endloop
  endfacet
  facet normal -0.469467 0.88295 0
    outer loop
      vertex -31.8837 36.4879 0
      vertex -32.5 36.1603 15
      vertex -31.8837 36.4879 15
    endloop
  endfacet
  facet normal -0.469467 0.88295 0
    outer loop
      vertex -32.5 36.1603 15
      vertex -31.8837 36.4879 0
      vertex -32.5 36.1603 0
    endloop
  endfacet
  facet normal 0.694658 0.71934 -0
    outer loop
      vertex 34.6934 34.4466 0
      vertex 34.1913 34.9314 15
      vertex 34.6934 34.4466 15
    endloop
  endfacet
  facet normal 0.694658 0.71934 0
    outer loop
      vertex 34.1913 34.9314 15
      vertex 34.6934 34.4466 0
      vertex 34.1913 34.9314 0
    endloop
  endfacet
  facet normal 0.707107 0.707107 0
    outer loop
      vertex -16.2868 -37.5 15
      vertex -16.2929 -37.4939 0
      vertex -16.2929 -37.4939 15
    endloop
  endfacet
  facet normal 0.707107 0.707107 0
    outer loop
      vertex -16.2929 -37.4939 0
      vertex -16.2868 -37.5 15
      vertex -16.2868 -37.5 0
    endloop
  endfacet
  facet normal -0.707107 0.707107 0
    outer loop
      vertex -37.5071 -16.2939 14.997
      vertex -37.5 -16.2868 0
      vertex -37.5071 -16.2939 0
    endloop
  endfacet
  facet normal -0.707107 0.707107 0
    outer loop
      vertex -37.5 -16.2868 0
      vertex -37.5071 -16.2939 14.997
      vertex -37.5 -16.2868 15
    endloop
  endfacet
  facet normal 0.707011 -0.707202 0
    outer loop
      vertex -16.2868 -37.5 0
      vertex -16.2939 -37.5071 14.997
      vertex -16.2939 -37.5071 0
    endloop
  endfacet
  facet normal 0.707011 -0.707202 0
    outer loop
      vertex -16.2939 -37.5071 14.997
      vertex -16.2868 -37.5 0
      vertex -16.2868 -37.5 15
    endloop
  endfacet
  facet normal -0.894517 0.447035 0
    outer loop
      vertex -37.5071 -16.2939 0
      vertex -43.3809 -28.0473 11.2577
      vertex -37.5071 -16.2939 14.997
    endloop
  endfacet
  facet normal -0.894517 0.447035 9.0378e-08
    outer loop
      vertex -44.5664 -30.4195 0
      vertex -43.3809 -28.0473 11.2577
      vertex -37.5071 -16.2939 0
    endloop
  endfacet
  facet normal -0.894517 0.447035 0
    outer loop
      vertex -43.3809 -28.0473 11.2577
      vertex -44.5664 -30.4195 0
      vertex -44.5664 -30.4195 10.503
    endloop
  endfacet
  facet normal 0.447035 -0.894517 0
    outer loop
      vertex -30.4195 -44.5664 0
      vertex -28.0473 -43.3809 11.2577
      vertex -30.4195 -44.5664 10.503
    endloop
  endfacet
  facet normal 0.447035 -0.894517 3.94759e-08
    outer loop
      vertex -28.0473 -43.3809 11.2577
      vertex -30.4195 -44.5664 0
      vertex -16.2939 -37.5071 0
    endloop
  endfacet
  facet normal 0.447035 -0.894517 0
    outer loop
      vertex -28.0473 -43.3809 11.2577
      vertex -16.2939 -37.5071 0
      vertex -16.2939 -37.5071 14.997
    endloop
  endfacet
  facet normal 0.870628 -0.491943 0
    outer loop
      vertex -41.8693 -29.5589 11.2577
      vertex -35.5 -18.2868 2
      vertex -35.5 -18.2868 15
    endloop
  endfacet
  facet normal 0.870628 -0.491942 0
    outer loop
      vertex -43.1537 -31.8321 0.801598
      vertex -41.8693 -29.5589 11.2577
      vertex -43.1537 -31.8321 10.503
    endloop
  endfacet
  facet normal 0.870628 -0.491943 1.20242e-07
    outer loop
      vertex -41.8693 -29.5589 11.2577
      vertex -43.1537 -31.8321 0.801598
      vertex -35.5 -18.2868 2
    endloop
  endfacet
  facet normal -0.707245 0.706968 0
    outer loop
      vertex -18.2868 -35.5 15
      vertex -18.2819 -35.4951 15
      vertex -18.2819 -35.4951 2
    endloop
  endfacet
  facet normal -0.707245 0.706968 0
    outer loop
      vertex -18.2868 -35.5 15
      vertex -18.2819 -35.4951 2
      vertex -18.2868 -35.5 2
    endloop
  endfacet
  facet normal 0.195366 -0.195419 0.961064
    outer loop
      vertex -35.5 -18.2868 2
      vertex -43.1517 -31.8341 0.800799
      vertex -35.4929 -18.2797 2
    endloop
  endfacet
  facet normal 0.19554 -0.195512 0.96101
    outer loop
      vertex -43.1517 -31.8341 0.800799
      vertex -35.5 -18.2868 2
      vertex -43.1537 -31.8321 0.801598
    endloop
  endfacet
  facet normal -0.0563511 -0.0563511 0.996819
    outer loop
      vertex -35.4929 -18.2797 2
      vertex -31.8341 -43.1517 0.800799
      vertex -18.2797 -35.4929 2
    endloop
  endfacet
  facet normal -0.0563511 -0.0563511 0.996819
    outer loop
      vertex -31.8341 -43.1517 0.800799
      vertex -35.4929 -18.2797 2
      vertex -43.1517 -31.8341 0.800799
    endloop
  endfacet
  facet normal -0.491943 0.870628 0
    outer loop
      vertex -18.2868 -35.5 2
      vertex -29.5589 -41.8693 11.2577
      vertex -18.2868 -35.5 15
    endloop
  endfacet
  facet normal -0.491943 0.870628 1.20242e-07
    outer loop
      vertex -31.8321 -43.1537 0.801598
      vertex -29.5589 -41.8693 11.2577
      vertex -18.2868 -35.5 2
    endloop
  endfacet
  facet normal -0.491942 0.870628 0
    outer loop
      vertex -29.5589 -41.8693 11.2577
      vertex -31.8321 -43.1537 0.801598
      vertex -31.8321 -43.1537 10.503
    endloop
  endfacet
  facet normal -0.195392 0.195315 0.96108
    outer loop
      vertex -31.8341 -43.1517 0.800799
      vertex -18.2868 -35.5 2
      vertex -18.2819 -35.4951 2
    endloop
  endfacet
  facet normal -0.19548 0.19548 0.961028
    outer loop
      vertex -31.8341 -43.1517 0.800799
      vertex -18.2819 -35.4951 2
      vertex -18.2797 -35.4929 2
    endloop
  endfacet
  facet normal -0.195512 0.19554 0.96101
    outer loop
      vertex -18.2868 -35.5 2
      vertex -31.8341 -43.1517 0.800799
      vertex -31.8321 -43.1537 0.801598
    endloop
  endfacet
  facet normal -0.707106 -0.707107 0
    outer loop
      vertex -44.5664 -30.4195 0
      vertex -43.1537 -31.8321 0.801598
      vertex -44.5664 -30.4195 10.503
    endloop
  endfacet
  facet normal -0.707107 -0.707107 9.79855e-07
    outer loop
      vertex -44.5664 -30.4195 0
      vertex -43.1517 -31.8341 0.800799
      vertex -43.1537 -31.8321 0.801598
    endloop
  endfacet
  facet normal -0.707107 -0.707107 1.68419e-06
    outer loop
      vertex -44.5664 -30.4195 0
      vertex -31.8341 -43.1517 0.800799
      vertex -43.1517 -31.8341 0.800799
    endloop
  endfacet
  facet normal -0.707107 -0.707107 1.68419e-06
    outer loop
      vertex -30.4195 -44.5664 0
      vertex -31.8341 -43.1517 0.800799
      vertex -44.5664 -30.4195 0
    endloop
  endfacet
  facet normal -0.707107 -0.707107 9.79855e-07
    outer loop
      vertex -30.4195 -44.5664 0
      vertex -31.8321 -43.1537 0.801598
      vertex -31.8341 -43.1517 0.800799
    endloop
  endfacet
  facet normal -0.707107 -0.707106 -0
    outer loop
      vertex -30.4195 -44.5664 10.503
      vertex -31.8321 -43.1537 0.801598
      vertex -30.4195 -44.5664 0
    endloop
  endfacet
  facet normal -0.707107 -0.707106 0
    outer loop
      vertex -31.8321 -43.1537 0.801598
      vertex -30.4195 -44.5664 10.503
      vertex -31.8321 -43.1537 10.503
    endloop
  endfacet
  facet normal -0.707106 -0.707107 0
    outer loop
      vertex -44.5664 -30.4195 10.503
      vertex -43.1537 -31.8321 0.801598
      vertex -43.1537 -31.8321 10.503
    endloop
  endfacet
  facet normal -1 0 0
    outer loop
      vertex 35.5 -27.5 2
      vertex 35.5 27.5 15
      vertex 35.5 27.5 2
    endloop
  endfacet
  facet normal -1 -0 0
    outer loop
      vertex 35.5 27.5 15
      vertex 35.5 -27.5 2
      vertex 35.5 -27.5 15
    endloop
  endfacet
  facet normal -0.866027 0.499997 0
    outer loop
      vertex 34.2844 -31.7394 2
      vertex 34.5636 -31.2558 15
      vertex 34.5636 -31.2558 2
    endloop
  endfacet
  facet normal -0.866027 0.499997 0
    outer loop
      vertex 34.5636 -31.2558 15
      vertex 34.2844 -31.7394 2
      vertex 34.2844 -31.7394 15
    endloop
  endfacet
  facet normal 0 1 -0
    outer loop
      vertex 27.7792 -35.4951 2
      vertex -18.2819 -35.4951 15
      vertex 27.7792 -35.4951 15
    endloop
  endfacet
  facet normal 0 1 0
    outer loop
      vertex -18.2819 -35.4951 15
      vertex 27.7792 -35.4951 2
      vertex -18.2819 -35.4951 2
    endloop
  endfacet
  facet normal -0.999391 0.0349025 0
    outer loop
      vertex 35.4805 -28.0581 2
      vertex 35.5 -27.5 15
      vertex 35.5 -27.5 2
    endloop
  endfacet
  facet normal -0.999391 0.0349025 0
    outer loop
      vertex 35.5 -27.5 15
      vertex 35.4805 -28.0581 2
      vertex 35.4805 -28.0581 15
    endloop
  endfacet
  facet normal -0.743148 0.669127 0
    outer loop
      vertex 33.2547 -33.0573 2
      vertex 33.6284 -32.6423 15
      vertex 33.6284 -32.6423 2
    endloop
  endfacet
  facet normal -0.743148 0.669127 0
    outer loop
      vertex 33.6284 -32.6423 15
      vertex 33.2547 -33.0573 2
      vertex 33.2547 -33.0573 15
    endloop
  endfacet
  facet normal 0.999391 -0.0349025 0
    outer loop
      vertex -35.5 27.5 15
      vertex -35.4805 28.0581 2
      vertex -35.4805 28.0581 15
    endloop
  endfacet
  facet normal 0.999391 -0.0349025 0
    outer loop
      vertex -35.4805 28.0581 2
      vertex -35.5 27.5 15
      vertex -35.5 27.5 2
    endloop
  endfacet
  facet normal 0.866027 -0.499997 0
    outer loop
      vertex -34.5636 31.2558 15
      vertex -34.2844 31.7394 2
      vertex -34.2844 31.7394 15
    endloop
  endfacet
  facet normal 0.866027 -0.499997 0
    outer loop
      vertex -34.2844 31.7394 2
      vertex -34.5636 31.2558 15
      vertex -34.5636 31.2558 2
    endloop
  endfacet
  facet normal -0.0697572 -0.997564 0
    outer loop
      vertex 27.7792 35.4951 2
      vertex 28.3362 35.4562 15
      vertex 27.7792 35.4951 15
    endloop
  endfacet
  facet normal -0.0697572 -0.997564 -0
    outer loop
      vertex 28.3362 35.4562 15
      vertex 27.7792 35.4951 2
      vertex 28.3362 35.4562 2
    endloop
  endfacet
  facet normal -0.139173 0.990268 0
    outer loop
      vertex 28.8892 -35.3785 2
      vertex 28.3362 -35.4562 15
      vertex 28.8892 -35.3785 15
    endloop
  endfacet
  facet normal -0.139173 0.990268 0
    outer loop
      vertex 28.3362 -35.4562 15
      vertex 28.8892 -35.3785 2
      vertex 28.3362 -35.4562 2
    endloop
  endfacet
  facet normal -0.207913 0.978147 0
    outer loop
      vertex 29.4354 -35.2624 2
      vertex 28.8892 -35.3785 15
      vertex 29.4354 -35.2624 15
    endloop
  endfacet
  facet normal -0.207913 0.978147 0
    outer loop
      vertex 28.8892 -35.3785 15
      vertex 29.4354 -35.2624 2
      vertex 28.8892 -35.3785 2
    endloop
  endfacet
  facet normal -0.78801 0.615663 0
    outer loop
      vertex 33.6284 -32.6423 2
      vertex 33.9721 -32.2023 15
      vertex 33.9721 -32.2023 2
    endloop
  endfacet
  facet normal -0.78801 0.615663 0
    outer loop
      vertex 33.9721 -32.2023 15
      vertex 33.6284 -32.6423 2
      vertex 33.6284 -32.6423 15
    endloop
  endfacet
  facet normal -0.642785 0.766047 0
    outer loop
      vertex 32.853 -33.4452 2
      vertex 32.4253 -33.8041 15
      vertex 32.853 -33.4452 15
    endloop
  endfacet
  facet normal -0.642785 0.766047 0
    outer loop
      vertex 32.4253 -33.8041 15
      vertex 32.853 -33.4452 2
      vertex 32.4253 -33.8041 2
    endloop
  endfacet
  facet normal -0.951056 0.30902 0
    outer loop
      vertex 35.0175 -30.2362 2
      vertex 35.1901 -29.7051 15
      vertex 35.1901 -29.7051 2
    endloop
  endfacet
  facet normal -0.951056 0.30902 0
    outer loop
      vertex 35.1901 -29.7051 15
      vertex 35.0175 -30.2362 2
      vertex 35.0175 -30.2362 15
    endloop
  endfacet
  facet normal -0.898795 0.43837 0
    outer loop
      vertex 34.5636 -31.2558 2
      vertex 34.8084 -30.7539 15
      vertex 34.8084 -30.7539 2
    endloop
  endfacet
  facet normal -0.898795 0.43837 0
    outer loop
      vertex 34.8084 -30.7539 15
      vertex 34.5636 -31.2558 2
      vertex 34.5636 -31.2558 15
    endloop
  endfacet
  facet normal -0.994522 0.10453 0
    outer loop
      vertex 35.4221 -28.6134 2
      vertex 35.4805 -28.0581 15
      vertex 35.4805 -28.0581 2
    endloop
  endfacet
  facet normal -0.994522 0.10453 0
    outer loop
      vertex 35.4805 -28.0581 15
      vertex 35.4221 -28.6134 2
      vertex 35.4221 -28.6134 15
    endloop
  endfacet
  facet normal 1 -0 0
    outer loop
      vertex -35.5 -18.2868 15
      vertex -35.5 27.5 2
      vertex -35.5 27.5 15
    endloop
  endfacet
  facet normal 1 0 0
    outer loop
      vertex -35.5 -18.2868 15
      vertex -35.5 -18.2868 2
      vertex -35.5 27.5 2
    endloop
  endfacet
  facet normal 0.642785 -0.766047 0
    outer loop
      vertex -32.853 33.4452 2
      vertex -32.4253 33.8041 15
      vertex -32.853 33.4452 15
    endloop
  endfacet
  facet normal 0.642785 -0.766047 0
    outer loop
      vertex -32.4253 33.8041 15
      vertex -32.853 33.4452 2
      vertex -32.4253 33.8041 2
    endloop
  endfacet
  facet normal 0.694658 -0.71934 0
    outer loop
      vertex -33.2547 33.0573 2
      vertex -32.853 33.4452 15
      vertex -33.2547 33.0573 15
    endloop
  endfacet
  facet normal 0.694658 -0.71934 0
    outer loop
      vertex -32.853 33.4452 15
      vertex -33.2547 33.0573 2
      vertex -32.853 33.4452 2
    endloop
  endfacet
  facet normal 0.78801 -0.615663 0
    outer loop
      vertex -33.9721 32.2023 15
      vertex -33.6284 32.6423 2
      vertex -33.6284 32.6423 15
    endloop
  endfacet
  facet normal 0.78801 -0.615663 0
    outer loop
      vertex -33.6284 32.6423 2
      vertex -33.9721 32.2023 15
      vertex -33.9721 32.2023 2
    endloop
  endfacet
  facet normal 0.58779 -0.809014 0
    outer loop
      vertex -32.4253 33.8041 2
      vertex -31.9735 34.1323 15
      vertex -32.4253 33.8041 15
    endloop
  endfacet
  facet normal 0.58779 -0.809014 0
    outer loop
      vertex -31.9735 34.1323 15
      vertex -32.4253 33.8041 2
      vertex -31.9735 34.1323 2
    endloop
  endfacet
  facet normal 0.207913 -0.978147 0
    outer loop
      vertex -29.4354 35.2624 2
      vertex -28.8892 35.3785 15
      vertex -29.4354 35.2624 15
    endloop
  endfacet
  facet normal 0.207913 -0.978147 0
    outer loop
      vertex -28.8892 35.3785 15
      vertex -29.4354 35.2624 2
      vertex -28.8892 35.3785 2
    endloop
  endfacet
  facet normal 0 -1 0
    outer loop
      vertex -27.7792 35.4951 2
      vertex 27.7792 35.4951 15
      vertex -27.7792 35.4951 15
    endloop
  endfacet
  facet normal 0 -1 -0
    outer loop
      vertex 27.7792 35.4951 15
      vertex -27.7792 35.4951 2
      vertex 27.7792 35.4951 2
    endloop
  endfacet
  facet normal -0.951056 -0.309019 0
    outer loop
      vertex 35.1901 29.7051 2
      vertex 35.0175 30.2362 15
      vertex 35.0175 30.2362 2
    endloop
  endfacet
  facet normal -0.951056 -0.309019 0
    outer loop
      vertex 35.0175 30.2362 15
      vertex 35.1901 29.7051 2
      vertex 35.1901 29.7051 15
    endloop
  endfacet
  facet normal -0.78801 -0.615663 0
    outer loop
      vertex 33.9721 32.2023 2
      vertex 33.6284 32.6423 15
      vertex 33.6284 32.6423 2
    endloop
  endfacet
  facet normal -0.78801 -0.615663 0
    outer loop
      vertex 33.6284 32.6423 15
      vertex 33.9721 32.2023 2
      vertex 33.9721 32.2023 15
    endloop
  endfacet
  facet normal -0.529919 -0.848048 0
    outer loop
      vertex 31.5 34.4282 2
      vertex 31.9735 34.1323 15
      vertex 31.5 34.4282 15
    endloop
  endfacet
  facet normal -0.529919 -0.848048 -0
    outer loop
      vertex 31.9735 34.1323 15
      vertex 31.5 34.4282 2
      vertex 31.9735 34.1323 2
    endloop
  endfacet
  facet normal -0.275634 -0.961263 0
    outer loop
      vertex 29.4354 35.2624 2
      vertex 29.9721 35.1085 15
      vertex 29.4354 35.2624 15
    endloop
  endfacet
  facet normal -0.275634 -0.961263 -0
    outer loop
      vertex 29.9721 35.1085 15
      vertex 29.4354 35.2624 2
      vertex 29.9721 35.1085 2
    endloop
  endfacet
  facet normal -0.58779 0.809014 0
    outer loop
      vertex 32.4253 -33.8041 2
      vertex 31.9735 -34.1323 15
      vertex 32.4253 -33.8041 15
    endloop
  endfacet
  facet normal -0.58779 0.809014 0
    outer loop
      vertex 31.9735 -34.1323 15
      vertex 32.4253 -33.8041 2
      vertex 31.9735 -34.1323 2
    endloop
  endfacet
  facet normal -0.0697504 0.997564 0
    outer loop
      vertex 28.3362 -35.4562 2
      vertex 27.7792 -35.4951 15
      vertex 28.3362 -35.4562 15
    endloop
  endfacet
  facet normal -0.0697504 0.997564 0
    outer loop
      vertex 27.7792 -35.4951 15
      vertex 28.3362 -35.4562 2
      vertex 27.7792 -35.4951 2
    endloop
  endfacet
  facet normal -0.469471 0.882948 0
    outer loop
      vertex 31.5 -34.4282 2
      vertex 31.007 -34.6904 15
      vertex 31.5 -34.4282 15
    endloop
  endfacet
  facet normal -0.469471 0.882948 0
    outer loop
      vertex 31.007 -34.6904 15
      vertex 31.5 -34.4282 2
      vertex 31.007 -34.6904 2
    endloop
  endfacet
  facet normal -0.27564 0.961261 0
    outer loop
      vertex 29.9721 -35.1085 2
      vertex 29.4354 -35.2624 15
      vertex 29.9721 -35.1085 15
    endloop
  endfacet
  facet normal -0.27564 0.961261 0
    outer loop
      vertex 29.4354 -35.2624 15
      vertex 29.9721 -35.1085 2
      vertex 29.4354 -35.2624 2
    endloop
  endfacet
  facet normal -0.694658 0.71934 0
    outer loop
      vertex 33.2547 -33.0573 2
      vertex 32.853 -33.4452 15
      vertex 33.2547 -33.0573 15
    endloop
  endfacet
  facet normal -0.694658 0.71934 0
    outer loop
      vertex 32.853 -33.4452 15
      vertex 33.2547 -33.0573 2
      vertex 32.853 -33.4452 2
    endloop
  endfacet
  facet normal -0.927183 0.374609 0
    outer loop
      vertex 34.8084 -30.7539 2
      vertex 35.0175 -30.2362 15
      vertex 35.0175 -30.2362 2
    endloop
  endfacet
  facet normal -0.927183 0.374609 0
    outer loop
      vertex 35.0175 -30.2362 15
      vertex 34.8084 -30.7539 2
      vertex 34.8084 -30.7539 15
    endloop
  endfacet
  facet normal -0.970296 0.24192 0
    outer loop
      vertex 35.1901 -29.7051 2
      vertex 35.3252 -29.1633 15
      vertex 35.3252 -29.1633 2
    endloop
  endfacet
  facet normal -0.970296 0.24192 0
    outer loop
      vertex 35.3252 -29.1633 15
      vertex 35.1901 -29.7051 2
      vertex 35.1901 -29.7051 15
    endloop
  endfacet
  facet normal -0.984808 0.173645 0
    outer loop
      vertex 35.3252 -29.1633 2
      vertex 35.4221 -28.6134 15
      vertex 35.4221 -28.6134 2
    endloop
  endfacet
  facet normal -0.984808 0.173645 0
    outer loop
      vertex 35.4221 -28.6134 15
      vertex 35.3252 -29.1633 2
      vertex 35.3252 -29.1633 15
    endloop
  endfacet
  facet normal 0.951056 -0.30902 0
    outer loop
      vertex -35.1901 29.7051 15
      vertex -35.0175 30.2362 2
      vertex -35.0175 30.2362 15
    endloop
  endfacet
  facet normal 0.951056 -0.30902 0
    outer loop
      vertex -35.0175 30.2362 2
      vertex -35.1901 29.7051 15
      vertex -35.1901 29.7051 2
    endloop
  endfacet
  facet normal 0.898795 -0.43837 0
    outer loop
      vertex -34.8084 30.7539 15
      vertex -34.5636 31.2558 2
      vertex -34.5636 31.2558 15
    endloop
  endfacet
  facet normal 0.898795 -0.43837 0
    outer loop
      vertex -34.5636 31.2558 2
      vertex -34.8084 30.7539 15
      vertex -34.8084 30.7539 2
    endloop
  endfacet
  facet normal 0.927183 -0.374609 0
    outer loop
      vertex -35.0175 30.2362 15
      vertex -34.8084 30.7539 2
      vertex -34.8084 30.7539 15
    endloop
  endfacet
  facet normal 0.927183 -0.374609 0
    outer loop
      vertex -34.8084 30.7539 2
      vertex -35.0175 30.2362 15
      vertex -35.0175 30.2362 2
    endloop
  endfacet
  facet normal 0.994522 -0.10453 0
    outer loop
      vertex -35.4805 28.0581 15
      vertex -35.4221 28.6134 2
      vertex -35.4221 28.6134 15
    endloop
  endfacet
  facet normal 0.994522 -0.10453 0
    outer loop
      vertex -35.4221 28.6134 2
      vertex -35.4805 28.0581 15
      vertex -35.4805 28.0581 2
    endloop
  endfacet
  facet normal 0.970296 -0.24192 0
    outer loop
      vertex -35.3252 29.1633 15
      vertex -35.1901 29.7051 2
      vertex -35.1901 29.7051 15
    endloop
  endfacet
  facet normal 0.970296 -0.24192 0
    outer loop
      vertex -35.1901 29.7051 2
      vertex -35.3252 29.1633 15
      vertex -35.3252 29.1633 2
    endloop
  endfacet
  facet normal 0.984808 -0.173645 0
    outer loop
      vertex -35.4221 28.6134 15
      vertex -35.3252 29.1633 2
      vertex -35.3252 29.1633 15
    endloop
  endfacet
  facet normal 0.984808 -0.173645 0
    outer loop
      vertex -35.3252 29.1633 2
      vertex -35.4221 28.6134 15
      vertex -35.4221 28.6134 2
    endloop
  endfacet
  facet normal 0.829035 -0.559196 0
    outer loop
      vertex -34.2844 31.7394 15
      vertex -33.9721 32.2023 2
      vertex -33.9721 32.2023 15
    endloop
  endfacet
  facet normal 0.829035 -0.559196 0
    outer loop
      vertex -33.9721 32.2023 2
      vertex -34.2844 31.7394 15
      vertex -34.2844 31.7394 2
    endloop
  endfacet
  facet normal 0.469471 -0.882948 0
    outer loop
      vertex -31.5 34.4282 2
      vertex -31.007 34.6904 15
      vertex -31.5 34.4282 15
    endloop
  endfacet
  facet normal 0.469471 -0.882948 0
    outer loop
      vertex -31.007 34.6904 15
      vertex -31.5 34.4282 2
      vertex -31.007 34.6904 2
    endloop
  endfacet
  facet normal 0.0697504 -0.997564 0
    outer loop
      vertex -28.3362 35.4562 2
      vertex -27.7792 35.4951 15
      vertex -28.3362 35.4562 15
    endloop
  endfacet
  facet normal 0.0697504 -0.997564 0
    outer loop
      vertex -27.7792 35.4951 15
      vertex -28.3362 35.4562 2
      vertex -27.7792 35.4951 2
    endloop
  endfacet
  facet normal 0.529919 -0.848048 0
    outer loop
      vertex -31.9735 34.1323 2
      vertex -31.5 34.4282 15
      vertex -31.9735 34.1323 15
    endloop
  endfacet
  facet normal 0.529919 -0.848048 0
    outer loop
      vertex -31.5 34.4282 15
      vertex -31.9735 34.1323 2
      vertex -31.5 34.4282 2
    endloop
  endfacet
  facet normal 0.139173 -0.990268 0
    outer loop
      vertex -28.8892 35.3785 2
      vertex -28.3362 35.4562 15
      vertex -28.8892 35.3785 15
    endloop
  endfacet
  facet normal 0.139173 -0.990268 0
    outer loop
      vertex -28.3362 35.4562 15
      vertex -28.8892 35.3785 2
      vertex -28.3362 35.4562 2
    endloop
  endfacet
  facet normal -0.866027 -0.499997 0
    outer loop
      vertex 34.5636 31.2558 2
      vertex 34.2844 31.7394 15
      vertex 34.2844 31.7394 2
    endloop
  endfacet
  facet normal -0.866027 -0.499997 0
    outer loop
      vertex 34.2844 31.7394 15
      vertex 34.5636 31.2558 2
      vertex 34.5636 31.2558 15
    endloop
  endfacet
  facet normal -0.829039 -0.559191 0
    outer loop
      vertex 34.2844 31.7394 2
      vertex 33.9721 32.2023 15
      vertex 33.9721 32.2023 2
    endloop
  endfacet
  facet normal -0.829039 -0.559191 0
    outer loop
      vertex 33.9721 32.2023 15
      vertex 34.2844 31.7394 2
      vertex 34.2844 31.7394 15
    endloop
  endfacet
  facet normal -0.999391 -0.0349026 0
    outer loop
      vertex 35.5 27.5 2
      vertex 35.4805 28.0581 15
      vertex 35.4805 28.0581 2
    endloop
  endfacet
  facet normal -0.999391 -0.0349026 0
    outer loop
      vertex 35.4805 28.0581 15
      vertex 35.5 27.5 2
      vertex 35.5 27.5 15
    endloop
  endfacet
  facet normal 0 0 1
    outer loop
      vertex 27.7792 35.4951 2
      vertex 35.5 27.5 2
      vertex 35.4805 28.0581 2
    endloop
  endfacet
  facet normal 0 0 1
    outer loop
      vertex 35.5 27.5 2
      vertex -18.2797 -35.4929 2
      vertex 35.5 -27.5 2
    endloop
  endfacet
  facet normal 0 0 1
    outer loop
      vertex 27.7792 35.4951 2
      vertex 35.4805 28.0581 2
      vertex 35.4221 28.6134 2
    endloop
  endfacet
  facet normal 0 -0 1
    outer loop
      vertex 27.7792 -35.4951 2
      vertex 35.5 -27.5 2
      vertex -18.2797 -35.4929 2
    endloop
  endfacet
  facet normal 0 0 1
    outer loop
      vertex 27.7792 35.4951 2
      vertex 35.4221 28.6134 2
      vertex 35.3252 29.1633 2
    endloop
  endfacet
  facet normal 0 0 1
    outer loop
      vertex -35.4929 -18.2797 2
      vertex 35.5 27.5 2
      vertex 27.7792 35.4951 2
    endloop
  endfacet
  facet normal 0 0 1
    outer loop
      vertex 27.7792 35.4951 2
      vertex 35.3252 29.1633 2
      vertex 35.1901 29.7051 2
    endloop
  endfacet
  facet normal 0 0 1
    outer loop
      vertex 35.5 -27.5 2
      vertex 27.7792 -35.4951 2
      vertex 35.4805 -28.0581 2
    endloop
  endfacet
  facet normal 0 0 1
    outer loop
      vertex 27.7792 35.4951 2
      vertex 35.1901 29.7051 2
      vertex 35.0175 30.2362 2
    endloop
  endfacet
  facet normal 0 0 1
    outer loop
      vertex 35.4221 -28.6134 2
      vertex 27.7792 -35.4951 2
      vertex 35.3252 -29.1633 2
    endloop
  endfacet
  facet normal 0 0 1
    outer loop
      vertex 27.7792 35.4951 2
      vertex 35.0175 30.2362 2
      vertex 34.8084 30.7539 2
    endloop
  endfacet
  facet normal 0 0 1
    outer loop
      vertex 35.3252 -29.1633 2
      vertex 27.7792 -35.4951 2
      vertex 35.1901 -29.7051 2
    endloop
  endfacet
  facet normal 0 0 1
    outer loop
      vertex 27.7792 35.4951 2
      vertex 34.8084 30.7539 2
      vertex 34.5636 31.2558 2
    endloop
  endfacet
  facet normal 0 0 1
    outer loop
      vertex 35.1901 -29.7051 2
      vertex 27.7792 -35.4951 2
      vertex 35.0175 -30.2362 2
    endloop
  endfacet
  facet normal 0 0 1
    outer loop
      vertex 27.7792 35.4951 2
      vertex 34.5636 31.2558 2
      vertex 34.2844 31.7394 2
    endloop
  endfacet
  facet normal 0 0 1
    outer loop
      vertex 35.0175 -30.2362 2
      vertex 27.7792 -35.4951 2
      vertex 34.8084 -30.7539 2
    endloop
  endfacet
  facet normal 0 0 1
    outer loop
      vertex 27.7792 35.4951 2
      vertex 34.2844 31.7394 2
      vertex 33.9721 32.2023 2
    endloop
  endfacet
  facet normal 0 0 1
    outer loop
      vertex 34.8084 -30.7539 2
      vertex 27.7792 -35.4951 2
      vertex 34.5636 -31.2558 2
    endloop
  endfacet
  facet normal 0 0 1
    outer loop
      vertex 27.7792 35.4951 2
      vertex 33.9721 32.2023 2
      vertex 33.6284 32.6423 2
    endloop
  endfacet
  facet normal 0 0 1
    outer loop
      vertex 34.5636 -31.2558 2
      vertex 27.7792 -35.4951 2
      vertex 34.2844 -31.7394 2
    endloop
  endfacet
  facet normal 0 0 1
    outer loop
      vertex 27.7792 35.4951 2
      vertex 33.6284 32.6423 2
      vertex 33.2547 33.0573 2
    endloop
  endfacet
  facet normal 0 0 1
    outer loop
      vertex 34.2844 -31.7394 2
      vertex 27.7792 -35.4951 2
      vertex 33.9721 -32.2023 2
    endloop
  endfacet
  facet normal 0 0 1
    outer loop
      vertex 27.7792 35.4951 2
      vertex 33.2547 33.0573 2
      vertex 32.853 33.4452 2
    endloop
  endfacet
  facet normal 0 0 1
    outer loop
      vertex 33.9721 -32.2023 2
      vertex 27.7792 -35.4951 2
      vertex 33.6284 -32.6423 2
    endloop
  endfacet
  facet normal 0 0 1
    outer loop
      vertex 27.7792 35.4951 2
      vertex 32.853 33.4452 2
      vertex 32.4253 33.8041 2
    endloop
  endfacet
  facet normal 0 0 1
    outer loop
      vertex 33.6284 -32.6423 2
      vertex 27.7792 -35.4951 2
      vertex 33.2547 -33.0573 2
    endloop
  endfacet
  facet normal 0 0 1
    outer loop
      vertex 27.7792 35.4951 2
      vertex 32.4253 33.8041 2
      vertex 31.9735 34.1323 2
    endloop
  endfacet
  facet normal 0 0 1
    outer loop
      vertex 33.2547 -33.0573 2
      vertex 27.7792 -35.4951 2
      vertex 32.853 -33.4452 2
    endloop
  endfacet
  facet normal 0 0 1
    outer loop
      vertex 27.7792 35.4951 2
      vertex 31.9735 34.1323 2
      vertex 31.5 34.4282 2
    endloop
  endfacet
  facet normal 0 0 1
    outer loop
      vertex 32.853 -33.4452 2
      vertex 27.7792 -35.4951 2
      vertex 32.4253 -33.8041 2
    endloop
  endfacet
  facet normal 0 0 1
    outer loop
      vertex 27.7792 35.4951 2
      vertex 31.5 34.4282 2
      vertex 31.007 34.6903 2
    endloop
  endfacet
  facet normal 0 0 1
    outer loop
      vertex 32.4253 -33.8041 2
      vertex 27.7792 -35.4951 2
      vertex 31.9735 -34.1323 2
    endloop
  endfacet
  facet normal 0 0 1
    outer loop
      vertex 27.7792 35.4951 2
      vertex 31.007 34.6903 2
      vertex 30.4969 34.9175 2
    endloop
  endfacet
  facet normal 0 0 1
    outer loop
      vertex 31.9735 -34.1323 2
      vertex 27.7792 -35.4951 2
      vertex 31.5 -34.4282 2
    endloop
  endfacet
  facet normal 0 0 1
    outer loop
      vertex 27.7792 35.4951 2
      vertex 30.4969 34.9175 2
      vertex 29.9721 35.1085 2
    endloop
  endfacet
  facet normal 0 0 1
    outer loop
      vertex 31.5 -34.4282 2
      vertex 27.7792 -35.4951 2
      vertex 31.007 -34.6904 2
    endloop
  endfacet
  facet normal 0 0 1
    outer loop
      vertex 27.7792 35.4951 2
      vertex 29.9721 35.1085 2
      vertex 29.4354 35.2624 2
    endloop
  endfacet
  facet normal 0 0 1
    outer loop
      vertex 31.007 -34.6904 2
      vertex 27.7792 -35.4951 2
      vertex 30.4969 -34.9175 2
    endloop
  endfacet
  facet normal 0 0 1
    outer loop
      vertex 27.7792 35.4951 2
      vertex 29.4354 35.2624 2
      vertex 28.8892 35.3785 2
    endloop
  endfacet
  facet normal 0 0 1
    outer loop
      vertex 30.4969 -34.9175 2
      vertex 27.7792 -35.4951 2
      vertex 29.9721 -35.1085 2
    endloop
  endfacet
  facet normal 0 0 1
    outer loop
      vertex 27.7792 35.4951 2
      vertex 28.8892 35.3785 2
      vertex 28.3362 35.4562 2
    endloop
  endfacet
  facet normal 0 0 1
    outer loop
      vertex 29.9721 -35.1085 2
      vertex 27.7792 -35.4951 2
      vertex 29.4354 -35.2624 2
    endloop
  endfacet
  facet normal 0 0 1
    outer loop
      vertex 29.4354 -35.2624 2
      vertex 27.7792 -35.4951 2
      vertex 28.8892 -35.3785 2
    endloop
  endfacet
  facet normal 0 0 1
    outer loop
      vertex 28.8892 -35.3785 2
      vertex 27.7792 -35.4951 2
      vertex 28.3362 -35.4562 2
    endloop
  endfacet
  facet normal 0 0 1
    outer loop
      vertex 35.4805 -28.0581 2
      vertex 27.7792 -35.4951 2
      vertex 35.4221 -28.6134 2
    endloop
  endfacet
  facet normal 0 0 1
    outer loop
      vertex -35.4929 -18.2797 2
      vertex 27.7792 35.4951 2
      vertex -27.7792 35.4951 2
    endloop
  endfacet
  facet normal 0 0 1
    outer loop
      vertex -35.5 27.5 2
      vertex -27.7792 35.4951 2
      vertex -28.3362 35.4562 2
    endloop
  endfacet
  facet normal 0 0 1
    outer loop
      vertex -35.5 27.5 2
      vertex -28.3362 35.4562 2
      vertex -28.8892 35.3785 2
    endloop
  endfacet
  facet normal 0 0 1
    outer loop
      vertex -35.5 27.5 2
      vertex -28.8892 35.3785 2
      vertex -29.4354 35.2624 2
    endloop
  endfacet
  facet normal 0 0 1
    outer loop
      vertex -35.5 27.5 2
      vertex -29.4354 35.2624 2
      vertex -29.9721 35.1085 2
    endloop
  endfacet
  facet normal 0 0 1
    outer loop
      vertex -35.5 27.5 2
      vertex -29.9721 35.1085 2
      vertex -30.4969 34.9175 2
    endloop
  endfacet
  facet normal 0 0 1
    outer loop
      vertex -35.5 27.5 2
      vertex -30.4969 34.9175 2
      vertex -31.007 34.6904 2
    endloop
  endfacet
  facet normal 0 0 1
    outer loop
      vertex -35.5 27.5 2
      vertex -31.007 34.6904 2
      vertex -31.5 34.4282 2
    endloop
  endfacet
  facet normal 0 0 1
    outer loop
      vertex -35.5 27.5 2
      vertex -31.5 34.4282 2
      vertex -31.9735 34.1323 2
    endloop
  endfacet
  facet normal 0 0 1
    outer loop
      vertex -35.5 27.5 2
      vertex -31.9735 34.1323 2
      vertex -32.4253 33.8041 2
    endloop
  endfacet
  facet normal 0 0 1
    outer loop
      vertex -35.5 27.5 2
      vertex -32.4253 33.8041 2
      vertex -32.853 33.4452 2
    endloop
  endfacet
  facet normal 0 0 1
    outer loop
      vertex -35.5 27.5 2
      vertex -32.853 33.4452 2
      vertex -33.2547 33.0573 2
    endloop
  endfacet
  facet normal 0 0 1
    outer loop
      vertex -35.5 27.5 2
      vertex -33.2547 33.0573 2
      vertex -33.6284 32.6423 2
    endloop
  endfacet
  facet normal 0 0 1
    outer loop
      vertex -35.5 27.5 2
      vertex -33.6284 32.6423 2
      vertex -33.9721 32.2023 2
    endloop
  endfacet
  facet normal 0 0 1
    outer loop
      vertex -35.5 27.5 2
      vertex -33.9721 32.2023 2
      vertex -34.2844 31.7394 2
    endloop
  endfacet
  facet normal 0 0 1
    outer loop
      vertex -35.5 27.5 2
      vertex -34.2844 31.7394 2
      vertex -34.5636 31.2558 2
    endloop
  endfacet
  facet normal 0 0 1
    outer loop
      vertex -35.5 27.5 2
      vertex -34.5636 31.2558 2
      vertex -34.8084 30.7539 2
    endloop
  endfacet
  facet normal 0 0 1
    outer loop
      vertex -35.5 27.5 2
      vertex -34.8084 30.7539 2
      vertex -35.0175 30.2362 2
    endloop
  endfacet
  facet normal 0 0 1
    outer loop
      vertex -35.5 27.5 2
      vertex -35.0175 30.2362 2
      vertex -35.1901 29.7051 2
    endloop
  endfacet
  facet normal 0 0 1
    outer loop
      vertex -35.5 27.5 2
      vertex -35.1901 29.7051 2
      vertex -35.3252 29.1633 2
    endloop
  endfacet
  facet normal 0 0 1
    outer loop
      vertex -35.5 27.5 2
      vertex -35.3252 29.1633 2
      vertex -35.4221 28.6134 2
    endloop
  endfacet
  facet normal 0 0 1
    outer loop
      vertex -35.5 27.5 2
      vertex -35.4221 28.6134 2
      vertex -35.4805 28.0581 2
    endloop
  endfacet
  facet normal 0 0 1
    outer loop
      vertex -27.7792 35.4951 2
      vertex -35.5 27.5 2
      vertex -35.4929 -18.2797 2
    endloop
  endfacet
  facet normal 0 0 1
    outer loop
      vertex 35.5 27.5 2
      vertex -35.4929 -18.2797 2
      vertex -18.2797 -35.4929 2
    endloop
  endfacet
  facet normal 0 0 1
    outer loop
      vertex -35.4929 -18.2797 2
      vertex -35.5 27.5 2
      vertex -35.5 -18.2868 2
    endloop
  endfacet
  facet normal 0 0 1
    outer loop
      vertex 27.7792 -35.4951 2
      vertex -18.2797 -35.4929 2
      vertex -18.2819 -35.4951 2
    endloop
  endfacet
  facet normal -0.743144 -0.669131 0
    outer loop
      vertex 33.6284 32.6423 2
      vertex 33.2547 33.0573 15
      vertex 33.2547 33.0573 2
    endloop
  endfacet
  facet normal -0.743144 -0.669131 0
    outer loop
      vertex 33.2547 33.0573 15
      vertex 33.6284 32.6423 2
      vertex 33.6284 32.6423 15
    endloop
  endfacet
  facet normal -0.469467 -0.88295 0
    outer loop
      vertex 31.007 34.6903 2
      vertex 31.5 34.4282 15
      vertex 31.007 34.6903 15
    endloop
  endfacet
  facet normal -0.469467 -0.88295 -0
    outer loop
      vertex 31.5 34.4282 15
      vertex 31.007 34.6903 2
      vertex 31.5 34.4282 2
    endloop
  endfacet
  facet normal -0.529919 0.848048 0
    outer loop
      vertex 31.9735 -34.1323 2
      vertex 31.5 -34.4282 15
      vertex 31.9735 -34.1323 15
    endloop
  endfacet
  facet normal -0.529919 0.848048 0
    outer loop
      vertex 31.5 -34.4282 15
      vertex 31.9735 -34.1323 2
      vertex 31.5 -34.4282 2
    endloop
  endfacet
  facet normal -0.406732 0.913547 0
    outer loop
      vertex 31.007 -34.6904 2
      vertex 30.4969 -34.9175 15
      vertex 31.007 -34.6904 15
    endloop
  endfacet
  facet normal -0.406732 0.913547 0
    outer loop
      vertex 30.4969 -34.9175 15
      vertex 31.007 -34.6904 2
      vertex 30.4969 -34.9175 2
    endloop
  endfacet
  facet normal -0.829035 0.559196 0
    outer loop
      vertex 33.9721 -32.2023 2
      vertex 34.2844 -31.7394 15
      vertex 34.2844 -31.7394 2
    endloop
  endfacet
  facet normal -0.829035 0.559196 0
    outer loop
      vertex 34.2844 -31.7394 15
      vertex 33.9721 -32.2023 2
      vertex 33.9721 -32.2023 15
    endloop
  endfacet
  facet normal 0.743148 -0.669127 0
    outer loop
      vertex -33.6284 32.6423 15
      vertex -33.2547 33.0573 2
      vertex -33.2547 33.0573 15
    endloop
  endfacet
  facet normal 0.743148 -0.669127 0
    outer loop
      vertex -33.2547 33.0573 2
      vertex -33.6284 32.6423 15
      vertex -33.6284 32.6423 2
    endloop
  endfacet
  facet normal 0.342023 -0.939691 0
    outer loop
      vertex -30.4969 34.9175 2
      vertex -29.9721 35.1085 15
      vertex -30.4969 34.9175 15
    endloop
  endfacet
  facet normal 0.342023 -0.939691 0
    outer loop
      vertex -29.9721 35.1085 15
      vertex -30.4969 34.9175 2
      vertex -29.9721 35.1085 2
    endloop
  endfacet
  facet normal 0.406732 -0.913547 0
    outer loop
      vertex -31.007 34.6904 2
      vertex -30.4969 34.9175 15
      vertex -31.007 34.6904 15
    endloop
  endfacet
  facet normal 0.406732 -0.913547 0
    outer loop
      vertex -30.4969 34.9175 15
      vertex -31.007 34.6904 2
      vertex -30.4969 34.9175 2
    endloop
  endfacet
  facet normal 0.27564 -0.961261 0
    outer loop
      vertex -29.9721 35.1085 2
      vertex -29.4354 35.2624 15
      vertex -29.9721 35.1085 15
    endloop
  endfacet
  facet normal 0.27564 -0.961261 0
    outer loop
      vertex -29.4354 35.2624 15
      vertex -29.9721 35.1085 2
      vertex -29.4354 35.2624 2
    endloop
  endfacet
  facet normal -0.927185 -0.374603 0
    outer loop
      vertex 35.0175 30.2362 2
      vertex 34.8084 30.7539 15
      vertex 34.8084 30.7539 2
    endloop
  endfacet
  facet normal -0.927185 -0.374603 0
    outer loop
      vertex 34.8084 30.7539 15
      vertex 35.0175 30.2362 2
      vertex 35.0175 30.2362 15
    endloop
  endfacet
  facet normal -0.898792 -0.438375 0
    outer loop
      vertex 34.8084 30.7539 2
      vertex 34.5636 31.2558 15
      vertex 34.5636 31.2558 2
    endloop
  endfacet
  facet normal -0.898792 -0.438375 0
    outer loop
      vertex 34.5636 31.2558 15
      vertex 34.8084 30.7539 2
      vertex 34.8084 30.7539 15
    endloop
  endfacet
  facet normal -0.984808 -0.173645 0
    outer loop
      vertex 35.4221 28.6134 2
      vertex 35.3252 29.1633 15
      vertex 35.3252 29.1633 2
    endloop
  endfacet
  facet normal -0.984808 -0.173645 0
    outer loop
      vertex 35.3252 29.1633 15
      vertex 35.4221 28.6134 2
      vertex 35.4221 28.6134 15
    endloop
  endfacet
  facet normal -0.994522 -0.10453 0
    outer loop
      vertex 35.4805 28.0581 2
      vertex 35.4221 28.6134 15
      vertex 35.4221 28.6134 2
    endloop
  endfacet
  facet normal -0.994522 -0.10453 0
    outer loop
      vertex 35.4221 28.6134 15
      vertex 35.4805 28.0581 2
      vertex 35.4805 28.0581 15
    endloop
  endfacet
  facet normal -0.642792 -0.766041 0
    outer loop
      vertex 32.4253 33.8041 2
      vertex 32.853 33.4452 15
      vertex 32.4253 33.8041 15
    endloop
  endfacet
  facet normal -0.642792 -0.766041 -0
    outer loop
      vertex 32.853 33.4452 15
      vertex 32.4253 33.8041 2
      vertex 32.853 33.4452 2
    endloop
  endfacet
  facet normal -0.694654 -0.719344 0
    outer loop
      vertex 32.853 33.4452 2
      vertex 33.2547 33.0573 15
      vertex 32.853 33.4452 15
    endloop
  endfacet
  facet normal -0.694654 -0.719344 -0
    outer loop
      vertex 33.2547 33.0573 15
      vertex 32.853 33.4452 2
      vertex 33.2547 33.0573 2
    endloop
  endfacet
  facet normal -0.406738 -0.913545 0
    outer loop
      vertex 30.4969 34.9175 2
      vertex 31.007 34.6903 15
      vertex 30.4969 34.9175 15
    endloop
  endfacet
  facet normal -0.406738 -0.913545 -0
    outer loop
      vertex 31.007 34.6903 15
      vertex 30.4969 34.9175 2
      vertex 31.007 34.6903 2
    endloop
  endfacet
  facet normal -0.139173 -0.990268 0
    outer loop
      vertex 28.3362 35.4562 2
      vertex 28.8892 35.3785 15
      vertex 28.3362 35.4562 15
    endloop
  endfacet
  facet normal -0.139173 -0.990268 -0
    outer loop
      vertex 28.8892 35.3785 15
      vertex 28.3362 35.4562 2
      vertex 28.8892 35.3785 2
    endloop
  endfacet
  facet normal -0.342023 0.939691 0
    outer loop
      vertex 30.4969 -34.9175 2
      vertex 29.9721 -35.1085 15
      vertex 30.4969 -34.9175 15
    endloop
  endfacet
  facet normal -0.342023 0.939691 0
    outer loop
      vertex 29.9721 -35.1085 15
      vertex 30.4969 -34.9175 2
      vertex 29.9721 -35.1085 2
    endloop
  endfacet
  facet normal -0.970296 -0.24192 0
    outer loop
      vertex 35.3252 29.1633 2
      vertex 35.1901 29.7051 15
      vertex 35.1901 29.7051 2
    endloop
  endfacet
  facet normal -0.970296 -0.24192 0
    outer loop
      vertex 35.1901 29.7051 15
      vertex 35.3252 29.1633 2
      vertex 35.3252 29.1633 15
    endloop
  endfacet
  facet normal -0.587787 -0.809016 0
    outer loop
      vertex 31.9735 34.1323 2
      vertex 32.4253 33.8041 15
      vertex 31.9735 34.1323 15
    endloop
  endfacet
  facet normal -0.587787 -0.809016 -0
    outer loop
      vertex 32.4253 33.8041 15
      vertex 31.9735 34.1323 2
      vertex 32.4253 33.8041 2
    endloop
  endfacet
  facet normal -0.342022 -0.939692 0
    outer loop
      vertex 29.9721 35.1085 2
      vertex 30.4969 34.9175 15
      vertex 29.9721 35.1085 15
    endloop
  endfacet
  facet normal -0.342022 -0.939692 -0
    outer loop
      vertex 30.4969 34.9175 15
      vertex 29.9721 35.1085 2
      vertex 30.4969 34.9175 2
    endloop
  endfacet
  facet normal -0.207912 -0.978148 0
    outer loop
      vertex 28.8892 35.3785 2
      vertex 29.4354 35.2624 15
      vertex 28.8892 35.3785 15
    endloop
  endfacet
  facet normal -0.207912 -0.978148 -0
    outer loop
      vertex 29.4354 35.2624 15
      vertex 28.8892 35.3785 2
      vertex 29.4354 35.2624 2
    endloop
  endfacet
  facet normal -0.203186 -0.203186 0.957826
    outer loop
      vertex -44.5664 -30.4195 10.503
      vertex -41.8693 -29.5589 11.2577
      vertex -43.3809 -28.0473 11.2577
    endloop
  endfacet
  facet normal -0.203186 -0.203186 0.957826
    outer loop
      vertex -41.8693 -29.5589 11.2577
      vertex -44.5664 -30.4195 10.503
      vertex -43.1537 -31.8321 10.503
    endloop
  endfacet
  facet normal -0.203186 -0.203186 0.957826
    outer loop
      vertex -29.5589 -41.8693 11.2577
      vertex -30.4195 -44.5664 10.503
      vertex -28.0473 -43.3809 11.2577
    endloop
  endfacet
  facet normal -0.203186 -0.203186 0.957826
    outer loop
      vertex -30.4195 -44.5664 10.503
      vertex -29.5589 -41.8693 11.2577
      vertex -31.8321 -43.1537 10.503
    endloop
  endfacet
  facet normal -0.203182 -0.203182 0.957828
    outer loop
      vertex -16.2929 -37.4939 15
      vertex -18.2868 -35.5 15
      vertex -16.2939 -37.5071 14.997
    endloop
  endfacet
  facet normal -0.203186 -0.203186 0.957826
    outer loop
      vertex -18.2868 -35.5 15
      vertex -28.0473 -43.3809 11.2577
      vertex -16.2939 -37.5071 14.997
    endloop
  endfacet
  facet normal -0.203186 -0.203186 0.957826
    outer loop
      vertex -28.0473 -43.3809 11.2577
      vertex -18.2868 -35.5 15
      vertex -29.5589 -41.8693 11.2577
    endloop
  endfacet
  facet normal -0.203182 -0.203182 0.957828
    outer loop
      vertex -16.2868 -37.5 15
      vertex -16.2929 -37.4939 15
      vertex -16.2939 -37.5071 14.997
    endloop
  endfacet
  facet normal -0.203106 -0.203106 0.95786
    outer loop
      vertex -37.5071 -16.2939 14.997
      vertex -35.5 -18.2868 15
      vertex -37.5 -16.2868 15
    endloop
  endfacet
  facet normal -0.203185 -0.203186 0.957826
    outer loop
      vertex -43.3809 -28.0473 11.2577
      vertex -35.5 -18.2868 15
      vertex -37.5071 -16.2939 14.997
    endloop
  endfacet
  facet normal -0.203186 -0.203186 0.957826
    outer loop
      vertex -35.5 -18.2868 15
      vertex -43.3809 -28.0473 11.2577
      vertex -41.8693 -29.5589 11.2577
    endloop
  endfacet
endsolid OpenSCAD_Model
