G04 #@! TF.GenerationSoftware,KiCad,Pcbnew,(5.1.6)-1*
G04 #@! TF.CreationDate,2020-07-11T11:36:55-07:00*
G04 #@! TF.ProjectId,stepper_analyzer,73746570-7065-4725-9f61-6e616c797a65,rev?*
G04 #@! TF.SameCoordinates,Original*
G04 #@! TF.FileFunction,Copper,L1,Top*
G04 #@! TF.FilePolarity,Positive*
%FSLAX46Y46*%
G04 Gerber Fmt 4.6, Leading zero omitted, Abs format (unit mm)*
G04 Created by KiCad (PCBNEW (5.1.6)-1) date 2020-07-11 11:36:55*
%MOMM*%
%LPD*%
G01*
G04 APERTURE LIST*
G04 #@! TA.AperFunction,SMDPad,CuDef*
%ADD10C,0.100000*%
G04 #@! TD*
G04 #@! TA.AperFunction,SMDPad,CuDef*
%ADD11R,0.600000X0.200000*%
G04 #@! TD*
G04 #@! TA.AperFunction,SMDPad,CuDef*
%ADD12R,0.800000X1.870000*%
G04 #@! TD*
G04 #@! TA.AperFunction,ComponentPad*
%ADD13O,1.700000X1.700000*%
G04 #@! TD*
G04 #@! TA.AperFunction,ComponentPad*
%ADD14R,1.700000X1.700000*%
G04 #@! TD*
G04 #@! TA.AperFunction,ComponentPad*
%ADD15O,1.740000X2.190000*%
G04 #@! TD*
G04 #@! TA.AperFunction,ComponentPad*
%ADD16C,2.000000*%
G04 #@! TD*
G04 #@! TA.AperFunction,ComponentPad*
%ADD17C,1.905000*%
G04 #@! TD*
G04 #@! TA.AperFunction,ComponentPad*
%ADD18C,6.400000*%
G04 #@! TD*
G04 #@! TA.AperFunction,ComponentPad*
%ADD19O,1.740000X2.200000*%
G04 #@! TD*
G04 #@! TA.AperFunction,ViaPad*
%ADD20C,0.762000*%
G04 #@! TD*
G04 #@! TA.AperFunction,ViaPad*
%ADD21C,1.270000*%
G04 #@! TD*
G04 #@! TA.AperFunction,ViaPad*
%ADD22C,1.016000*%
G04 #@! TD*
G04 #@! TA.AperFunction,Conductor*
%ADD23C,0.152400*%
G04 #@! TD*
G04 #@! TA.AperFunction,Conductor*
%ADD24C,0.304800*%
G04 #@! TD*
G04 #@! TA.AperFunction,Conductor*
%ADD25C,0.762000*%
G04 #@! TD*
G04 #@! TA.AperFunction,Conductor*
%ADD26C,1.016000*%
G04 #@! TD*
G04 #@! TA.AperFunction,Conductor*
%ADD27C,0.508000*%
G04 #@! TD*
G04 APERTURE END LIST*
G04 #@! TA.AperFunction,SMDPad,CuDef*
D10*
G36*
X123560030Y-70335000D02*
G01*
X123760000Y-70135030D01*
X123959970Y-70335000D01*
X123760000Y-70534970D01*
X123560030Y-70335000D01*
G37*
G04 #@! TD.AperFunction*
D11*
X124060000Y-70435000D03*
D12*
X123960000Y-69400000D03*
G04 #@! TA.AperFunction,SMDPad,CuDef*
D10*
G36*
X124960030Y-70335000D02*
G01*
X125160000Y-70135030D01*
X125359970Y-70335000D01*
X125160000Y-70534970D01*
X124960030Y-70335000D01*
G37*
G04 #@! TD.AperFunction*
D11*
X124860000Y-70435000D03*
D12*
X124960000Y-69400000D03*
G04 #@! TA.AperFunction,SMDPad,CuDef*
G36*
G01*
X125135000Y-72125000D02*
X125285000Y-72125000D01*
G75*
G02*
X125360000Y-72200000I0J-75000D01*
G01*
X125360000Y-73700000D01*
G75*
G02*
X125285000Y-73775000I-75000J0D01*
G01*
X125135000Y-73775000D01*
G75*
G02*
X125060000Y-73700000I0J75000D01*
G01*
X125060000Y-72200000D01*
G75*
G02*
X125135000Y-72125000I75000J0D01*
G01*
G37*
G04 #@! TD.AperFunction*
G04 #@! TA.AperFunction,SMDPad,CuDef*
G36*
G01*
X124635000Y-72125000D02*
X124785000Y-72125000D01*
G75*
G02*
X124860000Y-72200000I0J-75000D01*
G01*
X124860000Y-73700000D01*
G75*
G02*
X124785000Y-73775000I-75000J0D01*
G01*
X124635000Y-73775000D01*
G75*
G02*
X124560000Y-73700000I0J75000D01*
G01*
X124560000Y-72200000D01*
G75*
G02*
X124635000Y-72125000I75000J0D01*
G01*
G37*
G04 #@! TD.AperFunction*
G04 #@! TA.AperFunction,SMDPad,CuDef*
G36*
G01*
X124135000Y-72125000D02*
X124285000Y-72125000D01*
G75*
G02*
X124360000Y-72200000I0J-75000D01*
G01*
X124360000Y-73700000D01*
G75*
G02*
X124285000Y-73775000I-75000J0D01*
G01*
X124135000Y-73775000D01*
G75*
G02*
X124060000Y-73700000I0J75000D01*
G01*
X124060000Y-72200000D01*
G75*
G02*
X124135000Y-72125000I75000J0D01*
G01*
G37*
G04 #@! TD.AperFunction*
G04 #@! TA.AperFunction,SMDPad,CuDef*
G36*
G01*
X123635000Y-72125000D02*
X123785000Y-72125000D01*
G75*
G02*
X123860000Y-72200000I0J-75000D01*
G01*
X123860000Y-73700000D01*
G75*
G02*
X123785000Y-73775000I-75000J0D01*
G01*
X123635000Y-73775000D01*
G75*
G02*
X123560000Y-73700000I0J75000D01*
G01*
X123560000Y-72200000D01*
G75*
G02*
X123635000Y-72125000I75000J0D01*
G01*
G37*
G04 #@! TD.AperFunction*
G04 #@! TA.AperFunction,SMDPad,CuDef*
G36*
G01*
X121860000Y-71700000D02*
X123360000Y-71700000D01*
G75*
G02*
X123435000Y-71775000I0J-75000D01*
G01*
X123435000Y-71925000D01*
G75*
G02*
X123360000Y-72000000I-75000J0D01*
G01*
X121860000Y-72000000D01*
G75*
G02*
X121785000Y-71925000I0J75000D01*
G01*
X121785000Y-71775000D01*
G75*
G02*
X121860000Y-71700000I75000J0D01*
G01*
G37*
G04 #@! TD.AperFunction*
G04 #@! TA.AperFunction,SMDPad,CuDef*
G36*
G01*
X121860000Y-71200000D02*
X123360000Y-71200000D01*
G75*
G02*
X123435000Y-71275000I0J-75000D01*
G01*
X123435000Y-71425000D01*
G75*
G02*
X123360000Y-71500000I-75000J0D01*
G01*
X121860000Y-71500000D01*
G75*
G02*
X121785000Y-71425000I0J75000D01*
G01*
X121785000Y-71275000D01*
G75*
G02*
X121860000Y-71200000I75000J0D01*
G01*
G37*
G04 #@! TD.AperFunction*
G04 #@! TA.AperFunction,SMDPad,CuDef*
G36*
G01*
X125560000Y-71700000D02*
X127060000Y-71700000D01*
G75*
G02*
X127135000Y-71775000I0J-75000D01*
G01*
X127135000Y-71925000D01*
G75*
G02*
X127060000Y-72000000I-75000J0D01*
G01*
X125560000Y-72000000D01*
G75*
G02*
X125485000Y-71925000I0J75000D01*
G01*
X125485000Y-71775000D01*
G75*
G02*
X125560000Y-71700000I75000J0D01*
G01*
G37*
G04 #@! TD.AperFunction*
G04 #@! TA.AperFunction,SMDPad,CuDef*
G36*
G01*
X125560000Y-71200000D02*
X127060000Y-71200000D01*
G75*
G02*
X127135000Y-71275000I0J-75000D01*
G01*
X127135000Y-71425000D01*
G75*
G02*
X127060000Y-71500000I-75000J0D01*
G01*
X125560000Y-71500000D01*
G75*
G02*
X125485000Y-71425000I0J75000D01*
G01*
X125485000Y-71275000D01*
G75*
G02*
X125560000Y-71200000I75000J0D01*
G01*
G37*
G04 #@! TD.AperFunction*
G04 #@! TA.AperFunction,SMDPad,CuDef*
D10*
G36*
X136260030Y-70335000D02*
G01*
X136460000Y-70135030D01*
X136659970Y-70335000D01*
X136460000Y-70534970D01*
X136260030Y-70335000D01*
G37*
G04 #@! TD.AperFunction*
D11*
X136760000Y-70435000D03*
D12*
X136660000Y-69400000D03*
G04 #@! TA.AperFunction,SMDPad,CuDef*
D10*
G36*
X137660030Y-70335000D02*
G01*
X137860000Y-70135030D01*
X138059970Y-70335000D01*
X137860000Y-70534970D01*
X137660030Y-70335000D01*
G37*
G04 #@! TD.AperFunction*
D11*
X137560000Y-70435000D03*
D12*
X137660000Y-69400000D03*
G04 #@! TA.AperFunction,SMDPad,CuDef*
G36*
G01*
X137835000Y-72125000D02*
X137985000Y-72125000D01*
G75*
G02*
X138060000Y-72200000I0J-75000D01*
G01*
X138060000Y-73700000D01*
G75*
G02*
X137985000Y-73775000I-75000J0D01*
G01*
X137835000Y-73775000D01*
G75*
G02*
X137760000Y-73700000I0J75000D01*
G01*
X137760000Y-72200000D01*
G75*
G02*
X137835000Y-72125000I75000J0D01*
G01*
G37*
G04 #@! TD.AperFunction*
G04 #@! TA.AperFunction,SMDPad,CuDef*
G36*
G01*
X137335000Y-72125000D02*
X137485000Y-72125000D01*
G75*
G02*
X137560000Y-72200000I0J-75000D01*
G01*
X137560000Y-73700000D01*
G75*
G02*
X137485000Y-73775000I-75000J0D01*
G01*
X137335000Y-73775000D01*
G75*
G02*
X137260000Y-73700000I0J75000D01*
G01*
X137260000Y-72200000D01*
G75*
G02*
X137335000Y-72125000I75000J0D01*
G01*
G37*
G04 #@! TD.AperFunction*
G04 #@! TA.AperFunction,SMDPad,CuDef*
G36*
G01*
X136835000Y-72125000D02*
X136985000Y-72125000D01*
G75*
G02*
X137060000Y-72200000I0J-75000D01*
G01*
X137060000Y-73700000D01*
G75*
G02*
X136985000Y-73775000I-75000J0D01*
G01*
X136835000Y-73775000D01*
G75*
G02*
X136760000Y-73700000I0J75000D01*
G01*
X136760000Y-72200000D01*
G75*
G02*
X136835000Y-72125000I75000J0D01*
G01*
G37*
G04 #@! TD.AperFunction*
G04 #@! TA.AperFunction,SMDPad,CuDef*
G36*
G01*
X136335000Y-72125000D02*
X136485000Y-72125000D01*
G75*
G02*
X136560000Y-72200000I0J-75000D01*
G01*
X136560000Y-73700000D01*
G75*
G02*
X136485000Y-73775000I-75000J0D01*
G01*
X136335000Y-73775000D01*
G75*
G02*
X136260000Y-73700000I0J75000D01*
G01*
X136260000Y-72200000D01*
G75*
G02*
X136335000Y-72125000I75000J0D01*
G01*
G37*
G04 #@! TD.AperFunction*
G04 #@! TA.AperFunction,SMDPad,CuDef*
G36*
G01*
X134560000Y-71700000D02*
X136060000Y-71700000D01*
G75*
G02*
X136135000Y-71775000I0J-75000D01*
G01*
X136135000Y-71925000D01*
G75*
G02*
X136060000Y-72000000I-75000J0D01*
G01*
X134560000Y-72000000D01*
G75*
G02*
X134485000Y-71925000I0J75000D01*
G01*
X134485000Y-71775000D01*
G75*
G02*
X134560000Y-71700000I75000J0D01*
G01*
G37*
G04 #@! TD.AperFunction*
G04 #@! TA.AperFunction,SMDPad,CuDef*
G36*
G01*
X134560000Y-71200000D02*
X136060000Y-71200000D01*
G75*
G02*
X136135000Y-71275000I0J-75000D01*
G01*
X136135000Y-71425000D01*
G75*
G02*
X136060000Y-71500000I-75000J0D01*
G01*
X134560000Y-71500000D01*
G75*
G02*
X134485000Y-71425000I0J75000D01*
G01*
X134485000Y-71275000D01*
G75*
G02*
X134560000Y-71200000I75000J0D01*
G01*
G37*
G04 #@! TD.AperFunction*
G04 #@! TA.AperFunction,SMDPad,CuDef*
G36*
G01*
X138260000Y-71700000D02*
X139760000Y-71700000D01*
G75*
G02*
X139835000Y-71775000I0J-75000D01*
G01*
X139835000Y-71925000D01*
G75*
G02*
X139760000Y-72000000I-75000J0D01*
G01*
X138260000Y-72000000D01*
G75*
G02*
X138185000Y-71925000I0J75000D01*
G01*
X138185000Y-71775000D01*
G75*
G02*
X138260000Y-71700000I75000J0D01*
G01*
G37*
G04 #@! TD.AperFunction*
G04 #@! TA.AperFunction,SMDPad,CuDef*
G36*
G01*
X138260000Y-71200000D02*
X139760000Y-71200000D01*
G75*
G02*
X139835000Y-71275000I0J-75000D01*
G01*
X139835000Y-71425000D01*
G75*
G02*
X139760000Y-71500000I-75000J0D01*
G01*
X138260000Y-71500000D01*
G75*
G02*
X138185000Y-71425000I0J75000D01*
G01*
X138185000Y-71275000D01*
G75*
G02*
X138260000Y-71200000I75000J0D01*
G01*
G37*
G04 #@! TD.AperFunction*
D13*
X151638000Y-71882000D03*
X151638000Y-74422000D03*
X151638000Y-76962000D03*
D14*
X151638000Y-79502000D03*
D15*
X134112000Y-106934000D03*
X136652000Y-106934000D03*
X139192000Y-106934000D03*
X141732000Y-106934000D03*
G04 #@! TA.AperFunction,ComponentPad*
G36*
G01*
X145142000Y-106088999D02*
X145142000Y-107779001D01*
G75*
G02*
X144892001Y-108029000I-249999J0D01*
G01*
X143651999Y-108029000D01*
G75*
G02*
X143402000Y-107779001I0J249999D01*
G01*
X143402000Y-106088999D01*
G75*
G02*
X143651999Y-105839000I249999J0D01*
G01*
X144892001Y-105839000D01*
G75*
G02*
X145142000Y-106088999I0J-249999D01*
G01*
G37*
G04 #@! TD.AperFunction*
D16*
X125476000Y-107442000D03*
D17*
X133604000Y-100330000D03*
X113284000Y-100330000D03*
X123444000Y-100330000D03*
X120904000Y-100330000D03*
X118364000Y-100330000D03*
X115824000Y-85090000D03*
X118364000Y-85090000D03*
X113284000Y-85090000D03*
X120904000Y-85090000D03*
X136144000Y-85090000D03*
X143764000Y-85090000D03*
X141224000Y-85090000D03*
X146304000Y-95250000D03*
X146304000Y-92710000D03*
G04 #@! TA.AperFunction,SMDPad,CuDef*
G36*
G01*
X131574250Y-103815500D02*
X131061750Y-103815500D01*
G75*
G02*
X130843000Y-103596750I0J218750D01*
G01*
X130843000Y-103159250D01*
G75*
G02*
X131061750Y-102940500I218750J0D01*
G01*
X131574250Y-102940500D01*
G75*
G02*
X131793000Y-103159250I0J-218750D01*
G01*
X131793000Y-103596750D01*
G75*
G02*
X131574250Y-103815500I-218750J0D01*
G01*
G37*
G04 #@! TD.AperFunction*
G04 #@! TA.AperFunction,SMDPad,CuDef*
G36*
G01*
X131574250Y-105390500D02*
X131061750Y-105390500D01*
G75*
G02*
X130843000Y-105171750I0J218750D01*
G01*
X130843000Y-104734250D01*
G75*
G02*
X131061750Y-104515500I218750J0D01*
G01*
X131574250Y-104515500D01*
G75*
G02*
X131793000Y-104734250I0J-218750D01*
G01*
X131793000Y-105171750D01*
G75*
G02*
X131574250Y-105390500I-218750J0D01*
G01*
G37*
G04 #@! TD.AperFunction*
G04 #@! TA.AperFunction,SMDPad,CuDef*
G36*
G01*
X139034000Y-82552250D02*
X139034000Y-82039750D01*
G75*
G02*
X139252750Y-81821000I218750J0D01*
G01*
X139690250Y-81821000D01*
G75*
G02*
X139909000Y-82039750I0J-218750D01*
G01*
X139909000Y-82552250D01*
G75*
G02*
X139690250Y-82771000I-218750J0D01*
G01*
X139252750Y-82771000D01*
G75*
G02*
X139034000Y-82552250I0J218750D01*
G01*
G37*
G04 #@! TD.AperFunction*
G04 #@! TA.AperFunction,SMDPad,CuDef*
G36*
G01*
X137459000Y-82552250D02*
X137459000Y-82039750D01*
G75*
G02*
X137677750Y-81821000I218750J0D01*
G01*
X138115250Y-81821000D01*
G75*
G02*
X138334000Y-82039750I0J-218750D01*
G01*
X138334000Y-82552250D01*
G75*
G02*
X138115250Y-82771000I-218750J0D01*
G01*
X137677750Y-82771000D01*
G75*
G02*
X137459000Y-82552250I0J218750D01*
G01*
G37*
G04 #@! TD.AperFunction*
G04 #@! TA.AperFunction,SMDPad,CuDef*
G36*
G01*
X121762000Y-82552250D02*
X121762000Y-82039750D01*
G75*
G02*
X121980750Y-81821000I218750J0D01*
G01*
X122418250Y-81821000D01*
G75*
G02*
X122637000Y-82039750I0J-218750D01*
G01*
X122637000Y-82552250D01*
G75*
G02*
X122418250Y-82771000I-218750J0D01*
G01*
X121980750Y-82771000D01*
G75*
G02*
X121762000Y-82552250I0J218750D01*
G01*
G37*
G04 #@! TD.AperFunction*
G04 #@! TA.AperFunction,SMDPad,CuDef*
G36*
G01*
X120187000Y-82552250D02*
X120187000Y-82039750D01*
G75*
G02*
X120405750Y-81821000I218750J0D01*
G01*
X120843250Y-81821000D01*
G75*
G02*
X121062000Y-82039750I0J-218750D01*
G01*
X121062000Y-82552250D01*
G75*
G02*
X120843250Y-82771000I-218750J0D01*
G01*
X120405750Y-82771000D01*
G75*
G02*
X120187000Y-82552250I0J218750D01*
G01*
G37*
G04 #@! TD.AperFunction*
G04 #@! TA.AperFunction,SMDPad,CuDef*
G36*
G01*
X127256250Y-103815500D02*
X126743750Y-103815500D01*
G75*
G02*
X126525000Y-103596750I0J218750D01*
G01*
X126525000Y-103159250D01*
G75*
G02*
X126743750Y-102940500I218750J0D01*
G01*
X127256250Y-102940500D01*
G75*
G02*
X127475000Y-103159250I0J-218750D01*
G01*
X127475000Y-103596750D01*
G75*
G02*
X127256250Y-103815500I-218750J0D01*
G01*
G37*
G04 #@! TD.AperFunction*
G04 #@! TA.AperFunction,SMDPad,CuDef*
G36*
G01*
X127256250Y-105390500D02*
X126743750Y-105390500D01*
G75*
G02*
X126525000Y-105171750I0J218750D01*
G01*
X126525000Y-104734250D01*
G75*
G02*
X126743750Y-104515500I218750J0D01*
G01*
X127256250Y-104515500D01*
G75*
G02*
X127475000Y-104734250I0J-218750D01*
G01*
X127475000Y-105171750D01*
G75*
G02*
X127256250Y-105390500I-218750J0D01*
G01*
G37*
G04 #@! TD.AperFunction*
G04 #@! TA.AperFunction,SMDPad,CuDef*
G36*
G01*
X122938250Y-103764500D02*
X122425750Y-103764500D01*
G75*
G02*
X122207000Y-103545750I0J218750D01*
G01*
X122207000Y-103108250D01*
G75*
G02*
X122425750Y-102889500I218750J0D01*
G01*
X122938250Y-102889500D01*
G75*
G02*
X123157000Y-103108250I0J-218750D01*
G01*
X123157000Y-103545750D01*
G75*
G02*
X122938250Y-103764500I-218750J0D01*
G01*
G37*
G04 #@! TD.AperFunction*
G04 #@! TA.AperFunction,SMDPad,CuDef*
G36*
G01*
X122938250Y-105339500D02*
X122425750Y-105339500D01*
G75*
G02*
X122207000Y-105120750I0J218750D01*
G01*
X122207000Y-104683250D01*
G75*
G02*
X122425750Y-104464500I218750J0D01*
G01*
X122938250Y-104464500D01*
G75*
G02*
X123157000Y-104683250I0J-218750D01*
G01*
X123157000Y-105120750D01*
G75*
G02*
X122938250Y-105339500I-218750J0D01*
G01*
G37*
G04 #@! TD.AperFunction*
D18*
X115570000Y-106680000D03*
X149860000Y-106680000D03*
X149860000Y-64770000D03*
X115570000Y-64770000D03*
D16*
X123952000Y-78359000D03*
D13*
X129540000Y-77470000D03*
X129540000Y-74930000D03*
D14*
X129540000Y-72390000D03*
D16*
X136652000Y-78359000D03*
X114046000Y-74676000D03*
X129794000Y-107442000D03*
X121158000Y-107442000D03*
G04 #@! TA.AperFunction,SMDPad,CuDef*
G36*
G01*
X138246500Y-75186250D02*
X138246500Y-74673750D01*
G75*
G02*
X138465250Y-74455000I218750J0D01*
G01*
X138902750Y-74455000D01*
G75*
G02*
X139121500Y-74673750I0J-218750D01*
G01*
X139121500Y-75186250D01*
G75*
G02*
X138902750Y-75405000I-218750J0D01*
G01*
X138465250Y-75405000D01*
G75*
G02*
X138246500Y-75186250I0J218750D01*
G01*
G37*
G04 #@! TD.AperFunction*
G04 #@! TA.AperFunction,SMDPad,CuDef*
G36*
G01*
X136671500Y-75186250D02*
X136671500Y-74673750D01*
G75*
G02*
X136890250Y-74455000I218750J0D01*
G01*
X137327750Y-74455000D01*
G75*
G02*
X137546500Y-74673750I0J-218750D01*
G01*
X137546500Y-75186250D01*
G75*
G02*
X137327750Y-75405000I-218750J0D01*
G01*
X136890250Y-75405000D01*
G75*
G02*
X136671500Y-75186250I0J218750D01*
G01*
G37*
G04 #@! TD.AperFunction*
G04 #@! TA.AperFunction,SMDPad,CuDef*
G36*
G01*
X125546500Y-75186250D02*
X125546500Y-74673750D01*
G75*
G02*
X125765250Y-74455000I218750J0D01*
G01*
X126202750Y-74455000D01*
G75*
G02*
X126421500Y-74673750I0J-218750D01*
G01*
X126421500Y-75186250D01*
G75*
G02*
X126202750Y-75405000I-218750J0D01*
G01*
X125765250Y-75405000D01*
G75*
G02*
X125546500Y-75186250I0J218750D01*
G01*
G37*
G04 #@! TD.AperFunction*
G04 #@! TA.AperFunction,SMDPad,CuDef*
G36*
G01*
X123971500Y-75186250D02*
X123971500Y-74673750D01*
G75*
G02*
X124190250Y-74455000I218750J0D01*
G01*
X124627750Y-74455000D01*
G75*
G02*
X124846500Y-74673750I0J-218750D01*
G01*
X124846500Y-75186250D01*
G75*
G02*
X124627750Y-75405000I-218750J0D01*
G01*
X124190250Y-75405000D01*
G75*
G02*
X123971500Y-75186250I0J218750D01*
G01*
G37*
G04 #@! TD.AperFunction*
G04 #@! TA.AperFunction,SMDPad,CuDef*
G36*
G01*
X117952000Y-82552250D02*
X117952000Y-82039750D01*
G75*
G02*
X118170750Y-81821000I218750J0D01*
G01*
X118608250Y-81821000D01*
G75*
G02*
X118827000Y-82039750I0J-218750D01*
G01*
X118827000Y-82552250D01*
G75*
G02*
X118608250Y-82771000I-218750J0D01*
G01*
X118170750Y-82771000D01*
G75*
G02*
X117952000Y-82552250I0J218750D01*
G01*
G37*
G04 #@! TD.AperFunction*
G04 #@! TA.AperFunction,SMDPad,CuDef*
G36*
G01*
X116377000Y-82552250D02*
X116377000Y-82039750D01*
G75*
G02*
X116595750Y-81821000I218750J0D01*
G01*
X117033250Y-81821000D01*
G75*
G02*
X117252000Y-82039750I0J-218750D01*
G01*
X117252000Y-82552250D01*
G75*
G02*
X117033250Y-82771000I-218750J0D01*
G01*
X116595750Y-82771000D01*
G75*
G02*
X116377000Y-82552250I0J218750D01*
G01*
G37*
G04 #@! TD.AperFunction*
G04 #@! TA.AperFunction,SMDPad,CuDef*
G36*
G01*
X135224000Y-82552250D02*
X135224000Y-82039750D01*
G75*
G02*
X135442750Y-81821000I218750J0D01*
G01*
X135880250Y-81821000D01*
G75*
G02*
X136099000Y-82039750I0J-218750D01*
G01*
X136099000Y-82552250D01*
G75*
G02*
X135880250Y-82771000I-218750J0D01*
G01*
X135442750Y-82771000D01*
G75*
G02*
X135224000Y-82552250I0J218750D01*
G01*
G37*
G04 #@! TD.AperFunction*
G04 #@! TA.AperFunction,SMDPad,CuDef*
G36*
G01*
X133649000Y-82552250D02*
X133649000Y-82039750D01*
G75*
G02*
X133867750Y-81821000I218750J0D01*
G01*
X134305250Y-81821000D01*
G75*
G02*
X134524000Y-82039750I0J-218750D01*
G01*
X134524000Y-82552250D01*
G75*
G02*
X134305250Y-82771000I-218750J0D01*
G01*
X133867750Y-82771000D01*
G75*
G02*
X133649000Y-82552250I0J218750D01*
G01*
G37*
G04 #@! TD.AperFunction*
G04 #@! TA.AperFunction,SMDPad,CuDef*
G36*
G01*
X120901750Y-104515500D02*
X121414250Y-104515500D01*
G75*
G02*
X121633000Y-104734250I0J-218750D01*
G01*
X121633000Y-105171750D01*
G75*
G02*
X121414250Y-105390500I-218750J0D01*
G01*
X120901750Y-105390500D01*
G75*
G02*
X120683000Y-105171750I0J218750D01*
G01*
X120683000Y-104734250D01*
G75*
G02*
X120901750Y-104515500I218750J0D01*
G01*
G37*
G04 #@! TD.AperFunction*
G04 #@! TA.AperFunction,SMDPad,CuDef*
G36*
G01*
X120901750Y-102940500D02*
X121414250Y-102940500D01*
G75*
G02*
X121633000Y-103159250I0J-218750D01*
G01*
X121633000Y-103596750D01*
G75*
G02*
X121414250Y-103815500I-218750J0D01*
G01*
X120901750Y-103815500D01*
G75*
G02*
X120683000Y-103596750I0J218750D01*
G01*
X120683000Y-103159250D01*
G75*
G02*
X120901750Y-102940500I218750J0D01*
G01*
G37*
G04 #@! TD.AperFunction*
G04 #@! TA.AperFunction,SMDPad,CuDef*
G36*
G01*
X125219750Y-104515500D02*
X125732250Y-104515500D01*
G75*
G02*
X125951000Y-104734250I0J-218750D01*
G01*
X125951000Y-105171750D01*
G75*
G02*
X125732250Y-105390500I-218750J0D01*
G01*
X125219750Y-105390500D01*
G75*
G02*
X125001000Y-105171750I0J218750D01*
G01*
X125001000Y-104734250D01*
G75*
G02*
X125219750Y-104515500I218750J0D01*
G01*
G37*
G04 #@! TD.AperFunction*
G04 #@! TA.AperFunction,SMDPad,CuDef*
G36*
G01*
X125219750Y-102940500D02*
X125732250Y-102940500D01*
G75*
G02*
X125951000Y-103159250I0J-218750D01*
G01*
X125951000Y-103596750D01*
G75*
G02*
X125732250Y-103815500I-218750J0D01*
G01*
X125219750Y-103815500D01*
G75*
G02*
X125001000Y-103596750I0J218750D01*
G01*
X125001000Y-103159250D01*
G75*
G02*
X125219750Y-102940500I218750J0D01*
G01*
G37*
G04 #@! TD.AperFunction*
G04 #@! TA.AperFunction,SMDPad,CuDef*
G36*
G01*
X129537750Y-104515500D02*
X130050250Y-104515500D01*
G75*
G02*
X130269000Y-104734250I0J-218750D01*
G01*
X130269000Y-105171750D01*
G75*
G02*
X130050250Y-105390500I-218750J0D01*
G01*
X129537750Y-105390500D01*
G75*
G02*
X129319000Y-105171750I0J218750D01*
G01*
X129319000Y-104734250D01*
G75*
G02*
X129537750Y-104515500I218750J0D01*
G01*
G37*
G04 #@! TD.AperFunction*
G04 #@! TA.AperFunction,SMDPad,CuDef*
G36*
G01*
X129537750Y-102940500D02*
X130050250Y-102940500D01*
G75*
G02*
X130269000Y-103159250I0J-218750D01*
G01*
X130269000Y-103596750D01*
G75*
G02*
X130050250Y-103815500I-218750J0D01*
G01*
X129537750Y-103815500D01*
G75*
G02*
X129319000Y-103596750I0J218750D01*
G01*
X129319000Y-103159250D01*
G75*
G02*
X129537750Y-102940500I218750J0D01*
G01*
G37*
G04 #@! TD.AperFunction*
D19*
X129794000Y-64262000D03*
X127254000Y-64262000D03*
X124714000Y-64262000D03*
G04 #@! TA.AperFunction,ComponentPad*
G36*
G01*
X121304000Y-65112001D02*
X121304000Y-63411999D01*
G75*
G02*
X121553999Y-63162000I249999J0D01*
G01*
X122794001Y-63162000D01*
G75*
G02*
X123044000Y-63411999I0J-249999D01*
G01*
X123044000Y-65112001D01*
G75*
G02*
X122794001Y-65362000I-249999J0D01*
G01*
X121553999Y-65362000D01*
G75*
G02*
X121304000Y-65112001I0J249999D01*
G01*
G37*
G04 #@! TD.AperFunction*
X144018000Y-64262000D03*
X141478000Y-64262000D03*
X138938000Y-64262000D03*
G04 #@! TA.AperFunction,ComponentPad*
G36*
G01*
X135528000Y-65112001D02*
X135528000Y-63411999D01*
G75*
G02*
X135777999Y-63162000I249999J0D01*
G01*
X137018001Y-63162000D01*
G75*
G02*
X137268000Y-63411999I0J-249999D01*
G01*
X137268000Y-65112001D01*
G75*
G02*
X137018001Y-65362000I-249999J0D01*
G01*
X135777999Y-65362000D01*
G75*
G02*
X135528000Y-65112001I0J249999D01*
G01*
G37*
G04 #@! TD.AperFunction*
D13*
X142240000Y-77470000D03*
X142240000Y-74930000D03*
D14*
X142240000Y-72390000D03*
D20*
X128270000Y-102616000D03*
X126111000Y-72771000D03*
X122809000Y-73787000D03*
X135382000Y-73787000D03*
X138811000Y-72771000D03*
X132588000Y-82296000D03*
X119989610Y-102616000D03*
X126111000Y-73787000D03*
X138811000Y-73787000D03*
X123825000Y-101854000D03*
X123825000Y-103378000D03*
D21*
X137668000Y-66294000D03*
X129286000Y-67564020D03*
D22*
X118364000Y-80010000D03*
D20*
X123444000Y-82296000D03*
X140716000Y-82296000D03*
D23*
X124206000Y-74727000D02*
X124409000Y-74930000D01*
X136910000Y-72550000D02*
X136906000Y-72554000D01*
D24*
X124210000Y-73127400D02*
X124206000Y-73131400D01*
X124210000Y-72550000D02*
X124210000Y-73127400D01*
D23*
X119888000Y-102616000D02*
X119888000Y-102616000D01*
X125730000Y-102616000D02*
X128270000Y-102616000D01*
X125476000Y-102870000D02*
X125730000Y-102616000D01*
X135678000Y-71882000D02*
X135710000Y-71850000D01*
X123010000Y-71350000D02*
X122198000Y-71350000D01*
X122198000Y-71350000D02*
X122174000Y-71374000D01*
X122978000Y-71882000D02*
X123010000Y-71850000D01*
X122174000Y-71882000D02*
X122978000Y-71882000D01*
X124710000Y-72550000D02*
X124710000Y-73156000D01*
X116814500Y-82296000D02*
X116586000Y-82296000D01*
X115824000Y-83058000D02*
X115824000Y-85090000D01*
X116586000Y-82296000D02*
X115824000Y-83058000D01*
X134086500Y-82296000D02*
X132588000Y-82296000D01*
X128270000Y-102616000D02*
X129032000Y-102616000D01*
X129032000Y-102616000D02*
X129794000Y-103378000D01*
X125476000Y-103378000D02*
X125476000Y-102870000D01*
X121158000Y-103378000D02*
X120751610Y-103378000D01*
X120751610Y-103378000D02*
X119989610Y-102616000D01*
D24*
X122610000Y-71350000D02*
X121563000Y-71350000D01*
X122610000Y-71850000D02*
X121571000Y-71850000D01*
X121563000Y-71842000D02*
X121563000Y-71350000D01*
X121571000Y-71850000D02*
X121563000Y-71842000D01*
X124710000Y-72950000D02*
X124710000Y-73918000D01*
X122809000Y-73787000D02*
X122809000Y-73914000D01*
X122809000Y-73787000D02*
X122301000Y-73787000D01*
X121571000Y-73057000D02*
X121571000Y-71850000D01*
X122301000Y-73787000D02*
X121571000Y-73057000D01*
X123101810Y-74079810D02*
X122809000Y-73787000D01*
X124710000Y-73918000D02*
X124548190Y-74079810D01*
X124210000Y-74037000D02*
X124167190Y-74079810D01*
X124210000Y-72950000D02*
X124210000Y-74037000D01*
X124548190Y-74079810D02*
X124167190Y-74079810D01*
X124167190Y-74079810D02*
X123101810Y-74079810D01*
X124409000Y-74930000D02*
X124409000Y-74219000D01*
X126310000Y-72572000D02*
X126111000Y-72771000D01*
X126310000Y-71850000D02*
X126310000Y-72572000D01*
X135310000Y-71350000D02*
X134263000Y-71350000D01*
X134263000Y-71350000D02*
X134239000Y-71374000D01*
X134239000Y-72644000D02*
X135382000Y-73787000D01*
X134334000Y-71850000D02*
X134239000Y-71755000D01*
X135310000Y-71850000D02*
X134334000Y-71850000D01*
X134239000Y-71374000D02*
X134239000Y-71755000D01*
X134239000Y-71755000D02*
X134239000Y-72644000D01*
X137410000Y-73021000D02*
X137414000Y-73025000D01*
X137410000Y-72950000D02*
X137410000Y-73021000D01*
X137414000Y-73025000D02*
X137414000Y-74041000D01*
X137414000Y-74041000D02*
X137287000Y-74168000D01*
X135762999Y-74167999D02*
X135382000Y-73787000D01*
X136910000Y-72950000D02*
X136910000Y-74163998D01*
X136910000Y-74163998D02*
X136905999Y-74167999D01*
X136905999Y-74167999D02*
X135762999Y-74167999D01*
X137109000Y-74930000D02*
X137109000Y-74219000D01*
X137109000Y-74219000D02*
X137160000Y-74168000D01*
X137287000Y-74168000D02*
X137160000Y-74168000D01*
X137160000Y-74168000D02*
X136905999Y-74167999D01*
X139010000Y-72572000D02*
X138811000Y-72771000D01*
X139010000Y-71850000D02*
X139010000Y-72572000D01*
D23*
X122682000Y-103327000D02*
X122682000Y-103429000D01*
X122682000Y-103429000D02*
X121158000Y-104953000D01*
X127000000Y-103378000D02*
X127000000Y-103429000D01*
X127000000Y-103429000D02*
X125476000Y-104953000D01*
X131318000Y-103378000D02*
X131318000Y-103429000D01*
X131318000Y-103429000D02*
X129794000Y-104953000D01*
X125210000Y-72825000D02*
X125222000Y-72837000D01*
X125210000Y-72550000D02*
X125210000Y-72825000D01*
X125222000Y-72837000D02*
X125222000Y-73152000D01*
X125210000Y-72950000D02*
X125210000Y-73902000D01*
X125210000Y-73902000D02*
X125349000Y-74041000D01*
X125857000Y-74041000D02*
X126111000Y-73787000D01*
X125349000Y-74041000D02*
X125857000Y-74041000D01*
X137910000Y-72950000D02*
X137910000Y-73902000D01*
X137910000Y-73902000D02*
X138049000Y-74041000D01*
X138557000Y-74041000D02*
X138811000Y-73787000D01*
X138049000Y-74041000D02*
X138557000Y-74041000D01*
X122682000Y-105918000D02*
X121158000Y-107442000D01*
X123444001Y-101473001D02*
X123825000Y-101854000D01*
X123444000Y-100330000D02*
X123444001Y-101473001D01*
X122682000Y-104902000D02*
X122682000Y-105918000D01*
X123825000Y-104521000D02*
X123444000Y-104902000D01*
X123825000Y-103378000D02*
X123825000Y-104521000D01*
X123444000Y-104902000D02*
X122682000Y-104902000D01*
X125476000Y-107442000D02*
X127000000Y-105918000D01*
X125476000Y-106680000D02*
X125476000Y-107442000D01*
X124434601Y-102844601D02*
X124434601Y-105638601D01*
X124206000Y-102616000D02*
X124434601Y-102844601D01*
X120904000Y-101854000D02*
X121158000Y-102108000D01*
X123571000Y-102616000D02*
X124206000Y-102616000D01*
X120904000Y-100330000D02*
X120904000Y-101854000D01*
X124434601Y-105638601D02*
X125476000Y-106680000D01*
X121158000Y-102108000D02*
X123063000Y-102108000D01*
X123063000Y-102108000D02*
X123571000Y-102616000D01*
X127000000Y-105918000D02*
X127000000Y-104953000D01*
X131318000Y-105918000D02*
X129794000Y-107442000D01*
X118364000Y-103632000D02*
X118364000Y-100330000D01*
X127762000Y-109474000D02*
X120396000Y-109474000D01*
X129794000Y-107442000D02*
X127762000Y-109474000D01*
X120396000Y-109474000D02*
X119380000Y-108458000D01*
X119380000Y-104648000D02*
X118364000Y-103632000D01*
X119380000Y-108458000D02*
X119380000Y-104648000D01*
X131318000Y-104953000D02*
X131318000Y-105918000D01*
X118389500Y-82296000D02*
X120624500Y-82296000D01*
X120624500Y-84810500D02*
X120904000Y-85090000D01*
X120624500Y-82296000D02*
X120624500Y-84810500D01*
X137896500Y-82296000D02*
X135661500Y-82296000D01*
X135661500Y-84607500D02*
X136144000Y-85090000D01*
X135661500Y-82296000D02*
X135661500Y-84607500D01*
D25*
X137660000Y-69800000D02*
X137660000Y-68588000D01*
X138938000Y-67310000D02*
X138938000Y-64262000D01*
X137660000Y-68588000D02*
X138938000Y-67310000D01*
X141478000Y-64262000D02*
X141478000Y-64492000D01*
X128331000Y-66294000D02*
X137668000Y-66294000D01*
X124960000Y-69800000D02*
X124960000Y-69665000D01*
X124960000Y-69665000D02*
X128331000Y-66294000D01*
D26*
X122174000Y-62992000D02*
X122174000Y-64262000D01*
X122936000Y-62230000D02*
X122174000Y-62992000D01*
X136398000Y-64262000D02*
X134366000Y-62230000D01*
X134366000Y-62230000D02*
X122936000Y-62230000D01*
D23*
X136660000Y-69800000D02*
X136660000Y-69665000D01*
D25*
X136660000Y-68596000D02*
X136660000Y-69800000D01*
X135628000Y-67564000D02*
X136660000Y-68596000D01*
X129286000Y-67564020D02*
X129286020Y-67564000D01*
X129286020Y-67564000D02*
X135628000Y-67564000D01*
X127254000Y-64492000D02*
X123960000Y-67786000D01*
X127254000Y-64262000D02*
X127254000Y-64492000D01*
X123960000Y-67786000D02*
X123960000Y-69800000D01*
D27*
X125984000Y-75505000D02*
X125984000Y-76454000D01*
D24*
X125984000Y-74930000D02*
X125984000Y-75505000D01*
X127508000Y-71501000D02*
X127508000Y-74168000D01*
X126746000Y-74930000D02*
X125984000Y-74930000D01*
X126310000Y-71350000D02*
X127357000Y-71350000D01*
X127508000Y-74168000D02*
X126746000Y-74930000D01*
X127357000Y-71350000D02*
X127508000Y-71501000D01*
X139010000Y-71350000D02*
X140057000Y-71350000D01*
X140208000Y-71501000D02*
X140208000Y-74168000D01*
X139446000Y-74930000D02*
X138684000Y-74930000D01*
X140208000Y-74168000D02*
X139446000Y-74930000D01*
X140716000Y-70612000D02*
X140208000Y-71120000D01*
X151638000Y-71882000D02*
X150368000Y-70612000D01*
X140208000Y-71120000D02*
X140208000Y-71501000D01*
X150368000Y-70612000D02*
X140716000Y-70612000D01*
D27*
X128016000Y-75438000D02*
X127000000Y-76454000D01*
X128016000Y-74422000D02*
X128016000Y-75438000D01*
X128778000Y-73660000D02*
X128016000Y-74422000D01*
X133858000Y-76454000D02*
X131064000Y-73660000D01*
X138684000Y-74930000D02*
X138684000Y-75819000D01*
X138684000Y-75819000D02*
X138049000Y-76454000D01*
X138049000Y-76454000D02*
X133858000Y-76454000D01*
X127000000Y-76454000D02*
X125984000Y-76454000D01*
X131064000Y-73660000D02*
X128778000Y-73660000D01*
X121920000Y-76454000D02*
X118364000Y-80010000D01*
X125984000Y-76454000D02*
X121920000Y-76454000D01*
D23*
X126111000Y-78359000D02*
X123952000Y-78359000D01*
X129540000Y-74930000D02*
X126111000Y-78359000D01*
X122199500Y-82296000D02*
X123444000Y-82296000D01*
X138811000Y-78359000D02*
X142240000Y-74930000D01*
X136652000Y-78359000D02*
X138811000Y-78359000D01*
X139471500Y-82296000D02*
X140716000Y-82296000D01*
X137668000Y-103632000D02*
X136652000Y-104648000D01*
X145542000Y-103632000D02*
X137668000Y-103632000D01*
X148844000Y-100330000D02*
X145542000Y-103632000D01*
X143764000Y-85090000D02*
X143764000Y-83820000D01*
X148844000Y-83820000D02*
X148844000Y-100330000D01*
X136652000Y-104648000D02*
X136652000Y-106934000D01*
X144780000Y-82804000D02*
X147828000Y-82804000D01*
X143764000Y-83820000D02*
X144780000Y-82804000D01*
X147828000Y-82804000D02*
X148844000Y-83820000D01*
X141224000Y-83566000D02*
X141224000Y-85090000D01*
X142494000Y-82296000D02*
X141224000Y-83566000D01*
X147828000Y-82296000D02*
X142494000Y-82296000D01*
X139192000Y-104648000D02*
X139700000Y-104140000D01*
X149352000Y-100584000D02*
X149352000Y-83820000D01*
X139192000Y-106934000D02*
X139192000Y-104648000D01*
X139700000Y-104140000D02*
X145796000Y-104140000D01*
X149352000Y-83820000D02*
X147828000Y-82296000D01*
X145796000Y-104140000D02*
X149352000Y-100584000D01*
D27*
X144272000Y-106680000D02*
X144272000Y-106934000D01*
X113284000Y-83312000D02*
X115570000Y-81026000D01*
X113284000Y-85090000D02*
X113284000Y-83312000D01*
X147574000Y-81026000D02*
X150114000Y-83566000D01*
X150114000Y-100838000D02*
X144272000Y-106680000D01*
X115570000Y-81026000D02*
X147574000Y-81026000D01*
X150114000Y-83566000D02*
X150114000Y-100838000D01*
D23*
X151638000Y-74422000D02*
X147828000Y-74422000D01*
X144780000Y-77470000D02*
X142240000Y-77470000D01*
X147828000Y-74422000D02*
X144780000Y-77470000D01*
X149606000Y-76962000D02*
X151638000Y-76962000D01*
X146558000Y-80010000D02*
X149606000Y-76962000D01*
X129540000Y-77470000D02*
X132080000Y-80010000D01*
X132080000Y-80010000D02*
X146558000Y-80010000D01*
M02*
