G04 #@! TF.GenerationSoftware,KiCad,Pcbnew,(5.1.6)-1*
G04 #@! TF.CreationDate,2020-07-11T10:04:51-07:00*
G04 #@! TF.ProjectId,stepper_analyzer,73746570-7065-4725-9f61-6e616c797a65,rev?*
G04 #@! TF.SameCoordinates,Original*
G04 #@! TF.FileFunction,Copper,L2,Bot*
G04 #@! TF.FilePolarity,Positive*
%FSLAX46Y46*%
G04 Gerber Fmt 4.6, Leading zero omitted, Abs format (unit mm)*
G04 Created by KiCad (PCBNEW (5.1.6)-1) date 2020-07-11 10:04:51*
%MOMM*%
%LPD*%
G01*
G04 APERTURE LIST*
G04 #@! TA.AperFunction,ComponentPad*
%ADD10O,1.740000X2.190000*%
G04 #@! TD*
G04 #@! TA.AperFunction,ComponentPad*
%ADD11C,2.000000*%
G04 #@! TD*
G04 #@! TA.AperFunction,ComponentPad*
%ADD12C,1.905000*%
G04 #@! TD*
G04 #@! TA.AperFunction,ComponentPad*
%ADD13O,1.700000X1.700000*%
G04 #@! TD*
G04 #@! TA.AperFunction,ComponentPad*
%ADD14R,1.700000X1.700000*%
G04 #@! TD*
G04 #@! TA.AperFunction,ComponentPad*
%ADD15C,6.400000*%
G04 #@! TD*
G04 #@! TA.AperFunction,ComponentPad*
%ADD16O,1.740000X2.200000*%
G04 #@! TD*
G04 #@! TA.AperFunction,ViaPad*
%ADD17C,0.762000*%
G04 #@! TD*
G04 #@! TA.AperFunction,ViaPad*
%ADD18C,1.270000*%
G04 #@! TD*
G04 #@! TA.AperFunction,ViaPad*
%ADD19C,1.016000*%
G04 #@! TD*
G04 #@! TA.AperFunction,Conductor*
%ADD20C,0.152400*%
G04 #@! TD*
G04 #@! TA.AperFunction,Conductor*
%ADD21C,1.016000*%
G04 #@! TD*
G04 #@! TA.AperFunction,Conductor*
%ADD22C,0.762000*%
G04 #@! TD*
G04 #@! TA.AperFunction,Conductor*
%ADD23C,0.254000*%
G04 #@! TD*
G04 APERTURE END LIST*
D10*
X134112000Y-106934000D03*
X136652000Y-106934000D03*
X139192000Y-106934000D03*
X141732000Y-106934000D03*
G04 #@! TA.AperFunction,ComponentPad*
G36*
G01*
X145142000Y-106088999D02*
X145142000Y-107779001D01*
G75*
G02*
X144892001Y-108029000I-249999J0D01*
G01*
X143651999Y-108029000D01*
G75*
G02*
X143402000Y-107779001I0J249999D01*
G01*
X143402000Y-106088999D01*
G75*
G02*
X143651999Y-105839000I249999J0D01*
G01*
X144892001Y-105839000D01*
G75*
G02*
X145142000Y-106088999I0J-249999D01*
G01*
G37*
G04 #@! TD.AperFunction*
D11*
X125476000Y-107442000D03*
D12*
X133604000Y-100330000D03*
X113284000Y-100330000D03*
X123444000Y-100330000D03*
X120904000Y-100330000D03*
X118364000Y-100330000D03*
X115824000Y-85090000D03*
X118364000Y-85090000D03*
X113284000Y-85090000D03*
X120904000Y-85090000D03*
X136144000Y-85090000D03*
X143764000Y-85090000D03*
X141224000Y-85090000D03*
X146304000Y-95250000D03*
X146304000Y-92710000D03*
D13*
X151638000Y-71882000D03*
X151638000Y-74422000D03*
X151638000Y-76962000D03*
D14*
X151638000Y-79502000D03*
D15*
X115570000Y-106680000D03*
X149860000Y-106680000D03*
X149860000Y-64770000D03*
X115570000Y-64770000D03*
D11*
X123952000Y-78359000D03*
D13*
X129540000Y-77470000D03*
X129540000Y-74930000D03*
D14*
X129540000Y-72390000D03*
D11*
X136652000Y-78359000D03*
X114046000Y-74676000D03*
X129794000Y-107442000D03*
X121158000Y-107442000D03*
D16*
X129794000Y-64262000D03*
X127254000Y-64262000D03*
X124714000Y-64262000D03*
G04 #@! TA.AperFunction,ComponentPad*
G36*
G01*
X121304000Y-65112001D02*
X121304000Y-63411999D01*
G75*
G02*
X121553999Y-63162000I249999J0D01*
G01*
X122794001Y-63162000D01*
G75*
G02*
X123044000Y-63411999I0J-249999D01*
G01*
X123044000Y-65112001D01*
G75*
G02*
X122794001Y-65362000I-249999J0D01*
G01*
X121553999Y-65362000D01*
G75*
G02*
X121304000Y-65112001I0J249999D01*
G01*
G37*
G04 #@! TD.AperFunction*
X144018000Y-64262000D03*
X141478000Y-64262000D03*
X138938000Y-64262000D03*
G04 #@! TA.AperFunction,ComponentPad*
G36*
G01*
X135528000Y-65112001D02*
X135528000Y-63411999D01*
G75*
G02*
X135777999Y-63162000I249999J0D01*
G01*
X137018001Y-63162000D01*
G75*
G02*
X137268000Y-63411999I0J-249999D01*
G01*
X137268000Y-65112001D01*
G75*
G02*
X137018001Y-65362000I-249999J0D01*
G01*
X135777999Y-65362000D01*
G75*
G02*
X135528000Y-65112001I0J249999D01*
G01*
G37*
G04 #@! TD.AperFunction*
D13*
X142240000Y-77470000D03*
X142240000Y-74930000D03*
D14*
X142240000Y-72390000D03*
D17*
X123825000Y-101854000D03*
X128270000Y-102616000D03*
X125910000Y-72570000D03*
X124206000Y-73660000D03*
X136906000Y-73660000D03*
X138610000Y-72570000D03*
X132588000Y-82296000D03*
X119989610Y-102616000D03*
X125730000Y-73660000D03*
X138176000Y-73660000D03*
X123825000Y-103378000D03*
D18*
X137668000Y-66294000D03*
X129286000Y-67564020D03*
D19*
X118364000Y-80010000D03*
D17*
X123444000Y-82296000D03*
X140716000Y-82296000D03*
D20*
X147065998Y-81788002D02*
X147065998Y-81788000D01*
X125296000Y-72570000D02*
X125910000Y-72570000D01*
X124206000Y-73660000D02*
X125296000Y-72570000D01*
X115062000Y-73660000D02*
X114046000Y-74676000D01*
X124206000Y-73660000D02*
X115062000Y-73660000D01*
X114046000Y-83312000D02*
X115824000Y-85090000D01*
X114046000Y-74676000D02*
X114046000Y-83312000D01*
X137996000Y-72570000D02*
X136906000Y-73660000D01*
X138610000Y-72570000D02*
X137996000Y-72570000D01*
X125910000Y-72570000D02*
X127614000Y-70866000D01*
X127614000Y-70866000D02*
X132842000Y-70866000D01*
X132842000Y-70866000D02*
X134112000Y-72136000D01*
X134112000Y-72136000D02*
X134112000Y-73152000D01*
X134112000Y-73152000D02*
X134620000Y-73660000D01*
X134620000Y-73660000D02*
X136906000Y-73660000D01*
X115824000Y-97790000D02*
X113284000Y-100330000D01*
X115824000Y-85090000D02*
X115824000Y-97790000D01*
X129794000Y-102616000D02*
X134112000Y-106934000D01*
X128270000Y-102616000D02*
X129794000Y-102616000D01*
X147370812Y-82092812D02*
X149098000Y-83820000D01*
X149098000Y-83820000D02*
X149098000Y-91694000D01*
X148082000Y-92710000D02*
X146304000Y-92710000D01*
X149098000Y-91694000D02*
X148082000Y-92710000D01*
X132588000Y-77978000D02*
X132588000Y-82296000D01*
X136906000Y-73660000D02*
X132588000Y-77978000D01*
X147370812Y-82092812D02*
X144068812Y-82092812D01*
X136906000Y-74930000D02*
X136906000Y-73660000D01*
X144068812Y-82092812D02*
X136906000Y-74930000D01*
X149961624Y-79502000D02*
X147370812Y-82092812D01*
X151638000Y-79502000D02*
X149961624Y-79502000D01*
X113284000Y-100330000D02*
X115570000Y-102616000D01*
X115570000Y-102616000D02*
X119989610Y-102616000D01*
X128270000Y-104013000D02*
X128270000Y-102616000D01*
X127508000Y-104775000D02*
X128270000Y-104013000D01*
X119989610Y-102616000D02*
X122148610Y-104775000D01*
X122148610Y-104775000D02*
X127508000Y-104775000D01*
X128537600Y-72390000D02*
X127775600Y-73152000D01*
X129540000Y-72390000D02*
X128537600Y-72390000D01*
X127775600Y-73152000D02*
X127762000Y-73152000D01*
X127762000Y-73152000D02*
X127254000Y-73660000D01*
X127254000Y-73660000D02*
X125730000Y-73660000D01*
X141224000Y-72390000D02*
X142240000Y-72390000D01*
X138176000Y-73660000D02*
X139954000Y-73660000D01*
X139954000Y-73660000D02*
X141224000Y-72390000D01*
X123825000Y-101854000D02*
X123825000Y-103378000D01*
D21*
X139676000Y-66294000D02*
X137668000Y-66294000D01*
D22*
X141478000Y-64262000D02*
X141478000Y-64492000D01*
D21*
X141478000Y-64492000D02*
X139676000Y-66294000D01*
X127786020Y-67564020D02*
X129286000Y-67564020D01*
D22*
X124714000Y-64262000D02*
X124714000Y-64492000D01*
D21*
X124714000Y-64492000D02*
X127786020Y-67564020D01*
X129794000Y-62992000D02*
X129794000Y-64262000D01*
X130556000Y-62230000D02*
X129794000Y-62992000D01*
X143002000Y-62230000D02*
X130556000Y-62230000D01*
D22*
X144018000Y-64262000D02*
X144018000Y-63246000D01*
D21*
X144018000Y-63246000D02*
X143002000Y-62230000D01*
D22*
X118364000Y-80010000D02*
X118364000Y-82042000D01*
X118364000Y-82042000D02*
X118364000Y-85090000D01*
D20*
X123444000Y-78867000D02*
X123952000Y-78359000D01*
X123444000Y-82296000D02*
X123444000Y-78867000D01*
X136652000Y-78359000D02*
X139065000Y-78359000D01*
X140716000Y-80010000D02*
X140716000Y-82296000D01*
X139065000Y-78359000D02*
X140716000Y-80010000D01*
D23*
G36*
X129025483Y-62144072D02*
G01*
X128981867Y-62179867D01*
X128839032Y-62353912D01*
X128732897Y-62552478D01*
X128667539Y-62767934D01*
X128651000Y-62935855D01*
X128651000Y-62935861D01*
X128645471Y-62992000D01*
X128651000Y-63048139D01*
X128651000Y-63052404D01*
X128536583Y-63191822D01*
X128524000Y-63215363D01*
X128511417Y-63191821D01*
X128323345Y-62962655D01*
X128094178Y-62774583D01*
X127832724Y-62634834D01*
X127549031Y-62548776D01*
X127254000Y-62519718D01*
X126958968Y-62548776D01*
X126675275Y-62634834D01*
X126413821Y-62774583D01*
X126184655Y-62962655D01*
X125996583Y-63191822D01*
X125984000Y-63215363D01*
X125971417Y-63191821D01*
X125783345Y-62962655D01*
X125554178Y-62774583D01*
X125292724Y-62634834D01*
X125009031Y-62548776D01*
X124714000Y-62519718D01*
X124418968Y-62548776D01*
X124135275Y-62634834D01*
X123873821Y-62774583D01*
X123644655Y-62962655D01*
X123590935Y-63028114D01*
X123532405Y-62918613D01*
X123421962Y-62784038D01*
X123287387Y-62673595D01*
X123133851Y-62591528D01*
X122967255Y-62540992D01*
X122794001Y-62523928D01*
X121553999Y-62523928D01*
X121380745Y-62540992D01*
X121214149Y-62591528D01*
X121060613Y-62673595D01*
X120926038Y-62784038D01*
X120815595Y-62918613D01*
X120733528Y-63072149D01*
X120682992Y-63238745D01*
X120665928Y-63411999D01*
X120665928Y-65112001D01*
X120682992Y-65285255D01*
X120733528Y-65451851D01*
X120815595Y-65605387D01*
X120926038Y-65739962D01*
X121060613Y-65850405D01*
X121214149Y-65932472D01*
X121380745Y-65983008D01*
X121553999Y-66000072D01*
X122794001Y-66000072D01*
X122967255Y-65983008D01*
X123133851Y-65932472D01*
X123287387Y-65850405D01*
X123421962Y-65739962D01*
X123532405Y-65605387D01*
X123590934Y-65495886D01*
X123644655Y-65561345D01*
X123873822Y-65749417D01*
X124135276Y-65889166D01*
X124418969Y-65975224D01*
X124598457Y-65992902D01*
X126938101Y-68332548D01*
X126973887Y-68376153D01*
X127017491Y-68411938D01*
X127017497Y-68411944D01*
X127128137Y-68502743D01*
X127147931Y-68518988D01*
X127346497Y-68625123D01*
X127496594Y-68670655D01*
X127561952Y-68690481D01*
X127584620Y-68692714D01*
X127729874Y-68707020D01*
X127729880Y-68707020D01*
X127786019Y-68712549D01*
X127842158Y-68707020D01*
X128726777Y-68707020D01*
X128915555Y-68785215D01*
X129160916Y-68834020D01*
X129411084Y-68834020D01*
X129656445Y-68785215D01*
X129887571Y-68689479D01*
X130095578Y-68550493D01*
X130272473Y-68373598D01*
X130411459Y-68165591D01*
X130507195Y-67934465D01*
X130556000Y-67689104D01*
X130556000Y-67438936D01*
X130507195Y-67193575D01*
X130411459Y-66962449D01*
X130272473Y-66754442D01*
X130095578Y-66577547D01*
X129887571Y-66438561D01*
X129656445Y-66342825D01*
X129411084Y-66294020D01*
X129160916Y-66294020D01*
X128915555Y-66342825D01*
X128726777Y-66421020D01*
X128259467Y-66421020D01*
X127752077Y-65913631D01*
X127832725Y-65889166D01*
X128094179Y-65749417D01*
X128323345Y-65561345D01*
X128511417Y-65332179D01*
X128524000Y-65308638D01*
X128536583Y-65332179D01*
X128724655Y-65561345D01*
X128953822Y-65749417D01*
X129215276Y-65889166D01*
X129498969Y-65975224D01*
X129794000Y-66004282D01*
X130089032Y-65975224D01*
X130372725Y-65889166D01*
X130634179Y-65749417D01*
X130863345Y-65561345D01*
X131051417Y-65332179D01*
X131191166Y-65070724D01*
X131277224Y-64787031D01*
X131299000Y-64565935D01*
X131299000Y-63958064D01*
X131277224Y-63736968D01*
X131191166Y-63453275D01*
X131148258Y-63373000D01*
X134893769Y-63373000D01*
X134889928Y-63411999D01*
X134889928Y-65112001D01*
X134906992Y-65285255D01*
X134957528Y-65451851D01*
X135039595Y-65605387D01*
X135150038Y-65739962D01*
X135284613Y-65850405D01*
X135438149Y-65932472D01*
X135604745Y-65983008D01*
X135777999Y-66000072D01*
X136431585Y-66000072D01*
X136398000Y-66168916D01*
X136398000Y-66419084D01*
X136446805Y-66664445D01*
X136542541Y-66895571D01*
X136681527Y-67103578D01*
X136858422Y-67280473D01*
X137066429Y-67419459D01*
X137297555Y-67515195D01*
X137542916Y-67564000D01*
X137793084Y-67564000D01*
X138038445Y-67515195D01*
X138227223Y-67437000D01*
X139619861Y-67437000D01*
X139676000Y-67442529D01*
X139732139Y-67437000D01*
X139732146Y-67437000D01*
X139900067Y-67420461D01*
X140115523Y-67355103D01*
X140314089Y-67248968D01*
X140488133Y-67106133D01*
X140523927Y-67062518D01*
X141593544Y-65992902D01*
X141773032Y-65975224D01*
X142056725Y-65889166D01*
X142318179Y-65749417D01*
X142547345Y-65561345D01*
X142735417Y-65332179D01*
X142748000Y-65308638D01*
X142760583Y-65332179D01*
X142948655Y-65561345D01*
X143177822Y-65749417D01*
X143439276Y-65889166D01*
X143722969Y-65975224D01*
X144018000Y-66004282D01*
X144313032Y-65975224D01*
X144596725Y-65889166D01*
X144858179Y-65749417D01*
X145087345Y-65561345D01*
X145275417Y-65332179D01*
X145415166Y-65070724D01*
X145501224Y-64787031D01*
X145523000Y-64565935D01*
X145523000Y-63958064D01*
X145501224Y-63736968D01*
X145415166Y-63453275D01*
X145275417Y-63191821D01*
X145145616Y-63033658D01*
X145144461Y-63021932D01*
X145079102Y-62806476D01*
X144972967Y-62607911D01*
X144865924Y-62477478D01*
X144058445Y-61670000D01*
X147596660Y-61670000D01*
X147415330Y-61791161D01*
X146881161Y-62325330D01*
X146461467Y-62953446D01*
X146172377Y-63651372D01*
X146025000Y-64392285D01*
X146025000Y-65147715D01*
X146172377Y-65888628D01*
X146461467Y-66586554D01*
X146881161Y-67214670D01*
X147415330Y-67748839D01*
X148043446Y-68168533D01*
X148741372Y-68457623D01*
X149482285Y-68605000D01*
X150237715Y-68605000D01*
X150978628Y-68457623D01*
X151676554Y-68168533D01*
X152304670Y-67748839D01*
X152838839Y-67214670D01*
X152960000Y-67033340D01*
X152960000Y-71193099D01*
X152953990Y-71178589D01*
X152791475Y-70935368D01*
X152584632Y-70728525D01*
X152341411Y-70566010D01*
X152071158Y-70454068D01*
X151784260Y-70397000D01*
X151491740Y-70397000D01*
X151204842Y-70454068D01*
X150934589Y-70566010D01*
X150691368Y-70728525D01*
X150484525Y-70935368D01*
X150322010Y-71178589D01*
X150210068Y-71448842D01*
X150153000Y-71735740D01*
X150153000Y-72028260D01*
X150210068Y-72315158D01*
X150322010Y-72585411D01*
X150484525Y-72828632D01*
X150691368Y-73035475D01*
X150865760Y-73152000D01*
X150691368Y-73268525D01*
X150484525Y-73475368D01*
X150322010Y-73718589D01*
X150210068Y-73988842D01*
X150153000Y-74275740D01*
X150153000Y-74568260D01*
X150210068Y-74855158D01*
X150322010Y-75125411D01*
X150484525Y-75368632D01*
X150691368Y-75575475D01*
X150865760Y-75692000D01*
X150691368Y-75808525D01*
X150484525Y-76015368D01*
X150322010Y-76258589D01*
X150210068Y-76528842D01*
X150153000Y-76815740D01*
X150153000Y-77108260D01*
X150210068Y-77395158D01*
X150322010Y-77665411D01*
X150484525Y-77908632D01*
X150616380Y-78040487D01*
X150543820Y-78062498D01*
X150433506Y-78121463D01*
X150336815Y-78200815D01*
X150257463Y-78297506D01*
X150198498Y-78407820D01*
X150162188Y-78527518D01*
X150149928Y-78652000D01*
X150153000Y-79216250D01*
X150311750Y-79375000D01*
X151511000Y-79375000D01*
X151511000Y-79355000D01*
X151765000Y-79355000D01*
X151765000Y-79375000D01*
X151785000Y-79375000D01*
X151785000Y-79629000D01*
X151765000Y-79629000D01*
X151765000Y-80828250D01*
X151923750Y-80987000D01*
X152488000Y-80990072D01*
X152612482Y-80977812D01*
X152732180Y-80941502D01*
X152842494Y-80882537D01*
X152939185Y-80803185D01*
X152960000Y-80777821D01*
X152960001Y-104416662D01*
X152838839Y-104235330D01*
X152304670Y-103701161D01*
X151676554Y-103281467D01*
X150978628Y-102992377D01*
X150237715Y-102845000D01*
X149482285Y-102845000D01*
X148741372Y-102992377D01*
X148043446Y-103281467D01*
X147415330Y-103701161D01*
X146881161Y-104235330D01*
X146461467Y-104863446D01*
X146172377Y-105561372D01*
X146025000Y-106302285D01*
X146025000Y-107057715D01*
X146172377Y-107798628D01*
X146461467Y-108496554D01*
X146881161Y-109124670D01*
X147415330Y-109658839D01*
X147596660Y-109780000D01*
X117833340Y-109780000D01*
X118014670Y-109658839D01*
X118548839Y-109124670D01*
X118968533Y-108496554D01*
X119257623Y-107798628D01*
X119360592Y-107280967D01*
X119523000Y-107280967D01*
X119523000Y-107603033D01*
X119585832Y-107918912D01*
X119709082Y-108216463D01*
X119888013Y-108484252D01*
X120115748Y-108711987D01*
X120383537Y-108890918D01*
X120681088Y-109014168D01*
X120996967Y-109077000D01*
X121319033Y-109077000D01*
X121634912Y-109014168D01*
X121932463Y-108890918D01*
X122200252Y-108711987D01*
X122427987Y-108484252D01*
X122606918Y-108216463D01*
X122730168Y-107918912D01*
X122793000Y-107603033D01*
X122793000Y-107280967D01*
X123841000Y-107280967D01*
X123841000Y-107603033D01*
X123903832Y-107918912D01*
X124027082Y-108216463D01*
X124206013Y-108484252D01*
X124433748Y-108711987D01*
X124701537Y-108890918D01*
X124999088Y-109014168D01*
X125314967Y-109077000D01*
X125637033Y-109077000D01*
X125952912Y-109014168D01*
X126250463Y-108890918D01*
X126518252Y-108711987D01*
X126745987Y-108484252D01*
X126924918Y-108216463D01*
X127048168Y-107918912D01*
X127111000Y-107603033D01*
X127111000Y-107280967D01*
X128159000Y-107280967D01*
X128159000Y-107603033D01*
X128221832Y-107918912D01*
X128345082Y-108216463D01*
X128524013Y-108484252D01*
X128751748Y-108711987D01*
X129019537Y-108890918D01*
X129317088Y-109014168D01*
X129632967Y-109077000D01*
X129955033Y-109077000D01*
X130270912Y-109014168D01*
X130568463Y-108890918D01*
X130836252Y-108711987D01*
X131063987Y-108484252D01*
X131242918Y-108216463D01*
X131366168Y-107918912D01*
X131429000Y-107603033D01*
X131429000Y-107298286D01*
X132606123Y-107298286D01*
X132662231Y-107589392D01*
X132774053Y-107863958D01*
X132937292Y-108111433D01*
X133145674Y-108322306D01*
X133391191Y-108488474D01*
X133664409Y-108603551D01*
X133751969Y-108620302D01*
X133985000Y-108499246D01*
X133985000Y-107061000D01*
X132761624Y-107061000D01*
X132606123Y-107298286D01*
X131429000Y-107298286D01*
X131429000Y-107280967D01*
X131366168Y-106965088D01*
X131242918Y-106667537D01*
X131177555Y-106569714D01*
X132606123Y-106569714D01*
X132761624Y-106807000D01*
X133985000Y-106807000D01*
X133985000Y-105368754D01*
X134239000Y-105368754D01*
X134239000Y-106807000D01*
X134259000Y-106807000D01*
X134259000Y-107061000D01*
X134239000Y-107061000D01*
X134239000Y-108499246D01*
X134472031Y-108620302D01*
X134559591Y-108603551D01*
X134832809Y-108488474D01*
X135078326Y-108322306D01*
X135286708Y-108111433D01*
X135379440Y-107970848D01*
X135394583Y-107999178D01*
X135582655Y-108228345D01*
X135811821Y-108416417D01*
X136073275Y-108556166D01*
X136356968Y-108642224D01*
X136652000Y-108671282D01*
X136947031Y-108642224D01*
X137230724Y-108556166D01*
X137492178Y-108416417D01*
X137721345Y-108228345D01*
X137909417Y-107999179D01*
X137922000Y-107975637D01*
X137934583Y-107999178D01*
X138122655Y-108228345D01*
X138351821Y-108416417D01*
X138613275Y-108556166D01*
X138896968Y-108642224D01*
X139192000Y-108671282D01*
X139487031Y-108642224D01*
X139770724Y-108556166D01*
X140032178Y-108416417D01*
X140261345Y-108228345D01*
X140449417Y-107999179D01*
X140462000Y-107975637D01*
X140474583Y-107999178D01*
X140662655Y-108228345D01*
X140891821Y-108416417D01*
X141153275Y-108556166D01*
X141436968Y-108642224D01*
X141732000Y-108671282D01*
X142027031Y-108642224D01*
X142310724Y-108556166D01*
X142572178Y-108416417D01*
X142801345Y-108228345D01*
X142855066Y-108162886D01*
X142913595Y-108272387D01*
X143024038Y-108406962D01*
X143158613Y-108517405D01*
X143312149Y-108599472D01*
X143478745Y-108650008D01*
X143651999Y-108667072D01*
X144892001Y-108667072D01*
X145065255Y-108650008D01*
X145231851Y-108599472D01*
X145385387Y-108517405D01*
X145519962Y-108406962D01*
X145630405Y-108272387D01*
X145712472Y-108118851D01*
X145763008Y-107952255D01*
X145780072Y-107779001D01*
X145780072Y-106088999D01*
X145763008Y-105915745D01*
X145712472Y-105749149D01*
X145630405Y-105595613D01*
X145519962Y-105461038D01*
X145385387Y-105350595D01*
X145231851Y-105268528D01*
X145065255Y-105217992D01*
X144892001Y-105200928D01*
X143651999Y-105200928D01*
X143478745Y-105217992D01*
X143312149Y-105268528D01*
X143158613Y-105350595D01*
X143024038Y-105461038D01*
X142913595Y-105595613D01*
X142855066Y-105705114D01*
X142801345Y-105639655D01*
X142572179Y-105451583D01*
X142310725Y-105311834D01*
X142027032Y-105225776D01*
X141732000Y-105196718D01*
X141436969Y-105225776D01*
X141153276Y-105311834D01*
X140891822Y-105451583D01*
X140662655Y-105639655D01*
X140474583Y-105868821D01*
X140462000Y-105892362D01*
X140449417Y-105868821D01*
X140261345Y-105639655D01*
X140032179Y-105451583D01*
X139770725Y-105311834D01*
X139487032Y-105225776D01*
X139192000Y-105196718D01*
X138896969Y-105225776D01*
X138613276Y-105311834D01*
X138351822Y-105451583D01*
X138122655Y-105639655D01*
X137934583Y-105868821D01*
X137922000Y-105892362D01*
X137909417Y-105868821D01*
X137721345Y-105639655D01*
X137492179Y-105451583D01*
X137230725Y-105311834D01*
X136947032Y-105225776D01*
X136652000Y-105196718D01*
X136356969Y-105225776D01*
X136073276Y-105311834D01*
X135811822Y-105451583D01*
X135582655Y-105639655D01*
X135394583Y-105868821D01*
X135379440Y-105897152D01*
X135286708Y-105756567D01*
X135078326Y-105545694D01*
X134832809Y-105379526D01*
X134559591Y-105264449D01*
X134472031Y-105247698D01*
X134239000Y-105368754D01*
X133985000Y-105368754D01*
X133751969Y-105247698D01*
X133664409Y-105264449D01*
X133391191Y-105379526D01*
X133145674Y-105545694D01*
X132937292Y-105756567D01*
X132774053Y-106004042D01*
X132662231Y-106278608D01*
X132606123Y-106569714D01*
X131177555Y-106569714D01*
X131063987Y-106399748D01*
X130836252Y-106172013D01*
X130568463Y-105993082D01*
X130270912Y-105869832D01*
X129955033Y-105807000D01*
X129632967Y-105807000D01*
X129317088Y-105869832D01*
X129019537Y-105993082D01*
X128751748Y-106172013D01*
X128524013Y-106399748D01*
X128345082Y-106667537D01*
X128221832Y-106965088D01*
X128159000Y-107280967D01*
X127111000Y-107280967D01*
X127048168Y-106965088D01*
X126924918Y-106667537D01*
X126745987Y-106399748D01*
X126518252Y-106172013D01*
X126250463Y-105993082D01*
X125952912Y-105869832D01*
X125637033Y-105807000D01*
X125314967Y-105807000D01*
X124999088Y-105869832D01*
X124701537Y-105993082D01*
X124433748Y-106172013D01*
X124206013Y-106399748D01*
X124027082Y-106667537D01*
X123903832Y-106965088D01*
X123841000Y-107280967D01*
X122793000Y-107280967D01*
X122730168Y-106965088D01*
X122606918Y-106667537D01*
X122427987Y-106399748D01*
X122200252Y-106172013D01*
X121932463Y-105993082D01*
X121634912Y-105869832D01*
X121319033Y-105807000D01*
X120996967Y-105807000D01*
X120681088Y-105869832D01*
X120383537Y-105993082D01*
X120115748Y-106172013D01*
X119888013Y-106399748D01*
X119709082Y-106667537D01*
X119585832Y-106965088D01*
X119523000Y-107280967D01*
X119360592Y-107280967D01*
X119405000Y-107057715D01*
X119405000Y-106302285D01*
X119257623Y-105561372D01*
X118968533Y-104863446D01*
X118548839Y-104235330D01*
X118014670Y-103701161D01*
X117386554Y-103281467D01*
X116688628Y-102992377D01*
X115947715Y-102845000D01*
X115192285Y-102845000D01*
X114451372Y-102992377D01*
X113753446Y-103281467D01*
X113125330Y-103701161D01*
X112591161Y-104235330D01*
X112470000Y-104416660D01*
X112470000Y-101699738D01*
X112733616Y-101827224D01*
X113036286Y-101905829D01*
X113348474Y-101923877D01*
X113658185Y-101880672D01*
X113953516Y-101777877D01*
X114115902Y-101691081D01*
X114205930Y-101431535D01*
X113284000Y-100509605D01*
X113269858Y-100523748D01*
X113090253Y-100344143D01*
X113104395Y-100330000D01*
X113463605Y-100330000D01*
X114385535Y-101251930D01*
X114645081Y-101161902D01*
X114781224Y-100880384D01*
X114859829Y-100577714D01*
X114877877Y-100265526D01*
X114865060Y-100173645D01*
X116776500Y-100173645D01*
X116776500Y-100486355D01*
X116837507Y-100793057D01*
X116957176Y-101081963D01*
X117130908Y-101341972D01*
X117352028Y-101563092D01*
X117612037Y-101736824D01*
X117900943Y-101856493D01*
X118207645Y-101917500D01*
X118520355Y-101917500D01*
X118827057Y-101856493D01*
X119115963Y-101736824D01*
X119375972Y-101563092D01*
X119597092Y-101341972D01*
X119634000Y-101286735D01*
X119670908Y-101341972D01*
X119892028Y-101563092D01*
X120152037Y-101736824D01*
X120440943Y-101856493D01*
X120747645Y-101917500D01*
X121060355Y-101917500D01*
X121367057Y-101856493D01*
X121655963Y-101736824D01*
X121915972Y-101563092D01*
X122137092Y-101341972D01*
X122174000Y-101286735D01*
X122210908Y-101341972D01*
X122432028Y-101563092D01*
X122692037Y-101736824D01*
X122809000Y-101785272D01*
X122809000Y-101954067D01*
X122848044Y-102150356D01*
X122924632Y-102335256D01*
X123035821Y-102501662D01*
X123113800Y-102579641D01*
X123113801Y-102652358D01*
X123035821Y-102730338D01*
X122924632Y-102896744D01*
X122848044Y-103081644D01*
X122809000Y-103277933D01*
X122809000Y-103478067D01*
X122848044Y-103674356D01*
X122924632Y-103859256D01*
X123035821Y-104025662D01*
X123177338Y-104167179D01*
X123343744Y-104278368D01*
X123528644Y-104354956D01*
X123724933Y-104394000D01*
X123925067Y-104394000D01*
X124121356Y-104354956D01*
X124306256Y-104278368D01*
X124472662Y-104167179D01*
X124614179Y-104025662D01*
X124725368Y-103859256D01*
X124801956Y-103674356D01*
X124841000Y-103478067D01*
X124841000Y-103277933D01*
X124801956Y-103081644D01*
X124725368Y-102896744D01*
X124614179Y-102730338D01*
X124536200Y-102652359D01*
X124536200Y-102579641D01*
X124614179Y-102501662D01*
X124725368Y-102335256D01*
X124801956Y-102150356D01*
X124841000Y-101954067D01*
X124841000Y-101753933D01*
X124801956Y-101557644D01*
X124725368Y-101372744D01*
X124690949Y-101321233D01*
X124850824Y-101081963D01*
X124970493Y-100793057D01*
X125031500Y-100486355D01*
X125031500Y-100173645D01*
X124970493Y-99866943D01*
X124850824Y-99578037D01*
X124792668Y-99491000D01*
X132255332Y-99491000D01*
X132197176Y-99578037D01*
X132077507Y-99866943D01*
X132016500Y-100173645D01*
X132016500Y-100486355D01*
X132077507Y-100793057D01*
X132197176Y-101081963D01*
X132370908Y-101341972D01*
X132592028Y-101563092D01*
X132852037Y-101736824D01*
X133140943Y-101856493D01*
X133447645Y-101917500D01*
X133760355Y-101917500D01*
X134067057Y-101856493D01*
X134355963Y-101736824D01*
X134615972Y-101563092D01*
X134837092Y-101341972D01*
X135010824Y-101081963D01*
X135130493Y-100793057D01*
X135191500Y-100486355D01*
X135191500Y-100173645D01*
X135130493Y-99866943D01*
X135010824Y-99578037D01*
X134952668Y-99491000D01*
X137634353Y-99491000D01*
X137668000Y-99494314D01*
X137802283Y-99481088D01*
X137931406Y-99441919D01*
X138050407Y-99378312D01*
X138154711Y-99292711D01*
X138240312Y-99188407D01*
X138303919Y-99069406D01*
X138343088Y-98940283D01*
X138353000Y-98839647D01*
X138353000Y-98839646D01*
X138356314Y-98806000D01*
X138353000Y-98772353D01*
X138353000Y-95093645D01*
X144716500Y-95093645D01*
X144716500Y-95406355D01*
X144777507Y-95713057D01*
X144897176Y-96001963D01*
X145070908Y-96261972D01*
X145292028Y-96483092D01*
X145552037Y-96656824D01*
X145840943Y-96776493D01*
X146147645Y-96837500D01*
X146460355Y-96837500D01*
X146767057Y-96776493D01*
X147055963Y-96656824D01*
X147315972Y-96483092D01*
X147537092Y-96261972D01*
X147710824Y-96001963D01*
X147830493Y-95713057D01*
X147891500Y-95406355D01*
X147891500Y-95093645D01*
X147830493Y-94786943D01*
X147710824Y-94498037D01*
X147537092Y-94238028D01*
X147315972Y-94016908D01*
X147185039Y-93929422D01*
X147225930Y-93811535D01*
X146304000Y-92889605D01*
X145382070Y-93811535D01*
X145422961Y-93929422D01*
X145292028Y-94016908D01*
X145070908Y-94238028D01*
X144897176Y-94498037D01*
X144777507Y-94786943D01*
X144716500Y-95093645D01*
X138353000Y-95093645D01*
X138353000Y-92774474D01*
X144710123Y-92774474D01*
X144753328Y-93084185D01*
X144856123Y-93379516D01*
X144942919Y-93541902D01*
X145202465Y-93631930D01*
X146124395Y-92710000D01*
X146483605Y-92710000D01*
X147405535Y-93631930D01*
X147665081Y-93541902D01*
X147801224Y-93260384D01*
X147879829Y-92957714D01*
X147897877Y-92645526D01*
X147854672Y-92335815D01*
X147751877Y-92040484D01*
X147665081Y-91878098D01*
X147405535Y-91788070D01*
X146483605Y-92710000D01*
X146124395Y-92710000D01*
X145202465Y-91788070D01*
X144942919Y-91878098D01*
X144806776Y-92159616D01*
X144728171Y-92462286D01*
X144710123Y-92774474D01*
X138353000Y-92774474D01*
X138353000Y-91608465D01*
X145382070Y-91608465D01*
X146304000Y-92530395D01*
X147225930Y-91608465D01*
X147135902Y-91348919D01*
X146854384Y-91212776D01*
X146551714Y-91134171D01*
X146239526Y-91116123D01*
X145929815Y-91159328D01*
X145634484Y-91262123D01*
X145472098Y-91348919D01*
X145382070Y-91608465D01*
X138353000Y-91608465D01*
X138353000Y-87409647D01*
X138356314Y-87376000D01*
X138343088Y-87241717D01*
X138303919Y-87112594D01*
X138240312Y-86993593D01*
X138154711Y-86889289D01*
X138050407Y-86803688D01*
X137931406Y-86740081D01*
X137802283Y-86700912D01*
X137701647Y-86691000D01*
X137668000Y-86687686D01*
X137634353Y-86691000D01*
X123207647Y-86691000D01*
X123174000Y-86687686D01*
X123140353Y-86691000D01*
X123039717Y-86700912D01*
X122910594Y-86740081D01*
X122791593Y-86803688D01*
X122687289Y-86889289D01*
X122601688Y-86993593D01*
X122538081Y-87112594D01*
X122498912Y-87241717D01*
X122485686Y-87376000D01*
X122489001Y-87409657D01*
X122489000Y-98772353D01*
X122485686Y-98806000D01*
X122498912Y-98940283D01*
X122527145Y-99033353D01*
X122432028Y-99096908D01*
X122210908Y-99318028D01*
X122174000Y-99373265D01*
X122137092Y-99318028D01*
X121915972Y-99096908D01*
X121655963Y-98923176D01*
X121367057Y-98803507D01*
X121060355Y-98742500D01*
X120747645Y-98742500D01*
X120440943Y-98803507D01*
X120152037Y-98923176D01*
X119892028Y-99096908D01*
X119670908Y-99318028D01*
X119634000Y-99373265D01*
X119597092Y-99318028D01*
X119375972Y-99096908D01*
X119115963Y-98923176D01*
X118827057Y-98803507D01*
X118520355Y-98742500D01*
X118207645Y-98742500D01*
X117900943Y-98803507D01*
X117612037Y-98923176D01*
X117352028Y-99096908D01*
X117130908Y-99318028D01*
X116957176Y-99578037D01*
X116837507Y-99866943D01*
X116776500Y-100173645D01*
X114865060Y-100173645D01*
X114834672Y-99955815D01*
X114731877Y-99660484D01*
X114645081Y-99498098D01*
X114385535Y-99408070D01*
X113463605Y-100330000D01*
X113104395Y-100330000D01*
X113090253Y-100315858D01*
X113269858Y-100136253D01*
X113284000Y-100150395D01*
X114205930Y-99228465D01*
X114115902Y-98968919D01*
X113834384Y-98832776D01*
X113531714Y-98754171D01*
X113219526Y-98736123D01*
X112909815Y-98779328D01*
X112614484Y-98882123D01*
X112470000Y-98959350D01*
X112470000Y-86455372D01*
X112532037Y-86496824D01*
X112820943Y-86616493D01*
X113127645Y-86677500D01*
X113440355Y-86677500D01*
X113747057Y-86616493D01*
X114035963Y-86496824D01*
X114295972Y-86323092D01*
X114427529Y-86191535D01*
X114902070Y-86191535D01*
X114992098Y-86451081D01*
X115273616Y-86587224D01*
X115576286Y-86665829D01*
X115888474Y-86683877D01*
X116198185Y-86640672D01*
X116493516Y-86537877D01*
X116655902Y-86451081D01*
X116745930Y-86191535D01*
X115824000Y-85269605D01*
X114902070Y-86191535D01*
X114427529Y-86191535D01*
X114517092Y-86101972D01*
X114604578Y-85971039D01*
X114722465Y-86011930D01*
X115644395Y-85090000D01*
X116003605Y-85090000D01*
X116925535Y-86011930D01*
X117043422Y-85971039D01*
X117130908Y-86101972D01*
X117352028Y-86323092D01*
X117612037Y-86496824D01*
X117900943Y-86616493D01*
X118207645Y-86677500D01*
X118520355Y-86677500D01*
X118827057Y-86616493D01*
X119115963Y-86496824D01*
X119375972Y-86323092D01*
X119597092Y-86101972D01*
X119634000Y-86046735D01*
X119670908Y-86101972D01*
X119892028Y-86323092D01*
X120152037Y-86496824D01*
X120440943Y-86616493D01*
X120747645Y-86677500D01*
X121060355Y-86677500D01*
X121367057Y-86616493D01*
X121655963Y-86496824D01*
X121915972Y-86323092D01*
X122137092Y-86101972D01*
X122310824Y-85841963D01*
X122430493Y-85553057D01*
X122491500Y-85246355D01*
X122491500Y-84933645D01*
X134556500Y-84933645D01*
X134556500Y-85246355D01*
X134617507Y-85553057D01*
X134737176Y-85841963D01*
X134910908Y-86101972D01*
X135132028Y-86323092D01*
X135392037Y-86496824D01*
X135680943Y-86616493D01*
X135987645Y-86677500D01*
X136300355Y-86677500D01*
X136607057Y-86616493D01*
X136895963Y-86496824D01*
X137155972Y-86323092D01*
X137377092Y-86101972D01*
X137550824Y-85841963D01*
X137670493Y-85553057D01*
X137731500Y-85246355D01*
X137731500Y-84933645D01*
X139636500Y-84933645D01*
X139636500Y-85246355D01*
X139697507Y-85553057D01*
X139817176Y-85841963D01*
X139990908Y-86101972D01*
X140212028Y-86323092D01*
X140472037Y-86496824D01*
X140760943Y-86616493D01*
X141067645Y-86677500D01*
X141380355Y-86677500D01*
X141687057Y-86616493D01*
X141975963Y-86496824D01*
X142235972Y-86323092D01*
X142457092Y-86101972D01*
X142494000Y-86046735D01*
X142530908Y-86101972D01*
X142752028Y-86323092D01*
X143012037Y-86496824D01*
X143300943Y-86616493D01*
X143607645Y-86677500D01*
X143920355Y-86677500D01*
X144227057Y-86616493D01*
X144515963Y-86496824D01*
X144775972Y-86323092D01*
X144997092Y-86101972D01*
X145170824Y-85841963D01*
X145290493Y-85553057D01*
X145351500Y-85246355D01*
X145351500Y-84933645D01*
X145290493Y-84626943D01*
X145170824Y-84338037D01*
X144997092Y-84078028D01*
X144775972Y-83856908D01*
X144515963Y-83683176D01*
X144227057Y-83563507D01*
X143920355Y-83502500D01*
X143607645Y-83502500D01*
X143300943Y-83563507D01*
X143012037Y-83683176D01*
X142752028Y-83856908D01*
X142530908Y-84078028D01*
X142494000Y-84133265D01*
X142457092Y-84078028D01*
X142235972Y-83856908D01*
X141975963Y-83683176D01*
X141687057Y-83563507D01*
X141380355Y-83502500D01*
X141067645Y-83502500D01*
X140760943Y-83563507D01*
X140472037Y-83683176D01*
X140212028Y-83856908D01*
X139990908Y-84078028D01*
X139817176Y-84338037D01*
X139697507Y-84626943D01*
X139636500Y-84933645D01*
X137731500Y-84933645D01*
X137670493Y-84626943D01*
X137550824Y-84338037D01*
X137377092Y-84078028D01*
X137155972Y-83856908D01*
X136895963Y-83683176D01*
X136607057Y-83563507D01*
X136300355Y-83502500D01*
X135987645Y-83502500D01*
X135680943Y-83563507D01*
X135392037Y-83683176D01*
X135132028Y-83856908D01*
X134910908Y-84078028D01*
X134737176Y-84338037D01*
X134617507Y-84626943D01*
X134556500Y-84933645D01*
X122491500Y-84933645D01*
X122430493Y-84626943D01*
X122310824Y-84338037D01*
X122137092Y-84078028D01*
X121915972Y-83856908D01*
X121655963Y-83683176D01*
X121367057Y-83563507D01*
X121060355Y-83502500D01*
X120747645Y-83502500D01*
X120440943Y-83563507D01*
X120152037Y-83683176D01*
X119892028Y-83856908D01*
X119670908Y-84078028D01*
X119634000Y-84133265D01*
X119597092Y-84078028D01*
X119380000Y-83860936D01*
X119380000Y-80543960D01*
X119463075Y-80343401D01*
X119507000Y-80122576D01*
X119507000Y-79897424D01*
X119463075Y-79676599D01*
X119376913Y-79468587D01*
X119251826Y-79281380D01*
X119092620Y-79122174D01*
X118905413Y-78997087D01*
X118697401Y-78910925D01*
X118476576Y-78867000D01*
X118251424Y-78867000D01*
X118030599Y-78910925D01*
X117822587Y-78997087D01*
X117635380Y-79122174D01*
X117476174Y-79281380D01*
X117351087Y-79468587D01*
X117264925Y-79676599D01*
X117221000Y-79897424D01*
X117221000Y-80122576D01*
X117264925Y-80343401D01*
X117348000Y-80543961D01*
X117348001Y-81992089D01*
X117348000Y-81992099D01*
X117348001Y-83860935D01*
X117130908Y-84078028D01*
X117043422Y-84208961D01*
X116925535Y-84168070D01*
X116003605Y-85090000D01*
X115644395Y-85090000D01*
X114722465Y-84168070D01*
X114604578Y-84208961D01*
X114517092Y-84078028D01*
X114427529Y-83988465D01*
X114902070Y-83988465D01*
X115824000Y-84910395D01*
X116745930Y-83988465D01*
X116655902Y-83728919D01*
X116374384Y-83592776D01*
X116071714Y-83514171D01*
X115759526Y-83496123D01*
X115449815Y-83539328D01*
X115154484Y-83642123D01*
X114992098Y-83728919D01*
X114902070Y-83988465D01*
X114427529Y-83988465D01*
X114295972Y-83856908D01*
X114035963Y-83683176D01*
X113747057Y-83563507D01*
X113440355Y-83502500D01*
X113127645Y-83502500D01*
X112820943Y-83563507D01*
X112532037Y-83683176D01*
X112470000Y-83724628D01*
X112470000Y-78197967D01*
X122317000Y-78197967D01*
X122317000Y-78520033D01*
X122379832Y-78835912D01*
X122503082Y-79133463D01*
X122682013Y-79401252D01*
X122732801Y-79452040D01*
X122732800Y-81570359D01*
X122654821Y-81648338D01*
X122543632Y-81814744D01*
X122467044Y-81999644D01*
X122428000Y-82195933D01*
X122428000Y-82396067D01*
X122467044Y-82592356D01*
X122543632Y-82777256D01*
X122654821Y-82943662D01*
X122796338Y-83085179D01*
X122962744Y-83196368D01*
X123147644Y-83272956D01*
X123343933Y-83312000D01*
X123544067Y-83312000D01*
X123740356Y-83272956D01*
X123925256Y-83196368D01*
X124091662Y-83085179D01*
X124233179Y-82943662D01*
X124344368Y-82777256D01*
X124420956Y-82592356D01*
X124460000Y-82396067D01*
X124460000Y-82195933D01*
X124420956Y-81999644D01*
X124344368Y-81814744D01*
X124233179Y-81648338D01*
X124155200Y-81570359D01*
X124155200Y-79985612D01*
X124428912Y-79931168D01*
X124726463Y-79807918D01*
X124994252Y-79628987D01*
X125221987Y-79401252D01*
X125400918Y-79133463D01*
X125524168Y-78835912D01*
X125587000Y-78520033D01*
X125587000Y-78197967D01*
X125524168Y-77882088D01*
X125400918Y-77584537D01*
X125221987Y-77316748D01*
X124994252Y-77089013D01*
X124726463Y-76910082D01*
X124428912Y-76786832D01*
X124113033Y-76724000D01*
X123790967Y-76724000D01*
X123475088Y-76786832D01*
X123177537Y-76910082D01*
X122909748Y-77089013D01*
X122682013Y-77316748D01*
X122503082Y-77584537D01*
X122379832Y-77882088D01*
X122317000Y-78197967D01*
X112470000Y-78197967D01*
X112470000Y-75811413D01*
X113090192Y-75811413D01*
X113185956Y-76075814D01*
X113475571Y-76216704D01*
X113787108Y-76298384D01*
X114108595Y-76317718D01*
X114427675Y-76273961D01*
X114732088Y-76168795D01*
X114906044Y-76075814D01*
X115001808Y-75811413D01*
X114046000Y-74855605D01*
X113090192Y-75811413D01*
X112470000Y-75811413D01*
X112470000Y-75121243D01*
X112553205Y-75362088D01*
X112646186Y-75536044D01*
X112910587Y-75631808D01*
X113866395Y-74676000D01*
X114225605Y-74676000D01*
X115181413Y-75631808D01*
X115445814Y-75536044D01*
X115586704Y-75246429D01*
X115668384Y-74934892D01*
X115687718Y-74613405D01*
X115643961Y-74294325D01*
X115538795Y-73989912D01*
X115445814Y-73815956D01*
X115181413Y-73720192D01*
X114225605Y-74676000D01*
X113866395Y-74676000D01*
X112910587Y-73720192D01*
X112646186Y-73815956D01*
X112505296Y-74105571D01*
X112470000Y-74240194D01*
X112470000Y-73540587D01*
X113090192Y-73540587D01*
X114046000Y-74496395D01*
X114982462Y-73559933D01*
X124714000Y-73559933D01*
X124714000Y-73760067D01*
X124753044Y-73956356D01*
X124829632Y-74141256D01*
X124940821Y-74307662D01*
X125082338Y-74449179D01*
X125248744Y-74560368D01*
X125433644Y-74636956D01*
X125629933Y-74676000D01*
X125830067Y-74676000D01*
X126026356Y-74636956D01*
X126211256Y-74560368D01*
X126377662Y-74449179D01*
X126455641Y-74371200D01*
X127219074Y-74371200D01*
X127254000Y-74374640D01*
X127288926Y-74371200D01*
X127288936Y-74371200D01*
X127393420Y-74360909D01*
X127527481Y-74320242D01*
X127651033Y-74254202D01*
X127759327Y-74165327D01*
X127781601Y-74138186D01*
X128177951Y-73741838D01*
X128239243Y-73691536D01*
X128335506Y-73770537D01*
X128445820Y-73829502D01*
X128518380Y-73851513D01*
X128386525Y-73983368D01*
X128224010Y-74226589D01*
X128112068Y-74496842D01*
X128055000Y-74783740D01*
X128055000Y-75076260D01*
X128112068Y-75363158D01*
X128224010Y-75633411D01*
X128386525Y-75876632D01*
X128593368Y-76083475D01*
X128767760Y-76200000D01*
X128593368Y-76316525D01*
X128386525Y-76523368D01*
X128224010Y-76766589D01*
X128112068Y-77036842D01*
X128055000Y-77323740D01*
X128055000Y-77616260D01*
X128112068Y-77903158D01*
X128224010Y-78173411D01*
X128386525Y-78416632D01*
X128593368Y-78623475D01*
X128836589Y-78785990D01*
X129106842Y-78897932D01*
X129393740Y-78955000D01*
X129686260Y-78955000D01*
X129973158Y-78897932D01*
X130243411Y-78785990D01*
X130486632Y-78623475D01*
X130693475Y-78416632D01*
X130839582Y-78197967D01*
X135017000Y-78197967D01*
X135017000Y-78520033D01*
X135079832Y-78835912D01*
X135203082Y-79133463D01*
X135382013Y-79401252D01*
X135609748Y-79628987D01*
X135877537Y-79807918D01*
X136175088Y-79931168D01*
X136490967Y-79994000D01*
X136813033Y-79994000D01*
X137128912Y-79931168D01*
X137426463Y-79807918D01*
X137694252Y-79628987D01*
X137921987Y-79401252D01*
X138100918Y-79133463D01*
X138127122Y-79070200D01*
X138770413Y-79070200D01*
X140004800Y-80304589D01*
X140004801Y-81570358D01*
X139926821Y-81648338D01*
X139815632Y-81814744D01*
X139739044Y-81999644D01*
X139700000Y-82195933D01*
X139700000Y-82396067D01*
X139739044Y-82592356D01*
X139815632Y-82777256D01*
X139926821Y-82943662D01*
X140068338Y-83085179D01*
X140234744Y-83196368D01*
X140419644Y-83272956D01*
X140615933Y-83312000D01*
X140816067Y-83312000D01*
X141012356Y-83272956D01*
X141197256Y-83196368D01*
X141363662Y-83085179D01*
X141505179Y-82943662D01*
X141616368Y-82777256D01*
X141692956Y-82592356D01*
X141732000Y-82396067D01*
X141732000Y-82195933D01*
X141692956Y-81999644D01*
X141616368Y-81814744D01*
X141575155Y-81753064D01*
X146354798Y-81753064D01*
X146354798Y-81822937D01*
X146365089Y-81927421D01*
X146405756Y-82061482D01*
X146471796Y-82185034D01*
X146560671Y-82293328D01*
X146668965Y-82382204D01*
X146792517Y-82448244D01*
X146926578Y-82488911D01*
X147065998Y-82502643D01*
X147205417Y-82488911D01*
X147339478Y-82448244D01*
X147463030Y-82382204D01*
X147571324Y-82293329D01*
X147660200Y-82185035D01*
X147726240Y-82061483D01*
X147766907Y-81927422D01*
X147777198Y-81822938D01*
X147777198Y-81753065D01*
X147766907Y-81648581D01*
X147726240Y-81514520D01*
X147660200Y-81390968D01*
X147571325Y-81282674D01*
X147463031Y-81193798D01*
X147339479Y-81127758D01*
X147205418Y-81087091D01*
X147065998Y-81073359D01*
X146926579Y-81087091D01*
X146792518Y-81127758D01*
X146668966Y-81193798D01*
X146560672Y-81282673D01*
X146471796Y-81390967D01*
X146405756Y-81514519D01*
X146365089Y-81648580D01*
X146354798Y-81753064D01*
X141575155Y-81753064D01*
X141505179Y-81648338D01*
X141427200Y-81570359D01*
X141427200Y-80352000D01*
X150149928Y-80352000D01*
X150162188Y-80476482D01*
X150198498Y-80596180D01*
X150257463Y-80706494D01*
X150336815Y-80803185D01*
X150433506Y-80882537D01*
X150543820Y-80941502D01*
X150663518Y-80977812D01*
X150788000Y-80990072D01*
X151352250Y-80987000D01*
X151511000Y-80828250D01*
X151511000Y-79629000D01*
X150311750Y-79629000D01*
X150153000Y-79787750D01*
X150149928Y-80352000D01*
X141427200Y-80352000D01*
X141427200Y-80044928D01*
X141430640Y-80010000D01*
X141427200Y-79975071D01*
X141427200Y-79975064D01*
X141416909Y-79870580D01*
X141391783Y-79787750D01*
X141376242Y-79736518D01*
X141310202Y-79612967D01*
X141243598Y-79531809D01*
X141243588Y-79531799D01*
X141221326Y-79504673D01*
X141194201Y-79482412D01*
X139592602Y-77880814D01*
X139570327Y-77853673D01*
X139462033Y-77764798D01*
X139338481Y-77698758D01*
X139204420Y-77658091D01*
X139099936Y-77647800D01*
X139099926Y-77647800D01*
X139065000Y-77644360D01*
X139030074Y-77647800D01*
X138127122Y-77647800D01*
X138100918Y-77584537D01*
X137921987Y-77316748D01*
X137694252Y-77089013D01*
X137426463Y-76910082D01*
X137128912Y-76786832D01*
X136813033Y-76724000D01*
X136490967Y-76724000D01*
X136175088Y-76786832D01*
X135877537Y-76910082D01*
X135609748Y-77089013D01*
X135382013Y-77316748D01*
X135203082Y-77584537D01*
X135079832Y-77882088D01*
X135017000Y-78197967D01*
X130839582Y-78197967D01*
X130855990Y-78173411D01*
X130967932Y-77903158D01*
X131025000Y-77616260D01*
X131025000Y-77323740D01*
X130967932Y-77036842D01*
X130855990Y-76766589D01*
X130693475Y-76523368D01*
X130486632Y-76316525D01*
X130312240Y-76200000D01*
X130486632Y-76083475D01*
X130693475Y-75876632D01*
X130855990Y-75633411D01*
X130967932Y-75363158D01*
X131025000Y-75076260D01*
X131025000Y-74783740D01*
X130967932Y-74496842D01*
X130855990Y-74226589D01*
X130693475Y-73983368D01*
X130561620Y-73851513D01*
X130634180Y-73829502D01*
X130744494Y-73770537D01*
X130841185Y-73691185D01*
X130920537Y-73594494D01*
X130939010Y-73559933D01*
X137160000Y-73559933D01*
X137160000Y-73760067D01*
X137199044Y-73956356D01*
X137275632Y-74141256D01*
X137386821Y-74307662D01*
X137528338Y-74449179D01*
X137694744Y-74560368D01*
X137879644Y-74636956D01*
X138075933Y-74676000D01*
X138276067Y-74676000D01*
X138472356Y-74636956D01*
X138657256Y-74560368D01*
X138823662Y-74449179D01*
X138901641Y-74371200D01*
X139919074Y-74371200D01*
X139954000Y-74374640D01*
X139988926Y-74371200D01*
X139988936Y-74371200D01*
X140093420Y-74360909D01*
X140227481Y-74320242D01*
X140351033Y-74254202D01*
X140459327Y-74165327D01*
X140481601Y-74138186D01*
X140934212Y-73685576D01*
X140938815Y-73691185D01*
X141035506Y-73770537D01*
X141145820Y-73829502D01*
X141218380Y-73851513D01*
X141086525Y-73983368D01*
X140924010Y-74226589D01*
X140812068Y-74496842D01*
X140755000Y-74783740D01*
X140755000Y-75076260D01*
X140812068Y-75363158D01*
X140924010Y-75633411D01*
X141086525Y-75876632D01*
X141293368Y-76083475D01*
X141467760Y-76200000D01*
X141293368Y-76316525D01*
X141086525Y-76523368D01*
X140924010Y-76766589D01*
X140812068Y-77036842D01*
X140755000Y-77323740D01*
X140755000Y-77616260D01*
X140812068Y-77903158D01*
X140924010Y-78173411D01*
X141086525Y-78416632D01*
X141293368Y-78623475D01*
X141536589Y-78785990D01*
X141806842Y-78897932D01*
X142093740Y-78955000D01*
X142386260Y-78955000D01*
X142673158Y-78897932D01*
X142943411Y-78785990D01*
X143186632Y-78623475D01*
X143393475Y-78416632D01*
X143555990Y-78173411D01*
X143667932Y-77903158D01*
X143725000Y-77616260D01*
X143725000Y-77323740D01*
X143667932Y-77036842D01*
X143555990Y-76766589D01*
X143393475Y-76523368D01*
X143186632Y-76316525D01*
X143012240Y-76200000D01*
X143186632Y-76083475D01*
X143393475Y-75876632D01*
X143555990Y-75633411D01*
X143667932Y-75363158D01*
X143725000Y-75076260D01*
X143725000Y-74783740D01*
X143667932Y-74496842D01*
X143555990Y-74226589D01*
X143393475Y-73983368D01*
X143261620Y-73851513D01*
X143334180Y-73829502D01*
X143444494Y-73770537D01*
X143541185Y-73691185D01*
X143620537Y-73594494D01*
X143679502Y-73484180D01*
X143715812Y-73364482D01*
X143728072Y-73240000D01*
X143728072Y-71540000D01*
X143715812Y-71415518D01*
X143679502Y-71295820D01*
X143620537Y-71185506D01*
X143541185Y-71088815D01*
X143444494Y-71009463D01*
X143334180Y-70950498D01*
X143214482Y-70914188D01*
X143090000Y-70901928D01*
X141390000Y-70901928D01*
X141265518Y-70914188D01*
X141145820Y-70950498D01*
X141035506Y-71009463D01*
X140938815Y-71088815D01*
X140859463Y-71185506D01*
X140800498Y-71295820D01*
X140764188Y-71415518D01*
X140751928Y-71540000D01*
X140751928Y-71857380D01*
X140745808Y-71862403D01*
X140745804Y-71862407D01*
X140718673Y-71884673D01*
X140696407Y-71911804D01*
X139659413Y-72948800D01*
X138901641Y-72948800D01*
X138823662Y-72870821D01*
X138657256Y-72759632D01*
X138472356Y-72683044D01*
X138276067Y-72644000D01*
X138075933Y-72644000D01*
X137879644Y-72683044D01*
X137694744Y-72759632D01*
X137528338Y-72870821D01*
X137386821Y-73012338D01*
X137275632Y-73178744D01*
X137199044Y-73363644D01*
X137160000Y-73559933D01*
X130939010Y-73559933D01*
X130979502Y-73484180D01*
X131015812Y-73364482D01*
X131028072Y-73240000D01*
X131028072Y-71540000D01*
X131015812Y-71415518D01*
X130979502Y-71295820D01*
X130920537Y-71185506D01*
X130841185Y-71088815D01*
X130744494Y-71009463D01*
X130634180Y-70950498D01*
X130514482Y-70914188D01*
X130390000Y-70901928D01*
X128690000Y-70901928D01*
X128565518Y-70914188D01*
X128445820Y-70950498D01*
X128335506Y-71009463D01*
X128238815Y-71088815D01*
X128159463Y-71185506D01*
X128100498Y-71295820D01*
X128064188Y-71415518D01*
X128051928Y-71540000D01*
X128051928Y-71868542D01*
X128032273Y-71884673D01*
X128010007Y-71911804D01*
X127359656Y-72562157D01*
X127283808Y-72624403D01*
X127283804Y-72624407D01*
X127256673Y-72646673D01*
X127234407Y-72673805D01*
X126959412Y-72948800D01*
X126455641Y-72948800D01*
X126377662Y-72870821D01*
X126211256Y-72759632D01*
X126026356Y-72683044D01*
X125830067Y-72644000D01*
X125629933Y-72644000D01*
X125433644Y-72683044D01*
X125248744Y-72759632D01*
X125082338Y-72870821D01*
X124940821Y-73012338D01*
X124829632Y-73178744D01*
X124753044Y-73363644D01*
X124714000Y-73559933D01*
X114982462Y-73559933D01*
X115001808Y-73540587D01*
X114906044Y-73276186D01*
X114616429Y-73135296D01*
X114304892Y-73053616D01*
X113983405Y-73034282D01*
X113664325Y-73078039D01*
X113359912Y-73183205D01*
X113185956Y-73276186D01*
X113090192Y-73540587D01*
X112470000Y-73540587D01*
X112470000Y-67033340D01*
X112591161Y-67214670D01*
X113125330Y-67748839D01*
X113753446Y-68168533D01*
X114451372Y-68457623D01*
X115192285Y-68605000D01*
X115947715Y-68605000D01*
X116688628Y-68457623D01*
X117386554Y-68168533D01*
X118014670Y-67748839D01*
X118548839Y-67214670D01*
X118968533Y-66586554D01*
X119257623Y-65888628D01*
X119405000Y-65147715D01*
X119405000Y-64392285D01*
X119257623Y-63651372D01*
X118968533Y-62953446D01*
X118548839Y-62325330D01*
X118014670Y-61791161D01*
X117833340Y-61670000D01*
X129499555Y-61670000D01*
X129025483Y-62144072D01*
G37*
X129025483Y-62144072D02*
X128981867Y-62179867D01*
X128839032Y-62353912D01*
X128732897Y-62552478D01*
X128667539Y-62767934D01*
X128651000Y-62935855D01*
X128651000Y-62935861D01*
X128645471Y-62992000D01*
X128651000Y-63048139D01*
X128651000Y-63052404D01*
X128536583Y-63191822D01*
X128524000Y-63215363D01*
X128511417Y-63191821D01*
X128323345Y-62962655D01*
X128094178Y-62774583D01*
X127832724Y-62634834D01*
X127549031Y-62548776D01*
X127254000Y-62519718D01*
X126958968Y-62548776D01*
X126675275Y-62634834D01*
X126413821Y-62774583D01*
X126184655Y-62962655D01*
X125996583Y-63191822D01*
X125984000Y-63215363D01*
X125971417Y-63191821D01*
X125783345Y-62962655D01*
X125554178Y-62774583D01*
X125292724Y-62634834D01*
X125009031Y-62548776D01*
X124714000Y-62519718D01*
X124418968Y-62548776D01*
X124135275Y-62634834D01*
X123873821Y-62774583D01*
X123644655Y-62962655D01*
X123590935Y-63028114D01*
X123532405Y-62918613D01*
X123421962Y-62784038D01*
X123287387Y-62673595D01*
X123133851Y-62591528D01*
X122967255Y-62540992D01*
X122794001Y-62523928D01*
X121553999Y-62523928D01*
X121380745Y-62540992D01*
X121214149Y-62591528D01*
X121060613Y-62673595D01*
X120926038Y-62784038D01*
X120815595Y-62918613D01*
X120733528Y-63072149D01*
X120682992Y-63238745D01*
X120665928Y-63411999D01*
X120665928Y-65112001D01*
X120682992Y-65285255D01*
X120733528Y-65451851D01*
X120815595Y-65605387D01*
X120926038Y-65739962D01*
X121060613Y-65850405D01*
X121214149Y-65932472D01*
X121380745Y-65983008D01*
X121553999Y-66000072D01*
X122794001Y-66000072D01*
X122967255Y-65983008D01*
X123133851Y-65932472D01*
X123287387Y-65850405D01*
X123421962Y-65739962D01*
X123532405Y-65605387D01*
X123590934Y-65495886D01*
X123644655Y-65561345D01*
X123873822Y-65749417D01*
X124135276Y-65889166D01*
X124418969Y-65975224D01*
X124598457Y-65992902D01*
X126938101Y-68332548D01*
X126973887Y-68376153D01*
X127017491Y-68411938D01*
X127017497Y-68411944D01*
X127128137Y-68502743D01*
X127147931Y-68518988D01*
X127346497Y-68625123D01*
X127496594Y-68670655D01*
X127561952Y-68690481D01*
X127584620Y-68692714D01*
X127729874Y-68707020D01*
X127729880Y-68707020D01*
X127786019Y-68712549D01*
X127842158Y-68707020D01*
X128726777Y-68707020D01*
X128915555Y-68785215D01*
X129160916Y-68834020D01*
X129411084Y-68834020D01*
X129656445Y-68785215D01*
X129887571Y-68689479D01*
X130095578Y-68550493D01*
X130272473Y-68373598D01*
X130411459Y-68165591D01*
X130507195Y-67934465D01*
X130556000Y-67689104D01*
X130556000Y-67438936D01*
X130507195Y-67193575D01*
X130411459Y-66962449D01*
X130272473Y-66754442D01*
X130095578Y-66577547D01*
X129887571Y-66438561D01*
X129656445Y-66342825D01*
X129411084Y-66294020D01*
X129160916Y-66294020D01*
X128915555Y-66342825D01*
X128726777Y-66421020D01*
X128259467Y-66421020D01*
X127752077Y-65913631D01*
X127832725Y-65889166D01*
X128094179Y-65749417D01*
X128323345Y-65561345D01*
X128511417Y-65332179D01*
X128524000Y-65308638D01*
X128536583Y-65332179D01*
X128724655Y-65561345D01*
X128953822Y-65749417D01*
X129215276Y-65889166D01*
X129498969Y-65975224D01*
X129794000Y-66004282D01*
X130089032Y-65975224D01*
X130372725Y-65889166D01*
X130634179Y-65749417D01*
X130863345Y-65561345D01*
X131051417Y-65332179D01*
X131191166Y-65070724D01*
X131277224Y-64787031D01*
X131299000Y-64565935D01*
X131299000Y-63958064D01*
X131277224Y-63736968D01*
X131191166Y-63453275D01*
X131148258Y-63373000D01*
X134893769Y-63373000D01*
X134889928Y-63411999D01*
X134889928Y-65112001D01*
X134906992Y-65285255D01*
X134957528Y-65451851D01*
X135039595Y-65605387D01*
X135150038Y-65739962D01*
X135284613Y-65850405D01*
X135438149Y-65932472D01*
X135604745Y-65983008D01*
X135777999Y-66000072D01*
X136431585Y-66000072D01*
X136398000Y-66168916D01*
X136398000Y-66419084D01*
X136446805Y-66664445D01*
X136542541Y-66895571D01*
X136681527Y-67103578D01*
X136858422Y-67280473D01*
X137066429Y-67419459D01*
X137297555Y-67515195D01*
X137542916Y-67564000D01*
X137793084Y-67564000D01*
X138038445Y-67515195D01*
X138227223Y-67437000D01*
X139619861Y-67437000D01*
X139676000Y-67442529D01*
X139732139Y-67437000D01*
X139732146Y-67437000D01*
X139900067Y-67420461D01*
X140115523Y-67355103D01*
X140314089Y-67248968D01*
X140488133Y-67106133D01*
X140523927Y-67062518D01*
X141593544Y-65992902D01*
X141773032Y-65975224D01*
X142056725Y-65889166D01*
X142318179Y-65749417D01*
X142547345Y-65561345D01*
X142735417Y-65332179D01*
X142748000Y-65308638D01*
X142760583Y-65332179D01*
X142948655Y-65561345D01*
X143177822Y-65749417D01*
X143439276Y-65889166D01*
X143722969Y-65975224D01*
X144018000Y-66004282D01*
X144313032Y-65975224D01*
X144596725Y-65889166D01*
X144858179Y-65749417D01*
X145087345Y-65561345D01*
X145275417Y-65332179D01*
X145415166Y-65070724D01*
X145501224Y-64787031D01*
X145523000Y-64565935D01*
X145523000Y-63958064D01*
X145501224Y-63736968D01*
X145415166Y-63453275D01*
X145275417Y-63191821D01*
X145145616Y-63033658D01*
X145144461Y-63021932D01*
X145079102Y-62806476D01*
X144972967Y-62607911D01*
X144865924Y-62477478D01*
X144058445Y-61670000D01*
X147596660Y-61670000D01*
X147415330Y-61791161D01*
X146881161Y-62325330D01*
X146461467Y-62953446D01*
X146172377Y-63651372D01*
X146025000Y-64392285D01*
X146025000Y-65147715D01*
X146172377Y-65888628D01*
X146461467Y-66586554D01*
X146881161Y-67214670D01*
X147415330Y-67748839D01*
X148043446Y-68168533D01*
X148741372Y-68457623D01*
X149482285Y-68605000D01*
X150237715Y-68605000D01*
X150978628Y-68457623D01*
X151676554Y-68168533D01*
X152304670Y-67748839D01*
X152838839Y-67214670D01*
X152960000Y-67033340D01*
X152960000Y-71193099D01*
X152953990Y-71178589D01*
X152791475Y-70935368D01*
X152584632Y-70728525D01*
X152341411Y-70566010D01*
X152071158Y-70454068D01*
X151784260Y-70397000D01*
X151491740Y-70397000D01*
X151204842Y-70454068D01*
X150934589Y-70566010D01*
X150691368Y-70728525D01*
X150484525Y-70935368D01*
X150322010Y-71178589D01*
X150210068Y-71448842D01*
X150153000Y-71735740D01*
X150153000Y-72028260D01*
X150210068Y-72315158D01*
X150322010Y-72585411D01*
X150484525Y-72828632D01*
X150691368Y-73035475D01*
X150865760Y-73152000D01*
X150691368Y-73268525D01*
X150484525Y-73475368D01*
X150322010Y-73718589D01*
X150210068Y-73988842D01*
X150153000Y-74275740D01*
X150153000Y-74568260D01*
X150210068Y-74855158D01*
X150322010Y-75125411D01*
X150484525Y-75368632D01*
X150691368Y-75575475D01*
X150865760Y-75692000D01*
X150691368Y-75808525D01*
X150484525Y-76015368D01*
X150322010Y-76258589D01*
X150210068Y-76528842D01*
X150153000Y-76815740D01*
X150153000Y-77108260D01*
X150210068Y-77395158D01*
X150322010Y-77665411D01*
X150484525Y-77908632D01*
X150616380Y-78040487D01*
X150543820Y-78062498D01*
X150433506Y-78121463D01*
X150336815Y-78200815D01*
X150257463Y-78297506D01*
X150198498Y-78407820D01*
X150162188Y-78527518D01*
X150149928Y-78652000D01*
X150153000Y-79216250D01*
X150311750Y-79375000D01*
X151511000Y-79375000D01*
X151511000Y-79355000D01*
X151765000Y-79355000D01*
X151765000Y-79375000D01*
X151785000Y-79375000D01*
X151785000Y-79629000D01*
X151765000Y-79629000D01*
X151765000Y-80828250D01*
X151923750Y-80987000D01*
X152488000Y-80990072D01*
X152612482Y-80977812D01*
X152732180Y-80941502D01*
X152842494Y-80882537D01*
X152939185Y-80803185D01*
X152960000Y-80777821D01*
X152960001Y-104416662D01*
X152838839Y-104235330D01*
X152304670Y-103701161D01*
X151676554Y-103281467D01*
X150978628Y-102992377D01*
X150237715Y-102845000D01*
X149482285Y-102845000D01*
X148741372Y-102992377D01*
X148043446Y-103281467D01*
X147415330Y-103701161D01*
X146881161Y-104235330D01*
X146461467Y-104863446D01*
X146172377Y-105561372D01*
X146025000Y-106302285D01*
X146025000Y-107057715D01*
X146172377Y-107798628D01*
X146461467Y-108496554D01*
X146881161Y-109124670D01*
X147415330Y-109658839D01*
X147596660Y-109780000D01*
X117833340Y-109780000D01*
X118014670Y-109658839D01*
X118548839Y-109124670D01*
X118968533Y-108496554D01*
X119257623Y-107798628D01*
X119360592Y-107280967D01*
X119523000Y-107280967D01*
X119523000Y-107603033D01*
X119585832Y-107918912D01*
X119709082Y-108216463D01*
X119888013Y-108484252D01*
X120115748Y-108711987D01*
X120383537Y-108890918D01*
X120681088Y-109014168D01*
X120996967Y-109077000D01*
X121319033Y-109077000D01*
X121634912Y-109014168D01*
X121932463Y-108890918D01*
X122200252Y-108711987D01*
X122427987Y-108484252D01*
X122606918Y-108216463D01*
X122730168Y-107918912D01*
X122793000Y-107603033D01*
X122793000Y-107280967D01*
X123841000Y-107280967D01*
X123841000Y-107603033D01*
X123903832Y-107918912D01*
X124027082Y-108216463D01*
X124206013Y-108484252D01*
X124433748Y-108711987D01*
X124701537Y-108890918D01*
X124999088Y-109014168D01*
X125314967Y-109077000D01*
X125637033Y-109077000D01*
X125952912Y-109014168D01*
X126250463Y-108890918D01*
X126518252Y-108711987D01*
X126745987Y-108484252D01*
X126924918Y-108216463D01*
X127048168Y-107918912D01*
X127111000Y-107603033D01*
X127111000Y-107280967D01*
X128159000Y-107280967D01*
X128159000Y-107603033D01*
X128221832Y-107918912D01*
X128345082Y-108216463D01*
X128524013Y-108484252D01*
X128751748Y-108711987D01*
X129019537Y-108890918D01*
X129317088Y-109014168D01*
X129632967Y-109077000D01*
X129955033Y-109077000D01*
X130270912Y-109014168D01*
X130568463Y-108890918D01*
X130836252Y-108711987D01*
X131063987Y-108484252D01*
X131242918Y-108216463D01*
X131366168Y-107918912D01*
X131429000Y-107603033D01*
X131429000Y-107298286D01*
X132606123Y-107298286D01*
X132662231Y-107589392D01*
X132774053Y-107863958D01*
X132937292Y-108111433D01*
X133145674Y-108322306D01*
X133391191Y-108488474D01*
X133664409Y-108603551D01*
X133751969Y-108620302D01*
X133985000Y-108499246D01*
X133985000Y-107061000D01*
X132761624Y-107061000D01*
X132606123Y-107298286D01*
X131429000Y-107298286D01*
X131429000Y-107280967D01*
X131366168Y-106965088D01*
X131242918Y-106667537D01*
X131177555Y-106569714D01*
X132606123Y-106569714D01*
X132761624Y-106807000D01*
X133985000Y-106807000D01*
X133985000Y-105368754D01*
X134239000Y-105368754D01*
X134239000Y-106807000D01*
X134259000Y-106807000D01*
X134259000Y-107061000D01*
X134239000Y-107061000D01*
X134239000Y-108499246D01*
X134472031Y-108620302D01*
X134559591Y-108603551D01*
X134832809Y-108488474D01*
X135078326Y-108322306D01*
X135286708Y-108111433D01*
X135379440Y-107970848D01*
X135394583Y-107999178D01*
X135582655Y-108228345D01*
X135811821Y-108416417D01*
X136073275Y-108556166D01*
X136356968Y-108642224D01*
X136652000Y-108671282D01*
X136947031Y-108642224D01*
X137230724Y-108556166D01*
X137492178Y-108416417D01*
X137721345Y-108228345D01*
X137909417Y-107999179D01*
X137922000Y-107975637D01*
X137934583Y-107999178D01*
X138122655Y-108228345D01*
X138351821Y-108416417D01*
X138613275Y-108556166D01*
X138896968Y-108642224D01*
X139192000Y-108671282D01*
X139487031Y-108642224D01*
X139770724Y-108556166D01*
X140032178Y-108416417D01*
X140261345Y-108228345D01*
X140449417Y-107999179D01*
X140462000Y-107975637D01*
X140474583Y-107999178D01*
X140662655Y-108228345D01*
X140891821Y-108416417D01*
X141153275Y-108556166D01*
X141436968Y-108642224D01*
X141732000Y-108671282D01*
X142027031Y-108642224D01*
X142310724Y-108556166D01*
X142572178Y-108416417D01*
X142801345Y-108228345D01*
X142855066Y-108162886D01*
X142913595Y-108272387D01*
X143024038Y-108406962D01*
X143158613Y-108517405D01*
X143312149Y-108599472D01*
X143478745Y-108650008D01*
X143651999Y-108667072D01*
X144892001Y-108667072D01*
X145065255Y-108650008D01*
X145231851Y-108599472D01*
X145385387Y-108517405D01*
X145519962Y-108406962D01*
X145630405Y-108272387D01*
X145712472Y-108118851D01*
X145763008Y-107952255D01*
X145780072Y-107779001D01*
X145780072Y-106088999D01*
X145763008Y-105915745D01*
X145712472Y-105749149D01*
X145630405Y-105595613D01*
X145519962Y-105461038D01*
X145385387Y-105350595D01*
X145231851Y-105268528D01*
X145065255Y-105217992D01*
X144892001Y-105200928D01*
X143651999Y-105200928D01*
X143478745Y-105217992D01*
X143312149Y-105268528D01*
X143158613Y-105350595D01*
X143024038Y-105461038D01*
X142913595Y-105595613D01*
X142855066Y-105705114D01*
X142801345Y-105639655D01*
X142572179Y-105451583D01*
X142310725Y-105311834D01*
X142027032Y-105225776D01*
X141732000Y-105196718D01*
X141436969Y-105225776D01*
X141153276Y-105311834D01*
X140891822Y-105451583D01*
X140662655Y-105639655D01*
X140474583Y-105868821D01*
X140462000Y-105892362D01*
X140449417Y-105868821D01*
X140261345Y-105639655D01*
X140032179Y-105451583D01*
X139770725Y-105311834D01*
X139487032Y-105225776D01*
X139192000Y-105196718D01*
X138896969Y-105225776D01*
X138613276Y-105311834D01*
X138351822Y-105451583D01*
X138122655Y-105639655D01*
X137934583Y-105868821D01*
X137922000Y-105892362D01*
X137909417Y-105868821D01*
X137721345Y-105639655D01*
X137492179Y-105451583D01*
X137230725Y-105311834D01*
X136947032Y-105225776D01*
X136652000Y-105196718D01*
X136356969Y-105225776D01*
X136073276Y-105311834D01*
X135811822Y-105451583D01*
X135582655Y-105639655D01*
X135394583Y-105868821D01*
X135379440Y-105897152D01*
X135286708Y-105756567D01*
X135078326Y-105545694D01*
X134832809Y-105379526D01*
X134559591Y-105264449D01*
X134472031Y-105247698D01*
X134239000Y-105368754D01*
X133985000Y-105368754D01*
X133751969Y-105247698D01*
X133664409Y-105264449D01*
X133391191Y-105379526D01*
X133145674Y-105545694D01*
X132937292Y-105756567D01*
X132774053Y-106004042D01*
X132662231Y-106278608D01*
X132606123Y-106569714D01*
X131177555Y-106569714D01*
X131063987Y-106399748D01*
X130836252Y-106172013D01*
X130568463Y-105993082D01*
X130270912Y-105869832D01*
X129955033Y-105807000D01*
X129632967Y-105807000D01*
X129317088Y-105869832D01*
X129019537Y-105993082D01*
X128751748Y-106172013D01*
X128524013Y-106399748D01*
X128345082Y-106667537D01*
X128221832Y-106965088D01*
X128159000Y-107280967D01*
X127111000Y-107280967D01*
X127048168Y-106965088D01*
X126924918Y-106667537D01*
X126745987Y-106399748D01*
X126518252Y-106172013D01*
X126250463Y-105993082D01*
X125952912Y-105869832D01*
X125637033Y-105807000D01*
X125314967Y-105807000D01*
X124999088Y-105869832D01*
X124701537Y-105993082D01*
X124433748Y-106172013D01*
X124206013Y-106399748D01*
X124027082Y-106667537D01*
X123903832Y-106965088D01*
X123841000Y-107280967D01*
X122793000Y-107280967D01*
X122730168Y-106965088D01*
X122606918Y-106667537D01*
X122427987Y-106399748D01*
X122200252Y-106172013D01*
X121932463Y-105993082D01*
X121634912Y-105869832D01*
X121319033Y-105807000D01*
X120996967Y-105807000D01*
X120681088Y-105869832D01*
X120383537Y-105993082D01*
X120115748Y-106172013D01*
X119888013Y-106399748D01*
X119709082Y-106667537D01*
X119585832Y-106965088D01*
X119523000Y-107280967D01*
X119360592Y-107280967D01*
X119405000Y-107057715D01*
X119405000Y-106302285D01*
X119257623Y-105561372D01*
X118968533Y-104863446D01*
X118548839Y-104235330D01*
X118014670Y-103701161D01*
X117386554Y-103281467D01*
X116688628Y-102992377D01*
X115947715Y-102845000D01*
X115192285Y-102845000D01*
X114451372Y-102992377D01*
X113753446Y-103281467D01*
X113125330Y-103701161D01*
X112591161Y-104235330D01*
X112470000Y-104416660D01*
X112470000Y-101699738D01*
X112733616Y-101827224D01*
X113036286Y-101905829D01*
X113348474Y-101923877D01*
X113658185Y-101880672D01*
X113953516Y-101777877D01*
X114115902Y-101691081D01*
X114205930Y-101431535D01*
X113284000Y-100509605D01*
X113269858Y-100523748D01*
X113090253Y-100344143D01*
X113104395Y-100330000D01*
X113463605Y-100330000D01*
X114385535Y-101251930D01*
X114645081Y-101161902D01*
X114781224Y-100880384D01*
X114859829Y-100577714D01*
X114877877Y-100265526D01*
X114865060Y-100173645D01*
X116776500Y-100173645D01*
X116776500Y-100486355D01*
X116837507Y-100793057D01*
X116957176Y-101081963D01*
X117130908Y-101341972D01*
X117352028Y-101563092D01*
X117612037Y-101736824D01*
X117900943Y-101856493D01*
X118207645Y-101917500D01*
X118520355Y-101917500D01*
X118827057Y-101856493D01*
X119115963Y-101736824D01*
X119375972Y-101563092D01*
X119597092Y-101341972D01*
X119634000Y-101286735D01*
X119670908Y-101341972D01*
X119892028Y-101563092D01*
X120152037Y-101736824D01*
X120440943Y-101856493D01*
X120747645Y-101917500D01*
X121060355Y-101917500D01*
X121367057Y-101856493D01*
X121655963Y-101736824D01*
X121915972Y-101563092D01*
X122137092Y-101341972D01*
X122174000Y-101286735D01*
X122210908Y-101341972D01*
X122432028Y-101563092D01*
X122692037Y-101736824D01*
X122809000Y-101785272D01*
X122809000Y-101954067D01*
X122848044Y-102150356D01*
X122924632Y-102335256D01*
X123035821Y-102501662D01*
X123113800Y-102579641D01*
X123113801Y-102652358D01*
X123035821Y-102730338D01*
X122924632Y-102896744D01*
X122848044Y-103081644D01*
X122809000Y-103277933D01*
X122809000Y-103478067D01*
X122848044Y-103674356D01*
X122924632Y-103859256D01*
X123035821Y-104025662D01*
X123177338Y-104167179D01*
X123343744Y-104278368D01*
X123528644Y-104354956D01*
X123724933Y-104394000D01*
X123925067Y-104394000D01*
X124121356Y-104354956D01*
X124306256Y-104278368D01*
X124472662Y-104167179D01*
X124614179Y-104025662D01*
X124725368Y-103859256D01*
X124801956Y-103674356D01*
X124841000Y-103478067D01*
X124841000Y-103277933D01*
X124801956Y-103081644D01*
X124725368Y-102896744D01*
X124614179Y-102730338D01*
X124536200Y-102652359D01*
X124536200Y-102579641D01*
X124614179Y-102501662D01*
X124725368Y-102335256D01*
X124801956Y-102150356D01*
X124841000Y-101954067D01*
X124841000Y-101753933D01*
X124801956Y-101557644D01*
X124725368Y-101372744D01*
X124690949Y-101321233D01*
X124850824Y-101081963D01*
X124970493Y-100793057D01*
X125031500Y-100486355D01*
X125031500Y-100173645D01*
X124970493Y-99866943D01*
X124850824Y-99578037D01*
X124792668Y-99491000D01*
X132255332Y-99491000D01*
X132197176Y-99578037D01*
X132077507Y-99866943D01*
X132016500Y-100173645D01*
X132016500Y-100486355D01*
X132077507Y-100793057D01*
X132197176Y-101081963D01*
X132370908Y-101341972D01*
X132592028Y-101563092D01*
X132852037Y-101736824D01*
X133140943Y-101856493D01*
X133447645Y-101917500D01*
X133760355Y-101917500D01*
X134067057Y-101856493D01*
X134355963Y-101736824D01*
X134615972Y-101563092D01*
X134837092Y-101341972D01*
X135010824Y-101081963D01*
X135130493Y-100793057D01*
X135191500Y-100486355D01*
X135191500Y-100173645D01*
X135130493Y-99866943D01*
X135010824Y-99578037D01*
X134952668Y-99491000D01*
X137634353Y-99491000D01*
X137668000Y-99494314D01*
X137802283Y-99481088D01*
X137931406Y-99441919D01*
X138050407Y-99378312D01*
X138154711Y-99292711D01*
X138240312Y-99188407D01*
X138303919Y-99069406D01*
X138343088Y-98940283D01*
X138353000Y-98839647D01*
X138353000Y-98839646D01*
X138356314Y-98806000D01*
X138353000Y-98772353D01*
X138353000Y-95093645D01*
X144716500Y-95093645D01*
X144716500Y-95406355D01*
X144777507Y-95713057D01*
X144897176Y-96001963D01*
X145070908Y-96261972D01*
X145292028Y-96483092D01*
X145552037Y-96656824D01*
X145840943Y-96776493D01*
X146147645Y-96837500D01*
X146460355Y-96837500D01*
X146767057Y-96776493D01*
X147055963Y-96656824D01*
X147315972Y-96483092D01*
X147537092Y-96261972D01*
X147710824Y-96001963D01*
X147830493Y-95713057D01*
X147891500Y-95406355D01*
X147891500Y-95093645D01*
X147830493Y-94786943D01*
X147710824Y-94498037D01*
X147537092Y-94238028D01*
X147315972Y-94016908D01*
X147185039Y-93929422D01*
X147225930Y-93811535D01*
X146304000Y-92889605D01*
X145382070Y-93811535D01*
X145422961Y-93929422D01*
X145292028Y-94016908D01*
X145070908Y-94238028D01*
X144897176Y-94498037D01*
X144777507Y-94786943D01*
X144716500Y-95093645D01*
X138353000Y-95093645D01*
X138353000Y-92774474D01*
X144710123Y-92774474D01*
X144753328Y-93084185D01*
X144856123Y-93379516D01*
X144942919Y-93541902D01*
X145202465Y-93631930D01*
X146124395Y-92710000D01*
X146483605Y-92710000D01*
X147405535Y-93631930D01*
X147665081Y-93541902D01*
X147801224Y-93260384D01*
X147879829Y-92957714D01*
X147897877Y-92645526D01*
X147854672Y-92335815D01*
X147751877Y-92040484D01*
X147665081Y-91878098D01*
X147405535Y-91788070D01*
X146483605Y-92710000D01*
X146124395Y-92710000D01*
X145202465Y-91788070D01*
X144942919Y-91878098D01*
X144806776Y-92159616D01*
X144728171Y-92462286D01*
X144710123Y-92774474D01*
X138353000Y-92774474D01*
X138353000Y-91608465D01*
X145382070Y-91608465D01*
X146304000Y-92530395D01*
X147225930Y-91608465D01*
X147135902Y-91348919D01*
X146854384Y-91212776D01*
X146551714Y-91134171D01*
X146239526Y-91116123D01*
X145929815Y-91159328D01*
X145634484Y-91262123D01*
X145472098Y-91348919D01*
X145382070Y-91608465D01*
X138353000Y-91608465D01*
X138353000Y-87409647D01*
X138356314Y-87376000D01*
X138343088Y-87241717D01*
X138303919Y-87112594D01*
X138240312Y-86993593D01*
X138154711Y-86889289D01*
X138050407Y-86803688D01*
X137931406Y-86740081D01*
X137802283Y-86700912D01*
X137701647Y-86691000D01*
X137668000Y-86687686D01*
X137634353Y-86691000D01*
X123207647Y-86691000D01*
X123174000Y-86687686D01*
X123140353Y-86691000D01*
X123039717Y-86700912D01*
X122910594Y-86740081D01*
X122791593Y-86803688D01*
X122687289Y-86889289D01*
X122601688Y-86993593D01*
X122538081Y-87112594D01*
X122498912Y-87241717D01*
X122485686Y-87376000D01*
X122489001Y-87409657D01*
X122489000Y-98772353D01*
X122485686Y-98806000D01*
X122498912Y-98940283D01*
X122527145Y-99033353D01*
X122432028Y-99096908D01*
X122210908Y-99318028D01*
X122174000Y-99373265D01*
X122137092Y-99318028D01*
X121915972Y-99096908D01*
X121655963Y-98923176D01*
X121367057Y-98803507D01*
X121060355Y-98742500D01*
X120747645Y-98742500D01*
X120440943Y-98803507D01*
X120152037Y-98923176D01*
X119892028Y-99096908D01*
X119670908Y-99318028D01*
X119634000Y-99373265D01*
X119597092Y-99318028D01*
X119375972Y-99096908D01*
X119115963Y-98923176D01*
X118827057Y-98803507D01*
X118520355Y-98742500D01*
X118207645Y-98742500D01*
X117900943Y-98803507D01*
X117612037Y-98923176D01*
X117352028Y-99096908D01*
X117130908Y-99318028D01*
X116957176Y-99578037D01*
X116837507Y-99866943D01*
X116776500Y-100173645D01*
X114865060Y-100173645D01*
X114834672Y-99955815D01*
X114731877Y-99660484D01*
X114645081Y-99498098D01*
X114385535Y-99408070D01*
X113463605Y-100330000D01*
X113104395Y-100330000D01*
X113090253Y-100315858D01*
X113269858Y-100136253D01*
X113284000Y-100150395D01*
X114205930Y-99228465D01*
X114115902Y-98968919D01*
X113834384Y-98832776D01*
X113531714Y-98754171D01*
X113219526Y-98736123D01*
X112909815Y-98779328D01*
X112614484Y-98882123D01*
X112470000Y-98959350D01*
X112470000Y-86455372D01*
X112532037Y-86496824D01*
X112820943Y-86616493D01*
X113127645Y-86677500D01*
X113440355Y-86677500D01*
X113747057Y-86616493D01*
X114035963Y-86496824D01*
X114295972Y-86323092D01*
X114427529Y-86191535D01*
X114902070Y-86191535D01*
X114992098Y-86451081D01*
X115273616Y-86587224D01*
X115576286Y-86665829D01*
X115888474Y-86683877D01*
X116198185Y-86640672D01*
X116493516Y-86537877D01*
X116655902Y-86451081D01*
X116745930Y-86191535D01*
X115824000Y-85269605D01*
X114902070Y-86191535D01*
X114427529Y-86191535D01*
X114517092Y-86101972D01*
X114604578Y-85971039D01*
X114722465Y-86011930D01*
X115644395Y-85090000D01*
X116003605Y-85090000D01*
X116925535Y-86011930D01*
X117043422Y-85971039D01*
X117130908Y-86101972D01*
X117352028Y-86323092D01*
X117612037Y-86496824D01*
X117900943Y-86616493D01*
X118207645Y-86677500D01*
X118520355Y-86677500D01*
X118827057Y-86616493D01*
X119115963Y-86496824D01*
X119375972Y-86323092D01*
X119597092Y-86101972D01*
X119634000Y-86046735D01*
X119670908Y-86101972D01*
X119892028Y-86323092D01*
X120152037Y-86496824D01*
X120440943Y-86616493D01*
X120747645Y-86677500D01*
X121060355Y-86677500D01*
X121367057Y-86616493D01*
X121655963Y-86496824D01*
X121915972Y-86323092D01*
X122137092Y-86101972D01*
X122310824Y-85841963D01*
X122430493Y-85553057D01*
X122491500Y-85246355D01*
X122491500Y-84933645D01*
X134556500Y-84933645D01*
X134556500Y-85246355D01*
X134617507Y-85553057D01*
X134737176Y-85841963D01*
X134910908Y-86101972D01*
X135132028Y-86323092D01*
X135392037Y-86496824D01*
X135680943Y-86616493D01*
X135987645Y-86677500D01*
X136300355Y-86677500D01*
X136607057Y-86616493D01*
X136895963Y-86496824D01*
X137155972Y-86323092D01*
X137377092Y-86101972D01*
X137550824Y-85841963D01*
X137670493Y-85553057D01*
X137731500Y-85246355D01*
X137731500Y-84933645D01*
X139636500Y-84933645D01*
X139636500Y-85246355D01*
X139697507Y-85553057D01*
X139817176Y-85841963D01*
X139990908Y-86101972D01*
X140212028Y-86323092D01*
X140472037Y-86496824D01*
X140760943Y-86616493D01*
X141067645Y-86677500D01*
X141380355Y-86677500D01*
X141687057Y-86616493D01*
X141975963Y-86496824D01*
X142235972Y-86323092D01*
X142457092Y-86101972D01*
X142494000Y-86046735D01*
X142530908Y-86101972D01*
X142752028Y-86323092D01*
X143012037Y-86496824D01*
X143300943Y-86616493D01*
X143607645Y-86677500D01*
X143920355Y-86677500D01*
X144227057Y-86616493D01*
X144515963Y-86496824D01*
X144775972Y-86323092D01*
X144997092Y-86101972D01*
X145170824Y-85841963D01*
X145290493Y-85553057D01*
X145351500Y-85246355D01*
X145351500Y-84933645D01*
X145290493Y-84626943D01*
X145170824Y-84338037D01*
X144997092Y-84078028D01*
X144775972Y-83856908D01*
X144515963Y-83683176D01*
X144227057Y-83563507D01*
X143920355Y-83502500D01*
X143607645Y-83502500D01*
X143300943Y-83563507D01*
X143012037Y-83683176D01*
X142752028Y-83856908D01*
X142530908Y-84078028D01*
X142494000Y-84133265D01*
X142457092Y-84078028D01*
X142235972Y-83856908D01*
X141975963Y-83683176D01*
X141687057Y-83563507D01*
X141380355Y-83502500D01*
X141067645Y-83502500D01*
X140760943Y-83563507D01*
X140472037Y-83683176D01*
X140212028Y-83856908D01*
X139990908Y-84078028D01*
X139817176Y-84338037D01*
X139697507Y-84626943D01*
X139636500Y-84933645D01*
X137731500Y-84933645D01*
X137670493Y-84626943D01*
X137550824Y-84338037D01*
X137377092Y-84078028D01*
X137155972Y-83856908D01*
X136895963Y-83683176D01*
X136607057Y-83563507D01*
X136300355Y-83502500D01*
X135987645Y-83502500D01*
X135680943Y-83563507D01*
X135392037Y-83683176D01*
X135132028Y-83856908D01*
X134910908Y-84078028D01*
X134737176Y-84338037D01*
X134617507Y-84626943D01*
X134556500Y-84933645D01*
X122491500Y-84933645D01*
X122430493Y-84626943D01*
X122310824Y-84338037D01*
X122137092Y-84078028D01*
X121915972Y-83856908D01*
X121655963Y-83683176D01*
X121367057Y-83563507D01*
X121060355Y-83502500D01*
X120747645Y-83502500D01*
X120440943Y-83563507D01*
X120152037Y-83683176D01*
X119892028Y-83856908D01*
X119670908Y-84078028D01*
X119634000Y-84133265D01*
X119597092Y-84078028D01*
X119380000Y-83860936D01*
X119380000Y-80543960D01*
X119463075Y-80343401D01*
X119507000Y-80122576D01*
X119507000Y-79897424D01*
X119463075Y-79676599D01*
X119376913Y-79468587D01*
X119251826Y-79281380D01*
X119092620Y-79122174D01*
X118905413Y-78997087D01*
X118697401Y-78910925D01*
X118476576Y-78867000D01*
X118251424Y-78867000D01*
X118030599Y-78910925D01*
X117822587Y-78997087D01*
X117635380Y-79122174D01*
X117476174Y-79281380D01*
X117351087Y-79468587D01*
X117264925Y-79676599D01*
X117221000Y-79897424D01*
X117221000Y-80122576D01*
X117264925Y-80343401D01*
X117348000Y-80543961D01*
X117348001Y-81992089D01*
X117348000Y-81992099D01*
X117348001Y-83860935D01*
X117130908Y-84078028D01*
X117043422Y-84208961D01*
X116925535Y-84168070D01*
X116003605Y-85090000D01*
X115644395Y-85090000D01*
X114722465Y-84168070D01*
X114604578Y-84208961D01*
X114517092Y-84078028D01*
X114427529Y-83988465D01*
X114902070Y-83988465D01*
X115824000Y-84910395D01*
X116745930Y-83988465D01*
X116655902Y-83728919D01*
X116374384Y-83592776D01*
X116071714Y-83514171D01*
X115759526Y-83496123D01*
X115449815Y-83539328D01*
X115154484Y-83642123D01*
X114992098Y-83728919D01*
X114902070Y-83988465D01*
X114427529Y-83988465D01*
X114295972Y-83856908D01*
X114035963Y-83683176D01*
X113747057Y-83563507D01*
X113440355Y-83502500D01*
X113127645Y-83502500D01*
X112820943Y-83563507D01*
X112532037Y-83683176D01*
X112470000Y-83724628D01*
X112470000Y-78197967D01*
X122317000Y-78197967D01*
X122317000Y-78520033D01*
X122379832Y-78835912D01*
X122503082Y-79133463D01*
X122682013Y-79401252D01*
X122732801Y-79452040D01*
X122732800Y-81570359D01*
X122654821Y-81648338D01*
X122543632Y-81814744D01*
X122467044Y-81999644D01*
X122428000Y-82195933D01*
X122428000Y-82396067D01*
X122467044Y-82592356D01*
X122543632Y-82777256D01*
X122654821Y-82943662D01*
X122796338Y-83085179D01*
X122962744Y-83196368D01*
X123147644Y-83272956D01*
X123343933Y-83312000D01*
X123544067Y-83312000D01*
X123740356Y-83272956D01*
X123925256Y-83196368D01*
X124091662Y-83085179D01*
X124233179Y-82943662D01*
X124344368Y-82777256D01*
X124420956Y-82592356D01*
X124460000Y-82396067D01*
X124460000Y-82195933D01*
X124420956Y-81999644D01*
X124344368Y-81814744D01*
X124233179Y-81648338D01*
X124155200Y-81570359D01*
X124155200Y-79985612D01*
X124428912Y-79931168D01*
X124726463Y-79807918D01*
X124994252Y-79628987D01*
X125221987Y-79401252D01*
X125400918Y-79133463D01*
X125524168Y-78835912D01*
X125587000Y-78520033D01*
X125587000Y-78197967D01*
X125524168Y-77882088D01*
X125400918Y-77584537D01*
X125221987Y-77316748D01*
X124994252Y-77089013D01*
X124726463Y-76910082D01*
X124428912Y-76786832D01*
X124113033Y-76724000D01*
X123790967Y-76724000D01*
X123475088Y-76786832D01*
X123177537Y-76910082D01*
X122909748Y-77089013D01*
X122682013Y-77316748D01*
X122503082Y-77584537D01*
X122379832Y-77882088D01*
X122317000Y-78197967D01*
X112470000Y-78197967D01*
X112470000Y-75811413D01*
X113090192Y-75811413D01*
X113185956Y-76075814D01*
X113475571Y-76216704D01*
X113787108Y-76298384D01*
X114108595Y-76317718D01*
X114427675Y-76273961D01*
X114732088Y-76168795D01*
X114906044Y-76075814D01*
X115001808Y-75811413D01*
X114046000Y-74855605D01*
X113090192Y-75811413D01*
X112470000Y-75811413D01*
X112470000Y-75121243D01*
X112553205Y-75362088D01*
X112646186Y-75536044D01*
X112910587Y-75631808D01*
X113866395Y-74676000D01*
X114225605Y-74676000D01*
X115181413Y-75631808D01*
X115445814Y-75536044D01*
X115586704Y-75246429D01*
X115668384Y-74934892D01*
X115687718Y-74613405D01*
X115643961Y-74294325D01*
X115538795Y-73989912D01*
X115445814Y-73815956D01*
X115181413Y-73720192D01*
X114225605Y-74676000D01*
X113866395Y-74676000D01*
X112910587Y-73720192D01*
X112646186Y-73815956D01*
X112505296Y-74105571D01*
X112470000Y-74240194D01*
X112470000Y-73540587D01*
X113090192Y-73540587D01*
X114046000Y-74496395D01*
X114982462Y-73559933D01*
X124714000Y-73559933D01*
X124714000Y-73760067D01*
X124753044Y-73956356D01*
X124829632Y-74141256D01*
X124940821Y-74307662D01*
X125082338Y-74449179D01*
X125248744Y-74560368D01*
X125433644Y-74636956D01*
X125629933Y-74676000D01*
X125830067Y-74676000D01*
X126026356Y-74636956D01*
X126211256Y-74560368D01*
X126377662Y-74449179D01*
X126455641Y-74371200D01*
X127219074Y-74371200D01*
X127254000Y-74374640D01*
X127288926Y-74371200D01*
X127288936Y-74371200D01*
X127393420Y-74360909D01*
X127527481Y-74320242D01*
X127651033Y-74254202D01*
X127759327Y-74165327D01*
X127781601Y-74138186D01*
X128177951Y-73741838D01*
X128239243Y-73691536D01*
X128335506Y-73770537D01*
X128445820Y-73829502D01*
X128518380Y-73851513D01*
X128386525Y-73983368D01*
X128224010Y-74226589D01*
X128112068Y-74496842D01*
X128055000Y-74783740D01*
X128055000Y-75076260D01*
X128112068Y-75363158D01*
X128224010Y-75633411D01*
X128386525Y-75876632D01*
X128593368Y-76083475D01*
X128767760Y-76200000D01*
X128593368Y-76316525D01*
X128386525Y-76523368D01*
X128224010Y-76766589D01*
X128112068Y-77036842D01*
X128055000Y-77323740D01*
X128055000Y-77616260D01*
X128112068Y-77903158D01*
X128224010Y-78173411D01*
X128386525Y-78416632D01*
X128593368Y-78623475D01*
X128836589Y-78785990D01*
X129106842Y-78897932D01*
X129393740Y-78955000D01*
X129686260Y-78955000D01*
X129973158Y-78897932D01*
X130243411Y-78785990D01*
X130486632Y-78623475D01*
X130693475Y-78416632D01*
X130839582Y-78197967D01*
X135017000Y-78197967D01*
X135017000Y-78520033D01*
X135079832Y-78835912D01*
X135203082Y-79133463D01*
X135382013Y-79401252D01*
X135609748Y-79628987D01*
X135877537Y-79807918D01*
X136175088Y-79931168D01*
X136490967Y-79994000D01*
X136813033Y-79994000D01*
X137128912Y-79931168D01*
X137426463Y-79807918D01*
X137694252Y-79628987D01*
X137921987Y-79401252D01*
X138100918Y-79133463D01*
X138127122Y-79070200D01*
X138770413Y-79070200D01*
X140004800Y-80304589D01*
X140004801Y-81570358D01*
X139926821Y-81648338D01*
X139815632Y-81814744D01*
X139739044Y-81999644D01*
X139700000Y-82195933D01*
X139700000Y-82396067D01*
X139739044Y-82592356D01*
X139815632Y-82777256D01*
X139926821Y-82943662D01*
X140068338Y-83085179D01*
X140234744Y-83196368D01*
X140419644Y-83272956D01*
X140615933Y-83312000D01*
X140816067Y-83312000D01*
X141012356Y-83272956D01*
X141197256Y-83196368D01*
X141363662Y-83085179D01*
X141505179Y-82943662D01*
X141616368Y-82777256D01*
X141692956Y-82592356D01*
X141732000Y-82396067D01*
X141732000Y-82195933D01*
X141692956Y-81999644D01*
X141616368Y-81814744D01*
X141575155Y-81753064D01*
X146354798Y-81753064D01*
X146354798Y-81822937D01*
X146365089Y-81927421D01*
X146405756Y-82061482D01*
X146471796Y-82185034D01*
X146560671Y-82293328D01*
X146668965Y-82382204D01*
X146792517Y-82448244D01*
X146926578Y-82488911D01*
X147065998Y-82502643D01*
X147205417Y-82488911D01*
X147339478Y-82448244D01*
X147463030Y-82382204D01*
X147571324Y-82293329D01*
X147660200Y-82185035D01*
X147726240Y-82061483D01*
X147766907Y-81927422D01*
X147777198Y-81822938D01*
X147777198Y-81753065D01*
X147766907Y-81648581D01*
X147726240Y-81514520D01*
X147660200Y-81390968D01*
X147571325Y-81282674D01*
X147463031Y-81193798D01*
X147339479Y-81127758D01*
X147205418Y-81087091D01*
X147065998Y-81073359D01*
X146926579Y-81087091D01*
X146792518Y-81127758D01*
X146668966Y-81193798D01*
X146560672Y-81282673D01*
X146471796Y-81390967D01*
X146405756Y-81514519D01*
X146365089Y-81648580D01*
X146354798Y-81753064D01*
X141575155Y-81753064D01*
X141505179Y-81648338D01*
X141427200Y-81570359D01*
X141427200Y-80352000D01*
X150149928Y-80352000D01*
X150162188Y-80476482D01*
X150198498Y-80596180D01*
X150257463Y-80706494D01*
X150336815Y-80803185D01*
X150433506Y-80882537D01*
X150543820Y-80941502D01*
X150663518Y-80977812D01*
X150788000Y-80990072D01*
X151352250Y-80987000D01*
X151511000Y-80828250D01*
X151511000Y-79629000D01*
X150311750Y-79629000D01*
X150153000Y-79787750D01*
X150149928Y-80352000D01*
X141427200Y-80352000D01*
X141427200Y-80044928D01*
X141430640Y-80010000D01*
X141427200Y-79975071D01*
X141427200Y-79975064D01*
X141416909Y-79870580D01*
X141391783Y-79787750D01*
X141376242Y-79736518D01*
X141310202Y-79612967D01*
X141243598Y-79531809D01*
X141243588Y-79531799D01*
X141221326Y-79504673D01*
X141194201Y-79482412D01*
X139592602Y-77880814D01*
X139570327Y-77853673D01*
X139462033Y-77764798D01*
X139338481Y-77698758D01*
X139204420Y-77658091D01*
X139099936Y-77647800D01*
X139099926Y-77647800D01*
X139065000Y-77644360D01*
X139030074Y-77647800D01*
X138127122Y-77647800D01*
X138100918Y-77584537D01*
X137921987Y-77316748D01*
X137694252Y-77089013D01*
X137426463Y-76910082D01*
X137128912Y-76786832D01*
X136813033Y-76724000D01*
X136490967Y-76724000D01*
X136175088Y-76786832D01*
X135877537Y-76910082D01*
X135609748Y-77089013D01*
X135382013Y-77316748D01*
X135203082Y-77584537D01*
X135079832Y-77882088D01*
X135017000Y-78197967D01*
X130839582Y-78197967D01*
X130855990Y-78173411D01*
X130967932Y-77903158D01*
X131025000Y-77616260D01*
X131025000Y-77323740D01*
X130967932Y-77036842D01*
X130855990Y-76766589D01*
X130693475Y-76523368D01*
X130486632Y-76316525D01*
X130312240Y-76200000D01*
X130486632Y-76083475D01*
X130693475Y-75876632D01*
X130855990Y-75633411D01*
X130967932Y-75363158D01*
X131025000Y-75076260D01*
X131025000Y-74783740D01*
X130967932Y-74496842D01*
X130855990Y-74226589D01*
X130693475Y-73983368D01*
X130561620Y-73851513D01*
X130634180Y-73829502D01*
X130744494Y-73770537D01*
X130841185Y-73691185D01*
X130920537Y-73594494D01*
X130939010Y-73559933D01*
X137160000Y-73559933D01*
X137160000Y-73760067D01*
X137199044Y-73956356D01*
X137275632Y-74141256D01*
X137386821Y-74307662D01*
X137528338Y-74449179D01*
X137694744Y-74560368D01*
X137879644Y-74636956D01*
X138075933Y-74676000D01*
X138276067Y-74676000D01*
X138472356Y-74636956D01*
X138657256Y-74560368D01*
X138823662Y-74449179D01*
X138901641Y-74371200D01*
X139919074Y-74371200D01*
X139954000Y-74374640D01*
X139988926Y-74371200D01*
X139988936Y-74371200D01*
X140093420Y-74360909D01*
X140227481Y-74320242D01*
X140351033Y-74254202D01*
X140459327Y-74165327D01*
X140481601Y-74138186D01*
X140934212Y-73685576D01*
X140938815Y-73691185D01*
X141035506Y-73770537D01*
X141145820Y-73829502D01*
X141218380Y-73851513D01*
X141086525Y-73983368D01*
X140924010Y-74226589D01*
X140812068Y-74496842D01*
X140755000Y-74783740D01*
X140755000Y-75076260D01*
X140812068Y-75363158D01*
X140924010Y-75633411D01*
X141086525Y-75876632D01*
X141293368Y-76083475D01*
X141467760Y-76200000D01*
X141293368Y-76316525D01*
X141086525Y-76523368D01*
X140924010Y-76766589D01*
X140812068Y-77036842D01*
X140755000Y-77323740D01*
X140755000Y-77616260D01*
X140812068Y-77903158D01*
X140924010Y-78173411D01*
X141086525Y-78416632D01*
X141293368Y-78623475D01*
X141536589Y-78785990D01*
X141806842Y-78897932D01*
X142093740Y-78955000D01*
X142386260Y-78955000D01*
X142673158Y-78897932D01*
X142943411Y-78785990D01*
X143186632Y-78623475D01*
X143393475Y-78416632D01*
X143555990Y-78173411D01*
X143667932Y-77903158D01*
X143725000Y-77616260D01*
X143725000Y-77323740D01*
X143667932Y-77036842D01*
X143555990Y-76766589D01*
X143393475Y-76523368D01*
X143186632Y-76316525D01*
X143012240Y-76200000D01*
X143186632Y-76083475D01*
X143393475Y-75876632D01*
X143555990Y-75633411D01*
X143667932Y-75363158D01*
X143725000Y-75076260D01*
X143725000Y-74783740D01*
X143667932Y-74496842D01*
X143555990Y-74226589D01*
X143393475Y-73983368D01*
X143261620Y-73851513D01*
X143334180Y-73829502D01*
X143444494Y-73770537D01*
X143541185Y-73691185D01*
X143620537Y-73594494D01*
X143679502Y-73484180D01*
X143715812Y-73364482D01*
X143728072Y-73240000D01*
X143728072Y-71540000D01*
X143715812Y-71415518D01*
X143679502Y-71295820D01*
X143620537Y-71185506D01*
X143541185Y-71088815D01*
X143444494Y-71009463D01*
X143334180Y-70950498D01*
X143214482Y-70914188D01*
X143090000Y-70901928D01*
X141390000Y-70901928D01*
X141265518Y-70914188D01*
X141145820Y-70950498D01*
X141035506Y-71009463D01*
X140938815Y-71088815D01*
X140859463Y-71185506D01*
X140800498Y-71295820D01*
X140764188Y-71415518D01*
X140751928Y-71540000D01*
X140751928Y-71857380D01*
X140745808Y-71862403D01*
X140745804Y-71862407D01*
X140718673Y-71884673D01*
X140696407Y-71911804D01*
X139659413Y-72948800D01*
X138901641Y-72948800D01*
X138823662Y-72870821D01*
X138657256Y-72759632D01*
X138472356Y-72683044D01*
X138276067Y-72644000D01*
X138075933Y-72644000D01*
X137879644Y-72683044D01*
X137694744Y-72759632D01*
X137528338Y-72870821D01*
X137386821Y-73012338D01*
X137275632Y-73178744D01*
X137199044Y-73363644D01*
X137160000Y-73559933D01*
X130939010Y-73559933D01*
X130979502Y-73484180D01*
X131015812Y-73364482D01*
X131028072Y-73240000D01*
X131028072Y-71540000D01*
X131015812Y-71415518D01*
X130979502Y-71295820D01*
X130920537Y-71185506D01*
X130841185Y-71088815D01*
X130744494Y-71009463D01*
X130634180Y-70950498D01*
X130514482Y-70914188D01*
X130390000Y-70901928D01*
X128690000Y-70901928D01*
X128565518Y-70914188D01*
X128445820Y-70950498D01*
X128335506Y-71009463D01*
X128238815Y-71088815D01*
X128159463Y-71185506D01*
X128100498Y-71295820D01*
X128064188Y-71415518D01*
X128051928Y-71540000D01*
X128051928Y-71868542D01*
X128032273Y-71884673D01*
X128010007Y-71911804D01*
X127359656Y-72562157D01*
X127283808Y-72624403D01*
X127283804Y-72624407D01*
X127256673Y-72646673D01*
X127234407Y-72673805D01*
X126959412Y-72948800D01*
X126455641Y-72948800D01*
X126377662Y-72870821D01*
X126211256Y-72759632D01*
X126026356Y-72683044D01*
X125830067Y-72644000D01*
X125629933Y-72644000D01*
X125433644Y-72683044D01*
X125248744Y-72759632D01*
X125082338Y-72870821D01*
X124940821Y-73012338D01*
X124829632Y-73178744D01*
X124753044Y-73363644D01*
X124714000Y-73559933D01*
X114982462Y-73559933D01*
X115001808Y-73540587D01*
X114906044Y-73276186D01*
X114616429Y-73135296D01*
X114304892Y-73053616D01*
X113983405Y-73034282D01*
X113664325Y-73078039D01*
X113359912Y-73183205D01*
X113185956Y-73276186D01*
X113090192Y-73540587D01*
X112470000Y-73540587D01*
X112470000Y-67033340D01*
X112591161Y-67214670D01*
X113125330Y-67748839D01*
X113753446Y-68168533D01*
X114451372Y-68457623D01*
X115192285Y-68605000D01*
X115947715Y-68605000D01*
X116688628Y-68457623D01*
X117386554Y-68168533D01*
X118014670Y-67748839D01*
X118548839Y-67214670D01*
X118968533Y-66586554D01*
X119257623Y-65888628D01*
X119405000Y-65147715D01*
X119405000Y-64392285D01*
X119257623Y-63651372D01*
X118968533Y-62953446D01*
X118548839Y-62325330D01*
X118014670Y-61791161D01*
X117833340Y-61670000D01*
X129499555Y-61670000D01*
X129025483Y-62144072D01*
M02*
