G04 #@! TF.GenerationSoftware,KiCad,Pcbnew,(5.1.6)-1*
G04 #@! TF.CreationDate,2020-07-11T10:04:52-07:00*
G04 #@! TF.ProjectId,stepper_analyzer,73746570-7065-4725-9f61-6e616c797a65,rev?*
G04 #@! TF.SameCoordinates,Original*
G04 #@! TF.FileFunction,Soldermask,Top*
G04 #@! TF.FilePolarity,Negative*
%FSLAX46Y46*%
G04 Gerber Fmt 4.6, Leading zero omitted, Abs format (unit mm)*
G04 Created by KiCad (PCBNEW (5.1.6)-1) date 2020-07-11 10:04:52*
%MOMM*%
%LPD*%
G01*
G04 APERTURE LIST*
%ADD10C,0.100000*%
G04 APERTURE END LIST*
D10*
G36*
X150808224Y-103554127D02*
G01*
X151399832Y-103799178D01*
X151932266Y-104154940D01*
X152385060Y-104607734D01*
X152740822Y-105140168D01*
X152985873Y-105731776D01*
X153110800Y-106359824D01*
X153110800Y-107000176D01*
X152985873Y-107628224D01*
X152740822Y-108219832D01*
X152385060Y-108752266D01*
X151932266Y-109205060D01*
X151399832Y-109560822D01*
X150808224Y-109805873D01*
X150180176Y-109930800D01*
X149539824Y-109930800D01*
X148911776Y-109805873D01*
X148320168Y-109560822D01*
X147787734Y-109205060D01*
X147334940Y-108752266D01*
X146979178Y-108219832D01*
X146734127Y-107628224D01*
X146609200Y-107000176D01*
X146609200Y-106359824D01*
X146734127Y-105731776D01*
X146979178Y-105140168D01*
X147334940Y-104607734D01*
X147787734Y-104154940D01*
X148320168Y-103799178D01*
X148911776Y-103554127D01*
X149539824Y-103429200D01*
X150180176Y-103429200D01*
X150808224Y-103554127D01*
G37*
G36*
X116518224Y-103554127D02*
G01*
X117109832Y-103799178D01*
X117642266Y-104154940D01*
X118095060Y-104607734D01*
X118450822Y-105140168D01*
X118695873Y-105731776D01*
X118820800Y-106359824D01*
X118820800Y-107000176D01*
X118695873Y-107628224D01*
X118450822Y-108219832D01*
X118095060Y-108752266D01*
X117642266Y-109205060D01*
X117109832Y-109560822D01*
X116518224Y-109805873D01*
X115890176Y-109930800D01*
X115249824Y-109930800D01*
X114621776Y-109805873D01*
X114030168Y-109560822D01*
X113497734Y-109205060D01*
X113044940Y-108752266D01*
X112689178Y-108219832D01*
X112444127Y-107628224D01*
X112319200Y-107000176D01*
X112319200Y-106359824D01*
X112444127Y-105731776D01*
X112689178Y-105140168D01*
X113044940Y-104607734D01*
X113497734Y-104154940D01*
X114030168Y-103799178D01*
X114621776Y-103554127D01*
X115249824Y-103429200D01*
X115890176Y-103429200D01*
X116518224Y-103554127D01*
G37*
G36*
X130100508Y-106431582D02*
G01*
X130291741Y-106510793D01*
X130463847Y-106625791D01*
X130610209Y-106772153D01*
X130725207Y-106944259D01*
X130804418Y-107135492D01*
X130844800Y-107338505D01*
X130844800Y-107545495D01*
X130804418Y-107748508D01*
X130725207Y-107939741D01*
X130610209Y-108111847D01*
X130463847Y-108258209D01*
X130291741Y-108373207D01*
X130100508Y-108452418D01*
X129897495Y-108492800D01*
X129690505Y-108492800D01*
X129487492Y-108452418D01*
X129296259Y-108373207D01*
X129124153Y-108258209D01*
X128977791Y-108111847D01*
X128862793Y-107939741D01*
X128783582Y-107748508D01*
X128743200Y-107545495D01*
X128743200Y-107338505D01*
X128783582Y-107135492D01*
X128862793Y-106944259D01*
X128977791Y-106772153D01*
X129124153Y-106625791D01*
X129296259Y-106510793D01*
X129487492Y-106431582D01*
X129690505Y-106391200D01*
X129897495Y-106391200D01*
X130100508Y-106431582D01*
G37*
G36*
X121464508Y-106431582D02*
G01*
X121655741Y-106510793D01*
X121827847Y-106625791D01*
X121974209Y-106772153D01*
X122089207Y-106944259D01*
X122168418Y-107135492D01*
X122208800Y-107338505D01*
X122208800Y-107545495D01*
X122168418Y-107748508D01*
X122089207Y-107939741D01*
X121974209Y-108111847D01*
X121827847Y-108258209D01*
X121655741Y-108373207D01*
X121464508Y-108452418D01*
X121261495Y-108492800D01*
X121054505Y-108492800D01*
X120851492Y-108452418D01*
X120660259Y-108373207D01*
X120488153Y-108258209D01*
X120341791Y-108111847D01*
X120226793Y-107939741D01*
X120147582Y-107748508D01*
X120107200Y-107545495D01*
X120107200Y-107338505D01*
X120147582Y-107135492D01*
X120226793Y-106944259D01*
X120341791Y-106772153D01*
X120488153Y-106625791D01*
X120660259Y-106510793D01*
X120851492Y-106431582D01*
X121054505Y-106391200D01*
X121261495Y-106391200D01*
X121464508Y-106431582D01*
G37*
G36*
X125782508Y-106431582D02*
G01*
X125973741Y-106510793D01*
X126145847Y-106625791D01*
X126292209Y-106772153D01*
X126407207Y-106944259D01*
X126486418Y-107135492D01*
X126526800Y-107338505D01*
X126526800Y-107545495D01*
X126486418Y-107748508D01*
X126407207Y-107939741D01*
X126292209Y-108111847D01*
X126145847Y-108258209D01*
X125973741Y-108373207D01*
X125782508Y-108452418D01*
X125579495Y-108492800D01*
X125372505Y-108492800D01*
X125169492Y-108452418D01*
X124978259Y-108373207D01*
X124806153Y-108258209D01*
X124659791Y-108111847D01*
X124544793Y-107939741D01*
X124465582Y-107748508D01*
X124425200Y-107545495D01*
X124425200Y-107338505D01*
X124465582Y-107135492D01*
X124544793Y-106944259D01*
X124659791Y-106772153D01*
X124806153Y-106625791D01*
X124978259Y-106510793D01*
X125169492Y-106431582D01*
X125372505Y-106391200D01*
X125579495Y-106391200D01*
X125782508Y-106431582D01*
G37*
G36*
X139372505Y-105801522D02*
G01*
X139546079Y-105854175D01*
X139706045Y-105939679D01*
X139846254Y-106054746D01*
X139961321Y-106194955D01*
X140046825Y-106354921D01*
X140099478Y-106528496D01*
X140112800Y-106663761D01*
X140112800Y-107204240D01*
X140099478Y-107339505D01*
X140046825Y-107513079D01*
X139961321Y-107673045D01*
X139846254Y-107813254D01*
X139706043Y-107928322D01*
X139546080Y-108013824D01*
X139372504Y-108066478D01*
X139192000Y-108084256D01*
X139011495Y-108066478D01*
X138837921Y-108013825D01*
X138677955Y-107928321D01*
X138537746Y-107813254D01*
X138422678Y-107673043D01*
X138337176Y-107513080D01*
X138284522Y-107339504D01*
X138271200Y-107204239D01*
X138271200Y-106663760D01*
X138284522Y-106528495D01*
X138337175Y-106354921D01*
X138422680Y-106194955D01*
X138537747Y-106054746D01*
X138677956Y-105939679D01*
X138837922Y-105854175D01*
X139011496Y-105801522D01*
X139192000Y-105783744D01*
X139372505Y-105801522D01*
G37*
G36*
X141912505Y-105801522D02*
G01*
X142086079Y-105854175D01*
X142246045Y-105939679D01*
X142386254Y-106054746D01*
X142501321Y-106194955D01*
X142586825Y-106354921D01*
X142639478Y-106528496D01*
X142652800Y-106663761D01*
X142652800Y-107204240D01*
X142639478Y-107339505D01*
X142586825Y-107513079D01*
X142501321Y-107673045D01*
X142386254Y-107813254D01*
X142246043Y-107928322D01*
X142086080Y-108013824D01*
X141912504Y-108066478D01*
X141732000Y-108084256D01*
X141551495Y-108066478D01*
X141377921Y-108013825D01*
X141217955Y-107928321D01*
X141077746Y-107813254D01*
X140962678Y-107673043D01*
X140877176Y-107513080D01*
X140824522Y-107339504D01*
X140811200Y-107204239D01*
X140811200Y-106663760D01*
X140824522Y-106528495D01*
X140877175Y-106354921D01*
X140962680Y-106194955D01*
X141077747Y-106054746D01*
X141217956Y-105939679D01*
X141377922Y-105854175D01*
X141551496Y-105801522D01*
X141732000Y-105783744D01*
X141912505Y-105801522D01*
G37*
G36*
X136832505Y-105801522D02*
G01*
X137006079Y-105854175D01*
X137166045Y-105939679D01*
X137306254Y-106054746D01*
X137421321Y-106194955D01*
X137506825Y-106354921D01*
X137559478Y-106528496D01*
X137572800Y-106663761D01*
X137572800Y-107204240D01*
X137559478Y-107339505D01*
X137506825Y-107513079D01*
X137421321Y-107673045D01*
X137306254Y-107813254D01*
X137166043Y-107928322D01*
X137006080Y-108013824D01*
X136832504Y-108066478D01*
X136652000Y-108084256D01*
X136471495Y-108066478D01*
X136297921Y-108013825D01*
X136137955Y-107928321D01*
X135997746Y-107813254D01*
X135882678Y-107673043D01*
X135797176Y-107513080D01*
X135744522Y-107339504D01*
X135731200Y-107204239D01*
X135731200Y-106663760D01*
X135744522Y-106528495D01*
X135797175Y-106354921D01*
X135882680Y-106194955D01*
X135997747Y-106054746D01*
X136137956Y-105939679D01*
X136297922Y-105854175D01*
X136471496Y-105801522D01*
X136652000Y-105783744D01*
X136832505Y-105801522D01*
G37*
G36*
X134292505Y-105801522D02*
G01*
X134466079Y-105854175D01*
X134626045Y-105939679D01*
X134766254Y-106054746D01*
X134881321Y-106194955D01*
X134966825Y-106354921D01*
X135019478Y-106528496D01*
X135032800Y-106663761D01*
X135032800Y-107204240D01*
X135019478Y-107339505D01*
X134966825Y-107513079D01*
X134881321Y-107673045D01*
X134766254Y-107813254D01*
X134626043Y-107928322D01*
X134466080Y-108013824D01*
X134292504Y-108066478D01*
X134112000Y-108084256D01*
X133931495Y-108066478D01*
X133757921Y-108013825D01*
X133597955Y-107928321D01*
X133457746Y-107813254D01*
X133342678Y-107673043D01*
X133257176Y-107513080D01*
X133204522Y-107339504D01*
X133191200Y-107204239D01*
X133191200Y-106663760D01*
X133204522Y-106528495D01*
X133257175Y-106354921D01*
X133342680Y-106194955D01*
X133457747Y-106054746D01*
X133597956Y-105939679D01*
X133757922Y-105854175D01*
X133931496Y-105801522D01*
X134112000Y-105783744D01*
X134292505Y-105801522D01*
G37*
G36*
X145008912Y-105792829D02*
G01*
X145051717Y-105805814D01*
X145091158Y-105826896D01*
X145125731Y-105855269D01*
X145154104Y-105889842D01*
X145175186Y-105929283D01*
X145188171Y-105972088D01*
X145192800Y-106019088D01*
X145192800Y-107848912D01*
X145188171Y-107895912D01*
X145175186Y-107938717D01*
X145154104Y-107978158D01*
X145125731Y-108012731D01*
X145091158Y-108041104D01*
X145051717Y-108062186D01*
X145008912Y-108075171D01*
X144961912Y-108079800D01*
X143582088Y-108079800D01*
X143535088Y-108075171D01*
X143492283Y-108062186D01*
X143452842Y-108041104D01*
X143418269Y-108012731D01*
X143389896Y-107978158D01*
X143368814Y-107938717D01*
X143355829Y-107895912D01*
X143351200Y-107848912D01*
X143351200Y-106019088D01*
X143355829Y-105972088D01*
X143368814Y-105929283D01*
X143389896Y-105889842D01*
X143418269Y-105855269D01*
X143452842Y-105826896D01*
X143492283Y-105805814D01*
X143535088Y-105792829D01*
X143582088Y-105788200D01*
X144961912Y-105788200D01*
X145008912Y-105792829D01*
G37*
G36*
X125825674Y-104469143D02*
G01*
X125866667Y-104481578D01*
X125904448Y-104501773D01*
X125937556Y-104528944D01*
X125964727Y-104562052D01*
X125984922Y-104599833D01*
X125997357Y-104640826D01*
X126001800Y-104685941D01*
X126001800Y-105220059D01*
X125997357Y-105265174D01*
X125984922Y-105306167D01*
X125964727Y-105343948D01*
X125937556Y-105377056D01*
X125904448Y-105404227D01*
X125866667Y-105424422D01*
X125825674Y-105436857D01*
X125780559Y-105441300D01*
X125171441Y-105441300D01*
X125126326Y-105436857D01*
X125085333Y-105424422D01*
X125047552Y-105404227D01*
X125014444Y-105377056D01*
X124987273Y-105343948D01*
X124967078Y-105306167D01*
X124954643Y-105265174D01*
X124950200Y-105220059D01*
X124950200Y-104685941D01*
X124954643Y-104640826D01*
X124967078Y-104599833D01*
X124987273Y-104562052D01*
X125014444Y-104528944D01*
X125047552Y-104501773D01*
X125085333Y-104481578D01*
X125126326Y-104469143D01*
X125171441Y-104464700D01*
X125780559Y-104464700D01*
X125825674Y-104469143D01*
G37*
G36*
X121507674Y-104469143D02*
G01*
X121548667Y-104481578D01*
X121586448Y-104501773D01*
X121619556Y-104528944D01*
X121646727Y-104562052D01*
X121666922Y-104599833D01*
X121679357Y-104640826D01*
X121683800Y-104685941D01*
X121683800Y-105220059D01*
X121679357Y-105265174D01*
X121666922Y-105306167D01*
X121646727Y-105343948D01*
X121619556Y-105377056D01*
X121586448Y-105404227D01*
X121548667Y-105424422D01*
X121507674Y-105436857D01*
X121462559Y-105441300D01*
X120853441Y-105441300D01*
X120808326Y-105436857D01*
X120767333Y-105424422D01*
X120729552Y-105404227D01*
X120696444Y-105377056D01*
X120669273Y-105343948D01*
X120649078Y-105306167D01*
X120636643Y-105265174D01*
X120632200Y-105220059D01*
X120632200Y-104685941D01*
X120636643Y-104640826D01*
X120649078Y-104599833D01*
X120669273Y-104562052D01*
X120696444Y-104528944D01*
X120729552Y-104501773D01*
X120767333Y-104481578D01*
X120808326Y-104469143D01*
X120853441Y-104464700D01*
X121462559Y-104464700D01*
X121507674Y-104469143D01*
G37*
G36*
X131667674Y-104469143D02*
G01*
X131708667Y-104481578D01*
X131746448Y-104501773D01*
X131779556Y-104528944D01*
X131806727Y-104562052D01*
X131826922Y-104599833D01*
X131839357Y-104640826D01*
X131843800Y-104685941D01*
X131843800Y-105220059D01*
X131839357Y-105265174D01*
X131826922Y-105306167D01*
X131806727Y-105343948D01*
X131779556Y-105377056D01*
X131746448Y-105404227D01*
X131708667Y-105424422D01*
X131667674Y-105436857D01*
X131622559Y-105441300D01*
X131013441Y-105441300D01*
X130968326Y-105436857D01*
X130927333Y-105424422D01*
X130889552Y-105404227D01*
X130856444Y-105377056D01*
X130829273Y-105343948D01*
X130809078Y-105306167D01*
X130796643Y-105265174D01*
X130792200Y-105220059D01*
X130792200Y-104685941D01*
X130796643Y-104640826D01*
X130809078Y-104599833D01*
X130829273Y-104562052D01*
X130856444Y-104528944D01*
X130889552Y-104501773D01*
X130927333Y-104481578D01*
X130968326Y-104469143D01*
X131013441Y-104464700D01*
X131622559Y-104464700D01*
X131667674Y-104469143D01*
G37*
G36*
X130143674Y-104469143D02*
G01*
X130184667Y-104481578D01*
X130222448Y-104501773D01*
X130255556Y-104528944D01*
X130282727Y-104562052D01*
X130302922Y-104599833D01*
X130315357Y-104640826D01*
X130319800Y-104685941D01*
X130319800Y-105220059D01*
X130315357Y-105265174D01*
X130302922Y-105306167D01*
X130282727Y-105343948D01*
X130255556Y-105377056D01*
X130222448Y-105404227D01*
X130184667Y-105424422D01*
X130143674Y-105436857D01*
X130098559Y-105441300D01*
X129489441Y-105441300D01*
X129444326Y-105436857D01*
X129403333Y-105424422D01*
X129365552Y-105404227D01*
X129332444Y-105377056D01*
X129305273Y-105343948D01*
X129285078Y-105306167D01*
X129272643Y-105265174D01*
X129268200Y-105220059D01*
X129268200Y-104685941D01*
X129272643Y-104640826D01*
X129285078Y-104599833D01*
X129305273Y-104562052D01*
X129332444Y-104528944D01*
X129365552Y-104501773D01*
X129403333Y-104481578D01*
X129444326Y-104469143D01*
X129489441Y-104464700D01*
X130098559Y-104464700D01*
X130143674Y-104469143D01*
G37*
G36*
X127349674Y-104469143D02*
G01*
X127390667Y-104481578D01*
X127428448Y-104501773D01*
X127461556Y-104528944D01*
X127488727Y-104562052D01*
X127508922Y-104599833D01*
X127521357Y-104640826D01*
X127525800Y-104685941D01*
X127525800Y-105220059D01*
X127521357Y-105265174D01*
X127508922Y-105306167D01*
X127488727Y-105343948D01*
X127461556Y-105377056D01*
X127428448Y-105404227D01*
X127390667Y-105424422D01*
X127349674Y-105436857D01*
X127304559Y-105441300D01*
X126695441Y-105441300D01*
X126650326Y-105436857D01*
X126609333Y-105424422D01*
X126571552Y-105404227D01*
X126538444Y-105377056D01*
X126511273Y-105343948D01*
X126491078Y-105306167D01*
X126478643Y-105265174D01*
X126474200Y-105220059D01*
X126474200Y-104685941D01*
X126478643Y-104640826D01*
X126491078Y-104599833D01*
X126511273Y-104562052D01*
X126538444Y-104528944D01*
X126571552Y-104501773D01*
X126609333Y-104481578D01*
X126650326Y-104469143D01*
X126695441Y-104464700D01*
X127304559Y-104464700D01*
X127349674Y-104469143D01*
G37*
G36*
X123031674Y-104418143D02*
G01*
X123072667Y-104430578D01*
X123110448Y-104450773D01*
X123143556Y-104477944D01*
X123170727Y-104511052D01*
X123190922Y-104548833D01*
X123203357Y-104589826D01*
X123207800Y-104634941D01*
X123207800Y-105169059D01*
X123203357Y-105214174D01*
X123190922Y-105255167D01*
X123170727Y-105292948D01*
X123143556Y-105326056D01*
X123110448Y-105353227D01*
X123072667Y-105373422D01*
X123031674Y-105385857D01*
X122986559Y-105390300D01*
X122377441Y-105390300D01*
X122332326Y-105385857D01*
X122291333Y-105373422D01*
X122253552Y-105353227D01*
X122220444Y-105326056D01*
X122193273Y-105292948D01*
X122173078Y-105255167D01*
X122160643Y-105214174D01*
X122156200Y-105169059D01*
X122156200Y-104634941D01*
X122160643Y-104589826D01*
X122173078Y-104548833D01*
X122193273Y-104511052D01*
X122220444Y-104477944D01*
X122253552Y-104450773D01*
X122291333Y-104430578D01*
X122332326Y-104418143D01*
X122377441Y-104413700D01*
X122986559Y-104413700D01*
X123031674Y-104418143D01*
G37*
G36*
X127349674Y-102894143D02*
G01*
X127390667Y-102906578D01*
X127428448Y-102926773D01*
X127461556Y-102953944D01*
X127488727Y-102987052D01*
X127508922Y-103024833D01*
X127521357Y-103065826D01*
X127525800Y-103110941D01*
X127525800Y-103645059D01*
X127521357Y-103690174D01*
X127508922Y-103731167D01*
X127488727Y-103768948D01*
X127461556Y-103802056D01*
X127428448Y-103829227D01*
X127390667Y-103849422D01*
X127349674Y-103861857D01*
X127304559Y-103866300D01*
X126695441Y-103866300D01*
X126650326Y-103861857D01*
X126609333Y-103849422D01*
X126571552Y-103829227D01*
X126538444Y-103802056D01*
X126511273Y-103768948D01*
X126491078Y-103731167D01*
X126478643Y-103690174D01*
X126474200Y-103645059D01*
X126474200Y-103110941D01*
X126478643Y-103065826D01*
X126491078Y-103024833D01*
X126511273Y-102987052D01*
X126538444Y-102953944D01*
X126571552Y-102926773D01*
X126609333Y-102906578D01*
X126650326Y-102894143D01*
X126695441Y-102889700D01*
X127304559Y-102889700D01*
X127349674Y-102894143D01*
G37*
G36*
X131667674Y-102894143D02*
G01*
X131708667Y-102906578D01*
X131746448Y-102926773D01*
X131779556Y-102953944D01*
X131806727Y-102987052D01*
X131826922Y-103024833D01*
X131839357Y-103065826D01*
X131843800Y-103110941D01*
X131843800Y-103645059D01*
X131839357Y-103690174D01*
X131826922Y-103731167D01*
X131806727Y-103768948D01*
X131779556Y-103802056D01*
X131746448Y-103829227D01*
X131708667Y-103849422D01*
X131667674Y-103861857D01*
X131622559Y-103866300D01*
X131013441Y-103866300D01*
X130968326Y-103861857D01*
X130927333Y-103849422D01*
X130889552Y-103829227D01*
X130856444Y-103802056D01*
X130829273Y-103768948D01*
X130809078Y-103731167D01*
X130796643Y-103690174D01*
X130792200Y-103645059D01*
X130792200Y-103110941D01*
X130796643Y-103065826D01*
X130809078Y-103024833D01*
X130829273Y-102987052D01*
X130856444Y-102953944D01*
X130889552Y-102926773D01*
X130927333Y-102906578D01*
X130968326Y-102894143D01*
X131013441Y-102889700D01*
X131622559Y-102889700D01*
X131667674Y-102894143D01*
G37*
G36*
X130143674Y-102894143D02*
G01*
X130184667Y-102906578D01*
X130222448Y-102926773D01*
X130255556Y-102953944D01*
X130282727Y-102987052D01*
X130302922Y-103024833D01*
X130315357Y-103065826D01*
X130319800Y-103110941D01*
X130319800Y-103645059D01*
X130315357Y-103690174D01*
X130302922Y-103731167D01*
X130282727Y-103768948D01*
X130255556Y-103802056D01*
X130222448Y-103829227D01*
X130184667Y-103849422D01*
X130143674Y-103861857D01*
X130098559Y-103866300D01*
X129489441Y-103866300D01*
X129444326Y-103861857D01*
X129403333Y-103849422D01*
X129365552Y-103829227D01*
X129332444Y-103802056D01*
X129305273Y-103768948D01*
X129285078Y-103731167D01*
X129272643Y-103690174D01*
X129268200Y-103645059D01*
X129268200Y-103110941D01*
X129272643Y-103065826D01*
X129285078Y-103024833D01*
X129305273Y-102987052D01*
X129332444Y-102953944D01*
X129365552Y-102926773D01*
X129403333Y-102906578D01*
X129444326Y-102894143D01*
X129489441Y-102889700D01*
X130098559Y-102889700D01*
X130143674Y-102894143D01*
G37*
G36*
X121507674Y-102894143D02*
G01*
X121548667Y-102906578D01*
X121586448Y-102926773D01*
X121619556Y-102953944D01*
X121646727Y-102987052D01*
X121666922Y-103024833D01*
X121679357Y-103065826D01*
X121683800Y-103110941D01*
X121683800Y-103645059D01*
X121679357Y-103690174D01*
X121666922Y-103731167D01*
X121646727Y-103768948D01*
X121619556Y-103802056D01*
X121586448Y-103829227D01*
X121548667Y-103849422D01*
X121507674Y-103861857D01*
X121462559Y-103866300D01*
X120853441Y-103866300D01*
X120808326Y-103861857D01*
X120767333Y-103849422D01*
X120729552Y-103829227D01*
X120696444Y-103802056D01*
X120669273Y-103768948D01*
X120649078Y-103731167D01*
X120636643Y-103690174D01*
X120632200Y-103645059D01*
X120632200Y-103110941D01*
X120636643Y-103065826D01*
X120649078Y-103024833D01*
X120669273Y-102987052D01*
X120696444Y-102953944D01*
X120729552Y-102926773D01*
X120767333Y-102906578D01*
X120808326Y-102894143D01*
X120853441Y-102889700D01*
X121462559Y-102889700D01*
X121507674Y-102894143D01*
G37*
G36*
X125825674Y-102894143D02*
G01*
X125866667Y-102906578D01*
X125904448Y-102926773D01*
X125937556Y-102953944D01*
X125964727Y-102987052D01*
X125984922Y-103024833D01*
X125997357Y-103065826D01*
X126001800Y-103110941D01*
X126001800Y-103645059D01*
X125997357Y-103690174D01*
X125984922Y-103731167D01*
X125964727Y-103768948D01*
X125937556Y-103802056D01*
X125904448Y-103829227D01*
X125866667Y-103849422D01*
X125825674Y-103861857D01*
X125780559Y-103866300D01*
X125171441Y-103866300D01*
X125126326Y-103861857D01*
X125085333Y-103849422D01*
X125047552Y-103829227D01*
X125014444Y-103802056D01*
X124987273Y-103768948D01*
X124967078Y-103731167D01*
X124954643Y-103690174D01*
X124950200Y-103645059D01*
X124950200Y-103110941D01*
X124954643Y-103065826D01*
X124967078Y-103024833D01*
X124987273Y-102987052D01*
X125014444Y-102953944D01*
X125047552Y-102926773D01*
X125085333Y-102906578D01*
X125126326Y-102894143D01*
X125171441Y-102889700D01*
X125780559Y-102889700D01*
X125825674Y-102894143D01*
G37*
G36*
X123031674Y-102843143D02*
G01*
X123072667Y-102855578D01*
X123110448Y-102875773D01*
X123143556Y-102902944D01*
X123170727Y-102936052D01*
X123190922Y-102973833D01*
X123203357Y-103014826D01*
X123207800Y-103059941D01*
X123207800Y-103594059D01*
X123203357Y-103639174D01*
X123190922Y-103680167D01*
X123170727Y-103717948D01*
X123143556Y-103751056D01*
X123110448Y-103778227D01*
X123072667Y-103798422D01*
X123031674Y-103810857D01*
X122986559Y-103815300D01*
X122377441Y-103815300D01*
X122332326Y-103810857D01*
X122291333Y-103798422D01*
X122253552Y-103778227D01*
X122220444Y-103751056D01*
X122193273Y-103717948D01*
X122173078Y-103680167D01*
X122160643Y-103639174D01*
X122156200Y-103594059D01*
X122156200Y-103059941D01*
X122160643Y-103014826D01*
X122173078Y-102973833D01*
X122193273Y-102936052D01*
X122220444Y-102902944D01*
X122253552Y-102875773D01*
X122291333Y-102855578D01*
X122332326Y-102843143D01*
X122377441Y-102838700D01*
X122986559Y-102838700D01*
X123031674Y-102843143D01*
G37*
G36*
X113576652Y-99365256D02*
G01*
X113759241Y-99440887D01*
X113923567Y-99550686D01*
X114063314Y-99690433D01*
X114173113Y-99854759D01*
X114248744Y-100037348D01*
X114287300Y-100231184D01*
X114287300Y-100428816D01*
X114248744Y-100622652D01*
X114173113Y-100805241D01*
X114063314Y-100969567D01*
X113923567Y-101109314D01*
X113759241Y-101219113D01*
X113576652Y-101294744D01*
X113382816Y-101333300D01*
X113185184Y-101333300D01*
X112991348Y-101294744D01*
X112808759Y-101219113D01*
X112644433Y-101109314D01*
X112504686Y-100969567D01*
X112394887Y-100805241D01*
X112319256Y-100622652D01*
X112280700Y-100428816D01*
X112280700Y-100231184D01*
X112319256Y-100037348D01*
X112394887Y-99854759D01*
X112504686Y-99690433D01*
X112644433Y-99550686D01*
X112808759Y-99440887D01*
X112991348Y-99365256D01*
X113185184Y-99326700D01*
X113382816Y-99326700D01*
X113576652Y-99365256D01*
G37*
G36*
X123736652Y-99365256D02*
G01*
X123919241Y-99440887D01*
X124083567Y-99550686D01*
X124223314Y-99690433D01*
X124333113Y-99854759D01*
X124408744Y-100037348D01*
X124447300Y-100231184D01*
X124447300Y-100428816D01*
X124408744Y-100622652D01*
X124333113Y-100805241D01*
X124223314Y-100969567D01*
X124083567Y-101109314D01*
X123919241Y-101219113D01*
X123736652Y-101294744D01*
X123542816Y-101333300D01*
X123345184Y-101333300D01*
X123151348Y-101294744D01*
X122968759Y-101219113D01*
X122804433Y-101109314D01*
X122664686Y-100969567D01*
X122554887Y-100805241D01*
X122479256Y-100622652D01*
X122440700Y-100428816D01*
X122440700Y-100231184D01*
X122479256Y-100037348D01*
X122554887Y-99854759D01*
X122664686Y-99690433D01*
X122804433Y-99550686D01*
X122968759Y-99440887D01*
X123151348Y-99365256D01*
X123345184Y-99326700D01*
X123542816Y-99326700D01*
X123736652Y-99365256D01*
G37*
G36*
X121196652Y-99365256D02*
G01*
X121379241Y-99440887D01*
X121543567Y-99550686D01*
X121683314Y-99690433D01*
X121793113Y-99854759D01*
X121868744Y-100037348D01*
X121907300Y-100231184D01*
X121907300Y-100428816D01*
X121868744Y-100622652D01*
X121793113Y-100805241D01*
X121683314Y-100969567D01*
X121543567Y-101109314D01*
X121379241Y-101219113D01*
X121196652Y-101294744D01*
X121002816Y-101333300D01*
X120805184Y-101333300D01*
X120611348Y-101294744D01*
X120428759Y-101219113D01*
X120264433Y-101109314D01*
X120124686Y-100969567D01*
X120014887Y-100805241D01*
X119939256Y-100622652D01*
X119900700Y-100428816D01*
X119900700Y-100231184D01*
X119939256Y-100037348D01*
X120014887Y-99854759D01*
X120124686Y-99690433D01*
X120264433Y-99550686D01*
X120428759Y-99440887D01*
X120611348Y-99365256D01*
X120805184Y-99326700D01*
X121002816Y-99326700D01*
X121196652Y-99365256D01*
G37*
G36*
X118656652Y-99365256D02*
G01*
X118839241Y-99440887D01*
X119003567Y-99550686D01*
X119143314Y-99690433D01*
X119253113Y-99854759D01*
X119328744Y-100037348D01*
X119367300Y-100231184D01*
X119367300Y-100428816D01*
X119328744Y-100622652D01*
X119253113Y-100805241D01*
X119143314Y-100969567D01*
X119003567Y-101109314D01*
X118839241Y-101219113D01*
X118656652Y-101294744D01*
X118462816Y-101333300D01*
X118265184Y-101333300D01*
X118071348Y-101294744D01*
X117888759Y-101219113D01*
X117724433Y-101109314D01*
X117584686Y-100969567D01*
X117474887Y-100805241D01*
X117399256Y-100622652D01*
X117360700Y-100428816D01*
X117360700Y-100231184D01*
X117399256Y-100037348D01*
X117474887Y-99854759D01*
X117584686Y-99690433D01*
X117724433Y-99550686D01*
X117888759Y-99440887D01*
X118071348Y-99365256D01*
X118265184Y-99326700D01*
X118462816Y-99326700D01*
X118656652Y-99365256D01*
G37*
G36*
X133896652Y-99365256D02*
G01*
X134079241Y-99440887D01*
X134243567Y-99550686D01*
X134383314Y-99690433D01*
X134493113Y-99854759D01*
X134568744Y-100037348D01*
X134607300Y-100231184D01*
X134607300Y-100428816D01*
X134568744Y-100622652D01*
X134493113Y-100805241D01*
X134383314Y-100969567D01*
X134243567Y-101109314D01*
X134079241Y-101219113D01*
X133896652Y-101294744D01*
X133702816Y-101333300D01*
X133505184Y-101333300D01*
X133311348Y-101294744D01*
X133128759Y-101219113D01*
X132964433Y-101109314D01*
X132824686Y-100969567D01*
X132714887Y-100805241D01*
X132639256Y-100622652D01*
X132600700Y-100428816D01*
X132600700Y-100231184D01*
X132639256Y-100037348D01*
X132714887Y-99854759D01*
X132824686Y-99690433D01*
X132964433Y-99550686D01*
X133128759Y-99440887D01*
X133311348Y-99365256D01*
X133505184Y-99326700D01*
X133702816Y-99326700D01*
X133896652Y-99365256D01*
G37*
G36*
X146596652Y-94285256D02*
G01*
X146779241Y-94360887D01*
X146943567Y-94470686D01*
X147083314Y-94610433D01*
X147193113Y-94774759D01*
X147268744Y-94957348D01*
X147307300Y-95151184D01*
X147307300Y-95348816D01*
X147268744Y-95542652D01*
X147193113Y-95725241D01*
X147083314Y-95889567D01*
X146943567Y-96029314D01*
X146779241Y-96139113D01*
X146596652Y-96214744D01*
X146402816Y-96253300D01*
X146205184Y-96253300D01*
X146011348Y-96214744D01*
X145828759Y-96139113D01*
X145664433Y-96029314D01*
X145524686Y-95889567D01*
X145414887Y-95725241D01*
X145339256Y-95542652D01*
X145300700Y-95348816D01*
X145300700Y-95151184D01*
X145339256Y-94957348D01*
X145414887Y-94774759D01*
X145524686Y-94610433D01*
X145664433Y-94470686D01*
X145828759Y-94360887D01*
X146011348Y-94285256D01*
X146205184Y-94246700D01*
X146402816Y-94246700D01*
X146596652Y-94285256D01*
G37*
G36*
X146596652Y-91745256D02*
G01*
X146779241Y-91820887D01*
X146943567Y-91930686D01*
X147083314Y-92070433D01*
X147193113Y-92234759D01*
X147268744Y-92417348D01*
X147307300Y-92611184D01*
X147307300Y-92808816D01*
X147268744Y-93002652D01*
X147193113Y-93185241D01*
X147083314Y-93349567D01*
X146943567Y-93489314D01*
X146779241Y-93599113D01*
X146596652Y-93674744D01*
X146402816Y-93713300D01*
X146205184Y-93713300D01*
X146011348Y-93674744D01*
X145828759Y-93599113D01*
X145664433Y-93489314D01*
X145524686Y-93349567D01*
X145414887Y-93185241D01*
X145339256Y-93002652D01*
X145300700Y-92808816D01*
X145300700Y-92611184D01*
X145339256Y-92417348D01*
X145414887Y-92234759D01*
X145524686Y-92070433D01*
X145664433Y-91930686D01*
X145828759Y-91820887D01*
X146011348Y-91745256D01*
X146205184Y-91706700D01*
X146402816Y-91706700D01*
X146596652Y-91745256D01*
G37*
G36*
X118656652Y-84125256D02*
G01*
X118839241Y-84200887D01*
X119003567Y-84310686D01*
X119143314Y-84450433D01*
X119253113Y-84614759D01*
X119328744Y-84797348D01*
X119367300Y-84991184D01*
X119367300Y-85188816D01*
X119328744Y-85382652D01*
X119253113Y-85565241D01*
X119143314Y-85729567D01*
X119003567Y-85869314D01*
X118839241Y-85979113D01*
X118656652Y-86054744D01*
X118462816Y-86093300D01*
X118265184Y-86093300D01*
X118071348Y-86054744D01*
X117888759Y-85979113D01*
X117724433Y-85869314D01*
X117584686Y-85729567D01*
X117474887Y-85565241D01*
X117399256Y-85382652D01*
X117360700Y-85188816D01*
X117360700Y-84991184D01*
X117399256Y-84797348D01*
X117474887Y-84614759D01*
X117584686Y-84450433D01*
X117724433Y-84310686D01*
X117888759Y-84200887D01*
X118071348Y-84125256D01*
X118265184Y-84086700D01*
X118462816Y-84086700D01*
X118656652Y-84125256D01*
G37*
G36*
X141516652Y-84125256D02*
G01*
X141699241Y-84200887D01*
X141863567Y-84310686D01*
X142003314Y-84450433D01*
X142113113Y-84614759D01*
X142188744Y-84797348D01*
X142227300Y-84991184D01*
X142227300Y-85188816D01*
X142188744Y-85382652D01*
X142113113Y-85565241D01*
X142003314Y-85729567D01*
X141863567Y-85869314D01*
X141699241Y-85979113D01*
X141516652Y-86054744D01*
X141322816Y-86093300D01*
X141125184Y-86093300D01*
X140931348Y-86054744D01*
X140748759Y-85979113D01*
X140584433Y-85869314D01*
X140444686Y-85729567D01*
X140334887Y-85565241D01*
X140259256Y-85382652D01*
X140220700Y-85188816D01*
X140220700Y-84991184D01*
X140259256Y-84797348D01*
X140334887Y-84614759D01*
X140444686Y-84450433D01*
X140584433Y-84310686D01*
X140748759Y-84200887D01*
X140931348Y-84125256D01*
X141125184Y-84086700D01*
X141322816Y-84086700D01*
X141516652Y-84125256D01*
G37*
G36*
X136436652Y-84125256D02*
G01*
X136619241Y-84200887D01*
X136783567Y-84310686D01*
X136923314Y-84450433D01*
X137033113Y-84614759D01*
X137108744Y-84797348D01*
X137147300Y-84991184D01*
X137147300Y-85188816D01*
X137108744Y-85382652D01*
X137033113Y-85565241D01*
X136923314Y-85729567D01*
X136783567Y-85869314D01*
X136619241Y-85979113D01*
X136436652Y-86054744D01*
X136242816Y-86093300D01*
X136045184Y-86093300D01*
X135851348Y-86054744D01*
X135668759Y-85979113D01*
X135504433Y-85869314D01*
X135364686Y-85729567D01*
X135254887Y-85565241D01*
X135179256Y-85382652D01*
X135140700Y-85188816D01*
X135140700Y-84991184D01*
X135179256Y-84797348D01*
X135254887Y-84614759D01*
X135364686Y-84450433D01*
X135504433Y-84310686D01*
X135668759Y-84200887D01*
X135851348Y-84125256D01*
X136045184Y-84086700D01*
X136242816Y-84086700D01*
X136436652Y-84125256D01*
G37*
G36*
X121196652Y-84125256D02*
G01*
X121379241Y-84200887D01*
X121543567Y-84310686D01*
X121683314Y-84450433D01*
X121793113Y-84614759D01*
X121868744Y-84797348D01*
X121907300Y-84991184D01*
X121907300Y-85188816D01*
X121868744Y-85382652D01*
X121793113Y-85565241D01*
X121683314Y-85729567D01*
X121543567Y-85869314D01*
X121379241Y-85979113D01*
X121196652Y-86054744D01*
X121002816Y-86093300D01*
X120805184Y-86093300D01*
X120611348Y-86054744D01*
X120428759Y-85979113D01*
X120264433Y-85869314D01*
X120124686Y-85729567D01*
X120014887Y-85565241D01*
X119939256Y-85382652D01*
X119900700Y-85188816D01*
X119900700Y-84991184D01*
X119939256Y-84797348D01*
X120014887Y-84614759D01*
X120124686Y-84450433D01*
X120264433Y-84310686D01*
X120428759Y-84200887D01*
X120611348Y-84125256D01*
X120805184Y-84086700D01*
X121002816Y-84086700D01*
X121196652Y-84125256D01*
G37*
G36*
X144056652Y-84125256D02*
G01*
X144239241Y-84200887D01*
X144403567Y-84310686D01*
X144543314Y-84450433D01*
X144653113Y-84614759D01*
X144728744Y-84797348D01*
X144767300Y-84991184D01*
X144767300Y-85188816D01*
X144728744Y-85382652D01*
X144653113Y-85565241D01*
X144543314Y-85729567D01*
X144403567Y-85869314D01*
X144239241Y-85979113D01*
X144056652Y-86054744D01*
X143862816Y-86093300D01*
X143665184Y-86093300D01*
X143471348Y-86054744D01*
X143288759Y-85979113D01*
X143124433Y-85869314D01*
X142984686Y-85729567D01*
X142874887Y-85565241D01*
X142799256Y-85382652D01*
X142760700Y-85188816D01*
X142760700Y-84991184D01*
X142799256Y-84797348D01*
X142874887Y-84614759D01*
X142984686Y-84450433D01*
X143124433Y-84310686D01*
X143288759Y-84200887D01*
X143471348Y-84125256D01*
X143665184Y-84086700D01*
X143862816Y-84086700D01*
X144056652Y-84125256D01*
G37*
G36*
X116116652Y-84125256D02*
G01*
X116299241Y-84200887D01*
X116463567Y-84310686D01*
X116603314Y-84450433D01*
X116713113Y-84614759D01*
X116788744Y-84797348D01*
X116827300Y-84991184D01*
X116827300Y-85188816D01*
X116788744Y-85382652D01*
X116713113Y-85565241D01*
X116603314Y-85729567D01*
X116463567Y-85869314D01*
X116299241Y-85979113D01*
X116116652Y-86054744D01*
X115922816Y-86093300D01*
X115725184Y-86093300D01*
X115531348Y-86054744D01*
X115348759Y-85979113D01*
X115184433Y-85869314D01*
X115044686Y-85729567D01*
X114934887Y-85565241D01*
X114859256Y-85382652D01*
X114820700Y-85188816D01*
X114820700Y-84991184D01*
X114859256Y-84797348D01*
X114934887Y-84614759D01*
X115044686Y-84450433D01*
X115184433Y-84310686D01*
X115348759Y-84200887D01*
X115531348Y-84125256D01*
X115725184Y-84086700D01*
X115922816Y-84086700D01*
X116116652Y-84125256D01*
G37*
G36*
X113576652Y-84125256D02*
G01*
X113759241Y-84200887D01*
X113923567Y-84310686D01*
X114063314Y-84450433D01*
X114173113Y-84614759D01*
X114248744Y-84797348D01*
X114287300Y-84991184D01*
X114287300Y-85188816D01*
X114248744Y-85382652D01*
X114173113Y-85565241D01*
X114063314Y-85729567D01*
X113923567Y-85869314D01*
X113759241Y-85979113D01*
X113576652Y-86054744D01*
X113382816Y-86093300D01*
X113185184Y-86093300D01*
X112991348Y-86054744D01*
X112808759Y-85979113D01*
X112644433Y-85869314D01*
X112504686Y-85729567D01*
X112394887Y-85565241D01*
X112319256Y-85382652D01*
X112280700Y-85188816D01*
X112280700Y-84991184D01*
X112319256Y-84797348D01*
X112394887Y-84614759D01*
X112504686Y-84450433D01*
X112644433Y-84310686D01*
X112808759Y-84200887D01*
X112991348Y-84125256D01*
X113185184Y-84086700D01*
X113382816Y-84086700D01*
X113576652Y-84125256D01*
G37*
G36*
X139783674Y-81774643D02*
G01*
X139824667Y-81787078D01*
X139862448Y-81807273D01*
X139895556Y-81834444D01*
X139922727Y-81867552D01*
X139942922Y-81905333D01*
X139955357Y-81946326D01*
X139959800Y-81991441D01*
X139959800Y-82600559D01*
X139955357Y-82645674D01*
X139942922Y-82686667D01*
X139922727Y-82724448D01*
X139895556Y-82757556D01*
X139862448Y-82784727D01*
X139824667Y-82804922D01*
X139783674Y-82817357D01*
X139738559Y-82821800D01*
X139204441Y-82821800D01*
X139159326Y-82817357D01*
X139118333Y-82804922D01*
X139080552Y-82784727D01*
X139047444Y-82757556D01*
X139020273Y-82724448D01*
X139000078Y-82686667D01*
X138987643Y-82645674D01*
X138983200Y-82600559D01*
X138983200Y-81991441D01*
X138987643Y-81946326D01*
X139000078Y-81905333D01*
X139020273Y-81867552D01*
X139047444Y-81834444D01*
X139080552Y-81807273D01*
X139118333Y-81787078D01*
X139159326Y-81774643D01*
X139204441Y-81770200D01*
X139738559Y-81770200D01*
X139783674Y-81774643D01*
G37*
G36*
X138208674Y-81774643D02*
G01*
X138249667Y-81787078D01*
X138287448Y-81807273D01*
X138320556Y-81834444D01*
X138347727Y-81867552D01*
X138367922Y-81905333D01*
X138380357Y-81946326D01*
X138384800Y-81991441D01*
X138384800Y-82600559D01*
X138380357Y-82645674D01*
X138367922Y-82686667D01*
X138347727Y-82724448D01*
X138320556Y-82757556D01*
X138287448Y-82784727D01*
X138249667Y-82804922D01*
X138208674Y-82817357D01*
X138163559Y-82821800D01*
X137629441Y-82821800D01*
X137584326Y-82817357D01*
X137543333Y-82804922D01*
X137505552Y-82784727D01*
X137472444Y-82757556D01*
X137445273Y-82724448D01*
X137425078Y-82686667D01*
X137412643Y-82645674D01*
X137408200Y-82600559D01*
X137408200Y-81991441D01*
X137412643Y-81946326D01*
X137425078Y-81905333D01*
X137445273Y-81867552D01*
X137472444Y-81834444D01*
X137505552Y-81807273D01*
X137543333Y-81787078D01*
X137584326Y-81774643D01*
X137629441Y-81770200D01*
X138163559Y-81770200D01*
X138208674Y-81774643D01*
G37*
G36*
X135973674Y-81774643D02*
G01*
X136014667Y-81787078D01*
X136052448Y-81807273D01*
X136085556Y-81834444D01*
X136112727Y-81867552D01*
X136132922Y-81905333D01*
X136145357Y-81946326D01*
X136149800Y-81991441D01*
X136149800Y-82600559D01*
X136145357Y-82645674D01*
X136132922Y-82686667D01*
X136112727Y-82724448D01*
X136085556Y-82757556D01*
X136052448Y-82784727D01*
X136014667Y-82804922D01*
X135973674Y-82817357D01*
X135928559Y-82821800D01*
X135394441Y-82821800D01*
X135349326Y-82817357D01*
X135308333Y-82804922D01*
X135270552Y-82784727D01*
X135237444Y-82757556D01*
X135210273Y-82724448D01*
X135190078Y-82686667D01*
X135177643Y-82645674D01*
X135173200Y-82600559D01*
X135173200Y-81991441D01*
X135177643Y-81946326D01*
X135190078Y-81905333D01*
X135210273Y-81867552D01*
X135237444Y-81834444D01*
X135270552Y-81807273D01*
X135308333Y-81787078D01*
X135349326Y-81774643D01*
X135394441Y-81770200D01*
X135928559Y-81770200D01*
X135973674Y-81774643D01*
G37*
G36*
X122511674Y-81774643D02*
G01*
X122552667Y-81787078D01*
X122590448Y-81807273D01*
X122623556Y-81834444D01*
X122650727Y-81867552D01*
X122670922Y-81905333D01*
X122683357Y-81946326D01*
X122687800Y-81991441D01*
X122687800Y-82600559D01*
X122683357Y-82645674D01*
X122670922Y-82686667D01*
X122650727Y-82724448D01*
X122623556Y-82757556D01*
X122590448Y-82784727D01*
X122552667Y-82804922D01*
X122511674Y-82817357D01*
X122466559Y-82821800D01*
X121932441Y-82821800D01*
X121887326Y-82817357D01*
X121846333Y-82804922D01*
X121808552Y-82784727D01*
X121775444Y-82757556D01*
X121748273Y-82724448D01*
X121728078Y-82686667D01*
X121715643Y-82645674D01*
X121711200Y-82600559D01*
X121711200Y-81991441D01*
X121715643Y-81946326D01*
X121728078Y-81905333D01*
X121748273Y-81867552D01*
X121775444Y-81834444D01*
X121808552Y-81807273D01*
X121846333Y-81787078D01*
X121887326Y-81774643D01*
X121932441Y-81770200D01*
X122466559Y-81770200D01*
X122511674Y-81774643D01*
G37*
G36*
X120936674Y-81774643D02*
G01*
X120977667Y-81787078D01*
X121015448Y-81807273D01*
X121048556Y-81834444D01*
X121075727Y-81867552D01*
X121095922Y-81905333D01*
X121108357Y-81946326D01*
X121112800Y-81991441D01*
X121112800Y-82600559D01*
X121108357Y-82645674D01*
X121095922Y-82686667D01*
X121075727Y-82724448D01*
X121048556Y-82757556D01*
X121015448Y-82784727D01*
X120977667Y-82804922D01*
X120936674Y-82817357D01*
X120891559Y-82821800D01*
X120357441Y-82821800D01*
X120312326Y-82817357D01*
X120271333Y-82804922D01*
X120233552Y-82784727D01*
X120200444Y-82757556D01*
X120173273Y-82724448D01*
X120153078Y-82686667D01*
X120140643Y-82645674D01*
X120136200Y-82600559D01*
X120136200Y-81991441D01*
X120140643Y-81946326D01*
X120153078Y-81905333D01*
X120173273Y-81867552D01*
X120200444Y-81834444D01*
X120233552Y-81807273D01*
X120271333Y-81787078D01*
X120312326Y-81774643D01*
X120357441Y-81770200D01*
X120891559Y-81770200D01*
X120936674Y-81774643D01*
G37*
G36*
X134398674Y-81774643D02*
G01*
X134439667Y-81787078D01*
X134477448Y-81807273D01*
X134510556Y-81834444D01*
X134537727Y-81867552D01*
X134557922Y-81905333D01*
X134570357Y-81946326D01*
X134574800Y-81991441D01*
X134574800Y-82600559D01*
X134570357Y-82645674D01*
X134557922Y-82686667D01*
X134537727Y-82724448D01*
X134510556Y-82757556D01*
X134477448Y-82784727D01*
X134439667Y-82804922D01*
X134398674Y-82817357D01*
X134353559Y-82821800D01*
X133819441Y-82821800D01*
X133774326Y-82817357D01*
X133733333Y-82804922D01*
X133695552Y-82784727D01*
X133662444Y-82757556D01*
X133635273Y-82724448D01*
X133615078Y-82686667D01*
X133602643Y-82645674D01*
X133598200Y-82600559D01*
X133598200Y-81991441D01*
X133602643Y-81946326D01*
X133615078Y-81905333D01*
X133635273Y-81867552D01*
X133662444Y-81834444D01*
X133695552Y-81807273D01*
X133733333Y-81787078D01*
X133774326Y-81774643D01*
X133819441Y-81770200D01*
X134353559Y-81770200D01*
X134398674Y-81774643D01*
G37*
G36*
X118701674Y-81774643D02*
G01*
X118742667Y-81787078D01*
X118780448Y-81807273D01*
X118813556Y-81834444D01*
X118840727Y-81867552D01*
X118860922Y-81905333D01*
X118873357Y-81946326D01*
X118877800Y-81991441D01*
X118877800Y-82600559D01*
X118873357Y-82645674D01*
X118860922Y-82686667D01*
X118840727Y-82724448D01*
X118813556Y-82757556D01*
X118780448Y-82784727D01*
X118742667Y-82804922D01*
X118701674Y-82817357D01*
X118656559Y-82821800D01*
X118122441Y-82821800D01*
X118077326Y-82817357D01*
X118036333Y-82804922D01*
X117998552Y-82784727D01*
X117965444Y-82757556D01*
X117938273Y-82724448D01*
X117918078Y-82686667D01*
X117905643Y-82645674D01*
X117901200Y-82600559D01*
X117901200Y-81991441D01*
X117905643Y-81946326D01*
X117918078Y-81905333D01*
X117938273Y-81867552D01*
X117965444Y-81834444D01*
X117998552Y-81807273D01*
X118036333Y-81787078D01*
X118077326Y-81774643D01*
X118122441Y-81770200D01*
X118656559Y-81770200D01*
X118701674Y-81774643D01*
G37*
G36*
X117126674Y-81774643D02*
G01*
X117167667Y-81787078D01*
X117205448Y-81807273D01*
X117238556Y-81834444D01*
X117265727Y-81867552D01*
X117285922Y-81905333D01*
X117298357Y-81946326D01*
X117302800Y-81991441D01*
X117302800Y-82600559D01*
X117298357Y-82645674D01*
X117285922Y-82686667D01*
X117265727Y-82724448D01*
X117238556Y-82757556D01*
X117205448Y-82784727D01*
X117167667Y-82804922D01*
X117126674Y-82817357D01*
X117081559Y-82821800D01*
X116547441Y-82821800D01*
X116502326Y-82817357D01*
X116461333Y-82804922D01*
X116423552Y-82784727D01*
X116390444Y-82757556D01*
X116363273Y-82724448D01*
X116343078Y-82686667D01*
X116330643Y-82645674D01*
X116326200Y-82600559D01*
X116326200Y-81991441D01*
X116330643Y-81946326D01*
X116343078Y-81905333D01*
X116363273Y-81867552D01*
X116390444Y-81834444D01*
X116423552Y-81807273D01*
X116461333Y-81787078D01*
X116502326Y-81774643D01*
X116547441Y-81770200D01*
X117081559Y-81770200D01*
X117126674Y-81774643D01*
G37*
G36*
X152538800Y-80402800D02*
G01*
X150737200Y-80402800D01*
X150737200Y-78601200D01*
X152538800Y-78601200D01*
X152538800Y-80402800D01*
G37*
G36*
X136958508Y-77348582D02*
G01*
X137149741Y-77427793D01*
X137321847Y-77542791D01*
X137468209Y-77689153D01*
X137583207Y-77861259D01*
X137662418Y-78052492D01*
X137702800Y-78255505D01*
X137702800Y-78462495D01*
X137662418Y-78665508D01*
X137583207Y-78856741D01*
X137468209Y-79028847D01*
X137321847Y-79175209D01*
X137149741Y-79290207D01*
X136958508Y-79369418D01*
X136755495Y-79409800D01*
X136548505Y-79409800D01*
X136345492Y-79369418D01*
X136154259Y-79290207D01*
X135982153Y-79175209D01*
X135835791Y-79028847D01*
X135720793Y-78856741D01*
X135641582Y-78665508D01*
X135601200Y-78462495D01*
X135601200Y-78255505D01*
X135641582Y-78052492D01*
X135720793Y-77861259D01*
X135835791Y-77689153D01*
X135982153Y-77542791D01*
X136154259Y-77427793D01*
X136345492Y-77348582D01*
X136548505Y-77308200D01*
X136755495Y-77308200D01*
X136958508Y-77348582D01*
G37*
G36*
X124258508Y-77348582D02*
G01*
X124449741Y-77427793D01*
X124621847Y-77542791D01*
X124768209Y-77689153D01*
X124883207Y-77861259D01*
X124962418Y-78052492D01*
X125002800Y-78255505D01*
X125002800Y-78462495D01*
X124962418Y-78665508D01*
X124883207Y-78856741D01*
X124768209Y-79028847D01*
X124621847Y-79175209D01*
X124449741Y-79290207D01*
X124258508Y-79369418D01*
X124055495Y-79409800D01*
X123848505Y-79409800D01*
X123645492Y-79369418D01*
X123454259Y-79290207D01*
X123282153Y-79175209D01*
X123135791Y-79028847D01*
X123020793Y-78856741D01*
X122941582Y-78665508D01*
X122901200Y-78462495D01*
X122901200Y-78255505D01*
X122941582Y-78052492D01*
X123020793Y-77861259D01*
X123135791Y-77689153D01*
X123282153Y-77542791D01*
X123454259Y-77427793D01*
X123645492Y-77348582D01*
X123848505Y-77308200D01*
X124055495Y-77308200D01*
X124258508Y-77348582D01*
G37*
G36*
X142502754Y-76603817D02*
G01*
X142666689Y-76671721D01*
X142814227Y-76770303D01*
X142939697Y-76895773D01*
X143038279Y-77043311D01*
X143106183Y-77207246D01*
X143140800Y-77381279D01*
X143140800Y-77558721D01*
X143106183Y-77732754D01*
X143038279Y-77896689D01*
X142939697Y-78044227D01*
X142814227Y-78169697D01*
X142666689Y-78268279D01*
X142502754Y-78336183D01*
X142328721Y-78370800D01*
X142151279Y-78370800D01*
X141977246Y-78336183D01*
X141813311Y-78268279D01*
X141665773Y-78169697D01*
X141540303Y-78044227D01*
X141441721Y-77896689D01*
X141373817Y-77732754D01*
X141339200Y-77558721D01*
X141339200Y-77381279D01*
X141373817Y-77207246D01*
X141441721Y-77043311D01*
X141540303Y-76895773D01*
X141665773Y-76770303D01*
X141813311Y-76671721D01*
X141977246Y-76603817D01*
X142151279Y-76569200D01*
X142328721Y-76569200D01*
X142502754Y-76603817D01*
G37*
G36*
X129802754Y-76603817D02*
G01*
X129966689Y-76671721D01*
X130114227Y-76770303D01*
X130239697Y-76895773D01*
X130338279Y-77043311D01*
X130406183Y-77207246D01*
X130440800Y-77381279D01*
X130440800Y-77558721D01*
X130406183Y-77732754D01*
X130338279Y-77896689D01*
X130239697Y-78044227D01*
X130114227Y-78169697D01*
X129966689Y-78268279D01*
X129802754Y-78336183D01*
X129628721Y-78370800D01*
X129451279Y-78370800D01*
X129277246Y-78336183D01*
X129113311Y-78268279D01*
X128965773Y-78169697D01*
X128840303Y-78044227D01*
X128741721Y-77896689D01*
X128673817Y-77732754D01*
X128639200Y-77558721D01*
X128639200Y-77381279D01*
X128673817Y-77207246D01*
X128741721Y-77043311D01*
X128840303Y-76895773D01*
X128965773Y-76770303D01*
X129113311Y-76671721D01*
X129277246Y-76603817D01*
X129451279Y-76569200D01*
X129628721Y-76569200D01*
X129802754Y-76603817D01*
G37*
G36*
X151900754Y-76095817D02*
G01*
X152064689Y-76163721D01*
X152212227Y-76262303D01*
X152337697Y-76387773D01*
X152436279Y-76535311D01*
X152504183Y-76699246D01*
X152538800Y-76873279D01*
X152538800Y-77050721D01*
X152504183Y-77224754D01*
X152436279Y-77388689D01*
X152337697Y-77536227D01*
X152212227Y-77661697D01*
X152064689Y-77760279D01*
X151900754Y-77828183D01*
X151726721Y-77862800D01*
X151549279Y-77862800D01*
X151375246Y-77828183D01*
X151211311Y-77760279D01*
X151063773Y-77661697D01*
X150938303Y-77536227D01*
X150839721Y-77388689D01*
X150771817Y-77224754D01*
X150737200Y-77050721D01*
X150737200Y-76873279D01*
X150771817Y-76699246D01*
X150839721Y-76535311D01*
X150938303Y-76387773D01*
X151063773Y-76262303D01*
X151211311Y-76163721D01*
X151375246Y-76095817D01*
X151549279Y-76061200D01*
X151726721Y-76061200D01*
X151900754Y-76095817D01*
G37*
G36*
X142502754Y-74063817D02*
G01*
X142666689Y-74131721D01*
X142814227Y-74230303D01*
X142939697Y-74355773D01*
X143038279Y-74503311D01*
X143106183Y-74667246D01*
X143140800Y-74841279D01*
X143140800Y-75018721D01*
X143106183Y-75192754D01*
X143038279Y-75356689D01*
X142939697Y-75504227D01*
X142814227Y-75629697D01*
X142666689Y-75728279D01*
X142502754Y-75796183D01*
X142328721Y-75830800D01*
X142151279Y-75830800D01*
X141977246Y-75796183D01*
X141813311Y-75728279D01*
X141665773Y-75629697D01*
X141540303Y-75504227D01*
X141441721Y-75356689D01*
X141373817Y-75192754D01*
X141339200Y-75018721D01*
X141339200Y-74841279D01*
X141373817Y-74667246D01*
X141441721Y-74503311D01*
X141540303Y-74355773D01*
X141665773Y-74230303D01*
X141813311Y-74131721D01*
X141977246Y-74063817D01*
X142151279Y-74029200D01*
X142328721Y-74029200D01*
X142502754Y-74063817D01*
G37*
G36*
X129802754Y-74063817D02*
G01*
X129966689Y-74131721D01*
X130114227Y-74230303D01*
X130239697Y-74355773D01*
X130338279Y-74503311D01*
X130406183Y-74667246D01*
X130440800Y-74841279D01*
X130440800Y-75018721D01*
X130406183Y-75192754D01*
X130338279Y-75356689D01*
X130239697Y-75504227D01*
X130114227Y-75629697D01*
X129966689Y-75728279D01*
X129802754Y-75796183D01*
X129628721Y-75830800D01*
X129451279Y-75830800D01*
X129277246Y-75796183D01*
X129113311Y-75728279D01*
X128965773Y-75629697D01*
X128840303Y-75504227D01*
X128741721Y-75356689D01*
X128673817Y-75192754D01*
X128639200Y-75018721D01*
X128639200Y-74841279D01*
X128673817Y-74667246D01*
X128741721Y-74503311D01*
X128840303Y-74355773D01*
X128965773Y-74230303D01*
X129113311Y-74131721D01*
X129277246Y-74063817D01*
X129451279Y-74029200D01*
X129628721Y-74029200D01*
X129802754Y-74063817D01*
G37*
G36*
X114352508Y-73665582D02*
G01*
X114543741Y-73744793D01*
X114715847Y-73859791D01*
X114862209Y-74006153D01*
X114977207Y-74178259D01*
X115056418Y-74369492D01*
X115096800Y-74572505D01*
X115096800Y-74779495D01*
X115056418Y-74982508D01*
X114977207Y-75173741D01*
X114862209Y-75345847D01*
X114715847Y-75492209D01*
X114543741Y-75607207D01*
X114352508Y-75686418D01*
X114149495Y-75726800D01*
X113942505Y-75726800D01*
X113739492Y-75686418D01*
X113548259Y-75607207D01*
X113376153Y-75492209D01*
X113229791Y-75345847D01*
X113114793Y-75173741D01*
X113035582Y-74982508D01*
X112995200Y-74779495D01*
X112995200Y-74572505D01*
X113035582Y-74369492D01*
X113114793Y-74178259D01*
X113229791Y-74006153D01*
X113376153Y-73859791D01*
X113548259Y-73744793D01*
X113739492Y-73665582D01*
X113942505Y-73625200D01*
X114149495Y-73625200D01*
X114352508Y-73665582D01*
G37*
G36*
X124721174Y-74408643D02*
G01*
X124762167Y-74421078D01*
X124799948Y-74441273D01*
X124833056Y-74468444D01*
X124860227Y-74501552D01*
X124880422Y-74539333D01*
X124892857Y-74580326D01*
X124897300Y-74625441D01*
X124897300Y-75234559D01*
X124892857Y-75279674D01*
X124880422Y-75320667D01*
X124860227Y-75358448D01*
X124833056Y-75391556D01*
X124799948Y-75418727D01*
X124762167Y-75438922D01*
X124721174Y-75451357D01*
X124676059Y-75455800D01*
X124141941Y-75455800D01*
X124096826Y-75451357D01*
X124055833Y-75438922D01*
X124018052Y-75418727D01*
X123984944Y-75391556D01*
X123957773Y-75358448D01*
X123937578Y-75320667D01*
X123925143Y-75279674D01*
X123920700Y-75234559D01*
X123920700Y-74625441D01*
X123925143Y-74580326D01*
X123937578Y-74539333D01*
X123957773Y-74501552D01*
X123984944Y-74468444D01*
X124018052Y-74441273D01*
X124055833Y-74421078D01*
X124096826Y-74408643D01*
X124141941Y-74404200D01*
X124676059Y-74404200D01*
X124721174Y-74408643D01*
G37*
G36*
X126296174Y-74408643D02*
G01*
X126337167Y-74421078D01*
X126374948Y-74441273D01*
X126408056Y-74468444D01*
X126435227Y-74501552D01*
X126455422Y-74539333D01*
X126467857Y-74580326D01*
X126472300Y-74625441D01*
X126472300Y-75234559D01*
X126467857Y-75279674D01*
X126455422Y-75320667D01*
X126435227Y-75358448D01*
X126408056Y-75391556D01*
X126374948Y-75418727D01*
X126337167Y-75438922D01*
X126296174Y-75451357D01*
X126251059Y-75455800D01*
X125716941Y-75455800D01*
X125671826Y-75451357D01*
X125630833Y-75438922D01*
X125593052Y-75418727D01*
X125559944Y-75391556D01*
X125532773Y-75358448D01*
X125512578Y-75320667D01*
X125500143Y-75279674D01*
X125495700Y-75234559D01*
X125495700Y-74625441D01*
X125500143Y-74580326D01*
X125512578Y-74539333D01*
X125532773Y-74501552D01*
X125559944Y-74468444D01*
X125593052Y-74441273D01*
X125630833Y-74421078D01*
X125671826Y-74408643D01*
X125716941Y-74404200D01*
X126251059Y-74404200D01*
X126296174Y-74408643D01*
G37*
G36*
X137421174Y-74408643D02*
G01*
X137462167Y-74421078D01*
X137499948Y-74441273D01*
X137533056Y-74468444D01*
X137560227Y-74501552D01*
X137580422Y-74539333D01*
X137592857Y-74580326D01*
X137597300Y-74625441D01*
X137597300Y-75234559D01*
X137592857Y-75279674D01*
X137580422Y-75320667D01*
X137560227Y-75358448D01*
X137533056Y-75391556D01*
X137499948Y-75418727D01*
X137462167Y-75438922D01*
X137421174Y-75451357D01*
X137376059Y-75455800D01*
X136841941Y-75455800D01*
X136796826Y-75451357D01*
X136755833Y-75438922D01*
X136718052Y-75418727D01*
X136684944Y-75391556D01*
X136657773Y-75358448D01*
X136637578Y-75320667D01*
X136625143Y-75279674D01*
X136620700Y-75234559D01*
X136620700Y-74625441D01*
X136625143Y-74580326D01*
X136637578Y-74539333D01*
X136657773Y-74501552D01*
X136684944Y-74468444D01*
X136718052Y-74441273D01*
X136755833Y-74421078D01*
X136796826Y-74408643D01*
X136841941Y-74404200D01*
X137376059Y-74404200D01*
X137421174Y-74408643D01*
G37*
G36*
X138996174Y-74408643D02*
G01*
X139037167Y-74421078D01*
X139074948Y-74441273D01*
X139108056Y-74468444D01*
X139135227Y-74501552D01*
X139155422Y-74539333D01*
X139167857Y-74580326D01*
X139172300Y-74625441D01*
X139172300Y-75234559D01*
X139167857Y-75279674D01*
X139155422Y-75320667D01*
X139135227Y-75358448D01*
X139108056Y-75391556D01*
X139074948Y-75418727D01*
X139037167Y-75438922D01*
X138996174Y-75451357D01*
X138951059Y-75455800D01*
X138416941Y-75455800D01*
X138371826Y-75451357D01*
X138330833Y-75438922D01*
X138293052Y-75418727D01*
X138259944Y-75391556D01*
X138232773Y-75358448D01*
X138212578Y-75320667D01*
X138200143Y-75279674D01*
X138195700Y-75234559D01*
X138195700Y-74625441D01*
X138200143Y-74580326D01*
X138212578Y-74539333D01*
X138232773Y-74501552D01*
X138259944Y-74468444D01*
X138293052Y-74441273D01*
X138330833Y-74421078D01*
X138371826Y-74408643D01*
X138416941Y-74404200D01*
X138951059Y-74404200D01*
X138996174Y-74408643D01*
G37*
G36*
X151900754Y-73555817D02*
G01*
X152064689Y-73623721D01*
X152212227Y-73722303D01*
X152337697Y-73847773D01*
X152436279Y-73995311D01*
X152504183Y-74159246D01*
X152538800Y-74333279D01*
X152538800Y-74510721D01*
X152504183Y-74684754D01*
X152436279Y-74848689D01*
X152337697Y-74996227D01*
X152212227Y-75121697D01*
X152064689Y-75220279D01*
X151900754Y-75288183D01*
X151726721Y-75322800D01*
X151549279Y-75322800D01*
X151375246Y-75288183D01*
X151211311Y-75220279D01*
X151063773Y-75121697D01*
X150938303Y-74996227D01*
X150839721Y-74848689D01*
X150771817Y-74684754D01*
X150737200Y-74510721D01*
X150737200Y-74333279D01*
X150771817Y-74159246D01*
X150839721Y-73995311D01*
X150938303Y-73847773D01*
X151063773Y-73722303D01*
X151211311Y-73623721D01*
X151375246Y-73555817D01*
X151549279Y-73521200D01*
X151726721Y-73521200D01*
X151900754Y-73555817D01*
G37*
G36*
X130440800Y-73290800D02*
G01*
X128639200Y-73290800D01*
X128639200Y-71489200D01*
X130440800Y-71489200D01*
X130440800Y-73290800D01*
G37*
G36*
X143140800Y-73290800D02*
G01*
X141339200Y-73290800D01*
X141339200Y-71489200D01*
X143140800Y-71489200D01*
X143140800Y-73290800D01*
G37*
G36*
X136185800Y-72023401D02*
G01*
X136186776Y-72033311D01*
X136189667Y-72042841D01*
X136194361Y-72051623D01*
X136200679Y-72059321D01*
X136208377Y-72065639D01*
X136217159Y-72070333D01*
X136226689Y-72073224D01*
X136236599Y-72074200D01*
X138083401Y-72074200D01*
X138093311Y-72073224D01*
X138102841Y-72070333D01*
X138111623Y-72065639D01*
X138119321Y-72059321D01*
X138125639Y-72051623D01*
X138130333Y-72042841D01*
X138133224Y-72033311D01*
X138134200Y-72023401D01*
X138134200Y-71149200D01*
X139085800Y-71149200D01*
X139085800Y-72050800D01*
X138161599Y-72050800D01*
X138151689Y-72051776D01*
X138142159Y-72054667D01*
X138133377Y-72059361D01*
X138125679Y-72065679D01*
X138119361Y-72073377D01*
X138114667Y-72082159D01*
X138111776Y-72091689D01*
X138110800Y-72101599D01*
X138110800Y-73025800D01*
X136209200Y-73025800D01*
X136209200Y-72101599D01*
X136208224Y-72091689D01*
X136205333Y-72082159D01*
X136200639Y-72073377D01*
X136194321Y-72065679D01*
X136186623Y-72059361D01*
X136177841Y-72054667D01*
X136168311Y-72051776D01*
X136158401Y-72050800D01*
X135234200Y-72050800D01*
X135234200Y-71149200D01*
X136185800Y-71149200D01*
X136185800Y-72023401D01*
G37*
G36*
X123485800Y-72023401D02*
G01*
X123486776Y-72033311D01*
X123489667Y-72042841D01*
X123494361Y-72051623D01*
X123500679Y-72059321D01*
X123508377Y-72065639D01*
X123517159Y-72070333D01*
X123526689Y-72073224D01*
X123536599Y-72074200D01*
X125383401Y-72074200D01*
X125393311Y-72073224D01*
X125402841Y-72070333D01*
X125411623Y-72065639D01*
X125419321Y-72059321D01*
X125425639Y-72051623D01*
X125430333Y-72042841D01*
X125433224Y-72033311D01*
X125434200Y-72023401D01*
X125434200Y-71149200D01*
X126385800Y-71149200D01*
X126385800Y-72050800D01*
X125461599Y-72050800D01*
X125451689Y-72051776D01*
X125442159Y-72054667D01*
X125433377Y-72059361D01*
X125425679Y-72065679D01*
X125419361Y-72073377D01*
X125414667Y-72082159D01*
X125411776Y-72091689D01*
X125410800Y-72101599D01*
X125410800Y-73025800D01*
X123509200Y-73025800D01*
X123509200Y-72101599D01*
X123508224Y-72091689D01*
X123505333Y-72082159D01*
X123500639Y-72073377D01*
X123494321Y-72065679D01*
X123486623Y-72059361D01*
X123477841Y-72054667D01*
X123468311Y-72051776D01*
X123458401Y-72050800D01*
X122534200Y-72050800D01*
X122534200Y-71149200D01*
X123485800Y-71149200D01*
X123485800Y-72023401D01*
G37*
G36*
X151900754Y-71015817D02*
G01*
X152064689Y-71083721D01*
X152212227Y-71182303D01*
X152337697Y-71307773D01*
X152436279Y-71455311D01*
X152504183Y-71619246D01*
X152538800Y-71793279D01*
X152538800Y-71970721D01*
X152504183Y-72144754D01*
X152436279Y-72308689D01*
X152337697Y-72456227D01*
X152212227Y-72581697D01*
X152064689Y-72680279D01*
X151900754Y-72748183D01*
X151726721Y-72782800D01*
X151549279Y-72782800D01*
X151375246Y-72748183D01*
X151211311Y-72680279D01*
X151063773Y-72581697D01*
X150938303Y-72456227D01*
X150839721Y-72308689D01*
X150771817Y-72144754D01*
X150737200Y-71970721D01*
X150737200Y-71793279D01*
X150771817Y-71619246D01*
X150839721Y-71455311D01*
X150938303Y-71307773D01*
X151063773Y-71182303D01*
X151211311Y-71083721D01*
X151375246Y-71015817D01*
X151549279Y-70981200D01*
X151726721Y-70981200D01*
X151900754Y-71015817D01*
G37*
G36*
X138110800Y-70292947D02*
G01*
X138111776Y-70302857D01*
X138114667Y-70312387D01*
X138119361Y-70321169D01*
X138125679Y-70328867D01*
X138131812Y-70335000D01*
X138125679Y-70341133D01*
X138119361Y-70348831D01*
X138114667Y-70357613D01*
X138111776Y-70367143D01*
X138110800Y-70377053D01*
X138110800Y-70385800D01*
X138102053Y-70385800D01*
X138092143Y-70386776D01*
X138082613Y-70389667D01*
X138073831Y-70394361D01*
X138066133Y-70400679D01*
X137925679Y-70541133D01*
X137919361Y-70548831D01*
X137914667Y-70557613D01*
X137911776Y-70567143D01*
X137910800Y-70577053D01*
X137910800Y-70585800D01*
X137902053Y-70585800D01*
X137892143Y-70586776D01*
X137882613Y-70589667D01*
X137873831Y-70594361D01*
X137866133Y-70600679D01*
X137860000Y-70606812D01*
X137853867Y-70600679D01*
X137846169Y-70594361D01*
X137837387Y-70589667D01*
X137827857Y-70586776D01*
X137817947Y-70585800D01*
X136502053Y-70585800D01*
X136492143Y-70586776D01*
X136482613Y-70589667D01*
X136473831Y-70594361D01*
X136466133Y-70600679D01*
X136460000Y-70606812D01*
X136453867Y-70600679D01*
X136446169Y-70594361D01*
X136437387Y-70589667D01*
X136427857Y-70586776D01*
X136417947Y-70585800D01*
X136409200Y-70585800D01*
X136409200Y-70577053D01*
X136408224Y-70567143D01*
X136405333Y-70557613D01*
X136400639Y-70548831D01*
X136394321Y-70541133D01*
X136253867Y-70400679D01*
X136246169Y-70394361D01*
X136237387Y-70389667D01*
X136227857Y-70386776D01*
X136217947Y-70385800D01*
X136209200Y-70385800D01*
X136209200Y-70377053D01*
X136208224Y-70367143D01*
X136205333Y-70357613D01*
X136200639Y-70348831D01*
X136194321Y-70341133D01*
X136188188Y-70335000D01*
X136194321Y-70328867D01*
X136200639Y-70321169D01*
X136205333Y-70312387D01*
X136208224Y-70302857D01*
X136209200Y-70292947D01*
X136209200Y-69214200D01*
X138110800Y-69214200D01*
X138110800Y-70292947D01*
G37*
G36*
X125410800Y-70292947D02*
G01*
X125411776Y-70302857D01*
X125414667Y-70312387D01*
X125419361Y-70321169D01*
X125425679Y-70328867D01*
X125431812Y-70335000D01*
X125425679Y-70341133D01*
X125419361Y-70348831D01*
X125414667Y-70357613D01*
X125411776Y-70367143D01*
X125410800Y-70377053D01*
X125410800Y-70385800D01*
X125402053Y-70385800D01*
X125392143Y-70386776D01*
X125382613Y-70389667D01*
X125373831Y-70394361D01*
X125366133Y-70400679D01*
X125225679Y-70541133D01*
X125219361Y-70548831D01*
X125214667Y-70557613D01*
X125211776Y-70567143D01*
X125210800Y-70577053D01*
X125210800Y-70585800D01*
X125202053Y-70585800D01*
X125192143Y-70586776D01*
X125182613Y-70589667D01*
X125173831Y-70594361D01*
X125166133Y-70600679D01*
X125160000Y-70606812D01*
X125153867Y-70600679D01*
X125146169Y-70594361D01*
X125137387Y-70589667D01*
X125127857Y-70586776D01*
X125117947Y-70585800D01*
X123802053Y-70585800D01*
X123792143Y-70586776D01*
X123782613Y-70589667D01*
X123773831Y-70594361D01*
X123766133Y-70600679D01*
X123760000Y-70606812D01*
X123753867Y-70600679D01*
X123746169Y-70594361D01*
X123737387Y-70589667D01*
X123727857Y-70586776D01*
X123717947Y-70585800D01*
X123709200Y-70585800D01*
X123709200Y-70577053D01*
X123708224Y-70567143D01*
X123705333Y-70557613D01*
X123700639Y-70548831D01*
X123694321Y-70541133D01*
X123553867Y-70400679D01*
X123546169Y-70394361D01*
X123537387Y-70389667D01*
X123527857Y-70386776D01*
X123517947Y-70385800D01*
X123509200Y-70385800D01*
X123509200Y-70377053D01*
X123508224Y-70367143D01*
X123505333Y-70357613D01*
X123500639Y-70348831D01*
X123494321Y-70341133D01*
X123488188Y-70335000D01*
X123494321Y-70328867D01*
X123500639Y-70321169D01*
X123505333Y-70312387D01*
X123508224Y-70302857D01*
X123509200Y-70292947D01*
X123509200Y-69214200D01*
X125410800Y-69214200D01*
X125410800Y-70292947D01*
G37*
G36*
X116518224Y-61644127D02*
G01*
X117109832Y-61889178D01*
X117642266Y-62244940D01*
X118095060Y-62697734D01*
X118450822Y-63230168D01*
X118695873Y-63821776D01*
X118820800Y-64449824D01*
X118820800Y-65090176D01*
X118695873Y-65718224D01*
X118450822Y-66309832D01*
X118095060Y-66842266D01*
X117642266Y-67295060D01*
X117109832Y-67650822D01*
X116518224Y-67895873D01*
X115890176Y-68020800D01*
X115249824Y-68020800D01*
X114621776Y-67895873D01*
X114030168Y-67650822D01*
X113497734Y-67295060D01*
X113044940Y-66842266D01*
X112689178Y-66309832D01*
X112444127Y-65718224D01*
X112319200Y-65090176D01*
X112319200Y-64449824D01*
X112444127Y-63821776D01*
X112689178Y-63230168D01*
X113044940Y-62697734D01*
X113497734Y-62244940D01*
X114030168Y-61889178D01*
X114621776Y-61644127D01*
X115249824Y-61519200D01*
X115890176Y-61519200D01*
X116518224Y-61644127D01*
G37*
G36*
X150808224Y-61644127D02*
G01*
X151399832Y-61889178D01*
X151932266Y-62244940D01*
X152385060Y-62697734D01*
X152740822Y-63230168D01*
X152985873Y-63821776D01*
X153110800Y-64449824D01*
X153110800Y-65090176D01*
X152985873Y-65718224D01*
X152740822Y-66309832D01*
X152385060Y-66842266D01*
X151932266Y-67295060D01*
X151399832Y-67650822D01*
X150808224Y-67895873D01*
X150180176Y-68020800D01*
X149539824Y-68020800D01*
X148911776Y-67895873D01*
X148320168Y-67650822D01*
X147787734Y-67295060D01*
X147334940Y-66842266D01*
X146979178Y-66309832D01*
X146734127Y-65718224D01*
X146609200Y-65090176D01*
X146609200Y-64449824D01*
X146734127Y-63821776D01*
X146979178Y-63230168D01*
X147334940Y-62697734D01*
X147787734Y-62244940D01*
X148320168Y-61889178D01*
X148911776Y-61644127D01*
X149539824Y-61519200D01*
X150180176Y-61519200D01*
X150808224Y-61644127D01*
G37*
G36*
X124894504Y-63124522D02*
G01*
X125068080Y-63177176D01*
X125228043Y-63262678D01*
X125368254Y-63377746D01*
X125483321Y-63517955D01*
X125568825Y-63677921D01*
X125621478Y-63851495D01*
X125634800Y-63986760D01*
X125634800Y-64537239D01*
X125621478Y-64672504D01*
X125568825Y-64846079D01*
X125483321Y-65006045D01*
X125368254Y-65146254D01*
X125228045Y-65261321D01*
X125068079Y-65346825D01*
X124894505Y-65399478D01*
X124714000Y-65417256D01*
X124533496Y-65399478D01*
X124359922Y-65346825D01*
X124199956Y-65261321D01*
X124059747Y-65146254D01*
X123944680Y-65006045D01*
X123859175Y-64846079D01*
X123806522Y-64672505D01*
X123793200Y-64537240D01*
X123793200Y-63986761D01*
X123806522Y-63851496D01*
X123859176Y-63677920D01*
X123944678Y-63517957D01*
X124059746Y-63377746D01*
X124199955Y-63262679D01*
X124359921Y-63177175D01*
X124533495Y-63124522D01*
X124714000Y-63106744D01*
X124894504Y-63124522D01*
G37*
G36*
X127434504Y-63124522D02*
G01*
X127608080Y-63177176D01*
X127768043Y-63262678D01*
X127908254Y-63377746D01*
X128023321Y-63517955D01*
X128108825Y-63677921D01*
X128161478Y-63851495D01*
X128174800Y-63986760D01*
X128174800Y-64537239D01*
X128161478Y-64672504D01*
X128108825Y-64846079D01*
X128023321Y-65006045D01*
X127908254Y-65146254D01*
X127768045Y-65261321D01*
X127608079Y-65346825D01*
X127434505Y-65399478D01*
X127254000Y-65417256D01*
X127073496Y-65399478D01*
X126899922Y-65346825D01*
X126739956Y-65261321D01*
X126599747Y-65146254D01*
X126484680Y-65006045D01*
X126399175Y-64846079D01*
X126346522Y-64672505D01*
X126333200Y-64537240D01*
X126333200Y-63986761D01*
X126346522Y-63851496D01*
X126399176Y-63677920D01*
X126484678Y-63517957D01*
X126599746Y-63377746D01*
X126739955Y-63262679D01*
X126899921Y-63177175D01*
X127073495Y-63124522D01*
X127254000Y-63106744D01*
X127434504Y-63124522D01*
G37*
G36*
X129974504Y-63124522D02*
G01*
X130148080Y-63177176D01*
X130308043Y-63262678D01*
X130448254Y-63377746D01*
X130563321Y-63517955D01*
X130648825Y-63677921D01*
X130701478Y-63851495D01*
X130714800Y-63986760D01*
X130714800Y-64537239D01*
X130701478Y-64672504D01*
X130648825Y-64846079D01*
X130563321Y-65006045D01*
X130448254Y-65146254D01*
X130308045Y-65261321D01*
X130148079Y-65346825D01*
X129974505Y-65399478D01*
X129794000Y-65417256D01*
X129613496Y-65399478D01*
X129439922Y-65346825D01*
X129279956Y-65261321D01*
X129139747Y-65146254D01*
X129024680Y-65006045D01*
X128939175Y-64846079D01*
X128886522Y-64672505D01*
X128873200Y-64537240D01*
X128873200Y-63986761D01*
X128886522Y-63851496D01*
X128939176Y-63677920D01*
X129024678Y-63517957D01*
X129139746Y-63377746D01*
X129279955Y-63262679D01*
X129439921Y-63177175D01*
X129613495Y-63124522D01*
X129794000Y-63106744D01*
X129974504Y-63124522D01*
G37*
G36*
X139118504Y-63124522D02*
G01*
X139292080Y-63177176D01*
X139452043Y-63262678D01*
X139592254Y-63377746D01*
X139707321Y-63517955D01*
X139792825Y-63677921D01*
X139845478Y-63851495D01*
X139858800Y-63986760D01*
X139858800Y-64537239D01*
X139845478Y-64672504D01*
X139792825Y-64846079D01*
X139707321Y-65006045D01*
X139592254Y-65146254D01*
X139452045Y-65261321D01*
X139292079Y-65346825D01*
X139118505Y-65399478D01*
X138938000Y-65417256D01*
X138757496Y-65399478D01*
X138583922Y-65346825D01*
X138423956Y-65261321D01*
X138283747Y-65146254D01*
X138168680Y-65006045D01*
X138083175Y-64846079D01*
X138030522Y-64672505D01*
X138017200Y-64537240D01*
X138017200Y-63986761D01*
X138030522Y-63851496D01*
X138083176Y-63677920D01*
X138168678Y-63517957D01*
X138283746Y-63377746D01*
X138423955Y-63262679D01*
X138583921Y-63177175D01*
X138757495Y-63124522D01*
X138938000Y-63106744D01*
X139118504Y-63124522D01*
G37*
G36*
X141658504Y-63124522D02*
G01*
X141832080Y-63177176D01*
X141992043Y-63262678D01*
X142132254Y-63377746D01*
X142247321Y-63517955D01*
X142332825Y-63677921D01*
X142385478Y-63851495D01*
X142398800Y-63986760D01*
X142398800Y-64537239D01*
X142385478Y-64672504D01*
X142332825Y-64846079D01*
X142247321Y-65006045D01*
X142132254Y-65146254D01*
X141992045Y-65261321D01*
X141832079Y-65346825D01*
X141658505Y-65399478D01*
X141478000Y-65417256D01*
X141297496Y-65399478D01*
X141123922Y-65346825D01*
X140963956Y-65261321D01*
X140823747Y-65146254D01*
X140708680Y-65006045D01*
X140623175Y-64846079D01*
X140570522Y-64672505D01*
X140557200Y-64537240D01*
X140557200Y-63986761D01*
X140570522Y-63851496D01*
X140623176Y-63677920D01*
X140708678Y-63517957D01*
X140823746Y-63377746D01*
X140963955Y-63262679D01*
X141123921Y-63177175D01*
X141297495Y-63124522D01*
X141478000Y-63106744D01*
X141658504Y-63124522D01*
G37*
G36*
X144198504Y-63124522D02*
G01*
X144372080Y-63177176D01*
X144532043Y-63262678D01*
X144672254Y-63377746D01*
X144787321Y-63517955D01*
X144872825Y-63677921D01*
X144925478Y-63851495D01*
X144938800Y-63986760D01*
X144938800Y-64537239D01*
X144925478Y-64672504D01*
X144872825Y-64846079D01*
X144787321Y-65006045D01*
X144672254Y-65146254D01*
X144532045Y-65261321D01*
X144372079Y-65346825D01*
X144198505Y-65399478D01*
X144018000Y-65417256D01*
X143837496Y-65399478D01*
X143663922Y-65346825D01*
X143503956Y-65261321D01*
X143363747Y-65146254D01*
X143248680Y-65006045D01*
X143163175Y-64846079D01*
X143110522Y-64672505D01*
X143097200Y-64537240D01*
X143097200Y-63986761D01*
X143110522Y-63851496D01*
X143163176Y-63677920D01*
X143248678Y-63517957D01*
X143363746Y-63377746D01*
X143503955Y-63262679D01*
X143663921Y-63177175D01*
X143837495Y-63124522D01*
X144018000Y-63106744D01*
X144198504Y-63124522D01*
G37*
G36*
X122910912Y-63115829D02*
G01*
X122953717Y-63128814D01*
X122993158Y-63149896D01*
X123027731Y-63178269D01*
X123056104Y-63212842D01*
X123077186Y-63252283D01*
X123090171Y-63295088D01*
X123094800Y-63342088D01*
X123094800Y-65181912D01*
X123090171Y-65228912D01*
X123077186Y-65271717D01*
X123056104Y-65311158D01*
X123027731Y-65345731D01*
X122993158Y-65374104D01*
X122953717Y-65395186D01*
X122910912Y-65408171D01*
X122863912Y-65412800D01*
X121484088Y-65412800D01*
X121437088Y-65408171D01*
X121394283Y-65395186D01*
X121354842Y-65374104D01*
X121320269Y-65345731D01*
X121291896Y-65311158D01*
X121270814Y-65271717D01*
X121257829Y-65228912D01*
X121253200Y-65181912D01*
X121253200Y-63342088D01*
X121257829Y-63295088D01*
X121270814Y-63252283D01*
X121291896Y-63212842D01*
X121320269Y-63178269D01*
X121354842Y-63149896D01*
X121394283Y-63128814D01*
X121437088Y-63115829D01*
X121484088Y-63111200D01*
X122863912Y-63111200D01*
X122910912Y-63115829D01*
G37*
G36*
X137134912Y-63115829D02*
G01*
X137177717Y-63128814D01*
X137217158Y-63149896D01*
X137251731Y-63178269D01*
X137280104Y-63212842D01*
X137301186Y-63252283D01*
X137314171Y-63295088D01*
X137318800Y-63342088D01*
X137318800Y-65181912D01*
X137314171Y-65228912D01*
X137301186Y-65271717D01*
X137280104Y-65311158D01*
X137251731Y-65345731D01*
X137217158Y-65374104D01*
X137177717Y-65395186D01*
X137134912Y-65408171D01*
X137087912Y-65412800D01*
X135708088Y-65412800D01*
X135661088Y-65408171D01*
X135618283Y-65395186D01*
X135578842Y-65374104D01*
X135544269Y-65345731D01*
X135515896Y-65311158D01*
X135494814Y-65271717D01*
X135481829Y-65228912D01*
X135477200Y-65181912D01*
X135477200Y-63342088D01*
X135481829Y-63295088D01*
X135494814Y-63252283D01*
X135515896Y-63212842D01*
X135544269Y-63178269D01*
X135578842Y-63149896D01*
X135618283Y-63128814D01*
X135661088Y-63115829D01*
X135708088Y-63111200D01*
X137087912Y-63111200D01*
X137134912Y-63115829D01*
G37*
M02*
