M48
; DRILL file {KiCad (5.1.6)-1} date 07/11/20 11:36:51
; FORMAT={-:-/ absolute / inch / decimal}
; #@! TF.CreationDate,2020-07-11T11:36:51-07:00
; #@! TF.GenerationSoftware,Kicad,Pcbnew,(5.1.6)-1
; #@! TF.FileFunction,Plated,1,2,PTH
FMAT,2
INCH
T1C0.0150
T2C0.0250
T3C0.0300
T4C0.0315
T5C0.0394
T6C0.0469
T7C0.0472
T8C0.1260
%
G90
G05
T1
X4.724Y-4.04
X4.835Y-2.905
X4.86Y-3.24
X4.875Y-4.01
X4.875Y-4.07
X4.965Y-2.865
X4.965Y-2.905
X5.05Y-4.04
X5.22Y-3.24
X5.33Y-2.905
X5.465Y-2.865
X5.465Y-2.905
X5.54Y-3.24
T2
X4.66Y-3.15
T3
X5.09Y-2.66
X5.42Y-2.61
T4
X4.46Y-3.35
X4.46Y-3.95
X4.56Y-3.35
X4.66Y-3.35
X4.66Y-3.95
X4.76Y-3.35
X4.76Y-3.95
X4.86Y-3.95
X5.26Y-3.95
X5.36Y-3.35
X5.56Y-3.35
X5.66Y-3.35
X5.76Y-3.65
X5.76Y-3.75
T5
X4.77Y-4.23
X5.6Y-2.85
X5.6Y-2.95
X5.6Y-3.05
X5.38Y-3.085
X4.94Y-4.23
X5.11Y-4.23
X4.49Y-2.94
X4.88Y-3.085
X5.97Y-2.83
X5.97Y-2.93
X5.97Y-3.03
X5.97Y-3.13
X5.1Y-2.85
X5.1Y-2.95
X5.1Y-3.05
T6
X5.28Y-4.21
X5.38Y-4.21
X5.48Y-4.21
X5.58Y-4.21
X5.68Y-4.21
T7
X5.37Y-2.53
X5.47Y-2.53
X5.57Y-2.53
X5.67Y-2.53
X4.81Y-2.53
X4.91Y-2.53
X5.01Y-2.53
X5.11Y-2.53
T8
X4.55Y-2.55
X5.9Y-2.55
X5.9Y-4.2
X4.55Y-4.2
T0
M30
