G04 #@! TF.GenerationSoftware,KiCad,Pcbnew,(5.1.6)-1*
G04 #@! TF.CreationDate,2020-07-11T10:04:51-07:00*
G04 #@! TF.ProjectId,stepper_analyzer,73746570-7065-4725-9f61-6e616c797a65,rev?*
G04 #@! TF.SameCoordinates,Original*
G04 #@! TF.FileFunction,Legend,Top*
G04 #@! TF.FilePolarity,Positive*
%FSLAX46Y46*%
G04 Gerber Fmt 4.6, Leading zero omitted, Abs format (unit mm)*
G04 Created by KiCad (PCBNEW (5.1.6)-1) date 2020-07-11 10:04:51*
%MOMM*%
%LPD*%
G01*
G04 APERTURE LIST*
%ADD10C,0.150000*%
%ADD11C,0.120000*%
G04 APERTURE END LIST*
D10*
X149042380Y-78531404D02*
X148042380Y-78531404D01*
X149042380Y-77959976D01*
X148042380Y-77959976D01*
X149042380Y-77340928D02*
X148994761Y-77436166D01*
X148947142Y-77483785D01*
X148851904Y-77531404D01*
X148566190Y-77531404D01*
X148470952Y-77483785D01*
X148423333Y-77436166D01*
X148375714Y-77340928D01*
X148375714Y-77198071D01*
X148423333Y-77102833D01*
X148470952Y-77055214D01*
X148566190Y-77007595D01*
X148851904Y-77007595D01*
X148947142Y-77055214D01*
X148994761Y-77102833D01*
X149042380Y-77198071D01*
X149042380Y-77340928D01*
X148375714Y-76721880D02*
X148375714Y-76340928D01*
X148042380Y-76579023D02*
X148899523Y-76579023D01*
X148994761Y-76531404D01*
X149042380Y-76436166D01*
X149042380Y-76340928D01*
X148042380Y-75245690D02*
X148851904Y-75245690D01*
X148947142Y-75198071D01*
X148994761Y-75150452D01*
X149042380Y-75055214D01*
X149042380Y-74864738D01*
X148994761Y-74769500D01*
X148947142Y-74721880D01*
X148851904Y-74674261D01*
X148042380Y-74674261D01*
X148994761Y-74245690D02*
X149042380Y-74150452D01*
X149042380Y-73959976D01*
X148994761Y-73864738D01*
X148899523Y-73817119D01*
X148851904Y-73817119D01*
X148756666Y-73864738D01*
X148709047Y-73959976D01*
X148709047Y-74102833D01*
X148661428Y-74198071D01*
X148566190Y-74245690D01*
X148518571Y-74245690D01*
X148423333Y-74198071D01*
X148375714Y-74102833D01*
X148375714Y-73959976D01*
X148423333Y-73864738D01*
X148994761Y-73007595D02*
X149042380Y-73102833D01*
X149042380Y-73293309D01*
X148994761Y-73388547D01*
X148899523Y-73436166D01*
X148518571Y-73436166D01*
X148423333Y-73388547D01*
X148375714Y-73293309D01*
X148375714Y-73102833D01*
X148423333Y-73007595D01*
X148518571Y-72959976D01*
X148613809Y-72959976D01*
X148709047Y-73436166D01*
X149042380Y-72102833D02*
X148042380Y-72102833D01*
X148994761Y-72102833D02*
X149042380Y-72198071D01*
X149042380Y-72388547D01*
X148994761Y-72483785D01*
X148947142Y-72531404D01*
X148851904Y-72579023D01*
X148566190Y-72579023D01*
X148470952Y-72531404D01*
X148423333Y-72483785D01*
X148375714Y-72388547D01*
X148375714Y-72198071D01*
X148423333Y-72102833D01*
X136035023Y-81129142D02*
X135987404Y-81176761D01*
X135844547Y-81224380D01*
X135749309Y-81224380D01*
X135606452Y-81176761D01*
X135511214Y-81081523D01*
X135463595Y-80986285D01*
X135415976Y-80795809D01*
X135415976Y-80652952D01*
X135463595Y-80462476D01*
X135511214Y-80367238D01*
X135606452Y-80272000D01*
X135749309Y-80224380D01*
X135844547Y-80224380D01*
X135987404Y-80272000D01*
X136035023Y-80319619D01*
X136463595Y-81224380D02*
X136463595Y-80224380D01*
X136463595Y-80700571D02*
X137035023Y-80700571D01*
X137035023Y-81224380D02*
X137035023Y-80224380D01*
X138035023Y-81224380D02*
X137463595Y-81224380D01*
X137749309Y-81224380D02*
X137749309Y-80224380D01*
X137654071Y-80367238D01*
X137558833Y-80462476D01*
X137463595Y-80510095D01*
X123335023Y-81129142D02*
X123287404Y-81176761D01*
X123144547Y-81224380D01*
X123049309Y-81224380D01*
X122906452Y-81176761D01*
X122811214Y-81081523D01*
X122763595Y-80986285D01*
X122715976Y-80795809D01*
X122715976Y-80652952D01*
X122763595Y-80462476D01*
X122811214Y-80367238D01*
X122906452Y-80272000D01*
X123049309Y-80224380D01*
X123144547Y-80224380D01*
X123287404Y-80272000D01*
X123335023Y-80319619D01*
X123763595Y-81224380D02*
X123763595Y-80224380D01*
X123763595Y-80700571D02*
X124335023Y-80700571D01*
X124335023Y-81224380D02*
X124335023Y-80224380D01*
X125335023Y-81224380D02*
X124763595Y-81224380D01*
X125049309Y-81224380D02*
X125049309Y-80224380D01*
X124954071Y-80367238D01*
X124858833Y-80462476D01*
X124763595Y-80510095D01*
X113635404Y-77224000D02*
X113540166Y-77176380D01*
X113397309Y-77176380D01*
X113254452Y-77224000D01*
X113159214Y-77319238D01*
X113111595Y-77414476D01*
X113063976Y-77604952D01*
X113063976Y-77747809D01*
X113111595Y-77938285D01*
X113159214Y-78033523D01*
X113254452Y-78128761D01*
X113397309Y-78176380D01*
X113492547Y-78176380D01*
X113635404Y-78128761D01*
X113683023Y-78081142D01*
X113683023Y-77747809D01*
X113492547Y-77747809D01*
X114111595Y-78176380D02*
X114111595Y-77176380D01*
X114683023Y-78176380D01*
X114683023Y-77176380D01*
X115159214Y-78176380D02*
X115159214Y-77176380D01*
X115397309Y-77176380D01*
X115540166Y-77224000D01*
X115635404Y-77319238D01*
X115683023Y-77414476D01*
X115730642Y-77604952D01*
X115730642Y-77747809D01*
X115683023Y-77938285D01*
X115635404Y-78033523D01*
X115540166Y-78128761D01*
X115397309Y-78176380D01*
X115159214Y-78176380D01*
X117054380Y-96073261D02*
X117054380Y-95501833D01*
X118054380Y-95787547D02*
X117054380Y-95787547D01*
X118006761Y-94787547D02*
X118054380Y-94882785D01*
X118054380Y-95073261D01*
X118006761Y-95168500D01*
X117911523Y-95216119D01*
X117530571Y-95216119D01*
X117435333Y-95168500D01*
X117387714Y-95073261D01*
X117387714Y-94882785D01*
X117435333Y-94787547D01*
X117530571Y-94739928D01*
X117625809Y-94739928D01*
X117721047Y-95216119D01*
X118006761Y-93930404D02*
X118054380Y-94025642D01*
X118054380Y-94216119D01*
X118006761Y-94311357D01*
X117911523Y-94358976D01*
X117530571Y-94358976D01*
X117435333Y-94311357D01*
X117387714Y-94216119D01*
X117387714Y-94025642D01*
X117435333Y-93930404D01*
X117530571Y-93882785D01*
X117625809Y-93882785D01*
X117721047Y-94358976D01*
X117387714Y-93454214D02*
X118054380Y-93454214D01*
X117482952Y-93454214D02*
X117435333Y-93406595D01*
X117387714Y-93311357D01*
X117387714Y-93168500D01*
X117435333Y-93073261D01*
X117530571Y-93025642D01*
X118054380Y-93025642D01*
X118006761Y-92597071D02*
X118054380Y-92501833D01*
X118054380Y-92311357D01*
X118006761Y-92216119D01*
X117911523Y-92168500D01*
X117863904Y-92168500D01*
X117768666Y-92216119D01*
X117721047Y-92311357D01*
X117721047Y-92454214D01*
X117673428Y-92549452D01*
X117578190Y-92597071D01*
X117530571Y-92597071D01*
X117435333Y-92549452D01*
X117387714Y-92454214D01*
X117387714Y-92311357D01*
X117435333Y-92216119D01*
X117387714Y-91835166D02*
X118054380Y-91597071D01*
X117387714Y-91358976D02*
X118054380Y-91597071D01*
X118292476Y-91692309D01*
X118340095Y-91739928D01*
X118387714Y-91835166D01*
X117387714Y-89787547D02*
X118054380Y-89787547D01*
X117006761Y-90025642D02*
X117721047Y-90263738D01*
X117721047Y-89644690D01*
X117959142Y-89263738D02*
X118006761Y-89216119D01*
X118054380Y-89263738D01*
X118006761Y-89311357D01*
X117959142Y-89263738D01*
X118054380Y-89263738D01*
X117054380Y-88597071D02*
X117054380Y-88501833D01*
X117102000Y-88406595D01*
X117149619Y-88358976D01*
X117244857Y-88311357D01*
X117435333Y-88263738D01*
X117673428Y-88263738D01*
X117863904Y-88311357D01*
X117959142Y-88358976D01*
X118006761Y-88406595D01*
X118054380Y-88501833D01*
X118054380Y-88597071D01*
X118006761Y-88692309D01*
X117959142Y-88739928D01*
X117863904Y-88787547D01*
X117673428Y-88835166D01*
X117435333Y-88835166D01*
X117244857Y-88787547D01*
X117149619Y-88739928D01*
X117102000Y-88692309D01*
X117054380Y-88597071D01*
X134955595Y-109545380D02*
X134955595Y-108545380D01*
X135527023Y-109545380D01*
X135527023Y-108545380D01*
X136384166Y-109497761D02*
X136288928Y-109545380D01*
X136098452Y-109545380D01*
X136003214Y-109497761D01*
X135955595Y-109402523D01*
X135955595Y-109021571D01*
X136003214Y-108926333D01*
X136098452Y-108878714D01*
X136288928Y-108878714D01*
X136384166Y-108926333D01*
X136431785Y-109021571D01*
X136431785Y-109116809D01*
X135955595Y-109212047D01*
X136765119Y-109545380D02*
X137288928Y-108878714D01*
X136765119Y-108878714D02*
X137288928Y-109545380D01*
X137527023Y-108878714D02*
X137907976Y-108878714D01*
X137669880Y-108545380D02*
X137669880Y-109402523D01*
X137717500Y-109497761D01*
X137812738Y-109545380D01*
X137907976Y-109545380D01*
X138241309Y-109545380D02*
X138241309Y-108878714D01*
X138241309Y-108545380D02*
X138193690Y-108593000D01*
X138241309Y-108640619D01*
X138288928Y-108593000D01*
X138241309Y-108545380D01*
X138241309Y-108640619D01*
X138860357Y-109545380D02*
X138765119Y-109497761D01*
X138717500Y-109450142D01*
X138669880Y-109354904D01*
X138669880Y-109069190D01*
X138717500Y-108973952D01*
X138765119Y-108926333D01*
X138860357Y-108878714D01*
X139003214Y-108878714D01*
X139098452Y-108926333D01*
X139146071Y-108973952D01*
X139193690Y-109069190D01*
X139193690Y-109354904D01*
X139146071Y-109450142D01*
X139098452Y-109497761D01*
X139003214Y-109545380D01*
X138860357Y-109545380D01*
X139622261Y-108878714D02*
X139622261Y-109545380D01*
X139622261Y-108973952D02*
X139669880Y-108926333D01*
X139765119Y-108878714D01*
X139907976Y-108878714D01*
X140003214Y-108926333D01*
X140050833Y-109021571D01*
X140050833Y-109545380D01*
X141193690Y-108545380D02*
X141812738Y-108545380D01*
X141479404Y-108926333D01*
X141622261Y-108926333D01*
X141717500Y-108973952D01*
X141765119Y-109021571D01*
X141812738Y-109116809D01*
X141812738Y-109354904D01*
X141765119Y-109450142D01*
X141717500Y-109497761D01*
X141622261Y-109545380D01*
X141336547Y-109545380D01*
X141241309Y-109497761D01*
X141193690Y-109450142D01*
X142241309Y-109450142D02*
X142288928Y-109497761D01*
X142241309Y-109545380D01*
X142193690Y-109497761D01*
X142241309Y-109450142D01*
X142241309Y-109545380D01*
X143193690Y-108545380D02*
X142717500Y-108545380D01*
X142669880Y-109021571D01*
X142717500Y-108973952D01*
X142812738Y-108926333D01*
X143050833Y-108926333D01*
X143146071Y-108973952D01*
X143193690Y-109021571D01*
X143241309Y-109116809D01*
X143241309Y-109354904D01*
X143193690Y-109450142D01*
X143146071Y-109497761D01*
X143050833Y-109545380D01*
X142812738Y-109545380D01*
X142717500Y-109497761D01*
X142669880Y-109450142D01*
X144067785Y-102068380D02*
X143591595Y-102068380D01*
X143543976Y-102544571D01*
X143591595Y-102496952D01*
X143686833Y-102449333D01*
X143924928Y-102449333D01*
X144020166Y-102496952D01*
X144067785Y-102544571D01*
X144115404Y-102639809D01*
X144115404Y-102877904D01*
X144067785Y-102973142D01*
X144020166Y-103020761D01*
X143924928Y-103068380D01*
X143686833Y-103068380D01*
X143591595Y-103020761D01*
X143543976Y-102973142D01*
X144401119Y-102068380D02*
X144734452Y-103068380D01*
X145067785Y-102068380D01*
X133622071Y-102068380D02*
X133717309Y-102068380D01*
X133812547Y-102116000D01*
X133860166Y-102163619D01*
X133907785Y-102258857D01*
X133955404Y-102449333D01*
X133955404Y-102687428D01*
X133907785Y-102877904D01*
X133860166Y-102973142D01*
X133812547Y-103020761D01*
X133717309Y-103068380D01*
X133622071Y-103068380D01*
X133526833Y-103020761D01*
X133479214Y-102973142D01*
X133431595Y-102877904D01*
X133383976Y-102687428D01*
X133383976Y-102449333D01*
X133431595Y-102258857D01*
X133479214Y-102163619D01*
X133526833Y-102116000D01*
X133622071Y-102068380D01*
X134241119Y-102068380D02*
X134574452Y-103068380D01*
X134907785Y-102068380D01*
X136082738Y-102068380D02*
X136654166Y-102068380D01*
X136368452Y-103068380D02*
X136368452Y-102068380D01*
X136892261Y-102068380D02*
X137558928Y-103068380D01*
X137558928Y-102068380D02*
X136892261Y-103068380D01*
X139337023Y-103068380D02*
X139003690Y-102592190D01*
X138765595Y-103068380D02*
X138765595Y-102068380D01*
X139146547Y-102068380D01*
X139241785Y-102116000D01*
X139289404Y-102163619D01*
X139337023Y-102258857D01*
X139337023Y-102401714D01*
X139289404Y-102496952D01*
X139241785Y-102544571D01*
X139146547Y-102592190D01*
X138765595Y-102592190D01*
X139670357Y-102068380D02*
X140337023Y-103068380D01*
X140337023Y-102068380D02*
X139670357Y-103068380D01*
X149376761Y-101312023D02*
X149424380Y-101169166D01*
X149424380Y-100931071D01*
X149376761Y-100835833D01*
X149329142Y-100788214D01*
X149233904Y-100740595D01*
X149138666Y-100740595D01*
X149043428Y-100788214D01*
X148995809Y-100835833D01*
X148948190Y-100931071D01*
X148900571Y-101121547D01*
X148852952Y-101216785D01*
X148805333Y-101264404D01*
X148710095Y-101312023D01*
X148614857Y-101312023D01*
X148519619Y-101264404D01*
X148472000Y-101216785D01*
X148424380Y-101121547D01*
X148424380Y-100883452D01*
X148472000Y-100740595D01*
X148757714Y-100454880D02*
X148757714Y-100073928D01*
X148424380Y-100312023D02*
X149281523Y-100312023D01*
X149376761Y-100264404D01*
X149424380Y-100169166D01*
X149424380Y-100073928D01*
X149376761Y-99359642D02*
X149424380Y-99454880D01*
X149424380Y-99645357D01*
X149376761Y-99740595D01*
X149281523Y-99788214D01*
X148900571Y-99788214D01*
X148805333Y-99740595D01*
X148757714Y-99645357D01*
X148757714Y-99454880D01*
X148805333Y-99359642D01*
X148900571Y-99312023D01*
X148995809Y-99312023D01*
X149091047Y-99788214D01*
X148757714Y-98883452D02*
X149757714Y-98883452D01*
X148805333Y-98883452D02*
X148757714Y-98788214D01*
X148757714Y-98597738D01*
X148805333Y-98502500D01*
X148852952Y-98454880D01*
X148948190Y-98407261D01*
X149233904Y-98407261D01*
X149329142Y-98454880D01*
X149376761Y-98502500D01*
X149424380Y-98597738D01*
X149424380Y-98788214D01*
X149376761Y-98883452D01*
X148757714Y-97978690D02*
X149757714Y-97978690D01*
X148805333Y-97978690D02*
X148757714Y-97883452D01*
X148757714Y-97692976D01*
X148805333Y-97597738D01*
X148852952Y-97550119D01*
X148948190Y-97502500D01*
X149233904Y-97502500D01*
X149329142Y-97550119D01*
X149376761Y-97597738D01*
X149424380Y-97692976D01*
X149424380Y-97883452D01*
X149376761Y-97978690D01*
X149376761Y-96692976D02*
X149424380Y-96788214D01*
X149424380Y-96978690D01*
X149376761Y-97073928D01*
X149281523Y-97121547D01*
X148900571Y-97121547D01*
X148805333Y-97073928D01*
X148757714Y-96978690D01*
X148757714Y-96788214D01*
X148805333Y-96692976D01*
X148900571Y-96645357D01*
X148995809Y-96645357D01*
X149091047Y-97121547D01*
X149424380Y-96216785D02*
X148757714Y-96216785D01*
X148948190Y-96216785D02*
X148852952Y-96169166D01*
X148805333Y-96121547D01*
X148757714Y-96026309D01*
X148757714Y-95931071D01*
X149138666Y-94883452D02*
X149138666Y-94407261D01*
X149424380Y-94978690D02*
X148424380Y-94645357D01*
X149424380Y-94312023D01*
X148757714Y-93978690D02*
X149424380Y-93978690D01*
X148852952Y-93978690D02*
X148805333Y-93931071D01*
X148757714Y-93835833D01*
X148757714Y-93692976D01*
X148805333Y-93597738D01*
X148900571Y-93550119D01*
X149424380Y-93550119D01*
X149424380Y-92645357D02*
X148900571Y-92645357D01*
X148805333Y-92692976D01*
X148757714Y-92788214D01*
X148757714Y-92978690D01*
X148805333Y-93073928D01*
X149376761Y-92645357D02*
X149424380Y-92740595D01*
X149424380Y-92978690D01*
X149376761Y-93073928D01*
X149281523Y-93121547D01*
X149186285Y-93121547D01*
X149091047Y-93073928D01*
X149043428Y-92978690D01*
X149043428Y-92740595D01*
X148995809Y-92645357D01*
X149424380Y-92026309D02*
X149376761Y-92121547D01*
X149281523Y-92169166D01*
X148424380Y-92169166D01*
X148757714Y-91740595D02*
X149424380Y-91502500D01*
X148757714Y-91264404D02*
X149424380Y-91502500D01*
X149662476Y-91597738D01*
X149710095Y-91645357D01*
X149757714Y-91740595D01*
X148757714Y-90978690D02*
X148757714Y-90454880D01*
X149424380Y-90978690D01*
X149424380Y-90454880D01*
X149376761Y-89692976D02*
X149424380Y-89788214D01*
X149424380Y-89978690D01*
X149376761Y-90073928D01*
X149281523Y-90121547D01*
X148900571Y-90121547D01*
X148805333Y-90073928D01*
X148757714Y-89978690D01*
X148757714Y-89788214D01*
X148805333Y-89692976D01*
X148900571Y-89645357D01*
X148995809Y-89645357D01*
X149091047Y-90121547D01*
X149424380Y-89216785D02*
X148757714Y-89216785D01*
X148948190Y-89216785D02*
X148852952Y-89169166D01*
X148805333Y-89121547D01*
X148757714Y-89026309D01*
X148757714Y-88931071D01*
X151074380Y-100692976D02*
X150598190Y-101026309D01*
X151074380Y-101264404D02*
X150074380Y-101264404D01*
X150074380Y-100883452D01*
X150122000Y-100788214D01*
X150169619Y-100740595D01*
X150264857Y-100692976D01*
X150407714Y-100692976D01*
X150502952Y-100740595D01*
X150550571Y-100788214D01*
X150598190Y-100883452D01*
X150598190Y-101264404D01*
X151026761Y-99883452D02*
X151074380Y-99978690D01*
X151074380Y-100169166D01*
X151026761Y-100264404D01*
X150931523Y-100312023D01*
X150550571Y-100312023D01*
X150455333Y-100264404D01*
X150407714Y-100169166D01*
X150407714Y-99978690D01*
X150455333Y-99883452D01*
X150550571Y-99835833D01*
X150645809Y-99835833D01*
X150741047Y-100312023D01*
X150407714Y-99502500D02*
X151074380Y-99264404D01*
X150407714Y-99026309D01*
X151074380Y-97359642D02*
X151074380Y-97931071D01*
X151074380Y-97645357D02*
X150074380Y-97645357D01*
X150217238Y-97740595D01*
X150312476Y-97835833D01*
X150360095Y-97931071D01*
X150979142Y-96931071D02*
X151026761Y-96883452D01*
X151074380Y-96931071D01*
X151026761Y-96978690D01*
X150979142Y-96931071D01*
X151074380Y-96931071D01*
X151074380Y-95931071D02*
X151074380Y-96502500D01*
X151074380Y-96216785D02*
X150074380Y-96216785D01*
X150217238Y-96312023D01*
X150312476Y-96407261D01*
X150360095Y-96502500D01*
X151026761Y-95454880D02*
X151074380Y-95454880D01*
X151169619Y-95502500D01*
X151217238Y-95550119D01*
X150074380Y-93312023D02*
X150074380Y-93121547D01*
X150122000Y-93026309D01*
X150217238Y-92931071D01*
X150407714Y-92883452D01*
X150741047Y-92883452D01*
X150931523Y-92931071D01*
X151026761Y-93026309D01*
X151074380Y-93121547D01*
X151074380Y-93312023D01*
X151026761Y-93407261D01*
X150931523Y-93502500D01*
X150741047Y-93550119D01*
X150407714Y-93550119D01*
X150217238Y-93502500D01*
X150122000Y-93407261D01*
X150074380Y-93312023D01*
X151026761Y-92502500D02*
X151074380Y-92359642D01*
X151074380Y-92121547D01*
X151026761Y-92026309D01*
X150979142Y-91978690D01*
X150883904Y-91931071D01*
X150788666Y-91931071D01*
X150693428Y-91978690D01*
X150645809Y-92026309D01*
X150598190Y-92121547D01*
X150550571Y-92312023D01*
X150502952Y-92407261D01*
X150455333Y-92454880D01*
X150360095Y-92502500D01*
X150264857Y-92502500D01*
X150169619Y-92454880D01*
X150122000Y-92407261D01*
X150074380Y-92312023D01*
X150074380Y-92073928D01*
X150122000Y-91931071D01*
X151074380Y-91502500D02*
X150074380Y-91502500D01*
X150550571Y-91502500D02*
X150550571Y-90931071D01*
X151074380Y-90931071D02*
X150074380Y-90931071D01*
X151724380Y-101264404D02*
X152533904Y-101264404D01*
X152629142Y-101216785D01*
X152676761Y-101169166D01*
X152724380Y-101073928D01*
X152724380Y-100883452D01*
X152676761Y-100788214D01*
X152629142Y-100740595D01*
X152533904Y-100692976D01*
X151724380Y-100692976D01*
X152676761Y-100264404D02*
X152724380Y-100169166D01*
X152724380Y-99978690D01*
X152676761Y-99883452D01*
X152581523Y-99835833D01*
X152533904Y-99835833D01*
X152438666Y-99883452D01*
X152391047Y-99978690D01*
X152391047Y-100121547D01*
X152343428Y-100216785D01*
X152248190Y-100264404D01*
X152200571Y-100264404D01*
X152105333Y-100216785D01*
X152057714Y-100121547D01*
X152057714Y-99978690D01*
X152105333Y-99883452D01*
X152676761Y-99026309D02*
X152724380Y-99121547D01*
X152724380Y-99312023D01*
X152676761Y-99407261D01*
X152581523Y-99454880D01*
X152200571Y-99454880D01*
X152105333Y-99407261D01*
X152057714Y-99312023D01*
X152057714Y-99121547D01*
X152105333Y-99026309D01*
X152200571Y-98978690D01*
X152295809Y-98978690D01*
X152391047Y-99454880D01*
X152057714Y-97883452D02*
X152724380Y-97692976D01*
X152248190Y-97502500D01*
X152724380Y-97312023D01*
X152057714Y-97121547D01*
X152724380Y-96740595D02*
X152057714Y-96740595D01*
X151724380Y-96740595D02*
X151772000Y-96788214D01*
X151819619Y-96740595D01*
X151772000Y-96692976D01*
X151724380Y-96740595D01*
X151819619Y-96740595D01*
X152057714Y-96407261D02*
X152057714Y-96026309D01*
X151724380Y-96264404D02*
X152581523Y-96264404D01*
X152676761Y-96216785D01*
X152724380Y-96121547D01*
X152724380Y-96026309D01*
X152724380Y-95692976D02*
X151724380Y-95692976D01*
X152724380Y-95264404D02*
X152200571Y-95264404D01*
X152105333Y-95312023D01*
X152057714Y-95407261D01*
X152057714Y-95550119D01*
X152105333Y-95645357D01*
X152152952Y-95692976D01*
X152724380Y-94026309D02*
X151724380Y-94026309D01*
X152724380Y-93454880D01*
X151724380Y-93454880D01*
X152676761Y-92597738D02*
X152724380Y-92692976D01*
X152724380Y-92883452D01*
X152676761Y-92978690D01*
X152581523Y-93026309D01*
X152200571Y-93026309D01*
X152105333Y-92978690D01*
X152057714Y-92883452D01*
X152057714Y-92692976D01*
X152105333Y-92597738D01*
X152200571Y-92550119D01*
X152295809Y-92550119D01*
X152391047Y-93026309D01*
X152724380Y-92216785D02*
X152057714Y-91692976D01*
X152057714Y-92216785D02*
X152724380Y-91692976D01*
X152057714Y-91454880D02*
X152057714Y-91073928D01*
X151724380Y-91312023D02*
X152581523Y-91312023D01*
X152676761Y-91264404D01*
X152724380Y-91169166D01*
X152724380Y-91073928D01*
X152724380Y-90740595D02*
X152057714Y-90740595D01*
X151724380Y-90740595D02*
X151772000Y-90788214D01*
X151819619Y-90740595D01*
X151772000Y-90692976D01*
X151724380Y-90740595D01*
X151819619Y-90740595D01*
X152724380Y-90121547D02*
X152676761Y-90216785D01*
X152629142Y-90264404D01*
X152533904Y-90312023D01*
X152248190Y-90312023D01*
X152152952Y-90264404D01*
X152105333Y-90216785D01*
X152057714Y-90121547D01*
X152057714Y-89978690D01*
X152105333Y-89883452D01*
X152152952Y-89835833D01*
X152248190Y-89788214D01*
X152533904Y-89788214D01*
X152629142Y-89835833D01*
X152676761Y-89883452D01*
X152724380Y-89978690D01*
X152724380Y-90121547D01*
X152057714Y-89359642D02*
X152724380Y-89359642D01*
X152152952Y-89359642D02*
X152105333Y-89312023D01*
X152057714Y-89216785D01*
X152057714Y-89073928D01*
X152105333Y-88978690D01*
X152200571Y-88931071D01*
X152724380Y-88931071D01*
X151724380Y-87788214D02*
X151724380Y-87169166D01*
X152105333Y-87502500D01*
X152105333Y-87359642D01*
X152152952Y-87264404D01*
X152200571Y-87216785D01*
X152295809Y-87169166D01*
X152533904Y-87169166D01*
X152629142Y-87216785D01*
X152676761Y-87264404D01*
X152724380Y-87359642D01*
X152724380Y-87645357D01*
X152676761Y-87740595D01*
X152629142Y-87788214D01*
X152629142Y-86740595D02*
X152676761Y-86692976D01*
X152724380Y-86740595D01*
X152676761Y-86788214D01*
X152629142Y-86740595D01*
X152724380Y-86740595D01*
X151724380Y-85788214D02*
X151724380Y-86264404D01*
X152200571Y-86312023D01*
X152152952Y-86264404D01*
X152105333Y-86169166D01*
X152105333Y-85931071D01*
X152152952Y-85835833D01*
X152200571Y-85788214D01*
X152295809Y-85740595D01*
X152533904Y-85740595D01*
X152629142Y-85788214D01*
X152676761Y-85835833D01*
X152724380Y-85931071D01*
X152724380Y-86169166D01*
X152676761Y-86264404D01*
X152629142Y-86312023D01*
X151724380Y-85359642D02*
X151914857Y-85359642D01*
X151724380Y-84978690D02*
X151914857Y-84978690D01*
X112474476Y-82256380D02*
X113093523Y-82256380D01*
X112760190Y-82637333D01*
X112903047Y-82637333D01*
X112998285Y-82684952D01*
X113045904Y-82732571D01*
X113093523Y-82827809D01*
X113093523Y-83065904D01*
X113045904Y-83161142D01*
X112998285Y-83208761D01*
X112903047Y-83256380D01*
X112617333Y-83256380D01*
X112522095Y-83208761D01*
X112474476Y-83161142D01*
X113426857Y-82256380D02*
X114045904Y-82256380D01*
X113712571Y-82637333D01*
X113855428Y-82637333D01*
X113950666Y-82684952D01*
X113998285Y-82732571D01*
X114045904Y-82827809D01*
X114045904Y-83065904D01*
X113998285Y-83161142D01*
X113950666Y-83208761D01*
X113855428Y-83256380D01*
X113569714Y-83256380D01*
X113474476Y-83208761D01*
X113426857Y-83161142D01*
X145542095Y-82351619D02*
X145589714Y-82304000D01*
X145684952Y-82256380D01*
X145923047Y-82256380D01*
X146018285Y-82304000D01*
X146065904Y-82351619D01*
X146113523Y-82446857D01*
X146113523Y-82542095D01*
X146065904Y-82684952D01*
X145494476Y-83256380D01*
X146113523Y-83256380D01*
X146732571Y-82256380D02*
X146827809Y-82256380D01*
X146923047Y-82304000D01*
X146970666Y-82351619D01*
X147018285Y-82446857D01*
X147065904Y-82637333D01*
X147065904Y-82875428D01*
X147018285Y-83065904D01*
X146970666Y-83161142D01*
X146923047Y-83208761D01*
X146827809Y-83256380D01*
X146732571Y-83256380D01*
X146637333Y-83208761D01*
X146589714Y-83161142D01*
X146542095Y-83065904D01*
X146494476Y-82875428D01*
X146494476Y-82637333D01*
X146542095Y-82446857D01*
X146589714Y-82351619D01*
X146637333Y-82304000D01*
X146732571Y-82256380D01*
X113569714Y-103068380D02*
X112998285Y-103068380D01*
X113284000Y-103068380D02*
X113284000Y-102068380D01*
X113188761Y-102211238D01*
X113093523Y-102306476D01*
X112998285Y-102354095D01*
D11*
X145652000Y-109964000D02*
X145652000Y-103944000D01*
X145652000Y-103944000D02*
X132732000Y-103944000D01*
X132732000Y-103944000D02*
X132732000Y-109964000D01*
X132732000Y-109964000D02*
X145652000Y-109964000D01*
X145942000Y-108934000D02*
X145942000Y-104934000D01*
X126976000Y-107442000D02*
G75*
G03*
X126976000Y-107442000I-1500000J0D01*
G01*
X113284000Y-96520000D02*
X112014000Y-96520000D01*
X113284000Y-88900000D02*
X113284000Y-96520000D01*
X112014000Y-88900000D02*
X113284000Y-88900000D01*
X112014000Y-101600000D02*
X112014000Y-83820000D01*
X147574000Y-101600000D02*
X112014000Y-101600000D01*
X147574000Y-83820000D02*
X147574000Y-101600000D01*
X112014000Y-83820000D02*
X147574000Y-83820000D01*
X152968000Y-70552000D02*
X150308000Y-70552000D01*
X152968000Y-78232000D02*
X152968000Y-70552000D01*
X150308000Y-78232000D02*
X150308000Y-70552000D01*
X152968000Y-78232000D02*
X150308000Y-78232000D01*
X152968000Y-79502000D02*
X152968000Y-80832000D01*
X152968000Y-80832000D02*
X151638000Y-80832000D01*
X130808000Y-104328279D02*
X130808000Y-104002721D01*
X131828000Y-104328279D02*
X131828000Y-104002721D01*
X126080000Y-72820000D02*
X125710000Y-72820000D01*
X123210000Y-72820000D02*
X122840000Y-72820000D01*
X123210000Y-69580000D02*
X122840000Y-69580000D01*
X126080000Y-69580000D02*
X125710000Y-69580000D01*
X126080000Y-69580000D02*
X126080000Y-70870000D01*
X122840000Y-69580000D02*
X122840000Y-70870000D01*
X126080000Y-72820000D02*
X126080000Y-72320000D01*
X122840000Y-72820000D02*
X122840000Y-72320000D01*
X125710000Y-69580000D02*
X125710000Y-69320000D01*
X138780000Y-72820000D02*
X138410000Y-72820000D01*
X135910000Y-72820000D02*
X135540000Y-72820000D01*
X135910000Y-69580000D02*
X135540000Y-69580000D01*
X138780000Y-69580000D02*
X138410000Y-69580000D01*
X138780000Y-69580000D02*
X138780000Y-70870000D01*
X135540000Y-69580000D02*
X135540000Y-70870000D01*
X138780000Y-72820000D02*
X138780000Y-72320000D01*
X135540000Y-72820000D02*
X135540000Y-72320000D01*
X138410000Y-69580000D02*
X138410000Y-69320000D01*
X138521221Y-81786000D02*
X138846779Y-81786000D01*
X138521221Y-82806000D02*
X138846779Y-82806000D01*
X121249221Y-81786000D02*
X121574779Y-81786000D01*
X121249221Y-82806000D02*
X121574779Y-82806000D01*
X126490000Y-104328279D02*
X126490000Y-104002721D01*
X127510000Y-104328279D02*
X127510000Y-104002721D01*
X122172000Y-104277279D02*
X122172000Y-103951721D01*
X123192000Y-104277279D02*
X123192000Y-103951721D01*
X125452000Y-78359000D02*
G75*
G03*
X125452000Y-78359000I-1500000J0D01*
G01*
X128210000Y-78800000D02*
X130870000Y-78800000D01*
X128210000Y-73660000D02*
X128210000Y-78800000D01*
X130870000Y-73660000D02*
X130870000Y-78800000D01*
X128210000Y-73660000D02*
X130870000Y-73660000D01*
X128210000Y-72390000D02*
X128210000Y-71060000D01*
X128210000Y-71060000D02*
X129540000Y-71060000D01*
X138152000Y-78359000D02*
G75*
G03*
X138152000Y-78359000I-1500000J0D01*
G01*
X115546000Y-74676000D02*
G75*
G03*
X115546000Y-74676000I-1500000J0D01*
G01*
X131294000Y-107442000D02*
G75*
G03*
X131294000Y-107442000I-1500000J0D01*
G01*
X122658000Y-107442000D02*
G75*
G03*
X122658000Y-107442000I-1500000J0D01*
G01*
X137733721Y-74420000D02*
X138059279Y-74420000D01*
X137733721Y-75440000D02*
X138059279Y-75440000D01*
X125033721Y-74420000D02*
X125359279Y-74420000D01*
X125033721Y-75440000D02*
X125359279Y-75440000D01*
X117439221Y-81786000D02*
X117764779Y-81786000D01*
X117439221Y-82806000D02*
X117764779Y-82806000D01*
X134711221Y-81786000D02*
X135036779Y-81786000D01*
X134711221Y-82806000D02*
X135036779Y-82806000D01*
X121893000Y-104965500D02*
X121893000Y-102680500D01*
X121893000Y-102680500D02*
X120423000Y-102680500D01*
X120423000Y-102680500D02*
X120423000Y-104965500D01*
X126211000Y-104965500D02*
X126211000Y-102680500D01*
X126211000Y-102680500D02*
X124741000Y-102680500D01*
X124741000Y-102680500D02*
X124741000Y-104965500D01*
X130529000Y-104965500D02*
X130529000Y-102680500D01*
X130529000Y-102680500D02*
X129059000Y-102680500D01*
X129059000Y-102680500D02*
X129059000Y-104965500D01*
X120794000Y-61232000D02*
X120794000Y-67252000D01*
X120794000Y-67252000D02*
X131174000Y-67252000D01*
X131174000Y-67252000D02*
X131174000Y-61232000D01*
X131174000Y-61232000D02*
X120794000Y-61232000D01*
X120504000Y-62262000D02*
X120504000Y-66262000D01*
X122174000Y-67252000D02*
X122174000Y-66252000D01*
X122174000Y-66252000D02*
X129794000Y-66252000D01*
X129794000Y-66252000D02*
X129794000Y-67252000D01*
X122174000Y-66252000D02*
X122424000Y-65722000D01*
X122424000Y-65722000D02*
X129544000Y-65722000D01*
X129544000Y-65722000D02*
X129794000Y-66252000D01*
X122424000Y-67252000D02*
X122424000Y-66252000D01*
X129544000Y-67252000D02*
X129544000Y-66252000D01*
X121374000Y-61232000D02*
X121374000Y-61832000D01*
X121374000Y-61832000D02*
X122974000Y-61832000D01*
X122974000Y-61832000D02*
X122974000Y-61232000D01*
X123914000Y-61232000D02*
X123914000Y-61832000D01*
X123914000Y-61832000D02*
X125514000Y-61832000D01*
X125514000Y-61832000D02*
X125514000Y-61232000D01*
X126454000Y-61232000D02*
X126454000Y-61832000D01*
X126454000Y-61832000D02*
X128054000Y-61832000D01*
X128054000Y-61832000D02*
X128054000Y-61232000D01*
X128994000Y-61232000D02*
X128994000Y-61832000D01*
X128994000Y-61832000D02*
X130594000Y-61832000D01*
X130594000Y-61832000D02*
X130594000Y-61232000D01*
X135018000Y-61232000D02*
X135018000Y-67252000D01*
X135018000Y-67252000D02*
X145398000Y-67252000D01*
X145398000Y-67252000D02*
X145398000Y-61232000D01*
X145398000Y-61232000D02*
X135018000Y-61232000D01*
X134728000Y-62262000D02*
X134728000Y-66262000D01*
X136398000Y-67252000D02*
X136398000Y-66252000D01*
X136398000Y-66252000D02*
X144018000Y-66252000D01*
X144018000Y-66252000D02*
X144018000Y-67252000D01*
X136398000Y-66252000D02*
X136648000Y-65722000D01*
X136648000Y-65722000D02*
X143768000Y-65722000D01*
X143768000Y-65722000D02*
X144018000Y-66252000D01*
X136648000Y-67252000D02*
X136648000Y-66252000D01*
X143768000Y-67252000D02*
X143768000Y-66252000D01*
X135598000Y-61232000D02*
X135598000Y-61832000D01*
X135598000Y-61832000D02*
X137198000Y-61832000D01*
X137198000Y-61832000D02*
X137198000Y-61232000D01*
X138138000Y-61232000D02*
X138138000Y-61832000D01*
X138138000Y-61832000D02*
X139738000Y-61832000D01*
X139738000Y-61832000D02*
X139738000Y-61232000D01*
X140678000Y-61232000D02*
X140678000Y-61832000D01*
X140678000Y-61832000D02*
X142278000Y-61832000D01*
X142278000Y-61832000D02*
X142278000Y-61232000D01*
X143218000Y-61232000D02*
X143218000Y-61832000D01*
X143218000Y-61832000D02*
X144818000Y-61832000D01*
X144818000Y-61832000D02*
X144818000Y-61232000D01*
X140910000Y-78800000D02*
X143570000Y-78800000D01*
X140910000Y-73660000D02*
X140910000Y-78800000D01*
X143570000Y-73660000D02*
X143570000Y-78800000D01*
X140910000Y-73660000D02*
X143570000Y-73660000D01*
X140910000Y-72390000D02*
X140910000Y-71060000D01*
X140910000Y-71060000D02*
X142240000Y-71060000D01*
D10*
X146605666Y-102703380D02*
X146605666Y-103417666D01*
X146558047Y-103560523D01*
X146462809Y-103655761D01*
X146319952Y-103703380D01*
X146224714Y-103703380D01*
X146986619Y-102703380D02*
X147605666Y-102703380D01*
X147272333Y-103084333D01*
X147415190Y-103084333D01*
X147510428Y-103131952D01*
X147558047Y-103179571D01*
X147605666Y-103274809D01*
X147605666Y-103512904D01*
X147558047Y-103608142D01*
X147510428Y-103655761D01*
X147415190Y-103703380D01*
X147129476Y-103703380D01*
X147034238Y-103655761D01*
X146986619Y-103608142D01*
X124214095Y-109180380D02*
X124785523Y-109180380D01*
X124499809Y-110180380D02*
X124499809Y-109180380D01*
X125118857Y-110180380D02*
X125118857Y-109180380D01*
X125499809Y-109180380D01*
X125595047Y-109228000D01*
X125642666Y-109275619D01*
X125690285Y-109370857D01*
X125690285Y-109513714D01*
X125642666Y-109608952D01*
X125595047Y-109656571D01*
X125499809Y-109704190D01*
X125118857Y-109704190D01*
X126071238Y-109275619D02*
X126118857Y-109228000D01*
X126214095Y-109180380D01*
X126452190Y-109180380D01*
X126547428Y-109228000D01*
X126595047Y-109275619D01*
X126642666Y-109370857D01*
X126642666Y-109466095D01*
X126595047Y-109608952D01*
X126023619Y-110180380D01*
X126642666Y-110180380D01*
X126492095Y-81748380D02*
X126492095Y-82557904D01*
X126539714Y-82653142D01*
X126587333Y-82700761D01*
X126682571Y-82748380D01*
X126873047Y-82748380D01*
X126968285Y-82700761D01*
X127015904Y-82653142D01*
X127063523Y-82557904D01*
X127063523Y-81748380D01*
X127444476Y-81748380D02*
X128063523Y-81748380D01*
X127730190Y-82129333D01*
X127873047Y-82129333D01*
X127968285Y-82176952D01*
X128015904Y-82224571D01*
X128063523Y-82319809D01*
X128063523Y-82557904D01*
X128015904Y-82653142D01*
X127968285Y-82700761D01*
X127873047Y-82748380D01*
X127587333Y-82748380D01*
X127492095Y-82700761D01*
X127444476Y-82653142D01*
X125746380Y-93424285D02*
X125651142Y-93519523D01*
X125365428Y-93614761D01*
X125174952Y-93614761D01*
X124889238Y-93519523D01*
X124698761Y-93329047D01*
X124603523Y-93138571D01*
X124508285Y-92757619D01*
X124508285Y-92471904D01*
X124603523Y-92090952D01*
X124698761Y-91900476D01*
X124889238Y-91710000D01*
X125174952Y-91614761D01*
X125365428Y-91614761D01*
X125651142Y-91710000D01*
X125746380Y-91805238D01*
X126603523Y-91614761D02*
X126603523Y-93233809D01*
X126698761Y-93424285D01*
X126794000Y-93519523D01*
X126984476Y-93614761D01*
X127365428Y-93614761D01*
X127555904Y-93519523D01*
X127651142Y-93424285D01*
X127746380Y-93233809D01*
X127746380Y-91614761D01*
X128413047Y-91614761D02*
X129555904Y-91614761D01*
X128984476Y-93614761D02*
X128984476Y-91614761D01*
X130603523Y-91614761D02*
X130984476Y-91614761D01*
X131174952Y-91710000D01*
X131365428Y-91900476D01*
X131460666Y-92281428D01*
X131460666Y-92948095D01*
X131365428Y-93329047D01*
X131174952Y-93519523D01*
X130984476Y-93614761D01*
X130603523Y-93614761D01*
X130413047Y-93519523D01*
X130222571Y-93329047D01*
X130127333Y-92948095D01*
X130127333Y-92281428D01*
X130222571Y-91900476D01*
X130413047Y-91710000D01*
X130603523Y-91614761D01*
X132317809Y-91614761D02*
X132317809Y-93233809D01*
X132413047Y-93424285D01*
X132508285Y-93519523D01*
X132698761Y-93614761D01*
X133079714Y-93614761D01*
X133270190Y-93519523D01*
X133365428Y-93424285D01*
X133460666Y-93233809D01*
X133460666Y-91614761D01*
X134127333Y-91614761D02*
X135270190Y-91614761D01*
X134698761Y-93614761D02*
X134698761Y-91614761D01*
X151304666Y-81284380D02*
X151304666Y-81998666D01*
X151257047Y-82141523D01*
X151161809Y-82236761D01*
X151018952Y-82284380D01*
X150923714Y-82284380D01*
X152209428Y-81617714D02*
X152209428Y-82284380D01*
X151971333Y-81236761D02*
X151733238Y-81951047D01*
X152352285Y-81951047D01*
X131532333Y-102687380D02*
X131199000Y-102211190D01*
X130960904Y-102687380D02*
X130960904Y-101687380D01*
X131341857Y-101687380D01*
X131437095Y-101735000D01*
X131484714Y-101782619D01*
X131532333Y-101877857D01*
X131532333Y-102020714D01*
X131484714Y-102115952D01*
X131437095Y-102163571D01*
X131341857Y-102211190D01*
X130960904Y-102211190D01*
X131865666Y-101687380D02*
X132484714Y-101687380D01*
X132151380Y-102068333D01*
X132294238Y-102068333D01*
X132389476Y-102115952D01*
X132437095Y-102163571D01*
X132484714Y-102258809D01*
X132484714Y-102496904D01*
X132437095Y-102592142D01*
X132389476Y-102639761D01*
X132294238Y-102687380D01*
X132008523Y-102687380D01*
X131913285Y-102639761D01*
X131865666Y-102592142D01*
X120650095Y-69302380D02*
X120650095Y-70111904D01*
X120697714Y-70207142D01*
X120745333Y-70254761D01*
X120840571Y-70302380D01*
X121031047Y-70302380D01*
X121126285Y-70254761D01*
X121173904Y-70207142D01*
X121221523Y-70111904D01*
X121221523Y-69302380D01*
X122221523Y-70302380D02*
X121650095Y-70302380D01*
X121935809Y-70302380D02*
X121935809Y-69302380D01*
X121840571Y-69445238D01*
X121745333Y-69540476D01*
X121650095Y-69588095D01*
X132842095Y-69048380D02*
X132842095Y-69857904D01*
X132889714Y-69953142D01*
X132937333Y-70000761D01*
X133032571Y-70048380D01*
X133223047Y-70048380D01*
X133318285Y-70000761D01*
X133365904Y-69953142D01*
X133413523Y-69857904D01*
X133413523Y-69048380D01*
X133842095Y-69143619D02*
X133889714Y-69096000D01*
X133984952Y-69048380D01*
X134223047Y-69048380D01*
X134318285Y-69096000D01*
X134365904Y-69143619D01*
X134413523Y-69238857D01*
X134413523Y-69334095D01*
X134365904Y-69476952D01*
X133794476Y-70048380D01*
X134413523Y-70048380D01*
X141057333Y-81732380D02*
X140724000Y-81256190D01*
X140485904Y-81732380D02*
X140485904Y-80732380D01*
X140866857Y-80732380D01*
X140962095Y-80780000D01*
X141009714Y-80827619D01*
X141057333Y-80922857D01*
X141057333Y-81065714D01*
X141009714Y-81160952D01*
X140962095Y-81208571D01*
X140866857Y-81256190D01*
X140485904Y-81256190D01*
X141962095Y-80732380D02*
X141485904Y-80732380D01*
X141438285Y-81208571D01*
X141485904Y-81160952D01*
X141581142Y-81113333D01*
X141819238Y-81113333D01*
X141914476Y-81160952D01*
X141962095Y-81208571D01*
X142009714Y-81303809D01*
X142009714Y-81541904D01*
X141962095Y-81637142D01*
X141914476Y-81684761D01*
X141819238Y-81732380D01*
X141581142Y-81732380D01*
X141485904Y-81684761D01*
X141438285Y-81637142D01*
X119975333Y-81224380D02*
X119642000Y-80748190D01*
X119403904Y-81224380D02*
X119403904Y-80224380D01*
X119784857Y-80224380D01*
X119880095Y-80272000D01*
X119927714Y-80319619D01*
X119975333Y-80414857D01*
X119975333Y-80557714D01*
X119927714Y-80652952D01*
X119880095Y-80700571D01*
X119784857Y-80748190D01*
X119403904Y-80748190D01*
X120832476Y-80557714D02*
X120832476Y-81224380D01*
X120594380Y-80176761D02*
X120356285Y-80891047D01*
X120975333Y-80891047D01*
X127214333Y-102560380D02*
X126881000Y-102084190D01*
X126642904Y-102560380D02*
X126642904Y-101560380D01*
X127023857Y-101560380D01*
X127119095Y-101608000D01*
X127166714Y-101655619D01*
X127214333Y-101750857D01*
X127214333Y-101893714D01*
X127166714Y-101988952D01*
X127119095Y-102036571D01*
X127023857Y-102084190D01*
X126642904Y-102084190D01*
X127595285Y-101655619D02*
X127642904Y-101608000D01*
X127738142Y-101560380D01*
X127976238Y-101560380D01*
X128071476Y-101608000D01*
X128119095Y-101655619D01*
X128166714Y-101750857D01*
X128166714Y-101846095D01*
X128119095Y-101988952D01*
X127547666Y-102560380D01*
X128166714Y-102560380D01*
X122515333Y-102687380D02*
X122182000Y-102211190D01*
X121943904Y-102687380D02*
X121943904Y-101687380D01*
X122324857Y-101687380D01*
X122420095Y-101735000D01*
X122467714Y-101782619D01*
X122515333Y-101877857D01*
X122515333Y-102020714D01*
X122467714Y-102115952D01*
X122420095Y-102163571D01*
X122324857Y-102211190D01*
X121943904Y-102211190D01*
X123467714Y-102687380D02*
X122896285Y-102687380D01*
X123182000Y-102687380D02*
X123182000Y-101687380D01*
X123086761Y-101830238D01*
X122991523Y-101925476D01*
X122896285Y-101973095D01*
X128706666Y-69556380D02*
X128706666Y-70270666D01*
X128659047Y-70413523D01*
X128563809Y-70508761D01*
X128420952Y-70556380D01*
X128325714Y-70556380D01*
X129182857Y-70556380D02*
X129182857Y-69556380D01*
X129563809Y-69556380D01*
X129659047Y-69604000D01*
X129706666Y-69651619D01*
X129754285Y-69746857D01*
X129754285Y-69889714D01*
X129706666Y-69984952D01*
X129659047Y-70032571D01*
X129563809Y-70080190D01*
X129182857Y-70080190D01*
X130706666Y-70556380D02*
X130135238Y-70556380D01*
X130420952Y-70556380D02*
X130420952Y-69556380D01*
X130325714Y-69699238D01*
X130230476Y-69794476D01*
X130135238Y-69842095D01*
X128532095Y-109180380D02*
X129103523Y-109180380D01*
X128817809Y-110180380D02*
X128817809Y-109180380D01*
X129436857Y-110180380D02*
X129436857Y-109180380D01*
X129817809Y-109180380D01*
X129913047Y-109228000D01*
X129960666Y-109275619D01*
X130008285Y-109370857D01*
X130008285Y-109513714D01*
X129960666Y-109608952D01*
X129913047Y-109656571D01*
X129817809Y-109704190D01*
X129436857Y-109704190D01*
X130341619Y-109180380D02*
X130960666Y-109180380D01*
X130627333Y-109561333D01*
X130770190Y-109561333D01*
X130865428Y-109608952D01*
X130913047Y-109656571D01*
X130960666Y-109751809D01*
X130960666Y-109989904D01*
X130913047Y-110085142D01*
X130865428Y-110132761D01*
X130770190Y-110180380D01*
X130484476Y-110180380D01*
X130389238Y-110132761D01*
X130341619Y-110085142D01*
X119896095Y-109180380D02*
X120467523Y-109180380D01*
X120181809Y-110180380D02*
X120181809Y-109180380D01*
X120800857Y-110180380D02*
X120800857Y-109180380D01*
X121181809Y-109180380D01*
X121277047Y-109228000D01*
X121324666Y-109275619D01*
X121372285Y-109370857D01*
X121372285Y-109513714D01*
X121324666Y-109608952D01*
X121277047Y-109656571D01*
X121181809Y-109704190D01*
X120800857Y-109704190D01*
X122324666Y-110180380D02*
X121753238Y-110180380D01*
X122038952Y-110180380D02*
X122038952Y-109180380D01*
X121943714Y-109323238D01*
X121848476Y-109418476D01*
X121753238Y-109466095D01*
X135215333Y-75287142D02*
X135167714Y-75334761D01*
X135024857Y-75382380D01*
X134929619Y-75382380D01*
X134786761Y-75334761D01*
X134691523Y-75239523D01*
X134643904Y-75144285D01*
X134596285Y-74953809D01*
X134596285Y-74810952D01*
X134643904Y-74620476D01*
X134691523Y-74525238D01*
X134786761Y-74430000D01*
X134929619Y-74382380D01*
X135024857Y-74382380D01*
X135167714Y-74430000D01*
X135215333Y-74477619D01*
X135596285Y-74477619D02*
X135643904Y-74430000D01*
X135739142Y-74382380D01*
X135977238Y-74382380D01*
X136072476Y-74430000D01*
X136120095Y-74477619D01*
X136167714Y-74572857D01*
X136167714Y-74668095D01*
X136120095Y-74810952D01*
X135548666Y-75382380D01*
X136167714Y-75382380D01*
X122769333Y-75287142D02*
X122721714Y-75334761D01*
X122578857Y-75382380D01*
X122483619Y-75382380D01*
X122340761Y-75334761D01*
X122245523Y-75239523D01*
X122197904Y-75144285D01*
X122150285Y-74953809D01*
X122150285Y-74810952D01*
X122197904Y-74620476D01*
X122245523Y-74525238D01*
X122340761Y-74430000D01*
X122483619Y-74382380D01*
X122578857Y-74382380D01*
X122721714Y-74430000D01*
X122769333Y-74477619D01*
X123721714Y-75382380D02*
X123150285Y-75382380D01*
X123436000Y-75382380D02*
X123436000Y-74382380D01*
X123340761Y-74525238D01*
X123245523Y-74620476D01*
X123150285Y-74668095D01*
X116165333Y-81129142D02*
X116117714Y-81176761D01*
X115974857Y-81224380D01*
X115879619Y-81224380D01*
X115736761Y-81176761D01*
X115641523Y-81081523D01*
X115593904Y-80986285D01*
X115546285Y-80795809D01*
X115546285Y-80652952D01*
X115593904Y-80462476D01*
X115641523Y-80367238D01*
X115736761Y-80272000D01*
X115879619Y-80224380D01*
X115974857Y-80224380D01*
X116117714Y-80272000D01*
X116165333Y-80319619D01*
X116498666Y-80224380D02*
X117117714Y-80224380D01*
X116784380Y-80605333D01*
X116927238Y-80605333D01*
X117022476Y-80652952D01*
X117070095Y-80700571D01*
X117117714Y-80795809D01*
X117117714Y-81033904D01*
X117070095Y-81129142D01*
X117022476Y-81176761D01*
X116927238Y-81224380D01*
X116641523Y-81224380D01*
X116546285Y-81176761D01*
X116498666Y-81129142D01*
X132675333Y-81129142D02*
X132627714Y-81176761D01*
X132484857Y-81224380D01*
X132389619Y-81224380D01*
X132246761Y-81176761D01*
X132151523Y-81081523D01*
X132103904Y-80986285D01*
X132056285Y-80795809D01*
X132056285Y-80652952D01*
X132103904Y-80462476D01*
X132151523Y-80367238D01*
X132246761Y-80272000D01*
X132389619Y-80224380D01*
X132484857Y-80224380D01*
X132627714Y-80272000D01*
X132675333Y-80319619D01*
X133532476Y-80557714D02*
X133532476Y-81224380D01*
X133294380Y-80176761D02*
X133056285Y-80891047D01*
X133675333Y-80891047D01*
X120086380Y-104878095D02*
X119086380Y-104878095D01*
X119086380Y-104640000D01*
X119134000Y-104497142D01*
X119229238Y-104401904D01*
X119324476Y-104354285D01*
X119514952Y-104306666D01*
X119657809Y-104306666D01*
X119848285Y-104354285D01*
X119943523Y-104401904D01*
X120038761Y-104497142D01*
X120086380Y-104640000D01*
X120086380Y-104878095D01*
X120086380Y-103354285D02*
X120086380Y-103925714D01*
X120086380Y-103640000D02*
X119086380Y-103640000D01*
X119229238Y-103735238D01*
X119324476Y-103830476D01*
X119372095Y-103925714D01*
X124610904Y-102560380D02*
X124610904Y-101560380D01*
X124849000Y-101560380D01*
X124991857Y-101608000D01*
X125087095Y-101703238D01*
X125134714Y-101798476D01*
X125182333Y-101988952D01*
X125182333Y-102131809D01*
X125134714Y-102322285D01*
X125087095Y-102417523D01*
X124991857Y-102512761D01*
X124849000Y-102560380D01*
X124610904Y-102560380D01*
X125563285Y-101655619D02*
X125610904Y-101608000D01*
X125706142Y-101560380D01*
X125944238Y-101560380D01*
X126039476Y-101608000D01*
X126087095Y-101655619D01*
X126134714Y-101750857D01*
X126134714Y-101846095D01*
X126087095Y-101988952D01*
X125515666Y-102560380D01*
X126134714Y-102560380D01*
X128928904Y-102687380D02*
X128928904Y-101687380D01*
X129167000Y-101687380D01*
X129309857Y-101735000D01*
X129405095Y-101830238D01*
X129452714Y-101925476D01*
X129500333Y-102115952D01*
X129500333Y-102258809D01*
X129452714Y-102449285D01*
X129405095Y-102544523D01*
X129309857Y-102639761D01*
X129167000Y-102687380D01*
X128928904Y-102687380D01*
X129833666Y-101687380D02*
X130452714Y-101687380D01*
X130119380Y-102068333D01*
X130262238Y-102068333D01*
X130357476Y-102115952D01*
X130405095Y-102163571D01*
X130452714Y-102258809D01*
X130452714Y-102496904D01*
X130405095Y-102592142D01*
X130357476Y-102639761D01*
X130262238Y-102687380D01*
X129976523Y-102687380D01*
X129881285Y-102639761D01*
X129833666Y-102592142D01*
X119300666Y-61428380D02*
X119300666Y-62142666D01*
X119253047Y-62285523D01*
X119157809Y-62380761D01*
X119014952Y-62428380D01*
X118919714Y-62428380D01*
X120300666Y-62428380D02*
X119729238Y-62428380D01*
X120014952Y-62428380D02*
X120014952Y-61428380D01*
X119919714Y-61571238D01*
X119824476Y-61666476D01*
X119729238Y-61714095D01*
X133524666Y-61428380D02*
X133524666Y-62142666D01*
X133477047Y-62285523D01*
X133381809Y-62380761D01*
X133238952Y-62428380D01*
X133143714Y-62428380D01*
X133953238Y-61523619D02*
X134000857Y-61476000D01*
X134096095Y-61428380D01*
X134334190Y-61428380D01*
X134429428Y-61476000D01*
X134477047Y-61523619D01*
X134524666Y-61618857D01*
X134524666Y-61714095D01*
X134477047Y-61856952D01*
X133905619Y-62428380D01*
X134524666Y-62428380D01*
X141406666Y-69810380D02*
X141406666Y-70524666D01*
X141359047Y-70667523D01*
X141263809Y-70762761D01*
X141120952Y-70810380D01*
X141025714Y-70810380D01*
X141882857Y-70810380D02*
X141882857Y-69810380D01*
X142263809Y-69810380D01*
X142359047Y-69858000D01*
X142406666Y-69905619D01*
X142454285Y-70000857D01*
X142454285Y-70143714D01*
X142406666Y-70238952D01*
X142359047Y-70286571D01*
X142263809Y-70334190D01*
X141882857Y-70334190D01*
X142835238Y-69905619D02*
X142882857Y-69858000D01*
X142978095Y-69810380D01*
X143216190Y-69810380D01*
X143311428Y-69858000D01*
X143359047Y-69905619D01*
X143406666Y-70000857D01*
X143406666Y-70096095D01*
X143359047Y-70238952D01*
X142787619Y-70810380D01*
X143406666Y-70810380D01*
M02*
