solid OpenSCAD_Model
  facet normal -1 0 0
    outer loop
      vertex 0 9 5
      vertex 0 9 0
      vertex 0 2 5
    endloop
  endfacet
  facet normal -1 0 0
    outer loop
      vertex 0 2 5
      vertex 0 9 0
      vertex 0 2 0
    endloop
  endfacet
  facet normal -0.999048 -0.0436218 0
    outer loop
      vertex 0.007611 1.82569 5
      vertex 0 2 5
      vertex 0.007611 1.82569 0
    endloop
  endfacet
  facet normal -0.999048 -0.0436218 0
    outer loop
      vertex 0.007611 1.82569 0
      vertex 0 2 5
      vertex 0 2 0
    endloop
  endfacet
  facet normal 0 0 -1
    outer loop
      vertex 0.007611 9.17431 0
      vertex 0.030384 9.3473 0
      vertex 0 9 0
    endloop
  endfacet
  facet normal 0 0 -1
    outer loop
      vertex 0 9 0
      vertex 0.030384 9.3473 0
      vertex 0.068148 9.51764 0
    endloop
  endfacet
  facet normal 0 0 -1
    outer loop
      vertex 0 9 0
      vertex 0.068148 9.51764 0
      vertex 0.120615 9.68404 0
    endloop
  endfacet
  facet normal 0 0 -1
    outer loop
      vertex 0 9 0
      vertex 0.120615 9.68404 0
      vertex 0.187384 9.84524 0
    endloop
  endfacet
  facet normal 0 0 -1
    outer loop
      vertex 0 9 0
      vertex 0.187384 9.84524 0
      vertex 0.267949 10 0
    endloop
  endfacet
  facet normal 0 0 -1
    outer loop
      vertex 0 9 0
      vertex 0.267949 10 0
      vertex 0.361696 10.1472 0
    endloop
  endfacet
  facet normal 0 0 -1
    outer loop
      vertex 0 9 0
      vertex 0.361696 10.1472 0
      vertex 0.467911 10.2856 0
    endloop
  endfacet
  facet normal 0 0 -1
    outer loop
      vertex 0 9 0
      vertex 0.467911 10.2856 0
      vertex 0.585786 10.4142 0
    endloop
  endfacet
  facet normal 0 0 -1
    outer loop
      vertex 0 9 0
      vertex 0.585786 10.4142 0
      vertex 0.714425 10.5321 0
    endloop
  endfacet
  facet normal 0 0 -1
    outer loop
      vertex 0 9 0
      vertex 0.714425 10.5321 0
      vertex 0.852847 10.6383 0
    endloop
  endfacet
  facet normal 0 0 -1
    outer loop
      vertex 0 9 0
      vertex 0.852847 10.6383 0
      vertex 1 10.7321 0
    endloop
  endfacet
  facet normal 0 0 -1
    outer loop
      vertex 0 9 0
      vertex 1 10.7321 0
      vertex 1.15476 10.8126 0
    endloop
  endfacet
  facet normal 0 0 -1
    outer loop
      vertex 0 9 0
      vertex 1.15476 10.8126 0
      vertex 1.31596 10.8794 0
    endloop
  endfacet
  facet normal 0 0 -1
    outer loop
      vertex 0 9 0
      vertex 1.31596 10.8794 0
      vertex 1.48236 10.9319 0
    endloop
  endfacet
  facet normal 0 0 -1
    outer loop
      vertex 0 9 0
      vertex 1.48236 10.9319 0
      vertex 1.6527 10.9696 0
    endloop
  endfacet
  facet normal 0 0 -1
    outer loop
      vertex 0 9 0
      vertex 1.6527 10.9696 0
      vertex 1.82569 10.9924 0
    endloop
  endfacet
  facet normal 0 0 -1
    outer loop
      vertex 0 9 0
      vertex 1.82569 10.9924 0
      vertex 2 11 0
    endloop
  endfacet
  facet normal 0 0 -1
    outer loop
      vertex 0 9 0
      vertex 2 11 0
      vertex 28 11 0
    endloop
  endfacet
  facet normal 0 0 -1
    outer loop
      vertex 0 9 0
      vertex 28 11 0
      vertex 28.1743 10.9924 0
    endloop
  endfacet
  facet normal 0 0 -1
    outer loop
      vertex 0 9 0
      vertex 28.1743 10.9924 0
      vertex 28.3473 10.9696 0
    endloop
  endfacet
  facet normal 0 0 -1
    outer loop
      vertex 0 9 0
      vertex 28.3473 10.9696 0
      vertex 28.5176 10.9319 0
    endloop
  endfacet
  facet normal 0 0 -1
    outer loop
      vertex 0 9 0
      vertex 28.5176 10.9319 0
      vertex 28.684 10.8794 0
    endloop
  endfacet
  facet normal 0 0 -1
    outer loop
      vertex 0 9 0
      vertex 28.684 10.8794 0
      vertex 28.8452 10.8126 0
    endloop
  endfacet
  facet normal 0 0 -1
    outer loop
      vertex 0 9 0
      vertex 28.8452 10.8126 0
      vertex 29 10.7321 0
    endloop
  endfacet
  facet normal 0 0 -1
    outer loop
      vertex 0 9 0
      vertex 29 10.7321 0
      vertex 29.1472 10.6383 0
    endloop
  endfacet
  facet normal 0 0 -1
    outer loop
      vertex 0 9 0
      vertex 29.1472 10.6383 0
      vertex 29.2856 10.5321 0
    endloop
  endfacet
  facet normal 0 0 -1
    outer loop
      vertex 0 9 0
      vertex 29.2856 10.5321 0
      vertex 29.4142 10.4142 0
    endloop
  endfacet
  facet normal 0 0 -1
    outer loop
      vertex 0 9 0
      vertex 29.4142 10.4142 0
      vertex 29.5321 10.2856 0
    endloop
  endfacet
  facet normal 0 0 -1
    outer loop
      vertex 0 9 0
      vertex 29.5321 10.2856 0
      vertex 29.6383 10.1472 0
    endloop
  endfacet
  facet normal 0 0 -1
    outer loop
      vertex 0 9 0
      vertex 29.6383 10.1472 0
      vertex 29.7321 10 0
    endloop
  endfacet
  facet normal 0 0 -1
    outer loop
      vertex 0 9 0
      vertex 29.7321 10 0
      vertex 29.8126 9.84524 0
    endloop
  endfacet
  facet normal 0 0 -1
    outer loop
      vertex 0 9 0
      vertex 29.8126 9.84524 0
      vertex 29.8794 9.68404 0
    endloop
  endfacet
  facet normal 0 0 -1
    outer loop
      vertex 0 9 0
      vertex 29.8794 9.68404 0
      vertex 29.9319 9.51764 0
    endloop
  endfacet
  facet normal 0 0 -1
    outer loop
      vertex 0 9 0
      vertex 29.9319 9.51764 0
      vertex 29.9696 9.3473 0
    endloop
  endfacet
  facet normal 0 0 -1
    outer loop
      vertex 0 9 0
      vertex 29.9696 9.3473 0
      vertex 29.9924 9.17431 0
    endloop
  endfacet
  facet normal 0 0 -1
    outer loop
      vertex 0 9 0
      vertex 29.9924 9.17431 0
      vertex 30 9 0
    endloop
  endfacet
  facet normal 0 0 -1
    outer loop
      vertex 26.6383 4.35285 0
      vertex 30 9 0
      vertex 30 2 0
    endloop
  endfacet
  facet normal 0 0 -1
    outer loop
      vertex 0 9 0
      vertex 30 2 0
      vertex 29.9924 1.82569 0
    endloop
  endfacet
  facet normal 0 0 -1
    outer loop
      vertex 0 9 0
      vertex 29.9924 1.82569 0
      vertex 29.9696 1.6527 0
    endloop
  endfacet
  facet normal 0 0 -1
    outer loop
      vertex 0 9 0
      vertex 29.9696 1.6527 0
      vertex 29.9319 1.48236 0
    endloop
  endfacet
  facet normal 0 0 -1
    outer loop
      vertex 0 9 0
      vertex 29.9319 1.48236 0
      vertex 29.8794 1.31596 0
    endloop
  endfacet
  facet normal 0 0 -1
    outer loop
      vertex 0 9 0
      vertex 29.8794 1.31596 0
      vertex 29.8126 1.15476 0
    endloop
  endfacet
  facet normal 0 0 -1
    outer loop
      vertex 0 9 0
      vertex 29.8126 1.15476 0
      vertex 29.7321 1 0
    endloop
  endfacet
  facet normal 0 0 -1
    outer loop
      vertex 0 9 0
      vertex 29.7321 1 0
      vertex 29.6383 0.852847 0
    endloop
  endfacet
  facet normal 0 0 -1
    outer loop
      vertex 0 9 0
      vertex 29.6383 0.852847 0
      vertex 29.5321 0.714425 0
    endloop
  endfacet
  facet normal 0 0 -1
    outer loop
      vertex 0 9 0
      vertex 29.5321 0.714425 0
      vertex 29.4142 0.585786 0
    endloop
  endfacet
  facet normal 0 0 -1
    outer loop
      vertex 0 9 0
      vertex 29.4142 0.585786 0
      vertex 29.2856 0.467911 0
    endloop
  endfacet
  facet normal 0 0 -1
    outer loop
      vertex 0 9 0
      vertex 29.2856 0.467911 0
      vertex 29.1472 0.361696 0
    endloop
  endfacet
  facet normal 0 0 -1
    outer loop
      vertex 0 9 0
      vertex 29.1472 0.361696 0
      vertex 29 0.267949 0
    endloop
  endfacet
  facet normal 0 0 -1
    outer loop
      vertex 0 9 0
      vertex 29 0.267949 0
      vertex 28.8452 0.187384 0
    endloop
  endfacet
  facet normal 0 0 -1
    outer loop
      vertex 0 9 0
      vertex 28.8452 0.187384 0
      vertex 28.684 0.120615 0
    endloop
  endfacet
  facet normal 0 0 -1
    outer loop
      vertex 0 9 0
      vertex 28.684 0.120615 0
      vertex 28.5176 0.068148 0
    endloop
  endfacet
  facet normal 0 0 -1
    outer loop
      vertex 0 9 0
      vertex 28.5176 0.068148 0
      vertex 28.3473 0.030384 0
    endloop
  endfacet
  facet normal 0 0 -1
    outer loop
      vertex 0 9 0
      vertex 28.3473 0.030384 0
      vertex 28.1743 0.007611 0
    endloop
  endfacet
  facet normal 0 0 -1
    outer loop
      vertex 0 9 0
      vertex 28.1743 0.007611 0
      vertex 28 0 0
    endloop
  endfacet
  facet normal 0 0 -1
    outer loop
      vertex 0 9 0
      vertex 28 0 0
      vertex 2 0 0
    endloop
  endfacet
  facet normal 0 0 -1
    outer loop
      vertex 0 9 0
      vertex 2 0 0
      vertex 1.82569 0.007611 0
    endloop
  endfacet
  facet normal 0 0 -1
    outer loop
      vertex 0 9 0
      vertex 1.82569 0.007611 0
      vertex 1.6527 0.030384 0
    endloop
  endfacet
  facet normal 0 0 -1
    outer loop
      vertex 0 9 0
      vertex 1.6527 0.030384 0
      vertex 1.48236 0.068148 0
    endloop
  endfacet
  facet normal 0 0 -1
    outer loop
      vertex 0 9 0
      vertex 1.48236 0.068148 0
      vertex 1.31596 0.120615 0
    endloop
  endfacet
  facet normal 0 0 -1
    outer loop
      vertex 0 9 0
      vertex 1.31596 0.120615 0
      vertex 1.15476 0.187384 0
    endloop
  endfacet
  facet normal 0 0 -1
    outer loop
      vertex 0 9 0
      vertex 1.15476 0.187384 0
      vertex 1 0.267949 0
    endloop
  endfacet
  facet normal 0 0 -1
    outer loop
      vertex 0 9 0
      vertex 1 0.267949 0
      vertex 0.852847 0.361696 0
    endloop
  endfacet
  facet normal 0 0 -1
    outer loop
      vertex 0 9 0
      vertex 0.852847 0.361696 0
      vertex 0.714425 0.467911 0
    endloop
  endfacet
  facet normal 0 0 -1
    outer loop
      vertex 0 9 0
      vertex 0.714425 0.467911 0
      vertex 0.585786 0.585786 0
    endloop
  endfacet
  facet normal 0 0 -1
    outer loop
      vertex 0 9 0
      vertex 0.585786 0.585786 0
      vertex 0.467911 0.714425 0
    endloop
  endfacet
  facet normal 0 0 -1
    outer loop
      vertex 0 9 0
      vertex 0.467911 0.714425 0
      vertex 0.361696 0.852847 0
    endloop
  endfacet
  facet normal 0 0 -1
    outer loop
      vertex 0 9 0
      vertex 0.361696 0.852847 0
      vertex 0.267949 1 0
    endloop
  endfacet
  facet normal 0 0 -1
    outer loop
      vertex 0 9 0
      vertex 0.267949 1 0
      vertex 0.187384 1.15476 0
    endloop
  endfacet
  facet normal 0 0 -1
    outer loop
      vertex 0 9 0
      vertex 0.187384 1.15476 0
      vertex 0.120615 1.31596 0
    endloop
  endfacet
  facet normal 0 0 -1
    outer loop
      vertex 0 9 0
      vertex 0.120615 1.31596 0
      vertex 0.068148 1.48236 0
    endloop
  endfacet
  facet normal 0 0 -1
    outer loop
      vertex 0 9 0
      vertex 0.068148 1.48236 0
      vertex 0.030384 1.6527 0
    endloop
  endfacet
  facet normal 0 0 -1
    outer loop
      vertex 0 9 0
      vertex 0.030384 1.6527 0
      vertex 0.007611 1.82569 0
    endloop
  endfacet
  facet normal 0 0 -1
    outer loop
      vertex 0 9 0
      vertex 0.007611 1.82569 0
      vertex 0 2 0
    endloop
  endfacet
  facet normal 0 0 -1
    outer loop
      vertex 24.8257 7.49239 0
      vertex 0 9 0
      vertex 25 7.5 0
    endloop
  endfacet
  facet normal 0 0 -1
    outer loop
      vertex 0 9 0
      vertex 23.0076 5.32569 0
      vertex 23.0304 5.1527 0
    endloop
  endfacet
  facet normal 0 0 -1
    outer loop
      vertex 0 9 0
      vertex 23.0304 5.1527 0
      vertex 23.0681 4.98236 0
    endloop
  endfacet
  facet normal 0 0 -1
    outer loop
      vertex 0 9 0
      vertex 23.0681 4.98236 0
      vertex 23.1206 4.81596 0
    endloop
  endfacet
  facet normal 0 0 -1
    outer loop
      vertex 0 9 0
      vertex 23.1206 4.81596 0
      vertex 23.1874 4.65476 0
    endloop
  endfacet
  facet normal 0 0 -1
    outer loop
      vertex 0 9 0
      vertex 23.1874 4.65476 0
      vertex 23.2679 4.5 0
    endloop
  endfacet
  facet normal 0 0 -1
    outer loop
      vertex 0 9 0
      vertex 23.2679 4.5 0
      vertex 23.3617 4.35285 0
    endloop
  endfacet
  facet normal 0 0 -1
    outer loop
      vertex 0 9 0
      vertex 23.3617 4.35285 0
      vertex 23.4679 4.21442 0
    endloop
  endfacet
  facet normal 0 0 -1
    outer loop
      vertex 0 9 0
      vertex 23.4679 4.21442 0
      vertex 23.5858 4.08579 0
    endloop
  endfacet
  facet normal 0 0 -1
    outer loop
      vertex 0 9 0
      vertex 23.5858 4.08579 0
      vertex 23.7144 3.96791 0
    endloop
  endfacet
  facet normal 0 0 -1
    outer loop
      vertex 0 9 0
      vertex 23.7144 3.96791 0
      vertex 23.8528 3.8617 0
    endloop
  endfacet
  facet normal 0 0 -1
    outer loop
      vertex 0 9 0
      vertex 23.8528 3.8617 0
      vertex 24 3.76795 0
    endloop
  endfacet
  facet normal 0 0 -1
    outer loop
      vertex 0 9 0
      vertex 24 3.76795 0
      vertex 24.1548 3.68738 0
    endloop
  endfacet
  facet normal 0 0 -1
    outer loop
      vertex 0 9 0
      vertex 24.1548 3.68738 0
      vertex 24.316 3.62061 0
    endloop
  endfacet
  facet normal 0 0 -1
    outer loop
      vertex 0 9 0
      vertex 24.316 3.62061 0
      vertex 24.4824 3.56815 0
    endloop
  endfacet
  facet normal 0 0 -1
    outer loop
      vertex 0 9 0
      vertex 24.4824 3.56815 0
      vertex 30 2 0
    endloop
  endfacet
  facet normal 0 0 -1
    outer loop
      vertex 24.8257 3.50761 0
      vertex 30 2 0
      vertex 24.6527 3.53038 0
    endloop
  endfacet
  facet normal 0 0 -1
    outer loop
      vertex 25 3.5 0
      vertex 30 2 0
      vertex 24.8257 3.50761 0
    endloop
  endfacet
  facet normal 0 0 -1
    outer loop
      vertex 25.1743 3.50761 0
      vertex 30 2 0
      vertex 25 3.5 0
    endloop
  endfacet
  facet normal 0 0 -1
    outer loop
      vertex 25.3473 3.53038 0
      vertex 30 2 0
      vertex 25.1743 3.50761 0
    endloop
  endfacet
  facet normal 0 0 -1
    outer loop
      vertex 25.5176 3.56815 0
      vertex 30 2 0
      vertex 25.3473 3.53038 0
    endloop
  endfacet
  facet normal 0 0 -1
    outer loop
      vertex 25.684 3.62061 0
      vertex 30 2 0
      vertex 25.5176 3.56815 0
    endloop
  endfacet
  facet normal 0 0 -1
    outer loop
      vertex 25.8452 3.68738 0
      vertex 30 2 0
      vertex 25.684 3.62061 0
    endloop
  endfacet
  facet normal 0 0 -1
    outer loop
      vertex 26 3.76795 0
      vertex 30 2 0
      vertex 25.8452 3.68738 0
    endloop
  endfacet
  facet normal 0 0 -1
    outer loop
      vertex 26.1472 3.8617 0
      vertex 30 2 0
      vertex 26 3.76795 0
    endloop
  endfacet
  facet normal 0 0 -1
    outer loop
      vertex 26.1472 7.1383 0
      vertex 30 9 0
      vertex 26.2856 7.03209 0
    endloop
  endfacet
  facet normal 0 0 -1
    outer loop
      vertex 26.7321 4.5 0
      vertex 30 9 0
      vertex 26.6383 4.35285 0
    endloop
  endfacet
  facet normal 0 0 -1
    outer loop
      vertex 26.9319 4.98236 0
      vertex 30 9 0
      vertex 26.8794 4.81596 0
    endloop
  endfacet
  facet normal 0 0 -1
    outer loop
      vertex 26.1472 3.8617 0
      vertex 26.2856 3.96791 0
      vertex 30 2 0
    endloop
  endfacet
  facet normal 0 0 -1
    outer loop
      vertex 26.8794 4.81596 0
      vertex 30 9 0
      vertex 26.8126 4.65476 0
    endloop
  endfacet
  facet normal 0 0 -1
    outer loop
      vertex 26.2856 3.96791 0
      vertex 26.4142 4.08579 0
      vertex 30 2 0
    endloop
  endfacet
  facet normal 0 0 -1
    outer loop
      vertex 26.8126 4.65476 0
      vertex 30 9 0
      vertex 26.7321 4.5 0
    endloop
  endfacet
  facet normal 0 0 -1
    outer loop
      vertex 26.4142 4.08579 0
      vertex 26.5321 4.21442 0
      vertex 30 2 0
    endloop
  endfacet
  facet normal 0 0 -1
    outer loop
      vertex 26.5321 4.21442 0
      vertex 26.6383 4.35285 0
      vertex 30 2 0
    endloop
  endfacet
  facet normal 0 0 -1
    outer loop
      vertex 26.9696 5.1527 0
      vertex 30 9 0
      vertex 26.9319 4.98236 0
    endloop
  endfacet
  facet normal 0 0 -1
    outer loop
      vertex 26.9924 5.32569 0
      vertex 30 9 0
      vertex 26.9696 5.1527 0
    endloop
  endfacet
  facet normal 0 0 -1
    outer loop
      vertex 27 5.5 0
      vertex 30 9 0
      vertex 26.9924 5.32569 0
    endloop
  endfacet
  facet normal 0 0 -1
    outer loop
      vertex 26.9924 5.67431 0
      vertex 30 9 0
      vertex 27 5.5 0
    endloop
  endfacet
  facet normal 0 0 -1
    outer loop
      vertex 26.9696 5.8473 0
      vertex 30 9 0
      vertex 26.9924 5.67431 0
    endloop
  endfacet
  facet normal 0 0 -1
    outer loop
      vertex 26.9319 6.01764 0
      vertex 30 9 0
      vertex 26.9696 5.8473 0
    endloop
  endfacet
  facet normal 0 0 -1
    outer loop
      vertex 26.8794 6.18404 0
      vertex 30 9 0
      vertex 26.9319 6.01764 0
    endloop
  endfacet
  facet normal 0 0 -1
    outer loop
      vertex 26.8126 6.34524 0
      vertex 30 9 0
      vertex 26.8794 6.18404 0
    endloop
  endfacet
  facet normal 0 0 -1
    outer loop
      vertex 26.7321 6.5 0
      vertex 30 9 0
      vertex 26.8126 6.34524 0
    endloop
  endfacet
  facet normal 0 0 -1
    outer loop
      vertex 26.6383 6.64715 0
      vertex 30 9 0
      vertex 26.7321 6.5 0
    endloop
  endfacet
  facet normal 0 0 -1
    outer loop
      vertex 26.5321 6.78557 0
      vertex 30 9 0
      vertex 26.6383 6.64715 0
    endloop
  endfacet
  facet normal 0 0 -1
    outer loop
      vertex 26.4142 6.91421 0
      vertex 30 9 0
      vertex 26.5321 6.78557 0
    endloop
  endfacet
  facet normal 0 0 -1
    outer loop
      vertex 26.2856 7.03209 0
      vertex 30 9 0
      vertex 26.4142 6.91421 0
    endloop
  endfacet
  facet normal 0 0 -1
    outer loop
      vertex 26 7.23205 0
      vertex 30 9 0
      vertex 26.1472 7.1383 0
    endloop
  endfacet
  facet normal 0 0 -1
    outer loop
      vertex 25.8452 7.31262 0
      vertex 30 9 0
      vertex 26 7.23205 0
    endloop
  endfacet
  facet normal 0 0 -1
    outer loop
      vertex 25.684 7.37938 0
      vertex 30 9 0
      vertex 25.8452 7.31262 0
    endloop
  endfacet
  facet normal 0 0 -1
    outer loop
      vertex 25.5176 7.43185 0
      vertex 30 9 0
      vertex 25.684 7.37938 0
    endloop
  endfacet
  facet normal 0 0 -1
    outer loop
      vertex 25.3473 7.46962 0
      vertex 30 9 0
      vertex 25.5176 7.43185 0
    endloop
  endfacet
  facet normal 0 0 -1
    outer loop
      vertex 25.1743 7.49239 0
      vertex 30 9 0
      vertex 25.3473 7.46962 0
    endloop
  endfacet
  facet normal 0 0 -1
    outer loop
      vertex 0 9 0
      vertex 30 9 0
      vertex 25.1743 7.49239 0
    endloop
  endfacet
  facet normal 0 0 -1
    outer loop
      vertex 0 9 0
      vertex 25.1743 7.49239 0
      vertex 25 7.5 0
    endloop
  endfacet
  facet normal 0 0 -1
    outer loop
      vertex 24.6527 7.46962 0
      vertex 0 9 0
      vertex 24.8257 7.49239 0
    endloop
  endfacet
  facet normal 0 0 -1
    outer loop
      vertex 24.4824 7.43185 0
      vertex 0 9 0
      vertex 24.6527 7.46962 0
    endloop
  endfacet
  facet normal 0 0 -1
    outer loop
      vertex 24.316 7.37938 0
      vertex 0 9 0
      vertex 24.4824 7.43185 0
    endloop
  endfacet
  facet normal 0 0 -1
    outer loop
      vertex 24.1548 7.31262 0
      vertex 0 9 0
      vertex 24.316 7.37938 0
    endloop
  endfacet
  facet normal 0 0 -1
    outer loop
      vertex 24 7.23205 0
      vertex 0 9 0
      vertex 24.1548 7.31262 0
    endloop
  endfacet
  facet normal 0 0 -1
    outer loop
      vertex 0 9 0
      vertex 24 7.23205 0
      vertex 23.8528 7.1383 0
    endloop
  endfacet
  facet normal 0 0 -1
    outer loop
      vertex 0 9 0
      vertex 23.8528 7.1383 0
      vertex 23.7144 7.03209 0
    endloop
  endfacet
  facet normal 0 0 -1
    outer loop
      vertex 0 9 0
      vertex 23.7144 7.03209 0
      vertex 23.5858 6.91421 0
    endloop
  endfacet
  facet normal 0 0 -1
    outer loop
      vertex 0 9 0
      vertex 23.5858 6.91421 0
      vertex 23.4679 6.78557 0
    endloop
  endfacet
  facet normal 0 0 -1
    outer loop
      vertex 0 9 0
      vertex 23.4679 6.78557 0
      vertex 23.3617 6.64715 0
    endloop
  endfacet
  facet normal 0 0 -1
    outer loop
      vertex 0 9 0
      vertex 23.3617 6.64715 0
      vertex 23.2679 6.5 0
    endloop
  endfacet
  facet normal 0 0 -1
    outer loop
      vertex 0 9 0
      vertex 23.2679 6.5 0
      vertex 23.1874 6.34524 0
    endloop
  endfacet
  facet normal 0 0 -1
    outer loop
      vertex 0 9 0
      vertex 23.1874 6.34524 0
      vertex 23.1206 6.18404 0
    endloop
  endfacet
  facet normal 0 0 -1
    outer loop
      vertex 0 9 0
      vertex 23.1206 6.18404 0
      vertex 23.0681 6.01764 0
    endloop
  endfacet
  facet normal 0 0 -1
    outer loop
      vertex 0 9 0
      vertex 23.0681 6.01764 0
      vertex 23.0304 5.8473 0
    endloop
  endfacet
  facet normal 0 0 -1
    outer loop
      vertex 0 9 0
      vertex 23.0304 5.8473 0
      vertex 23.0076 5.67431 0
    endloop
  endfacet
  facet normal 0 0 -1
    outer loop
      vertex 0 9 0
      vertex 23.0076 5.67431 0
      vertex 23 5.5 0
    endloop
  endfacet
  facet normal 0 0 -1
    outer loop
      vertex 0 9 0
      vertex 23 5.5 0
      vertex 23.0076 5.32569 0
    endloop
  endfacet
  facet normal 0 0 -1
    outer loop
      vertex 24.6527 3.53038 0
      vertex 30 2 0
      vertex 24.4824 3.56815 0
    endloop
  endfacet
  facet normal 0 0 1
    outer loop
      vertex 0.007611 1.82569 5
      vertex 0.030384 1.6527 5
      vertex 0.068148 1.48236 5
    endloop
  endfacet
  facet normal 0 0 1
    outer loop
      vertex 0.187384 1.15476 5
      vertex 0.007611 1.82569 5
      vertex 0.120615 1.31596 5
    endloop
  endfacet
  facet normal 0 0 1
    outer loop
      vertex 0.120615 1.31596 5
      vertex 0.007611 1.82569 5
      vertex 0.068148 1.48236 5
    endloop
  endfacet
  facet normal 0 0 1
    outer loop
      vertex 0.267949 1 5
      vertex 0.007611 1.82569 5
      vertex 0.187384 1.15476 5
    endloop
  endfacet
  facet normal 0 0 1
    outer loop
      vertex 0.361696 0.852847 5
      vertex 0.007611 1.82569 5
      vertex 0.267949 1 5
    endloop
  endfacet
  facet normal 0 0 1
    outer loop
      vertex 0.467911 0.714425 5
      vertex 0.007611 1.82569 5
      vertex 0.361696 0.852847 5
    endloop
  endfacet
  facet normal 0 0 1
    outer loop
      vertex 0.585786 0.585786 5
      vertex 0.007611 1.82569 5
      vertex 0.467911 0.714425 5
    endloop
  endfacet
  facet normal 0 0 1
    outer loop
      vertex 0.714425 0.467911 5
      vertex 0.007611 1.82569 5
      vertex 0.585786 0.585786 5
    endloop
  endfacet
  facet normal 0 0 1
    outer loop
      vertex 0.852847 0.361696 5
      vertex 0.007611 1.82569 5
      vertex 0.714425 0.467911 5
    endloop
  endfacet
  facet normal 0 0 1
    outer loop
      vertex 1 0.267949 5
      vertex 0.007611 1.82569 5
      vertex 0.852847 0.361696 5
    endloop
  endfacet
  facet normal 0 0 1
    outer loop
      vertex 1.15476 0.187384 5
      vertex 0.007611 1.82569 5
      vertex 1 0.267949 5
    endloop
  endfacet
  facet normal 0 0 1
    outer loop
      vertex 1.31596 0.120615 5
      vertex 0.007611 1.82569 5
      vertex 1.15476 0.187384 5
    endloop
  endfacet
  facet normal 0 0 1
    outer loop
      vertex 1.48236 0.068148 5
      vertex 0.007611 1.82569 5
      vertex 1.31596 0.120615 5
    endloop
  endfacet
  facet normal 0 0 1
    outer loop
      vertex 1.6527 0.030384 5
      vertex 0.007611 1.82569 5
      vertex 1.48236 0.068148 5
    endloop
  endfacet
  facet normal 0 0 1
    outer loop
      vertex 1.82569 0.007611 5
      vertex 0.007611 1.82569 5
      vertex 1.6527 0.030384 5
    endloop
  endfacet
  facet normal 0 0 1
    outer loop
      vertex 2 0 5
      vertex 0.007611 1.82569 5
      vertex 1.82569 0.007611 5
    endloop
  endfacet
  facet normal 0 0 1
    outer loop
      vertex 7.5 2.22045e-19 5
      vertex 0.007611 1.82569 5
      vertex 2 0 5
    endloop
  endfacet
  facet normal 0 0 1
    outer loop
      vertex 7.5 2.22045e-19 5
      vertex 7.5 11 5
      vertex 0.007611 1.82569 5
    endloop
  endfacet
  facet normal 0 0 1
    outer loop
      vertex 28 0 5
      vertex 15.9986 2.22045e-19 5
      vertex 2 0 5
    endloop
  endfacet
  facet normal 0 0 1
    outer loop
      vertex 15.9986 2.22045e-19 5
      vertex 7.5 2.22045e-19 5
      vertex 2 0 5
    endloop
  endfacet
  facet normal 0 0 1
    outer loop
      vertex 25.1743 7.49239 5
      vertex 25.3473 7.46962 5
      vertex 30 9 5
    endloop
  endfacet
  facet normal 0 0 1
    outer loop
      vertex 2 11 5
      vertex 0.007611 1.82569 5
      vertex 7.5 11 5
    endloop
  endfacet
  facet normal 0 0 1
    outer loop
      vertex 1.82569 10.9924 5
      vertex 0.007611 1.82569 5
      vertex 2 11 5
    endloop
  endfacet
  facet normal 0 0 1
    outer loop
      vertex 1.6527 10.9696 5
      vertex 0.007611 1.82569 5
      vertex 1.82569 10.9924 5
    endloop
  endfacet
  facet normal 0 0 1
    outer loop
      vertex 1.48236 10.9319 5
      vertex 0.007611 1.82569 5
      vertex 1.6527 10.9696 5
    endloop
  endfacet
  facet normal 0 0 1
    outer loop
      vertex 1.31596 10.8794 5
      vertex 0.007611 1.82569 5
      vertex 1.48236 10.9319 5
    endloop
  endfacet
  facet normal 0 0 1
    outer loop
      vertex 1.15476 10.8126 5
      vertex 0.007611 1.82569 5
      vertex 1.31596 10.8794 5
    endloop
  endfacet
  facet normal 0 0 1
    outer loop
      vertex 1 10.7321 5
      vertex 0.007611 1.82569 5
      vertex 1.15476 10.8126 5
    endloop
  endfacet
  facet normal 0 0 1
    outer loop
      vertex 0.852847 10.6383 5
      vertex 0.007611 1.82569 5
      vertex 1 10.7321 5
    endloop
  endfacet
  facet normal 0 0 1
    outer loop
      vertex 0.714425 10.5321 5
      vertex 0.007611 1.82569 5
      vertex 0.852847 10.6383 5
    endloop
  endfacet
  facet normal 0 0 1
    outer loop
      vertex 0.585786 10.4142 5
      vertex 0.007611 1.82569 5
      vertex 0.714425 10.5321 5
    endloop
  endfacet
  facet normal 0 0 1
    outer loop
      vertex 0.467911 10.2856 5
      vertex 0.007611 1.82569 5
      vertex 0.585786 10.4142 5
    endloop
  endfacet
  facet normal 0 0 1
    outer loop
      vertex 0.361696 10.1472 5
      vertex 0.007611 1.82569 5
      vertex 0.467911 10.2856 5
    endloop
  endfacet
  facet normal 0 0 1
    outer loop
      vertex 0.267949 10 5
      vertex 0.007611 1.82569 5
      vertex 0.361696 10.1472 5
    endloop
  endfacet
  facet normal 0 0 1
    outer loop
      vertex 0.187384 9.84524 5
      vertex 0.007611 1.82569 5
      vertex 0.267949 10 5
    endloop
  endfacet
  facet normal 0 0 1
    outer loop
      vertex 0.120615 9.68404 5
      vertex 0.007611 1.82569 5
      vertex 0.187384 9.84524 5
    endloop
  endfacet
  facet normal 0 0 1
    outer loop
      vertex 0.068148 9.51764 5
      vertex 0.007611 1.82569 5
      vertex 0.120615 9.68404 5
    endloop
  endfacet
  facet normal 0 0 1
    outer loop
      vertex 0.030384 9.3473 5
      vertex 0.007611 1.82569 5
      vertex 0.068148 9.51764 5
    endloop
  endfacet
  facet normal 0 0 1
    outer loop
      vertex 0.007611 9.17431 5
      vertex 0.007611 1.82569 5
      vertex 0.030384 9.3473 5
    endloop
  endfacet
  facet normal 0 0 1
    outer loop
      vertex 0 9 5
      vertex 0.007611 1.82569 5
      vertex 0.007611 9.17431 5
    endloop
  endfacet
  facet normal 0 0 1
    outer loop
      vertex 0 2 5
      vertex 0.007611 1.82569 5
      vertex 0 9 5
    endloop
  endfacet
  facet normal 0 0 1
    outer loop
      vertex 26.1472 7.1383 5
      vertex 26.2856 7.03209 5
      vertex 30 9 5
    endloop
  endfacet
  facet normal 0 0 1
    outer loop
      vertex 25.684 7.37938 5
      vertex 25.8452 7.31262 5
      vertex 30 9 5
    endloop
  endfacet
  facet normal 0 0 1
    outer loop
      vertex 25.3473 7.46962 5
      vertex 25.5176 7.43185 5
      vertex 30 9 5
    endloop
  endfacet
  facet normal 0 0 1
    outer loop
      vertex 24.6527 7.46962 5
      vertex 24.8257 7.49239 5
      vertex 30 9 5
    endloop
  endfacet
  facet normal 0 0 1
    outer loop
      vertex 24.8257 7.49239 5
      vertex 25 7.5 5
      vertex 30 9 5
    endloop
  endfacet
  facet normal 0 0 1
    outer loop
      vertex 25 7.5 5
      vertex 25.1743 7.49239 5
      vertex 30 9 5
    endloop
  endfacet
  facet normal 0 0 1
    outer loop
      vertex 25.5176 7.43185 5
      vertex 25.684 7.37938 5
      vertex 30 9 5
    endloop
  endfacet
  facet normal 0 0 1
    outer loop
      vertex 25.8452 7.31262 5
      vertex 26 7.23205 5
      vertex 30 9 5
    endloop
  endfacet
  facet normal 0 0 1
    outer loop
      vertex 26 7.23205 5
      vertex 26.1472 7.1383 5
      vertex 30 9 5
    endloop
  endfacet
  facet normal 0 0 1
    outer loop
      vertex 26.6383 6.64715 5
      vertex 26.7321 6.5 5
      vertex 30 2 5
    endloop
  endfacet
  facet normal 0 0 1
    outer loop
      vertex 26.2856 3.96791 5
      vertex 26.1472 3.8617 5
      vertex 30 2 5
    endloop
  endfacet
  facet normal 0 0 1
    outer loop
      vertex 26.8126 6.34524 5
      vertex 26.8794 6.18404 5
      vertex 30 2 5
    endloop
  endfacet
  facet normal 0 0 1
    outer loop
      vertex 30 9 5
      vertex 26.2856 7.03209 5
      vertex 26.4142 6.91421 5
    endloop
  endfacet
  facet normal 0 0 1
    outer loop
      vertex 26.7321 6.5 5
      vertex 26.8126 6.34524 5
      vertex 30 2 5
    endloop
  endfacet
  facet normal 0 0 1
    outer loop
      vertex 30 9 5
      vertex 26.4142 6.91421 5
      vertex 26.5321 6.78557 5
    endloop
  endfacet
  facet normal 0 0 1
    outer loop
      vertex 30 9 5
      vertex 26.6383 6.64715 5
      vertex 30 2 5
    endloop
  endfacet
  facet normal 0 0 1
    outer loop
      vertex 30 9 5
      vertex 26.5321 6.78557 5
      vertex 26.6383 6.64715 5
    endloop
  endfacet
  facet normal 0 0 1
    outer loop
      vertex 26.8794 6.18404 5
      vertex 26.9319 6.01764 5
      vertex 30 2 5
    endloop
  endfacet
  facet normal 0 0 1
    outer loop
      vertex 26.9319 6.01764 5
      vertex 26.9696 5.8473 5
      vertex 30 2 5
    endloop
  endfacet
  facet normal 0 0 1
    outer loop
      vertex 26.9696 5.8473 5
      vertex 26.9924 5.67431 5
      vertex 30 2 5
    endloop
  endfacet
  facet normal 0 0 1
    outer loop
      vertex 26.9924 5.67431 5
      vertex 27 5.5 5
      vertex 30 2 5
    endloop
  endfacet
  facet normal 0 0 1
    outer loop
      vertex 27 5.5 5
      vertex 26.9924 5.32569 5
      vertex 30 2 5
    endloop
  endfacet
  facet normal 0 0 1
    outer loop
      vertex 26.9924 5.32569 5
      vertex 26.9696 5.1527 5
      vertex 30 2 5
    endloop
  endfacet
  facet normal 0 0 1
    outer loop
      vertex 26.9696 5.1527 5
      vertex 26.9319 4.98236 5
      vertex 30 2 5
    endloop
  endfacet
  facet normal 0 0 1
    outer loop
      vertex 26.9319 4.98236 5
      vertex 26.8794 4.81596 5
      vertex 30 2 5
    endloop
  endfacet
  facet normal 0 0 1
    outer loop
      vertex 26.8794 4.81596 5
      vertex 26.8126 4.65476 5
      vertex 30 2 5
    endloop
  endfacet
  facet normal 0 0 1
    outer loop
      vertex 26.8126 4.65476 5
      vertex 26.7321 4.5 5
      vertex 30 2 5
    endloop
  endfacet
  facet normal 0 0 1
    outer loop
      vertex 26.7321 4.5 5
      vertex 26.6383 4.35285 5
      vertex 30 2 5
    endloop
  endfacet
  facet normal 0 0 1
    outer loop
      vertex 26.6383 4.35285 5
      vertex 26.5321 4.21442 5
      vertex 30 2 5
    endloop
  endfacet
  facet normal 0 0 1
    outer loop
      vertex 26.5321 4.21442 5
      vertex 26.4142 4.08579 5
      vertex 30 2 5
    endloop
  endfacet
  facet normal 0 0 1
    outer loop
      vertex 26.4142 4.08579 5
      vertex 26.2856 3.96791 5
      vertex 30 2 5
    endloop
  endfacet
  facet normal 0 0 1
    outer loop
      vertex 26.1472 3.8617 5
      vertex 26 3.76795 5
      vertex 30 2 5
    endloop
  endfacet
  facet normal 0 0 1
    outer loop
      vertex 26 3.76795 5
      vertex 25.8452 3.68738 5
      vertex 30 2 5
    endloop
  endfacet
  facet normal 0 0 1
    outer loop
      vertex 25.8452 3.68738 5
      vertex 25.684 3.62061 5
      vertex 30 2 5
    endloop
  endfacet
  facet normal 0 0 1
    outer loop
      vertex 25.684 3.62061 5
      vertex 25.5176 3.56815 5
      vertex 30 2 5
    endloop
  endfacet
  facet normal 0 0 1
    outer loop
      vertex 25.5176 3.56815 5
      vertex 25.3473 3.53038 5
      vertex 30 2 5
    endloop
  endfacet
  facet normal 0 0 1
    outer loop
      vertex 25.3473 3.53038 5
      vertex 25.1743 3.50761 5
      vertex 30 2 5
    endloop
  endfacet
  facet normal 0 0 1
    outer loop
      vertex 24.4824 7.43185 5
      vertex 24.6527 7.46962 5
      vertex 30 9 5
    endloop
  endfacet
  facet normal 0 0 1
    outer loop
      vertex 15.9986 11 5
      vertex 28.1743 10.9924 5
      vertex 28 11 5
    endloop
  endfacet
  facet normal 0 0 1
    outer loop
      vertex 15.9986 11 5
      vertex 28.3473 10.9696 5
      vertex 28.1743 10.9924 5
    endloop
  endfacet
  facet normal 0 0 1
    outer loop
      vertex 15.9986 11 5
      vertex 28.5176 10.9319 5
      vertex 28.3473 10.9696 5
    endloop
  endfacet
  facet normal 0 0 1
    outer loop
      vertex 15.9986 11 5
      vertex 28.684 10.8794 5
      vertex 28.5176 10.9319 5
    endloop
  endfacet
  facet normal 0 0 1
    outer loop
      vertex 15.9986 11 5
      vertex 28.8452 10.8126 5
      vertex 28.684 10.8794 5
    endloop
  endfacet
  facet normal 0 0 1
    outer loop
      vertex 15.9986 11 5
      vertex 29 10.7321 5
      vertex 28.8452 10.8126 5
    endloop
  endfacet
  facet normal 0 0 1
    outer loop
      vertex 15.9986 11 5
      vertex 29.1472 10.6383 5
      vertex 29 10.7321 5
    endloop
  endfacet
  facet normal 0 0 1
    outer loop
      vertex 15.9986 11 5
      vertex 29.2856 10.5321 5
      vertex 29.1472 10.6383 5
    endloop
  endfacet
  facet normal 0 0 1
    outer loop
      vertex 15.9986 11 5
      vertex 29.4142 10.4142 5
      vertex 29.2856 10.5321 5
    endloop
  endfacet
  facet normal 0 0 1
    outer loop
      vertex 15.9986 11 5
      vertex 29.5321 10.2856 5
      vertex 29.4142 10.4142 5
    endloop
  endfacet
  facet normal 0 0 1
    outer loop
      vertex 15.9986 11 5
      vertex 29.6383 10.1472 5
      vertex 29.5321 10.2856 5
    endloop
  endfacet
  facet normal 0 0 1
    outer loop
      vertex 15.9986 11 5
      vertex 29.7321 10 5
      vertex 29.6383 10.1472 5
    endloop
  endfacet
  facet normal 0 0 1
    outer loop
      vertex 15.9986 11 5
      vertex 29.8126 9.84524 5
      vertex 29.7321 10 5
    endloop
  endfacet
  facet normal 0 0 1
    outer loop
      vertex 15.9986 11 5
      vertex 29.8794 9.68404 5
      vertex 29.8126 9.84524 5
    endloop
  endfacet
  facet normal 0 0 1
    outer loop
      vertex 15.9986 11 5
      vertex 29.9319 9.51764 5
      vertex 29.8794 9.68404 5
    endloop
  endfacet
  facet normal 0 0 1
    outer loop
      vertex 15.9986 11 5
      vertex 29.9696 9.3473 5
      vertex 29.9319 9.51764 5
    endloop
  endfacet
  facet normal 0 0 1
    outer loop
      vertex 15.9986 11 5
      vertex 29.9924 9.17431 5
      vertex 29.9696 9.3473 5
    endloop
  endfacet
  facet normal 0 0 1
    outer loop
      vertex 15.9986 11 5
      vertex 30 9 5
      vertex 29.9924 9.17431 5
    endloop
  endfacet
  facet normal 0 0 1
    outer loop
      vertex 15.9986 11 5
      vertex 24.4824 7.43185 5
      vertex 30 9 5
    endloop
  endfacet
  facet normal 0 0 1
    outer loop
      vertex 15.9986 11 5
      vertex 24.316 7.37938 5
      vertex 24.4824 7.43185 5
    endloop
  endfacet
  facet normal 0 0 1
    outer loop
      vertex 15.9986 11 5
      vertex 24.1548 7.31262 5
      vertex 24.316 7.37938 5
    endloop
  endfacet
  facet normal 0 0 1
    outer loop
      vertex 15.9986 11 5
      vertex 24 7.23205 5
      vertex 24.1548 7.31262 5
    endloop
  endfacet
  facet normal 0 0 1
    outer loop
      vertex 15.9986 11 5
      vertex 23.8528 7.1383 5
      vertex 24 7.23205 5
    endloop
  endfacet
  facet normal 0 0 1
    outer loop
      vertex 15.9986 11 5
      vertex 23.7144 7.03209 5
      vertex 23.8528 7.1383 5
    endloop
  endfacet
  facet normal 0 0 1
    outer loop
      vertex 15.9986 11 5
      vertex 23.5858 6.91421 5
      vertex 23.7144 7.03209 5
    endloop
  endfacet
  facet normal 0 0 1
    outer loop
      vertex 15.9986 11 5
      vertex 23.4679 6.78557 5
      vertex 23.5858 6.91421 5
    endloop
  endfacet
  facet normal 0 0 1
    outer loop
      vertex 15.9986 11 5
      vertex 23.3617 6.64715 5
      vertex 23.4679 6.78557 5
    endloop
  endfacet
  facet normal 0 0 1
    outer loop
      vertex 15.9986 11 5
      vertex 23.2679 6.5 5
      vertex 23.3617 6.64715 5
    endloop
  endfacet
  facet normal 0 0 1
    outer loop
      vertex 15.9986 11 5
      vertex 23.1874 6.34524 5
      vertex 23.2679 6.5 5
    endloop
  endfacet
  facet normal 0 0 1
    outer loop
      vertex 15.9986 11 5
      vertex 23.1206 6.18404 5
      vertex 23.1874 6.34524 5
    endloop
  endfacet
  facet normal 0 0 1
    outer loop
      vertex 15.9986 11 5
      vertex 23.0681 6.01764 5
      vertex 23.1206 6.18404 5
    endloop
  endfacet
  facet normal 0 0 1
    outer loop
      vertex 15.9986 11 5
      vertex 23.0304 5.8473 5
      vertex 23.0681 6.01764 5
    endloop
  endfacet
  facet normal 0 0 1
    outer loop
      vertex 15.9986 11 5
      vertex 23.0076 5.67431 5
      vertex 23.0304 5.8473 5
    endloop
  endfacet
  facet normal 0 0 1
    outer loop
      vertex 15.9986 11 5
      vertex 23 5.5 5
      vertex 23.0076 5.67431 5
    endloop
  endfacet
  facet normal 0 0 1
    outer loop
      vertex 15.9986 11 5
      vertex 23.0076 5.32569 5
      vertex 23 5.5 5
    endloop
  endfacet
  facet normal 0 0 1
    outer loop
      vertex 15.9986 11 5
      vertex 23.0304 5.1527 5
      vertex 23.0076 5.32569 5
    endloop
  endfacet
  facet normal 0 0 1
    outer loop
      vertex 15.9986 11 5
      vertex 23.0681 4.98236 5
      vertex 23.0304 5.1527 5
    endloop
  endfacet
  facet normal 0 0 1
    outer loop
      vertex 15.9986 11 5
      vertex 23.1206 4.81596 5
      vertex 23.0681 4.98236 5
    endloop
  endfacet
  facet normal 0 0 1
    outer loop
      vertex 15.9986 11 5
      vertex 23.1874 4.65476 5
      vertex 23.1206 4.81596 5
    endloop
  endfacet
  facet normal 0 0 1
    outer loop
      vertex 15.9986 11 5
      vertex 23.2679 4.5 5
      vertex 23.1874 4.65476 5
    endloop
  endfacet
  facet normal 0 0 1
    outer loop
      vertex 15.9986 11 5
      vertex 23.3617 4.35285 5
      vertex 23.2679 4.5 5
    endloop
  endfacet
  facet normal 0 0 1
    outer loop
      vertex 15.9986 11 5
      vertex 23.4679 4.21442 5
      vertex 23.3617 4.35285 5
    endloop
  endfacet
  facet normal 0 0 1
    outer loop
      vertex 15.9986 11 5
      vertex 23.5858 4.08579 5
      vertex 23.4679 4.21442 5
    endloop
  endfacet
  facet normal 0 0 1
    outer loop
      vertex 15.9986 11 5
      vertex 23.7144 3.96791 5
      vertex 23.5858 4.08579 5
    endloop
  endfacet
  facet normal 0 0 1
    outer loop
      vertex 25 3.5 5
      vertex 30 2 5
      vertex 25.1743 3.50761 5
    endloop
  endfacet
  facet normal 0 0 1
    outer loop
      vertex 24.8257 3.50761 5
      vertex 30 2 5
      vertex 25 3.5 5
    endloop
  endfacet
  facet normal 0 0 1
    outer loop
      vertex 24.6527 3.53038 5
      vertex 30 2 5
      vertex 24.8257 3.50761 5
    endloop
  endfacet
  facet normal 0 0 1
    outer loop
      vertex 24.4824 3.56815 5
      vertex 30 2 5
      vertex 24.6527 3.53038 5
    endloop
  endfacet
  facet normal 0 0 1
    outer loop
      vertex 24.4824 3.56815 5
      vertex 29.9924 1.82569 5
      vertex 30 2 5
    endloop
  endfacet
  facet normal 0 0 1
    outer loop
      vertex 24.316 3.62061 5
      vertex 29.9924 1.82569 5
      vertex 24.4824 3.56815 5
    endloop
  endfacet
  facet normal 0 0 1
    outer loop
      vertex 24.316 3.62061 5
      vertex 29.9696 1.6527 5
      vertex 29.9924 1.82569 5
    endloop
  endfacet
  facet normal 0 0 1
    outer loop
      vertex 24.316 3.62061 5
      vertex 29.9319 1.48236 5
      vertex 29.9696 1.6527 5
    endloop
  endfacet
  facet normal 0 0 1
    outer loop
      vertex 24.316 3.62061 5
      vertex 29.8794 1.31596 5
      vertex 29.9319 1.48236 5
    endloop
  endfacet
  facet normal 0 0 1
    outer loop
      vertex 24.1548 3.68738 5
      vertex 29.8794 1.31596 5
      vertex 24.316 3.62061 5
    endloop
  endfacet
  facet normal 0 0 1
    outer loop
      vertex 24.1548 3.68738 5
      vertex 29.8126 1.15476 5
      vertex 29.8794 1.31596 5
    endloop
  endfacet
  facet normal 0 0 1
    outer loop
      vertex 24.1548 3.68738 5
      vertex 29.7321 1 5
      vertex 29.8126 1.15476 5
    endloop
  endfacet
  facet normal 0 0 1
    outer loop
      vertex 24.1548 3.68738 5
      vertex 29.6383 0.852847 5
      vertex 29.7321 1 5
    endloop
  endfacet
  facet normal 0 0 1
    outer loop
      vertex 24.1548 3.68738 5
      vertex 29.5321 0.714425 5
      vertex 29.6383 0.852847 5
    endloop
  endfacet
  facet normal 0 0 1
    outer loop
      vertex 24 3.76795 5
      vertex 29.5321 0.714425 5
      vertex 24.1548 3.68738 5
    endloop
  endfacet
  facet normal 0 0 1
    outer loop
      vertex 24 3.76795 5
      vertex 29.4142 0.585786 5
      vertex 29.5321 0.714425 5
    endloop
  endfacet
  facet normal 0 0 1
    outer loop
      vertex 24 3.76795 5
      vertex 29.2856 0.467911 5
      vertex 29.4142 0.585786 5
    endloop
  endfacet
  facet normal 0 0 1
    outer loop
      vertex 24 3.76795 5
      vertex 29.1472 0.361696 5
      vertex 29.2856 0.467911 5
    endloop
  endfacet
  facet normal 0 0 1
    outer loop
      vertex 23.8528 3.8617 5
      vertex 29.1472 0.361696 5
      vertex 24 3.76795 5
    endloop
  endfacet
  facet normal 0 0 1
    outer loop
      vertex 23.8528 3.8617 5
      vertex 29 0.267949 5
      vertex 29.1472 0.361696 5
    endloop
  endfacet
  facet normal 0 0 1
    outer loop
      vertex 23.8528 3.8617 5
      vertex 28.8452 0.187384 5
      vertex 29 0.267949 5
    endloop
  endfacet
  facet normal 0 0 1
    outer loop
      vertex 23.8528 3.8617 5
      vertex 28.684 0.120615 5
      vertex 28.8452 0.187384 5
    endloop
  endfacet
  facet normal 0 0 1
    outer loop
      vertex 23.7144 3.96791 5
      vertex 28.684 0.120615 5
      vertex 23.8528 3.8617 5
    endloop
  endfacet
  facet normal 0 0 1
    outer loop
      vertex 23.7144 3.96791 5
      vertex 28.5176 0.068148 5
      vertex 28.684 0.120615 5
    endloop
  endfacet
  facet normal 0 0 1
    outer loop
      vertex 23.7144 3.96791 5
      vertex 28.3473 0.030384 5
      vertex 28.5176 0.068148 5
    endloop
  endfacet
  facet normal 0 0 1
    outer loop
      vertex 23.7144 3.96791 5
      vertex 28.1743 0.007611 5
      vertex 28.3473 0.030384 5
    endloop
  endfacet
  facet normal 0 0 1
    outer loop
      vertex 23.7144 3.96791 5
      vertex 28 0 5
      vertex 28.1743 0.007611 5
    endloop
  endfacet
  facet normal 0 0 1
    outer loop
      vertex 15.9986 11 5
      vertex 28 0 5
      vertex 23.7144 3.96791 5
    endloop
  endfacet
  facet normal 0 0 1
    outer loop
      vertex 15.9986 11 5
      vertex 15.9986 2.22045e-19 5
      vertex 28 0 5
    endloop
  endfacet
  facet normal -0.999048 0.0436218 0
    outer loop
      vertex 0.007611 9.17431 5
      vertex 0.007611 9.17431 0
      vertex 0 9 5
    endloop
  endfacet
  facet normal -0.999048 0.0436218 0
    outer loop
      vertex 0 9 5
      vertex 0.007611 9.17431 0
      vertex 0 9 0
    endloop
  endfacet
  facet normal -0.991446 -0.130521 0
    outer loop
      vertex 0.030384 1.6527 5
      vertex 0.007611 1.82569 5
      vertex 0.030384 1.6527 0
    endloop
  endfacet
  facet normal -0.991446 -0.130521 0
    outer loop
      vertex 0.030384 1.6527 0
      vertex 0.007611 1.82569 5
      vertex 0.007611 1.82569 0
    endloop
  endfacet
  facet normal -0.976296 -0.21644 0
    outer loop
      vertex 0.068148 1.48236 5
      vertex 0.030384 1.6527 5
      vertex 0.068148 1.48236 0
    endloop
  endfacet
  facet normal -0.976296 -0.21644 0
    outer loop
      vertex 0.068148 1.48236 0
      vertex 0.030384 1.6527 5
      vertex 0.030384 1.6527 0
    endloop
  endfacet
  facet normal -0.953716 -0.300709 0
    outer loop
      vertex 0.120615 1.31596 5
      vertex 0.068148 1.48236 5
      vertex 0.120615 1.31596 0
    endloop
  endfacet
  facet normal -0.953716 -0.300709 0
    outer loop
      vertex 0.120615 1.31596 0
      vertex 0.068148 1.48236 5
      vertex 0.068148 1.48236 0
    endloop
  endfacet
  facet normal -0.923882 -0.382679 0
    outer loop
      vertex 0.187384 1.15476 5
      vertex 0.120615 1.31596 5
      vertex 0.187384 1.15476 0
    endloop
  endfacet
  facet normal -0.923882 -0.382679 0
    outer loop
      vertex 0.187384 1.15476 0
      vertex 0.120615 1.31596 5
      vertex 0.120615 1.31596 0
    endloop
  endfacet
  facet normal -0.88701 -0.461751 0
    outer loop
      vertex 0.267949 1 5
      vertex 0.187384 1.15476 5
      vertex 0.267949 1 0
    endloop
  endfacet
  facet normal -0.88701 -0.461751 0
    outer loop
      vertex 0.267949 1 0
      vertex 0.187384 1.15476 5
      vertex 0.187384 1.15476 0
    endloop
  endfacet
  facet normal -0.843391 -0.5373 0
    outer loop
      vertex 0.361696 0.852847 5
      vertex 0.267949 1 5
      vertex 0.361696 0.852847 0
    endloop
  endfacet
  facet normal -0.843391 -0.5373 0
    outer loop
      vertex 0.361696 0.852847 0
      vertex 0.267949 1 5
      vertex 0.267949 1 0
    endloop
  endfacet
  facet normal -0.793353 -0.608762 0
    outer loop
      vertex 0.467911 0.714425 5
      vertex 0.361696 0.852847 5
      vertex 0.467911 0.714425 0
    endloop
  endfacet
  facet normal -0.793353 -0.608762 0
    outer loop
      vertex 0.467911 0.714425 0
      vertex 0.361696 0.852847 5
      vertex 0.361696 0.852847 0
    endloop
  endfacet
  facet normal -0.73728 -0.675587 0
    outer loop
      vertex 0.585786 0.585786 5
      vertex 0.467911 0.714425 5
      vertex 0.585786 0.585786 0
    endloop
  endfacet
  facet normal -0.73728 -0.675587 0
    outer loop
      vertex 0.585786 0.585786 0
      vertex 0.467911 0.714425 5
      vertex 0.467911 0.714425 0
    endloop
  endfacet
  facet normal -0.675587 -0.73728 0
    outer loop
      vertex 0.714425 0.467911 0
      vertex 0.714425 0.467911 5
      vertex 0.585786 0.585786 5
    endloop
  endfacet
  facet normal -0.675587 -0.73728 0
    outer loop
      vertex 0.585786 0.585786 0
      vertex 0.714425 0.467911 0
      vertex 0.585786 0.585786 5
    endloop
  endfacet
  facet normal -0.608762 -0.793353 0
    outer loop
      vertex 0.852847 0.361696 0
      vertex 0.852847 0.361696 5
      vertex 0.714425 0.467911 5
    endloop
  endfacet
  facet normal -0.608762 -0.793353 0
    outer loop
      vertex 0.714425 0.467911 0
      vertex 0.852847 0.361696 0
      vertex 0.714425 0.467911 5
    endloop
  endfacet
  facet normal -0.5373 -0.843391 0
    outer loop
      vertex 1 0.267949 0
      vertex 1 0.267949 5
      vertex 0.852847 0.361696 5
    endloop
  endfacet
  facet normal -0.5373 -0.843391 0
    outer loop
      vertex 0.852847 0.361696 0
      vertex 1 0.267949 0
      vertex 0.852847 0.361696 5
    endloop
  endfacet
  facet normal -0.461751 -0.88701 0
    outer loop
      vertex 1.15476 0.187384 0
      vertex 1.15476 0.187384 5
      vertex 1 0.267949 5
    endloop
  endfacet
  facet normal -0.461751 -0.88701 0
    outer loop
      vertex 1 0.267949 0
      vertex 1.15476 0.187384 0
      vertex 1 0.267949 5
    endloop
  endfacet
  facet normal -0.382679 -0.923882 0
    outer loop
      vertex 1.31596 0.120615 0
      vertex 1.31596 0.120615 5
      vertex 1.15476 0.187384 5
    endloop
  endfacet
  facet normal -0.382679 -0.923882 0
    outer loop
      vertex 1.15476 0.187384 0
      vertex 1.31596 0.120615 0
      vertex 1.15476 0.187384 5
    endloop
  endfacet
  facet normal -0.300709 -0.953716 0
    outer loop
      vertex 1.48236 0.068148 0
      vertex 1.48236 0.068148 5
      vertex 1.31596 0.120615 5
    endloop
  endfacet
  facet normal -0.300709 -0.953716 0
    outer loop
      vertex 1.31596 0.120615 0
      vertex 1.48236 0.068148 0
      vertex 1.31596 0.120615 5
    endloop
  endfacet
  facet normal -0.21644 -0.976296 0
    outer loop
      vertex 1.6527 0.030384 0
      vertex 1.6527 0.030384 5
      vertex 1.48236 0.068148 5
    endloop
  endfacet
  facet normal -0.21644 -0.976296 0
    outer loop
      vertex 1.48236 0.068148 0
      vertex 1.6527 0.030384 0
      vertex 1.48236 0.068148 5
    endloop
  endfacet
  facet normal -0.130521 -0.991446 0
    outer loop
      vertex 1.82569 0.007611 0
      vertex 1.82569 0.007611 5
      vertex 1.6527 0.030384 5
    endloop
  endfacet
  facet normal -0.130521 -0.991446 0
    outer loop
      vertex 1.6527 0.030384 0
      vertex 1.82569 0.007611 0
      vertex 1.6527 0.030384 5
    endloop
  endfacet
  facet normal -0.0436218 -0.999048 0
    outer loop
      vertex 2 0 0
      vertex 2 0 5
      vertex 1.82569 0.007611 5
    endloop
  endfacet
  facet normal -0.0436218 -0.999048 0
    outer loop
      vertex 1.82569 0.007611 0
      vertex 2 0 0
      vertex 1.82569 0.007611 5
    endloop
  endfacet
  facet normal 0 -1 0
    outer loop
      vertex 28 0 0
      vertex 28 0 5
      vertex 2 0 5
    endloop
  endfacet
  facet normal 0 -1 0
    outer loop
      vertex 2 0 0
      vertex 28 0 0
      vertex 2 0 5
    endloop
  endfacet
  facet normal 0.0436218 -0.999048 0
    outer loop
      vertex 28.1743 0.007611 0
      vertex 28.1743 0.007611 5
      vertex 28 0 5
    endloop
  endfacet
  facet normal 0.0436218 -0.999048 0
    outer loop
      vertex 28 0 0
      vertex 28.1743 0.007611 0
      vertex 28 0 5
    endloop
  endfacet
  facet normal 0.130521 -0.991446 0
    outer loop
      vertex 28.3473 0.030384 0
      vertex 28.3473 0.030384 5
      vertex 28.1743 0.007611 5
    endloop
  endfacet
  facet normal 0.130521 -0.991446 0
    outer loop
      vertex 28.1743 0.007611 0
      vertex 28.3473 0.030384 0
      vertex 28.1743 0.007611 5
    endloop
  endfacet
  facet normal 0.21644 -0.976296 0
    outer loop
      vertex 28.5176 0.068148 0
      vertex 28.5176 0.068148 5
      vertex 28.3473 0.030384 5
    endloop
  endfacet
  facet normal 0.21644 -0.976296 0
    outer loop
      vertex 28.3473 0.030384 0
      vertex 28.5176 0.068148 0
      vertex 28.3473 0.030384 5
    endloop
  endfacet
  facet normal 0.300709 -0.953716 0
    outer loop
      vertex 28.684 0.120615 0
      vertex 28.684 0.120615 5
      vertex 28.5176 0.068148 5
    endloop
  endfacet
  facet normal 0.300709 -0.953716 0
    outer loop
      vertex 28.5176 0.068148 0
      vertex 28.684 0.120615 0
      vertex 28.5176 0.068148 5
    endloop
  endfacet
  facet normal 0.382679 -0.923882 0
    outer loop
      vertex 28.8452 0.187384 0
      vertex 28.8452 0.187384 5
      vertex 28.684 0.120615 5
    endloop
  endfacet
  facet normal 0.382679 -0.923882 0
    outer loop
      vertex 28.684 0.120615 0
      vertex 28.8452 0.187384 0
      vertex 28.684 0.120615 5
    endloop
  endfacet
  facet normal 0.461751 -0.88701 0
    outer loop
      vertex 29 0.267949 0
      vertex 29 0.267949 5
      vertex 28.8452 0.187384 5
    endloop
  endfacet
  facet normal 0.461751 -0.88701 0
    outer loop
      vertex 28.8452 0.187384 0
      vertex 29 0.267949 0
      vertex 28.8452 0.187384 5
    endloop
  endfacet
  facet normal 0.5373 -0.843391 0
    outer loop
      vertex 29.1472 0.361696 0
      vertex 29.1472 0.361696 5
      vertex 29 0.267949 5
    endloop
  endfacet
  facet normal 0.5373 -0.843391 0
    outer loop
      vertex 29 0.267949 0
      vertex 29.1472 0.361696 0
      vertex 29 0.267949 5
    endloop
  endfacet
  facet normal 0.608762 -0.793353 0
    outer loop
      vertex 29.2856 0.467911 0
      vertex 29.2856 0.467911 5
      vertex 29.1472 0.361696 5
    endloop
  endfacet
  facet normal 0.608762 -0.793353 0
    outer loop
      vertex 29.1472 0.361696 0
      vertex 29.2856 0.467911 0
      vertex 29.1472 0.361696 5
    endloop
  endfacet
  facet normal 0.675587 -0.73728 0
    outer loop
      vertex 29.4142 0.585786 0
      vertex 29.4142 0.585786 5
      vertex 29.2856 0.467911 5
    endloop
  endfacet
  facet normal 0.675587 -0.73728 0
    outer loop
      vertex 29.2856 0.467911 0
      vertex 29.4142 0.585786 0
      vertex 29.2856 0.467911 5
    endloop
  endfacet
  facet normal 0.73728 -0.675587 0
    outer loop
      vertex 29.5321 0.714425 0
      vertex 29.5321 0.714425 5
      vertex 29.4142 0.585786 5
    endloop
  endfacet
  facet normal 0.73728 -0.675587 0
    outer loop
      vertex 29.4142 0.585786 0
      vertex 29.5321 0.714425 0
      vertex 29.4142 0.585786 5
    endloop
  endfacet
  facet normal 0.793353 -0.608762 0
    outer loop
      vertex 29.6383 0.852847 0
      vertex 29.6383 0.852847 5
      vertex 29.5321 0.714425 5
    endloop
  endfacet
  facet normal 0.793353 -0.608762 0
    outer loop
      vertex 29.5321 0.714425 0
      vertex 29.6383 0.852847 0
      vertex 29.5321 0.714425 5
    endloop
  endfacet
  facet normal 0.843391 -0.5373 0
    outer loop
      vertex 29.7321 1 0
      vertex 29.7321 1 5
      vertex 29.6383 0.852847 5
    endloop
  endfacet
  facet normal 0.843391 -0.5373 0
    outer loop
      vertex 29.6383 0.852847 0
      vertex 29.7321 1 0
      vertex 29.6383 0.852847 5
    endloop
  endfacet
  facet normal 0.88701 -0.461751 0
    outer loop
      vertex 29.8126 1.15476 0
      vertex 29.8126 1.15476 5
      vertex 29.7321 1 5
    endloop
  endfacet
  facet normal 0.88701 -0.461751 0
    outer loop
      vertex 29.7321 1 0
      vertex 29.8126 1.15476 0
      vertex 29.7321 1 5
    endloop
  endfacet
  facet normal 0.923882 -0.382679 0
    outer loop
      vertex 29.8794 1.31596 0
      vertex 29.8794 1.31596 5
      vertex 29.8126 1.15476 5
    endloop
  endfacet
  facet normal 0.923882 -0.382679 0
    outer loop
      vertex 29.8126 1.15476 0
      vertex 29.8794 1.31596 0
      vertex 29.8126 1.15476 5
    endloop
  endfacet
  facet normal 0.953716 -0.300709 0
    outer loop
      vertex 29.9319 1.48236 0
      vertex 29.9319 1.48236 5
      vertex 29.8794 1.31596 5
    endloop
  endfacet
  facet normal 0.953716 -0.300709 0
    outer loop
      vertex 29.8794 1.31596 0
      vertex 29.9319 1.48236 0
      vertex 29.8794 1.31596 5
    endloop
  endfacet
  facet normal 0.976296 -0.21644 0
    outer loop
      vertex 29.9696 1.6527 0
      vertex 29.9696 1.6527 5
      vertex 29.9319 1.48236 5
    endloop
  endfacet
  facet normal 0.976296 -0.21644 0
    outer loop
      vertex 29.9319 1.48236 0
      vertex 29.9696 1.6527 0
      vertex 29.9319 1.48236 5
    endloop
  endfacet
  facet normal 0.991446 -0.130521 0
    outer loop
      vertex 29.9924 1.82569 0
      vertex 29.9924 1.82569 5
      vertex 29.9696 1.6527 5
    endloop
  endfacet
  facet normal 0.991446 -0.130521 0
    outer loop
      vertex 29.9696 1.6527 0
      vertex 29.9924 1.82569 0
      vertex 29.9696 1.6527 5
    endloop
  endfacet
  facet normal 0.999048 -0.0436218 0
    outer loop
      vertex 30 2 0
      vertex 30 2 5
      vertex 29.9924 1.82569 5
    endloop
  endfacet
  facet normal 0.999048 -0.0436218 0
    outer loop
      vertex 29.9924 1.82569 0
      vertex 30 2 0
      vertex 29.9924 1.82569 5
    endloop
  endfacet
  facet normal 1 0 0
    outer loop
      vertex 30 9 0
      vertex 30 9 5
      vertex 30 2 5
    endloop
  endfacet
  facet normal 1 0 0
    outer loop
      vertex 30 2 0
      vertex 30 9 0
      vertex 30 2 5
    endloop
  endfacet
  facet normal 0.999048 0.0436218 0
    outer loop
      vertex 29.9924 9.17431 5
      vertex 30 9 5
      vertex 30 9 0
    endloop
  endfacet
  facet normal 0.999048 0.0436218 0
    outer loop
      vertex 29.9924 9.17431 0
      vertex 29.9924 9.17431 5
      vertex 30 9 0
    endloop
  endfacet
  facet normal 0.991446 0.130521 0
    outer loop
      vertex 29.9696 9.3473 5
      vertex 29.9924 9.17431 5
      vertex 29.9924 9.17431 0
    endloop
  endfacet
  facet normal 0.991446 0.130521 0
    outer loop
      vertex 29.9696 9.3473 0
      vertex 29.9696 9.3473 5
      vertex 29.9924 9.17431 0
    endloop
  endfacet
  facet normal 0.976296 0.21644 0
    outer loop
      vertex 29.9319 9.51764 5
      vertex 29.9696 9.3473 5
      vertex 29.9696 9.3473 0
    endloop
  endfacet
  facet normal 0.976296 0.21644 0
    outer loop
      vertex 29.9319 9.51764 0
      vertex 29.9319 9.51764 5
      vertex 29.9696 9.3473 0
    endloop
  endfacet
  facet normal 0.953716 0.300709 0
    outer loop
      vertex 29.8794 9.68404 5
      vertex 29.9319 9.51764 5
      vertex 29.9319 9.51764 0
    endloop
  endfacet
  facet normal 0.953716 0.300709 0
    outer loop
      vertex 29.8794 9.68404 0
      vertex 29.8794 9.68404 5
      vertex 29.9319 9.51764 0
    endloop
  endfacet
  facet normal 0.923882 0.382679 0
    outer loop
      vertex 29.8126 9.84524 5
      vertex 29.8794 9.68404 5
      vertex 29.8794 9.68404 0
    endloop
  endfacet
  facet normal 0.923882 0.382679 0
    outer loop
      vertex 29.8126 9.84524 0
      vertex 29.8126 9.84524 5
      vertex 29.8794 9.68404 0
    endloop
  endfacet
  facet normal 0.88701 0.461751 0
    outer loop
      vertex 29.7321 10 5
      vertex 29.8126 9.84524 5
      vertex 29.8126 9.84524 0
    endloop
  endfacet
  facet normal 0.88701 0.461751 0
    outer loop
      vertex 29.7321 10 0
      vertex 29.7321 10 5
      vertex 29.8126 9.84524 0
    endloop
  endfacet
  facet normal 0.843391 0.5373 0
    outer loop
      vertex 29.6383 10.1472 5
      vertex 29.7321 10 5
      vertex 29.7321 10 0
    endloop
  endfacet
  facet normal 0.843391 0.5373 0
    outer loop
      vertex 29.6383 10.1472 0
      vertex 29.6383 10.1472 5
      vertex 29.7321 10 0
    endloop
  endfacet
  facet normal 0.793353 0.608762 0
    outer loop
      vertex 29.5321 10.2856 5
      vertex 29.6383 10.1472 5
      vertex 29.6383 10.1472 0
    endloop
  endfacet
  facet normal 0.793353 0.608762 0
    outer loop
      vertex 29.5321 10.2856 0
      vertex 29.5321 10.2856 5
      vertex 29.6383 10.1472 0
    endloop
  endfacet
  facet normal 0.73728 0.675587 0
    outer loop
      vertex 29.4142 10.4142 5
      vertex 29.5321 10.2856 5
      vertex 29.5321 10.2856 0
    endloop
  endfacet
  facet normal 0.73728 0.675587 0
    outer loop
      vertex 29.4142 10.4142 0
      vertex 29.4142 10.4142 5
      vertex 29.5321 10.2856 0
    endloop
  endfacet
  facet normal 0.675587 0.73728 0
    outer loop
      vertex 29.4142 10.4142 5
      vertex 29.4142 10.4142 0
      vertex 29.2856 10.5321 5
    endloop
  endfacet
  facet normal 0.675587 0.73728 0
    outer loop
      vertex 29.2856 10.5321 5
      vertex 29.4142 10.4142 0
      vertex 29.2856 10.5321 0
    endloop
  endfacet
  facet normal 0.608762 0.793353 0
    outer loop
      vertex 29.2856 10.5321 5
      vertex 29.2856 10.5321 0
      vertex 29.1472 10.6383 5
    endloop
  endfacet
  facet normal 0.608762 0.793353 0
    outer loop
      vertex 29.1472 10.6383 5
      vertex 29.2856 10.5321 0
      vertex 29.1472 10.6383 0
    endloop
  endfacet
  facet normal 0.5373 0.843391 0
    outer loop
      vertex 29.1472 10.6383 5
      vertex 29.1472 10.6383 0
      vertex 29 10.7321 5
    endloop
  endfacet
  facet normal 0.5373 0.843391 0
    outer loop
      vertex 29 10.7321 5
      vertex 29.1472 10.6383 0
      vertex 29 10.7321 0
    endloop
  endfacet
  facet normal 0.461751 0.88701 0
    outer loop
      vertex 29 10.7321 5
      vertex 29 10.7321 0
      vertex 28.8452 10.8126 5
    endloop
  endfacet
  facet normal 0.461751 0.88701 0
    outer loop
      vertex 28.8452 10.8126 5
      vertex 29 10.7321 0
      vertex 28.8452 10.8126 0
    endloop
  endfacet
  facet normal 0.382679 0.923882 0
    outer loop
      vertex 28.8452 10.8126 5
      vertex 28.8452 10.8126 0
      vertex 28.684 10.8794 5
    endloop
  endfacet
  facet normal 0.382679 0.923882 0
    outer loop
      vertex 28.684 10.8794 5
      vertex 28.8452 10.8126 0
      vertex 28.684 10.8794 0
    endloop
  endfacet
  facet normal 0.300709 0.953716 0
    outer loop
      vertex 28.684 10.8794 5
      vertex 28.684 10.8794 0
      vertex 28.5176 10.9319 5
    endloop
  endfacet
  facet normal 0.300709 0.953716 0
    outer loop
      vertex 28.5176 10.9319 5
      vertex 28.684 10.8794 0
      vertex 28.5176 10.9319 0
    endloop
  endfacet
  facet normal 0.21644 0.976296 0
    outer loop
      vertex 28.5176 10.9319 5
      vertex 28.5176 10.9319 0
      vertex 28.3473 10.9696 5
    endloop
  endfacet
  facet normal 0.21644 0.976296 0
    outer loop
      vertex 28.3473 10.9696 5
      vertex 28.5176 10.9319 0
      vertex 28.3473 10.9696 0
    endloop
  endfacet
  facet normal 0.130521 0.991446 0
    outer loop
      vertex 28.3473 10.9696 5
      vertex 28.3473 10.9696 0
      vertex 28.1743 10.9924 5
    endloop
  endfacet
  facet normal 0.130521 0.991446 0
    outer loop
      vertex 28.1743 10.9924 5
      vertex 28.3473 10.9696 0
      vertex 28.1743 10.9924 0
    endloop
  endfacet
  facet normal 0.0436218 0.999048 0
    outer loop
      vertex 28.1743 10.9924 5
      vertex 28.1743 10.9924 0
      vertex 28 11 5
    endloop
  endfacet
  facet normal 0.0436218 0.999048 0
    outer loop
      vertex 28 11 5
      vertex 28.1743 10.9924 0
      vertex 28 11 0
    endloop
  endfacet
  facet normal 0 1 0
    outer loop
      vertex 7.5 11 5
      vertex 7.5 11 4.999
      vertex 2 11 5
    endloop
  endfacet
  facet normal 0 1 0
    outer loop
      vertex 2 11 5
      vertex 7.5 11 4.999
      vertex 28 11 0
    endloop
  endfacet
  facet normal 0 1 0
    outer loop
      vertex 28 11 5
      vertex 16 11 4.999
      vertex 15.9986 11 5
    endloop
  endfacet
  facet normal 0 1 0
    outer loop
      vertex 28 11 0
      vertex 16 11 4.999
      vertex 28 11 5
    endloop
  endfacet
  facet normal 0 1 0
    outer loop
      vertex 7.5 11 4.999
      vertex 16 11 4.999
      vertex 28 11 0
    endloop
  endfacet
  facet normal 0 1 0
    outer loop
      vertex 2 11 5
      vertex 28 11 0
      vertex 2 11 0
    endloop
  endfacet
  facet normal -0.0436218 0.999048 0
    outer loop
      vertex 2 11 5
      vertex 2 11 0
      vertex 1.82569 10.9924 5
    endloop
  endfacet
  facet normal -0.0436218 0.999048 0
    outer loop
      vertex 1.82569 10.9924 5
      vertex 2 11 0
      vertex 1.82569 10.9924 0
    endloop
  endfacet
  facet normal -0.130521 0.991446 0
    outer loop
      vertex 1.82569 10.9924 5
      vertex 1.82569 10.9924 0
      vertex 1.6527 10.9696 5
    endloop
  endfacet
  facet normal -0.130521 0.991446 0
    outer loop
      vertex 1.6527 10.9696 5
      vertex 1.82569 10.9924 0
      vertex 1.6527 10.9696 0
    endloop
  endfacet
  facet normal -0.21644 0.976296 0
    outer loop
      vertex 1.6527 10.9696 5
      vertex 1.6527 10.9696 0
      vertex 1.48236 10.9319 5
    endloop
  endfacet
  facet normal -0.21644 0.976296 0
    outer loop
      vertex 1.48236 10.9319 5
      vertex 1.6527 10.9696 0
      vertex 1.48236 10.9319 0
    endloop
  endfacet
  facet normal -0.300709 0.953716 0
    outer loop
      vertex 1.48236 10.9319 5
      vertex 1.48236 10.9319 0
      vertex 1.31596 10.8794 5
    endloop
  endfacet
  facet normal -0.300709 0.953716 0
    outer loop
      vertex 1.31596 10.8794 5
      vertex 1.48236 10.9319 0
      vertex 1.31596 10.8794 0
    endloop
  endfacet
  facet normal -0.382679 0.923882 0
    outer loop
      vertex 1.31596 10.8794 5
      vertex 1.31596 10.8794 0
      vertex 1.15476 10.8126 5
    endloop
  endfacet
  facet normal -0.382679 0.923882 0
    outer loop
      vertex 1.15476 10.8126 5
      vertex 1.31596 10.8794 0
      vertex 1.15476 10.8126 0
    endloop
  endfacet
  facet normal -0.461751 0.88701 0
    outer loop
      vertex 1.15476 10.8126 5
      vertex 1.15476 10.8126 0
      vertex 1 10.7321 5
    endloop
  endfacet
  facet normal -0.461751 0.88701 0
    outer loop
      vertex 1 10.7321 5
      vertex 1.15476 10.8126 0
      vertex 1 10.7321 0
    endloop
  endfacet
  facet normal -0.5373 0.843391 0
    outer loop
      vertex 1 10.7321 5
      vertex 1 10.7321 0
      vertex 0.852847 10.6383 5
    endloop
  endfacet
  facet normal -0.5373 0.843391 0
    outer loop
      vertex 0.852847 10.6383 5
      vertex 1 10.7321 0
      vertex 0.852847 10.6383 0
    endloop
  endfacet
  facet normal -0.608762 0.793353 0
    outer loop
      vertex 0.852847 10.6383 5
      vertex 0.852847 10.6383 0
      vertex 0.714425 10.5321 5
    endloop
  endfacet
  facet normal -0.608762 0.793353 0
    outer loop
      vertex 0.714425 10.5321 5
      vertex 0.852847 10.6383 0
      vertex 0.714425 10.5321 0
    endloop
  endfacet
  facet normal -0.675587 0.73728 0
    outer loop
      vertex 0.714425 10.5321 5
      vertex 0.714425 10.5321 0
      vertex 0.585786 10.4142 5
    endloop
  endfacet
  facet normal -0.675587 0.73728 0
    outer loop
      vertex 0.585786 10.4142 5
      vertex 0.714425 10.5321 0
      vertex 0.585786 10.4142 0
    endloop
  endfacet
  facet normal -0.73728 0.675587 0
    outer loop
      vertex 0.585786 10.4142 5
      vertex 0.585786 10.4142 0
      vertex 0.467911 10.2856 5
    endloop
  endfacet
  facet normal -0.73728 0.675587 0
    outer loop
      vertex 0.467911 10.2856 5
      vertex 0.585786 10.4142 0
      vertex 0.467911 10.2856 0
    endloop
  endfacet
  facet normal -0.793353 0.608762 0
    outer loop
      vertex 0.467911 10.2856 5
      vertex 0.467911 10.2856 0
      vertex 0.361696 10.1472 5
    endloop
  endfacet
  facet normal -0.793353 0.608762 0
    outer loop
      vertex 0.361696 10.1472 5
      vertex 0.467911 10.2856 0
      vertex 0.361696 10.1472 0
    endloop
  endfacet
  facet normal -0.843391 0.5373 0
    outer loop
      vertex 0.361696 10.1472 5
      vertex 0.361696 10.1472 0
      vertex 0.267949 10 5
    endloop
  endfacet
  facet normal -0.843391 0.5373 0
    outer loop
      vertex 0.267949 10 5
      vertex 0.361696 10.1472 0
      vertex 0.267949 10 0
    endloop
  endfacet
  facet normal -0.88701 0.461751 0
    outer loop
      vertex 0.267949 10 5
      vertex 0.267949 10 0
      vertex 0.187384 9.84524 5
    endloop
  endfacet
  facet normal -0.88701 0.461751 0
    outer loop
      vertex 0.187384 9.84524 5
      vertex 0.267949 10 0
      vertex 0.187384 9.84524 0
    endloop
  endfacet
  facet normal -0.923882 0.382679 0
    outer loop
      vertex 0.187384 9.84524 5
      vertex 0.187384 9.84524 0
      vertex 0.120615 9.68404 5
    endloop
  endfacet
  facet normal -0.923882 0.382679 0
    outer loop
      vertex 0.120615 9.68404 5
      vertex 0.187384 9.84524 0
      vertex 0.120615 9.68404 0
    endloop
  endfacet
  facet normal -0.953716 0.300709 0
    outer loop
      vertex 0.120615 9.68404 5
      vertex 0.120615 9.68404 0
      vertex 0.068148 9.51764 5
    endloop
  endfacet
  facet normal -0.953716 0.300709 0
    outer loop
      vertex 0.068148 9.51764 5
      vertex 0.120615 9.68404 0
      vertex 0.068148 9.51764 0
    endloop
  endfacet
  facet normal -0.976296 0.21644 0
    outer loop
      vertex 0.068148 9.51764 5
      vertex 0.068148 9.51764 0
      vertex 0.030384 9.3473 5
    endloop
  endfacet
  facet normal -0.976296 0.21644 0
    outer loop
      vertex 0.030384 9.3473 5
      vertex 0.068148 9.51764 0
      vertex 0.030384 9.3473 0
    endloop
  endfacet
  facet normal -0.991446 0.130521 0
    outer loop
      vertex 0.030384 9.3473 5
      vertex 0.030384 9.3473 0
      vertex 0.007611 9.17431 5
    endloop
  endfacet
  facet normal -0.991446 0.130521 0
    outer loop
      vertex 0.007611 9.17431 5
      vertex 0.030384 9.3473 0
      vertex 0.007611 9.17431 0
    endloop
  endfacet
  facet normal 0.999048 0.0436218 0
    outer loop
      vertex 23 5.5 5
      vertex 23.0076 5.32569 5
      vertex 23.0076 5.32569 0
    endloop
  endfacet
  facet normal 0.999048 0.0436218 0
    outer loop
      vertex 23 5.5 0
      vertex 23 5.5 5
      vertex 23.0076 5.32569 0
    endloop
  endfacet
  facet normal 0.991446 0.130521 0
    outer loop
      vertex 23.0076 5.32569 5
      vertex 23.0304 5.1527 5
      vertex 23.0304 5.1527 0
    endloop
  endfacet
  facet normal 0.991446 0.130521 0
    outer loop
      vertex 23.0076 5.32569 0
      vertex 23.0076 5.32569 5
      vertex 23.0304 5.1527 0
    endloop
  endfacet
  facet normal 0.999048 -0.0436218 0
    outer loop
      vertex 23.0076 5.67431 0
      vertex 23.0076 5.67431 5
      vertex 23 5.5 5
    endloop
  endfacet
  facet normal 0.999048 -0.0436218 0
    outer loop
      vertex 23 5.5 0
      vertex 23.0076 5.67431 0
      vertex 23 5.5 5
    endloop
  endfacet
  facet normal 0.991446 -0.130521 0
    outer loop
      vertex 23.0304 5.8473 0
      vertex 23.0304 5.8473 5
      vertex 23.0076 5.67431 5
    endloop
  endfacet
  facet normal 0.991446 -0.130521 0
    outer loop
      vertex 23.0076 5.67431 0
      vertex 23.0304 5.8473 0
      vertex 23.0076 5.67431 5
    endloop
  endfacet
  facet normal 0.976296 -0.21644 0
    outer loop
      vertex 23.0681 6.01764 0
      vertex 23.0681 6.01764 5
      vertex 23.0304 5.8473 5
    endloop
  endfacet
  facet normal 0.976296 -0.21644 0
    outer loop
      vertex 23.0304 5.8473 0
      vertex 23.0681 6.01764 0
      vertex 23.0304 5.8473 5
    endloop
  endfacet
  facet normal 0.953716 -0.300709 0
    outer loop
      vertex 23.1206 6.18404 0
      vertex 23.1206 6.18404 5
      vertex 23.0681 6.01764 5
    endloop
  endfacet
  facet normal 0.953716 -0.300709 0
    outer loop
      vertex 23.0681 6.01764 0
      vertex 23.1206 6.18404 0
      vertex 23.0681 6.01764 5
    endloop
  endfacet
  facet normal 0.923882 -0.382679 0
    outer loop
      vertex 23.1874 6.34524 0
      vertex 23.1874 6.34524 5
      vertex 23.1206 6.18404 5
    endloop
  endfacet
  facet normal 0.923882 -0.382679 0
    outer loop
      vertex 23.1206 6.18404 0
      vertex 23.1874 6.34524 0
      vertex 23.1206 6.18404 5
    endloop
  endfacet
  facet normal 0.88701 -0.461751 0
    outer loop
      vertex 23.2679 6.5 0
      vertex 23.2679 6.5 5
      vertex 23.1874 6.34524 5
    endloop
  endfacet
  facet normal 0.88701 -0.461751 0
    outer loop
      vertex 23.1874 6.34524 0
      vertex 23.2679 6.5 0
      vertex 23.1874 6.34524 5
    endloop
  endfacet
  facet normal 0.843391 -0.5373 0
    outer loop
      vertex 23.3617 6.64715 0
      vertex 23.3617 6.64715 5
      vertex 23.2679 6.5 5
    endloop
  endfacet
  facet normal 0.843391 -0.5373 0
    outer loop
      vertex 23.2679 6.5 0
      vertex 23.3617 6.64715 0
      vertex 23.2679 6.5 5
    endloop
  endfacet
  facet normal 0.793353 -0.608762 0
    outer loop
      vertex 23.4679 6.78557 0
      vertex 23.4679 6.78557 5
      vertex 23.3617 6.64715 5
    endloop
  endfacet
  facet normal 0.793353 -0.608762 0
    outer loop
      vertex 23.3617 6.64715 0
      vertex 23.4679 6.78557 0
      vertex 23.3617 6.64715 5
    endloop
  endfacet
  facet normal 0.73728 -0.675587 0
    outer loop
      vertex 23.5858 6.91421 0
      vertex 23.5858 6.91421 5
      vertex 23.4679 6.78557 5
    endloop
  endfacet
  facet normal 0.73728 -0.675587 0
    outer loop
      vertex 23.4679 6.78557 0
      vertex 23.5858 6.91421 0
      vertex 23.4679 6.78557 5
    endloop
  endfacet
  facet normal 0.675587 -0.73728 0
    outer loop
      vertex 23.7144 7.03209 0
      vertex 23.7144 7.03209 5
      vertex 23.5858 6.91421 5
    endloop
  endfacet
  facet normal 0.675587 -0.73728 0
    outer loop
      vertex 23.5858 6.91421 0
      vertex 23.7144 7.03209 0
      vertex 23.5858 6.91421 5
    endloop
  endfacet
  facet normal 0.608762 -0.793353 0
    outer loop
      vertex 23.8528 7.1383 0
      vertex 23.8528 7.1383 5
      vertex 23.7144 7.03209 5
    endloop
  endfacet
  facet normal 0.608762 -0.793353 0
    outer loop
      vertex 23.7144 7.03209 0
      vertex 23.8528 7.1383 0
      vertex 23.7144 7.03209 5
    endloop
  endfacet
  facet normal 0.5373 -0.843391 0
    outer loop
      vertex 24 7.23205 0
      vertex 24 7.23205 5
      vertex 23.8528 7.1383 5
    endloop
  endfacet
  facet normal 0.5373 -0.843391 0
    outer loop
      vertex 23.8528 7.1383 0
      vertex 24 7.23205 0
      vertex 23.8528 7.1383 5
    endloop
  endfacet
  facet normal 0.461751 -0.88701 0
    outer loop
      vertex 24.1548 7.31262 0
      vertex 24.1548 7.31262 5
      vertex 24 7.23205 5
    endloop
  endfacet
  facet normal 0.461751 -0.88701 0
    outer loop
      vertex 24 7.23205 0
      vertex 24.1548 7.31262 0
      vertex 24 7.23205 5
    endloop
  endfacet
  facet normal 0.382679 -0.923882 0
    outer loop
      vertex 24.316 7.37938 0
      vertex 24.316 7.37938 5
      vertex 24.1548 7.31262 5
    endloop
  endfacet
  facet normal 0.382679 -0.923882 0
    outer loop
      vertex 24.1548 7.31262 0
      vertex 24.316 7.37938 0
      vertex 24.1548 7.31262 5
    endloop
  endfacet
  facet normal 0.300709 -0.953716 0
    outer loop
      vertex 24.4824 7.43185 0
      vertex 24.4824 7.43185 5
      vertex 24.316 7.37938 5
    endloop
  endfacet
  facet normal 0.300709 -0.953716 0
    outer loop
      vertex 24.316 7.37938 0
      vertex 24.4824 7.43185 0
      vertex 24.316 7.37938 5
    endloop
  endfacet
  facet normal 0.21644 -0.976296 0
    outer loop
      vertex 24.6527 7.46962 0
      vertex 24.6527 7.46962 5
      vertex 24.4824 7.43185 5
    endloop
  endfacet
  facet normal 0.21644 -0.976296 0
    outer loop
      vertex 24.4824 7.43185 0
      vertex 24.6527 7.46962 0
      vertex 24.4824 7.43185 5
    endloop
  endfacet
  facet normal 0.130521 -0.991446 0
    outer loop
      vertex 24.8257 7.49239 0
      vertex 24.8257 7.49239 5
      vertex 24.6527 7.46962 5
    endloop
  endfacet
  facet normal 0.130521 -0.991446 0
    outer loop
      vertex 24.6527 7.46962 0
      vertex 24.8257 7.49239 0
      vertex 24.6527 7.46962 5
    endloop
  endfacet
  facet normal 0.0436218 -0.999048 0
    outer loop
      vertex 25 7.5 0
      vertex 25 7.5 5
      vertex 24.8257 7.49239 5
    endloop
  endfacet
  facet normal 0.0436218 -0.999048 0
    outer loop
      vertex 24.8257 7.49239 0
      vertex 25 7.5 0
      vertex 24.8257 7.49239 5
    endloop
  endfacet
  facet normal -0.0436218 -0.999048 0
    outer loop
      vertex 25.1743 7.49239 0
      vertex 25.1743 7.49239 5
      vertex 25 7.5 5
    endloop
  endfacet
  facet normal -0.0436218 -0.999048 0
    outer loop
      vertex 25 7.5 0
      vertex 25.1743 7.49239 0
      vertex 25 7.5 5
    endloop
  endfacet
  facet normal -0.130521 -0.991446 0
    outer loop
      vertex 25.3473 7.46962 0
      vertex 25.3473 7.46962 5
      vertex 25.1743 7.49239 5
    endloop
  endfacet
  facet normal -0.130521 -0.991446 0
    outer loop
      vertex 25.1743 7.49239 0
      vertex 25.3473 7.46962 0
      vertex 25.1743 7.49239 5
    endloop
  endfacet
  facet normal -0.21644 -0.976296 0
    outer loop
      vertex 25.5176 7.43185 0
      vertex 25.5176 7.43185 5
      vertex 25.3473 7.46962 5
    endloop
  endfacet
  facet normal -0.21644 -0.976296 0
    outer loop
      vertex 25.3473 7.46962 0
      vertex 25.5176 7.43185 0
      vertex 25.3473 7.46962 5
    endloop
  endfacet
  facet normal -0.300709 -0.953716 0
    outer loop
      vertex 25.684 7.37938 0
      vertex 25.684 7.37938 5
      vertex 25.5176 7.43185 5
    endloop
  endfacet
  facet normal -0.300709 -0.953716 0
    outer loop
      vertex 25.5176 7.43185 0
      vertex 25.684 7.37938 0
      vertex 25.5176 7.43185 5
    endloop
  endfacet
  facet normal -0.382679 -0.923882 0
    outer loop
      vertex 25.8452 7.31262 0
      vertex 25.8452 7.31262 5
      vertex 25.684 7.37938 5
    endloop
  endfacet
  facet normal -0.382679 -0.923882 0
    outer loop
      vertex 25.684 7.37938 0
      vertex 25.8452 7.31262 0
      vertex 25.684 7.37938 5
    endloop
  endfacet
  facet normal -0.461751 -0.88701 0
    outer loop
      vertex 26 7.23205 0
      vertex 26 7.23205 5
      vertex 25.8452 7.31262 5
    endloop
  endfacet
  facet normal -0.461751 -0.88701 0
    outer loop
      vertex 25.8452 7.31262 0
      vertex 26 7.23205 0
      vertex 25.8452 7.31262 5
    endloop
  endfacet
  facet normal -0.5373 -0.843391 0
    outer loop
      vertex 26.1472 7.1383 0
      vertex 26.1472 7.1383 5
      vertex 26 7.23205 5
    endloop
  endfacet
  facet normal -0.5373 -0.843391 0
    outer loop
      vertex 26 7.23205 0
      vertex 26.1472 7.1383 0
      vertex 26 7.23205 5
    endloop
  endfacet
  facet normal -0.608762 -0.793353 0
    outer loop
      vertex 26.2856 7.03209 0
      vertex 26.2856 7.03209 5
      vertex 26.1472 7.1383 5
    endloop
  endfacet
  facet normal -0.608762 -0.793353 0
    outer loop
      vertex 26.1472 7.1383 0
      vertex 26.2856 7.03209 0
      vertex 26.1472 7.1383 5
    endloop
  endfacet
  facet normal -0.675587 -0.73728 0
    outer loop
      vertex 26.4142 6.91421 0
      vertex 26.4142 6.91421 5
      vertex 26.2856 7.03209 5
    endloop
  endfacet
  facet normal -0.675587 -0.73728 0
    outer loop
      vertex 26.2856 7.03209 0
      vertex 26.4142 6.91421 0
      vertex 26.2856 7.03209 5
    endloop
  endfacet
  facet normal -0.73728 -0.675587 0
    outer loop
      vertex 26.5321 6.78557 5
      vertex 26.4142 6.91421 5
      vertex 26.5321 6.78557 0
    endloop
  endfacet
  facet normal -0.73728 -0.675587 0
    outer loop
      vertex 26.5321 6.78557 0
      vertex 26.4142 6.91421 5
      vertex 26.4142 6.91421 0
    endloop
  endfacet
  facet normal -0.793353 -0.608762 0
    outer loop
      vertex 26.6383 6.64715 5
      vertex 26.5321 6.78557 5
      vertex 26.6383 6.64715 0
    endloop
  endfacet
  facet normal -0.793353 -0.608762 0
    outer loop
      vertex 26.6383 6.64715 0
      vertex 26.5321 6.78557 5
      vertex 26.5321 6.78557 0
    endloop
  endfacet
  facet normal -0.843391 -0.5373 0
    outer loop
      vertex 26.7321 6.5 5
      vertex 26.6383 6.64715 5
      vertex 26.7321 6.5 0
    endloop
  endfacet
  facet normal -0.843391 -0.5373 0
    outer loop
      vertex 26.7321 6.5 0
      vertex 26.6383 6.64715 5
      vertex 26.6383 6.64715 0
    endloop
  endfacet
  facet normal -0.88701 -0.461751 0
    outer loop
      vertex 26.8126 6.34524 5
      vertex 26.7321 6.5 5
      vertex 26.8126 6.34524 0
    endloop
  endfacet
  facet normal -0.88701 -0.461751 0
    outer loop
      vertex 26.8126 6.34524 0
      vertex 26.7321 6.5 5
      vertex 26.7321 6.5 0
    endloop
  endfacet
  facet normal -0.923882 -0.382679 0
    outer loop
      vertex 26.8794 6.18404 5
      vertex 26.8126 6.34524 5
      vertex 26.8794 6.18404 0
    endloop
  endfacet
  facet normal -0.923882 -0.382679 0
    outer loop
      vertex 26.8794 6.18404 0
      vertex 26.8126 6.34524 5
      vertex 26.8126 6.34524 0
    endloop
  endfacet
  facet normal -0.953716 -0.300709 0
    outer loop
      vertex 26.9319 6.01764 5
      vertex 26.8794 6.18404 5
      vertex 26.9319 6.01764 0
    endloop
  endfacet
  facet normal -0.953716 -0.300709 0
    outer loop
      vertex 26.9319 6.01764 0
      vertex 26.8794 6.18404 5
      vertex 26.8794 6.18404 0
    endloop
  endfacet
  facet normal -0.976296 -0.21644 0
    outer loop
      vertex 26.9696 5.8473 5
      vertex 26.9319 6.01764 5
      vertex 26.9696 5.8473 0
    endloop
  endfacet
  facet normal -0.976296 -0.21644 0
    outer loop
      vertex 26.9696 5.8473 0
      vertex 26.9319 6.01764 5
      vertex 26.9319 6.01764 0
    endloop
  endfacet
  facet normal -0.991446 -0.130521 0
    outer loop
      vertex 26.9924 5.67431 5
      vertex 26.9696 5.8473 5
      vertex 26.9924 5.67431 0
    endloop
  endfacet
  facet normal -0.991446 -0.130521 0
    outer loop
      vertex 26.9924 5.67431 0
      vertex 26.9696 5.8473 5
      vertex 26.9696 5.8473 0
    endloop
  endfacet
  facet normal -0.999048 -0.0436218 0
    outer loop
      vertex 27 5.5 5
      vertex 26.9924 5.67431 5
      vertex 27 5.5 0
    endloop
  endfacet
  facet normal -0.999048 -0.0436218 0
    outer loop
      vertex 27 5.5 0
      vertex 26.9924 5.67431 5
      vertex 26.9924 5.67431 0
    endloop
  endfacet
  facet normal -0.999048 0.0436218 0
    outer loop
      vertex 27 5.5 5
      vertex 27 5.5 0
      vertex 26.9924 5.32569 5
    endloop
  endfacet
  facet normal -0.999048 0.0436218 0
    outer loop
      vertex 26.9924 5.32569 5
      vertex 27 5.5 0
      vertex 26.9924 5.32569 0
    endloop
  endfacet
  facet normal -0.991446 0.130521 0
    outer loop
      vertex 26.9924 5.32569 5
      vertex 26.9924 5.32569 0
      vertex 26.9696 5.1527 5
    endloop
  endfacet
  facet normal -0.991446 0.130521 0
    outer loop
      vertex 26.9696 5.1527 5
      vertex 26.9924 5.32569 0
      vertex 26.9696 5.1527 0
    endloop
  endfacet
  facet normal -0.976296 0.21644 0
    outer loop
      vertex 26.9696 5.1527 5
      vertex 26.9696 5.1527 0
      vertex 26.9319 4.98236 5
    endloop
  endfacet
  facet normal -0.976296 0.21644 0
    outer loop
      vertex 26.9319 4.98236 5
      vertex 26.9696 5.1527 0
      vertex 26.9319 4.98236 0
    endloop
  endfacet
  facet normal -0.953716 0.300709 0
    outer loop
      vertex 26.9319 4.98236 5
      vertex 26.9319 4.98236 0
      vertex 26.8794 4.81596 5
    endloop
  endfacet
  facet normal -0.953716 0.300709 0
    outer loop
      vertex 26.8794 4.81596 5
      vertex 26.9319 4.98236 0
      vertex 26.8794 4.81596 0
    endloop
  endfacet
  facet normal -0.923882 0.382679 0
    outer loop
      vertex 26.8794 4.81596 5
      vertex 26.8794 4.81596 0
      vertex 26.8126 4.65476 5
    endloop
  endfacet
  facet normal -0.923882 0.382679 0
    outer loop
      vertex 26.8126 4.65476 5
      vertex 26.8794 4.81596 0
      vertex 26.8126 4.65476 0
    endloop
  endfacet
  facet normal -0.88701 0.461751 0
    outer loop
      vertex 26.8126 4.65476 5
      vertex 26.8126 4.65476 0
      vertex 26.7321 4.5 5
    endloop
  endfacet
  facet normal -0.88701 0.461751 0
    outer loop
      vertex 26.7321 4.5 5
      vertex 26.8126 4.65476 0
      vertex 26.7321 4.5 0
    endloop
  endfacet
  facet normal -0.843391 0.5373 0
    outer loop
      vertex 26.7321 4.5 5
      vertex 26.7321 4.5 0
      vertex 26.6383 4.35285 5
    endloop
  endfacet
  facet normal -0.843391 0.5373 0
    outer loop
      vertex 26.6383 4.35285 5
      vertex 26.7321 4.5 0
      vertex 26.6383 4.35285 0
    endloop
  endfacet
  facet normal -0.793353 0.608762 0
    outer loop
      vertex 26.6383 4.35285 5
      vertex 26.6383 4.35285 0
      vertex 26.5321 4.21442 5
    endloop
  endfacet
  facet normal -0.793353 0.608762 0
    outer loop
      vertex 26.5321 4.21442 5
      vertex 26.6383 4.35285 0
      vertex 26.5321 4.21442 0
    endloop
  endfacet
  facet normal -0.73728 0.675587 0
    outer loop
      vertex 26.5321 4.21442 5
      vertex 26.5321 4.21442 0
      vertex 26.4142 4.08579 5
    endloop
  endfacet
  facet normal -0.73728 0.675587 0
    outer loop
      vertex 26.4142 4.08579 5
      vertex 26.5321 4.21442 0
      vertex 26.4142 4.08579 0
    endloop
  endfacet
  facet normal -0.675587 0.73728 0
    outer loop
      vertex 26.4142 4.08579 5
      vertex 26.4142 4.08579 0
      vertex 26.2856 3.96791 5
    endloop
  endfacet
  facet normal -0.675587 0.73728 0
    outer loop
      vertex 26.2856 3.96791 5
      vertex 26.4142 4.08579 0
      vertex 26.2856 3.96791 0
    endloop
  endfacet
  facet normal -0.608762 0.793353 0
    outer loop
      vertex 26.2856 3.96791 5
      vertex 26.2856 3.96791 0
      vertex 26.1472 3.8617 5
    endloop
  endfacet
  facet normal -0.608762 0.793353 0
    outer loop
      vertex 26.1472 3.8617 5
      vertex 26.2856 3.96791 0
      vertex 26.1472 3.8617 0
    endloop
  endfacet
  facet normal -0.5373 0.843391 0
    outer loop
      vertex 26.1472 3.8617 5
      vertex 26.1472 3.8617 0
      vertex 26 3.76795 5
    endloop
  endfacet
  facet normal -0.5373 0.843391 0
    outer loop
      vertex 26 3.76795 5
      vertex 26.1472 3.8617 0
      vertex 26 3.76795 0
    endloop
  endfacet
  facet normal -0.461751 0.88701 0
    outer loop
      vertex 26 3.76795 5
      vertex 26 3.76795 0
      vertex 25.8452 3.68738 5
    endloop
  endfacet
  facet normal -0.461751 0.88701 0
    outer loop
      vertex 25.8452 3.68738 5
      vertex 26 3.76795 0
      vertex 25.8452 3.68738 0
    endloop
  endfacet
  facet normal -0.382679 0.923882 0
    outer loop
      vertex 25.8452 3.68738 5
      vertex 25.8452 3.68738 0
      vertex 25.684 3.62061 5
    endloop
  endfacet
  facet normal -0.382679 0.923882 0
    outer loop
      vertex 25.684 3.62061 5
      vertex 25.8452 3.68738 0
      vertex 25.684 3.62061 0
    endloop
  endfacet
  facet normal -0.300709 0.953716 0
    outer loop
      vertex 25.684 3.62061 5
      vertex 25.684 3.62061 0
      vertex 25.5176 3.56815 5
    endloop
  endfacet
  facet normal -0.300709 0.953716 0
    outer loop
      vertex 25.5176 3.56815 5
      vertex 25.684 3.62061 0
      vertex 25.5176 3.56815 0
    endloop
  endfacet
  facet normal -0.21644 0.976296 0
    outer loop
      vertex 25.5176 3.56815 5
      vertex 25.5176 3.56815 0
      vertex 25.3473 3.53038 5
    endloop
  endfacet
  facet normal -0.21644 0.976296 0
    outer loop
      vertex 25.3473 3.53038 5
      vertex 25.5176 3.56815 0
      vertex 25.3473 3.53038 0
    endloop
  endfacet
  facet normal -0.130521 0.991446 0
    outer loop
      vertex 25.3473 3.53038 5
      vertex 25.3473 3.53038 0
      vertex 25.1743 3.50761 5
    endloop
  endfacet
  facet normal -0.130521 0.991446 0
    outer loop
      vertex 25.1743 3.50761 5
      vertex 25.3473 3.53038 0
      vertex 25.1743 3.50761 0
    endloop
  endfacet
  facet normal -0.0436218 0.999048 0
    outer loop
      vertex 25.1743 3.50761 5
      vertex 25.1743 3.50761 0
      vertex 25 3.5 5
    endloop
  endfacet
  facet normal -0.0436218 0.999048 0
    outer loop
      vertex 25 3.5 5
      vertex 25.1743 3.50761 0
      vertex 25 3.5 0
    endloop
  endfacet
  facet normal 0.0436218 0.999048 0
    outer loop
      vertex 25 3.5 5
      vertex 25 3.5 0
      vertex 24.8257 3.50761 5
    endloop
  endfacet
  facet normal 0.0436218 0.999048 0
    outer loop
      vertex 24.8257 3.50761 5
      vertex 25 3.5 0
      vertex 24.8257 3.50761 0
    endloop
  endfacet
  facet normal 0.130521 0.991446 0
    outer loop
      vertex 24.8257 3.50761 5
      vertex 24.8257 3.50761 0
      vertex 24.6527 3.53038 5
    endloop
  endfacet
  facet normal 0.130521 0.991446 0
    outer loop
      vertex 24.6527 3.53038 5
      vertex 24.8257 3.50761 0
      vertex 24.6527 3.53038 0
    endloop
  endfacet
  facet normal 0.21644 0.976296 0
    outer loop
      vertex 24.6527 3.53038 5
      vertex 24.6527 3.53038 0
      vertex 24.4824 3.56815 5
    endloop
  endfacet
  facet normal 0.21644 0.976296 0
    outer loop
      vertex 24.4824 3.56815 5
      vertex 24.6527 3.53038 0
      vertex 24.4824 3.56815 0
    endloop
  endfacet
  facet normal 0.300709 0.953716 0
    outer loop
      vertex 24.4824 3.56815 5
      vertex 24.4824 3.56815 0
      vertex 24.316 3.62061 5
    endloop
  endfacet
  facet normal 0.300709 0.953716 0
    outer loop
      vertex 24.316 3.62061 5
      vertex 24.4824 3.56815 0
      vertex 24.316 3.62061 0
    endloop
  endfacet
  facet normal 0.382679 0.923882 0
    outer loop
      vertex 24.316 3.62061 5
      vertex 24.316 3.62061 0
      vertex 24.1548 3.68738 5
    endloop
  endfacet
  facet normal 0.382679 0.923882 0
    outer loop
      vertex 24.1548 3.68738 5
      vertex 24.316 3.62061 0
      vertex 24.1548 3.68738 0
    endloop
  endfacet
  facet normal 0.461751 0.88701 0
    outer loop
      vertex 24.1548 3.68738 5
      vertex 24.1548 3.68738 0
      vertex 24 3.76795 5
    endloop
  endfacet
  facet normal 0.461751 0.88701 0
    outer loop
      vertex 24 3.76795 5
      vertex 24.1548 3.68738 0
      vertex 24 3.76795 0
    endloop
  endfacet
  facet normal 0.5373 0.843391 0
    outer loop
      vertex 24 3.76795 5
      vertex 24 3.76795 0
      vertex 23.8528 3.8617 5
    endloop
  endfacet
  facet normal 0.5373 0.843391 0
    outer loop
      vertex 23.8528 3.8617 5
      vertex 24 3.76795 0
      vertex 23.8528 3.8617 0
    endloop
  endfacet
  facet normal 0.608762 0.793353 0
    outer loop
      vertex 23.8528 3.8617 5
      vertex 23.8528 3.8617 0
      vertex 23.7144 3.96791 5
    endloop
  endfacet
  facet normal 0.608762 0.793353 0
    outer loop
      vertex 23.7144 3.96791 5
      vertex 23.8528 3.8617 0
      vertex 23.7144 3.96791 0
    endloop
  endfacet
  facet normal 0.675587 0.73728 0
    outer loop
      vertex 23.7144 3.96791 5
      vertex 23.7144 3.96791 0
      vertex 23.5858 4.08579 5
    endloop
  endfacet
  facet normal 0.675587 0.73728 0
    outer loop
      vertex 23.5858 4.08579 5
      vertex 23.7144 3.96791 0
      vertex 23.5858 4.08579 0
    endloop
  endfacet
  facet normal 0.73728 0.675587 0
    outer loop
      vertex 23.4679 4.21442 5
      vertex 23.5858 4.08579 5
      vertex 23.5858 4.08579 0
    endloop
  endfacet
  facet normal 0.73728 0.675587 0
    outer loop
      vertex 23.4679 4.21442 0
      vertex 23.4679 4.21442 5
      vertex 23.5858 4.08579 0
    endloop
  endfacet
  facet normal 0.793353 0.608762 0
    outer loop
      vertex 23.3617 4.35285 5
      vertex 23.4679 4.21442 5
      vertex 23.4679 4.21442 0
    endloop
  endfacet
  facet normal 0.793353 0.608762 0
    outer loop
      vertex 23.3617 4.35285 0
      vertex 23.3617 4.35285 5
      vertex 23.4679 4.21442 0
    endloop
  endfacet
  facet normal 0.843391 0.5373 0
    outer loop
      vertex 23.2679 4.5 5
      vertex 23.3617 4.35285 5
      vertex 23.3617 4.35285 0
    endloop
  endfacet
  facet normal 0.843391 0.5373 0
    outer loop
      vertex 23.2679 4.5 0
      vertex 23.2679 4.5 5
      vertex 23.3617 4.35285 0
    endloop
  endfacet
  facet normal 0.88701 0.461751 0
    outer loop
      vertex 23.1874 4.65476 5
      vertex 23.2679 4.5 5
      vertex 23.2679 4.5 0
    endloop
  endfacet
  facet normal 0.88701 0.461751 0
    outer loop
      vertex 23.1874 4.65476 0
      vertex 23.1874 4.65476 5
      vertex 23.2679 4.5 0
    endloop
  endfacet
  facet normal 0.923882 0.382679 0
    outer loop
      vertex 23.1206 4.81596 5
      vertex 23.1874 4.65476 5
      vertex 23.1874 4.65476 0
    endloop
  endfacet
  facet normal 0.923882 0.382679 0
    outer loop
      vertex 23.1206 4.81596 0
      vertex 23.1206 4.81596 5
      vertex 23.1874 4.65476 0
    endloop
  endfacet
  facet normal 0.953716 0.300709 0
    outer loop
      vertex 23.0681 4.98236 5
      vertex 23.1206 4.81596 5
      vertex 23.1206 4.81596 0
    endloop
  endfacet
  facet normal 0.953716 0.300709 0
    outer loop
      vertex 23.0681 4.98236 0
      vertex 23.0681 4.98236 5
      vertex 23.1206 4.81596 0
    endloop
  endfacet
  facet normal 0.976296 0.21644 0
    outer loop
      vertex 23.0304 5.1527 5
      vertex 23.0681 4.98236 5
      vertex 23.0681 4.98236 0
    endloop
  endfacet
  facet normal 0.976296 0.21644 0
    outer loop
      vertex 23.0304 5.1527 0
      vertex 23.0304 5.1527 5
      vertex 23.0681 4.98236 0
    endloop
  endfacet
  facet normal -1 0 0
    outer loop
      vertex 7.5 2.22045e-19 5
      vertex 7.5 9.99201e-16 9.499
      vertex 7.5 11 5
    endloop
  endfacet
  facet normal -1 0 0
    outer loop
      vertex 7.5 11 5
      vertex 7.5 9.99201e-16 9.499
      vertex 7.5 11 9.499
    endloop
  endfacet
  facet normal -1 0 0
    outer loop
      vertex 7.5 11 5
      vertex 7.5 11 9.499
      vertex 7.5 11 4.999
    endloop
  endfacet
  facet normal 0 -1 2.22045e-16
    outer loop
      vertex 7.5 9.99201e-16 9.499
      vertex 7.5 2.22045e-19 5
      vertex 15.9986 2.22045e-19 5
    endloop
  endfacet
  facet normal 0 -1 2.22045e-16
    outer loop
      vertex 9.5 9.99201e-16 9.499
      vertex 7.5 9.99201e-16 9.499
      vertex 15.9986 2.22045e-19 5
    endloop
  endfacet
  facet normal 0.56921 1.82563e-16 0.822192
    outer loop
      vertex 9.5 11 9.499
      vertex 9.5 9.99201e-16 9.499
      vertex 15.9986 2.22045e-19 5
    endloop
  endfacet
  facet normal 0.56921 1.82563e-16 0.822192
    outer loop
      vertex 16 11 4.999
      vertex 9.5 11 9.499
      vertex 15.9986 11 5
    endloop
  endfacet
  facet normal 0.56921 1.82563e-16 0.822192
    outer loop
      vertex 15.9986 11 5
      vertex 9.5 11 9.499
      vertex 15.9986 2.22045e-19 5
    endloop
  endfacet
  facet normal 0 1 -2.22045e-16
    outer loop
      vertex 7.5 11 4.999
      vertex 7.5 11 9.499
      vertex 16 11 4.999
    endloop
  endfacet
  facet normal 0 1 -2.22045e-16
    outer loop
      vertex 16 11 4.999
      vertex 7.5 11 9.499
      vertex 9.5 11 9.499
    endloop
  endfacet
  facet normal 0 2.22045e-16 1
    outer loop
      vertex 7.5 11 9.499
      vertex 7.5 9.99201e-16 9.499
      vertex 9.5 9.99201e-16 9.499
    endloop
  endfacet
  facet normal 0 2.22045e-16 1
    outer loop
      vertex 9.5 11 9.499
      vertex 7.5 11 9.499
      vertex 9.5 9.99201e-16 9.499
    endloop
  endfacet
endsolid OpenSCAD_Model
