solid OpenSCAD_Model
  facet normal 0 -2.22045e-16 -1
    outer loop
      vertex 8 0 4.999
      vertex 8 10 4.999
      vertex 16.5 0 4.999
    endloop
  endfacet
  facet normal 0 -2.22045e-16 -1
    outer loop
      vertex 16.5 0 4.999
      vertex 8 10 4.999
      vertex 16.5 10 4.999
    endloop
  endfacet
  facet normal -1 0 0
    outer loop
      vertex 8 0 4.999
      vertex 8 9.99201e-16 9.499
      vertex 8 10 4.999
    endloop
  endfacet
  facet normal -1 0 0
    outer loop
      vertex 8 10 4.999
      vertex 8 9.99201e-16 9.499
      vertex 8 10 9.499
    endloop
  endfacet
  facet normal 0 -1 2.22045e-16
    outer loop
      vertex 8 9.99201e-16 9.499
      vertex 8 0 4.999
      vertex 16.5 0 4.999
    endloop
  endfacet
  facet normal 0 -1 2.22045e-16
    outer loop
      vertex 10 9.99201e-16 9.499
      vertex 8 9.99201e-16 9.499
      vertex 16.5 0 4.999
    endloop
  endfacet
  facet normal 0.56921 1.82563e-16 0.822192
    outer loop
      vertex 10 10 9.499
      vertex 10 9.99201e-16 9.499
      vertex 16.5 0 4.999
    endloop
  endfacet
  facet normal 0.56921 1.82563e-16 0.822192
    outer loop
      vertex 16.5 10 4.999
      vertex 10 10 9.499
      vertex 16.5 0 4.999
    endloop
  endfacet
  facet normal 0 1 -2.22045e-16
    outer loop
      vertex 8 10 4.999
      vertex 8 10 9.499
      vertex 16.5 10 4.999
    endloop
  endfacet
  facet normal 0 1 -2.22045e-16
    outer loop
      vertex 16.5 10 4.999
      vertex 8 10 9.499
      vertex 10 10 9.499
    endloop
  endfacet
  facet normal 0 2.22045e-16 1
    outer loop
      vertex 8 10 9.499
      vertex 8 9.99201e-16 9.499
      vertex 10 9.99201e-16 9.499
    endloop
  endfacet
  facet normal 0 2.22045e-16 1
    outer loop
      vertex 10 10 9.499
      vertex 8 10 9.499
      vertex 10 9.99201e-16 9.499
    endloop
  endfacet
endsolid OpenSCAD_Model
