<?xml version="1.0" encoding="UTF-8" standalone="no"?>
<!-- Created with Inkscape (http://www.inkscape.org/) -->

<svg
   xmlns:dc="http://purl.org/dc/elements/1.1/"
   xmlns:cc="http://creativecommons.org/ns#"
   xmlns:rdf="http://www.w3.org/1999/02/22-rdf-syntax-ns#"
   xmlns:svg="http://www.w3.org/2000/svg"
   xmlns="http://www.w3.org/2000/svg"
   xmlns:sodipodi="http://sodipodi.sourceforge.net/DTD/sodipodi-0.dtd"
   xmlns:inkscape="http://www.inkscape.org/namespaces/inkscape"
   width="708.66138"
   height="354.33069"
   id="svg2"
   version="1.1"
   inkscape:version="0.48.5 r10040"
   sodipodi:docname="handle_profile.dxf">
  <defs
     id="defs4" />
  <sodipodi:namedview
     id="base"
     pagecolor="#ffffff"
     bordercolor="#666666"
     borderopacity="1.0"
     inkscape:pageopacity="0.0"
     inkscape:pageshadow="2"
     inkscape:zoom="1.23"
     inkscape:cx="53.193256"
     inkscape:cy="284.06205"
     inkscape:document-units="mm"
     inkscape:current-layer="layer1"
     showgrid="true"
     showguides="true"
     units="mm"
     inkscape:window-width="1366"
     inkscape:window-height="720"
     inkscape:window-x="0"
     inkscape:window-y="0"
     inkscape:window-maximized="1"
     inkscape:snap-global="false"
     inkscape:snap-from-guide="false"
     showborder="true"
     inkscape:showpageshadow="false"
     inkscape:guide-bbox="true">
    <inkscape:grid
       type="xygrid"
       id="grid3871"
       empspacing="5"
       visible="false"
       enabled="true"
       snapvisiblegridlinesonly="false"
       units="mm"
       spacingx="1mm"
       spacingy="1mm" />
  </sodipodi:namedview>
  <metadata
     id="metadata7">
    <rdf:RDF>
      <cc:Work
         rdf:about="">
        <dc:format>image/svg+xml</dc:format>
        <dc:type
           rdf:resource="http://purl.org/dc/dcmitype/StillImage" />
        <dc:title></dc:title>
      </cc:Work>
    </rdf:RDF>
  </metadata>
  <g
     inkscape:label="Layer 1"
     inkscape:groupmode="layer"
     id="layer1"
     transform="translate(0,-698.03147)">
    <path
       style="fill:none;stroke:#f80000;stroke-width:0.35433072;stroke-linecap:butt;stroke-linejoin:miter;stroke-miterlimit:4;stroke-opacity:1;stroke-dasharray:none"
       d="m 24.80315,641.33854 -24.80315,0 0,411.02366 21.259843,0.099 c 0,0 1.100568,-0.086 1.773728,-0.8257 0.584016,-0.6413 0.54976,-1.7326 0.706586,-2.8166 0.927458,-6.4107 1.400501,-50.56046 1.417323,-65.98106 0.926594,-114.43939 0.552656,-84.50725 0.531496,-139.5308 0.09058,-60.27809 -4.432181,-91.93143 -4.429133,-171.01683 0.0187,-1.50673 0.09355,-3.61406 0,-5.1969 -0.09355,-1.58284 -0.01971,-3.13251 0,-3.17567 0.5887,-1.32339 3.490214,-3.20091 4.511692,-4.96511 2.72122,-4.69985 2.574922,-10.52738 2.574922,-10.52738 l 0,-4.32437 c 0,0 -0.422829,-1.76642 -1.400367,-2.12294 -0.714313,-0.26052 -2.14294,-0.6393 -2.14294,-0.6393 z"
       id="path2989"
       inkscape:connector-curvature="0"
       sodipodi:nodetypes="ccccsscccccsccsc" />
  </g>
</svg>
