<?xml version="1.0" encoding="UTF-8" standalone="no"?>
<!-- Created with Inkscape (http://www.inkscape.org/) -->

<svg
   xmlns:dc="http://purl.org/dc/elements/1.1/"
   xmlns:cc="http://creativecommons.org/ns#"
   xmlns:rdf="http://www.w3.org/1999/02/22-rdf-syntax-ns#"
   xmlns:svg="http://www.w3.org/2000/svg"
   xmlns="http://www.w3.org/2000/svg"
   xmlns:sodipodi="http://sodipodi.sourceforge.net/DTD/sodipodi-0.dtd"
   xmlns:inkscape="http://www.inkscape.org/namespaces/inkscape"
   width="744.09448819"
   height="1052.3622047"
   id="svg2"
   version="1.1"
   inkscape:version="0.48.5 r10040"
   sodipodi:docname="microscope_bracket.svg">
  <defs
     id="defs4">
    <clipPath
       id="clipPath3039"
       clipPathUnits="userSpaceOnUse">
      <path
         id="path3041"
         d="m 336.24,280.56 0,51.12 119.04,0 0,-51.12 -119.04,0 z" />
    </clipPath>
  </defs>
  <sodipodi:namedview
     id="base"
     pagecolor="#ffffff"
     bordercolor="#666666"
     borderopacity="1.0"
     inkscape:pageopacity="0.0"
     inkscape:pageshadow="2"
     inkscape:zoom="16.345978"
     inkscape:cx="154.72369"
     inkscape:cy="976.91955"
     inkscape:document-units="px"
     inkscape:current-layer="layer1"
     showgrid="false"
     inkscape:window-width="1214"
     inkscape:window-height="672"
     inkscape:window-x="0"
     inkscape:window-y="0"
     inkscape:window-maximized="0" />
  <metadata
     id="metadata7">
    <rdf:RDF>
      <cc:Work
         rdf:about="">
        <dc:format>image/svg+xml</dc:format>
        <dc:type
           rdf:resource="http://purl.org/dc/dcmitype/StillImage" />
        <dc:title></dc:title>
      </cc:Work>
    </rdf:RDF>
  </metadata>
  <g
     inkscape:label="Layer 1"
     inkscape:groupmode="layer"
     id="layer1">
    <g
       id="g3043"
       transform="matrix(0.3,0,0,0.3,-337.55714,-286.86067)"
       style="stroke:#ff0000;stroke-opacity:1;stroke-width:1.18110237;stroke-miterlimit:4;stroke-dasharray:none" />
    <g
       id="g3047"
       transform="matrix(0.3,0,0,0.3,-337.55714,-286.86067)"
       style="stroke:#ff0000;stroke-opacity:1;stroke-width:1.18110237;stroke-miterlimit:4;stroke-dasharray:none" />
    <g
       id="g3051"
       transform="matrix(0.3,0,0,0.3,-337.55714,-286.86067)"
       style="stroke:#ff0000;stroke-opacity:1;stroke-width:1.18110237;stroke-miterlimit:4;stroke-dasharray:none" />
    <g
       id="g3055"
       transform="matrix(0.3,0,0,0.3,-337.55714,-286.86067)"
       style="stroke:#ff0000;stroke-opacity:1;stroke-width:1.18110237;stroke-miterlimit:4;stroke-dasharray:none" />
    <g
       id="g3059"
       transform="matrix(0.3,0,0,0.3,-337.55714,-286.86067)"
       style="stroke:#ff0000;stroke-opacity:1;stroke-width:1.18110237;stroke-miterlimit:4;stroke-dasharray:none" />
    <g
       id="g3063"
       transform="matrix(0.3,0,0,0.3,-337.55714,-286.86067)"
       style="stroke:#ff0000;stroke-opacity:1;stroke-width:1.18110237;stroke-miterlimit:4;stroke-dasharray:none" />
    <g
       id="g3067"
       transform="matrix(0.3,0,0,0.3,-337.55714,-286.86067)"
       style="stroke:#ff0000;stroke-opacity:1;stroke-width:1.18110237;stroke-miterlimit:4;stroke-dasharray:none" />
    <g
       id="g3071"
       transform="matrix(0.3,0,0,0.3,-337.55714,-286.86067)"
       style="stroke:#ff0000;stroke-opacity:1;stroke-width:1.18110237;stroke-miterlimit:4;stroke-dasharray:none">
      <path
         id="path3073"
         style="fill:none;stroke:#ff0000;stroke-width:1.1811024;stroke-linecap:round;stroke-linejoin:round;stroke-miterlimit:4;stroke-opacity:1;stroke-dasharray:none"
         d="m 1879,1379 7,-1 5,-4 4,-5 1,-7 0,-177 -1,-7 -4,-5 -5,-4 -7,-1 -460,0 -7,1 -5,4 -4,5 -1,7 0,177 1,7 4,5 5,4 7,1 z"
         inkscape:connector-curvature="0"
         sodipodi:nodetypes="ccccccccccccccccccccc" />
    </g>
    <g
       id="g3075"
       transform="matrix(0.3,0,0,0.3,-337.55714,-286.86067)"
       style="stroke:#ff0000;stroke-opacity:1;stroke-width:1.18110237;stroke-miterlimit:4;stroke-dasharray:none">
      <path
         inkscape:connector-curvature="0"
         d="m 1749,1274 c 0,6.627 -5.372,12 -12,12 -6.627,0 -12,-5.373 -12,-12 0,-6.628 5.373,-12 12,-12 6.628,0 12,5.372 12,12"
         style="fill:none;stroke:#ff0000;stroke-width:1.18110237;stroke-linecap:round;stroke-linejoin:round;stroke-miterlimit:4;stroke-opacity:1;stroke-dasharray:none"
         id="path3077" />
    </g>
    <g
       id="g3079"
       transform="matrix(0.3,0,0,0.3,-337.55714,-286.86067)"
       style="stroke:#ff0000;stroke-opacity:1;stroke-width:1.18110237;stroke-miterlimit:4;stroke-dasharray:none">
      <path
         inkscape:connector-curvature="0"
         d="m 1573,1274 c 0,6.627 -5.373,12 -12,12 -6.627,0 -12,-5.373 -12,-12 0,-6.628 5.373,-12 12,-12 6.627,0 12,5.372 12,12"
         style="fill:none;stroke:#ff0000;stroke-width:1.18110237;stroke-linecap:round;stroke-linejoin:round;stroke-miterlimit:4;stroke-opacity:1;stroke-dasharray:none"
         id="path3081" />
    </g>
    <g
       id="g3083"
       transform="matrix(0.3,0,0,0.3,-337.55714,-286.86067)"
       style="stroke:#ff0000;stroke-opacity:1;stroke-width:1.18110237;stroke-miterlimit:4;stroke-dasharray:none" />
    <g
       id="g3087"
       transform="matrix(0.3,0,0,0.3,-337.55714,-286.86067)"
       style="stroke:#ff0000;stroke-opacity:1;stroke-width:1.18110237;stroke-miterlimit:4;stroke-dasharray:none" />
    <g
       id="g3091"
       transform="matrix(0.3,0,0,0.3,-337.55714,-286.86067)"
       style="stroke:#ff0000;stroke-opacity:1;stroke-width:1.18110237;stroke-miterlimit:4;stroke-dasharray:none" />
    <g
       id="g3095"
       transform="matrix(0.3,0,0,0.3,-337.55714,-286.86067)"
       style="stroke:#ff0000;stroke-opacity:1;stroke-width:1.18110237;stroke-miterlimit:4;stroke-dasharray:none" />
    <g
       id="g3099"
       transform="matrix(0.3,0,0,0.3,-337.55714,-286.86067)"
       style="stroke:#ff0000;stroke-opacity:1;stroke-width:1.18110237;stroke-miterlimit:4;stroke-dasharray:none" />
    <g
       id="g3103"
       transform="matrix(0.3,0,0,0.3,-337.55714,-286.86067)"
       style="stroke:#ff0000;stroke-opacity:1;stroke-width:1.18110237;stroke-miterlimit:4;stroke-dasharray:none" />
    <g
       id="g3107"
       transform="matrix(0.3,0,0,0.3,-337.55714,-286.86067)"
       style="stroke:#ff0000;stroke-opacity:1;stroke-width:1.18110237;stroke-miterlimit:4;stroke-dasharray:none" />
    <g
       id="g3111"
       transform="matrix(0.3,0,0,0.3,-337.55714,-286.86067)"
       style="stroke:#ff0000;stroke-opacity:1;stroke-width:1.18110237;stroke-miterlimit:4;stroke-dasharray:none">
      <path
         id="path3113"
         style="fill:none;stroke:#ff0000;stroke-width:1.1811024;stroke-linecap:round;stroke-linejoin:round;stroke-miterlimit:4;stroke-opacity:1;stroke-dasharray:none"
         d="m 1697,1309 3,-1 2,-2 1,-3 0,-59 -1,-3 -2,-2 -3,-1 -96,0 -3,1 -2,2 -1,3 0,59 1,3 2,2 3,1 z"
         inkscape:connector-curvature="0"
         sodipodi:nodetypes="ccccccccccccccccc" />
    </g>
    <g
       id="g3115"
       transform="matrix(0.3,0,0,0.3,-337.55714,-286.86067)"
       style="stroke:#ff0000;stroke-opacity:1;stroke-width:1.18110237;stroke-miterlimit:4;stroke-dasharray:none">
      <path
         inkscape:connector-curvature="0"
         d="m 1849,1274 c 0,6.627 -5.372,12 -12,12 -6.627,0 -12,-5.373 -12,-12 0,-6.628 5.373,-12 12,-12 6.628,0 12,5.372 12,12"
         style="fill:none;stroke:#ff0000;stroke-width:1.18110237;stroke-linecap:round;stroke-linejoin:round;stroke-miterlimit:4;stroke-opacity:1;stroke-dasharray:none"
         id="path3117" />
    </g>
    <g
       id="g3119"
       transform="matrix(0.3,0,0,0.3,-337.55714,-286.86067)"
       style="stroke:#ff0000;stroke-opacity:1;stroke-width:1.18110237;stroke-miterlimit:4;stroke-dasharray:none">
      <path
         inkscape:connector-curvature="0"
         d="m 1473,1274 c 0,6.627 -5.372,12 -12,12 -6.627,0 -12,-5.373 -12,-12 0,-6.628 5.373,-12 12,-12 6.628,0 12,5.372 12,12"
         style="fill:none;stroke:#ff0000;stroke-width:1.18110237;stroke-linecap:round;stroke-linejoin:round;stroke-miterlimit:4;stroke-opacity:1;stroke-dasharray:none"
         id="path3121" />
    </g>
    <path
       id="path3125"
       style="fill:none;stroke:#0000ff;stroke-width:0.35433072;stroke-linecap:round;stroke-linejoin:round;stroke-miterlimit:4;stroke-opacity:1;stroke-dasharray:none"
       d="m 148.14286,75.23933 3.6,0"
       inkscape:connector-curvature="0" />
    <path
       id="path3129"
       style="fill:none;stroke:#0000ff;stroke-width:0.35433072;stroke-linecap:round;stroke-linejoin:round;stroke-miterlimit:4;stroke-opacity:1;stroke-dasharray:none"
       d="m 149.94286,73.43933 0,3.6"
       inkscape:connector-curvature="0" />
    <path
       id="path3165"
       style="fill:none;stroke:#0000ff;stroke-width:0.35433072;stroke-linecap:round;stroke-linejoin:round;stroke-miterlimit:4;stroke-opacity:1;stroke-dasharray:none"
       d="m 157.74286,72.53933 -3.9,0 0,2.7 1.8,-0.9 0.9,0 1.2,0.9 0,1.8 -1.2,1.2 -1.8,0 -0.9,-1.2"
       inkscape:connector-curvature="0"
       sodipodi:nodetypes="cccccccccc" />
    <path
       id="path3181"
       style="fill:none;stroke:#0000ff;stroke-width:0.35433072;stroke-linecap:round;stroke-linejoin:round;stroke-miterlimit:4;stroke-opacity:1;stroke-dasharray:none"
       d="m 159.54286,72.53933 0,3.6 1.8,2.1 2.1,-2.1 0,-3.6"
       inkscape:connector-curvature="0"
       sodipodi:nodetypes="ccccc" />
  </g>
</svg>
