G04 #@! TF.GenerationSoftware,KiCad,Pcbnew,(5.0.1-3-g963ef8bb5)*
G04 #@! TF.CreationDate,2018-12-11T08:39:45-08:00*
G04 #@! TF.ProjectId,isp_adapter,6973705F616461707465722E6B696361,rev?*
G04 #@! TF.SameCoordinates,Original*
G04 #@! TF.FileFunction,Soldermask,Top*
G04 #@! TF.FilePolarity,Negative*
%FSLAX46Y46*%
G04 Gerber Fmt 4.6, Leading zero omitted, Abs format (unit mm)*
G04 Created by KiCad (PCBNEW (5.0.1-3-g963ef8bb5)) date Tuesday, December 11, 2018 at 08:39:45 AM*
%MOMM*%
%LPD*%
G01*
G04 APERTURE LIST*
%ADD10C,0.100000*%
G04 APERTURE END LIST*
D10*
G36*
X137270442Y-131740519D02*
X137336627Y-131747038D01*
X137449853Y-131781385D01*
X137506467Y-131798558D01*
X137645087Y-131872653D01*
X137662991Y-131882223D01*
X137698729Y-131911553D01*
X137800186Y-131994815D01*
X137883448Y-132096272D01*
X137912778Y-132132010D01*
X137912779Y-132132012D01*
X137996443Y-132288534D01*
X137996443Y-132288535D01*
X138047963Y-132458374D01*
X138065359Y-132635001D01*
X138047963Y-132811628D01*
X138013616Y-132924854D01*
X137996443Y-132981468D01*
X137922348Y-133120088D01*
X137912778Y-133137992D01*
X137883448Y-133173730D01*
X137800186Y-133275187D01*
X137698729Y-133358449D01*
X137662991Y-133387779D01*
X137662989Y-133387780D01*
X137506467Y-133471444D01*
X137449853Y-133488617D01*
X137336627Y-133522964D01*
X137270443Y-133529482D01*
X137204260Y-133536001D01*
X137115740Y-133536001D01*
X137049557Y-133529482D01*
X136983373Y-133522964D01*
X136870147Y-133488617D01*
X136813533Y-133471444D01*
X136657011Y-133387780D01*
X136657009Y-133387779D01*
X136621271Y-133358449D01*
X136519814Y-133275187D01*
X136436552Y-133173730D01*
X136407222Y-133137992D01*
X136397652Y-133120088D01*
X136323557Y-132981468D01*
X136306384Y-132924854D01*
X136272037Y-132811628D01*
X136254641Y-132635001D01*
X136272037Y-132458374D01*
X136323557Y-132288535D01*
X136323557Y-132288534D01*
X136407221Y-132132012D01*
X136407222Y-132132010D01*
X136436552Y-132096272D01*
X136519814Y-131994815D01*
X136621271Y-131911553D01*
X136657009Y-131882223D01*
X136674913Y-131872653D01*
X136813533Y-131798558D01*
X136870147Y-131781385D01*
X136983373Y-131747038D01*
X137049558Y-131740519D01*
X137115740Y-131734001D01*
X137204260Y-131734001D01*
X137270442Y-131740519D01*
X137270442Y-131740519D01*
G37*
G36*
X134730442Y-131740519D02*
X134796627Y-131747038D01*
X134909853Y-131781385D01*
X134966467Y-131798558D01*
X135105087Y-131872653D01*
X135122991Y-131882223D01*
X135158729Y-131911553D01*
X135260186Y-131994815D01*
X135343448Y-132096272D01*
X135372778Y-132132010D01*
X135372779Y-132132012D01*
X135456443Y-132288534D01*
X135456443Y-132288535D01*
X135507963Y-132458374D01*
X135525359Y-132635001D01*
X135507963Y-132811628D01*
X135473616Y-132924854D01*
X135456443Y-132981468D01*
X135382348Y-133120088D01*
X135372778Y-133137992D01*
X135343448Y-133173730D01*
X135260186Y-133275187D01*
X135158729Y-133358449D01*
X135122991Y-133387779D01*
X135122989Y-133387780D01*
X134966467Y-133471444D01*
X134909853Y-133488617D01*
X134796627Y-133522964D01*
X134730443Y-133529482D01*
X134664260Y-133536001D01*
X134575740Y-133536001D01*
X134509557Y-133529482D01*
X134443373Y-133522964D01*
X134330147Y-133488617D01*
X134273533Y-133471444D01*
X134117011Y-133387780D01*
X134117009Y-133387779D01*
X134081271Y-133358449D01*
X133979814Y-133275187D01*
X133896552Y-133173730D01*
X133867222Y-133137992D01*
X133857652Y-133120088D01*
X133783557Y-132981468D01*
X133766384Y-132924854D01*
X133732037Y-132811628D01*
X133714641Y-132635001D01*
X133732037Y-132458374D01*
X133783557Y-132288535D01*
X133783557Y-132288534D01*
X133867221Y-132132012D01*
X133867222Y-132132010D01*
X133896552Y-132096272D01*
X133979814Y-131994815D01*
X134081271Y-131911553D01*
X134117009Y-131882223D01*
X134134913Y-131872653D01*
X134273533Y-131798558D01*
X134330147Y-131781385D01*
X134443373Y-131747038D01*
X134509558Y-131740519D01*
X134575740Y-131734001D01*
X134664260Y-131734001D01*
X134730442Y-131740519D01*
X134730442Y-131740519D01*
G37*
G36*
X132190442Y-131740519D02*
X132256627Y-131747038D01*
X132369853Y-131781385D01*
X132426467Y-131798558D01*
X132565087Y-131872653D01*
X132582991Y-131882223D01*
X132618729Y-131911553D01*
X132720186Y-131994815D01*
X132803448Y-132096272D01*
X132832778Y-132132010D01*
X132832779Y-132132012D01*
X132916443Y-132288534D01*
X132916443Y-132288535D01*
X132967963Y-132458374D01*
X132985359Y-132635001D01*
X132967963Y-132811628D01*
X132933616Y-132924854D01*
X132916443Y-132981468D01*
X132842348Y-133120088D01*
X132832778Y-133137992D01*
X132803448Y-133173730D01*
X132720186Y-133275187D01*
X132618729Y-133358449D01*
X132582991Y-133387779D01*
X132582989Y-133387780D01*
X132426467Y-133471444D01*
X132369853Y-133488617D01*
X132256627Y-133522964D01*
X132190443Y-133529482D01*
X132124260Y-133536001D01*
X132035740Y-133536001D01*
X131969557Y-133529482D01*
X131903373Y-133522964D01*
X131790147Y-133488617D01*
X131733533Y-133471444D01*
X131577011Y-133387780D01*
X131577009Y-133387779D01*
X131541271Y-133358449D01*
X131439814Y-133275187D01*
X131356552Y-133173730D01*
X131327222Y-133137992D01*
X131317652Y-133120088D01*
X131243557Y-132981468D01*
X131226384Y-132924854D01*
X131192037Y-132811628D01*
X131174641Y-132635001D01*
X131192037Y-132458374D01*
X131243557Y-132288535D01*
X131243557Y-132288534D01*
X131327221Y-132132012D01*
X131327222Y-132132010D01*
X131356552Y-132096272D01*
X131439814Y-131994815D01*
X131541271Y-131911553D01*
X131577009Y-131882223D01*
X131594913Y-131872653D01*
X131733533Y-131798558D01*
X131790147Y-131781385D01*
X131903373Y-131747038D01*
X131969558Y-131740519D01*
X132035740Y-131734001D01*
X132124260Y-131734001D01*
X132190442Y-131740519D01*
X132190442Y-131740519D01*
G37*
G36*
X129650442Y-131740519D02*
X129716627Y-131747038D01*
X129829853Y-131781385D01*
X129886467Y-131798558D01*
X130025087Y-131872653D01*
X130042991Y-131882223D01*
X130078729Y-131911553D01*
X130180186Y-131994815D01*
X130263448Y-132096272D01*
X130292778Y-132132010D01*
X130292779Y-132132012D01*
X130376443Y-132288534D01*
X130376443Y-132288535D01*
X130427963Y-132458374D01*
X130445359Y-132635001D01*
X130427963Y-132811628D01*
X130393616Y-132924854D01*
X130376443Y-132981468D01*
X130302348Y-133120088D01*
X130292778Y-133137992D01*
X130263448Y-133173730D01*
X130180186Y-133275187D01*
X130078729Y-133358449D01*
X130042991Y-133387779D01*
X130042989Y-133387780D01*
X129886467Y-133471444D01*
X129829853Y-133488617D01*
X129716627Y-133522964D01*
X129650443Y-133529482D01*
X129584260Y-133536001D01*
X129495740Y-133536001D01*
X129429557Y-133529482D01*
X129363373Y-133522964D01*
X129250147Y-133488617D01*
X129193533Y-133471444D01*
X129037011Y-133387780D01*
X129037009Y-133387779D01*
X129001271Y-133358449D01*
X128899814Y-133275187D01*
X128816552Y-133173730D01*
X128787222Y-133137992D01*
X128777652Y-133120088D01*
X128703557Y-132981468D01*
X128686384Y-132924854D01*
X128652037Y-132811628D01*
X128634641Y-132635001D01*
X128652037Y-132458374D01*
X128703557Y-132288535D01*
X128703557Y-132288534D01*
X128787221Y-132132012D01*
X128787222Y-132132010D01*
X128816552Y-132096272D01*
X128899814Y-131994815D01*
X129001271Y-131911553D01*
X129037009Y-131882223D01*
X129054913Y-131872653D01*
X129193533Y-131798558D01*
X129250147Y-131781385D01*
X129363373Y-131747038D01*
X129429558Y-131740519D01*
X129495740Y-131734001D01*
X129584260Y-131734001D01*
X129650442Y-131740519D01*
X129650442Y-131740519D01*
G37*
G36*
X122030442Y-131740519D02*
X122096627Y-131747038D01*
X122209853Y-131781385D01*
X122266467Y-131798558D01*
X122405087Y-131872653D01*
X122422991Y-131882223D01*
X122458729Y-131911553D01*
X122560186Y-131994815D01*
X122643448Y-132096272D01*
X122672778Y-132132010D01*
X122672779Y-132132012D01*
X122756443Y-132288534D01*
X122756443Y-132288535D01*
X122807963Y-132458374D01*
X122825359Y-132635001D01*
X122807963Y-132811628D01*
X122773616Y-132924854D01*
X122756443Y-132981468D01*
X122682348Y-133120088D01*
X122672778Y-133137992D01*
X122643448Y-133173730D01*
X122560186Y-133275187D01*
X122458729Y-133358449D01*
X122422991Y-133387779D01*
X122422989Y-133387780D01*
X122266467Y-133471444D01*
X122209853Y-133488617D01*
X122096627Y-133522964D01*
X122030443Y-133529482D01*
X121964260Y-133536001D01*
X121875740Y-133536001D01*
X121809557Y-133529482D01*
X121743373Y-133522964D01*
X121630147Y-133488617D01*
X121573533Y-133471444D01*
X121417011Y-133387780D01*
X121417009Y-133387779D01*
X121381271Y-133358449D01*
X121279814Y-133275187D01*
X121196552Y-133173730D01*
X121167222Y-133137992D01*
X121157652Y-133120088D01*
X121083557Y-132981468D01*
X121066384Y-132924854D01*
X121032037Y-132811628D01*
X121014641Y-132635001D01*
X121032037Y-132458374D01*
X121083557Y-132288535D01*
X121083557Y-132288534D01*
X121167221Y-132132012D01*
X121167222Y-132132010D01*
X121196552Y-132096272D01*
X121279814Y-131994815D01*
X121381271Y-131911553D01*
X121417009Y-131882223D01*
X121434913Y-131872653D01*
X121573533Y-131798558D01*
X121630147Y-131781385D01*
X121743373Y-131747038D01*
X121809558Y-131740519D01*
X121875740Y-131734001D01*
X121964260Y-131734001D01*
X122030442Y-131740519D01*
X122030442Y-131740519D01*
G37*
G36*
X119490442Y-131740519D02*
X119556627Y-131747038D01*
X119669853Y-131781385D01*
X119726467Y-131798558D01*
X119865087Y-131872653D01*
X119882991Y-131882223D01*
X119918729Y-131911553D01*
X120020186Y-131994815D01*
X120103448Y-132096272D01*
X120132778Y-132132010D01*
X120132779Y-132132012D01*
X120216443Y-132288534D01*
X120216443Y-132288535D01*
X120267963Y-132458374D01*
X120285359Y-132635001D01*
X120267963Y-132811628D01*
X120233616Y-132924854D01*
X120216443Y-132981468D01*
X120142348Y-133120088D01*
X120132778Y-133137992D01*
X120103448Y-133173730D01*
X120020186Y-133275187D01*
X119918729Y-133358449D01*
X119882991Y-133387779D01*
X119882989Y-133387780D01*
X119726467Y-133471444D01*
X119669853Y-133488617D01*
X119556627Y-133522964D01*
X119490443Y-133529482D01*
X119424260Y-133536001D01*
X119335740Y-133536001D01*
X119269557Y-133529482D01*
X119203373Y-133522964D01*
X119090147Y-133488617D01*
X119033533Y-133471444D01*
X118877011Y-133387780D01*
X118877009Y-133387779D01*
X118841271Y-133358449D01*
X118739814Y-133275187D01*
X118656552Y-133173730D01*
X118627222Y-133137992D01*
X118617652Y-133120088D01*
X118543557Y-132981468D01*
X118526384Y-132924854D01*
X118492037Y-132811628D01*
X118474641Y-132635001D01*
X118492037Y-132458374D01*
X118543557Y-132288535D01*
X118543557Y-132288534D01*
X118627221Y-132132012D01*
X118627222Y-132132010D01*
X118656552Y-132096272D01*
X118739814Y-131994815D01*
X118841271Y-131911553D01*
X118877009Y-131882223D01*
X118894913Y-131872653D01*
X119033533Y-131798558D01*
X119090147Y-131781385D01*
X119203373Y-131747038D01*
X119269558Y-131740519D01*
X119335740Y-131734001D01*
X119424260Y-131734001D01*
X119490442Y-131740519D01*
X119490442Y-131740519D01*
G37*
G36*
X122030442Y-129200519D02*
X122096627Y-129207038D01*
X122209853Y-129241385D01*
X122266467Y-129258558D01*
X122405087Y-129332653D01*
X122422991Y-129342223D01*
X122458729Y-129371553D01*
X122560186Y-129454815D01*
X122643448Y-129556272D01*
X122672778Y-129592010D01*
X122672779Y-129592012D01*
X122756443Y-129748534D01*
X122756443Y-129748535D01*
X122807963Y-129918374D01*
X122825359Y-130095001D01*
X122807963Y-130271628D01*
X122773616Y-130384854D01*
X122756443Y-130441468D01*
X122682348Y-130580088D01*
X122672778Y-130597992D01*
X122643448Y-130633730D01*
X122560186Y-130735187D01*
X122458729Y-130818449D01*
X122422991Y-130847779D01*
X122422989Y-130847780D01*
X122266467Y-130931444D01*
X122209853Y-130948617D01*
X122096627Y-130982964D01*
X122030442Y-130989483D01*
X121964260Y-130996001D01*
X121875740Y-130996001D01*
X121809558Y-130989483D01*
X121743373Y-130982964D01*
X121630147Y-130948617D01*
X121573533Y-130931444D01*
X121417011Y-130847780D01*
X121417009Y-130847779D01*
X121381271Y-130818449D01*
X121279814Y-130735187D01*
X121196552Y-130633730D01*
X121167222Y-130597992D01*
X121157652Y-130580088D01*
X121083557Y-130441468D01*
X121066384Y-130384854D01*
X121032037Y-130271628D01*
X121014641Y-130095001D01*
X121032037Y-129918374D01*
X121083557Y-129748535D01*
X121083557Y-129748534D01*
X121167221Y-129592012D01*
X121167222Y-129592010D01*
X121196552Y-129556272D01*
X121279814Y-129454815D01*
X121381271Y-129371553D01*
X121417009Y-129342223D01*
X121434913Y-129332653D01*
X121573533Y-129258558D01*
X121630147Y-129241385D01*
X121743373Y-129207038D01*
X121809558Y-129200519D01*
X121875740Y-129194001D01*
X121964260Y-129194001D01*
X122030442Y-129200519D01*
X122030442Y-129200519D01*
G37*
G36*
X137270442Y-129200519D02*
X137336627Y-129207038D01*
X137449853Y-129241385D01*
X137506467Y-129258558D01*
X137645087Y-129332653D01*
X137662991Y-129342223D01*
X137698729Y-129371553D01*
X137800186Y-129454815D01*
X137883448Y-129556272D01*
X137912778Y-129592010D01*
X137912779Y-129592012D01*
X137996443Y-129748534D01*
X137996443Y-129748535D01*
X138047963Y-129918374D01*
X138065359Y-130095001D01*
X138047963Y-130271628D01*
X138013616Y-130384854D01*
X137996443Y-130441468D01*
X137922348Y-130580088D01*
X137912778Y-130597992D01*
X137883448Y-130633730D01*
X137800186Y-130735187D01*
X137698729Y-130818449D01*
X137662991Y-130847779D01*
X137662989Y-130847780D01*
X137506467Y-130931444D01*
X137449853Y-130948617D01*
X137336627Y-130982964D01*
X137270442Y-130989483D01*
X137204260Y-130996001D01*
X137115740Y-130996001D01*
X137049558Y-130989483D01*
X136983373Y-130982964D01*
X136870147Y-130948617D01*
X136813533Y-130931444D01*
X136657011Y-130847780D01*
X136657009Y-130847779D01*
X136621271Y-130818449D01*
X136519814Y-130735187D01*
X136436552Y-130633730D01*
X136407222Y-130597992D01*
X136397652Y-130580088D01*
X136323557Y-130441468D01*
X136306384Y-130384854D01*
X136272037Y-130271628D01*
X136254641Y-130095001D01*
X136272037Y-129918374D01*
X136323557Y-129748535D01*
X136323557Y-129748534D01*
X136407221Y-129592012D01*
X136407222Y-129592010D01*
X136436552Y-129556272D01*
X136519814Y-129454815D01*
X136621271Y-129371553D01*
X136657009Y-129342223D01*
X136674913Y-129332653D01*
X136813533Y-129258558D01*
X136870147Y-129241385D01*
X136983373Y-129207038D01*
X137049558Y-129200519D01*
X137115740Y-129194001D01*
X137204260Y-129194001D01*
X137270442Y-129200519D01*
X137270442Y-129200519D01*
G37*
G36*
X134730442Y-129200519D02*
X134796627Y-129207038D01*
X134909853Y-129241385D01*
X134966467Y-129258558D01*
X135105087Y-129332653D01*
X135122991Y-129342223D01*
X135158729Y-129371553D01*
X135260186Y-129454815D01*
X135343448Y-129556272D01*
X135372778Y-129592010D01*
X135372779Y-129592012D01*
X135456443Y-129748534D01*
X135456443Y-129748535D01*
X135507963Y-129918374D01*
X135525359Y-130095001D01*
X135507963Y-130271628D01*
X135473616Y-130384854D01*
X135456443Y-130441468D01*
X135382348Y-130580088D01*
X135372778Y-130597992D01*
X135343448Y-130633730D01*
X135260186Y-130735187D01*
X135158729Y-130818449D01*
X135122991Y-130847779D01*
X135122989Y-130847780D01*
X134966467Y-130931444D01*
X134909853Y-130948617D01*
X134796627Y-130982964D01*
X134730442Y-130989483D01*
X134664260Y-130996001D01*
X134575740Y-130996001D01*
X134509558Y-130989483D01*
X134443373Y-130982964D01*
X134330147Y-130948617D01*
X134273533Y-130931444D01*
X134117011Y-130847780D01*
X134117009Y-130847779D01*
X134081271Y-130818449D01*
X133979814Y-130735187D01*
X133896552Y-130633730D01*
X133867222Y-130597992D01*
X133857652Y-130580088D01*
X133783557Y-130441468D01*
X133766384Y-130384854D01*
X133732037Y-130271628D01*
X133714641Y-130095001D01*
X133732037Y-129918374D01*
X133783557Y-129748535D01*
X133783557Y-129748534D01*
X133867221Y-129592012D01*
X133867222Y-129592010D01*
X133896552Y-129556272D01*
X133979814Y-129454815D01*
X134081271Y-129371553D01*
X134117009Y-129342223D01*
X134134913Y-129332653D01*
X134273533Y-129258558D01*
X134330147Y-129241385D01*
X134443373Y-129207038D01*
X134509558Y-129200519D01*
X134575740Y-129194001D01*
X134664260Y-129194001D01*
X134730442Y-129200519D01*
X134730442Y-129200519D01*
G37*
G36*
X132190442Y-129200519D02*
X132256627Y-129207038D01*
X132369853Y-129241385D01*
X132426467Y-129258558D01*
X132565087Y-129332653D01*
X132582991Y-129342223D01*
X132618729Y-129371553D01*
X132720186Y-129454815D01*
X132803448Y-129556272D01*
X132832778Y-129592010D01*
X132832779Y-129592012D01*
X132916443Y-129748534D01*
X132916443Y-129748535D01*
X132967963Y-129918374D01*
X132985359Y-130095001D01*
X132967963Y-130271628D01*
X132933616Y-130384854D01*
X132916443Y-130441468D01*
X132842348Y-130580088D01*
X132832778Y-130597992D01*
X132803448Y-130633730D01*
X132720186Y-130735187D01*
X132618729Y-130818449D01*
X132582991Y-130847779D01*
X132582989Y-130847780D01*
X132426467Y-130931444D01*
X132369853Y-130948617D01*
X132256627Y-130982964D01*
X132190442Y-130989483D01*
X132124260Y-130996001D01*
X132035740Y-130996001D01*
X131969558Y-130989483D01*
X131903373Y-130982964D01*
X131790147Y-130948617D01*
X131733533Y-130931444D01*
X131577011Y-130847780D01*
X131577009Y-130847779D01*
X131541271Y-130818449D01*
X131439814Y-130735187D01*
X131356552Y-130633730D01*
X131327222Y-130597992D01*
X131317652Y-130580088D01*
X131243557Y-130441468D01*
X131226384Y-130384854D01*
X131192037Y-130271628D01*
X131174641Y-130095001D01*
X131192037Y-129918374D01*
X131243557Y-129748535D01*
X131243557Y-129748534D01*
X131327221Y-129592012D01*
X131327222Y-129592010D01*
X131356552Y-129556272D01*
X131439814Y-129454815D01*
X131541271Y-129371553D01*
X131577009Y-129342223D01*
X131594913Y-129332653D01*
X131733533Y-129258558D01*
X131790147Y-129241385D01*
X131903373Y-129207038D01*
X131969558Y-129200519D01*
X132035740Y-129194001D01*
X132124260Y-129194001D01*
X132190442Y-129200519D01*
X132190442Y-129200519D01*
G37*
G36*
X129650442Y-129200519D02*
X129716627Y-129207038D01*
X129829853Y-129241385D01*
X129886467Y-129258558D01*
X130025087Y-129332653D01*
X130042991Y-129342223D01*
X130078729Y-129371553D01*
X130180186Y-129454815D01*
X130263448Y-129556272D01*
X130292778Y-129592010D01*
X130292779Y-129592012D01*
X130376443Y-129748534D01*
X130376443Y-129748535D01*
X130427963Y-129918374D01*
X130445359Y-130095001D01*
X130427963Y-130271628D01*
X130393616Y-130384854D01*
X130376443Y-130441468D01*
X130302348Y-130580088D01*
X130292778Y-130597992D01*
X130263448Y-130633730D01*
X130180186Y-130735187D01*
X130078729Y-130818449D01*
X130042991Y-130847779D01*
X130042989Y-130847780D01*
X129886467Y-130931444D01*
X129829853Y-130948617D01*
X129716627Y-130982964D01*
X129650442Y-130989483D01*
X129584260Y-130996001D01*
X129495740Y-130996001D01*
X129429558Y-130989483D01*
X129363373Y-130982964D01*
X129250147Y-130948617D01*
X129193533Y-130931444D01*
X129037011Y-130847780D01*
X129037009Y-130847779D01*
X129001271Y-130818449D01*
X128899814Y-130735187D01*
X128816552Y-130633730D01*
X128787222Y-130597992D01*
X128777652Y-130580088D01*
X128703557Y-130441468D01*
X128686384Y-130384854D01*
X128652037Y-130271628D01*
X128634641Y-130095001D01*
X128652037Y-129918374D01*
X128703557Y-129748535D01*
X128703557Y-129748534D01*
X128787221Y-129592012D01*
X128787222Y-129592010D01*
X128816552Y-129556272D01*
X128899814Y-129454815D01*
X129001271Y-129371553D01*
X129037009Y-129342223D01*
X129054913Y-129332653D01*
X129193533Y-129258558D01*
X129250147Y-129241385D01*
X129363373Y-129207038D01*
X129429558Y-129200519D01*
X129495740Y-129194001D01*
X129584260Y-129194001D01*
X129650442Y-129200519D01*
X129650442Y-129200519D01*
G37*
G36*
X119490442Y-129200519D02*
X119556627Y-129207038D01*
X119669853Y-129241385D01*
X119726467Y-129258558D01*
X119865087Y-129332653D01*
X119882991Y-129342223D01*
X119918729Y-129371553D01*
X120020186Y-129454815D01*
X120103448Y-129556272D01*
X120132778Y-129592010D01*
X120132779Y-129592012D01*
X120216443Y-129748534D01*
X120216443Y-129748535D01*
X120267963Y-129918374D01*
X120285359Y-130095001D01*
X120267963Y-130271628D01*
X120233616Y-130384854D01*
X120216443Y-130441468D01*
X120142348Y-130580088D01*
X120132778Y-130597992D01*
X120103448Y-130633730D01*
X120020186Y-130735187D01*
X119918729Y-130818449D01*
X119882991Y-130847779D01*
X119882989Y-130847780D01*
X119726467Y-130931444D01*
X119669853Y-130948617D01*
X119556627Y-130982964D01*
X119490442Y-130989483D01*
X119424260Y-130996001D01*
X119335740Y-130996001D01*
X119269558Y-130989483D01*
X119203373Y-130982964D01*
X119090147Y-130948617D01*
X119033533Y-130931444D01*
X118877011Y-130847780D01*
X118877009Y-130847779D01*
X118841271Y-130818449D01*
X118739814Y-130735187D01*
X118656552Y-130633730D01*
X118627222Y-130597992D01*
X118617652Y-130580088D01*
X118543557Y-130441468D01*
X118526384Y-130384854D01*
X118492037Y-130271628D01*
X118474641Y-130095001D01*
X118492037Y-129918374D01*
X118543557Y-129748535D01*
X118543557Y-129748534D01*
X118627221Y-129592012D01*
X118627222Y-129592010D01*
X118656552Y-129556272D01*
X118739814Y-129454815D01*
X118841271Y-129371553D01*
X118877009Y-129342223D01*
X118894913Y-129332653D01*
X119033533Y-129258558D01*
X119090147Y-129241385D01*
X119203373Y-129207038D01*
X119269558Y-129200519D01*
X119335740Y-129194001D01*
X119424260Y-129194001D01*
X119490442Y-129200519D01*
X119490442Y-129200519D01*
G37*
G36*
X137270442Y-126660519D02*
X137336627Y-126667038D01*
X137449853Y-126701385D01*
X137506467Y-126718558D01*
X137645087Y-126792653D01*
X137662991Y-126802223D01*
X137698729Y-126831553D01*
X137800186Y-126914815D01*
X137883448Y-127016272D01*
X137912778Y-127052010D01*
X137912779Y-127052012D01*
X137996443Y-127208534D01*
X137996443Y-127208535D01*
X138047963Y-127378374D01*
X138065359Y-127555001D01*
X138047963Y-127731628D01*
X138013616Y-127844854D01*
X137996443Y-127901468D01*
X137922348Y-128040088D01*
X137912778Y-128057992D01*
X137883448Y-128093730D01*
X137800186Y-128195187D01*
X137698729Y-128278449D01*
X137662991Y-128307779D01*
X137662989Y-128307780D01*
X137506467Y-128391444D01*
X137449853Y-128408617D01*
X137336627Y-128442964D01*
X137270442Y-128449483D01*
X137204260Y-128456001D01*
X137115740Y-128456001D01*
X137049558Y-128449483D01*
X136983373Y-128442964D01*
X136870147Y-128408617D01*
X136813533Y-128391444D01*
X136657011Y-128307780D01*
X136657009Y-128307779D01*
X136621271Y-128278449D01*
X136519814Y-128195187D01*
X136436552Y-128093730D01*
X136407222Y-128057992D01*
X136397652Y-128040088D01*
X136323557Y-127901468D01*
X136306384Y-127844854D01*
X136272037Y-127731628D01*
X136254641Y-127555001D01*
X136272037Y-127378374D01*
X136323557Y-127208535D01*
X136323557Y-127208534D01*
X136407221Y-127052012D01*
X136407222Y-127052010D01*
X136436552Y-127016272D01*
X136519814Y-126914815D01*
X136621271Y-126831553D01*
X136657009Y-126802223D01*
X136674913Y-126792653D01*
X136813533Y-126718558D01*
X136870147Y-126701385D01*
X136983373Y-126667038D01*
X137049558Y-126660519D01*
X137115740Y-126654001D01*
X137204260Y-126654001D01*
X137270442Y-126660519D01*
X137270442Y-126660519D01*
G37*
G36*
X122030442Y-126660519D02*
X122096627Y-126667038D01*
X122209853Y-126701385D01*
X122266467Y-126718558D01*
X122405087Y-126792653D01*
X122422991Y-126802223D01*
X122458729Y-126831553D01*
X122560186Y-126914815D01*
X122643448Y-127016272D01*
X122672778Y-127052010D01*
X122672779Y-127052012D01*
X122756443Y-127208534D01*
X122756443Y-127208535D01*
X122807963Y-127378374D01*
X122825359Y-127555001D01*
X122807963Y-127731628D01*
X122773616Y-127844854D01*
X122756443Y-127901468D01*
X122682348Y-128040088D01*
X122672778Y-128057992D01*
X122643448Y-128093730D01*
X122560186Y-128195187D01*
X122458729Y-128278449D01*
X122422991Y-128307779D01*
X122422989Y-128307780D01*
X122266467Y-128391444D01*
X122209853Y-128408617D01*
X122096627Y-128442964D01*
X122030442Y-128449483D01*
X121964260Y-128456001D01*
X121875740Y-128456001D01*
X121809558Y-128449483D01*
X121743373Y-128442964D01*
X121630147Y-128408617D01*
X121573533Y-128391444D01*
X121417011Y-128307780D01*
X121417009Y-128307779D01*
X121381271Y-128278449D01*
X121279814Y-128195187D01*
X121196552Y-128093730D01*
X121167222Y-128057992D01*
X121157652Y-128040088D01*
X121083557Y-127901468D01*
X121066384Y-127844854D01*
X121032037Y-127731628D01*
X121014641Y-127555001D01*
X121032037Y-127378374D01*
X121083557Y-127208535D01*
X121083557Y-127208534D01*
X121167221Y-127052012D01*
X121167222Y-127052010D01*
X121196552Y-127016272D01*
X121279814Y-126914815D01*
X121381271Y-126831553D01*
X121417009Y-126802223D01*
X121434913Y-126792653D01*
X121573533Y-126718558D01*
X121630147Y-126701385D01*
X121743373Y-126667038D01*
X121809558Y-126660519D01*
X121875740Y-126654001D01*
X121964260Y-126654001D01*
X122030442Y-126660519D01*
X122030442Y-126660519D01*
G37*
G36*
X119490442Y-126660519D02*
X119556627Y-126667038D01*
X119669853Y-126701385D01*
X119726467Y-126718558D01*
X119865087Y-126792653D01*
X119882991Y-126802223D01*
X119918729Y-126831553D01*
X120020186Y-126914815D01*
X120103448Y-127016272D01*
X120132778Y-127052010D01*
X120132779Y-127052012D01*
X120216443Y-127208534D01*
X120216443Y-127208535D01*
X120267963Y-127378374D01*
X120285359Y-127555001D01*
X120267963Y-127731628D01*
X120233616Y-127844854D01*
X120216443Y-127901468D01*
X120142348Y-128040088D01*
X120132778Y-128057992D01*
X120103448Y-128093730D01*
X120020186Y-128195187D01*
X119918729Y-128278449D01*
X119882991Y-128307779D01*
X119882989Y-128307780D01*
X119726467Y-128391444D01*
X119669853Y-128408617D01*
X119556627Y-128442964D01*
X119490442Y-128449483D01*
X119424260Y-128456001D01*
X119335740Y-128456001D01*
X119269558Y-128449483D01*
X119203373Y-128442964D01*
X119090147Y-128408617D01*
X119033533Y-128391444D01*
X118877011Y-128307780D01*
X118877009Y-128307779D01*
X118841271Y-128278449D01*
X118739814Y-128195187D01*
X118656552Y-128093730D01*
X118627222Y-128057992D01*
X118617652Y-128040088D01*
X118543557Y-127901468D01*
X118526384Y-127844854D01*
X118492037Y-127731628D01*
X118474641Y-127555001D01*
X118492037Y-127378374D01*
X118543557Y-127208535D01*
X118543557Y-127208534D01*
X118627221Y-127052012D01*
X118627222Y-127052010D01*
X118656552Y-127016272D01*
X118739814Y-126914815D01*
X118841271Y-126831553D01*
X118877009Y-126802223D01*
X118894913Y-126792653D01*
X119033533Y-126718558D01*
X119090147Y-126701385D01*
X119203373Y-126667038D01*
X119269558Y-126660519D01*
X119335740Y-126654001D01*
X119424260Y-126654001D01*
X119490442Y-126660519D01*
X119490442Y-126660519D01*
G37*
G36*
X129650442Y-126660519D02*
X129716627Y-126667038D01*
X129829853Y-126701385D01*
X129886467Y-126718558D01*
X130025087Y-126792653D01*
X130042991Y-126802223D01*
X130078729Y-126831553D01*
X130180186Y-126914815D01*
X130263448Y-127016272D01*
X130292778Y-127052010D01*
X130292779Y-127052012D01*
X130376443Y-127208534D01*
X130376443Y-127208535D01*
X130427963Y-127378374D01*
X130445359Y-127555001D01*
X130427963Y-127731628D01*
X130393616Y-127844854D01*
X130376443Y-127901468D01*
X130302348Y-128040088D01*
X130292778Y-128057992D01*
X130263448Y-128093730D01*
X130180186Y-128195187D01*
X130078729Y-128278449D01*
X130042991Y-128307779D01*
X130042989Y-128307780D01*
X129886467Y-128391444D01*
X129829853Y-128408617D01*
X129716627Y-128442964D01*
X129650442Y-128449483D01*
X129584260Y-128456001D01*
X129495740Y-128456001D01*
X129429558Y-128449483D01*
X129363373Y-128442964D01*
X129250147Y-128408617D01*
X129193533Y-128391444D01*
X129037011Y-128307780D01*
X129037009Y-128307779D01*
X129001271Y-128278449D01*
X128899814Y-128195187D01*
X128816552Y-128093730D01*
X128787222Y-128057992D01*
X128777652Y-128040088D01*
X128703557Y-127901468D01*
X128686384Y-127844854D01*
X128652037Y-127731628D01*
X128634641Y-127555001D01*
X128652037Y-127378374D01*
X128703557Y-127208535D01*
X128703557Y-127208534D01*
X128787221Y-127052012D01*
X128787222Y-127052010D01*
X128816552Y-127016272D01*
X128899814Y-126914815D01*
X129001271Y-126831553D01*
X129037009Y-126802223D01*
X129054913Y-126792653D01*
X129193533Y-126718558D01*
X129250147Y-126701385D01*
X129363373Y-126667038D01*
X129429558Y-126660519D01*
X129495740Y-126654001D01*
X129584260Y-126654001D01*
X129650442Y-126660519D01*
X129650442Y-126660519D01*
G37*
G36*
X132190442Y-126660519D02*
X132256627Y-126667038D01*
X132369853Y-126701385D01*
X132426467Y-126718558D01*
X132565087Y-126792653D01*
X132582991Y-126802223D01*
X132618729Y-126831553D01*
X132720186Y-126914815D01*
X132803448Y-127016272D01*
X132832778Y-127052010D01*
X132832779Y-127052012D01*
X132916443Y-127208534D01*
X132916443Y-127208535D01*
X132967963Y-127378374D01*
X132985359Y-127555001D01*
X132967963Y-127731628D01*
X132933616Y-127844854D01*
X132916443Y-127901468D01*
X132842348Y-128040088D01*
X132832778Y-128057992D01*
X132803448Y-128093730D01*
X132720186Y-128195187D01*
X132618729Y-128278449D01*
X132582991Y-128307779D01*
X132582989Y-128307780D01*
X132426467Y-128391444D01*
X132369853Y-128408617D01*
X132256627Y-128442964D01*
X132190442Y-128449483D01*
X132124260Y-128456001D01*
X132035740Y-128456001D01*
X131969558Y-128449483D01*
X131903373Y-128442964D01*
X131790147Y-128408617D01*
X131733533Y-128391444D01*
X131577011Y-128307780D01*
X131577009Y-128307779D01*
X131541271Y-128278449D01*
X131439814Y-128195187D01*
X131356552Y-128093730D01*
X131327222Y-128057992D01*
X131317652Y-128040088D01*
X131243557Y-127901468D01*
X131226384Y-127844854D01*
X131192037Y-127731628D01*
X131174641Y-127555001D01*
X131192037Y-127378374D01*
X131243557Y-127208535D01*
X131243557Y-127208534D01*
X131327221Y-127052012D01*
X131327222Y-127052010D01*
X131356552Y-127016272D01*
X131439814Y-126914815D01*
X131541271Y-126831553D01*
X131577009Y-126802223D01*
X131594913Y-126792653D01*
X131733533Y-126718558D01*
X131790147Y-126701385D01*
X131903373Y-126667038D01*
X131969558Y-126660519D01*
X132035740Y-126654001D01*
X132124260Y-126654001D01*
X132190442Y-126660519D01*
X132190442Y-126660519D01*
G37*
G36*
X134730442Y-126660519D02*
X134796627Y-126667038D01*
X134909853Y-126701385D01*
X134966467Y-126718558D01*
X135105087Y-126792653D01*
X135122991Y-126802223D01*
X135158729Y-126831553D01*
X135260186Y-126914815D01*
X135343448Y-127016272D01*
X135372778Y-127052010D01*
X135372779Y-127052012D01*
X135456443Y-127208534D01*
X135456443Y-127208535D01*
X135507963Y-127378374D01*
X135525359Y-127555001D01*
X135507963Y-127731628D01*
X135473616Y-127844854D01*
X135456443Y-127901468D01*
X135382348Y-128040088D01*
X135372778Y-128057992D01*
X135343448Y-128093730D01*
X135260186Y-128195187D01*
X135158729Y-128278449D01*
X135122991Y-128307779D01*
X135122989Y-128307780D01*
X134966467Y-128391444D01*
X134909853Y-128408617D01*
X134796627Y-128442964D01*
X134730442Y-128449483D01*
X134664260Y-128456001D01*
X134575740Y-128456001D01*
X134509558Y-128449483D01*
X134443373Y-128442964D01*
X134330147Y-128408617D01*
X134273533Y-128391444D01*
X134117011Y-128307780D01*
X134117009Y-128307779D01*
X134081271Y-128278449D01*
X133979814Y-128195187D01*
X133896552Y-128093730D01*
X133867222Y-128057992D01*
X133857652Y-128040088D01*
X133783557Y-127901468D01*
X133766384Y-127844854D01*
X133732037Y-127731628D01*
X133714641Y-127555001D01*
X133732037Y-127378374D01*
X133783557Y-127208535D01*
X133783557Y-127208534D01*
X133867221Y-127052012D01*
X133867222Y-127052010D01*
X133896552Y-127016272D01*
X133979814Y-126914815D01*
X134081271Y-126831553D01*
X134117009Y-126802223D01*
X134134913Y-126792653D01*
X134273533Y-126718558D01*
X134330147Y-126701385D01*
X134443373Y-126667038D01*
X134509558Y-126660519D01*
X134575740Y-126654001D01*
X134664260Y-126654001D01*
X134730442Y-126660519D01*
X134730442Y-126660519D01*
G37*
G36*
X134730443Y-124120520D02*
X134796627Y-124127038D01*
X134909853Y-124161385D01*
X134966467Y-124178558D01*
X135105087Y-124252653D01*
X135122991Y-124262223D01*
X135158729Y-124291553D01*
X135260186Y-124374815D01*
X135343448Y-124476272D01*
X135372778Y-124512010D01*
X135372779Y-124512012D01*
X135456443Y-124668534D01*
X135456443Y-124668535D01*
X135507963Y-124838374D01*
X135525359Y-125015001D01*
X135507963Y-125191628D01*
X135473616Y-125304854D01*
X135456443Y-125361468D01*
X135382348Y-125500088D01*
X135372778Y-125517992D01*
X135343448Y-125553730D01*
X135260186Y-125655187D01*
X135158729Y-125738449D01*
X135122991Y-125767779D01*
X135122989Y-125767780D01*
X134966467Y-125851444D01*
X134909853Y-125868617D01*
X134796627Y-125902964D01*
X134730442Y-125909483D01*
X134664260Y-125916001D01*
X134575740Y-125916001D01*
X134509558Y-125909483D01*
X134443373Y-125902964D01*
X134330147Y-125868617D01*
X134273533Y-125851444D01*
X134117011Y-125767780D01*
X134117009Y-125767779D01*
X134081271Y-125738449D01*
X133979814Y-125655187D01*
X133896552Y-125553730D01*
X133867222Y-125517992D01*
X133857652Y-125500088D01*
X133783557Y-125361468D01*
X133766384Y-125304854D01*
X133732037Y-125191628D01*
X133714641Y-125015001D01*
X133732037Y-124838374D01*
X133783557Y-124668535D01*
X133783557Y-124668534D01*
X133867221Y-124512012D01*
X133867222Y-124512010D01*
X133896552Y-124476272D01*
X133979814Y-124374815D01*
X134081271Y-124291553D01*
X134117009Y-124262223D01*
X134134913Y-124252653D01*
X134273533Y-124178558D01*
X134330147Y-124161385D01*
X134443373Y-124127038D01*
X134509557Y-124120520D01*
X134575740Y-124114001D01*
X134664260Y-124114001D01*
X134730443Y-124120520D01*
X134730443Y-124120520D01*
G37*
G36*
X137270443Y-124120520D02*
X137336627Y-124127038D01*
X137449853Y-124161385D01*
X137506467Y-124178558D01*
X137645087Y-124252653D01*
X137662991Y-124262223D01*
X137698729Y-124291553D01*
X137800186Y-124374815D01*
X137883448Y-124476272D01*
X137912778Y-124512010D01*
X137912779Y-124512012D01*
X137996443Y-124668534D01*
X137996443Y-124668535D01*
X138047963Y-124838374D01*
X138065359Y-125015001D01*
X138047963Y-125191628D01*
X138013616Y-125304854D01*
X137996443Y-125361468D01*
X137922348Y-125500088D01*
X137912778Y-125517992D01*
X137883448Y-125553730D01*
X137800186Y-125655187D01*
X137698729Y-125738449D01*
X137662991Y-125767779D01*
X137662989Y-125767780D01*
X137506467Y-125851444D01*
X137449853Y-125868617D01*
X137336627Y-125902964D01*
X137270442Y-125909483D01*
X137204260Y-125916001D01*
X137115740Y-125916001D01*
X137049558Y-125909483D01*
X136983373Y-125902964D01*
X136870147Y-125868617D01*
X136813533Y-125851444D01*
X136657011Y-125767780D01*
X136657009Y-125767779D01*
X136621271Y-125738449D01*
X136519814Y-125655187D01*
X136436552Y-125553730D01*
X136407222Y-125517992D01*
X136397652Y-125500088D01*
X136323557Y-125361468D01*
X136306384Y-125304854D01*
X136272037Y-125191628D01*
X136254641Y-125015001D01*
X136272037Y-124838374D01*
X136323557Y-124668535D01*
X136323557Y-124668534D01*
X136407221Y-124512012D01*
X136407222Y-124512010D01*
X136436552Y-124476272D01*
X136519814Y-124374815D01*
X136621271Y-124291553D01*
X136657009Y-124262223D01*
X136674913Y-124252653D01*
X136813533Y-124178558D01*
X136870147Y-124161385D01*
X136983373Y-124127038D01*
X137049557Y-124120520D01*
X137115740Y-124114001D01*
X137204260Y-124114001D01*
X137270443Y-124120520D01*
X137270443Y-124120520D01*
G37*
G36*
X132190443Y-124120520D02*
X132256627Y-124127038D01*
X132369853Y-124161385D01*
X132426467Y-124178558D01*
X132565087Y-124252653D01*
X132582991Y-124262223D01*
X132618729Y-124291553D01*
X132720186Y-124374815D01*
X132803448Y-124476272D01*
X132832778Y-124512010D01*
X132832779Y-124512012D01*
X132916443Y-124668534D01*
X132916443Y-124668535D01*
X132967963Y-124838374D01*
X132985359Y-125015001D01*
X132967963Y-125191628D01*
X132933616Y-125304854D01*
X132916443Y-125361468D01*
X132842348Y-125500088D01*
X132832778Y-125517992D01*
X132803448Y-125553730D01*
X132720186Y-125655187D01*
X132618729Y-125738449D01*
X132582991Y-125767779D01*
X132582989Y-125767780D01*
X132426467Y-125851444D01*
X132369853Y-125868617D01*
X132256627Y-125902964D01*
X132190442Y-125909483D01*
X132124260Y-125916001D01*
X132035740Y-125916001D01*
X131969558Y-125909483D01*
X131903373Y-125902964D01*
X131790147Y-125868617D01*
X131733533Y-125851444D01*
X131577011Y-125767780D01*
X131577009Y-125767779D01*
X131541271Y-125738449D01*
X131439814Y-125655187D01*
X131356552Y-125553730D01*
X131327222Y-125517992D01*
X131317652Y-125500088D01*
X131243557Y-125361468D01*
X131226384Y-125304854D01*
X131192037Y-125191628D01*
X131174641Y-125015001D01*
X131192037Y-124838374D01*
X131243557Y-124668535D01*
X131243557Y-124668534D01*
X131327221Y-124512012D01*
X131327222Y-124512010D01*
X131356552Y-124476272D01*
X131439814Y-124374815D01*
X131541271Y-124291553D01*
X131577009Y-124262223D01*
X131594913Y-124252653D01*
X131733533Y-124178558D01*
X131790147Y-124161385D01*
X131903373Y-124127038D01*
X131969557Y-124120520D01*
X132035740Y-124114001D01*
X132124260Y-124114001D01*
X132190443Y-124120520D01*
X132190443Y-124120520D01*
G37*
G36*
X129650443Y-124120520D02*
X129716627Y-124127038D01*
X129829853Y-124161385D01*
X129886467Y-124178558D01*
X130025087Y-124252653D01*
X130042991Y-124262223D01*
X130078729Y-124291553D01*
X130180186Y-124374815D01*
X130263448Y-124476272D01*
X130292778Y-124512010D01*
X130292779Y-124512012D01*
X130376443Y-124668534D01*
X130376443Y-124668535D01*
X130427963Y-124838374D01*
X130445359Y-125015001D01*
X130427963Y-125191628D01*
X130393616Y-125304854D01*
X130376443Y-125361468D01*
X130302348Y-125500088D01*
X130292778Y-125517992D01*
X130263448Y-125553730D01*
X130180186Y-125655187D01*
X130078729Y-125738449D01*
X130042991Y-125767779D01*
X130042989Y-125767780D01*
X129886467Y-125851444D01*
X129829853Y-125868617D01*
X129716627Y-125902964D01*
X129650442Y-125909483D01*
X129584260Y-125916001D01*
X129495740Y-125916001D01*
X129429558Y-125909483D01*
X129363373Y-125902964D01*
X129250147Y-125868617D01*
X129193533Y-125851444D01*
X129037011Y-125767780D01*
X129037009Y-125767779D01*
X129001271Y-125738449D01*
X128899814Y-125655187D01*
X128816552Y-125553730D01*
X128787222Y-125517992D01*
X128777652Y-125500088D01*
X128703557Y-125361468D01*
X128686384Y-125304854D01*
X128652037Y-125191628D01*
X128634641Y-125015001D01*
X128652037Y-124838374D01*
X128703557Y-124668535D01*
X128703557Y-124668534D01*
X128787221Y-124512012D01*
X128787222Y-124512010D01*
X128816552Y-124476272D01*
X128899814Y-124374815D01*
X129001271Y-124291553D01*
X129037009Y-124262223D01*
X129054913Y-124252653D01*
X129193533Y-124178558D01*
X129250147Y-124161385D01*
X129363373Y-124127038D01*
X129429557Y-124120520D01*
X129495740Y-124114001D01*
X129584260Y-124114001D01*
X129650443Y-124120520D01*
X129650443Y-124120520D01*
G37*
G36*
X122030443Y-124120520D02*
X122096627Y-124127038D01*
X122209853Y-124161385D01*
X122266467Y-124178558D01*
X122405087Y-124252653D01*
X122422991Y-124262223D01*
X122458729Y-124291553D01*
X122560186Y-124374815D01*
X122643448Y-124476272D01*
X122672778Y-124512010D01*
X122672779Y-124512012D01*
X122756443Y-124668534D01*
X122756443Y-124668535D01*
X122807963Y-124838374D01*
X122825359Y-125015001D01*
X122807963Y-125191628D01*
X122773616Y-125304854D01*
X122756443Y-125361468D01*
X122682348Y-125500088D01*
X122672778Y-125517992D01*
X122643448Y-125553730D01*
X122560186Y-125655187D01*
X122458729Y-125738449D01*
X122422991Y-125767779D01*
X122422989Y-125767780D01*
X122266467Y-125851444D01*
X122209853Y-125868617D01*
X122096627Y-125902964D01*
X122030442Y-125909483D01*
X121964260Y-125916001D01*
X121875740Y-125916001D01*
X121809558Y-125909483D01*
X121743373Y-125902964D01*
X121630147Y-125868617D01*
X121573533Y-125851444D01*
X121417011Y-125767780D01*
X121417009Y-125767779D01*
X121381271Y-125738449D01*
X121279814Y-125655187D01*
X121196552Y-125553730D01*
X121167222Y-125517992D01*
X121157652Y-125500088D01*
X121083557Y-125361468D01*
X121066384Y-125304854D01*
X121032037Y-125191628D01*
X121014641Y-125015001D01*
X121032037Y-124838374D01*
X121083557Y-124668535D01*
X121083557Y-124668534D01*
X121167221Y-124512012D01*
X121167222Y-124512010D01*
X121196552Y-124476272D01*
X121279814Y-124374815D01*
X121381271Y-124291553D01*
X121417009Y-124262223D01*
X121434913Y-124252653D01*
X121573533Y-124178558D01*
X121630147Y-124161385D01*
X121743373Y-124127038D01*
X121809557Y-124120520D01*
X121875740Y-124114001D01*
X121964260Y-124114001D01*
X122030443Y-124120520D01*
X122030443Y-124120520D01*
G37*
G36*
X119490443Y-124120520D02*
X119556627Y-124127038D01*
X119669853Y-124161385D01*
X119726467Y-124178558D01*
X119865087Y-124252653D01*
X119882991Y-124262223D01*
X119918729Y-124291553D01*
X120020186Y-124374815D01*
X120103448Y-124476272D01*
X120132778Y-124512010D01*
X120132779Y-124512012D01*
X120216443Y-124668534D01*
X120216443Y-124668535D01*
X120267963Y-124838374D01*
X120285359Y-125015001D01*
X120267963Y-125191628D01*
X120233616Y-125304854D01*
X120216443Y-125361468D01*
X120142348Y-125500088D01*
X120132778Y-125517992D01*
X120103448Y-125553730D01*
X120020186Y-125655187D01*
X119918729Y-125738449D01*
X119882991Y-125767779D01*
X119882989Y-125767780D01*
X119726467Y-125851444D01*
X119669853Y-125868617D01*
X119556627Y-125902964D01*
X119490442Y-125909483D01*
X119424260Y-125916001D01*
X119335740Y-125916001D01*
X119269558Y-125909483D01*
X119203373Y-125902964D01*
X119090147Y-125868617D01*
X119033533Y-125851444D01*
X118877011Y-125767780D01*
X118877009Y-125767779D01*
X118841271Y-125738449D01*
X118739814Y-125655187D01*
X118656552Y-125553730D01*
X118627222Y-125517992D01*
X118617652Y-125500088D01*
X118543557Y-125361468D01*
X118526384Y-125304854D01*
X118492037Y-125191628D01*
X118474641Y-125015001D01*
X118492037Y-124838374D01*
X118543557Y-124668535D01*
X118543557Y-124668534D01*
X118627221Y-124512012D01*
X118627222Y-124512010D01*
X118656552Y-124476272D01*
X118739814Y-124374815D01*
X118841271Y-124291553D01*
X118877009Y-124262223D01*
X118894913Y-124252653D01*
X119033533Y-124178558D01*
X119090147Y-124161385D01*
X119203373Y-124127038D01*
X119269557Y-124120520D01*
X119335740Y-124114001D01*
X119424260Y-124114001D01*
X119490443Y-124120520D01*
X119490443Y-124120520D01*
G37*
G36*
X134730442Y-121580519D02*
X134796627Y-121587038D01*
X134909853Y-121621385D01*
X134966467Y-121638558D01*
X135105087Y-121712653D01*
X135122991Y-121722223D01*
X135158729Y-121751553D01*
X135260186Y-121834815D01*
X135343448Y-121936272D01*
X135372778Y-121972010D01*
X135372779Y-121972012D01*
X135456443Y-122128534D01*
X135456443Y-122128535D01*
X135507963Y-122298374D01*
X135525359Y-122475001D01*
X135507963Y-122651628D01*
X135473616Y-122764854D01*
X135456443Y-122821468D01*
X135382348Y-122960088D01*
X135372778Y-122977992D01*
X135343448Y-123013730D01*
X135260186Y-123115187D01*
X135158729Y-123198449D01*
X135122991Y-123227779D01*
X135122989Y-123227780D01*
X134966467Y-123311444D01*
X134909853Y-123328617D01*
X134796627Y-123362964D01*
X134730442Y-123369483D01*
X134664260Y-123376001D01*
X134575740Y-123376001D01*
X134509558Y-123369483D01*
X134443373Y-123362964D01*
X134330147Y-123328617D01*
X134273533Y-123311444D01*
X134117011Y-123227780D01*
X134117009Y-123227779D01*
X134081271Y-123198449D01*
X133979814Y-123115187D01*
X133896552Y-123013730D01*
X133867222Y-122977992D01*
X133857652Y-122960088D01*
X133783557Y-122821468D01*
X133766384Y-122764854D01*
X133732037Y-122651628D01*
X133714641Y-122475001D01*
X133732037Y-122298374D01*
X133783557Y-122128535D01*
X133783557Y-122128534D01*
X133867221Y-121972012D01*
X133867222Y-121972010D01*
X133896552Y-121936272D01*
X133979814Y-121834815D01*
X134081271Y-121751553D01*
X134117009Y-121722223D01*
X134134913Y-121712653D01*
X134273533Y-121638558D01*
X134330147Y-121621385D01*
X134443373Y-121587038D01*
X134509558Y-121580519D01*
X134575740Y-121574001D01*
X134664260Y-121574001D01*
X134730442Y-121580519D01*
X134730442Y-121580519D01*
G37*
G36*
X137270442Y-121580519D02*
X137336627Y-121587038D01*
X137449853Y-121621385D01*
X137506467Y-121638558D01*
X137645087Y-121712653D01*
X137662991Y-121722223D01*
X137698729Y-121751553D01*
X137800186Y-121834815D01*
X137883448Y-121936272D01*
X137912778Y-121972010D01*
X137912779Y-121972012D01*
X137996443Y-122128534D01*
X137996443Y-122128535D01*
X138047963Y-122298374D01*
X138065359Y-122475001D01*
X138047963Y-122651628D01*
X138013616Y-122764854D01*
X137996443Y-122821468D01*
X137922348Y-122960088D01*
X137912778Y-122977992D01*
X137883448Y-123013730D01*
X137800186Y-123115187D01*
X137698729Y-123198449D01*
X137662991Y-123227779D01*
X137662989Y-123227780D01*
X137506467Y-123311444D01*
X137449853Y-123328617D01*
X137336627Y-123362964D01*
X137270442Y-123369483D01*
X137204260Y-123376001D01*
X137115740Y-123376001D01*
X137049558Y-123369483D01*
X136983373Y-123362964D01*
X136870147Y-123328617D01*
X136813533Y-123311444D01*
X136657011Y-123227780D01*
X136657009Y-123227779D01*
X136621271Y-123198449D01*
X136519814Y-123115187D01*
X136436552Y-123013730D01*
X136407222Y-122977992D01*
X136397652Y-122960088D01*
X136323557Y-122821468D01*
X136306384Y-122764854D01*
X136272037Y-122651628D01*
X136254641Y-122475001D01*
X136272037Y-122298374D01*
X136323557Y-122128535D01*
X136323557Y-122128534D01*
X136407221Y-121972012D01*
X136407222Y-121972010D01*
X136436552Y-121936272D01*
X136519814Y-121834815D01*
X136621271Y-121751553D01*
X136657009Y-121722223D01*
X136674913Y-121712653D01*
X136813533Y-121638558D01*
X136870147Y-121621385D01*
X136983373Y-121587038D01*
X137049558Y-121580519D01*
X137115740Y-121574001D01*
X137204260Y-121574001D01*
X137270442Y-121580519D01*
X137270442Y-121580519D01*
G37*
G36*
X119490442Y-121580519D02*
X119556627Y-121587038D01*
X119669853Y-121621385D01*
X119726467Y-121638558D01*
X119865087Y-121712653D01*
X119882991Y-121722223D01*
X119918729Y-121751553D01*
X120020186Y-121834815D01*
X120103448Y-121936272D01*
X120132778Y-121972010D01*
X120132779Y-121972012D01*
X120216443Y-122128534D01*
X120216443Y-122128535D01*
X120267963Y-122298374D01*
X120285359Y-122475001D01*
X120267963Y-122651628D01*
X120233616Y-122764854D01*
X120216443Y-122821468D01*
X120142348Y-122960088D01*
X120132778Y-122977992D01*
X120103448Y-123013730D01*
X120020186Y-123115187D01*
X119918729Y-123198449D01*
X119882991Y-123227779D01*
X119882989Y-123227780D01*
X119726467Y-123311444D01*
X119669853Y-123328617D01*
X119556627Y-123362964D01*
X119490442Y-123369483D01*
X119424260Y-123376001D01*
X119335740Y-123376001D01*
X119269558Y-123369483D01*
X119203373Y-123362964D01*
X119090147Y-123328617D01*
X119033533Y-123311444D01*
X118877011Y-123227780D01*
X118877009Y-123227779D01*
X118841271Y-123198449D01*
X118739814Y-123115187D01*
X118656552Y-123013730D01*
X118627222Y-122977992D01*
X118617652Y-122960088D01*
X118543557Y-122821468D01*
X118526384Y-122764854D01*
X118492037Y-122651628D01*
X118474641Y-122475001D01*
X118492037Y-122298374D01*
X118543557Y-122128535D01*
X118543557Y-122128534D01*
X118627221Y-121972012D01*
X118627222Y-121972010D01*
X118656552Y-121936272D01*
X118739814Y-121834815D01*
X118841271Y-121751553D01*
X118877009Y-121722223D01*
X118894913Y-121712653D01*
X119033533Y-121638558D01*
X119090147Y-121621385D01*
X119203373Y-121587038D01*
X119269558Y-121580519D01*
X119335740Y-121574001D01*
X119424260Y-121574001D01*
X119490442Y-121580519D01*
X119490442Y-121580519D01*
G37*
G36*
X122030442Y-121580519D02*
X122096627Y-121587038D01*
X122209853Y-121621385D01*
X122266467Y-121638558D01*
X122405087Y-121712653D01*
X122422991Y-121722223D01*
X122458729Y-121751553D01*
X122560186Y-121834815D01*
X122643448Y-121936272D01*
X122672778Y-121972010D01*
X122672779Y-121972012D01*
X122756443Y-122128534D01*
X122756443Y-122128535D01*
X122807963Y-122298374D01*
X122825359Y-122475001D01*
X122807963Y-122651628D01*
X122773616Y-122764854D01*
X122756443Y-122821468D01*
X122682348Y-122960088D01*
X122672778Y-122977992D01*
X122643448Y-123013730D01*
X122560186Y-123115187D01*
X122458729Y-123198449D01*
X122422991Y-123227779D01*
X122422989Y-123227780D01*
X122266467Y-123311444D01*
X122209853Y-123328617D01*
X122096627Y-123362964D01*
X122030442Y-123369483D01*
X121964260Y-123376001D01*
X121875740Y-123376001D01*
X121809558Y-123369483D01*
X121743373Y-123362964D01*
X121630147Y-123328617D01*
X121573533Y-123311444D01*
X121417011Y-123227780D01*
X121417009Y-123227779D01*
X121381271Y-123198449D01*
X121279814Y-123115187D01*
X121196552Y-123013730D01*
X121167222Y-122977992D01*
X121157652Y-122960088D01*
X121083557Y-122821468D01*
X121066384Y-122764854D01*
X121032037Y-122651628D01*
X121014641Y-122475001D01*
X121032037Y-122298374D01*
X121083557Y-122128535D01*
X121083557Y-122128534D01*
X121167221Y-121972012D01*
X121167222Y-121972010D01*
X121196552Y-121936272D01*
X121279814Y-121834815D01*
X121381271Y-121751553D01*
X121417009Y-121722223D01*
X121434913Y-121712653D01*
X121573533Y-121638558D01*
X121630147Y-121621385D01*
X121743373Y-121587038D01*
X121809558Y-121580519D01*
X121875740Y-121574001D01*
X121964260Y-121574001D01*
X122030442Y-121580519D01*
X122030442Y-121580519D01*
G37*
G36*
X132190442Y-121580519D02*
X132256627Y-121587038D01*
X132369853Y-121621385D01*
X132426467Y-121638558D01*
X132565087Y-121712653D01*
X132582991Y-121722223D01*
X132618729Y-121751553D01*
X132720186Y-121834815D01*
X132803448Y-121936272D01*
X132832778Y-121972010D01*
X132832779Y-121972012D01*
X132916443Y-122128534D01*
X132916443Y-122128535D01*
X132967963Y-122298374D01*
X132985359Y-122475001D01*
X132967963Y-122651628D01*
X132933616Y-122764854D01*
X132916443Y-122821468D01*
X132842348Y-122960088D01*
X132832778Y-122977992D01*
X132803448Y-123013730D01*
X132720186Y-123115187D01*
X132618729Y-123198449D01*
X132582991Y-123227779D01*
X132582989Y-123227780D01*
X132426467Y-123311444D01*
X132369853Y-123328617D01*
X132256627Y-123362964D01*
X132190442Y-123369483D01*
X132124260Y-123376001D01*
X132035740Y-123376001D01*
X131969558Y-123369483D01*
X131903373Y-123362964D01*
X131790147Y-123328617D01*
X131733533Y-123311444D01*
X131577011Y-123227780D01*
X131577009Y-123227779D01*
X131541271Y-123198449D01*
X131439814Y-123115187D01*
X131356552Y-123013730D01*
X131327222Y-122977992D01*
X131317652Y-122960088D01*
X131243557Y-122821468D01*
X131226384Y-122764854D01*
X131192037Y-122651628D01*
X131174641Y-122475001D01*
X131192037Y-122298374D01*
X131243557Y-122128535D01*
X131243557Y-122128534D01*
X131327221Y-121972012D01*
X131327222Y-121972010D01*
X131356552Y-121936272D01*
X131439814Y-121834815D01*
X131541271Y-121751553D01*
X131577009Y-121722223D01*
X131594913Y-121712653D01*
X131733533Y-121638558D01*
X131790147Y-121621385D01*
X131903373Y-121587038D01*
X131969558Y-121580519D01*
X132035740Y-121574001D01*
X132124260Y-121574001D01*
X132190442Y-121580519D01*
X132190442Y-121580519D01*
G37*
G36*
X129650442Y-121580519D02*
X129716627Y-121587038D01*
X129829853Y-121621385D01*
X129886467Y-121638558D01*
X130025087Y-121712653D01*
X130042991Y-121722223D01*
X130078729Y-121751553D01*
X130180186Y-121834815D01*
X130263448Y-121936272D01*
X130292778Y-121972010D01*
X130292779Y-121972012D01*
X130376443Y-122128534D01*
X130376443Y-122128535D01*
X130427963Y-122298374D01*
X130445359Y-122475001D01*
X130427963Y-122651628D01*
X130393616Y-122764854D01*
X130376443Y-122821468D01*
X130302348Y-122960088D01*
X130292778Y-122977992D01*
X130263448Y-123013730D01*
X130180186Y-123115187D01*
X130078729Y-123198449D01*
X130042991Y-123227779D01*
X130042989Y-123227780D01*
X129886467Y-123311444D01*
X129829853Y-123328617D01*
X129716627Y-123362964D01*
X129650442Y-123369483D01*
X129584260Y-123376001D01*
X129495740Y-123376001D01*
X129429558Y-123369483D01*
X129363373Y-123362964D01*
X129250147Y-123328617D01*
X129193533Y-123311444D01*
X129037011Y-123227780D01*
X129037009Y-123227779D01*
X129001271Y-123198449D01*
X128899814Y-123115187D01*
X128816552Y-123013730D01*
X128787222Y-122977992D01*
X128777652Y-122960088D01*
X128703557Y-122821468D01*
X128686384Y-122764854D01*
X128652037Y-122651628D01*
X128634641Y-122475001D01*
X128652037Y-122298374D01*
X128703557Y-122128535D01*
X128703557Y-122128534D01*
X128787221Y-121972012D01*
X128787222Y-121972010D01*
X128816552Y-121936272D01*
X128899814Y-121834815D01*
X129001271Y-121751553D01*
X129037009Y-121722223D01*
X129054913Y-121712653D01*
X129193533Y-121638558D01*
X129250147Y-121621385D01*
X129363373Y-121587038D01*
X129429558Y-121580519D01*
X129495740Y-121574001D01*
X129584260Y-121574001D01*
X129650442Y-121580519D01*
X129650442Y-121580519D01*
G37*
G36*
X122821000Y-120836001D02*
X121019000Y-120836001D01*
X121019000Y-119034001D01*
X122821000Y-119034001D01*
X122821000Y-120836001D01*
X122821000Y-120836001D01*
G37*
G36*
X120281000Y-120836001D02*
X118479000Y-120836001D01*
X118479000Y-119034001D01*
X120281000Y-119034001D01*
X120281000Y-120836001D01*
X120281000Y-120836001D01*
G37*
G36*
X130441000Y-120836001D02*
X128639000Y-120836001D01*
X128639000Y-119034001D01*
X130441000Y-119034001D01*
X130441000Y-120836001D01*
X130441000Y-120836001D01*
G37*
G36*
X132981000Y-120836001D02*
X131179000Y-120836001D01*
X131179000Y-119034001D01*
X132981000Y-119034001D01*
X132981000Y-120836001D01*
X132981000Y-120836001D01*
G37*
G36*
X135521000Y-120836001D02*
X133719000Y-120836001D01*
X133719000Y-119034001D01*
X135521000Y-119034001D01*
X135521000Y-120836001D01*
X135521000Y-120836001D01*
G37*
G36*
X138061000Y-120836001D02*
X136259000Y-120836001D01*
X136259000Y-119034001D01*
X138061000Y-119034001D01*
X138061000Y-120836001D01*
X138061000Y-120836001D01*
G37*
G36*
X126631000Y-110121000D02*
X124829000Y-110121000D01*
X124829000Y-108319000D01*
X126631000Y-108319000D01*
X126631000Y-110121000D01*
X126631000Y-110121000D01*
G37*
G36*
X128380443Y-108325519D02*
X128446627Y-108332037D01*
X128559853Y-108366384D01*
X128616467Y-108383557D01*
X128755087Y-108457652D01*
X128772991Y-108467222D01*
X128808729Y-108496552D01*
X128910186Y-108579814D01*
X128993448Y-108681271D01*
X129022778Y-108717009D01*
X129022779Y-108717011D01*
X129106443Y-108873533D01*
X129106443Y-108873534D01*
X129157963Y-109043373D01*
X129175359Y-109220000D01*
X129157963Y-109396627D01*
X129123616Y-109509853D01*
X129106443Y-109566467D01*
X129032348Y-109705087D01*
X129022778Y-109722991D01*
X128993448Y-109758729D01*
X128910186Y-109860186D01*
X128808729Y-109943448D01*
X128772991Y-109972778D01*
X128772989Y-109972779D01*
X128616467Y-110056443D01*
X128559853Y-110073616D01*
X128446627Y-110107963D01*
X128380443Y-110114481D01*
X128314260Y-110121000D01*
X128225740Y-110121000D01*
X128159557Y-110114481D01*
X128093373Y-110107963D01*
X127980147Y-110073616D01*
X127923533Y-110056443D01*
X127767011Y-109972779D01*
X127767009Y-109972778D01*
X127731271Y-109943448D01*
X127629814Y-109860186D01*
X127546552Y-109758729D01*
X127517222Y-109722991D01*
X127507652Y-109705087D01*
X127433557Y-109566467D01*
X127416384Y-109509853D01*
X127382037Y-109396627D01*
X127364641Y-109220000D01*
X127382037Y-109043373D01*
X127433557Y-108873534D01*
X127433557Y-108873533D01*
X127517221Y-108717011D01*
X127517222Y-108717009D01*
X127546552Y-108681271D01*
X127629814Y-108579814D01*
X127731271Y-108496552D01*
X127767009Y-108467222D01*
X127784913Y-108457652D01*
X127923533Y-108383557D01*
X127980147Y-108366384D01*
X128093373Y-108332037D01*
X128159557Y-108325519D01*
X128225740Y-108319000D01*
X128314260Y-108319000D01*
X128380443Y-108325519D01*
X128380443Y-108325519D01*
G37*
G36*
X130920443Y-108325519D02*
X130986627Y-108332037D01*
X131099853Y-108366384D01*
X131156467Y-108383557D01*
X131295087Y-108457652D01*
X131312991Y-108467222D01*
X131348729Y-108496552D01*
X131450186Y-108579814D01*
X131533448Y-108681271D01*
X131562778Y-108717009D01*
X131562779Y-108717011D01*
X131646443Y-108873533D01*
X131646443Y-108873534D01*
X131697963Y-109043373D01*
X131715359Y-109220000D01*
X131697963Y-109396627D01*
X131663616Y-109509853D01*
X131646443Y-109566467D01*
X131572348Y-109705087D01*
X131562778Y-109722991D01*
X131533448Y-109758729D01*
X131450186Y-109860186D01*
X131348729Y-109943448D01*
X131312991Y-109972778D01*
X131312989Y-109972779D01*
X131156467Y-110056443D01*
X131099853Y-110073616D01*
X130986627Y-110107963D01*
X130920443Y-110114481D01*
X130854260Y-110121000D01*
X130765740Y-110121000D01*
X130699557Y-110114481D01*
X130633373Y-110107963D01*
X130520147Y-110073616D01*
X130463533Y-110056443D01*
X130307011Y-109972779D01*
X130307009Y-109972778D01*
X130271271Y-109943448D01*
X130169814Y-109860186D01*
X130086552Y-109758729D01*
X130057222Y-109722991D01*
X130047652Y-109705087D01*
X129973557Y-109566467D01*
X129956384Y-109509853D01*
X129922037Y-109396627D01*
X129904641Y-109220000D01*
X129922037Y-109043373D01*
X129973557Y-108873534D01*
X129973557Y-108873533D01*
X130057221Y-108717011D01*
X130057222Y-108717009D01*
X130086552Y-108681271D01*
X130169814Y-108579814D01*
X130271271Y-108496552D01*
X130307009Y-108467222D01*
X130324913Y-108457652D01*
X130463533Y-108383557D01*
X130520147Y-108366384D01*
X130633373Y-108332037D01*
X130699557Y-108325519D01*
X130765740Y-108319000D01*
X130854260Y-108319000D01*
X130920443Y-108325519D01*
X130920443Y-108325519D01*
G37*
G36*
X125840443Y-105785519D02*
X125906627Y-105792037D01*
X126019853Y-105826384D01*
X126076467Y-105843557D01*
X126215087Y-105917652D01*
X126232991Y-105927222D01*
X126268729Y-105956552D01*
X126370186Y-106039814D01*
X126453448Y-106141271D01*
X126482778Y-106177009D01*
X126482779Y-106177011D01*
X126566443Y-106333533D01*
X126566443Y-106333534D01*
X126617963Y-106503373D01*
X126635359Y-106680000D01*
X126617963Y-106856627D01*
X126583616Y-106969853D01*
X126566443Y-107026467D01*
X126492348Y-107165087D01*
X126482778Y-107182991D01*
X126453448Y-107218729D01*
X126370186Y-107320186D01*
X126268729Y-107403448D01*
X126232991Y-107432778D01*
X126232989Y-107432779D01*
X126076467Y-107516443D01*
X126019853Y-107533616D01*
X125906627Y-107567963D01*
X125840443Y-107574481D01*
X125774260Y-107581000D01*
X125685740Y-107581000D01*
X125619557Y-107574481D01*
X125553373Y-107567963D01*
X125440147Y-107533616D01*
X125383533Y-107516443D01*
X125227011Y-107432779D01*
X125227009Y-107432778D01*
X125191271Y-107403448D01*
X125089814Y-107320186D01*
X125006552Y-107218729D01*
X124977222Y-107182991D01*
X124967652Y-107165087D01*
X124893557Y-107026467D01*
X124876384Y-106969853D01*
X124842037Y-106856627D01*
X124824641Y-106680000D01*
X124842037Y-106503373D01*
X124893557Y-106333534D01*
X124893557Y-106333533D01*
X124977221Y-106177011D01*
X124977222Y-106177009D01*
X125006552Y-106141271D01*
X125089814Y-106039814D01*
X125191271Y-105956552D01*
X125227009Y-105927222D01*
X125244913Y-105917652D01*
X125383533Y-105843557D01*
X125440147Y-105826384D01*
X125553373Y-105792037D01*
X125619557Y-105785519D01*
X125685740Y-105779000D01*
X125774260Y-105779000D01*
X125840443Y-105785519D01*
X125840443Y-105785519D01*
G37*
G36*
X128380443Y-105785519D02*
X128446627Y-105792037D01*
X128559853Y-105826384D01*
X128616467Y-105843557D01*
X128755087Y-105917652D01*
X128772991Y-105927222D01*
X128808729Y-105956552D01*
X128910186Y-106039814D01*
X128993448Y-106141271D01*
X129022778Y-106177009D01*
X129022779Y-106177011D01*
X129106443Y-106333533D01*
X129106443Y-106333534D01*
X129157963Y-106503373D01*
X129175359Y-106680000D01*
X129157963Y-106856627D01*
X129123616Y-106969853D01*
X129106443Y-107026467D01*
X129032348Y-107165087D01*
X129022778Y-107182991D01*
X128993448Y-107218729D01*
X128910186Y-107320186D01*
X128808729Y-107403448D01*
X128772991Y-107432778D01*
X128772989Y-107432779D01*
X128616467Y-107516443D01*
X128559853Y-107533616D01*
X128446627Y-107567963D01*
X128380443Y-107574481D01*
X128314260Y-107581000D01*
X128225740Y-107581000D01*
X128159557Y-107574481D01*
X128093373Y-107567963D01*
X127980147Y-107533616D01*
X127923533Y-107516443D01*
X127767011Y-107432779D01*
X127767009Y-107432778D01*
X127731271Y-107403448D01*
X127629814Y-107320186D01*
X127546552Y-107218729D01*
X127517222Y-107182991D01*
X127507652Y-107165087D01*
X127433557Y-107026467D01*
X127416384Y-106969853D01*
X127382037Y-106856627D01*
X127364641Y-106680000D01*
X127382037Y-106503373D01*
X127433557Y-106333534D01*
X127433557Y-106333533D01*
X127517221Y-106177011D01*
X127517222Y-106177009D01*
X127546552Y-106141271D01*
X127629814Y-106039814D01*
X127731271Y-105956552D01*
X127767009Y-105927222D01*
X127784913Y-105917652D01*
X127923533Y-105843557D01*
X127980147Y-105826384D01*
X128093373Y-105792037D01*
X128159557Y-105785519D01*
X128225740Y-105779000D01*
X128314260Y-105779000D01*
X128380443Y-105785519D01*
X128380443Y-105785519D01*
G37*
G36*
X130920443Y-105785519D02*
X130986627Y-105792037D01*
X131099853Y-105826384D01*
X131156467Y-105843557D01*
X131295087Y-105917652D01*
X131312991Y-105927222D01*
X131348729Y-105956552D01*
X131450186Y-106039814D01*
X131533448Y-106141271D01*
X131562778Y-106177009D01*
X131562779Y-106177011D01*
X131646443Y-106333533D01*
X131646443Y-106333534D01*
X131697963Y-106503373D01*
X131715359Y-106680000D01*
X131697963Y-106856627D01*
X131663616Y-106969853D01*
X131646443Y-107026467D01*
X131572348Y-107165087D01*
X131562778Y-107182991D01*
X131533448Y-107218729D01*
X131450186Y-107320186D01*
X131348729Y-107403448D01*
X131312991Y-107432778D01*
X131312989Y-107432779D01*
X131156467Y-107516443D01*
X131099853Y-107533616D01*
X130986627Y-107567963D01*
X130920443Y-107574481D01*
X130854260Y-107581000D01*
X130765740Y-107581000D01*
X130699557Y-107574481D01*
X130633373Y-107567963D01*
X130520147Y-107533616D01*
X130463533Y-107516443D01*
X130307011Y-107432779D01*
X130307009Y-107432778D01*
X130271271Y-107403448D01*
X130169814Y-107320186D01*
X130086552Y-107218729D01*
X130057222Y-107182991D01*
X130047652Y-107165087D01*
X129973557Y-107026467D01*
X129956384Y-106969853D01*
X129922037Y-106856627D01*
X129904641Y-106680000D01*
X129922037Y-106503373D01*
X129973557Y-106333534D01*
X129973557Y-106333533D01*
X130057221Y-106177011D01*
X130057222Y-106177009D01*
X130086552Y-106141271D01*
X130169814Y-106039814D01*
X130271271Y-105956552D01*
X130307009Y-105927222D01*
X130324913Y-105917652D01*
X130463533Y-105843557D01*
X130520147Y-105826384D01*
X130633373Y-105792037D01*
X130699557Y-105785519D01*
X130765740Y-105779000D01*
X130854260Y-105779000D01*
X130920443Y-105785519D01*
X130920443Y-105785519D01*
G37*
M02*
