G04 #@! TF.GenerationSoftware,KiCad,Pcbnew,(5.0.1-3-g963ef8bb5)*
G04 #@! TF.CreationDate,2018-12-11T08:39:45-08:00*
G04 #@! TF.ProjectId,isp_adapter,6973705F616461707465722E6B696361,rev?*
G04 #@! TF.SameCoordinates,Original*
G04 #@! TF.FileFunction,Legend,Top*
G04 #@! TF.FilePolarity,Positive*
%FSLAX46Y46*%
G04 Gerber Fmt 4.6, Leading zero omitted, Abs format (unit mm)*
G04 Created by KiCad (PCBNEW (5.0.1-3-g963ef8bb5)) date Tuesday, December 11, 2018 at 08:39:45 AM*
%MOMM*%
%LPD*%
G01*
G04 APERTURE LIST*
%ADD10C,0.150000*%
%ADD11C,0.120000*%
G04 APERTURE END LIST*
D10*
X117737380Y-115537619D02*
X116737380Y-115537619D01*
X117642142Y-114490000D02*
X117689761Y-114537619D01*
X117737380Y-114680476D01*
X117737380Y-114775714D01*
X117689761Y-114918571D01*
X117594523Y-115013809D01*
X117499285Y-115061428D01*
X117308809Y-115109047D01*
X117165952Y-115109047D01*
X116975476Y-115061428D01*
X116880238Y-115013809D01*
X116785000Y-114918571D01*
X116737380Y-114775714D01*
X116737380Y-114680476D01*
X116785000Y-114537619D01*
X116832619Y-114490000D01*
X117689761Y-114109047D02*
X117737380Y-113966190D01*
X117737380Y-113728095D01*
X117689761Y-113632857D01*
X117642142Y-113585238D01*
X117546904Y-113537619D01*
X117451666Y-113537619D01*
X117356428Y-113585238D01*
X117308809Y-113632857D01*
X117261190Y-113728095D01*
X117213571Y-113918571D01*
X117165952Y-114013809D01*
X117118333Y-114061428D01*
X117023095Y-114109047D01*
X116927857Y-114109047D01*
X116832619Y-114061428D01*
X116785000Y-114013809D01*
X116737380Y-113918571D01*
X116737380Y-113680476D01*
X116785000Y-113537619D01*
X117737380Y-113109047D02*
X116737380Y-113109047D01*
X116737380Y-112728095D01*
X116785000Y-112632857D01*
X116832619Y-112585238D01*
X116927857Y-112537619D01*
X117070714Y-112537619D01*
X117165952Y-112585238D01*
X117213571Y-112632857D01*
X117261190Y-112728095D01*
X117261190Y-113109047D01*
X117451666Y-111394761D02*
X117451666Y-110918571D01*
X117737380Y-111490000D02*
X116737380Y-111156666D01*
X117737380Y-110823333D01*
X117737380Y-110490000D02*
X116737380Y-110490000D01*
X116737380Y-110251904D01*
X116785000Y-110109047D01*
X116880238Y-110013809D01*
X116975476Y-109966190D01*
X117165952Y-109918571D01*
X117308809Y-109918571D01*
X117499285Y-109966190D01*
X117594523Y-110013809D01*
X117689761Y-110109047D01*
X117737380Y-110251904D01*
X117737380Y-110490000D01*
X117451666Y-109537619D02*
X117451666Y-109061428D01*
X117737380Y-109632857D02*
X116737380Y-109299523D01*
X117737380Y-108966190D01*
X117737380Y-108632857D02*
X116737380Y-108632857D01*
X116737380Y-108251904D01*
X116785000Y-108156666D01*
X116832619Y-108109047D01*
X116927857Y-108061428D01*
X117070714Y-108061428D01*
X117165952Y-108109047D01*
X117213571Y-108156666D01*
X117261190Y-108251904D01*
X117261190Y-108632857D01*
X116737380Y-107775714D02*
X116737380Y-107204285D01*
X117737380Y-107490000D02*
X116737380Y-107490000D01*
X117213571Y-106870952D02*
X117213571Y-106537619D01*
X117737380Y-106394761D02*
X117737380Y-106870952D01*
X116737380Y-106870952D01*
X116737380Y-106394761D01*
X117737380Y-105394761D02*
X117261190Y-105728095D01*
X117737380Y-105966190D02*
X116737380Y-105966190D01*
X116737380Y-105585238D01*
X116785000Y-105490000D01*
X116832619Y-105442380D01*
X116927857Y-105394761D01*
X117070714Y-105394761D01*
X117165952Y-105442380D01*
X117213571Y-105490000D01*
X117261190Y-105585238D01*
X117261190Y-105966190D01*
X119387380Y-112561428D02*
X118911190Y-112894761D01*
X119387380Y-113132857D02*
X118387380Y-113132857D01*
X118387380Y-112751904D01*
X118435000Y-112656666D01*
X118482619Y-112609047D01*
X118577857Y-112561428D01*
X118720714Y-112561428D01*
X118815952Y-112609047D01*
X118863571Y-112656666D01*
X118911190Y-112751904D01*
X118911190Y-113132857D01*
X119339761Y-111751904D02*
X119387380Y-111847142D01*
X119387380Y-112037619D01*
X119339761Y-112132857D01*
X119244523Y-112180476D01*
X118863571Y-112180476D01*
X118768333Y-112132857D01*
X118720714Y-112037619D01*
X118720714Y-111847142D01*
X118768333Y-111751904D01*
X118863571Y-111704285D01*
X118958809Y-111704285D01*
X119054047Y-112180476D01*
X118720714Y-111370952D02*
X119387380Y-111132857D01*
X118720714Y-110894761D01*
X119387380Y-109228095D02*
X119387380Y-109799523D01*
X119387380Y-109513809D02*
X118387380Y-109513809D01*
X118530238Y-109609047D01*
X118625476Y-109704285D01*
X118673095Y-109799523D01*
X119292142Y-108799523D02*
X119339761Y-108751904D01*
X119387380Y-108799523D01*
X119339761Y-108847142D01*
X119292142Y-108799523D01*
X119387380Y-108799523D01*
X118387380Y-108132857D02*
X118387380Y-108037619D01*
X118435000Y-107942380D01*
X118482619Y-107894761D01*
X118577857Y-107847142D01*
X118768333Y-107799523D01*
X119006428Y-107799523D01*
X119196904Y-107847142D01*
X119292142Y-107894761D01*
X119339761Y-107942380D01*
X119387380Y-108037619D01*
X119387380Y-108132857D01*
X119339761Y-108228095D01*
X119292142Y-108275714D01*
X119196904Y-108323333D01*
X119006428Y-108370952D01*
X118768333Y-108370952D01*
X118577857Y-108323333D01*
X118482619Y-108275714D01*
X118435000Y-108228095D01*
X118387380Y-108132857D01*
G36*
X116840000Y-132080000D02*
X118110000Y-132080000D01*
X118110000Y-133350000D01*
X116840000Y-133350000D01*
X116840000Y-132080000D01*
G37*
X116840000Y-132080000D02*
X118110000Y-132080000D01*
X118110000Y-133350000D01*
X116840000Y-133350000D01*
X116840000Y-132080000D01*
G36*
X123190000Y-110490000D02*
X124460000Y-110490000D01*
X124460000Y-111760000D01*
X123190000Y-111760000D01*
X123190000Y-110490000D01*
G37*
X123190000Y-110490000D02*
X124460000Y-110490000D01*
X124460000Y-111760000D01*
X123190000Y-111760000D01*
X123190000Y-110490000D01*
D11*
G04 #@! TO.C,J1*
X124400000Y-110550000D02*
X124400000Y-109220000D01*
X125730000Y-110550000D02*
X124400000Y-110550000D01*
X124400000Y-107950000D02*
X124400000Y-105350000D01*
X127000000Y-107950000D02*
X124400000Y-107950000D01*
X127000000Y-110550000D02*
X127000000Y-107950000D01*
X124400000Y-105350000D02*
X132140000Y-105350000D01*
X127000000Y-110550000D02*
X132140000Y-110550000D01*
X132140000Y-110550000D02*
X132140000Y-105350000D01*
G04 #@! TO.C,PIN1*
X118050000Y-118605001D02*
X119380000Y-118605001D01*
X118050000Y-119935001D02*
X118050000Y-118605001D01*
X118050000Y-121205001D02*
X120710000Y-121205001D01*
X120710000Y-121205001D02*
X120710000Y-133965001D01*
X118050000Y-121205001D02*
X118050000Y-133965001D01*
X118050000Y-133965001D02*
X120710000Y-133965001D01*
G04 #@! TO.C,PIN2*
X120590000Y-133965001D02*
X123250000Y-133965001D01*
X120590000Y-121205001D02*
X120590000Y-133965001D01*
X123250000Y-121205001D02*
X123250000Y-133965001D01*
X120590000Y-121205001D02*
X123250000Y-121205001D01*
X120590000Y-119935001D02*
X120590000Y-118605001D01*
X120590000Y-118605001D02*
X121920000Y-118605001D01*
G04 #@! TO.C,PIN5*
X128210000Y-118605001D02*
X129540000Y-118605001D01*
X128210000Y-119935001D02*
X128210000Y-118605001D01*
X128210000Y-121205001D02*
X130870000Y-121205001D01*
X130870000Y-121205001D02*
X130870000Y-133965001D01*
X128210000Y-121205001D02*
X128210000Y-133965001D01*
X128210000Y-133965001D02*
X130870000Y-133965001D01*
G04 #@! TO.C,PIN6*
X130750000Y-133965001D02*
X133410000Y-133965001D01*
X130750000Y-121205001D02*
X130750000Y-133965001D01*
X133410000Y-121205001D02*
X133410000Y-133965001D01*
X130750000Y-121205001D02*
X133410000Y-121205001D01*
X130750000Y-119935001D02*
X130750000Y-118605001D01*
X130750000Y-118605001D02*
X132080000Y-118605001D01*
G04 #@! TO.C,PIN7*
X133290000Y-118605001D02*
X134620000Y-118605001D01*
X133290000Y-119935001D02*
X133290000Y-118605001D01*
X133290000Y-121205001D02*
X135950000Y-121205001D01*
X135950000Y-121205001D02*
X135950000Y-133965001D01*
X133290000Y-121205001D02*
X133290000Y-133965001D01*
X133290000Y-133965001D02*
X135950000Y-133965001D01*
G04 #@! TO.C,PIN8*
X135830000Y-133965001D02*
X138490000Y-133965001D01*
X135830000Y-121205001D02*
X135830000Y-133965001D01*
X138490000Y-121205001D02*
X138490000Y-133965001D01*
X135830000Y-121205001D02*
X138490000Y-121205001D01*
X135830000Y-119935001D02*
X135830000Y-118605001D01*
X135830000Y-118605001D02*
X137160000Y-118605001D01*
G04 #@! TO.C,J1*
D10*
X122852380Y-108283333D02*
X123566666Y-108283333D01*
X123709523Y-108330952D01*
X123804761Y-108426190D01*
X123852380Y-108569047D01*
X123852380Y-108664285D01*
X123852380Y-107283333D02*
X123852380Y-107854761D01*
X123852380Y-107569047D02*
X122852380Y-107569047D01*
X122995238Y-107664285D01*
X123090476Y-107759523D01*
X123138095Y-107854761D01*
G04 #@! TD*
M02*
