M48
;DRILL file {KiCad (5.0.1-3-g963ef8bb5)} date Tuesday, December 11, 2018 at 08:39:49 AM
;FORMAT={-:-/ absolute / inch / decimal}
FMAT,2
INCH,TZ
T1C0.0157
T2C0.0394
%
G90
G05
M72
T1
X4.8Y-4.1
X5.1Y-4.55
T2
X4.95Y-4.2
X4.95Y-4.3
X5.05Y-4.2
X5.05Y-4.3
X5.15Y-4.2
X5.15Y-4.3
X5.2Y-4.7219
X5.2Y-4.8219
X5.2Y-4.9219
X5.2Y-5.0219
X5.2Y-5.1219
X5.2Y-5.2219
X4.7Y-4.7219
X4.7Y-4.8219
X4.7Y-4.9219
X4.7Y-5.0219
X4.7Y-5.1219
X4.7Y-5.2219
X5.4Y-4.7219
X5.4Y-4.8219
X5.4Y-4.9219
X5.4Y-5.0219
X5.4Y-5.1219
X5.4Y-5.2219
X5.1Y-4.7219
X5.1Y-4.8219
X5.1Y-4.9219
X5.1Y-5.0219
X5.1Y-5.1219
X5.1Y-5.2219
X5.3Y-4.7219
X5.3Y-4.8219
X5.3Y-4.9219
X5.3Y-5.0219
X5.3Y-5.1219
X5.3Y-5.2219
X4.8Y-4.7219
X4.8Y-4.8219
X4.8Y-4.9219
X4.8Y-5.0219
X4.8Y-5.1219
X4.8Y-5.2219
T0
M30
