solid OpenSCAD_Model
  facet normal -0.991496 0.0970379 0.0867126
    outer loop
      vertex 2.65 -4.89981e-16 -4.001
      vertex 2.9999 -0.000129112 1.58116e-20
      vertex 2.99991 0 0
    endloop
  endfacet
  facet normal -0.991437 0.0976491 0.0867075
    outer loop
      vertex 2.9999 -0.000129112 1.58116e-20
      vertex 2.65 -4.89981e-16 -4.001
      vertex 2.59908 -0.516989 -4.001
    endloop
  endfacet
  facet normal -0.991437 0.0976493 0.0867074
    outer loop
      vertex 2.94227 -0.585254 7.16729e-17
      vertex 2.9999 -0.000129112 1.58116e-20
      vertex 2.59908 -0.516989 -4.001
    endloop
  endfacet
  facet normal 0.991496 -0.0970379 0.0867126
    outer loop
      vertex -2.65 -4.89981e-16 -4.001
      vertex -2.9999 0.000129112 -1.58116e-20
      vertex -2.99991 0 0
    endloop
  endfacet
  facet normal 0.991437 -0.0976491 0.0867075
    outer loop
      vertex -2.9999 0.000129112 -1.58116e-20
      vertex -2.65 -4.89981e-16 -4.001
      vertex -2.59908 0.516989 -4.001
    endloop
  endfacet
  facet normal -0.953336 0.289192 0.0867073
    outer loop
      vertex 2.77156 -1.14802 1.40591e-16
      vertex 2.94223 -0.585378 7.16881e-17
      vertex 2.44828 -1.01411 -4.001
    endloop
  endfacet
  facet normal -0.631899 0.770184 0.0867259
    outer loop
      vertex 1.87383 -1.87383 -4.001
      vertex 1.66666 -2.49434 3.05468e-16
      vertex 1.66676 -2.49425 3.05458e-16
    endloop
  endfacet
  facet normal -0.632003 0.7701 0.0867074
    outer loop
      vertex 1.66666 -2.49434 3.05468e-16
      vertex 1.87383 -1.87383 -4.001
      vertex 1.47226 -2.20339 -4.001
    endloop
  endfacet
  facet normal 0.0976491 -0.991437 0.0867075
    outer loop
      vertex 0 2.65 -4.001
      vertex -0.000129112 2.9999 -3.67382e-16
      vertex -0.516989 2.59908 -4.001
    endloop
  endfacet
  facet normal 0.0970379 -0.991496 0.0867126
    outer loop
      vertex -0.000129112 2.9999 -3.67382e-16
      vertex 0 2.65 -4.001
      vertex 0 2.99991 -3.67383e-16
    endloop
  endfacet
  facet normal 0.0970379 0.991496 0.0867126
    outer loop
      vertex 0 -2.65 -4.001
      vertex -0.000129112 -2.9999 3.67382e-16
      vertex 0 -2.99991 3.67383e-16
    endloop
  endfacet
  facet normal 0.0976491 0.991437 0.0867075
    outer loop
      vertex -0.000129112 -2.9999 3.67382e-16
      vertex 0 -2.65 -4.001
      vertex -0.516989 -2.59908 -4.001
    endloop
  endfacet
  facet normal 0.289245 0.95332 0.086707
    outer loop
      vertex -0.516989 -2.59908 -4.001
      vertex -0.585378 -2.94223 3.60319e-16
      vertex -0.585254 -2.94227 3.60324e-16
    endloop
  endfacet
  facet normal 0.289191 0.953337 0.0867075
    outer loop
      vertex -0.585378 -2.94223 3.60319e-16
      vertex -0.516989 -2.59908 -4.001
      vertex -1.01411 -2.44828 -4.001
    endloop
  endfacet
  facet normal 0.95332 -0.289245 0.086707
    outer loop
      vertex -2.59908 0.516989 -4.001
      vertex -2.94223 0.585378 -7.16881e-17
      vertex -2.94227 0.585254 -7.16729e-17
    endloop
  endfacet
  facet normal 0.953337 -0.289191 0.0867075
    outer loop
      vertex -2.94223 0.585378 -7.16881e-17
      vertex -2.59908 0.516989 -4.001
      vertex -2.44828 1.01411 -4.001
    endloop
  endfacet
  facet normal 0.770184 -0.631899 0.0867259
    outer loop
      vertex -2.49434 1.66666 -2.04107e-16
      vertex -1.87383 1.87383 -4.001
      vertex -2.49425 1.66676 -2.04119e-16
    endloop
  endfacet
  facet normal 0.7701 -0.632003 0.0867074
    outer loop
      vertex -1.87383 1.87383 -4.001
      vertex -2.49434 1.66666 -2.04107e-16
      vertex -2.20339 1.47226 -4.001
    endloop
  endfacet
  facet normal -0.770099 -0.632004 0.0867073
    outer loop
      vertex 2.49425 1.66676 -2.04119e-16
      vertex 2.12126 2.12126 -2.59779e-16
      vertex 1.87383 1.87383 -4.001
    endloop
  endfacet
  facet normal -0.878268 -0.47024 0.0867134
    outer loop
      vertex 2.20339 1.47226 -4.001
      vertex 2.4944 1.66655 -2.04093e-16
      vertex 2.49434 1.66666 -2.04107e-16
    endloop
  endfacet
  facet normal -0.8786 -0.469622 0.0867074
    outer loop
      vertex 2.4944 1.66655 -2.04093e-16
      vertex 2.20339 1.47226 -4.001
      vertex 2.44828 1.01411 -4.001
    endloop
  endfacet
  facet normal -0.953337 -0.289191 0.0867075
    outer loop
      vertex 2.59908 0.516989 -4.001
      vertex 2.94223 0.585378 -7.16881e-17
      vertex 2.44828 1.01411 -4.001
    endloop
  endfacet
  facet normal -0.95332 -0.289245 0.086707
    outer loop
      vertex 2.94223 0.585378 -7.16881e-17
      vertex 2.59908 0.516989 -4.001
      vertex 2.94227 0.585254 -7.16729e-17
    endloop
  endfacet
  facet normal -0.8786 0.46962 0.0867073
    outer loop
      vertex 2.4944 -1.66655 2.04093e-16
      vertex 2.77156 -1.14802 1.40591e-16
      vertex 2.44828 -1.01411 -4.001
    endloop
  endfacet
  facet normal -0.8786 0.469622 0.0867074
    outer loop
      vertex 2.20339 -1.47226 -4.001
      vertex 2.4944 -1.66655 2.04093e-16
      vertex 2.44828 -1.01411 -4.001
    endloop
  endfacet
  facet normal -0.878268 0.47024 0.0867134
    outer loop
      vertex 2.4944 -1.66655 2.04093e-16
      vertex 2.20339 -1.47226 -4.001
      vertex 2.49434 -1.66666 2.04107e-16
    endloop
  endfacet
  facet normal 0.991437 0.0976493 0.0867074
    outer loop
      vertex -2.94227 -0.585254 7.16729e-17
      vertex -2.59908 -0.516989 -4.001
      vertex -2.9999 -0.000129112 1.58116e-20
    endloop
  endfacet
  facet normal -0.770185 0.6319 0.0867086
    outer loop
      vertex 2.20339 -1.47226 -4.001
      vertex 2.49425 -1.66676 2.04119e-16
      vertex 2.49434 -1.66666 2.04107e-16
    endloop
  endfacet
  facet normal -0.7701 0.632003 0.0867074
    outer loop
      vertex 2.49425 -1.66676 2.04119e-16
      vertex 2.20339 -1.47226 -4.001
      vertex 1.87383 -1.87383 -4.001
    endloop
  endfacet
  facet normal 0.953336 -0.289192 0.0867073
    outer loop
      vertex -2.44828 1.01411 -4.001
      vertex -2.77156 1.14802 -1.40591e-16
      vertex -2.94223 0.585378 -7.16881e-17
    endloop
  endfacet
  facet normal 0.991437 -0.0976493 0.0867074
    outer loop
      vertex -2.59908 0.516989 -4.001
      vertex -2.94227 0.585254 -7.16729e-17
      vertex -2.9999 0.000129112 -1.58116e-20
    endloop
  endfacet
  facet normal 0.47024 -0.878268 0.0867134
    outer loop
      vertex -1.47226 2.20339 -4.001
      vertex -1.66655 2.4944 -3.05476e-16
      vertex -1.66666 2.49434 -3.05468e-16
    endloop
  endfacet
  facet normal 0.469622 -0.8786 0.0867074
    outer loop
      vertex -1.66655 2.4944 -3.05476e-16
      vertex -1.47226 2.20339 -4.001
      vertex -1.01411 2.44828 -4.001
    endloop
  endfacet
  facet normal 0.770099 -0.632004 0.0867073
    outer loop
      vertex -1.87383 1.87383 -4.001
      vertex -2.12126 2.12126 -2.59779e-16
      vertex -2.49425 1.66676 -2.04119e-16
    endloop
  endfacet
  facet normal -0.0976493 -0.991437 0.0867074
    outer loop
      vertex 0.516989 2.59908 -4.001
      vertex 0.585254 2.94227 -3.60324e-16
      vertex 0.000129112 2.9999 -3.67382e-16
    endloop
  endfacet
  facet normal -0.289245 -0.95332 0.086707
    outer loop
      vertex 0.516989 2.59908 -4.001
      vertex 0.585378 2.94223 -3.60319e-16
      vertex 0.585254 2.94227 -3.60324e-16
    endloop
  endfacet
  facet normal -0.289191 -0.953337 0.0867075
    outer loop
      vertex 0.585378 2.94223 -3.60319e-16
      vertex 0.516989 2.59908 -4.001
      vertex 1.01411 2.44828 -4.001
    endloop
  endfacet
  facet normal -0.289192 -0.953336 0.0867073
    outer loop
      vertex 1.01411 2.44828 -4.001
      vertex 1.14802 2.77156 -3.39418e-16
      vertex 0.585378 2.94223 -3.60319e-16
    endloop
  endfacet
  facet normal -0.770184 -0.631899 0.0867259
    outer loop
      vertex 1.87383 1.87383 -4.001
      vertex 2.49434 1.66666 -2.04107e-16
      vertex 2.49425 1.66676 -2.04119e-16
    endloop
  endfacet
  facet normal -0.7701 -0.632003 0.0867074
    outer loop
      vertex 2.49434 1.66666 -2.04107e-16
      vertex 1.87383 1.87383 -4.001
      vertex 2.20339 1.47226 -4.001
    endloop
  endfacet
  facet normal -0.8786 -0.46962 0.0867073
    outer loop
      vertex 2.77156 1.14802 -1.40591e-16
      vertex 2.4944 1.66655 -2.04093e-16
      vertex 2.44828 1.01411 -4.001
    endloop
  endfacet
  facet normal -0.953336 -0.289192 0.0867073
    outer loop
      vertex 2.94223 0.585378 -7.16881e-17
      vertex 2.77156 1.14802 -1.40591e-16
      vertex 2.44828 1.01411 -4.001
    endloop
  endfacet
  facet normal 0.991496 0.0970379 0.0867126
    outer loop
      vertex -2.9999 -0.000129112 1.58116e-20
      vertex -2.65 -4.89981e-16 -4.001
      vertex -2.99991 0 0
    endloop
  endfacet
  facet normal 0.991437 0.0976491 0.0867075
    outer loop
      vertex -2.65 -4.89981e-16 -4.001
      vertex -2.9999 -0.000129112 1.58116e-20
      vertex -2.59908 -0.516989 -4.001
    endloop
  endfacet
  facet normal 0.8786 0.46962 0.0867073
    outer loop
      vertex -2.4944 -1.66655 2.04093e-16
      vertex -2.44828 -1.01411 -4.001
      vertex -2.77156 -1.14802 1.40591e-16
    endloop
  endfacet
  facet normal 0.0976493 0.991437 0.0867074
    outer loop
      vertex -0.000129112 -2.9999 3.67382e-16
      vertex -0.516989 -2.59908 -4.001
      vertex -0.585254 -2.94227 3.60324e-16
    endloop
  endfacet
  facet normal -0.95332 0.289245 0.086707
    outer loop
      vertex 2.59908 -0.516989 -4.001
      vertex 2.94223 -0.585378 7.16881e-17
      vertex 2.94227 -0.585254 7.16729e-17
    endloop
  endfacet
  facet normal -0.953337 0.289191 0.0867075
    outer loop
      vertex 2.94223 -0.585378 7.16881e-17
      vertex 2.59908 -0.516989 -4.001
      vertex 2.44828 -1.01411 -4.001
    endloop
  endfacet
  facet normal -0.770099 0.632004 0.0867073
    outer loop
      vertex 2.12126 -2.12126 2.59779e-16
      vertex 2.49425 -1.66676 2.04119e-16
      vertex 1.87383 -1.87383 -4.001
    endloop
  endfacet
  facet normal -0.632004 0.770099 0.0867073
    outer loop
      vertex 2.12126 -2.12126 2.59779e-16
      vertex 1.87383 -1.87383 -4.001
      vertex 1.66676 -2.49425 3.05458e-16
    endloop
  endfacet
  facet normal -0.46962 0.8786 0.0867073
    outer loop
      vertex 1.14802 -2.77156 3.39418e-16
      vertex 1.66655 -2.4944 3.05476e-16
      vertex 1.01411 -2.44828 -4.001
    endloop
  endfacet
  facet normal -0.0976493 0.991437 0.0867074
    outer loop
      vertex 0.585254 -2.94227 3.60324e-16
      vertex 0.516989 -2.59908 -4.001
      vertex 0.000129112 -2.9999 3.67382e-16
    endloop
  endfacet
  facet normal -0.289192 0.953336 0.0867073
    outer loop
      vertex 1.14802 -2.77156 3.39418e-16
      vertex 1.01411 -2.44828 -4.001
      vertex 0.585378 -2.94223 3.60319e-16
    endloop
  endfacet
  facet normal -0.289191 0.953337 0.0867075
    outer loop
      vertex 0.516989 -2.59908 -4.001
      vertex 0.585378 -2.94223 3.60319e-16
      vertex 1.01411 -2.44828 -4.001
    endloop
  endfacet
  facet normal -0.289245 0.95332 0.086707
    outer loop
      vertex 0.585378 -2.94223 3.60319e-16
      vertex 0.516989 -2.59908 -4.001
      vertex 0.585254 -2.94227 3.60324e-16
    endloop
  endfacet
  facet normal 0.289192 -0.953336 0.0867073
    outer loop
      vertex -1.01411 2.44828 -4.001
      vertex -0.585378 2.94223 -3.60319e-16
      vertex -1.14802 2.77156 -3.39418e-16
    endloop
  endfacet
  facet normal 0.8786 -0.46962 0.0867073
    outer loop
      vertex -2.44828 1.01411 -4.001
      vertex -2.4944 1.66655 -2.04093e-16
      vertex -2.77156 1.14802 -1.40591e-16
    endloop
  endfacet
  facet normal -0.632004 -0.770099 0.0867073
    outer loop
      vertex 1.87383 1.87383 -4.001
      vertex 2.12126 2.12126 -2.59779e-16
      vertex 1.66676 2.49425 -3.05458e-16
    endloop
  endfacet
  facet normal -0.0970379 -0.991496 0.0867126
    outer loop
      vertex 0 2.65 -4.001
      vertex 0.000129112 2.9999 -3.67382e-16
      vertex 0 2.99991 -3.67383e-16
    endloop
  endfacet
  facet normal -0.0976491 -0.991437 0.0867075
    outer loop
      vertex 0.000129112 2.9999 -3.67382e-16
      vertex 0 2.65 -4.001
      vertex 0.516989 2.59908 -4.001
    endloop
  endfacet
  facet normal -0.991437 -0.0976493 0.0867074
    outer loop
      vertex 2.9999 0.000129112 -1.58116e-20
      vertex 2.94227 0.585254 -7.16729e-17
      vertex 2.59908 0.516989 -4.001
    endloop
  endfacet
  facet normal -0.991437 -0.0976491 0.0867075
    outer loop
      vertex 2.65 -4.89981e-16 -4.001
      vertex 2.9999 0.000129112 -1.58116e-20
      vertex 2.59908 0.516989 -4.001
    endloop
  endfacet
  facet normal -0.991496 -0.0970379 0.0867126
    outer loop
      vertex 2.9999 0.000129112 -1.58116e-20
      vertex 2.65 -4.89981e-16 -4.001
      vertex 2.99991 0 0
    endloop
  endfacet
  facet normal 0.953336 0.289192 0.0867073
    outer loop
      vertex -2.77156 -1.14802 1.40591e-16
      vertex -2.44828 -1.01411 -4.001
      vertex -2.94223 -0.585378 7.16881e-17
    endloop
  endfacet
  facet normal 0.95332 0.289245 0.086707
    outer loop
      vertex -2.94223 -0.585378 7.16881e-17
      vertex -2.59908 -0.516989 -4.001
      vertex -2.94227 -0.585254 7.16729e-17
    endloop
  endfacet
  facet normal 0.953337 0.289191 0.0867075
    outer loop
      vertex -2.59908 -0.516989 -4.001
      vertex -2.94223 -0.585378 7.16881e-17
      vertex -2.44828 -1.01411 -4.001
    endloop
  endfacet
  facet normal 0.6319 0.770185 0.0867086
    outer loop
      vertex -1.47226 -2.20339 -4.001
      vertex -1.66676 -2.49425 3.05458e-16
      vertex -1.66666 -2.49434 3.05468e-16
    endloop
  endfacet
  facet normal 0.632003 0.7701 0.0867074
    outer loop
      vertex -1.66676 -2.49425 3.05458e-16
      vertex -1.47226 -2.20339 -4.001
      vertex -1.87383 -1.87383 -4.001
    endloop
  endfacet
  facet normal 0.8786 0.469622 0.0867074
    outer loop
      vertex -2.4944 -1.66655 2.04093e-16
      vertex -2.20339 -1.47226 -4.001
      vertex -2.44828 -1.01411 -4.001
    endloop
  endfacet
  facet normal 0.878268 0.47024 0.0867134
    outer loop
      vertex -2.20339 -1.47226 -4.001
      vertex -2.4944 -1.66655 2.04093e-16
      vertex -2.49434 -1.66666 2.04107e-16
    endloop
  endfacet
  facet normal 0.46962 0.8786 0.0867073
    outer loop
      vertex -1.14802 -2.77156 3.39418e-16
      vertex -1.01411 -2.44828 -4.001
      vertex -1.66655 -2.4944 3.05476e-16
    endloop
  endfacet
  facet normal 0.289192 0.953336 0.0867073
    outer loop
      vertex -0.585378 -2.94223 3.60319e-16
      vertex -1.01411 -2.44828 -4.001
      vertex -1.14802 -2.77156 3.39418e-16
    endloop
  endfacet
  facet normal -0.0976491 0.991437 0.0867075
    outer loop
      vertex 0 -2.65 -4.001
      vertex 0.000129112 -2.9999 3.67382e-16
      vertex 0.516989 -2.59908 -4.001
    endloop
  endfacet
  facet normal -0.0970379 0.991496 0.0867126
    outer loop
      vertex 0.000129112 -2.9999 3.67382e-16
      vertex 0 -2.65 -4.001
      vertex 0 -2.99991 3.67383e-16
    endloop
  endfacet
  facet normal -0.47024 0.878268 0.0867134
    outer loop
      vertex 1.47226 -2.20339 -4.001
      vertex 1.66655 -2.4944 3.05476e-16
      vertex 1.66666 -2.49434 3.05468e-16
    endloop
  endfacet
  facet normal -0.469622 0.8786 0.0867074
    outer loop
      vertex 1.66655 -2.4944 3.05476e-16
      vertex 1.47226 -2.20339 -4.001
      vertex 1.01411 -2.44828 -4.001
    endloop
  endfacet
  facet normal 0.46962 -0.8786 0.0867073
    outer loop
      vertex -1.01411 2.44828 -4.001
      vertex -1.14802 2.77156 -3.39418e-16
      vertex -1.66655 2.4944 -3.05476e-16
    endloop
  endfacet
  facet normal 0.0976493 -0.991437 0.0867074
    outer loop
      vertex -0.516989 2.59908 -4.001
      vertex -0.000129112 2.9999 -3.67382e-16
      vertex -0.585254 2.94227 -3.60324e-16
    endloop
  endfacet
  facet normal 0.631899 -0.770184 0.0867259
    outer loop
      vertex -1.87383 1.87383 -4.001
      vertex -1.66666 2.49434 -3.05468e-16
      vertex -1.66676 2.49425 -3.05458e-16
    endloop
  endfacet
  facet normal 0.632003 -0.7701 0.0867074
    outer loop
      vertex -1.66666 2.49434 -3.05468e-16
      vertex -1.87383 1.87383 -4.001
      vertex -1.47226 2.20339 -4.001
    endloop
  endfacet
  facet normal 0.632004 -0.770099 0.0867073
    outer loop
      vertex -1.87383 1.87383 -4.001
      vertex -1.66676 2.49425 -3.05458e-16
      vertex -2.12126 2.12126 -2.59779e-16
    endloop
  endfacet
  facet normal 0.878268 -0.47024 0.0867134
    outer loop
      vertex -2.4944 1.66655 -2.04093e-16
      vertex -2.20339 1.47226 -4.001
      vertex -2.49434 1.66666 -2.04107e-16
    endloop
  endfacet
  facet normal 0.8786 -0.469622 0.0867074
    outer loop
      vertex -2.20339 1.47226 -4.001
      vertex -2.4944 1.66655 -2.04093e-16
      vertex -2.44828 1.01411 -4.001
    endloop
  endfacet
  facet normal -0.46962 -0.8786 0.0867073
    outer loop
      vertex 1.66655 2.4944 -3.05476e-16
      vertex 1.14802 2.77156 -3.39418e-16
      vertex 1.01411 2.44828 -4.001
    endloop
  endfacet
  facet normal 0.770185 0.6319 0.0867086
    outer loop
      vertex -2.49425 -1.66676 2.04119e-16
      vertex -2.20339 -1.47226 -4.001
      vertex -2.49434 -1.66666 2.04107e-16
    endloop
  endfacet
  facet normal 0.7701 0.632003 0.0867074
    outer loop
      vertex -2.20339 -1.47226 -4.001
      vertex -2.49425 -1.66676 2.04119e-16
      vertex -1.87383 -1.87383 -4.001
    endloop
  endfacet
  facet normal 0.632004 0.770099 0.0867073
    outer loop
      vertex -1.66676 -2.49425 3.05458e-16
      vertex -1.87383 -1.87383 -4.001
      vertex -2.12126 -2.12126 2.59779e-16
    endloop
  endfacet
  facet normal 0.469622 0.8786 0.0867074
    outer loop
      vertex -1.47226 -2.20339 -4.001
      vertex -1.66655 -2.4944 3.05476e-16
      vertex -1.01411 -2.44828 -4.001
    endloop
  endfacet
  facet normal 0.47024 0.878268 0.0867134
    outer loop
      vertex -1.66655 -2.4944 3.05476e-16
      vertex -1.47226 -2.20339 -4.001
      vertex -1.66666 -2.49434 3.05468e-16
    endloop
  endfacet
  facet normal 0.289191 -0.953337 0.0867075
    outer loop
      vertex -0.516989 2.59908 -4.001
      vertex -0.585378 2.94223 -3.60319e-16
      vertex -1.01411 2.44828 -4.001
    endloop
  endfacet
  facet normal 0.289245 -0.95332 0.086707
    outer loop
      vertex -0.585378 2.94223 -3.60319e-16
      vertex -0.516989 2.59908 -4.001
      vertex -0.585254 2.94227 -3.60324e-16
    endloop
  endfacet
  facet normal -0.469622 -0.8786 0.0867074
    outer loop
      vertex 1.47226 2.20339 -4.001
      vertex 1.66655 2.4944 -3.05476e-16
      vertex 1.01411 2.44828 -4.001
    endloop
  endfacet
  facet normal -0.47024 -0.878268 0.0867134
    outer loop
      vertex 1.66655 2.4944 -3.05476e-16
      vertex 1.47226 2.20339 -4.001
      vertex 1.66666 2.49434 -3.05468e-16
    endloop
  endfacet
  facet normal -0.6319 -0.770185 0.0867086
    outer loop
      vertex 1.47226 2.20339 -4.001
      vertex 1.66676 2.49425 -3.05458e-16
      vertex 1.66666 2.49434 -3.05468e-16
    endloop
  endfacet
  facet normal -0.632003 -0.7701 0.0867074
    outer loop
      vertex 1.66676 2.49425 -3.05458e-16
      vertex 1.47226 2.20339 -4.001
      vertex 1.87383 1.87383 -4.001
    endloop
  endfacet
  facet normal 0.770099 0.632004 0.0867073
    outer loop
      vertex -2.12126 -2.12126 2.59779e-16
      vertex -1.87383 -1.87383 -4.001
      vertex -2.49425 -1.66676 2.04119e-16
    endloop
  endfacet
  facet normal -0.995185 0.0980183 -1.33605e-17
    outer loop
      vertex 2.59908 -0.516989 -8
      vertex 2.65 -4.89981e-16 -4.001
      vertex 2.65 -9.79717e-16 -8
    endloop
  endfacet
  facet normal -0.995185 0.0980183 0
    outer loop
      vertex 2.65 -4.89981e-16 -4.001
      vertex 2.59908 -0.516989 -8
      vertex 2.59908 -0.516989 -4.001
    endloop
  endfacet
  facet normal 0.995185 0.0980183 -1.33605e-17
    outer loop
      vertex -2.59908 -0.516989 -4.001
      vertex -2.65 -9.79717e-16 -8
      vertex -2.65 -4.89981e-16 -4.001
    endloop
  endfacet
  facet normal 0.995185 0.0980183 0
    outer loop
      vertex -2.65 -9.79717e-16 -8
      vertex -2.59908 -0.516989 -4.001
      vertex -2.59908 -0.516989 -8
    endloop
  endfacet
  facet normal -0.0980183 0.995185 0
    outer loop
      vertex 0.516989 -2.59908 -8
      vertex 0 -2.65 -4.001
      vertex 0.516989 -2.59908 -4.001
    endloop
  endfacet
  facet normal -0.0980183 0.995185 0
    outer loop
      vertex 0 -2.65 -4.001
      vertex 0.516989 -2.59908 -8
      vertex 0 -2.65 -8
    endloop
  endfacet
  facet normal 0.0980183 -0.995185 0
    outer loop
      vertex -0.516989 2.59908 -8
      vertex 0 2.65 -4.001
      vertex -0.516989 2.59908 -4.001
    endloop
  endfacet
  facet normal 0.0980183 -0.995185 0
    outer loop
      vertex 0 2.65 -4.001
      vertex -0.516989 2.59908 -8
      vertex 0 2.65 -8
    endloop
  endfacet
  facet normal -0.773011 0.634393 0
    outer loop
      vertex 1.87383 -1.87383 -8
      vertex 2.20339 -1.47226 -4.001
      vertex 2.20339 -1.47226 -8
    endloop
  endfacet
  facet normal -0.773011 0.634393 0
    outer loop
      vertex 2.20339 -1.47226 -4.001
      vertex 1.87383 -1.87383 -8
      vertex 1.87383 -1.87383 -4.001
    endloop
  endfacet
  facet normal -0.956941 0.290284 0
    outer loop
      vertex 2.44828 -1.01411 -8
      vertex 2.59908 -0.516989 -4.001
      vertex 2.59908 -0.516989 -8
    endloop
  endfacet
  facet normal -0.956941 0.290284 0
    outer loop
      vertex 2.59908 -0.516989 -4.001
      vertex 2.44828 -1.01411 -8
      vertex 2.44828 -1.01411 -4.001
    endloop
  endfacet
  facet normal 0.634393 0.773011 -0
    outer loop
      vertex -1.47226 -2.20339 -8
      vertex -1.87383 -1.87383 -4.001
      vertex -1.47226 -2.20339 -4.001
    endloop
  endfacet
  facet normal 0.634393 0.773011 0
    outer loop
      vertex -1.87383 -1.87383 -4.001
      vertex -1.47226 -2.20339 -8
      vertex -1.87383 -1.87383 -8
    endloop
  endfacet
  facet normal 0.290284 0.956941 -0
    outer loop
      vertex -0.516989 -2.59908 -8
      vertex -1.01411 -2.44828 -4.001
      vertex -0.516989 -2.59908 -4.001
    endloop
  endfacet
  facet normal 0.290284 0.956941 0
    outer loop
      vertex -1.01411 -2.44828 -4.001
      vertex -0.516989 -2.59908 -8
      vertex -1.01411 -2.44828 -8
    endloop
  endfacet
  facet normal -0.773011 -0.634393 0
    outer loop
      vertex 2.20339 1.47226 -8
      vertex 1.87383 1.87383 -4.001
      vertex 1.87383 1.87383 -8
    endloop
  endfacet
  facet normal -0.773011 -0.634393 0
    outer loop
      vertex 1.87383 1.87383 -4.001
      vertex 2.20339 1.47226 -8
      vertex 2.20339 1.47226 -4.001
    endloop
  endfacet
  facet normal -0.881921 0.471397 0
    outer loop
      vertex 2.20339 -1.47226 -8
      vertex 2.44828 -1.01411 -4.001
      vertex 2.44828 -1.01411 -8
    endloop
  endfacet
  facet normal -0.881921 0.471397 0
    outer loop
      vertex 2.44828 -1.01411 -4.001
      vertex 2.20339 -1.47226 -8
      vertex 2.20339 -1.47226 -4.001
    endloop
  endfacet
  facet normal -0.471397 0.881921 0
    outer loop
      vertex 1.47226 -2.20339 -8
      vertex 1.01411 -2.44828 -4.001
      vertex 1.47226 -2.20339 -4.001
    endloop
  endfacet
  facet normal -0.471397 0.881921 0
    outer loop
      vertex 1.01411 -2.44828 -4.001
      vertex 1.47226 -2.20339 -8
      vertex 1.01411 -2.44828 -8
    endloop
  endfacet
  facet normal -0.290284 0.956941 0
    outer loop
      vertex 1.01411 -2.44828 -8
      vertex 0.516989 -2.59908 -4.001
      vertex 1.01411 -2.44828 -4.001
    endloop
  endfacet
  facet normal -0.290284 0.956941 0
    outer loop
      vertex 0.516989 -2.59908 -4.001
      vertex 1.01411 -2.44828 -8
      vertex 0.516989 -2.59908 -8
    endloop
  endfacet
  facet normal -0.634393 0.773011 0
    outer loop
      vertex 1.87383 -1.87383 -8
      vertex 1.47226 -2.20339 -4.001
      vertex 1.87383 -1.87383 -4.001
    endloop
  endfacet
  facet normal -0.634393 0.773011 0
    outer loop
      vertex 1.47226 -2.20339 -4.001
      vertex 1.87383 -1.87383 -8
      vertex 1.47226 -2.20339 -8
    endloop
  endfacet
  facet normal 0.881921 0.471397 0
    outer loop
      vertex -2.20339 -1.47226 -4.001
      vertex -2.44828 -1.01411 -8
      vertex -2.44828 -1.01411 -4.001
    endloop
  endfacet
  facet normal 0.881921 0.471397 0
    outer loop
      vertex -2.44828 -1.01411 -8
      vertex -2.20339 -1.47226 -4.001
      vertex -2.20339 -1.47226 -8
    endloop
  endfacet
  facet normal 0.773011 0.634393 0
    outer loop
      vertex -1.87383 -1.87383 -4.001
      vertex -2.20339 -1.47226 -8
      vertex -2.20339 -1.47226 -4.001
    endloop
  endfacet
  facet normal 0.773011 0.634393 0
    outer loop
      vertex -2.20339 -1.47226 -8
      vertex -1.87383 -1.87383 -4.001
      vertex -1.87383 -1.87383 -8
    endloop
  endfacet
  facet normal 0.956941 0.290284 0
    outer loop
      vertex -2.44828 -1.01411 -4.001
      vertex -2.59908 -0.516989 -8
      vertex -2.59908 -0.516989 -4.001
    endloop
  endfacet
  facet normal 0.956941 0.290284 0
    outer loop
      vertex -2.59908 -0.516989 -8
      vertex -2.44828 -1.01411 -4.001
      vertex -2.44828 -1.01411 -8
    endloop
  endfacet
  facet normal 0.471397 0.881921 -0
    outer loop
      vertex -1.01411 -2.44828 -8
      vertex -1.47226 -2.20339 -4.001
      vertex -1.01411 -2.44828 -4.001
    endloop
  endfacet
  facet normal 0.471397 0.881921 0
    outer loop
      vertex -1.47226 -2.20339 -4.001
      vertex -1.01411 -2.44828 -8
      vertex -1.47226 -2.20339 -8
    endloop
  endfacet
  facet normal 0.0980183 0.995185 -0
    outer loop
      vertex 0 -2.65 -8
      vertex -0.516989 -2.59908 -4.001
      vertex 0 -2.65 -4.001
    endloop
  endfacet
  facet normal 0.0980183 0.995185 0
    outer loop
      vertex -0.516989 -2.59908 -4.001
      vertex 0 -2.65 -8
      vertex -0.516989 -2.59908 -8
    endloop
  endfacet
  facet normal -0.0980183 -0.995185 0
    outer loop
      vertex 0 2.65 -8
      vertex 0.516989 2.59908 -4.001
      vertex 0 2.65 -4.001
    endloop
  endfacet
  facet normal -0.0980183 -0.995185 -0
    outer loop
      vertex 0.516989 2.59908 -4.001
      vertex 0 2.65 -8
      vertex 0.516989 2.59908 -8
    endloop
  endfacet
  facet normal -0.471397 -0.881921 0
    outer loop
      vertex 1.01411 2.44828 -8
      vertex 1.47226 2.20339 -4.001
      vertex 1.01411 2.44828 -4.001
    endloop
  endfacet
  facet normal -0.471397 -0.881921 -0
    outer loop
      vertex 1.47226 2.20339 -4.001
      vertex 1.01411 2.44828 -8
      vertex 1.47226 2.20339 -8
    endloop
  endfacet
  facet normal 0.634393 -0.773011 0
    outer loop
      vertex -1.87383 1.87383 -8
      vertex -1.47226 2.20339 -4.001
      vertex -1.87383 1.87383 -4.001
    endloop
  endfacet
  facet normal 0.634393 -0.773011 0
    outer loop
      vertex -1.47226 2.20339 -4.001
      vertex -1.87383 1.87383 -8
      vertex -1.47226 2.20339 -8
    endloop
  endfacet
  facet normal 0.290284 -0.956941 0
    outer loop
      vertex -1.01411 2.44828 -8
      vertex -0.516989 2.59908 -4.001
      vertex -1.01411 2.44828 -4.001
    endloop
  endfacet
  facet normal 0.290284 -0.956941 0
    outer loop
      vertex -0.516989 2.59908 -4.001
      vertex -1.01411 2.44828 -8
      vertex -0.516989 2.59908 -8
    endloop
  endfacet
  facet normal 0.881921 -0.471397 0
    outer loop
      vertex -2.44828 1.01411 -4.001
      vertex -2.20339 1.47226 -8
      vertex -2.20339 1.47226 -4.001
    endloop
  endfacet
  facet normal 0.881921 -0.471397 0
    outer loop
      vertex -2.20339 1.47226 -8
      vertex -2.44828 1.01411 -4.001
      vertex -2.44828 1.01411 -8
    endloop
  endfacet
  facet normal 0.773011 -0.634393 0
    outer loop
      vertex -2.20339 1.47226 -4.001
      vertex -1.87383 1.87383 -8
      vertex -1.87383 1.87383 -4.001
    endloop
  endfacet
  facet normal 0.773011 -0.634393 0
    outer loop
      vertex -1.87383 1.87383 -8
      vertex -2.20339 1.47226 -4.001
      vertex -2.20339 1.47226 -8
    endloop
  endfacet
  facet normal 0.995185 -0.0980183 0
    outer loop
      vertex -2.65 -4.89981e-16 -4.001
      vertex -2.59908 0.516989 -8
      vertex -2.59908 0.516989 -4.001
    endloop
  endfacet
  facet normal 0.995185 -0.0980183 1.33605e-17
    outer loop
      vertex -2.59908 0.516989 -8
      vertex -2.65 -4.89981e-16 -4.001
      vertex -2.65 -9.79717e-16 -8
    endloop
  endfacet
  facet normal -0.995185 -0.0980183 0
    outer loop
      vertex 2.59908 0.516989 -8
      vertex 2.65 -4.89981e-16 -4.001
      vertex 2.59908 0.516989 -4.001
    endloop
  endfacet
  facet normal -0.995185 -0.0980183 1.20038e-17
    outer loop
      vertex 2.65 -4.89981e-16 -4.001
      vertex 2.59908 0.516989 -8
      vertex 2.65 -9.79717e-16 -8
    endloop
  endfacet
  facet normal -0.290284 -0.956941 0
    outer loop
      vertex 0.516989 2.59908 -8
      vertex 1.01411 2.44828 -4.001
      vertex 0.516989 2.59908 -4.001
    endloop
  endfacet
  facet normal -0.290284 -0.956941 -0
    outer loop
      vertex 1.01411 2.44828 -4.001
      vertex 0.516989 2.59908 -8
      vertex 1.01411 2.44828 -8
    endloop
  endfacet
  facet normal -0.634393 -0.773011 0
    outer loop
      vertex 1.47226 2.20339 -8
      vertex 1.87383 1.87383 -4.001
      vertex 1.47226 2.20339 -4.001
    endloop
  endfacet
  facet normal -0.634393 -0.773011 -0
    outer loop
      vertex 1.87383 1.87383 -4.001
      vertex 1.47226 2.20339 -8
      vertex 1.87383 1.87383 -8
    endloop
  endfacet
  facet normal -0.881921 -0.471397 0
    outer loop
      vertex 2.44828 1.01411 -8
      vertex 2.20339 1.47226 -4.001
      vertex 2.20339 1.47226 -8
    endloop
  endfacet
  facet normal -0.881921 -0.471397 0
    outer loop
      vertex 2.20339 1.47226 -4.001
      vertex 2.44828 1.01411 -8
      vertex 2.44828 1.01411 -4.001
    endloop
  endfacet
  facet normal -0.956941 -0.290284 0
    outer loop
      vertex 2.59908 0.516989 -8
      vertex 2.44828 1.01411 -4.001
      vertex 2.44828 1.01411 -8
    endloop
  endfacet
  facet normal -0.956941 -0.290284 0
    outer loop
      vertex 2.44828 1.01411 -4.001
      vertex 2.59908 0.516989 -8
      vertex 2.59908 0.516989 -4.001
    endloop
  endfacet
  facet normal 0.471397 -0.881921 0
    outer loop
      vertex -1.47226 2.20339 -8
      vertex -1.01411 2.44828 -4.001
      vertex -1.47226 2.20339 -4.001
    endloop
  endfacet
  facet normal 0.471397 -0.881921 0
    outer loop
      vertex -1.01411 2.44828 -4.001
      vertex -1.47226 2.20339 -8
      vertex -1.01411 2.44828 -8
    endloop
  endfacet
  facet normal 0.956941 -0.290284 0
    outer loop
      vertex -2.59908 0.516989 -4.001
      vertex -2.44828 1.01411 -8
      vertex -2.44828 1.01411 -4.001
    endloop
  endfacet
  facet normal 0.956941 -0.290284 0
    outer loop
      vertex -2.44828 1.01411 -8
      vertex -2.59908 0.516989 -4.001
      vertex -2.59908 0.516989 -8
    endloop
  endfacet
  facet normal -0.995185 0.0980181 -1.01132e-17
    outer loop
      vertex 3.43275 -0.682816 -10
      vertex 3.5 -9.79717e-16 -8
      vertex 3.5 -1.22465e-15 -10
    endloop
  endfacet
  facet normal -0.995185 0.0980181 0
    outer loop
      vertex 3.5 -9.79717e-16 -8
      vertex 3.43275 -0.682816 -10
      vertex 3.43275 -0.682816 -8
    endloop
  endfacet
  facet normal 0.995185 0.0980181 -1.01132e-17
    outer loop
      vertex -3.43275 -0.682816 -8
      vertex -3.5 -1.22465e-15 -10
      vertex -3.5 -9.79717e-16 -8
    endloop
  endfacet
  facet normal 0.995185 0.0980181 0
    outer loop
      vertex -3.5 -1.22465e-15 -10
      vertex -3.43275 -0.682816 -8
      vertex -3.43275 -0.682816 -10
    endloop
  endfacet
  facet normal -0.0980181 0.995185 0
    outer loop
      vertex 0.682816 -3.43275 -10
      vertex 0 -3.5 -8
      vertex 0.682816 -3.43275 -8
    endloop
  endfacet
  facet normal -0.0980181 0.995185 0
    outer loop
      vertex 0 -3.5 -8
      vertex 0.682816 -3.43275 -10
      vertex 0 -3.5 -10
    endloop
  endfacet
  facet normal -0.773011 0.634393 0
    outer loop
      vertex 2.47487 -2.47487 -10
      vertex 2.91014 -1.9445 -8
      vertex 2.91014 -1.9445 -10
    endloop
  endfacet
  facet normal -0.773011 0.634393 0
    outer loop
      vertex 2.91014 -1.9445 -8
      vertex 2.47487 -2.47487 -10
      vertex 2.47487 -2.47487 -8
    endloop
  endfacet
  facet normal -0.95694 0.290285 0
    outer loop
      vertex 3.23358 -1.33939 -10
      vertex 3.43275 -0.682816 -8
      vertex 3.43275 -0.682816 -10
    endloop
  endfacet
  facet normal -0.95694 0.290285 0
    outer loop
      vertex 3.43275 -0.682816 -8
      vertex 3.23358 -1.33939 -10
      vertex 3.23358 -1.33939 -8
    endloop
  endfacet
  facet normal 0.634393 0.773011 -0
    outer loop
      vertex -1.9445 -2.91014 -10
      vertex -2.47487 -2.47487 -8
      vertex -1.9445 -2.91014 -8
    endloop
  endfacet
  facet normal 0.634393 0.773011 0
    outer loop
      vertex -2.47487 -2.47487 -8
      vertex -1.9445 -2.91014 -10
      vertex -2.47487 -2.47487 -10
    endloop
  endfacet
  facet normal 0.290285 0.95694 -0
    outer loop
      vertex -0.682816 -3.43275 -10
      vertex -1.33939 -3.23358 -8
      vertex -0.682816 -3.43275 -8
    endloop
  endfacet
  facet normal 0.290285 0.95694 0
    outer loop
      vertex -1.33939 -3.23358 -8
      vertex -0.682816 -3.43275 -10
      vertex -1.33939 -3.23358 -10
    endloop
  endfacet
  facet normal -0.634393 -0.773011 0
    outer loop
      vertex 1.9445 2.91014 -10
      vertex 2.47487 2.47487 -8
      vertex 1.9445 2.91014 -8
    endloop
  endfacet
  facet normal -0.634393 -0.773011 -0
    outer loop
      vertex 2.47487 2.47487 -8
      vertex 1.9445 2.91014 -10
      vertex 2.47487 2.47487 -10
    endloop
  endfacet
  facet normal 0 0 -1
    outer loop
      vertex 2.65 -9.79717e-16 -8
      vertex 3.5 -9.79717e-16 -8
      vertex 3.43275 -0.682816 -8
    endloop
  endfacet
  facet normal 0 0 -1
    outer loop
      vertex 2.59908 -0.516989 -8
      vertex 3.43275 -0.682816 -8
      vertex 3.23358 -1.33939 -8
    endloop
  endfacet
  facet normal 0 0 -1
    outer loop
      vertex 3.5 -9.79717e-16 -8
      vertex 2.65 -9.79717e-16 -8
      vertex 3.43275 0.682816 -8
    endloop
  endfacet
  facet normal 0 0 -1
    outer loop
      vertex 2.44828 -1.01411 -8
      vertex 3.23358 -1.33939 -8
      vertex 2.91014 -1.9445 -8
    endloop
  endfacet
  facet normal 0 0 -1
    outer loop
      vertex 2.59908 0.516989 -8
      vertex 3.43275 0.682816 -8
      vertex 2.65 -9.79717e-16 -8
    endloop
  endfacet
  facet normal -0 0 -1
    outer loop
      vertex 3.43275 0.682816 -8
      vertex 2.59908 0.516989 -8
      vertex 3.23358 1.33939 -8
    endloop
  endfacet
  facet normal 0 0 -1
    outer loop
      vertex 3.43275 -0.682816 -8
      vertex 2.59908 -0.516989 -8
      vertex 2.65 -9.79717e-16 -8
    endloop
  endfacet
  facet normal 0 0 -1
    outer loop
      vertex 2.20339 -1.47226 -8
      vertex 2.91014 -1.9445 -8
      vertex 2.47487 -2.47487 -8
    endloop
  endfacet
  facet normal 0 0 -1
    outer loop
      vertex 3.23358 -1.33939 -8
      vertex 2.44828 -1.01411 -8
      vertex 2.59908 -0.516989 -8
    endloop
  endfacet
  facet normal 0 0 -1
    outer loop
      vertex 2.91014 -1.9445 -8
      vertex 2.20339 -1.47226 -8
      vertex 2.44828 -1.01411 -8
    endloop
  endfacet
  facet normal 0 0 -1
    outer loop
      vertex 1.87383 -1.87383 -8
      vertex 2.47487 -2.47487 -8
      vertex 1.9445 -2.91014 -8
    endloop
  endfacet
  facet normal 0 0 -1
    outer loop
      vertex 2.47487 -2.47487 -8
      vertex 1.87383 -1.87383 -8
      vertex 2.20339 -1.47226 -8
    endloop
  endfacet
  facet normal 0 0 -1
    outer loop
      vertex 1.9445 -2.91014 -8
      vertex 1.47226 -2.20339 -8
      vertex 1.87383 -1.87383 -8
    endloop
  endfacet
  facet normal 0 0 -1
    outer loop
      vertex 1.33939 -3.23358 -8
      vertex 1.47226 -2.20339 -8
      vertex 1.9445 -2.91014 -8
    endloop
  endfacet
  facet normal 0 0 -1
    outer loop
      vertex 1.33939 -3.23358 -8
      vertex 1.01411 -2.44828 -8
      vertex 1.47226 -2.20339 -8
    endloop
  endfacet
  facet normal 0 0 -1
    outer loop
      vertex 0.682816 -3.43275 -8
      vertex 1.01411 -2.44828 -8
      vertex 1.33939 -3.23358 -8
    endloop
  endfacet
  facet normal 0 0 -1
    outer loop
      vertex 0.682816 -3.43275 -8
      vertex 0.516989 -2.59908 -8
      vertex 1.01411 -2.44828 -8
    endloop
  endfacet
  facet normal 0 0 -1
    outer loop
      vertex 0 -3.5 -8
      vertex 0.516989 -2.59908 -8
      vertex 0.682816 -3.43275 -8
    endloop
  endfacet
  facet normal 0 0 -1
    outer loop
      vertex 0 -3.5 -8
      vertex 0 -2.65 -8
      vertex 0.516989 -2.59908 -8
    endloop
  endfacet
  facet normal 0 0 -1
    outer loop
      vertex 0 -3.5 -8
      vertex -0.516989 -2.59908 -8
      vertex 0 -2.65 -8
    endloop
  endfacet
  facet normal 0 0 -1
    outer loop
      vertex -0.682816 -3.43275 -8
      vertex -0.516989 -2.59908 -8
      vertex 0 -3.5 -8
    endloop
  endfacet
  facet normal 0 0 -1
    outer loop
      vertex -0.682816 -3.43275 -8
      vertex -1.01411 -2.44828 -8
      vertex -0.516989 -2.59908 -8
    endloop
  endfacet
  facet normal 0 0 -1
    outer loop
      vertex -1.33939 -3.23358 -8
      vertex -1.01411 -2.44828 -8
      vertex -0.682816 -3.43275 -8
    endloop
  endfacet
  facet normal 0 0 -1
    outer loop
      vertex -1.33939 -3.23358 -8
      vertex -1.47226 -2.20339 -8
      vertex -1.01411 -2.44828 -8
    endloop
  endfacet
  facet normal 0 0 -1
    outer loop
      vertex -1.9445 -2.91014 -8
      vertex -1.47226 -2.20339 -8
      vertex -1.33939 -3.23358 -8
    endloop
  endfacet
  facet normal -0 0 -1
    outer loop
      vertex -1.47226 -2.20339 -8
      vertex -1.9445 -2.91014 -8
      vertex -1.87383 -1.87383 -8
    endloop
  endfacet
  facet normal 0 0 -1
    outer loop
      vertex -2.47487 -2.47487 -8
      vertex -1.87383 -1.87383 -8
      vertex -1.9445 -2.91014 -8
    endloop
  endfacet
  facet normal -0 0 -1
    outer loop
      vertex -1.87383 -1.87383 -8
      vertex -2.47487 -2.47487 -8
      vertex -2.20339 -1.47226 -8
    endloop
  endfacet
  facet normal 0 0 -1
    outer loop
      vertex -2.91014 -1.9445 -8
      vertex -2.20339 -1.47226 -8
      vertex -2.47487 -2.47487 -8
    endloop
  endfacet
  facet normal -0 0 -1
    outer loop
      vertex -2.20339 -1.47226 -8
      vertex -2.91014 -1.9445 -8
      vertex -2.44828 -1.01411 -8
    endloop
  endfacet
  facet normal 0 0 -1
    outer loop
      vertex -3.23358 -1.33939 -8
      vertex -2.44828 -1.01411 -8
      vertex -2.91014 -1.9445 -8
    endloop
  endfacet
  facet normal -0 0 -1
    outer loop
      vertex -2.44828 -1.01411 -8
      vertex -3.23358 -1.33939 -8
      vertex -2.59908 -0.516989 -8
    endloop
  endfacet
  facet normal 0 0 -1
    outer loop
      vertex 2.44828 1.01411 -8
      vertex 3.23358 1.33939 -8
      vertex 2.59908 0.516989 -8
    endloop
  endfacet
  facet normal -0 0 -1
    outer loop
      vertex 3.23358 1.33939 -8
      vertex 2.44828 1.01411 -8
      vertex 2.91014 1.9445 -8
    endloop
  endfacet
  facet normal 0 0 -1
    outer loop
      vertex 2.20339 1.47226 -8
      vertex 2.91014 1.9445 -8
      vertex 2.44828 1.01411 -8
    endloop
  endfacet
  facet normal -0 0 -1
    outer loop
      vertex 2.91014 1.9445 -8
      vertex 2.20339 1.47226 -8
      vertex 2.47487 2.47487 -8
    endloop
  endfacet
  facet normal 0 0 -1
    outer loop
      vertex 1.87383 1.87383 -8
      vertex 2.47487 2.47487 -8
      vertex 2.20339 1.47226 -8
    endloop
  endfacet
  facet normal -0 0 -1
    outer loop
      vertex 2.47487 2.47487 -8
      vertex 1.87383 1.87383 -8
      vertex 1.9445 2.91014 -8
    endloop
  endfacet
  facet normal 0 0 -1
    outer loop
      vertex 1.47226 2.20339 -8
      vertex 1.9445 2.91014 -8
      vertex 1.87383 1.87383 -8
    endloop
  endfacet
  facet normal 0 0 -1
    outer loop
      vertex 1.47226 2.20339 -8
      vertex 1.33939 3.23358 -8
      vertex 1.9445 2.91014 -8
    endloop
  endfacet
  facet normal 0 0 -1
    outer loop
      vertex 1.01411 2.44828 -8
      vertex 1.33939 3.23358 -8
      vertex 1.47226 2.20339 -8
    endloop
  endfacet
  facet normal 0 0 -1
    outer loop
      vertex 1.01411 2.44828 -8
      vertex 0.682816 3.43275 -8
      vertex 1.33939 3.23358 -8
    endloop
  endfacet
  facet normal 0 0 -1
    outer loop
      vertex 0.516989 2.59908 -8
      vertex 0.682816 3.43275 -8
      vertex 1.01411 2.44828 -8
    endloop
  endfacet
  facet normal 0 0 -1
    outer loop
      vertex 0 2.65 -8
      vertex 0.682816 3.43275 -8
      vertex 0.516989 2.59908 -8
    endloop
  endfacet
  facet normal 0 0 -1
    outer loop
      vertex 0 2.65 -8
      vertex 0 3.5 -8
      vertex 0.682816 3.43275 -8
    endloop
  endfacet
  facet normal 0 0 -1
    outer loop
      vertex -0.516989 2.59908 -8
      vertex 0 3.5 -8
      vertex 0 2.65 -8
    endloop
  endfacet
  facet normal 0 0 -1
    outer loop
      vertex -0.516989 2.59908 -8
      vertex -0.682816 3.43275 -8
      vertex 0 3.5 -8
    endloop
  endfacet
  facet normal 0 0 -1
    outer loop
      vertex -1.01411 2.44828 -8
      vertex -0.682816 3.43275 -8
      vertex -0.516989 2.59908 -8
    endloop
  endfacet
  facet normal 0 0 -1
    outer loop
      vertex -1.01411 2.44828 -8
      vertex -1.33939 3.23358 -8
      vertex -0.682816 3.43275 -8
    endloop
  endfacet
  facet normal 0 0 -1
    outer loop
      vertex -1.47226 2.20339 -8
      vertex -1.33939 3.23358 -8
      vertex -1.01411 2.44828 -8
    endloop
  endfacet
  facet normal 0 0 -1
    outer loop
      vertex -1.9445 2.91014 -8
      vertex -1.47226 2.20339 -8
      vertex -1.87383 1.87383 -8
    endloop
  endfacet
  facet normal 0 0 -1
    outer loop
      vertex -1.47226 2.20339 -8
      vertex -1.9445 2.91014 -8
      vertex -1.33939 3.23358 -8
    endloop
  endfacet
  facet normal 0 0 -1
    outer loop
      vertex -2.47487 2.47487 -8
      vertex -1.87383 1.87383 -8
      vertex -2.20339 1.47226 -8
    endloop
  endfacet
  facet normal 0 0 -1
    outer loop
      vertex -2.91014 1.9445 -8
      vertex -2.20339 1.47226 -8
      vertex -2.44828 1.01411 -8
    endloop
  endfacet
  facet normal 0 0 -1
    outer loop
      vertex -1.87383 1.87383 -8
      vertex -2.47487 2.47487 -8
      vertex -1.9445 2.91014 -8
    endloop
  endfacet
  facet normal 0 0 -1
    outer loop
      vertex -3.23358 1.33939 -8
      vertex -2.44828 1.01411 -8
      vertex -2.59908 0.516989 -8
    endloop
  endfacet
  facet normal 0 0 -1
    outer loop
      vertex -3.43275 0.682816 -8
      vertex -2.59908 0.516989 -8
      vertex -2.65 -9.79717e-16 -8
    endloop
  endfacet
  facet normal 0 0 -1
    outer loop
      vertex -3.43275 -0.682816 -8
      vertex -2.59908 -0.516989 -8
      vertex -3.23358 -1.33939 -8
    endloop
  endfacet
  facet normal 0 0 -1
    outer loop
      vertex -2.20339 1.47226 -8
      vertex -2.91014 1.9445 -8
      vertex -2.47487 2.47487 -8
    endloop
  endfacet
  facet normal -0 0 -1
    outer loop
      vertex -2.59908 -0.516989 -8
      vertex -3.43275 -0.682816 -8
      vertex -2.65 -9.79717e-16 -8
    endloop
  endfacet
  facet normal 0 0 -1
    outer loop
      vertex -2.44828 1.01411 -8
      vertex -3.23358 1.33939 -8
      vertex -2.91014 1.9445 -8
    endloop
  endfacet
  facet normal 0 0 -1
    outer loop
      vertex -3.5 -9.79717e-16 -8
      vertex -2.65 -9.79717e-16 -8
      vertex -3.43275 -0.682816 -8
    endloop
  endfacet
  facet normal 0 0 -1
    outer loop
      vertex -2.59908 0.516989 -8
      vertex -3.43275 0.682816 -8
      vertex -3.23358 1.33939 -8
    endloop
  endfacet
  facet normal 0 0 -1
    outer loop
      vertex -2.65 -9.79717e-16 -8
      vertex -3.5 -9.79717e-16 -8
      vertex -3.43275 0.682816 -8
    endloop
  endfacet
  facet normal -0.881921 0.471397 0
    outer loop
      vertex 2.91014 -1.9445 -10
      vertex 3.23358 -1.33939 -8
      vertex 3.23358 -1.33939 -10
    endloop
  endfacet
  facet normal -0.881921 0.471397 0
    outer loop
      vertex 3.23358 -1.33939 -8
      vertex 2.91014 -1.9445 -10
      vertex 2.91014 -1.9445 -8
    endloop
  endfacet
  facet normal -0.471397 0.881921 0
    outer loop
      vertex 1.9445 -2.91014 -10
      vertex 1.33939 -3.23358 -8
      vertex 1.9445 -2.91014 -8
    endloop
  endfacet
  facet normal -0.471397 0.881921 0
    outer loop
      vertex 1.33939 -3.23358 -8
      vertex 1.9445 -2.91014 -10
      vertex 1.33939 -3.23358 -10
    endloop
  endfacet
  facet normal -0.290285 0.95694 0
    outer loop
      vertex 1.33939 -3.23358 -10
      vertex 0.682816 -3.43275 -8
      vertex 1.33939 -3.23358 -8
    endloop
  endfacet
  facet normal -0.290285 0.95694 0
    outer loop
      vertex 0.682816 -3.43275 -8
      vertex 1.33939 -3.23358 -10
      vertex 0.682816 -3.43275 -10
    endloop
  endfacet
  facet normal -0.634393 0.773011 0
    outer loop
      vertex 2.47487 -2.47487 -10
      vertex 1.9445 -2.91014 -8
      vertex 2.47487 -2.47487 -8
    endloop
  endfacet
  facet normal -0.634393 0.773011 0
    outer loop
      vertex 1.9445 -2.91014 -8
      vertex 2.47487 -2.47487 -10
      vertex 1.9445 -2.91014 -10
    endloop
  endfacet
  facet normal 0.881921 0.471397 0
    outer loop
      vertex -2.91014 -1.9445 -8
      vertex -3.23358 -1.33939 -10
      vertex -3.23358 -1.33939 -8
    endloop
  endfacet
  facet normal 0.881921 0.471397 0
    outer loop
      vertex -3.23358 -1.33939 -10
      vertex -2.91014 -1.9445 -8
      vertex -2.91014 -1.9445 -10
    endloop
  endfacet
  facet normal 0.773011 0.634393 0
    outer loop
      vertex -2.47487 -2.47487 -8
      vertex -2.91014 -1.9445 -10
      vertex -2.91014 -1.9445 -8
    endloop
  endfacet
  facet normal 0.773011 0.634393 0
    outer loop
      vertex -2.91014 -1.9445 -10
      vertex -2.47487 -2.47487 -8
      vertex -2.47487 -2.47487 -10
    endloop
  endfacet
  facet normal 0.95694 0.290285 0
    outer loop
      vertex -3.23358 -1.33939 -8
      vertex -3.43275 -0.682816 -10
      vertex -3.43275 -0.682816 -8
    endloop
  endfacet
  facet normal 0.95694 0.290285 0
    outer loop
      vertex -3.43275 -0.682816 -10
      vertex -3.23358 -1.33939 -8
      vertex -3.23358 -1.33939 -10
    endloop
  endfacet
  facet normal 0.471397 0.881921 -0
    outer loop
      vertex -1.33939 -3.23358 -10
      vertex -1.9445 -2.91014 -8
      vertex -1.33939 -3.23358 -8
    endloop
  endfacet
  facet normal 0.471397 0.881921 0
    outer loop
      vertex -1.9445 -2.91014 -8
      vertex -1.33939 -3.23358 -10
      vertex -1.9445 -2.91014 -10
    endloop
  endfacet
  facet normal 0.0980181 0.995185 -0
    outer loop
      vertex 0 -3.5 -10
      vertex -0.682816 -3.43275 -8
      vertex 0 -3.5 -8
    endloop
  endfacet
  facet normal 0.0980181 0.995185 0
    outer loop
      vertex -0.682816 -3.43275 -8
      vertex 0 -3.5 -10
      vertex -0.682816 -3.43275 -10
    endloop
  endfacet
  facet normal -0.0980181 -0.995185 0
    outer loop
      vertex 0 3.5 -10
      vertex 0.682816 3.43275 -8
      vertex 0 3.5 -8
    endloop
  endfacet
  facet normal -0.0980181 -0.995185 -0
    outer loop
      vertex 0.682816 3.43275 -8
      vertex 0 3.5 -10
      vertex 0.682816 3.43275 -10
    endloop
  endfacet
  facet normal -0.471397 -0.881921 0
    outer loop
      vertex 1.33939 3.23358 -10
      vertex 1.9445 2.91014 -8
      vertex 1.33939 3.23358 -8
    endloop
  endfacet
  facet normal -0.471397 -0.881921 -0
    outer loop
      vertex 1.9445 2.91014 -8
      vertex 1.33939 3.23358 -10
      vertex 1.9445 2.91014 -10
    endloop
  endfacet
  facet normal 0.634393 -0.773011 0
    outer loop
      vertex -2.47487 2.47487 -10
      vertex -1.9445 2.91014 -8
      vertex -2.47487 2.47487 -8
    endloop
  endfacet
  facet normal 0.634393 -0.773011 0
    outer loop
      vertex -1.9445 2.91014 -8
      vertex -2.47487 2.47487 -10
      vertex -1.9445 2.91014 -10
    endloop
  endfacet
  facet normal 0.290285 -0.95694 0
    outer loop
      vertex -1.33939 3.23358 -10
      vertex -0.682816 3.43275 -8
      vertex -1.33939 3.23358 -8
    endloop
  endfacet
  facet normal 0.290285 -0.95694 0
    outer loop
      vertex -0.682816 3.43275 -8
      vertex -1.33939 3.23358 -10
      vertex -0.682816 3.43275 -10
    endloop
  endfacet
  facet normal 0.881921 -0.471397 0
    outer loop
      vertex -3.23358 1.33939 -8
      vertex -2.91014 1.9445 -10
      vertex -2.91014 1.9445 -8
    endloop
  endfacet
  facet normal 0.881921 -0.471397 0
    outer loop
      vertex -2.91014 1.9445 -10
      vertex -3.23358 1.33939 -8
      vertex -3.23358 1.33939 -10
    endloop
  endfacet
  facet normal 0.773011 -0.634393 0
    outer loop
      vertex -2.91014 1.9445 -8
      vertex -2.47487 2.47487 -10
      vertex -2.47487 2.47487 -8
    endloop
  endfacet
  facet normal 0.773011 -0.634393 0
    outer loop
      vertex -2.47487 2.47487 -10
      vertex -2.91014 1.9445 -8
      vertex -2.91014 1.9445 -10
    endloop
  endfacet
  facet normal 0.995185 -0.0980181 0
    outer loop
      vertex -3.5 -9.79717e-16 -8
      vertex -3.43275 0.682816 -10
      vertex -3.43275 0.682816 -8
    endloop
  endfacet
  facet normal 0.995185 -0.0980181 1.01132e-17
    outer loop
      vertex -3.43275 0.682816 -10
      vertex -3.5 -9.79717e-16 -8
      vertex -3.5 -1.22465e-15 -10
    endloop
  endfacet
  facet normal -0.995185 -0.0980181 0
    outer loop
      vertex 3.43275 0.682816 -10
      vertex 3.5 -9.79717e-16 -8
      vertex 3.43275 0.682816 -8
    endloop
  endfacet
  facet normal -0.995185 -0.0980181 1.20038e-17
    outer loop
      vertex 3.5 -9.79717e-16 -8
      vertex 3.43275 0.682816 -10
      vertex 3.5 -1.22465e-15 -10
    endloop
  endfacet
  facet normal -0.290285 -0.95694 0
    outer loop
      vertex 0.682816 3.43275 -10
      vertex 1.33939 3.23358 -8
      vertex 0.682816 3.43275 -8
    endloop
  endfacet
  facet normal -0.290285 -0.95694 -0
    outer loop
      vertex 1.33939 3.23358 -8
      vertex 0.682816 3.43275 -10
      vertex 1.33939 3.23358 -10
    endloop
  endfacet
  facet normal -0.881921 -0.471397 0
    outer loop
      vertex 3.23358 1.33939 -10
      vertex 2.91014 1.9445 -8
      vertex 2.91014 1.9445 -10
    endloop
  endfacet
  facet normal -0.881921 -0.471397 0
    outer loop
      vertex 2.91014 1.9445 -8
      vertex 3.23358 1.33939 -10
      vertex 3.23358 1.33939 -8
    endloop
  endfacet
  facet normal -0.773011 -0.634393 0
    outer loop
      vertex 2.91014 1.9445 -10
      vertex 2.47487 2.47487 -8
      vertex 2.47487 2.47487 -10
    endloop
  endfacet
  facet normal -0.773011 -0.634393 0
    outer loop
      vertex 2.47487 2.47487 -8
      vertex 2.91014 1.9445 -10
      vertex 2.91014 1.9445 -8
    endloop
  endfacet
  facet normal -0.95694 -0.290285 0
    outer loop
      vertex 3.43275 0.682816 -10
      vertex 3.23358 1.33939 -8
      vertex 3.23358 1.33939 -10
    endloop
  endfacet
  facet normal -0.95694 -0.290285 0
    outer loop
      vertex 3.23358 1.33939 -8
      vertex 3.43275 0.682816 -10
      vertex 3.43275 0.682816 -8
    endloop
  endfacet
  facet normal 0.471397 -0.881921 0
    outer loop
      vertex -1.9445 2.91014 -10
      vertex -1.33939 3.23358 -8
      vertex -1.9445 2.91014 -8
    endloop
  endfacet
  facet normal 0.471397 -0.881921 0
    outer loop
      vertex -1.33939 3.23358 -8
      vertex -1.9445 2.91014 -10
      vertex -1.33939 3.23358 -10
    endloop
  endfacet
  facet normal 0.0980181 -0.995185 0
    outer loop
      vertex -0.682816 3.43275 -10
      vertex 0 3.5 -8
      vertex -0.682816 3.43275 -8
    endloop
  endfacet
  facet normal 0.0980181 -0.995185 0
    outer loop
      vertex 0 3.5 -8
      vertex -0.682816 3.43275 -10
      vertex 0 3.5 -10
    endloop
  endfacet
  facet normal 0.95694 -0.290285 0
    outer loop
      vertex -3.43275 0.682816 -8
      vertex -3.23358 1.33939 -10
      vertex -3.23358 1.33939 -8
    endloop
  endfacet
  facet normal 0.95694 -0.290285 0
    outer loop
      vertex -3.23358 1.33939 -10
      vertex -3.43275 0.682816 -8
      vertex -3.43275 0.682816 -10
    endloop
  endfacet
  facet normal -1 0 0
    outer loop
      vertex -5 5 -10
      vertex -5 2.92893 -8.002
      vertex -5 5 -8.002
    endloop
  endfacet
  facet normal -1 0 0
    outer loop
      vertex -5 -5 -10
      vertex -5 2.92893 -8.002
      vertex -5 5 -10
    endloop
  endfacet
  facet normal -1 0 0
    outer loop
      vertex -5 -5 6.12323e-16
      vertex -5 2.92893 -8.002
      vertex -5 -5 -10
    endloop
  endfacet
  facet normal -1 0 0
    outer loop
      vertex -5 2.92893 -8.002
      vertex -5 -5 6.12323e-16
      vertex -5 2.92893 -3.58691e-16
    endloop
  endfacet
  facet normal 0 0 -1
    outer loop
      vertex 5 -5 -10
      vertex 3.5 -1.22465e-15 -10
      vertex 5 5 -10
    endloop
  endfacet
  facet normal 0 0 -1
    outer loop
      vertex 5 -5 -10
      vertex 3.43275 -0.682816 -10
      vertex 3.5 -1.22465e-15 -10
    endloop
  endfacet
  facet normal 0 0 -1
    outer loop
      vertex 5 -5 -10
      vertex 3.23358 -1.33939 -10
      vertex 3.43275 -0.682816 -10
    endloop
  endfacet
  facet normal 0 0 -1
    outer loop
      vertex 5 -5 -10
      vertex 2.91014 -1.9445 -10
      vertex 3.23358 -1.33939 -10
    endloop
  endfacet
  facet normal 0 0 -1
    outer loop
      vertex 5 -5 -10
      vertex 2.47487 -2.47487 -10
      vertex 2.91014 -1.9445 -10
    endloop
  endfacet
  facet normal 0 0 -1
    outer loop
      vertex 5 -5 -10
      vertex 1.9445 -2.91014 -10
      vertex 2.47487 -2.47487 -10
    endloop
  endfacet
  facet normal 0 0 -1
    outer loop
      vertex 5 -5 -10
      vertex 1.33939 -3.23358 -10
      vertex 1.9445 -2.91014 -10
    endloop
  endfacet
  facet normal 0 0 -1
    outer loop
      vertex 5 -5 -10
      vertex 0.682816 -3.43275 -10
      vertex 1.33939 -3.23358 -10
    endloop
  endfacet
  facet normal 0 0 -1
    outer loop
      vertex 5 -5 -10
      vertex 0 -3.5 -10
      vertex 0.682816 -3.43275 -10
    endloop
  endfacet
  facet normal 0 0 -1
    outer loop
      vertex -5 -5 -10
      vertex 0 -3.5 -10
      vertex 5 -5 -10
    endloop
  endfacet
  facet normal -0 0 -1
    outer loop
      vertex -3.43275 -0.682816 -10
      vertex -5 -5 -10
      vertex -3.5 -1.22465e-15 -10
    endloop
  endfacet
  facet normal -0 0 -1
    outer loop
      vertex -3.23358 -1.33939 -10
      vertex -5 -5 -10
      vertex -3.43275 -0.682816 -10
    endloop
  endfacet
  facet normal -0 0 -1
    outer loop
      vertex -2.91014 -1.9445 -10
      vertex -5 -5 -10
      vertex -3.23358 -1.33939 -10
    endloop
  endfacet
  facet normal -0 0 -1
    outer loop
      vertex -2.47487 -2.47487 -10
      vertex -5 -5 -10
      vertex -2.91014 -1.9445 -10
    endloop
  endfacet
  facet normal -0 0 -1
    outer loop
      vertex -1.9445 -2.91014 -10
      vertex -5 -5 -10
      vertex -2.47487 -2.47487 -10
    endloop
  endfacet
  facet normal -0 0 -1
    outer loop
      vertex -1.33939 -3.23358 -10
      vertex -5 -5 -10
      vertex -1.9445 -2.91014 -10
    endloop
  endfacet
  facet normal -0 0 -1
    outer loop
      vertex -0.682816 -3.43275 -10
      vertex -5 -5 -10
      vertex -1.33939 -3.23358 -10
    endloop
  endfacet
  facet normal -0 0 -1
    outer loop
      vertex 0 -3.5 -10
      vertex -5 -5 -10
      vertex -0.682816 -3.43275 -10
    endloop
  endfacet
  facet normal 0 0 -1
    outer loop
      vertex 3.43275 0.682816 -10
      vertex 5 5 -10
      vertex 3.5 -1.22465e-15 -10
    endloop
  endfacet
  facet normal 0 0 -1
    outer loop
      vertex 3.23358 1.33939 -10
      vertex 5 5 -10
      vertex 3.43275 0.682816 -10
    endloop
  endfacet
  facet normal 0 0 -1
    outer loop
      vertex 2.91014 1.9445 -10
      vertex 5 5 -10
      vertex 3.23358 1.33939 -10
    endloop
  endfacet
  facet normal 0 0 -1
    outer loop
      vertex 2.47487 2.47487 -10
      vertex 5 5 -10
      vertex 2.91014 1.9445 -10
    endloop
  endfacet
  facet normal 0 0 -1
    outer loop
      vertex 1.9445 2.91014 -10
      vertex 5 5 -10
      vertex 2.47487 2.47487 -10
    endloop
  endfacet
  facet normal 0 0 -1
    outer loop
      vertex 1.33939 3.23358 -10
      vertex 5 5 -10
      vertex 1.9445 2.91014 -10
    endloop
  endfacet
  facet normal 0 0 -1
    outer loop
      vertex 0.682816 3.43275 -10
      vertex 5 5 -10
      vertex 1.33939 3.23358 -10
    endloop
  endfacet
  facet normal 0 0 -1
    outer loop
      vertex 0 3.5 -10
      vertex 5 5 -10
      vertex 0.682816 3.43275 -10
    endloop
  endfacet
  facet normal 0 0 -1
    outer loop
      vertex -5 5 -10
      vertex 0 3.5 -10
      vertex -0.682816 3.43275 -10
    endloop
  endfacet
  facet normal 0 0 -1
    outer loop
      vertex -5 5 -10
      vertex -3.5 -1.22465e-15 -10
      vertex -5 -5 -10
    endloop
  endfacet
  facet normal 0 0 -1
    outer loop
      vertex 0 3.5 -10
      vertex -5 5 -10
      vertex 5 5 -10
    endloop
  endfacet
  facet normal 0 0 -1
    outer loop
      vertex -1.33939 3.23358 -10
      vertex -5 5 -10
      vertex -0.682816 3.43275 -10
    endloop
  endfacet
  facet normal 0 0 -1
    outer loop
      vertex -1.9445 2.91014 -10
      vertex -5 5 -10
      vertex -1.33939 3.23358 -10
    endloop
  endfacet
  facet normal 0 0 -1
    outer loop
      vertex -2.47487 2.47487 -10
      vertex -5 5 -10
      vertex -1.9445 2.91014 -10
    endloop
  endfacet
  facet normal 0 0 -1
    outer loop
      vertex -2.91014 1.9445 -10
      vertex -5 5 -10
      vertex -2.47487 2.47487 -10
    endloop
  endfacet
  facet normal 0 0 -1
    outer loop
      vertex -3.23358 1.33939 -10
      vertex -5 5 -10
      vertex -2.91014 1.9445 -10
    endloop
  endfacet
  facet normal 0 0 -1
    outer loop
      vertex -3.43275 0.682816 -10
      vertex -5 5 -10
      vertex -3.23358 1.33939 -10
    endloop
  endfacet
  facet normal 0 0 -1
    outer loop
      vertex -3.5 -1.22465e-15 -10
      vertex -5 5 -10
      vertex -3.43275 0.682816 -10
    endloop
  endfacet
  facet normal 1 0 0
    outer loop
      vertex 5 -5 6.12323e-16
      vertex 5 5 -10
      vertex 5 5 -6.12323e-16
    endloop
  endfacet
  facet normal 1 0 0
    outer loop
      vertex 5 5 -10
      vertex 5 -5 6.12323e-16
      vertex 5 -5 -10
    endloop
  endfacet
  facet normal 0 -1 0
    outer loop
      vertex -5 -5 -10
      vertex 5 -5 6.12323e-16
      vertex -5 -5 6.12323e-16
    endloop
  endfacet
  facet normal 0 -1 -0
    outer loop
      vertex 5 -5 6.12323e-16
      vertex -5 -5 -10
      vertex 5 -5 -10
    endloop
  endfacet
  facet normal 0 1.22465e-16 1
    outer loop
      vertex 5 5 -6.12323e-16
      vertex 2.99991 0 0
      vertex 5 -5 6.12323e-16
    endloop
  endfacet
  facet normal -2.6924e-24 1.22465e-16 1
    outer loop
      vertex 5 5 -6.12323e-16
      vertex 2.9999 0.000129112 -1.58116e-20
      vertex 2.99991 0 0
    endloop
  endfacet
  facet normal -3.73545e-25 1.22465e-16 1
    outer loop
      vertex 5 5 -6.12323e-16
      vertex 2.94227 0.585254 -7.16729e-17
      vertex 2.9999 0.000129112 -1.58116e-20
    endloop
  endfacet
  facet normal 4.72268e-20 1.22443e-16 1
    outer loop
      vertex 5 5 -6.12323e-16
      vertex 2.94223 0.585378 -7.16881e-17
      vertex 2.94227 0.585254 -7.16729e-17
    endloop
  endfacet
  facet normal -2.64232e-23 1.22465e-16 1
    outer loop
      vertex 5 5 -6.12323e-16
      vertex 2.77156 1.14802 -1.40591e-16
      vertex 2.94223 0.585378 -7.16881e-17
    endloop
  endfacet
  facet normal 2.26202e-23 1.22465e-16 1
    outer loop
      vertex 5 5 -6.12323e-16
      vertex 2.4944 1.66655 -2.04093e-16
      vertex 2.77156 1.14802 -1.40591e-16
    endloop
  endfacet
  facet normal -5.27982e-21 1.22469e-16 1
    outer loop
      vertex 5 5 -6.12323e-16
      vertex 2.49434 1.66666 -2.04107e-16
      vertex 2.4944 1.66655 -2.04093e-16
    endloop
  endfacet
  facet normal -2.71517e-20 1.22485e-16 1
    outer loop
      vertex 5 5 -6.12323e-16
      vertex 2.49425 1.66676 -2.04119e-16
      vertex 2.49434 1.66666 -2.04107e-16
    endloop
  endfacet
  facet normal 2.50585e-24 1.22465e-16 1
    outer loop
      vertex 5 5 -6.12323e-16
      vertex 2.12126 2.12126 -2.59779e-16
      vertex 2.49425 1.66676 -2.04119e-16
    endloop
  endfacet
  facet normal -4.55411e-24 1.22465e-16 1
    outer loop
      vertex 5 5 -6.12323e-16
      vertex 1.66676 2.49425 -3.05458e-16
      vertex 2.12126 2.12126 -2.59779e-16
    endloop
  endfacet
  facet normal -5.59257e-20 1.22539e-16 1
    outer loop
      vertex 5 5 -6.12323e-16
      vertex 1.66666 2.49434 -3.05468e-16
      vertex 1.66676 2.49425 -3.05458e-16
    endloop
  endfacet
  facet normal 6.58357e-20 1.22377e-16 1
    outer loop
      vertex 5 5 -6.12323e-16
      vertex 1.66655 2.4944 -3.05476e-16
      vertex 1.66666 2.49434 -3.05468e-16
    endloop
  endfacet
  facet normal -2.50299e-24 1.22465e-16 1
    outer loop
      vertex 5 5 -6.12323e-16
      vertex 1.14802 2.77156 -3.39418e-16
      vertex 1.66655 2.4944 -3.05476e-16
    endloop
  endfacet
  facet normal -2.06762e-23 1.22465e-16 1
    outer loop
      vertex 5 5 -6.12323e-16
      vertex 0.585378 2.94223 -3.60319e-16
      vertex 1.14802 2.77156 -3.39418e-16
    endloop
  endfacet
  facet normal 3.66834e-20 1.22386e-16 1
    outer loop
      vertex 5 5 -6.12323e-16
      vertex 0.585254 2.94227 -3.60324e-16
      vertex 0.585378 2.94223 -3.60319e-16
    endloop
  endfacet
  facet normal -0 1.22465e-16 1
    outer loop
      vertex -2.92893 5 -6.12323e-16
      vertex 0.585254 2.94227 -3.60324e-16
      vertex 5 5 -6.12323e-16
    endloop
  endfacet
  facet normal 3.05937e-23 1.22465e-16 1
    outer loop
      vertex 0.585254 2.94227 -3.60324e-16
      vertex -2.92893 5 -6.12323e-16
      vertex 0.000129112 2.9999 -3.67382e-16
    endloop
  endfacet
  facet normal -1.2866e-19 1.22276e-16 1
    outer loop
      vertex 0.000129112 2.9999 -3.67382e-16
      vertex -2.92893 5 -6.12323e-16
      vertex 0 2.99991 -3.67383e-16
    endloop
  endfacet
  facet normal 9.64038e-20 1.22606e-16 1
    outer loop
      vertex 0 2.99991 -3.67383e-16
      vertex -2.92893 5 -6.12323e-16
      vertex -0.000129112 2.9999 -3.67382e-16
    endloop
  endfacet
  facet normal -2.28809e-23 1.22465e-16 1
    outer loop
      vertex -0.000129112 2.9999 -3.67382e-16
      vertex -2.92893 5 -6.12323e-16
      vertex -0.585254 2.94227 -3.60324e-16
    endloop
  endfacet
  facet normal -4.50087e-20 1.22413e-16 1
    outer loop
      vertex -0.585254 2.94227 -3.60324e-16
      vertex -2.92893 5 -6.12323e-16
      vertex -0.585378 2.94223 -3.60319e-16
    endloop
  endfacet
  facet normal 2.5368e-23 1.22465e-16 1
    outer loop
      vertex -0.585378 2.94223 -3.60319e-16
      vertex -2.92893 5 -6.12323e-16
      vertex -1.14802 2.77156 -3.39418e-16
    endloop
  endfacet
  facet normal 3.37423e-24 1.22465e-16 1
    outer loop
      vertex -2.92893 5 -6.12323e-16
      vertex -1.66655 2.4944 -3.05476e-16
      vertex -1.14802 2.77156 -3.39418e-16
    endloop
  endfacet
  facet normal -8.87821e-20 1.2242e-16 1
    outer loop
      vertex -2.92893 5 -6.12323e-16
      vertex -1.66666 2.49434 -3.05468e-16
      vertex -1.66655 2.4944 -3.05476e-16
    endloop
  endfacet
  facet normal 8.27603e-20 1.22506e-16 1
    outer loop
      vertex -2.92893 5 -6.12323e-16
      vertex -1.66676 2.49425 -3.05458e-16
      vertex -1.66666 2.49434 -3.05468e-16
    endloop
  endfacet
  facet normal 6.73973e-24 1.22465e-16 1
    outer loop
      vertex -2.92893 5 -6.12323e-16
      vertex -2.12126 2.12126 -2.59779e-16
      vertex -1.66676 2.49425 -3.05458e-16
    endloop
  endfacet
  facet normal -3.43435e-24 1.22465e-16 1
    outer loop
      vertex -5 2.92893 -3.58691e-16
      vertex -2.12126 2.12126 -2.59779e-16
      vertex -2.92893 5 -6.12323e-16
    endloop
  endfacet
  facet normal -3.6123e-24 1.22465e-16 1
    outer loop
      vertex -2.12126 2.12126 -2.59779e-16
      vertex -5 2.92893 -3.58691e-16
      vertex -2.49425 1.66676 -2.04119e-16
    endloop
  endfacet
  facet normal 1.52124e-20 1.22495e-16 1
    outer loop
      vertex -2.49425 1.66676 -2.04119e-16
      vertex -5 2.92893 -3.58691e-16
      vertex -2.49434 1.66666 -2.04107e-16
    endloop
  endfacet
  facet normal 2.69293e-21 1.2247e-16 1
    outer loop
      vertex -2.49434 1.66666 -2.04107e-16
      vertex -5 2.92893 -3.58691e-16
      vertex -2.4944 1.66655 -2.04093e-16
    endloop
  endfacet
  facet normal -1.49949e-23 1.22465e-16 1
    outer loop
      vertex -2.4944 1.66655 -2.04093e-16
      vertex -5 2.92893 -3.58691e-16
      vertex -2.77156 1.14802 -1.40591e-16
    endloop
  endfacet
  facet normal 1.39587e-23 1.22465e-16 1
    outer loop
      vertex -2.77156 1.14802 -1.40591e-16
      vertex -5 2.92893 -3.58691e-16
      vertex -2.94223 0.585378 -7.16881e-17
    endloop
  endfacet
  facet normal -3.07639e-20 1.22438e-16 1
    outer loop
      vertex -2.94223 0.585378 -7.16881e-17
      vertex -5 2.92893 -3.58691e-16
      vertex -2.94227 0.585254 -7.16729e-17
    endloop
  endfacet
  facet normal -2.79245e-24 1.22465e-16 1
    outer loop
      vertex -2.94227 0.585254 -7.16729e-17
      vertex -5 2.92893 -3.58691e-16
      vertex -2.9999 0.000129112 -1.58116e-20
    endloop
  endfacet
  facet normal -1.31652e-24 1.22465e-16 1
    outer loop
      vertex -2.9999 0.000129112 -1.58116e-20
      vertex -5 2.92893 -3.58691e-16
      vertex -2.99991 0 0
    endloop
  endfacet
  facet normal 2.69197e-24 1.22465e-16 1
    outer loop
      vertex 2.9999 -0.000129112 1.58116e-20
      vertex 5 -5 6.12323e-16
      vertex 2.99991 0 0
    endloop
  endfacet
  facet normal 3.73545e-25 1.22465e-16 1
    outer loop
      vertex 2.94227 -0.585254 7.16729e-17
      vertex 5 -5 6.12323e-16
      vertex 2.9999 -0.000129112 1.58116e-20
    endloop
  endfacet
  facet normal -4.72268e-20 1.22443e-16 1
    outer loop
      vertex 2.94223 -0.585378 7.16881e-17
      vertex 5 -5 6.12323e-16
      vertex 2.94227 -0.585254 7.16729e-17
    endloop
  endfacet
  facet normal 2.64232e-23 1.22465e-16 1
    outer loop
      vertex 2.77156 -1.14802 1.40591e-16
      vertex 5 -5 6.12323e-16
      vertex 2.94223 -0.585378 7.16881e-17
    endloop
  endfacet
  facet normal -2.26202e-23 1.22465e-16 1
    outer loop
      vertex 2.4944 -1.66655 2.04093e-16
      vertex 5 -5 6.12323e-16
      vertex 2.77156 -1.14802 1.40591e-16
    endloop
  endfacet
  facet normal 5.27982e-21 1.22469e-16 1
    outer loop
      vertex 2.49434 -1.66666 2.04107e-16
      vertex 5 -5 6.12323e-16
      vertex 2.4944 -1.66655 2.04093e-16
    endloop
  endfacet
  facet normal 2.71517e-20 1.22485e-16 1
    outer loop
      vertex 2.49425 -1.66676 2.04119e-16
      vertex 5 -5 6.12323e-16
      vertex 2.49434 -1.66666 2.04107e-16
    endloop
  endfacet
  facet normal -2.50585e-24 1.22465e-16 1
    outer loop
      vertex 2.12126 -2.12126 2.59779e-16
      vertex 5 -5 6.12323e-16
      vertex 2.49425 -1.66676 2.04119e-16
    endloop
  endfacet
  facet normal 4.55411e-24 1.22465e-16 1
    outer loop
      vertex 1.66676 -2.49425 3.05458e-16
      vertex 5 -5 6.12323e-16
      vertex 2.12126 -2.12126 2.59779e-16
    endloop
  endfacet
  facet normal 5.59257e-20 1.22539e-16 1
    outer loop
      vertex 1.66666 -2.49434 3.05468e-16
      vertex 5 -5 6.12323e-16
      vertex 1.66676 -2.49425 3.05458e-16
    endloop
  endfacet
  facet normal -6.58357e-20 1.22377e-16 1
    outer loop
      vertex 1.66655 -2.4944 3.05476e-16
      vertex 5 -5 6.12323e-16
      vertex 1.66666 -2.49434 3.05468e-16
    endloop
  endfacet
  facet normal 2.50299e-24 1.22465e-16 1
    outer loop
      vertex 1.14802 -2.77156 3.39418e-16
      vertex 5 -5 6.12323e-16
      vertex 1.66655 -2.4944 3.05476e-16
    endloop
  endfacet
  facet normal 2.06762e-23 1.22465e-16 1
    outer loop
      vertex 0.585378 -2.94223 3.60319e-16
      vertex 5 -5 6.12323e-16
      vertex 1.14802 -2.77156 3.39418e-16
    endloop
  endfacet
  facet normal -3.66834e-20 1.22386e-16 1
    outer loop
      vertex 0.585254 -2.94227 3.60324e-16
      vertex 5 -5 6.12323e-16
      vertex 0.585378 -2.94223 3.60319e-16
    endloop
  endfacet
  facet normal -2.10084e-23 1.22465e-16 1
    outer loop
      vertex 0.000129112 -2.9999 3.67382e-16
      vertex 5 -5 6.12323e-16
      vertex 0.585254 -2.94227 3.60324e-16
    endloop
  endfacet
  facet normal 8.85544e-20 1.22686e-16 1
    outer loop
      vertex 0 -2.99991 3.67383e-16
      vertex 5 -5 6.12323e-16
      vertex 0.000129112 -2.9999 3.67382e-16
    endloop
  endfacet
  facet normal -8.85544e-20 1.22686e-16 1
    outer loop
      vertex -5 -5 6.12323e-16
      vertex 0 -2.99991 3.67383e-16
      vertex -0.000129112 -2.9999 3.67382e-16
    endloop
  endfacet
  facet normal 2.10084e-23 1.22465e-16 1
    outer loop
      vertex -5 -5 6.12323e-16
      vertex -0.000129112 -2.9999 3.67382e-16
      vertex -0.585254 -2.94227 3.60324e-16
    endloop
  endfacet
  facet normal 3.66834e-20 1.22386e-16 1
    outer loop
      vertex -5 -5 6.12323e-16
      vertex -0.585254 -2.94227 3.60324e-16
      vertex -0.585378 -2.94223 3.60319e-16
    endloop
  endfacet
  facet normal -2.06762e-23 1.22465e-16 1
    outer loop
      vertex -5 -5 6.12323e-16
      vertex -0.585378 -2.94223 3.60319e-16
      vertex -1.14802 -2.77156 3.39418e-16
    endloop
  endfacet
  facet normal 4.72268e-20 1.22443e-16 1
    outer loop
      vertex -5 -5 6.12323e-16
      vertex -2.94223 -0.585378 7.16881e-17
      vertex -2.94227 -0.585254 7.16729e-17
    endloop
  endfacet
  facet normal -1.7562e-24 1.22465e-16 1
    outer loop
      vertex -5 2.92893 -3.58691e-16
      vertex -2.9999 -0.000129112 1.58116e-20
      vertex -2.99991 0 0
    endloop
  endfacet
  facet normal -3.73391e-24 1.22465e-16 1
    outer loop
      vertex -5 2.92893 -3.58691e-16
      vertex -2.94227 -0.585254 7.16729e-17
      vertex -2.9999 -0.000129112 1.58116e-20
    endloop
  endfacet
  facet normal -1.92985e-24 1.22465e-16 1
    outer loop
      vertex -5 -5 6.12323e-16
      vertex -2.94227 -0.585254 7.16729e-17
      vertex -5 2.92893 -3.58691e-16
    endloop
  endfacet
  facet normal -2.64232e-23 1.22465e-16 1
    outer loop
      vertex -2.94223 -0.585378 7.16881e-17
      vertex -5 -5 6.12323e-16
      vertex -2.77156 -1.14802 1.40591e-16
    endloop
  endfacet
  facet normal 2.26202e-23 1.22465e-16 1
    outer loop
      vertex -2.77156 -1.14802 1.40591e-16
      vertex -5 -5 6.12323e-16
      vertex -2.4944 -1.66655 2.04093e-16
    endloop
  endfacet
  facet normal 0 1.22465e-16 1
    outer loop
      vertex 0 -2.99991 3.67383e-16
      vertex -5 -5 6.12323e-16
      vertex 5 -5 6.12323e-16
    endloop
  endfacet
  facet normal -2.50299e-24 1.22465e-16 1
    outer loop
      vertex -1.66655 -2.4944 3.05476e-16
      vertex -5 -5 6.12323e-16
      vertex -1.14802 -2.77156 3.39418e-16
    endloop
  endfacet
  facet normal 6.58357e-20 1.22377e-16 1
    outer loop
      vertex -1.66666 -2.49434 3.05468e-16
      vertex -5 -5 6.12323e-16
      vertex -1.66655 -2.4944 3.05476e-16
    endloop
  endfacet
  facet normal -5.59257e-20 1.22539e-16 1
    outer loop
      vertex -1.66676 -2.49425 3.05458e-16
      vertex -5 -5 6.12323e-16
      vertex -1.66666 -2.49434 3.05468e-16
    endloop
  endfacet
  facet normal -4.55411e-24 1.22465e-16 1
    outer loop
      vertex -2.12126 -2.12126 2.59779e-16
      vertex -5 -5 6.12323e-16
      vertex -1.66676 -2.49425 3.05458e-16
    endloop
  endfacet
  facet normal 2.50585e-24 1.22465e-16 1
    outer loop
      vertex -2.49425 -1.66676 2.04119e-16
      vertex -5 -5 6.12323e-16
      vertex -2.12126 -2.12126 2.59779e-16
    endloop
  endfacet
  facet normal -2.71517e-20 1.22485e-16 1
    outer loop
      vertex -2.49434 -1.66666 2.04107e-16
      vertex -5 -5 6.12323e-16
      vertex -2.49425 -1.66676 2.04119e-16
    endloop
  endfacet
  facet normal -5.27982e-21 1.22469e-16 1
    outer loop
      vertex -2.4944 -1.66655 2.04093e-16
      vertex -5 -5 6.12323e-16
      vertex -2.49434 -1.66666 2.04107e-16
    endloop
  endfacet
  facet normal 0 1 0
    outer loop
      vertex 5 5 -6.12323e-16
      vertex -2.92893 5 -8.002
      vertex -2.92893 5 -6.12323e-16
    endloop
  endfacet
  facet normal 0 1 -0
    outer loop
      vertex 5 5 -10
      vertex -2.92893 5 -8.002
      vertex 5 5 -6.12323e-16
    endloop
  endfacet
  facet normal 0 1 0
    outer loop
      vertex -5 5 -10
      vertex -2.92893 5 -8.002
      vertex 5 5 -10
    endloop
  endfacet
  facet normal 0 1 0
    outer loop
      vertex -2.92893 5 -8.002
      vertex -5 5 -10
      vertex -5 5 -8.002
    endloop
  endfacet
  facet normal -0.707107 0.707107 0
    outer loop
      vertex -2.92893 5 -8.002
      vertex -5 2.92893 -3.58691e-16
      vertex -2.92893 5 -6.12323e-16
    endloop
  endfacet
  facet normal -0.707107 0.707107 0
    outer loop
      vertex -5 2.92893 -3.58691e-16
      vertex -2.92893 5 -8.002
      vertex -5 2.92893 -8.002
    endloop
  endfacet
  facet normal 0 0 1
    outer loop
      vertex -5 2.92893 -8.002
      vertex -2.92893 5 -8.002
      vertex -5 5 -8.002
    endloop
  endfacet
endsolid OpenSCAD_Model
