<?xml version="1.0" encoding="UTF-8" standalone="no"?>
<!-- Created with Inkscape (http://www.inkscape.org/) -->

<svg
   xmlns:dc="http://purl.org/dc/elements/1.1/"
   xmlns:cc="http://creativecommons.org/ns#"
   xmlns:rdf="http://www.w3.org/1999/02/22-rdf-syntax-ns#"
   xmlns:svg="http://www.w3.org/2000/svg"
   xmlns="http://www.w3.org/2000/svg"
   xmlns:sodipodi="http://sodipodi.sourceforge.net/DTD/sodipodi-0.dtd"
   xmlns:inkscape="http://www.inkscape.org/namespaces/inkscape"
   width="744.09448819"
   height="1052.3622047"
   id="svg2"
   version="1.1"
   inkscape:version="0.48.2 r9819"
   sodipodi:docname="pcb_bracket_small.svg">
  <defs
     id="defs4">
    <clipPath
       id="clipPath3020"
       clipPathUnits="userSpaceOnUse">
      <path
         id="path3022"
         d="m 161.76,225.12 0,162 468,0 0,-162 -468,0 z" />
    </clipPath>
  </defs>
  <sodipodi:namedview
     id="base"
     pagecolor="#ffffff"
     bordercolor="#666666"
     borderopacity="1.0"
     inkscape:pageopacity="0.0"
     inkscape:pageshadow="2"
     inkscape:zoom="0.58"
     inkscape:cx="95.340364"
     inkscape:cy="775.45194"
     inkscape:document-units="px"
     inkscape:current-layer="layer1"
     showgrid="false"
     inkscape:window-width="939"
     inkscape:window-height="628"
     inkscape:window-x="0"
     inkscape:window-y="0"
     inkscape:window-maximized="0" />
  <metadata
     id="metadata7">
    <rdf:RDF>
      <cc:Work
         rdf:about="">
        <dc:format>image/svg+xml</dc:format>
        <dc:type
           rdf:resource="http://purl.org/dc/dcmitype/StillImage" />
        <dc:title />
      </cc:Work>
    </rdf:RDF>
  </metadata>
  <g
     inkscape:label="Layer 1"
     inkscape:groupmode="layer"
     id="layer1">
    <g
       style="fill:none;stroke:#ff0000;stroke-width:0.28346458;stroke-miterlimit:4;stroke-opacity:1;stroke-dasharray:none"
       id="g3014"
       transform="matrix(1.25,0,0,-1.25,-114.62502,560.80147)" />
    <g
       clip-path="url(#clipPath3020)"
       id="g3018"
       style="fill:none;stroke:#ff0000;stroke-width:0.28346458;stroke-miterlimit:4;stroke-opacity:1;stroke-dasharray:none"
       transform="matrix(1.25,0,0,-1.25,-114.62502,560.80147)">
      <g
         transform="matrix(0.24,0,0,-0.24,0.06,611.94)"
         id="g3024"
         style="fill:none;stroke:#ff0000;stroke-width:1.1811024;stroke-miterlimit:4;stroke-opacity:1;stroke-dasharray:none" />
      <g
         transform="matrix(0.24,0,0,-0.24,0.06,611.94)"
         id="g3028"
         style="fill:none;stroke:#ff0000;stroke-width:1.1811024;stroke-miterlimit:4;stroke-opacity:1;stroke-dasharray:none" />
      <g
         transform="matrix(0.24,0,0,-0.24,0.06,611.94)"
         id="g3032"
         style="fill:none;stroke:#ff0000;stroke-width:1.1811024;stroke-miterlimit:4;stroke-opacity:1;stroke-dasharray:none" />
      <g
         transform="matrix(0.24,0,0,-0.24,0.06,611.94)"
         id="g3036"
         style="fill:none;stroke:#ff0000;stroke-width:1.1811024;stroke-miterlimit:4;stroke-opacity:1;stroke-dasharray:none" />
      <g
         transform="matrix(0.24,0,0,-0.24,0.06,611.94)"
         id="g3040"
         style="fill:none;stroke:#ff0000;stroke-width:1.1811024;stroke-miterlimit:4;stroke-opacity:1;stroke-dasharray:none" />
      <g
         transform="matrix(0.24,0,0,-0.24,0.06,611.94)"
         id="g3044"
         style="fill:none;stroke:#ff0000;stroke-width:1.1811024;stroke-miterlimit:4;stroke-opacity:1;stroke-dasharray:none">
        <path
           id="path3046"
           style="fill:none;stroke:#ff0000;stroke-width:1.1811024;stroke-linecap:round;stroke-linejoin:round;stroke-miterlimit:4;stroke-opacity:1;stroke-dasharray:none"
           d="m 2021.9334,1162 -867.9334,0 -2,10 -5,9 -7,6 -9,4 -10,1 -10,-3 -8,-6 -6,-8 -3,-10 1,-10 4,-9 6,-7 9,-5 10,-2 0,-194.0002 -448.9999,0 0,630.0002 1,11 3.9999,10 7.0001,9 8.9999,7 10.0001,4 11,1 1304.9333,0 z"
           inkscape:connector-curvature="0"
           sodipodi:nodetypes="ccccccccccccccccccccccccccc" />
      </g>
      <g
         transform="matrix(0.24,0,0,-0.24,0.06,611.94)"
         id="g3048"
         style="fill:none;stroke:#ff0000;stroke-width:1.1811024;stroke-miterlimit:4;stroke-opacity:1;stroke-dasharray:none" />
      <g
         transform="matrix(0.24,0,0,-0.24,0.06,611.94)"
         id="g3052"
         style="fill:none;stroke:#ff0000;stroke-width:1.1811024;stroke-miterlimit:4;stroke-opacity:1;stroke-dasharray:none" />
      <g
         transform="matrix(0.24,0,0,-0.24,0.06,611.94)"
         id="g3056"
         style="fill:none;stroke:#ff0000;stroke-width:1.1811024;stroke-miterlimit:4;stroke-opacity:1;stroke-dasharray:none" />
    </g>
  </g>
</svg>
