<?xml version="1.0" encoding="UTF-8" standalone="no"?>
<!-- Created with Inkscape (http://www.inkscape.org/) -->

<svg
   xmlns:dc="http://purl.org/dc/elements/1.1/"
   xmlns:cc="http://creativecommons.org/ns#"
   xmlns:rdf="http://www.w3.org/1999/02/22-rdf-syntax-ns#"
   xmlns:svg="http://www.w3.org/2000/svg"
   xmlns="http://www.w3.org/2000/svg"
   xmlns:sodipodi="http://sodipodi.sourceforge.net/DTD/sodipodi-0.dtd"
   xmlns:inkscape="http://www.inkscape.org/namespaces/inkscape"
   id="svg3004"
   version="1.1"
   inkscape:version="0.48.5 r10040"
   width="990"
   height="765"
   xml:space="preserve"
   sodipodi:docname="pcb_bracket_tiny.pdf"><metadata
     id="metadata3010"><rdf:RDF><cc:Work
         rdf:about=""><dc:format>image/svg+xml</dc:format><dc:type
           rdf:resource="http://purl.org/dc/dcmitype/StillImage" /><dc:title></dc:title></cc:Work></rdf:RDF></metadata><defs
     id="defs3008"><clipPath
       clipPathUnits="userSpaceOnUse"
       id="clipPath3020"><path
         d="m 348.96,259.44 0,93.6 93.6,0 0,-93.6 -93.6,0 z"
         id="path3022" /></clipPath></defs><sodipodi:namedview
     pagecolor="#ffffff"
     bordercolor="#666666"
     borderopacity="1"
     objecttolerance="10"
     gridtolerance="10"
     guidetolerance="10"
     inkscape:pageopacity="0"
     inkscape:pageshadow="2"
     inkscape:window-width="640"
     inkscape:window-height="480"
     id="namedview3006"
     showgrid="false"
     inkscape:zoom="0.63921569"
     inkscape:cx="495"
     inkscape:cy="382.5"
     inkscape:window-x="0"
     inkscape:window-y="0"
     inkscape:window-maximized="0"
     inkscape:current-layer="g3012" /><g
     id="g3012"
     inkscape:groupmode="layer"
     inkscape:label="pcb_bracket_tiny"
     transform="matrix(1.25,0,0,-1.25,0,765)"><g
       id="g3014" /><g
       id="g3016"><g
         id="g3018"
         clip-path="url(#clipPath3020)"><g
           id="g3024"
           transform="matrix(0.24,0,0,-0.24,0.06,611.94)"><path
             d="m 1693,1080 -239,0"
             style="fill:none;stroke:#000000;stroke-opacity:1;stroke-width:0.9;stroke-linecap:round;stroke-linejoin:round;stroke-miterlimit:10;stroke-dasharray:none"
             id="path3026" /></g><g
           id="g3028"
           transform="matrix(0.24,0,0,-0.24,0.06,611.94)"><path
             d="m 1454,1080 0,321"
             style="fill:none;stroke:#000000;stroke-opacity:1;stroke-width:0.9;stroke-linecap:round;stroke-linejoin:round;stroke-miterlimit:10;stroke-dasharray:none"
             id="path3030" /></g><g
           id="g3032"
           transform="matrix(0.24,0,0,-0.24,0.06,611.94)"><path
             d="m 1454,1401 2,15 5,14 8,12 11,11 12,8 14,5 15,2"
             style="fill:none;stroke:#000000;stroke-opacity:1;stroke-width:0.9;stroke-linecap:round;stroke-linejoin:round;stroke-miterlimit:10;stroke-dasharray:none"
             id="path3034" /></g><g
           id="g3036"
           transform="matrix(0.24,0,0,-0.24,0.06,611.94)"><path
             d="m 1521,1468 321,0"
             style="fill:none;stroke:#000000;stroke-opacity:1;stroke-width:0.9;stroke-linecap:round;stroke-linejoin:round;stroke-miterlimit:10;stroke-dasharray:none"
             id="path3038" /></g><g
           id="g3040"
           transform="matrix(0.24,0,0,-0.24,0.06,611.94)"><path
             d="m 1842,1468 0,-239"
             style="fill:none;stroke:#000000;stroke-opacity:1;stroke-width:0.9;stroke-linecap:round;stroke-linejoin:round;stroke-miterlimit:10;stroke-dasharray:none"
             id="path3042" /></g><g
           id="g3044"
           transform="matrix(0.24,0,0,-0.24,0.06,611.94)"><path
             d="m 1842,1229 -119,0"
             style="fill:none;stroke:#000000;stroke-opacity:1;stroke-width:0.9;stroke-linecap:round;stroke-linejoin:round;stroke-miterlimit:10;stroke-dasharray:none"
             id="path3046" /></g><g
           id="g3048"
           transform="matrix(0.24,0,0,-0.24,0.06,611.94)"><path
             d="m 1693,1199 0,-119"
             style="fill:none;stroke:#000000;stroke-opacity:1;stroke-width:0.9;stroke-linecap:round;stroke-linejoin:round;stroke-miterlimit:10;stroke-dasharray:none"
             id="path3050" /></g><g
           id="g3052"
           transform="matrix(0.24,0,0,-0.24,0.06,611.94)"><path
             d="m 1693,1199 -10,2 -9,5 -6,7 -4,9 -1,10 3,10 6,8 8,6 10,3 10,-1 9,-4 7,-6 5,-9 2,-10"
             style="fill:none;stroke:#000000;stroke-opacity:1;stroke-width:0.9;stroke-linecap:round;stroke-linejoin:round;stroke-miterlimit:10;stroke-dasharray:none"
             id="path3054" /></g></g></g></g></svg>