M48
;DRILL file {KiCad (5.0.1-3-g963ef8bb5)} date Saturday, June 08, 2019 at 06:57:29 PM
;FORMAT={-:-/ absolute / inch / decimal}
FMAT,2
INCH,TZ
T1C0.0315
T2C0.0374
T3C0.0512
T4C0.1260
%
G90
G05
M72
T1
X5.525Y-3.875
T2
X5.175Y-4.15
X5.275Y-4.15
X5.375Y-4.15
X5.475Y-4.15
X4.7Y-3.2
X5.Y-3.2
X5.825Y-3.475
X5.825Y-3.775
X5.65Y-4.15
X5.75Y-4.15
X5.85Y-4.15
X5.3Y-3.1929
X5.5Y-3.1929
X5.7Y-3.1929
X5.8Y-3.1929
X4.7Y-4.15
X4.8Y-4.15
X4.9Y-4.15
X5.Y-4.15
X4.375Y-3.35
X4.375Y-3.95
X4.475Y-3.35
X4.475Y-3.45
X4.475Y-3.95
X5.675Y-3.35
X5.675Y-3.45
X5.675Y-3.85
X5.675Y-3.95
X5.825Y-3.925
X6.125Y-3.925
X5.825Y-3.325
X6.125Y-3.325
X4.7Y-3.
X5.Y-3.
T3
X6.075Y-3.525
X6.075Y-3.725
T4
X4.45Y-3.05
X4.45Y-4.15
X6.1Y-4.15
X6.1Y-3.05
T0
M30
