G04 #@! TF.GenerationSoftware,KiCad,Pcbnew,(5.0.1-3-g963ef8bb5)*
G04 #@! TF.CreationDate,2019-06-08T18:57:16-07:00*
G04 #@! TF.ProjectId,board,626F6172642E6B696361645F70636200,rev?*
G04 #@! TF.SameCoordinates,Original*
G04 #@! TF.FileFunction,Legend,Bot*
G04 #@! TF.FilePolarity,Positive*
%FSLAX46Y46*%
G04 Gerber Fmt 4.6, Leading zero omitted, Abs format (unit mm)*
G04 Created by KiCad (PCBNEW (5.0.1-3-g963ef8bb5)) date Saturday, June 08, 2019 at 06:57:16 PM*
%MOMM*%
%LPD*%
G01*
G04 APERTURE LIST*
%ADD10C,0.300000*%
G04 APERTURE END LIST*
D10*
X141338714Y-101516571D02*
X141838714Y-100802285D01*
X142195857Y-101516571D02*
X142195857Y-100016571D01*
X141624428Y-100016571D01*
X141481571Y-100088000D01*
X141410142Y-100159428D01*
X141338714Y-100302285D01*
X141338714Y-100516571D01*
X141410142Y-100659428D01*
X141481571Y-100730857D01*
X141624428Y-100802285D01*
X142195857Y-100802285D01*
X140124428Y-101445142D02*
X140267285Y-101516571D01*
X140553000Y-101516571D01*
X140695857Y-101445142D01*
X140767285Y-101302285D01*
X140767285Y-100730857D01*
X140695857Y-100588000D01*
X140553000Y-100516571D01*
X140267285Y-100516571D01*
X140124428Y-100588000D01*
X140053000Y-100730857D01*
X140053000Y-100873714D01*
X140767285Y-101016571D01*
X139553000Y-100516571D02*
X139195857Y-101516571D01*
X138838714Y-100516571D01*
X136338714Y-101516571D02*
X137195857Y-101516571D01*
X136767285Y-101516571D02*
X136767285Y-100016571D01*
X136910142Y-100230857D01*
X137053000Y-100373714D01*
X137195857Y-100445142D01*
X135695857Y-101373714D02*
X135624428Y-101445142D01*
X135695857Y-101516571D01*
X135767285Y-101445142D01*
X135695857Y-101373714D01*
X135695857Y-101516571D01*
X134695857Y-100016571D02*
X134553000Y-100016571D01*
X134410142Y-100088000D01*
X134338714Y-100159428D01*
X134267285Y-100302285D01*
X134195857Y-100588000D01*
X134195857Y-100945142D01*
X134267285Y-101230857D01*
X134338714Y-101373714D01*
X134410142Y-101445142D01*
X134553000Y-101516571D01*
X134695857Y-101516571D01*
X134838714Y-101445142D01*
X134910142Y-101373714D01*
X134981571Y-101230857D01*
X135053000Y-100945142D01*
X135053000Y-100588000D01*
X134981571Y-100302285D01*
X134910142Y-100159428D01*
X134838714Y-100088000D01*
X134695857Y-100016571D01*
X142267285Y-97381142D02*
X142053000Y-97452571D01*
X141695857Y-97452571D01*
X141553000Y-97381142D01*
X141481571Y-97309714D01*
X141410142Y-97166857D01*
X141410142Y-97024000D01*
X141481571Y-96881142D01*
X141553000Y-96809714D01*
X141695857Y-96738285D01*
X141981571Y-96666857D01*
X142124428Y-96595428D01*
X142195857Y-96524000D01*
X142267285Y-96381142D01*
X142267285Y-96238285D01*
X142195857Y-96095428D01*
X142124428Y-96024000D01*
X141981571Y-95952571D01*
X141624428Y-95952571D01*
X141410142Y-96024000D01*
X140981571Y-96452571D02*
X140410142Y-96452571D01*
X140767285Y-95952571D02*
X140767285Y-97238285D01*
X140695857Y-97381142D01*
X140553000Y-97452571D01*
X140410142Y-97452571D01*
X139267285Y-97452571D02*
X139267285Y-96666857D01*
X139338714Y-96524000D01*
X139481571Y-96452571D01*
X139767285Y-96452571D01*
X139910142Y-96524000D01*
X139267285Y-97381142D02*
X139410142Y-97452571D01*
X139767285Y-97452571D01*
X139910142Y-97381142D01*
X139981571Y-97238285D01*
X139981571Y-97095428D01*
X139910142Y-96952571D01*
X139767285Y-96881142D01*
X139410142Y-96881142D01*
X139267285Y-96809714D01*
X138767285Y-96452571D02*
X138195857Y-96452571D01*
X138553000Y-95952571D02*
X138553000Y-97238285D01*
X138481571Y-97381142D01*
X138338714Y-97452571D01*
X138195857Y-97452571D01*
X137053000Y-96452571D02*
X137053000Y-97452571D01*
X137695857Y-96452571D02*
X137695857Y-97238285D01*
X137624428Y-97381142D01*
X137481571Y-97452571D01*
X137267285Y-97452571D01*
X137124428Y-97381142D01*
X137053000Y-97309714D01*
X136410142Y-97381142D02*
X136267285Y-97452571D01*
X135981571Y-97452571D01*
X135838714Y-97381142D01*
X135767285Y-97238285D01*
X135767285Y-97166857D01*
X135838714Y-97024000D01*
X135981571Y-96952571D01*
X136195857Y-96952571D01*
X136338714Y-96881142D01*
X136410142Y-96738285D01*
X136410142Y-96666857D01*
X136338714Y-96524000D01*
X136195857Y-96452571D01*
X135981571Y-96452571D01*
X135838714Y-96524000D01*
X133981571Y-97452571D02*
X133981571Y-95952571D01*
X133481571Y-97024000D01*
X132981571Y-95952571D01*
X132981571Y-97452571D01*
X132053000Y-97452571D02*
X132195857Y-97381142D01*
X132267285Y-97309714D01*
X132338714Y-97166857D01*
X132338714Y-96738285D01*
X132267285Y-96595428D01*
X132195857Y-96524000D01*
X132053000Y-96452571D01*
X131838714Y-96452571D01*
X131695857Y-96524000D01*
X131624428Y-96595428D01*
X131553000Y-96738285D01*
X131553000Y-97166857D01*
X131624428Y-97309714D01*
X131695857Y-97381142D01*
X131838714Y-97452571D01*
X132053000Y-97452571D01*
X130910142Y-96452571D02*
X130910142Y-97452571D01*
X130910142Y-96595428D02*
X130838714Y-96524000D01*
X130695857Y-96452571D01*
X130481571Y-96452571D01*
X130338714Y-96524000D01*
X130267285Y-96666857D01*
X130267285Y-97452571D01*
X129553000Y-97452571D02*
X129553000Y-96452571D01*
X129553000Y-95952571D02*
X129624428Y-96024000D01*
X129553000Y-96095428D01*
X129481571Y-96024000D01*
X129553000Y-95952571D01*
X129553000Y-96095428D01*
X129053000Y-96452571D02*
X128481571Y-96452571D01*
X128838714Y-95952571D02*
X128838714Y-97238285D01*
X128767285Y-97381142D01*
X128624428Y-97452571D01*
X128481571Y-97452571D01*
X127767285Y-97452571D02*
X127910142Y-97381142D01*
X127981571Y-97309714D01*
X128053000Y-97166857D01*
X128053000Y-96738285D01*
X127981571Y-96595428D01*
X127910142Y-96524000D01*
X127767285Y-96452571D01*
X127553000Y-96452571D01*
X127410142Y-96524000D01*
X127338714Y-96595428D01*
X127267285Y-96738285D01*
X127267285Y-97166857D01*
X127338714Y-97309714D01*
X127410142Y-97381142D01*
X127553000Y-97452571D01*
X127767285Y-97452571D01*
X126624428Y-97452571D02*
X126624428Y-96452571D01*
X126624428Y-96738285D02*
X126553000Y-96595428D01*
X126481571Y-96524000D01*
X126338714Y-96452571D01*
X126195857Y-96452571D01*
X124767285Y-96452571D02*
X124195857Y-96452571D01*
X124553000Y-97452571D02*
X124553000Y-96166857D01*
X124481571Y-96024000D01*
X124338714Y-95952571D01*
X124195857Y-95952571D01*
X123481571Y-97452571D02*
X123624428Y-97381142D01*
X123695857Y-97309714D01*
X123767285Y-97166857D01*
X123767285Y-96738285D01*
X123695857Y-96595428D01*
X123624428Y-96524000D01*
X123481571Y-96452571D01*
X123267285Y-96452571D01*
X123124428Y-96524000D01*
X123053000Y-96595428D01*
X122981571Y-96738285D01*
X122981571Y-97166857D01*
X123053000Y-97309714D01*
X123124428Y-97381142D01*
X123267285Y-97452571D01*
X123481571Y-97452571D01*
X122338714Y-97452571D02*
X122338714Y-96452571D01*
X122338714Y-96738285D02*
X122267285Y-96595428D01*
X122195857Y-96524000D01*
X122053000Y-96452571D01*
X121910142Y-96452571D01*
X120267285Y-97452571D02*
X120267285Y-95952571D01*
X119910142Y-95952571D01*
X119695857Y-96024000D01*
X119553000Y-96166857D01*
X119481571Y-96309714D01*
X119410142Y-96595428D01*
X119410142Y-96809714D01*
X119481571Y-97095428D01*
X119553000Y-97238285D01*
X119695857Y-97381142D01*
X119910142Y-97452571D01*
X120267285Y-97452571D01*
X118124428Y-96452571D02*
X118124428Y-97452571D01*
X118767285Y-96452571D02*
X118767285Y-97238285D01*
X118695857Y-97381142D01*
X118553000Y-97452571D01*
X118338714Y-97452571D01*
X118195857Y-97381142D01*
X118124428Y-97309714D01*
X116838714Y-97381142D02*
X116981571Y-97452571D01*
X117267285Y-97452571D01*
X117410142Y-97381142D01*
X117481571Y-97238285D01*
X117481571Y-96666857D01*
X117410142Y-96524000D01*
X117267285Y-96452571D01*
X116981571Y-96452571D01*
X116838714Y-96524000D01*
X116767285Y-96666857D01*
X116767285Y-96809714D01*
X117481571Y-96952571D01*
X116338714Y-96452571D02*
X115767285Y-96452571D01*
X116124428Y-95952571D02*
X116124428Y-97238285D01*
X116053000Y-97381142D01*
X115910142Y-97452571D01*
X115767285Y-97452571D01*
X115410142Y-95952571D02*
X114481571Y-95952571D01*
X114981571Y-96524000D01*
X114767285Y-96524000D01*
X114624428Y-96595428D01*
X114553000Y-96666857D01*
X114481571Y-96809714D01*
X114481571Y-97166857D01*
X114553000Y-97309714D01*
X114624428Y-97381142D01*
X114767285Y-97452571D01*
X115195857Y-97452571D01*
X115338714Y-97381142D01*
X115410142Y-97309714D01*
X113838714Y-97452571D02*
X113838714Y-95952571D01*
X113481571Y-95952571D01*
X113267285Y-96024000D01*
X113124428Y-96166857D01*
X113053000Y-96309714D01*
X112981571Y-96595428D01*
X112981571Y-96809714D01*
X113053000Y-97095428D01*
X113124428Y-97238285D01*
X113267285Y-97381142D01*
X113481571Y-97452571D01*
X113838714Y-97452571D01*
M02*
