G04 #@! TF.GenerationSoftware,KiCad,Pcbnew,(5.0.1-3-g963ef8bb5)*
G04 #@! TF.CreationDate,2019-06-08T18:57:16-07:00*
G04 #@! TF.ProjectId,board,626F6172642E6B696361645F70636200,rev?*
G04 #@! TF.SameCoordinates,Original*
G04 #@! TF.FileFunction,Soldermask,Top*
G04 #@! TF.FilePolarity,Negative*
%FSLAX46Y46*%
G04 Gerber Fmt 4.6, Leading zero omitted, Abs format (unit mm)*
G04 Created by KiCad (PCBNEW (5.0.1-3-g963ef8bb5)) date Saturday, June 08, 2019 at 06:57:16 PM*
%MOMM*%
%LPD*%
G01*
G04 APERTURE LIST*
%ADD10C,0.100000*%
G04 APERTURE END LIST*
D10*
G36*
X155621870Y-102486859D02*
X155815068Y-102525288D01*
X156361033Y-102751434D01*
X156849077Y-103077535D01*
X156852392Y-103079750D01*
X157270250Y-103497608D01*
X157270252Y-103497611D01*
X157598566Y-103988967D01*
X157824712Y-104534932D01*
X157940000Y-105114526D01*
X157940000Y-105705474D01*
X157824712Y-106285068D01*
X157598566Y-106831033D01*
X157272465Y-107319077D01*
X157270250Y-107322392D01*
X156852392Y-107740250D01*
X156852389Y-107740252D01*
X156361033Y-108068566D01*
X155815068Y-108294712D01*
X155621870Y-108333141D01*
X155235476Y-108410000D01*
X154644524Y-108410000D01*
X154258130Y-108333141D01*
X154064932Y-108294712D01*
X153518967Y-108068566D01*
X153027611Y-107740252D01*
X153027608Y-107740250D01*
X152609750Y-107322392D01*
X152607535Y-107319077D01*
X152281434Y-106831033D01*
X152055288Y-106285068D01*
X151940000Y-105705474D01*
X151940000Y-105114526D01*
X152055288Y-104534932D01*
X152281434Y-103988967D01*
X152609748Y-103497611D01*
X152609750Y-103497608D01*
X153027608Y-103079750D01*
X153030923Y-103077535D01*
X153518967Y-102751434D01*
X154064932Y-102525288D01*
X154258130Y-102486859D01*
X154644524Y-102410000D01*
X155235476Y-102410000D01*
X155621870Y-102486859D01*
X155621870Y-102486859D01*
G37*
G36*
X113711870Y-102486859D02*
X113905068Y-102525288D01*
X114451033Y-102751434D01*
X114939077Y-103077535D01*
X114942392Y-103079750D01*
X115360250Y-103497608D01*
X115360252Y-103497611D01*
X115688566Y-103988967D01*
X115914712Y-104534932D01*
X116030000Y-105114526D01*
X116030000Y-105705474D01*
X115914712Y-106285068D01*
X115688566Y-106831033D01*
X115362465Y-107319077D01*
X115360250Y-107322392D01*
X114942392Y-107740250D01*
X114942389Y-107740252D01*
X114451033Y-108068566D01*
X113905068Y-108294712D01*
X113711870Y-108333141D01*
X113325476Y-108410000D01*
X112734524Y-108410000D01*
X112348130Y-108333141D01*
X112154932Y-108294712D01*
X111608967Y-108068566D01*
X111117611Y-107740252D01*
X111117608Y-107740250D01*
X110699750Y-107322392D01*
X110697535Y-107319077D01*
X110371434Y-106831033D01*
X110145288Y-106285068D01*
X110030000Y-105705474D01*
X110030000Y-105114526D01*
X110145288Y-104534932D01*
X110371434Y-103988967D01*
X110699748Y-103497611D01*
X110699750Y-103497608D01*
X111117608Y-103079750D01*
X111120923Y-103077535D01*
X111608967Y-102751434D01*
X112154932Y-102525288D01*
X112348130Y-102486859D01*
X112734524Y-102410000D01*
X113325476Y-102410000D01*
X113711870Y-102486859D01*
X113711870Y-102486859D01*
G37*
G36*
X143685770Y-104425372D02*
X143801689Y-104448429D01*
X143983678Y-104523811D01*
X144147463Y-104633249D01*
X144286751Y-104772537D01*
X144396189Y-104936322D01*
X144471571Y-105118311D01*
X144510000Y-105311509D01*
X144510000Y-105508491D01*
X144471571Y-105701689D01*
X144396189Y-105883678D01*
X144286751Y-106047463D01*
X144147463Y-106186751D01*
X143983678Y-106296189D01*
X143801689Y-106371571D01*
X143685770Y-106394628D01*
X143608493Y-106410000D01*
X143411507Y-106410000D01*
X143334230Y-106394628D01*
X143218311Y-106371571D01*
X143036322Y-106296189D01*
X142872537Y-106186751D01*
X142733249Y-106047463D01*
X142623811Y-105883678D01*
X142548429Y-105701689D01*
X142510000Y-105508491D01*
X142510000Y-105311509D01*
X142548429Y-105118311D01*
X142623811Y-104936322D01*
X142733249Y-104772537D01*
X142872537Y-104633249D01*
X143036322Y-104523811D01*
X143218311Y-104448429D01*
X143334230Y-104425372D01*
X143411507Y-104410000D01*
X143608493Y-104410000D01*
X143685770Y-104425372D01*
X143685770Y-104425372D01*
G37*
G36*
X140065000Y-106410000D02*
X138065000Y-106410000D01*
X138065000Y-104410000D01*
X140065000Y-104410000D01*
X140065000Y-106410000D01*
X140065000Y-106410000D01*
G37*
G36*
X136700770Y-104425372D02*
X136816689Y-104448429D01*
X136998678Y-104523811D01*
X137162463Y-104633249D01*
X137301751Y-104772537D01*
X137411189Y-104936322D01*
X137486571Y-105118311D01*
X137525000Y-105311509D01*
X137525000Y-105508491D01*
X137486571Y-105701689D01*
X137411189Y-105883678D01*
X137301751Y-106047463D01*
X137162463Y-106186751D01*
X136998678Y-106296189D01*
X136816689Y-106371571D01*
X136700770Y-106394628D01*
X136623493Y-106410000D01*
X136426507Y-106410000D01*
X136349230Y-106394628D01*
X136233311Y-106371571D01*
X136051322Y-106296189D01*
X135887537Y-106186751D01*
X135748249Y-106047463D01*
X135638811Y-105883678D01*
X135563429Y-105701689D01*
X135525000Y-105508491D01*
X135525000Y-105311509D01*
X135563429Y-105118311D01*
X135638811Y-104936322D01*
X135748249Y-104772537D01*
X135887537Y-104633249D01*
X136051322Y-104523811D01*
X136233311Y-104448429D01*
X136349230Y-104425372D01*
X136426507Y-104410000D01*
X136623493Y-104410000D01*
X136700770Y-104425372D01*
X136700770Y-104425372D01*
G37*
G36*
X134160770Y-104425372D02*
X134276689Y-104448429D01*
X134458678Y-104523811D01*
X134622463Y-104633249D01*
X134761751Y-104772537D01*
X134871189Y-104936322D01*
X134946571Y-105118311D01*
X134985000Y-105311509D01*
X134985000Y-105508491D01*
X134946571Y-105701689D01*
X134871189Y-105883678D01*
X134761751Y-106047463D01*
X134622463Y-106186751D01*
X134458678Y-106296189D01*
X134276689Y-106371571D01*
X134160770Y-106394628D01*
X134083493Y-106410000D01*
X133886507Y-106410000D01*
X133809230Y-106394628D01*
X133693311Y-106371571D01*
X133511322Y-106296189D01*
X133347537Y-106186751D01*
X133208249Y-106047463D01*
X133098811Y-105883678D01*
X133023429Y-105701689D01*
X132985000Y-105508491D01*
X132985000Y-105311509D01*
X133023429Y-105118311D01*
X133098811Y-104936322D01*
X133208249Y-104772537D01*
X133347537Y-104633249D01*
X133511322Y-104523811D01*
X133693311Y-104448429D01*
X133809230Y-104425372D01*
X133886507Y-104410000D01*
X134083493Y-104410000D01*
X134160770Y-104425372D01*
X134160770Y-104425372D01*
G37*
G36*
X131620770Y-104425372D02*
X131736689Y-104448429D01*
X131918678Y-104523811D01*
X132082463Y-104633249D01*
X132221751Y-104772537D01*
X132331189Y-104936322D01*
X132406571Y-105118311D01*
X132445000Y-105311509D01*
X132445000Y-105508491D01*
X132406571Y-105701689D01*
X132331189Y-105883678D01*
X132221751Y-106047463D01*
X132082463Y-106186751D01*
X131918678Y-106296189D01*
X131736689Y-106371571D01*
X131620770Y-106394628D01*
X131543493Y-106410000D01*
X131346507Y-106410000D01*
X131269230Y-106394628D01*
X131153311Y-106371571D01*
X130971322Y-106296189D01*
X130807537Y-106186751D01*
X130668249Y-106047463D01*
X130558811Y-105883678D01*
X130483429Y-105701689D01*
X130445000Y-105508491D01*
X130445000Y-105311509D01*
X130483429Y-105118311D01*
X130558811Y-104936322D01*
X130668249Y-104772537D01*
X130807537Y-104633249D01*
X130971322Y-104523811D01*
X131153311Y-104448429D01*
X131269230Y-104425372D01*
X131346507Y-104410000D01*
X131543493Y-104410000D01*
X131620770Y-104425372D01*
X131620770Y-104425372D01*
G37*
G36*
X128000000Y-106410000D02*
X126000000Y-106410000D01*
X126000000Y-104410000D01*
X128000000Y-104410000D01*
X128000000Y-106410000D01*
X128000000Y-106410000D01*
G37*
G36*
X124635770Y-104425372D02*
X124751689Y-104448429D01*
X124933678Y-104523811D01*
X125097463Y-104633249D01*
X125236751Y-104772537D01*
X125346189Y-104936322D01*
X125421571Y-105118311D01*
X125460000Y-105311509D01*
X125460000Y-105508491D01*
X125421571Y-105701689D01*
X125346189Y-105883678D01*
X125236751Y-106047463D01*
X125097463Y-106186751D01*
X124933678Y-106296189D01*
X124751689Y-106371571D01*
X124635770Y-106394628D01*
X124558493Y-106410000D01*
X124361507Y-106410000D01*
X124284230Y-106394628D01*
X124168311Y-106371571D01*
X123986322Y-106296189D01*
X123822537Y-106186751D01*
X123683249Y-106047463D01*
X123573811Y-105883678D01*
X123498429Y-105701689D01*
X123460000Y-105508491D01*
X123460000Y-105311509D01*
X123498429Y-105118311D01*
X123573811Y-104936322D01*
X123683249Y-104772537D01*
X123822537Y-104633249D01*
X123986322Y-104523811D01*
X124168311Y-104448429D01*
X124284230Y-104425372D01*
X124361507Y-104410000D01*
X124558493Y-104410000D01*
X124635770Y-104425372D01*
X124635770Y-104425372D01*
G37*
G36*
X122095770Y-104425372D02*
X122211689Y-104448429D01*
X122393678Y-104523811D01*
X122557463Y-104633249D01*
X122696751Y-104772537D01*
X122806189Y-104936322D01*
X122881571Y-105118311D01*
X122920000Y-105311509D01*
X122920000Y-105508491D01*
X122881571Y-105701689D01*
X122806189Y-105883678D01*
X122696751Y-106047463D01*
X122557463Y-106186751D01*
X122393678Y-106296189D01*
X122211689Y-106371571D01*
X122095770Y-106394628D01*
X122018493Y-106410000D01*
X121821507Y-106410000D01*
X121744230Y-106394628D01*
X121628311Y-106371571D01*
X121446322Y-106296189D01*
X121282537Y-106186751D01*
X121143249Y-106047463D01*
X121033811Y-105883678D01*
X120958429Y-105701689D01*
X120920000Y-105508491D01*
X120920000Y-105311509D01*
X120958429Y-105118311D01*
X121033811Y-104936322D01*
X121143249Y-104772537D01*
X121282537Y-104633249D01*
X121446322Y-104523811D01*
X121628311Y-104448429D01*
X121744230Y-104425372D01*
X121821507Y-104410000D01*
X122018493Y-104410000D01*
X122095770Y-104425372D01*
X122095770Y-104425372D01*
G37*
G36*
X119555770Y-104425372D02*
X119671689Y-104448429D01*
X119853678Y-104523811D01*
X120017463Y-104633249D01*
X120156751Y-104772537D01*
X120266189Y-104936322D01*
X120341571Y-105118311D01*
X120380000Y-105311509D01*
X120380000Y-105508491D01*
X120341571Y-105701689D01*
X120266189Y-105883678D01*
X120156751Y-106047463D01*
X120017463Y-106186751D01*
X119853678Y-106296189D01*
X119671689Y-106371571D01*
X119555770Y-106394628D01*
X119478493Y-106410000D01*
X119281507Y-106410000D01*
X119204230Y-106394628D01*
X119088311Y-106371571D01*
X118906322Y-106296189D01*
X118742537Y-106186751D01*
X118603249Y-106047463D01*
X118493811Y-105883678D01*
X118418429Y-105701689D01*
X118380000Y-105508491D01*
X118380000Y-105311509D01*
X118418429Y-105118311D01*
X118493811Y-104936322D01*
X118603249Y-104772537D01*
X118742537Y-104633249D01*
X118906322Y-104523811D01*
X119088311Y-104448429D01*
X119204230Y-104425372D01*
X119281507Y-104410000D01*
X119478493Y-104410000D01*
X119555770Y-104425372D01*
X119555770Y-104425372D01*
G37*
G36*
X146225770Y-104425372D02*
X146341689Y-104448429D01*
X146523678Y-104523811D01*
X146687463Y-104633249D01*
X146826751Y-104772537D01*
X146936189Y-104936322D01*
X147011571Y-105118311D01*
X147050000Y-105311509D01*
X147050000Y-105508491D01*
X147011571Y-105701689D01*
X146936189Y-105883678D01*
X146826751Y-106047463D01*
X146687463Y-106186751D01*
X146523678Y-106296189D01*
X146341689Y-106371571D01*
X146225770Y-106394628D01*
X146148493Y-106410000D01*
X145951507Y-106410000D01*
X145874230Y-106394628D01*
X145758311Y-106371571D01*
X145576322Y-106296189D01*
X145412537Y-106186751D01*
X145273249Y-106047463D01*
X145163811Y-105883678D01*
X145088429Y-105701689D01*
X145050000Y-105508491D01*
X145050000Y-105311509D01*
X145088429Y-105118311D01*
X145163811Y-104936322D01*
X145273249Y-104772537D01*
X145412537Y-104633249D01*
X145576322Y-104523811D01*
X145758311Y-104448429D01*
X145874230Y-104425372D01*
X145951507Y-104410000D01*
X146148493Y-104410000D01*
X146225770Y-104425372D01*
X146225770Y-104425372D01*
G37*
G36*
X149590000Y-106410000D02*
X147590000Y-106410000D01*
X147590000Y-104410000D01*
X149590000Y-104410000D01*
X149590000Y-106410000D01*
X149590000Y-106410000D01*
G37*
G36*
X111387521Y-99464586D02*
X111551309Y-99532429D01*
X111698720Y-99630926D01*
X111824074Y-99756280D01*
X111922571Y-99903691D01*
X111990414Y-100067479D01*
X112025000Y-100241356D01*
X112025000Y-100418644D01*
X111990414Y-100592521D01*
X111922571Y-100756309D01*
X111824074Y-100903720D01*
X111698720Y-101029074D01*
X111551309Y-101127571D01*
X111387521Y-101195414D01*
X111213644Y-101230000D01*
X111036356Y-101230000D01*
X110862479Y-101195414D01*
X110698691Y-101127571D01*
X110551280Y-101029074D01*
X110425926Y-100903720D01*
X110327429Y-100756309D01*
X110259586Y-100592521D01*
X110225000Y-100418644D01*
X110225000Y-100241356D01*
X110259586Y-100067479D01*
X110327429Y-99903691D01*
X110425926Y-99756280D01*
X110551280Y-99630926D01*
X110698691Y-99532429D01*
X110862479Y-99464586D01*
X111036356Y-99430000D01*
X111213644Y-99430000D01*
X111387521Y-99464586D01*
X111387521Y-99464586D01*
G37*
G36*
X144407521Y-99464586D02*
X144571309Y-99532429D01*
X144718720Y-99630926D01*
X144844074Y-99756280D01*
X144942571Y-99903691D01*
X145010414Y-100067479D01*
X145045000Y-100241356D01*
X145045000Y-100418644D01*
X145010414Y-100592521D01*
X144942571Y-100756309D01*
X144844074Y-100903720D01*
X144718720Y-101029074D01*
X144571309Y-101127571D01*
X144407521Y-101195414D01*
X144233644Y-101230000D01*
X144056356Y-101230000D01*
X143882479Y-101195414D01*
X143718691Y-101127571D01*
X143571280Y-101029074D01*
X143445926Y-100903720D01*
X143347429Y-100756309D01*
X143279586Y-100592521D01*
X143245000Y-100418644D01*
X143245000Y-100241356D01*
X143279586Y-100067479D01*
X143347429Y-99903691D01*
X143445926Y-99756280D01*
X143571280Y-99630926D01*
X143718691Y-99532429D01*
X143882479Y-99464586D01*
X144056356Y-99430000D01*
X144233644Y-99430000D01*
X144407521Y-99464586D01*
X144407521Y-99464586D01*
G37*
G36*
X113927521Y-99464586D02*
X114091309Y-99532429D01*
X114238720Y-99630926D01*
X114364074Y-99756280D01*
X114462571Y-99903691D01*
X114530414Y-100067479D01*
X114565000Y-100241356D01*
X114565000Y-100418644D01*
X114530414Y-100592521D01*
X114462571Y-100756309D01*
X114364074Y-100903720D01*
X114238720Y-101029074D01*
X114091309Y-101127571D01*
X113927521Y-101195414D01*
X113753644Y-101230000D01*
X113576356Y-101230000D01*
X113402479Y-101195414D01*
X113238691Y-101127571D01*
X113091280Y-101029074D01*
X112965926Y-100903720D01*
X112867429Y-100756309D01*
X112799586Y-100592521D01*
X112765000Y-100418644D01*
X112765000Y-100241356D01*
X112799586Y-100067479D01*
X112867429Y-99903691D01*
X112965926Y-99756280D01*
X113091280Y-99630926D01*
X113238691Y-99532429D01*
X113402479Y-99464586D01*
X113576356Y-99430000D01*
X113753644Y-99430000D01*
X113927521Y-99464586D01*
X113927521Y-99464586D01*
G37*
G36*
X155837521Y-98829586D02*
X156001309Y-98897429D01*
X156148720Y-98995926D01*
X156274074Y-99121280D01*
X156372571Y-99268691D01*
X156440414Y-99432479D01*
X156475000Y-99606356D01*
X156475000Y-99783644D01*
X156440414Y-99957521D01*
X156372571Y-100121309D01*
X156274074Y-100268720D01*
X156148720Y-100394074D01*
X156001309Y-100492571D01*
X155837521Y-100560414D01*
X155663644Y-100595000D01*
X155486356Y-100595000D01*
X155312479Y-100560414D01*
X155148691Y-100492571D01*
X155001280Y-100394074D01*
X154875926Y-100268720D01*
X154777429Y-100121309D01*
X154709586Y-99957521D01*
X154675000Y-99783644D01*
X154675000Y-99606356D01*
X154709586Y-99432479D01*
X154777429Y-99268691D01*
X154875926Y-99121280D01*
X155001280Y-98995926D01*
X155148691Y-98897429D01*
X155312479Y-98829586D01*
X155486356Y-98795000D01*
X155663644Y-98795000D01*
X155837521Y-98829586D01*
X155837521Y-98829586D01*
G37*
G36*
X148217521Y-98829586D02*
X148381309Y-98897429D01*
X148528720Y-98995926D01*
X148654074Y-99121280D01*
X148752571Y-99268691D01*
X148820414Y-99432479D01*
X148855000Y-99606356D01*
X148855000Y-99783644D01*
X148820414Y-99957521D01*
X148752571Y-100121309D01*
X148654074Y-100268720D01*
X148528720Y-100394074D01*
X148381309Y-100492571D01*
X148217521Y-100560414D01*
X148043644Y-100595000D01*
X147866356Y-100595000D01*
X147692479Y-100560414D01*
X147528691Y-100492571D01*
X147381280Y-100394074D01*
X147255926Y-100268720D01*
X147157429Y-100121309D01*
X147089586Y-99957521D01*
X147055000Y-99783644D01*
X147055000Y-99606356D01*
X147089586Y-99432479D01*
X147157429Y-99268691D01*
X147255926Y-99121280D01*
X147381280Y-98995926D01*
X147528691Y-98897429D01*
X147692479Y-98829586D01*
X147866356Y-98795000D01*
X148043644Y-98795000D01*
X148217521Y-98829586D01*
X148217521Y-98829586D01*
G37*
G36*
X144407521Y-96924586D02*
X144571309Y-96992429D01*
X144718720Y-97090926D01*
X144844074Y-97216280D01*
X144942571Y-97363691D01*
X145010414Y-97527479D01*
X145045000Y-97701356D01*
X145045000Y-97878644D01*
X145010414Y-98052521D01*
X144942571Y-98216309D01*
X144844074Y-98363720D01*
X144718720Y-98489074D01*
X144571309Y-98587571D01*
X144407521Y-98655414D01*
X144233644Y-98690000D01*
X144056356Y-98690000D01*
X143882479Y-98655414D01*
X143718691Y-98587571D01*
X143571280Y-98489074D01*
X143445926Y-98363720D01*
X143347429Y-98216309D01*
X143279586Y-98052521D01*
X143245000Y-97878644D01*
X143245000Y-97701356D01*
X143279586Y-97527479D01*
X143347429Y-97363691D01*
X143445926Y-97216280D01*
X143571280Y-97090926D01*
X143718691Y-96992429D01*
X143882479Y-96924586D01*
X144056356Y-96890000D01*
X144233644Y-96890000D01*
X144407521Y-96924586D01*
X144407521Y-96924586D01*
G37*
G36*
X148217521Y-95019586D02*
X148381309Y-95087429D01*
X148528720Y-95185926D01*
X148654074Y-95311280D01*
X148752571Y-95458691D01*
X148820414Y-95622479D01*
X148855000Y-95796356D01*
X148855000Y-95973644D01*
X148820414Y-96147521D01*
X148752571Y-96311309D01*
X148654074Y-96458720D01*
X148528720Y-96584074D01*
X148381309Y-96682571D01*
X148217521Y-96750414D01*
X148043644Y-96785000D01*
X147866356Y-96785000D01*
X147692479Y-96750414D01*
X147528691Y-96682571D01*
X147381280Y-96584074D01*
X147255926Y-96458720D01*
X147157429Y-96311309D01*
X147089586Y-96147521D01*
X147055000Y-95973644D01*
X147055000Y-95796356D01*
X147089586Y-95622479D01*
X147157429Y-95458691D01*
X147255926Y-95311280D01*
X147381280Y-95185926D01*
X147528691Y-95087429D01*
X147692479Y-95019586D01*
X147866356Y-94985000D01*
X148043644Y-94985000D01*
X148217521Y-95019586D01*
X148217521Y-95019586D01*
G37*
G36*
X155805000Y-96115000D02*
X152805000Y-96115000D01*
X152805000Y-93115000D01*
X155805000Y-93115000D01*
X155805000Y-96115000D01*
X155805000Y-96115000D01*
G37*
G36*
X154645935Y-88073429D02*
X154742534Y-88092644D01*
X155015517Y-88205717D01*
X155200133Y-88329074D01*
X155261197Y-88369876D01*
X155470124Y-88578803D01*
X155470126Y-88578806D01*
X155634283Y-88824483D01*
X155732902Y-89062570D01*
X155747356Y-89097467D01*
X155805000Y-89387261D01*
X155805000Y-89682739D01*
X155747356Y-89972533D01*
X155634284Y-90245515D01*
X155470124Y-90491197D01*
X155261197Y-90700124D01*
X155261194Y-90700126D01*
X155015517Y-90864283D01*
X154742534Y-90977356D01*
X154645935Y-90996571D01*
X154452739Y-91035000D01*
X154157261Y-91035000D01*
X153964065Y-90996571D01*
X153867466Y-90977356D01*
X153594483Y-90864283D01*
X153348806Y-90700126D01*
X153348803Y-90700124D01*
X153139876Y-90491197D01*
X152975716Y-90245515D01*
X152862644Y-89972533D01*
X152805000Y-89682739D01*
X152805000Y-89387261D01*
X152862644Y-89097467D01*
X152877099Y-89062570D01*
X152975717Y-88824483D01*
X153139874Y-88578806D01*
X153139876Y-88578803D01*
X153348803Y-88369876D01*
X153409867Y-88329074D01*
X153594483Y-88205717D01*
X153867466Y-88092644D01*
X153964065Y-88073429D01*
X154157261Y-88035000D01*
X154452739Y-88035000D01*
X154645935Y-88073429D01*
X154645935Y-88073429D01*
G37*
G36*
X148217521Y-87399586D02*
X148381309Y-87467429D01*
X148528720Y-87565926D01*
X148654074Y-87691280D01*
X148752571Y-87838691D01*
X148820414Y-88002479D01*
X148855000Y-88176356D01*
X148855000Y-88353644D01*
X148820414Y-88527521D01*
X148752571Y-88691309D01*
X148654074Y-88838720D01*
X148528720Y-88964074D01*
X148381309Y-89062571D01*
X148217521Y-89130414D01*
X148043644Y-89165000D01*
X147866356Y-89165000D01*
X147692479Y-89130414D01*
X147528691Y-89062571D01*
X147381280Y-88964074D01*
X147255926Y-88838720D01*
X147157429Y-88691309D01*
X147089586Y-88527521D01*
X147055000Y-88353644D01*
X147055000Y-88176356D01*
X147089586Y-88002479D01*
X147157429Y-87838691D01*
X147255926Y-87691280D01*
X147381280Y-87565926D01*
X147528691Y-87467429D01*
X147692479Y-87399586D01*
X147866356Y-87365000D01*
X148043644Y-87365000D01*
X148217521Y-87399586D01*
X148217521Y-87399586D01*
G37*
G36*
X113927521Y-86764586D02*
X114091309Y-86832429D01*
X114238720Y-86930926D01*
X114364074Y-87056280D01*
X114462571Y-87203691D01*
X114530414Y-87367479D01*
X114565000Y-87541356D01*
X114565000Y-87718644D01*
X114530414Y-87892521D01*
X114462571Y-88056309D01*
X114364074Y-88203720D01*
X114238720Y-88329074D01*
X114091309Y-88427571D01*
X113927521Y-88495414D01*
X113753644Y-88530000D01*
X113576356Y-88530000D01*
X113402479Y-88495414D01*
X113238691Y-88427571D01*
X113091280Y-88329074D01*
X112965926Y-88203720D01*
X112867429Y-88056309D01*
X112799586Y-87892521D01*
X112765000Y-87718644D01*
X112765000Y-87541356D01*
X112799586Y-87367479D01*
X112867429Y-87203691D01*
X112965926Y-87056280D01*
X113091280Y-86930926D01*
X113238691Y-86832429D01*
X113402479Y-86764586D01*
X113576356Y-86730000D01*
X113753644Y-86730000D01*
X113927521Y-86764586D01*
X113927521Y-86764586D01*
G37*
G36*
X144407521Y-86764586D02*
X144571309Y-86832429D01*
X144718720Y-86930926D01*
X144844074Y-87056280D01*
X144942571Y-87203691D01*
X145010414Y-87367479D01*
X145045000Y-87541356D01*
X145045000Y-87718644D01*
X145010414Y-87892521D01*
X144942571Y-88056309D01*
X144844074Y-88203720D01*
X144718720Y-88329074D01*
X144571309Y-88427571D01*
X144407521Y-88495414D01*
X144233644Y-88530000D01*
X144056356Y-88530000D01*
X143882479Y-88495414D01*
X143718691Y-88427571D01*
X143571280Y-88329074D01*
X143445926Y-88203720D01*
X143347429Y-88056309D01*
X143279586Y-87892521D01*
X143245000Y-87718644D01*
X143245000Y-87541356D01*
X143279586Y-87367479D01*
X143347429Y-87203691D01*
X143445926Y-87056280D01*
X143571280Y-86930926D01*
X143718691Y-86832429D01*
X143882479Y-86764586D01*
X144056356Y-86730000D01*
X144233644Y-86730000D01*
X144407521Y-86764586D01*
X144407521Y-86764586D01*
G37*
G36*
X111387521Y-84224586D02*
X111551309Y-84292429D01*
X111698720Y-84390926D01*
X111824074Y-84516280D01*
X111922571Y-84663691D01*
X111990414Y-84827479D01*
X112025000Y-85001356D01*
X112025000Y-85178644D01*
X111990414Y-85352521D01*
X111922571Y-85516309D01*
X111824074Y-85663720D01*
X111698720Y-85789074D01*
X111551309Y-85887571D01*
X111387521Y-85955414D01*
X111213644Y-85990000D01*
X111036356Y-85990000D01*
X110862479Y-85955414D01*
X110698691Y-85887571D01*
X110551280Y-85789074D01*
X110425926Y-85663720D01*
X110327429Y-85516309D01*
X110259586Y-85352521D01*
X110225000Y-85178644D01*
X110225000Y-85001356D01*
X110259586Y-84827479D01*
X110327429Y-84663691D01*
X110425926Y-84516280D01*
X110551280Y-84390926D01*
X110698691Y-84292429D01*
X110862479Y-84224586D01*
X111036356Y-84190000D01*
X111213644Y-84190000D01*
X111387521Y-84224586D01*
X111387521Y-84224586D01*
G37*
G36*
X113927521Y-84224586D02*
X114091309Y-84292429D01*
X114238720Y-84390926D01*
X114364074Y-84516280D01*
X114462571Y-84663691D01*
X114530414Y-84827479D01*
X114565000Y-85001356D01*
X114565000Y-85178644D01*
X114530414Y-85352521D01*
X114462571Y-85516309D01*
X114364074Y-85663720D01*
X114238720Y-85789074D01*
X114091309Y-85887571D01*
X113927521Y-85955414D01*
X113753644Y-85990000D01*
X113576356Y-85990000D01*
X113402479Y-85955414D01*
X113238691Y-85887571D01*
X113091280Y-85789074D01*
X112965926Y-85663720D01*
X112867429Y-85516309D01*
X112799586Y-85352521D01*
X112765000Y-85178644D01*
X112765000Y-85001356D01*
X112799586Y-84827479D01*
X112867429Y-84663691D01*
X112965926Y-84516280D01*
X113091280Y-84390926D01*
X113238691Y-84292429D01*
X113402479Y-84224586D01*
X113576356Y-84190000D01*
X113753644Y-84190000D01*
X113927521Y-84224586D01*
X113927521Y-84224586D01*
G37*
G36*
X144407521Y-84224586D02*
X144571309Y-84292429D01*
X144718720Y-84390926D01*
X144844074Y-84516280D01*
X144942571Y-84663691D01*
X145010414Y-84827479D01*
X145045000Y-85001356D01*
X145045000Y-85178644D01*
X145010414Y-85352521D01*
X144942571Y-85516309D01*
X144844074Y-85663720D01*
X144718720Y-85789074D01*
X144571309Y-85887571D01*
X144407521Y-85955414D01*
X144233644Y-85990000D01*
X144056356Y-85990000D01*
X143882479Y-85955414D01*
X143718691Y-85887571D01*
X143571280Y-85789074D01*
X143445926Y-85663720D01*
X143347429Y-85516309D01*
X143279586Y-85352521D01*
X143245000Y-85178644D01*
X143245000Y-85001356D01*
X143279586Y-84827479D01*
X143347429Y-84663691D01*
X143445926Y-84516280D01*
X143571280Y-84390926D01*
X143718691Y-84292429D01*
X143882479Y-84224586D01*
X144056356Y-84190000D01*
X144233644Y-84190000D01*
X144407521Y-84224586D01*
X144407521Y-84224586D01*
G37*
G36*
X148217521Y-83589586D02*
X148381309Y-83657429D01*
X148528720Y-83755926D01*
X148654074Y-83881280D01*
X148752571Y-84028691D01*
X148820414Y-84192479D01*
X148855000Y-84366356D01*
X148855000Y-84543644D01*
X148820414Y-84717521D01*
X148752571Y-84881309D01*
X148654074Y-85028720D01*
X148528720Y-85154074D01*
X148381309Y-85252571D01*
X148217521Y-85320414D01*
X148043644Y-85355000D01*
X147866356Y-85355000D01*
X147692479Y-85320414D01*
X147528691Y-85252571D01*
X147381280Y-85154074D01*
X147255926Y-85028720D01*
X147157429Y-84881309D01*
X147089586Y-84717521D01*
X147055000Y-84543644D01*
X147055000Y-84366356D01*
X147089586Y-84192479D01*
X147157429Y-84028691D01*
X147255926Y-83881280D01*
X147381280Y-83755926D01*
X147528691Y-83657429D01*
X147692479Y-83589586D01*
X147866356Y-83555000D01*
X148043644Y-83555000D01*
X148217521Y-83589586D01*
X148217521Y-83589586D01*
G37*
G36*
X155837521Y-83589586D02*
X156001309Y-83657429D01*
X156148720Y-83755926D01*
X156274074Y-83881280D01*
X156372571Y-84028691D01*
X156440414Y-84192479D01*
X156475000Y-84366356D01*
X156475000Y-84543644D01*
X156440414Y-84717521D01*
X156372571Y-84881309D01*
X156274074Y-85028720D01*
X156148720Y-85154074D01*
X156001309Y-85252571D01*
X155837521Y-85320414D01*
X155663644Y-85355000D01*
X155486356Y-85355000D01*
X155312479Y-85320414D01*
X155148691Y-85252571D01*
X155001280Y-85154074D01*
X154875926Y-85028720D01*
X154777429Y-84881309D01*
X154709586Y-84717521D01*
X154675000Y-84543644D01*
X154675000Y-84366356D01*
X154709586Y-84192479D01*
X154777429Y-84028691D01*
X154875926Y-83881280D01*
X155001280Y-83755926D01*
X155148691Y-83657429D01*
X155312479Y-83589586D01*
X155486356Y-83555000D01*
X155663644Y-83555000D01*
X155837521Y-83589586D01*
X155837521Y-83589586D01*
G37*
G36*
X119642521Y-80414586D02*
X119806309Y-80482429D01*
X119953720Y-80580926D01*
X120079074Y-80706280D01*
X120177571Y-80853691D01*
X120245414Y-81017479D01*
X120280000Y-81191356D01*
X120280000Y-81368644D01*
X120245414Y-81542521D01*
X120177571Y-81706309D01*
X120079074Y-81853720D01*
X119953720Y-81979074D01*
X119806309Y-82077571D01*
X119642521Y-82145414D01*
X119468644Y-82180000D01*
X119291356Y-82180000D01*
X119117479Y-82145414D01*
X118953691Y-82077571D01*
X118806280Y-81979074D01*
X118680926Y-81853720D01*
X118582429Y-81706309D01*
X118514586Y-81542521D01*
X118480000Y-81368644D01*
X118480000Y-81191356D01*
X118514586Y-81017479D01*
X118582429Y-80853691D01*
X118680926Y-80706280D01*
X118806280Y-80580926D01*
X118953691Y-80482429D01*
X119117479Y-80414586D01*
X119291356Y-80380000D01*
X119468644Y-80380000D01*
X119642521Y-80414586D01*
X119642521Y-80414586D01*
G37*
G36*
X127262521Y-80414586D02*
X127426309Y-80482429D01*
X127573720Y-80580926D01*
X127699074Y-80706280D01*
X127797571Y-80853691D01*
X127865414Y-81017479D01*
X127900000Y-81191356D01*
X127900000Y-81368644D01*
X127865414Y-81542521D01*
X127797571Y-81706309D01*
X127699074Y-81853720D01*
X127573720Y-81979074D01*
X127426309Y-82077571D01*
X127262521Y-82145414D01*
X127088644Y-82180000D01*
X126911356Y-82180000D01*
X126737479Y-82145414D01*
X126573691Y-82077571D01*
X126426280Y-81979074D01*
X126300926Y-81853720D01*
X126202429Y-81706309D01*
X126134586Y-81542521D01*
X126100000Y-81368644D01*
X126100000Y-81191356D01*
X126134586Y-81017479D01*
X126202429Y-80853691D01*
X126300926Y-80706280D01*
X126426280Y-80580926D01*
X126573691Y-80482429D01*
X126737479Y-80414586D01*
X126911356Y-80380000D01*
X127088644Y-80380000D01*
X127262521Y-80414586D01*
X127262521Y-80414586D01*
G37*
G36*
X134882521Y-80234586D02*
X135046309Y-80302429D01*
X135193720Y-80400926D01*
X135319074Y-80526280D01*
X135417571Y-80673691D01*
X135485414Y-80837479D01*
X135520000Y-81011356D01*
X135520000Y-81188644D01*
X135485414Y-81362521D01*
X135417571Y-81526309D01*
X135319074Y-81673720D01*
X135193720Y-81799074D01*
X135046309Y-81897571D01*
X134882521Y-81965414D01*
X134708644Y-82000000D01*
X134531356Y-82000000D01*
X134357479Y-81965414D01*
X134193691Y-81897571D01*
X134046280Y-81799074D01*
X133920926Y-81673720D01*
X133822429Y-81526309D01*
X133754586Y-81362521D01*
X133720000Y-81188644D01*
X133720000Y-81011356D01*
X133754586Y-80837479D01*
X133822429Y-80673691D01*
X133920926Y-80526280D01*
X134046280Y-80400926D01*
X134193691Y-80302429D01*
X134357479Y-80234586D01*
X134531356Y-80200000D01*
X134708644Y-80200000D01*
X134882521Y-80234586D01*
X134882521Y-80234586D01*
G37*
G36*
X145042521Y-80234586D02*
X145206309Y-80302429D01*
X145353720Y-80400926D01*
X145479074Y-80526280D01*
X145577571Y-80673691D01*
X145645414Y-80837479D01*
X145680000Y-81011356D01*
X145680000Y-81188644D01*
X145645414Y-81362521D01*
X145577571Y-81526309D01*
X145479074Y-81673720D01*
X145353720Y-81799074D01*
X145206309Y-81897571D01*
X145042521Y-81965414D01*
X144868644Y-82000000D01*
X144691356Y-82000000D01*
X144517479Y-81965414D01*
X144353691Y-81897571D01*
X144206280Y-81799074D01*
X144080926Y-81673720D01*
X143982429Y-81526309D01*
X143914586Y-81362521D01*
X143880000Y-81188644D01*
X143880000Y-81011356D01*
X143914586Y-80837479D01*
X143982429Y-80673691D01*
X144080926Y-80526280D01*
X144206280Y-80400926D01*
X144353691Y-80302429D01*
X144517479Y-80234586D01*
X144691356Y-80200000D01*
X144868644Y-80200000D01*
X145042521Y-80234586D01*
X145042521Y-80234586D01*
G37*
G36*
X148220000Y-82000000D02*
X146420000Y-82000000D01*
X146420000Y-80200000D01*
X148220000Y-80200000D01*
X148220000Y-82000000D01*
X148220000Y-82000000D01*
G37*
G36*
X139962521Y-80234586D02*
X140126309Y-80302429D01*
X140273720Y-80400926D01*
X140399074Y-80526280D01*
X140497571Y-80673691D01*
X140565414Y-80837479D01*
X140600000Y-81011356D01*
X140600000Y-81188644D01*
X140565414Y-81362521D01*
X140497571Y-81526309D01*
X140399074Y-81673720D01*
X140273720Y-81799074D01*
X140126309Y-81897571D01*
X139962521Y-81965414D01*
X139788644Y-82000000D01*
X139611356Y-82000000D01*
X139437479Y-81965414D01*
X139273691Y-81897571D01*
X139126280Y-81799074D01*
X139000926Y-81673720D01*
X138902429Y-81526309D01*
X138834586Y-81362521D01*
X138800000Y-81188644D01*
X138800000Y-81011356D01*
X138834586Y-80837479D01*
X138902429Y-80673691D01*
X139000926Y-80526280D01*
X139126280Y-80400926D01*
X139273691Y-80302429D01*
X139437479Y-80234586D01*
X139611356Y-80200000D01*
X139788644Y-80200000D01*
X139962521Y-80234586D01*
X139962521Y-80234586D01*
G37*
G36*
X113711870Y-74546859D02*
X113905068Y-74585288D01*
X114451033Y-74811434D01*
X114939077Y-75137535D01*
X114942392Y-75139750D01*
X115360250Y-75557608D01*
X115360252Y-75557611D01*
X115688566Y-76048967D01*
X115914712Y-76594932D01*
X115914712Y-76594933D01*
X116008297Y-77065414D01*
X116030000Y-77174526D01*
X116030000Y-77765474D01*
X115914712Y-78345068D01*
X115688566Y-78891033D01*
X115362465Y-79379077D01*
X115360250Y-79382392D01*
X114942392Y-79800250D01*
X114942389Y-79800252D01*
X114451033Y-80128566D01*
X113905068Y-80354712D01*
X113777936Y-80380000D01*
X113325476Y-80470000D01*
X112734524Y-80470000D01*
X112282064Y-80380000D01*
X112154932Y-80354712D01*
X111608967Y-80128566D01*
X111117611Y-79800252D01*
X111117608Y-79800250D01*
X110699750Y-79382392D01*
X110697535Y-79379077D01*
X110371434Y-78891033D01*
X110145288Y-78345068D01*
X110030000Y-77765474D01*
X110030000Y-77174526D01*
X110051704Y-77065414D01*
X110145288Y-76594933D01*
X110145288Y-76594932D01*
X110371434Y-76048967D01*
X110699748Y-75557611D01*
X110699750Y-75557608D01*
X111117608Y-75139750D01*
X111120923Y-75137535D01*
X111608967Y-74811434D01*
X112154932Y-74585288D01*
X112348130Y-74546859D01*
X112734524Y-74470000D01*
X113325476Y-74470000D01*
X113711870Y-74546859D01*
X113711870Y-74546859D01*
G37*
G36*
X155621870Y-74546859D02*
X155815068Y-74585288D01*
X156361033Y-74811434D01*
X156849077Y-75137535D01*
X156852392Y-75139750D01*
X157270250Y-75557608D01*
X157270252Y-75557611D01*
X157598566Y-76048967D01*
X157824712Y-76594932D01*
X157824712Y-76594933D01*
X157918297Y-77065414D01*
X157940000Y-77174526D01*
X157940000Y-77765474D01*
X157824712Y-78345068D01*
X157598566Y-78891033D01*
X157272465Y-79379077D01*
X157270250Y-79382392D01*
X156852392Y-79800250D01*
X156852389Y-79800252D01*
X156361033Y-80128566D01*
X155815068Y-80354712D01*
X155687936Y-80380000D01*
X155235476Y-80470000D01*
X154644524Y-80470000D01*
X154192064Y-80380000D01*
X154064932Y-80354712D01*
X153518967Y-80128566D01*
X153027611Y-79800252D01*
X153027608Y-79800250D01*
X152609750Y-79382392D01*
X152607535Y-79379077D01*
X152281434Y-78891033D01*
X152055288Y-78345068D01*
X151940000Y-77765474D01*
X151940000Y-77174526D01*
X151961704Y-77065414D01*
X152055288Y-76594933D01*
X152055288Y-76594932D01*
X152281434Y-76048967D01*
X152609748Y-75557611D01*
X152609750Y-75557608D01*
X153027608Y-75139750D01*
X153030923Y-75137535D01*
X153518967Y-74811434D01*
X154064932Y-74585288D01*
X154258130Y-74546859D01*
X154644524Y-74470000D01*
X155235476Y-74470000D01*
X155621870Y-74546859D01*
X155621870Y-74546859D01*
G37*
G36*
X119642521Y-75334586D02*
X119806309Y-75402429D01*
X119953720Y-75500926D01*
X120079074Y-75626280D01*
X120177571Y-75773691D01*
X120245414Y-75937479D01*
X120280000Y-76111356D01*
X120280000Y-76288644D01*
X120245414Y-76462521D01*
X120177571Y-76626309D01*
X120079074Y-76773720D01*
X119953720Y-76899074D01*
X119806309Y-76997571D01*
X119642521Y-77065414D01*
X119468644Y-77100000D01*
X119291356Y-77100000D01*
X119117479Y-77065414D01*
X118953691Y-76997571D01*
X118806280Y-76899074D01*
X118680926Y-76773720D01*
X118582429Y-76626309D01*
X118514586Y-76462521D01*
X118480000Y-76288644D01*
X118480000Y-76111356D01*
X118514586Y-75937479D01*
X118582429Y-75773691D01*
X118680926Y-75626280D01*
X118806280Y-75500926D01*
X118953691Y-75402429D01*
X119117479Y-75334586D01*
X119291356Y-75300000D01*
X119468644Y-75300000D01*
X119642521Y-75334586D01*
X119642521Y-75334586D01*
G37*
G36*
X127262521Y-75334586D02*
X127426309Y-75402429D01*
X127573720Y-75500926D01*
X127699074Y-75626280D01*
X127797571Y-75773691D01*
X127865414Y-75937479D01*
X127900000Y-76111356D01*
X127900000Y-76288644D01*
X127865414Y-76462521D01*
X127797571Y-76626309D01*
X127699074Y-76773720D01*
X127573720Y-76899074D01*
X127426309Y-76997571D01*
X127262521Y-77065414D01*
X127088644Y-77100000D01*
X126911356Y-77100000D01*
X126737479Y-77065414D01*
X126573691Y-76997571D01*
X126426280Y-76899074D01*
X126300926Y-76773720D01*
X126202429Y-76626309D01*
X126134586Y-76462521D01*
X126100000Y-76288644D01*
X126100000Y-76111356D01*
X126134586Y-75937479D01*
X126202429Y-75773691D01*
X126300926Y-75626280D01*
X126426280Y-75500926D01*
X126573691Y-75402429D01*
X126737479Y-75334586D01*
X126911356Y-75300000D01*
X127088644Y-75300000D01*
X127262521Y-75334586D01*
X127262521Y-75334586D01*
G37*
M02*
