G04 #@! TF.GenerationSoftware,KiCad,Pcbnew,(5.0.1-3-g963ef8bb5)*
G04 #@! TF.CreationDate,2019-06-08T18:57:16-07:00*
G04 #@! TF.ProjectId,board,626F6172642E6B696361645F70636200,rev?*
G04 #@! TF.SameCoordinates,Original*
G04 #@! TF.FileFunction,Copper,L2,Bot,Signal*
G04 #@! TF.FilePolarity,Positive*
%FSLAX46Y46*%
G04 Gerber Fmt 4.6, Leading zero omitted, Abs format (unit mm)*
G04 Created by KiCad (PCBNEW (5.0.1-3-g963ef8bb5)) date Saturday, June 08, 2019 at 06:57:16 PM*
%MOMM*%
%LPD*%
G01*
G04 APERTURE LIST*
G04 #@! TA.AperFunction,ComponentPad*
%ADD10C,1.800000*%
G04 #@! TD*
G04 #@! TA.AperFunction,ComponentPad*
%ADD11R,1.800000X1.800000*%
G04 #@! TD*
G04 #@! TA.AperFunction,ComponentPad*
%ADD12C,2.000000*%
G04 #@! TD*
G04 #@! TA.AperFunction,ComponentPad*
%ADD13R,2.000000X2.000000*%
G04 #@! TD*
G04 #@! TA.AperFunction,ComponentPad*
%ADD14R,3.000000X3.000000*%
G04 #@! TD*
G04 #@! TA.AperFunction,ComponentPad*
%ADD15C,3.000000*%
G04 #@! TD*
G04 #@! TA.AperFunction,ComponentPad*
%ADD16C,6.000000*%
G04 #@! TD*
G04 #@! TA.AperFunction,ViaPad*
%ADD17C,1.600000*%
G04 #@! TD*
G04 #@! TA.AperFunction,Conductor*
%ADD18C,1.016000*%
G04 #@! TD*
G04 #@! TA.AperFunction,Conductor*
%ADD19C,0.254000*%
G04 #@! TD*
G04 APERTURE END LIST*
D10*
G04 #@! TO.P,U2,4*
G04 #@! TO.N,Net-(D2-PadA)*
X134620000Y-81100000D03*
G04 #@! TO.P,U2,3*
G04 #@! TO.N,GND*
X139700000Y-81100000D03*
D11*
G04 #@! TO.P,U2,1*
G04 #@! TO.N,Net-(D1-PadK)*
X147320000Y-81100000D03*
D10*
G04 #@! TO.P,U2,2*
G04 #@! TO.N,Net-(J4-Pad1)*
X144780000Y-81100000D03*
G04 #@! TD*
G04 #@! TO.P,D1,K*
G04 #@! TO.N,Net-(D1-PadK)*
X147955000Y-84455000D03*
G04 #@! TO.P,D1,A*
G04 #@! TO.N,Net-(D1-PadA)*
X155575000Y-84455000D03*
G04 #@! TD*
G04 #@! TO.P,D2,K*
G04 #@! TO.N,Net-(D2-PadK)*
X119380000Y-76200000D03*
G04 #@! TO.P,D2,A*
G04 #@! TO.N,Net-(D2-PadA)*
X127000000Y-76200000D03*
G04 #@! TD*
G04 #@! TO.P,D3,K*
G04 #@! TO.N,Net-(D2-PadK)*
X119380000Y-81280000D03*
G04 #@! TO.P,D3,A*
G04 #@! TO.N,Net-(D3-PadA)*
X127000000Y-81280000D03*
G04 #@! TD*
D12*
G04 #@! TO.P,J1,4*
G04 #@! TO.N,/SERIAL_IN*
X119380000Y-105410000D03*
D13*
G04 #@! TO.P,J1,1*
G04 #@! TO.N,Net-(J1-Pad1)*
X127000000Y-105410000D03*
D12*
G04 #@! TO.P,J1,2*
G04 #@! TO.N,GND*
X124460000Y-105410000D03*
G04 #@! TO.P,J1,3*
G04 #@! TO.N,Net-(J1-Pad3)*
X121920000Y-105410000D03*
G04 #@! TD*
G04 #@! TO.P,J2,4*
G04 #@! TO.N,/SERIAL_IN*
X131445000Y-105410000D03*
D13*
G04 #@! TO.P,J2,1*
G04 #@! TO.N,Net-(J1-Pad1)*
X139065000Y-105410000D03*
D12*
G04 #@! TO.P,J2,2*
G04 #@! TO.N,GND*
X136525000Y-105410000D03*
G04 #@! TO.P,J2,3*
G04 #@! TO.N,Net-(J1-Pad3)*
X133985000Y-105410000D03*
G04 #@! TD*
D13*
G04 #@! TO.P,J3,1*
G04 #@! TO.N,GND*
X148590000Y-105410000D03*
D12*
G04 #@! TO.P,J3,2*
G04 #@! TO.N,/DATA*
X146050000Y-105410000D03*
G04 #@! TO.P,J3,3*
G04 #@! TO.N,Net-(D2-PadK)*
X143510000Y-105410000D03*
G04 #@! TD*
D14*
G04 #@! TO.P,J4,1*
G04 #@! TO.N,Net-(J4-Pad1)*
X154305000Y-94615000D03*
D15*
G04 #@! TO.P,J4,2*
G04 #@! TO.N,Net-(D1-PadA)*
X154305000Y-89535000D03*
G04 #@! TD*
D10*
G04 #@! TO.P,R1,1*
G04 #@! TO.N,/SERIAL_IN*
X155575000Y-99695000D03*
G04 #@! TO.P,R1,2*
G04 #@! TO.N,Net-(R1-Pad2)*
X147955000Y-99695000D03*
G04 #@! TD*
G04 #@! TO.P,R2,1*
G04 #@! TO.N,Net-(J4-Pad1)*
X147955000Y-95885000D03*
G04 #@! TO.P,R2,2*
G04 #@! TO.N,Net-(D1-PadK)*
X147955000Y-88265000D03*
G04 #@! TD*
G04 #@! TO.P,U1,19*
G04 #@! TO.N,N/C*
X144145000Y-87630000D03*
G04 #@! TO.P,U1,15*
G04 #@! TO.N,/DATA*
X144145000Y-97790000D03*
G04 #@! TO.P,U1,34*
G04 #@! TO.N,Net-(D3-PadA)*
X113665000Y-87630000D03*
G04 #@! TO.P,U1,32*
G04 #@! TO.N,GND*
X113665000Y-85090000D03*
G04 #@! TO.P,U1,33*
G04 #@! TO.N,Net-(D2-PadK)*
X111125000Y-85090000D03*
G04 #@! TO.P,U1,20*
G04 #@! TO.N,N/C*
X144145000Y-85090000D03*
G04 #@! TO.P,U1,14*
X144145000Y-100330000D03*
G04 #@! TO.P,U1,2*
G04 #@! TO.N,Net-(R1-Pad2)*
X113665000Y-100330000D03*
G04 #@! TO.P,U1,1*
G04 #@! TO.N,GND*
X111125000Y-100330000D03*
G04 #@! TD*
D16*
G04 #@! TO.P,H1,1*
G04 #@! TO.N,N/C*
X113030000Y-105410000D03*
G04 #@! TD*
G04 #@! TO.P,H2,1*
G04 #@! TO.N,N/C*
X113030000Y-77470000D03*
G04 #@! TD*
G04 #@! TO.P,H3,1*
G04 #@! TO.N,N/C*
X154940000Y-105410000D03*
G04 #@! TD*
G04 #@! TO.P,H4,1*
G04 #@! TO.N,N/C*
X154940000Y-77470000D03*
G04 #@! TD*
D17*
G04 #@! TO.N,Net-(D2-PadK)*
X140335000Y-98425000D03*
G04 #@! TD*
D18*
G04 #@! TO.N,GND*
X135255000Y-102870000D02*
X136525000Y-104140000D01*
X136525000Y-104140000D02*
X136525000Y-105410000D01*
X113665000Y-85090000D02*
X116840000Y-85090000D01*
X116840000Y-85090000D02*
X139700000Y-85090000D01*
X116840000Y-92710000D02*
X116840000Y-85090000D01*
X111125000Y-98425000D02*
X116840000Y-92710000D01*
X111125000Y-100330000D02*
X111125000Y-98425000D01*
X124460000Y-100330000D02*
X116840000Y-92710000D01*
X124460000Y-102870000D02*
X124460000Y-100330000D01*
X124460000Y-105410000D02*
X124460000Y-102870000D01*
X135255000Y-102870000D02*
X124460000Y-102870000D01*
X146161000Y-96631000D02*
X139700000Y-90170000D01*
X146161000Y-100965000D02*
X146161000Y-96631000D01*
X139700000Y-90170000D02*
X139700000Y-81100000D01*
X148590000Y-103394000D02*
X146161000Y-100965000D01*
X148590000Y-105410000D02*
X148590000Y-103394000D01*
G04 #@! TO.N,Net-(J1-Pad1)*
X139065000Y-106553000D02*
X139065000Y-105410000D01*
X129032000Y-107696000D02*
X138176000Y-107696000D01*
X127000000Y-105664000D02*
X129032000Y-107696000D01*
X139192000Y-106680000D02*
X139065000Y-106553000D01*
X138176000Y-107696000D02*
X139192000Y-106680000D01*
X127000000Y-105410000D02*
X127000000Y-105664000D01*
D19*
G04 #@! TO.N,/DATA*
X142240000Y-101600000D02*
X143510000Y-102870000D01*
X146050000Y-103505000D02*
X146050000Y-105410000D01*
X142872208Y-97790000D02*
X142240000Y-98422208D01*
X145415000Y-102870000D02*
X146050000Y-103505000D01*
X143510000Y-102870000D02*
X145415000Y-102870000D01*
X142240000Y-98422208D02*
X142240000Y-101600000D01*
X144145000Y-97790000D02*
X142872208Y-97790000D01*
D18*
G04 #@! TO.N,Net-(D2-PadK)*
X140335000Y-102235000D02*
X140335000Y-98425000D01*
X143510000Y-105410000D02*
X140335000Y-102235000D01*
G04 #@! TD*
M02*
