%TF.GenerationSoftware,KiCad,Pcbnew,(5.1.6)-1*%
%TF.CreationDate,2020-09-05T08:23:18-07:00*%
%TF.ProjectId,pulser,70756c73-6572-42e6-9b69-6361645f7063,rev?*%
%TF.SameCoordinates,Original*%
%TF.FileFunction,Copper,L1,Top*%
%TF.FilePolarity,Positive*%
%FSLAX46Y46*%
G04 Gerber Fmt 4.6, Leading zero omitted, Abs format (unit mm)*
G04 Created by KiCad (PCBNEW (5.1.6)-1) date 2020-09-05 08:23:18*
%MOMM*%
%LPD*%
G01*
G04 APERTURE LIST*
%TA.AperFunction,ComponentPad*%
%ADD10O,3.800000X5.500000*%
%TD*%
%TA.AperFunction,ComponentPad*%
%ADD11O,3.800000X5.300000*%
%TD*%
%TA.AperFunction,ComponentPad*%
%ADD12R,3.000000X3.000000*%
%TD*%
%TA.AperFunction,ComponentPad*%
%ADD13C,3.000000*%
%TD*%
%TA.AperFunction,ComponentPad*%
%ADD14R,1.600000X1.600000*%
%TD*%
%TA.AperFunction,ComponentPad*%
%ADD15C,1.600000*%
%TD*%
%TA.AperFunction,ComponentPad*%
%ADD16C,6.400000*%
%TD*%
%TA.AperFunction,ComponentPad*%
%ADD17O,1.600000X1.600000*%
%TD*%
%TA.AperFunction,ComponentPad*%
%ADD18C,2.000000*%
%TD*%
%TA.AperFunction,ComponentPad*%
%ADD19R,2.000000X2.000000*%
%TD*%
%TA.AperFunction,ComponentPad*%
%ADD20O,3.200000X3.200000*%
%TD*%
%TA.AperFunction,ComponentPad*%
%ADD21R,3.200000X3.200000*%
%TD*%
%TA.AperFunction,ComponentPad*%
%ADD22O,2.190000X1.740000*%
%TD*%
%TA.AperFunction,ComponentPad*%
%ADD23C,2.300000*%
%TD*%
%TA.AperFunction,ComponentPad*%
%ADD24R,2.300000X2.300000*%
%TD*%
%TA.AperFunction,SMDPad,CuDef*%
%ADD25R,1.560000X0.650000*%
%TD*%
%TA.AperFunction,SMDPad,CuDef*%
%ADD26R,0.900000X1.200000*%
%TD*%
%TA.AperFunction,ViaPad*%
%ADD27C,0.762000*%
%TD*%
%TA.AperFunction,ViaPad*%
%ADD28C,0.800000*%
%TD*%
%TA.AperFunction,Conductor*%
%ADD29C,0.250000*%
%TD*%
%TA.AperFunction,Conductor*%
%ADD30C,0.228600*%
%TD*%
%TA.AperFunction,Conductor*%
%ADD31C,0.304800*%
%TD*%
%TA.AperFunction,Conductor*%
%ADD32C,1.270000*%
%TD*%
%TA.AperFunction,Conductor*%
%ADD33C,0.508000*%
%TD*%
%TA.AperFunction,Conductor*%
%ADD34C,0.812800*%
%TD*%
%TA.AperFunction,Conductor*%
%ADD35C,1.016000*%
%TD*%
%TA.AperFunction,Conductor*%
%ADD36C,0.711200*%
%TD*%
%TA.AperFunction,Conductor*%
%ADD37C,1.524000*%
%TD*%
%TA.AperFunction,Conductor*%
%ADD38C,1.905000*%
%TD*%
G04 APERTURE END LIST*
D10*
%TO.P,F1,1*%
%TO.N,Net-(F1-Pad1)*%
X99695000Y-86615000D03*
D11*
%TO.P,F1,2*%
%TO.N,Net-(D1-Pad2)*%
X99695000Y-94615000D03*
%TD*%
D12*
%TO.P,J2,1*%
%TO.N,Net-(F1-Pad1)*%
X106680000Y-85090000D03*
D13*
%TO.P,J2,2*%
%TO.N,GND*%
X111760000Y-85090000D03*
%TD*%
D12*
%TO.P,J4,1*%
%TO.N,/+24V*%
X128270000Y-85090000D03*
D13*
%TO.P,J4,2*%
%TO.N,Net-(J4-Pad2)*%
X133350000Y-85090000D03*
%TD*%
%TO.P,R11,2*%
%TO.N,/+24V*%
%TA.AperFunction,SMDPad,CuDef*%
G36*
G01*
X134270000Y-91691750D02*
X134270000Y-92204250D01*
G75*
G02*
X134051250Y-92423000I-218750J0D01*
G01*
X133613750Y-92423000D01*
G75*
G02*
X133395000Y-92204250I0J218750D01*
G01*
X133395000Y-91691750D01*
G75*
G02*
X133613750Y-91473000I218750J0D01*
G01*
X134051250Y-91473000D01*
G75*
G02*
X134270000Y-91691750I0J-218750D01*
G01*
G37*
%TD.AperFunction*%
%TO.P,R11,1*%
%TO.N,Net-(J4-Pad2)*%
%TA.AperFunction,SMDPad,CuDef*%
G36*
G01*
X135845000Y-91691750D02*
X135845000Y-92204250D01*
G75*
G02*
X135626250Y-92423000I-218750J0D01*
G01*
X135188750Y-92423000D01*
G75*
G02*
X134970000Y-92204250I0J218750D01*
G01*
X134970000Y-91691750D01*
G75*
G02*
X135188750Y-91473000I218750J0D01*
G01*
X135626250Y-91473000D01*
G75*
G02*
X135845000Y-91691750I0J-218750D01*
G01*
G37*
%TD.AperFunction*%
%TD*%
D14*
%TO.P,C3,1*%
%TO.N,/REG_5V*%
X88646000Y-100076000D03*
D15*
%TO.P,C3,2*%
%TO.N,GND*%
X88646000Y-98076000D03*
%TD*%
D14*
%TO.P,C2,1*%
%TO.N,/+24V*%
X76530200Y-88239600D03*
D15*
%TO.P,C2,2*%
%TO.N,GND*%
X74030200Y-88239600D03*
%TD*%
D16*
%TO.P,H4,1*%
%TO.N,N/C*%
X65000000Y-85000000D03*
%TD*%
%TO.P,H3,1*%
%TO.N,N/C*%
X145000000Y-85000000D03*
%TD*%
%TO.P,H2,1*%
%TO.N,N/C*%
X145000000Y-145000000D03*
%TD*%
%TO.P,H1,1*%
%TO.N,N/C*%
X65000000Y-145000000D03*
%TD*%
D17*
%TO.P,U2,8B*%
%TO.N,/A5*%
X97155000Y-115570000D03*
%TO.P,U2,7B*%
%TO.N,/A4*%
X99695000Y-115570000D03*
%TO.P,U2,4B*%
%TO.N,N/C*%
X107315000Y-115570000D03*
%TO.P,U2,3B*%
X109855000Y-115570000D03*
%TO.P,U2,16*%
%TO.N,+5V*%
X85725000Y-121920000D03*
%TO.P,U2,15*%
%TO.N,Net-(R4-Pad1)*%
X85725000Y-119380000D03*
%TO.P,U2,30*%
%TO.N,/LED3*%
X116205000Y-128270000D03*
%TO.P,U2,14*%
%TO.N,Net-(R5-Pad1)*%
X85725000Y-116840000D03*
%TO.P,U2,29*%
%TO.N,/LED2*%
X113665000Y-128270000D03*
%TO.P,U2,13*%
%TO.N,Net-(J3-Pad1)*%
X85725000Y-114300000D03*
%TO.P,U2,28*%
%TO.N,/LED1*%
X111125000Y-128270000D03*
%TO.P,U2,12*%
%TO.N,N/C*%
X88265000Y-113030000D03*
%TO.P,U2,27*%
%TO.N,/SW3*%
X108585000Y-128270000D03*
%TO.P,U2,11*%
%TO.N,GND*%
X90805000Y-113030000D03*
%TO.P,U2,26*%
%TO.N,/ROT8*%
X106045000Y-128270000D03*
%TO.P,U2,10*%
%TO.N,N/C*%
X93345000Y-113030000D03*
%TO.P,U2,25*%
%TO.N,/ROT4*%
X103505000Y-128270000D03*
%TO.P,U2,9*%
%TO.N,+5V*%
X95885000Y-113030000D03*
%TO.P,U2,24*%
%TO.N,/ROT2*%
X100965000Y-128270000D03*
%TO.P,U2,8*%
%TO.N,N/C*%
X98425000Y-113030000D03*
%TO.P,U2,23*%
%TO.N,/ROT1*%
X98425000Y-128270000D03*
%TO.P,U2,7*%
%TO.N,/GATE*%
X100965000Y-113030000D03*
%TO.P,U2,22*%
%TO.N,GND*%
X95885000Y-128270000D03*
%TO.P,U2,6*%
%TO.N,N/C*%
X103505000Y-113030000D03*
%TO.P,U2,21*%
X93345000Y-128270000D03*
%TO.P,U2,5*%
%TO.N,/SENSE*%
X106045000Y-113030000D03*
%TO.P,U2,20*%
%TO.N,/SW1*%
X90805000Y-128270000D03*
%TO.P,U2,4*%
%TO.N,/D13*%
X108585000Y-113030000D03*
%TO.P,U2,19*%
%TO.N,/SW2*%
X88265000Y-128270000D03*
%TO.P,U2,3*%
%TO.N,/D12*%
X111125000Y-113030000D03*
%TO.P,U2,18*%
%TO.N,GND*%
X85725000Y-127000000D03*
%TO.P,U2,2*%
%TO.N,/D11*%
X113665000Y-113030000D03*
%TO.P,U2,17*%
%TO.N,GND*%
X85725000Y-124460000D03*
D14*
%TO.P,U2,1*%
%TO.N,/REMOTE*%
X116205000Y-113030000D03*
%TD*%
D18*
%TO.P,U1,3*%
%TO.N,/REG_5V*%
X80645000Y-100965000D03*
%TO.P,U1,2*%
%TO.N,GND*%
X78105000Y-100965000D03*
D19*
%TO.P,U1,1*%
%TO.N,/+24V*%
X75565000Y-100965000D03*
%TD*%
D20*
%TO.P,D1,2*%
%TO.N,Net-(D1-Pad2)*%
X106426000Y-95504000D03*
D21*
%TO.P,D1,1*%
%TO.N,/+24V*%
X119126000Y-95504000D03*
%TD*%
%TO.P,U3,8*%
%TO.N,+5V*%
%TA.AperFunction,SMDPad,CuDef*%
G36*
G01*
X126850000Y-96050000D02*
X127150000Y-96050000D01*
G75*
G02*
X127300000Y-96200000I0J-150000D01*
G01*
X127300000Y-97850000D01*
G75*
G02*
X127150000Y-98000000I-150000J0D01*
G01*
X126850000Y-98000000D01*
G75*
G02*
X126700000Y-97850000I0J150000D01*
G01*
X126700000Y-96200000D01*
G75*
G02*
X126850000Y-96050000I150000J0D01*
G01*
G37*
%TD.AperFunction*%
%TO.P,U3,7*%
%TO.N,Net-(R10-Pad2)*%
%TA.AperFunction,SMDPad,CuDef*%
G36*
G01*
X125580000Y-96050000D02*
X125880000Y-96050000D01*
G75*
G02*
X126030000Y-96200000I0J-150000D01*
G01*
X126030000Y-97850000D01*
G75*
G02*
X125880000Y-98000000I-150000J0D01*
G01*
X125580000Y-98000000D01*
G75*
G02*
X125430000Y-97850000I0J150000D01*
G01*
X125430000Y-96200000D01*
G75*
G02*
X125580000Y-96050000I150000J0D01*
G01*
G37*
%TD.AperFunction*%
%TO.P,U3,6*%
%TO.N,+5V*%
%TA.AperFunction,SMDPad,CuDef*%
G36*
G01*
X124310000Y-96050000D02*
X124610000Y-96050000D01*
G75*
G02*
X124760000Y-96200000I0J-150000D01*
G01*
X124760000Y-97850000D01*
G75*
G02*
X124610000Y-98000000I-150000J0D01*
G01*
X124310000Y-98000000D01*
G75*
G02*
X124160000Y-97850000I0J150000D01*
G01*
X124160000Y-96200000D01*
G75*
G02*
X124310000Y-96050000I150000J0D01*
G01*
G37*
%TD.AperFunction*%
%TO.P,U3,5*%
%TO.N,GND*%
%TA.AperFunction,SMDPad,CuDef*%
G36*
G01*
X123040000Y-96050000D02*
X123340000Y-96050000D01*
G75*
G02*
X123490000Y-96200000I0J-150000D01*
G01*
X123490000Y-97850000D01*
G75*
G02*
X123340000Y-98000000I-150000J0D01*
G01*
X123040000Y-98000000D01*
G75*
G02*
X122890000Y-97850000I0J150000D01*
G01*
X122890000Y-96200000D01*
G75*
G02*
X123040000Y-96050000I150000J0D01*
G01*
G37*
%TD.AperFunction*%
%TO.P,U3,4*%
%TO.N,Net-(Q1-Pad1)*%
%TA.AperFunction,SMDPad,CuDef*%
G36*
G01*
X123040000Y-91100000D02*
X123340000Y-91100000D01*
G75*
G02*
X123490000Y-91250000I0J-150000D01*
G01*
X123490000Y-92900000D01*
G75*
G02*
X123340000Y-93050000I-150000J0D01*
G01*
X123040000Y-93050000D01*
G75*
G02*
X122890000Y-92900000I0J150000D01*
G01*
X122890000Y-91250000D01*
G75*
G02*
X123040000Y-91100000I150000J0D01*
G01*
G37*
%TD.AperFunction*%
%TO.P,U3,3*%
%TA.AperFunction,SMDPad,CuDef*%
G36*
G01*
X124310000Y-91100000D02*
X124610000Y-91100000D01*
G75*
G02*
X124760000Y-91250000I0J-150000D01*
G01*
X124760000Y-92900000D01*
G75*
G02*
X124610000Y-93050000I-150000J0D01*
G01*
X124310000Y-93050000D01*
G75*
G02*
X124160000Y-92900000I0J150000D01*
G01*
X124160000Y-91250000D01*
G75*
G02*
X124310000Y-91100000I150000J0D01*
G01*
G37*
%TD.AperFunction*%
%TO.P,U3,2*%
%TO.N,Net-(J4-Pad2)*%
%TA.AperFunction,SMDPad,CuDef*%
G36*
G01*
X125580000Y-91100000D02*
X125880000Y-91100000D01*
G75*
G02*
X126030000Y-91250000I0J-150000D01*
G01*
X126030000Y-92900000D01*
G75*
G02*
X125880000Y-93050000I-150000J0D01*
G01*
X125580000Y-93050000D01*
G75*
G02*
X125430000Y-92900000I0J150000D01*
G01*
X125430000Y-91250000D01*
G75*
G02*
X125580000Y-91100000I150000J0D01*
G01*
G37*
%TD.AperFunction*%
%TO.P,U3,1*%
%TA.AperFunction,SMDPad,CuDef*%
G36*
G01*
X126850000Y-91100000D02*
X127150000Y-91100000D01*
G75*
G02*
X127300000Y-91250000I0J-150000D01*
G01*
X127300000Y-92900000D01*
G75*
G02*
X127150000Y-93050000I-150000J0D01*
G01*
X126850000Y-93050000D01*
G75*
G02*
X126700000Y-92900000I0J150000D01*
G01*
X126700000Y-91250000D01*
G75*
G02*
X126850000Y-91100000I150000J0D01*
G01*
G37*
%TD.AperFunction*%
%TD*%
D22*
%TO.P,J3,6*%
%TO.N,GND*%
X64810000Y-103160000D03*
%TO.P,J3,5*%
%TO.N,N/C*%
X64810000Y-105700000D03*
%TO.P,J3,4*%
%TO.N,Net-(D3-Pad2)*%
X64810000Y-108240000D03*
%TO.P,J3,3*%
%TO.N,Net-(J3-Pad3)*%
X64810000Y-110780000D03*
%TO.P,J3,2*%
%TO.N,Net-(J3-Pad2)*%
X64810000Y-113320000D03*
%TO.P,J3,1*%
%TO.N,Net-(J3-Pad1)*%
%TA.AperFunction,ComponentPad*%
G36*
G01*
X65655001Y-116730000D02*
X63964999Y-116730000D01*
G75*
G02*
X63715000Y-116480001I0J249999D01*
G01*
X63715000Y-115239999D01*
G75*
G02*
X63964999Y-114990000I249999J0D01*
G01*
X65655001Y-114990000D01*
G75*
G02*
X65905000Y-115239999I0J-249999D01*
G01*
X65905000Y-116480001D01*
G75*
G02*
X65655001Y-116730000I-249999J0D01*
G01*
G37*
%TD.AperFunction*%
%TD*%
D23*
%TO.P,J1,2*%
%TO.N,Net-(C1-Pad2)*%
X64050000Y-127580000D03*
D24*
%TO.P,J1,1*%
%TO.N,GND*%
X64050000Y-131080000D03*
%TD*%
%TO.P,C4,2*%
%TO.N,GND*%
%TA.AperFunction,SMDPad,CuDef*%
G36*
G01*
X124897500Y-99438750D02*
X124897500Y-99951250D01*
G75*
G02*
X124678750Y-100170000I-218750J0D01*
G01*
X124241250Y-100170000D01*
G75*
G02*
X124022500Y-99951250I0J218750D01*
G01*
X124022500Y-99438750D01*
G75*
G02*
X124241250Y-99220000I218750J0D01*
G01*
X124678750Y-99220000D01*
G75*
G02*
X124897500Y-99438750I0J-218750D01*
G01*
G37*
%TD.AperFunction*%
%TO.P,C4,1*%
%TO.N,+5V*%
%TA.AperFunction,SMDPad,CuDef*%
G36*
G01*
X126472500Y-99438750D02*
X126472500Y-99951250D01*
G75*
G02*
X126253750Y-100170000I-218750J0D01*
G01*
X125816250Y-100170000D01*
G75*
G02*
X125597500Y-99951250I0J218750D01*
G01*
X125597500Y-99438750D01*
G75*
G02*
X125816250Y-99220000I218750J0D01*
G01*
X126253750Y-99220000D01*
G75*
G02*
X126472500Y-99438750I0J-218750D01*
G01*
G37*
%TD.AperFunction*%
%TD*%
%TO.P,C1,2*%
%TO.N,Net-(C1-Pad2)*%
%TA.AperFunction,SMDPad,CuDef*%
G36*
G01*
X71952500Y-133606250D02*
X71952500Y-133093750D01*
G75*
G02*
X72171250Y-132875000I218750J0D01*
G01*
X72608750Y-132875000D01*
G75*
G02*
X72827500Y-133093750I0J-218750D01*
G01*
X72827500Y-133606250D01*
G75*
G02*
X72608750Y-133825000I-218750J0D01*
G01*
X72171250Y-133825000D01*
G75*
G02*
X71952500Y-133606250I0J218750D01*
G01*
G37*
%TD.AperFunction*%
%TO.P,C1,1*%
%TO.N,GND*%
%TA.AperFunction,SMDPad,CuDef*%
G36*
G01*
X70377500Y-133606250D02*
X70377500Y-133093750D01*
G75*
G02*
X70596250Y-132875000I218750J0D01*
G01*
X71033750Y-132875000D01*
G75*
G02*
X71252500Y-133093750I0J-218750D01*
G01*
X71252500Y-133606250D01*
G75*
G02*
X71033750Y-133825000I-218750J0D01*
G01*
X70596250Y-133825000D01*
G75*
G02*
X70377500Y-133606250I0J218750D01*
G01*
G37*
%TD.AperFunction*%
%TD*%
D22*
%TO.P,J5,7*%
%TO.N,GND*%
X144780000Y-125730000D03*
%TO.P,J5,6*%
%TO.N,/D13*%
X144780000Y-123190000D03*
%TO.P,J5,5*%
%TO.N,/D12*%
X144780000Y-120650000D03*
%TO.P,J5,4*%
%TO.N,/D11*%
X144780000Y-118110000D03*
%TO.P,J5,3*%
%TO.N,/A5*%
X144780000Y-115570000D03*
%TO.P,J5,2*%
%TO.N,/A4*%
X144780000Y-113030000D03*
%TO.P,J5,1*%
%TO.N,+5V*%
%TA.AperFunction,ComponentPad*%
G36*
G01*
X143934999Y-109620000D02*
X145625001Y-109620000D01*
G75*
G02*
X145875000Y-109869999I0J-249999D01*
G01*
X145875000Y-111110001D01*
G75*
G02*
X145625001Y-111360000I-249999J0D01*
G01*
X143934999Y-111360000D01*
G75*
G02*
X143685000Y-111110001I0J249999D01*
G01*
X143685000Y-109869999D01*
G75*
G02*
X143934999Y-109620000I249999J0D01*
G01*
G37*
%TD.AperFunction*%
%TD*%
D18*
%TO.P,SW3,1*%
%TO.N,GND*%
X128120000Y-146050000D03*
%TO.P,SW3,2*%
%TO.N,/SW3*%
X128120000Y-141550000D03*
%TO.P,SW3,1*%
%TO.N,GND*%
X134620000Y-146050000D03*
%TO.P,SW3,2*%
%TO.N,/SW3*%
X134620000Y-141550000D03*
%TD*%
%TO.P,SW2,1*%
%TO.N,GND*%
X112880000Y-146050000D03*
%TO.P,SW2,2*%
%TO.N,/SW2*%
X112880000Y-141550000D03*
%TO.P,SW2,1*%
%TO.N,GND*%
X119380000Y-146050000D03*
%TO.P,SW2,2*%
%TO.N,/SW2*%
X119380000Y-141550000D03*
%TD*%
%TO.P,SW1,1*%
%TO.N,GND*%
X97640000Y-146050000D03*
%TO.P,SW1,2*%
%TO.N,/SW1*%
X97640000Y-141550000D03*
%TO.P,SW1,1*%
%TO.N,GND*%
X104140000Y-146050000D03*
%TO.P,SW1,2*%
%TO.N,/SW1*%
X104140000Y-141550000D03*
%TD*%
D17*
%TO.P,SW4,2*%
%TO.N,/ROT2*%
X83820000Y-146050000D03*
%TO.P,SW4,C*%
%TO.N,GND*%
X83820000Y-143510000D03*
%TO.P,SW4,8*%
%TO.N,/ROT8*%
X83820000Y-140970000D03*
%TO.P,SW4,4*%
%TO.N,/ROT4*%
X76200000Y-146050000D03*
%TO.P,SW4,C*%
%TO.N,GND*%
X76200000Y-143510000D03*
D14*
%TO.P,SW4,1*%
%TO.N,/ROT1*%
X76200000Y-140970000D03*
%TD*%
%TO.P,R10,2*%
%TO.N,Net-(R10-Pad2)*%
%TA.AperFunction,SMDPad,CuDef*%
G36*
G01*
X117832850Y-105517300D02*
X117320350Y-105517300D01*
G75*
G02*
X117101600Y-105298550I0J218750D01*
G01*
X117101600Y-104861050D01*
G75*
G02*
X117320350Y-104642300I218750J0D01*
G01*
X117832850Y-104642300D01*
G75*
G02*
X118051600Y-104861050I0J-218750D01*
G01*
X118051600Y-105298550D01*
G75*
G02*
X117832850Y-105517300I-218750J0D01*
G01*
G37*
%TD.AperFunction*%
%TO.P,R10,1*%
%TO.N,/SENSE*%
%TA.AperFunction,SMDPad,CuDef*%
G36*
G01*
X117832850Y-107092300D02*
X117320350Y-107092300D01*
G75*
G02*
X117101600Y-106873550I0J218750D01*
G01*
X117101600Y-106436050D01*
G75*
G02*
X117320350Y-106217300I218750J0D01*
G01*
X117832850Y-106217300D01*
G75*
G02*
X118051600Y-106436050I0J-218750D01*
G01*
X118051600Y-106873550D01*
G75*
G02*
X117832850Y-107092300I-218750J0D01*
G01*
G37*
%TD.AperFunction*%
%TD*%
%TO.P,R9,2*%
%TO.N,/GATE*%
%TA.AperFunction,SMDPad,CuDef*%
G36*
G01*
X114904000Y-91188250D02*
X114904000Y-90675750D01*
G75*
G02*
X115122750Y-90457000I218750J0D01*
G01*
X115560250Y-90457000D01*
G75*
G02*
X115779000Y-90675750I0J-218750D01*
G01*
X115779000Y-91188250D01*
G75*
G02*
X115560250Y-91407000I-218750J0D01*
G01*
X115122750Y-91407000D01*
G75*
G02*
X114904000Y-91188250I0J218750D01*
G01*
G37*
%TD.AperFunction*%
%TO.P,R9,1*%
%TO.N,GND*%
%TA.AperFunction,SMDPad,CuDef*%
G36*
G01*
X113329000Y-91188250D02*
X113329000Y-90675750D01*
G75*
G02*
X113547750Y-90457000I218750J0D01*
G01*
X113985250Y-90457000D01*
G75*
G02*
X114204000Y-90675750I0J-218750D01*
G01*
X114204000Y-91188250D01*
G75*
G02*
X113985250Y-91407000I-218750J0D01*
G01*
X113547750Y-91407000D01*
G75*
G02*
X113329000Y-91188250I0J218750D01*
G01*
G37*
%TD.AperFunction*%
%TD*%
%TO.P,R8,2*%
%TO.N,Net-(D7-Pad2)*%
%TA.AperFunction,SMDPad,CuDef*%
G36*
G01*
X92171000Y-86463850D02*
X92171000Y-85951350D01*
G75*
G02*
X92389750Y-85732600I218750J0D01*
G01*
X92827250Y-85732600D01*
G75*
G02*
X93046000Y-85951350I0J-218750D01*
G01*
X93046000Y-86463850D01*
G75*
G02*
X92827250Y-86682600I-218750J0D01*
G01*
X92389750Y-86682600D01*
G75*
G02*
X92171000Y-86463850I0J218750D01*
G01*
G37*
%TD.AperFunction*%
%TO.P,R8,1*%
%TO.N,+5V*%
%TA.AperFunction,SMDPad,CuDef*%
G36*
G01*
X90596000Y-86463850D02*
X90596000Y-85951350D01*
G75*
G02*
X90814750Y-85732600I218750J0D01*
G01*
X91252250Y-85732600D01*
G75*
G02*
X91471000Y-85951350I0J-218750D01*
G01*
X91471000Y-86463850D01*
G75*
G02*
X91252250Y-86682600I-218750J0D01*
G01*
X90814750Y-86682600D01*
G75*
G02*
X90596000Y-86463850I0J218750D01*
G01*
G37*
%TD.AperFunction*%
%TD*%
D25*
%TO.P,Q2,5*%
%TO.N,Net-(Q1-Pad1)*%
X117475000Y-88265000D03*
%TO.P,Q2,6*%
X117475000Y-89215000D03*
%TO.P,Q2,4*%
%TO.N,GND*%
X117475000Y-87315000D03*
%TO.P,Q2,3*%
%TO.N,/GATE*%
X120175000Y-87315000D03*
%TO.P,Q2,2*%
%TO.N,Net-(Q1-Pad1)*%
X120175000Y-88265000D03*
%TO.P,Q2,1*%
X120175000Y-89215000D03*
%TD*%
%TO.P,D7,2*%
%TO.N,Net-(D7-Pad2)*%
%TA.AperFunction,SMDPad,CuDef*%
G36*
G01*
X92171000Y-84330250D02*
X92171000Y-83817750D01*
G75*
G02*
X92389750Y-83599000I218750J0D01*
G01*
X92827250Y-83599000D01*
G75*
G02*
X93046000Y-83817750I0J-218750D01*
G01*
X93046000Y-84330250D01*
G75*
G02*
X92827250Y-84549000I-218750J0D01*
G01*
X92389750Y-84549000D01*
G75*
G02*
X92171000Y-84330250I0J218750D01*
G01*
G37*
%TD.AperFunction*%
%TO.P,D7,1*%
%TO.N,GND*%
%TA.AperFunction,SMDPad,CuDef*%
G36*
G01*
X90596000Y-84330250D02*
X90596000Y-83817750D01*
G75*
G02*
X90814750Y-83599000I218750J0D01*
G01*
X91252250Y-83599000D01*
G75*
G02*
X91471000Y-83817750I0J-218750D01*
G01*
X91471000Y-84330250D01*
G75*
G02*
X91252250Y-84549000I-218750J0D01*
G01*
X90814750Y-84549000D01*
G75*
G02*
X90596000Y-84330250I0J218750D01*
G01*
G37*
%TD.AperFunction*%
%TD*%
D18*
%TO.P,TP5,1*%
%TO.N,Net-(J4-Pad2)*%
X133477000Y-96012000D03*
%TD*%
D25*
%TO.P,Q1,5*%
%TO.N,Net-(Q1-Pad1)*%
X117395000Y-83820000D03*
%TO.P,Q1,6*%
X117395000Y-84770000D03*
%TO.P,Q1,4*%
%TO.N,GND*%
X117395000Y-82870000D03*
%TO.P,Q1,3*%
%TO.N,/GATE*%
X120095000Y-82870000D03*
%TO.P,Q1,2*%
%TO.N,Net-(Q1-Pad1)*%
X120095000Y-83820000D03*
%TO.P,Q1,1*%
X120095000Y-84770000D03*
%TD*%
D18*
%TO.P,TP4,1*%
%TO.N,/GATE*%
X102870000Y-106426000D03*
%TD*%
%TO.P,TP2,1*%
%TO.N,+5V*%
X144856200Y-102031800D03*
%TD*%
%TO.P,TP1,1*%
%TO.N,GND*%
X64770000Y-96012000D03*
%TD*%
%TO.P,R6,2*%
%TO.N,Net-(D4-Pad2)*%
%TA.AperFunction,SMDPad,CuDef*%
G36*
G01*
X116402500Y-134241250D02*
X116402500Y-133728750D01*
G75*
G02*
X116621250Y-133510000I218750J0D01*
G01*
X117058750Y-133510000D01*
G75*
G02*
X117277500Y-133728750I0J-218750D01*
G01*
X117277500Y-134241250D01*
G75*
G02*
X117058750Y-134460000I-218750J0D01*
G01*
X116621250Y-134460000D01*
G75*
G02*
X116402500Y-134241250I0J218750D01*
G01*
G37*
%TD.AperFunction*%
%TO.P,R6,1*%
%TO.N,/LED2*%
%TA.AperFunction,SMDPad,CuDef*%
G36*
G01*
X114827500Y-134241250D02*
X114827500Y-133728750D01*
G75*
G02*
X115046250Y-133510000I218750J0D01*
G01*
X115483750Y-133510000D01*
G75*
G02*
X115702500Y-133728750I0J-218750D01*
G01*
X115702500Y-134241250D01*
G75*
G02*
X115483750Y-134460000I-218750J0D01*
G01*
X115046250Y-134460000D01*
G75*
G02*
X114827500Y-134241250I0J218750D01*
G01*
G37*
%TD.AperFunction*%
%TD*%
%TO.P,R4,2*%
%TO.N,Net-(J3-Pad3)*%
%TA.AperFunction,SMDPad,CuDef*%
G36*
G01*
X75062500Y-114043750D02*
X75062500Y-114556250D01*
G75*
G02*
X74843750Y-114775000I-218750J0D01*
G01*
X74406250Y-114775000D01*
G75*
G02*
X74187500Y-114556250I0J218750D01*
G01*
X74187500Y-114043750D01*
G75*
G02*
X74406250Y-113825000I218750J0D01*
G01*
X74843750Y-113825000D01*
G75*
G02*
X75062500Y-114043750I0J-218750D01*
G01*
G37*
%TD.AperFunction*%
%TO.P,R4,1*%
%TO.N,Net-(R4-Pad1)*%
%TA.AperFunction,SMDPad,CuDef*%
G36*
G01*
X76637500Y-114043750D02*
X76637500Y-114556250D01*
G75*
G02*
X76418750Y-114775000I-218750J0D01*
G01*
X75981250Y-114775000D01*
G75*
G02*
X75762500Y-114556250I0J218750D01*
G01*
X75762500Y-114043750D01*
G75*
G02*
X75981250Y-113825000I218750J0D01*
G01*
X76418750Y-113825000D01*
G75*
G02*
X76637500Y-114043750I0J-218750D01*
G01*
G37*
%TD.AperFunction*%
%TD*%
%TO.P,R2,2*%
%TO.N,/REMOTE*%
%TA.AperFunction,SMDPad,CuDef*%
G36*
G01*
X71952500Y-128526250D02*
X71952500Y-128013750D01*
G75*
G02*
X72171250Y-127795000I218750J0D01*
G01*
X72608750Y-127795000D01*
G75*
G02*
X72827500Y-128013750I0J-218750D01*
G01*
X72827500Y-128526250D01*
G75*
G02*
X72608750Y-128745000I-218750J0D01*
G01*
X72171250Y-128745000D01*
G75*
G02*
X71952500Y-128526250I0J218750D01*
G01*
G37*
%TD.AperFunction*%
%TO.P,R2,1*%
%TO.N,Net-(C1-Pad2)*%
%TA.AperFunction,SMDPad,CuDef*%
G36*
G01*
X70377500Y-128526250D02*
X70377500Y-128013750D01*
G75*
G02*
X70596250Y-127795000I218750J0D01*
G01*
X71033750Y-127795000D01*
G75*
G02*
X71252500Y-128013750I0J-218750D01*
G01*
X71252500Y-128526250D01*
G75*
G02*
X71033750Y-128745000I-218750J0D01*
G01*
X70596250Y-128745000D01*
G75*
G02*
X70377500Y-128526250I0J218750D01*
G01*
G37*
%TD.AperFunction*%
%TD*%
%TO.P,R7,2*%
%TO.N,Net-(D6-Pad2)*%
%TA.AperFunction,SMDPad,CuDef*%
G36*
G01*
X131642500Y-134241250D02*
X131642500Y-133728750D01*
G75*
G02*
X131861250Y-133510000I218750J0D01*
G01*
X132298750Y-133510000D01*
G75*
G02*
X132517500Y-133728750I0J-218750D01*
G01*
X132517500Y-134241250D01*
G75*
G02*
X132298750Y-134460000I-218750J0D01*
G01*
X131861250Y-134460000D01*
G75*
G02*
X131642500Y-134241250I0J218750D01*
G01*
G37*
%TD.AperFunction*%
%TO.P,R7,1*%
%TO.N,/LED3*%
%TA.AperFunction,SMDPad,CuDef*%
G36*
G01*
X130067500Y-134241250D02*
X130067500Y-133728750D01*
G75*
G02*
X130286250Y-133510000I218750J0D01*
G01*
X130723750Y-133510000D01*
G75*
G02*
X130942500Y-133728750I0J-218750D01*
G01*
X130942500Y-134241250D01*
G75*
G02*
X130723750Y-134460000I-218750J0D01*
G01*
X130286250Y-134460000D01*
G75*
G02*
X130067500Y-134241250I0J218750D01*
G01*
G37*
%TD.AperFunction*%
%TD*%
%TO.P,R1,2*%
%TO.N,+5V*%
%TA.AperFunction,SMDPad,CuDef*%
G36*
G01*
X71952500Y-125986250D02*
X71952500Y-125473750D01*
G75*
G02*
X72171250Y-125255000I218750J0D01*
G01*
X72608750Y-125255000D01*
G75*
G02*
X72827500Y-125473750I0J-218750D01*
G01*
X72827500Y-125986250D01*
G75*
G02*
X72608750Y-126205000I-218750J0D01*
G01*
X72171250Y-126205000D01*
G75*
G02*
X71952500Y-125986250I0J218750D01*
G01*
G37*
%TD.AperFunction*%
%TO.P,R1,1*%
%TO.N,Net-(C1-Pad2)*%
%TA.AperFunction,SMDPad,CuDef*%
G36*
G01*
X70377500Y-125986250D02*
X70377500Y-125473750D01*
G75*
G02*
X70596250Y-125255000I218750J0D01*
G01*
X71033750Y-125255000D01*
G75*
G02*
X71252500Y-125473750I0J-218750D01*
G01*
X71252500Y-125986250D01*
G75*
G02*
X71033750Y-126205000I-218750J0D01*
G01*
X70596250Y-126205000D01*
G75*
G02*
X70377500Y-125986250I0J218750D01*
G01*
G37*
%TD.AperFunction*%
%TD*%
%TO.P,R5,2*%
%TO.N,Net-(J3-Pad2)*%
%TA.AperFunction,SMDPad,CuDef*%
G36*
G01*
X75062500Y-117853750D02*
X75062500Y-118366250D01*
G75*
G02*
X74843750Y-118585000I-218750J0D01*
G01*
X74406250Y-118585000D01*
G75*
G02*
X74187500Y-118366250I0J218750D01*
G01*
X74187500Y-117853750D01*
G75*
G02*
X74406250Y-117635000I218750J0D01*
G01*
X74843750Y-117635000D01*
G75*
G02*
X75062500Y-117853750I0J-218750D01*
G01*
G37*
%TD.AperFunction*%
%TO.P,R5,1*%
%TO.N,Net-(R5-Pad1)*%
%TA.AperFunction,SMDPad,CuDef*%
G36*
G01*
X76637500Y-117853750D02*
X76637500Y-118366250D01*
G75*
G02*
X76418750Y-118585000I-218750J0D01*
G01*
X75981250Y-118585000D01*
G75*
G02*
X75762500Y-118366250I0J218750D01*
G01*
X75762500Y-117853750D01*
G75*
G02*
X75981250Y-117635000I218750J0D01*
G01*
X76418750Y-117635000D01*
G75*
G02*
X76637500Y-117853750I0J-218750D01*
G01*
G37*
%TD.AperFunction*%
%TD*%
%TO.P,D6,2*%
%TO.N,Net-(D6-Pad2)*%
%TA.AperFunction,SMDPad,CuDef*%
G36*
G01*
X131795000Y-136146250D02*
X131795000Y-135633750D01*
G75*
G02*
X132013750Y-135415000I218750J0D01*
G01*
X132451250Y-135415000D01*
G75*
G02*
X132670000Y-135633750I0J-218750D01*
G01*
X132670000Y-136146250D01*
G75*
G02*
X132451250Y-136365000I-218750J0D01*
G01*
X132013750Y-136365000D01*
G75*
G02*
X131795000Y-136146250I0J218750D01*
G01*
G37*
%TD.AperFunction*%
%TO.P,D6,1*%
%TO.N,GND*%
%TA.AperFunction,SMDPad,CuDef*%
G36*
G01*
X130220000Y-136146250D02*
X130220000Y-135633750D01*
G75*
G02*
X130438750Y-135415000I218750J0D01*
G01*
X130876250Y-135415000D01*
G75*
G02*
X131095000Y-135633750I0J-218750D01*
G01*
X131095000Y-136146250D01*
G75*
G02*
X130876250Y-136365000I-218750J0D01*
G01*
X130438750Y-136365000D01*
G75*
G02*
X130220000Y-136146250I0J218750D01*
G01*
G37*
%TD.AperFunction*%
%TD*%
%TO.P,D4,2*%
%TO.N,Net-(D4-Pad2)*%
%TA.AperFunction,SMDPad,CuDef*%
G36*
G01*
X116402500Y-136146250D02*
X116402500Y-135633750D01*
G75*
G02*
X116621250Y-135415000I218750J0D01*
G01*
X117058750Y-135415000D01*
G75*
G02*
X117277500Y-135633750I0J-218750D01*
G01*
X117277500Y-136146250D01*
G75*
G02*
X117058750Y-136365000I-218750J0D01*
G01*
X116621250Y-136365000D01*
G75*
G02*
X116402500Y-136146250I0J218750D01*
G01*
G37*
%TD.AperFunction*%
%TO.P,D4,1*%
%TO.N,GND*%
%TA.AperFunction,SMDPad,CuDef*%
G36*
G01*
X114827500Y-136146250D02*
X114827500Y-135633750D01*
G75*
G02*
X115046250Y-135415000I218750J0D01*
G01*
X115483750Y-135415000D01*
G75*
G02*
X115702500Y-135633750I0J-218750D01*
G01*
X115702500Y-136146250D01*
G75*
G02*
X115483750Y-136365000I-218750J0D01*
G01*
X115046250Y-136365000D01*
G75*
G02*
X114827500Y-136146250I0J218750D01*
G01*
G37*
%TD.AperFunction*%
%TD*%
%TO.P,D2,2*%
%TO.N,Net-(D2-Pad2)*%
%TA.AperFunction,SMDPad,CuDef*%
G36*
G01*
X101162500Y-136146250D02*
X101162500Y-135633750D01*
G75*
G02*
X101381250Y-135415000I218750J0D01*
G01*
X101818750Y-135415000D01*
G75*
G02*
X102037500Y-135633750I0J-218750D01*
G01*
X102037500Y-136146250D01*
G75*
G02*
X101818750Y-136365000I-218750J0D01*
G01*
X101381250Y-136365000D01*
G75*
G02*
X101162500Y-136146250I0J218750D01*
G01*
G37*
%TD.AperFunction*%
%TO.P,D2,1*%
%TO.N,GND*%
%TA.AperFunction,SMDPad,CuDef*%
G36*
G01*
X99587500Y-136146250D02*
X99587500Y-135633750D01*
G75*
G02*
X99806250Y-135415000I218750J0D01*
G01*
X100243750Y-135415000D01*
G75*
G02*
X100462500Y-135633750I0J-218750D01*
G01*
X100462500Y-136146250D01*
G75*
G02*
X100243750Y-136365000I-218750J0D01*
G01*
X99806250Y-136365000D01*
G75*
G02*
X99587500Y-136146250I0J218750D01*
G01*
G37*
%TD.AperFunction*%
%TD*%
%TO.P,C5,2*%
%TO.N,GND*%
%TA.AperFunction,SMDPad,CuDef*%
G36*
G01*
X114835650Y-105491800D02*
X114323150Y-105491800D01*
G75*
G02*
X114104400Y-105273050I0J218750D01*
G01*
X114104400Y-104835550D01*
G75*
G02*
X114323150Y-104616800I218750J0D01*
G01*
X114835650Y-104616800D01*
G75*
G02*
X115054400Y-104835550I0J-218750D01*
G01*
X115054400Y-105273050D01*
G75*
G02*
X114835650Y-105491800I-218750J0D01*
G01*
G37*
%TD.AperFunction*%
%TO.P,C5,1*%
%TO.N,/SENSE*%
%TA.AperFunction,SMDPad,CuDef*%
G36*
G01*
X114835650Y-107066800D02*
X114323150Y-107066800D01*
G75*
G02*
X114104400Y-106848050I0J218750D01*
G01*
X114104400Y-106410550D01*
G75*
G02*
X114323150Y-106191800I218750J0D01*
G01*
X114835650Y-106191800D01*
G75*
G02*
X115054400Y-106410550I0J-218750D01*
G01*
X115054400Y-106848050D01*
G75*
G02*
X114835650Y-107066800I-218750J0D01*
G01*
G37*
%TD.AperFunction*%
%TD*%
D26*
%TO.P,D5,2*%
%TO.N,/REG_5V*%
X85980000Y-104775000D03*
%TO.P,D5,1*%
%TO.N,+5V*%
X89280000Y-104775000D03*
%TD*%
%TO.P,D3,2*%
%TO.N,Net-(D3-Pad2)*%
X74170000Y-108204000D03*
%TO.P,D3,1*%
%TO.N,+5V*%
X77470000Y-108204000D03*
%TD*%
D18*
%TO.P,TP3,1*%
%TO.N,/SENSE*%
X109220000Y-106426000D03*
%TD*%
%TO.P,R3,2*%
%TO.N,Net-(D2-Pad2)*%
%TA.AperFunction,SMDPad,CuDef*%
G36*
G01*
X101162500Y-134241250D02*
X101162500Y-133728750D01*
G75*
G02*
X101381250Y-133510000I218750J0D01*
G01*
X101818750Y-133510000D01*
G75*
G02*
X102037500Y-133728750I0J-218750D01*
G01*
X102037500Y-134241250D01*
G75*
G02*
X101818750Y-134460000I-218750J0D01*
G01*
X101381250Y-134460000D01*
G75*
G02*
X101162500Y-134241250I0J218750D01*
G01*
G37*
%TD.AperFunction*%
%TO.P,R3,1*%
%TO.N,/LED1*%
%TA.AperFunction,SMDPad,CuDef*%
G36*
G01*
X99587500Y-134241250D02*
X99587500Y-133728750D01*
G75*
G02*
X99806250Y-133510000I218750J0D01*
G01*
X100243750Y-133510000D01*
G75*
G02*
X100462500Y-133728750I0J-218750D01*
G01*
X100462500Y-134241250D01*
G75*
G02*
X100243750Y-134460000I-218750J0D01*
G01*
X99806250Y-134460000D01*
G75*
G02*
X99587500Y-134241250I0J218750D01*
G01*
G37*
%TD.AperFunction*%
%TD*%
D27*
%TO.N,/GATE*%
X104546400Y-100279200D03*
D28*
X121792998Y-82804000D03*
X120142003Y-86105997D03*
X119887996Y-90424000D03*
%TO.N,GND*%
X88392000Y-84074000D03*
X114630200Y-103632000D03*
X123444000Y-98806000D03*
%TO.N,+5V*%
X91617800Y-94640400D03*
X91694000Y-90805002D03*
%TO.N,/SENSE*%
X107467400Y-110413800D03*
%TO.N,/ROT4*%
X105410000Y-133858000D03*
%TO.N,/SW1*%
X93599000Y-133985000D03*
%TD*%
D29*
%TO.N,/GATE*%
X120095000Y-82870000D02*
X120095000Y-82630000D01*
X120095000Y-82870000D02*
X119700000Y-82870000D01*
X120175000Y-87315000D02*
X119700000Y-87315000D01*
D30*
X120095000Y-82870000D02*
X119827000Y-82870000D01*
X120175000Y-87315000D02*
X119827000Y-87315000D01*
D31*
X115341500Y-91877115D02*
X106939415Y-100279200D01*
X106939415Y-100279200D02*
X104546400Y-100279200D01*
X115341500Y-90932000D02*
X115341500Y-91877115D01*
X119827000Y-82870000D02*
X121726998Y-82870000D01*
X121726998Y-82870000D02*
X121792998Y-82804000D01*
D30*
X120175000Y-87315000D02*
X120175000Y-86138994D01*
X120175000Y-86138994D02*
X120142003Y-86105997D01*
D31*
X115341500Y-90932000D02*
X119379996Y-90932000D01*
X119379996Y-90932000D02*
X119887996Y-90424000D01*
D32*
%TO.N,GND*%
X114274600Y-82575400D02*
X111760000Y-85090000D01*
X117576600Y-82575400D02*
X114274600Y-82575400D01*
X113715800Y-87045800D02*
X111760000Y-85090000D01*
X117678200Y-87045800D02*
X113715800Y-87045800D01*
D31*
X123190000Y-98425000D02*
X124396500Y-99631500D01*
X123190000Y-97025000D02*
X123190000Y-98425000D01*
D30*
X66320000Y-133350000D02*
X64050000Y-131080000D01*
X70815000Y-133350000D02*
X66320000Y-133350000D01*
D31*
X124396500Y-99631500D02*
X124460000Y-99695000D01*
D30*
X123187000Y-97028000D02*
X123190000Y-97025000D01*
X113741000Y-87071000D02*
X113715800Y-87045800D01*
X120954800Y-144475200D02*
X119380000Y-146050000D01*
X120954800Y-140563600D02*
X120954800Y-144475200D01*
X119354600Y-138963400D02*
X120954800Y-140563600D01*
X115265000Y-137160000D02*
X117068400Y-138963400D01*
X117068400Y-138963400D02*
X119354600Y-138963400D01*
X136398000Y-144526000D02*
X134874000Y-146050000D01*
X130657500Y-137160000D02*
X130657500Y-137261500D01*
X130657500Y-137261500D02*
X132842000Y-139446000D01*
X132842000Y-139446000D02*
X135128000Y-139446000D01*
X134874000Y-146050000D02*
X134620000Y-146050000D01*
X135128000Y-139446000D02*
X136398000Y-140716000D01*
X136398000Y-140716000D02*
X136398000Y-144526000D01*
D33*
X113741000Y-90906500D02*
X113741000Y-87071000D01*
X113766500Y-90932000D02*
X113741000Y-90906500D01*
D30*
X105740200Y-144449800D02*
X104140000Y-146050000D01*
X105740200Y-140741400D02*
X105740200Y-144449800D01*
X104190800Y-139192000D02*
X105740200Y-140741400D01*
X100025000Y-137160000D02*
X102057000Y-139192000D01*
X102057000Y-139192000D02*
X104190800Y-139192000D01*
X100025000Y-137160000D02*
X100025000Y-135890000D01*
X115265000Y-137160000D02*
X115265000Y-135890000D01*
X130657500Y-137261500D02*
X130657500Y-135890000D01*
X91033500Y-84074000D02*
X88392000Y-84074000D01*
X114630200Y-105003500D02*
X114579400Y-105054300D01*
X114630200Y-103632000D02*
X114630200Y-105003500D01*
D31*
%TO.N,+5V*%
X127000000Y-98730000D02*
X126035000Y-99695000D01*
X127000000Y-97025000D02*
X127000000Y-98730000D01*
X124460000Y-98120000D02*
X126035000Y-99695000D01*
X124460000Y-97025000D02*
X124460000Y-98120000D01*
D34*
X89280000Y-108076000D02*
X89408000Y-108204000D01*
D35*
X89280000Y-104775000D02*
X89280000Y-108076000D01*
X77470000Y-108204000D02*
X89408000Y-108204000D01*
D30*
X76200000Y-121920000D02*
X72390000Y-125730000D01*
X85725000Y-121920000D02*
X76200000Y-121920000D01*
D35*
X95885000Y-113157000D02*
X95885000Y-113030000D01*
X85725000Y-121920000D02*
X87122000Y-121920000D01*
X87122000Y-121920000D02*
X95885000Y-113157000D01*
X129540000Y-110490000D02*
X128117600Y-109067600D01*
X90195400Y-108991400D02*
X89280000Y-108076000D01*
X128117600Y-109067600D02*
X128041400Y-108991400D01*
X128041400Y-108991400D02*
X125501400Y-108991400D01*
X144780000Y-110490000D02*
X136042400Y-110490000D01*
X136042400Y-110490000D02*
X129540000Y-110490000D01*
D30*
X126035000Y-108457800D02*
X125501400Y-108991400D01*
X126035000Y-99695000D02*
X126035000Y-108457800D01*
D35*
X95885000Y-113030000D02*
X95885000Y-109448600D01*
X125501400Y-108991400D02*
X95427800Y-108991400D01*
X95427800Y-108991400D02*
X90195400Y-108991400D01*
D31*
X144856200Y-110413800D02*
X144780000Y-110490000D01*
X144856200Y-102031800D02*
X144856200Y-110413800D01*
D30*
X89280000Y-104775000D02*
X91617800Y-102437200D01*
X91617800Y-102437200D02*
X91617800Y-94640400D01*
X91694000Y-90805002D02*
X91694000Y-88392000D01*
X91033500Y-87731500D02*
X91033500Y-86207600D01*
X91694000Y-88392000D02*
X91033500Y-87731500D01*
D36*
%TO.N,Net-(Q1-Pad1)*%
X117475000Y-88265000D02*
X120175000Y-88265000D01*
X117395000Y-83820000D02*
X120095000Y-83820000D01*
X117395000Y-84770000D02*
X120095000Y-84770000D01*
X120175000Y-88265000D02*
X120175000Y-89215000D01*
X117475000Y-88265000D02*
X117475000Y-89215000D01*
X117395000Y-83820000D02*
X117395000Y-84770000D01*
X120095000Y-83820000D02*
X120095000Y-84770000D01*
D37*
X123190000Y-85561000D02*
X121957000Y-84328000D01*
X121957000Y-84328000D02*
X119507000Y-84328000D01*
X123190000Y-88773000D02*
X120904000Y-88773000D01*
X123190000Y-88773000D02*
X123190000Y-85561000D01*
X123190000Y-88773000D02*
X123825000Y-89408000D01*
X123825000Y-89408000D02*
X123825000Y-92075000D01*
D30*
X120617000Y-88773000D02*
X120175000Y-89215000D01*
X120904000Y-88773000D02*
X120617000Y-88773000D01*
D36*
X117475000Y-89215000D02*
X117505590Y-89184410D01*
X120144410Y-89184410D02*
X120175000Y-89215000D01*
X117505590Y-89184410D02*
X120144410Y-89184410D01*
D34*
%TO.N,Net-(D3-Pad2)*%
X74134000Y-108240000D02*
X74170000Y-108204000D01*
D35*
X64810000Y-108240000D02*
X74134000Y-108240000D01*
D30*
%TO.N,/SENSE*%
X109474000Y-106680000D02*
X109220000Y-106426000D01*
X106172000Y-111709200D02*
X107467400Y-110413800D01*
X106172000Y-113030000D02*
X106172000Y-111709200D01*
X114604900Y-106654800D02*
X114579400Y-106629300D01*
X117576600Y-106654800D02*
X114604900Y-106654800D01*
X109423300Y-106629300D02*
X109220000Y-106426000D01*
X114579400Y-106629300D02*
X109423300Y-106629300D01*
%TO.N,Net-(D2-Pad2)*%
X101600000Y-135890000D02*
X101600000Y-133985000D01*
%TO.N,Net-(D4-Pad2)*%
X116840000Y-135890000D02*
X116840000Y-133985000D01*
%TO.N,Net-(D6-Pad2)*%
X132232500Y-134137500D02*
X132080000Y-133985000D01*
X132232500Y-135890000D02*
X132232500Y-134137500D01*
D38*
%TO.N,Net-(D1-Pad2)*%
X105537000Y-94615000D02*
X106426000Y-95504000D01*
X99695000Y-94615000D02*
X105537000Y-94615000D01*
D29*
%TO.N,Net-(F1-Pad1)*%
X100330000Y-85090000D02*
X99060000Y-86360000D01*
D38*
X105155000Y-86615000D02*
X106680000Y-85090000D01*
X99695000Y-86615000D02*
X105155000Y-86615000D01*
D30*
%TO.N,Net-(D7-Pad2)*%
X92633800Y-86182300D02*
X92608500Y-86207600D01*
X92608500Y-84074000D02*
X92608500Y-86207600D01*
%TO.N,/LED1*%
X111125000Y-129921000D02*
X111125000Y-128270000D01*
X108356400Y-132689600D02*
X111125000Y-129921000D01*
X100025000Y-133985000D02*
X101320400Y-132689600D01*
X101320400Y-132689600D02*
X108356400Y-132689600D01*
%TO.N,/LED2*%
X113665000Y-132385000D02*
X115265000Y-133985000D01*
X113665000Y-128270000D02*
X113665000Y-132385000D01*
%TO.N,/LED3*%
X124790000Y-128270000D02*
X130505000Y-133985000D01*
X116205000Y-128270000D02*
X124790000Y-128270000D01*
%TO.N,/ROT2*%
X85598000Y-144272000D02*
X83820000Y-146050000D01*
X100965000Y-129667000D02*
X99742610Y-130889390D01*
X100965000Y-128270000D02*
X100965000Y-129667000D01*
X85598000Y-137414000D02*
X85598000Y-144272000D01*
X99742610Y-130889390D02*
X92122610Y-130889390D01*
X92122610Y-130889390D02*
X85598000Y-137414000D01*
%TO.N,/ROT8*%
X82321400Y-146735800D02*
X82321400Y-142468600D01*
X83210400Y-147624800D02*
X82321400Y-146735800D01*
X84429600Y-147624800D02*
X83210400Y-147624800D01*
X106045000Y-129794000D02*
X104013000Y-131826000D01*
X82321400Y-142468600D02*
X83820000Y-140970000D01*
X106045000Y-128270000D02*
X106045000Y-129794000D01*
X104013000Y-131826000D02*
X93218000Y-131826000D01*
X93218000Y-131826000D02*
X86614000Y-138430000D01*
X86614000Y-145440400D02*
X84429600Y-147624800D01*
X86614000Y-138430000D02*
X86614000Y-145440400D01*
%TO.N,/ROT4*%
X105410000Y-133858000D02*
X105410000Y-133858000D01*
X106400600Y-146558000D02*
X106400600Y-134848600D01*
X106400600Y-134848600D02*
X105410000Y-133858000D01*
X76200000Y-146050000D02*
X78740000Y-148590000D01*
X104368600Y-148590000D02*
X106400600Y-146558000D01*
X78740000Y-148590000D02*
X104368600Y-148590000D01*
%TO.N,/ROT1*%
X77546200Y-140970000D02*
X89484200Y-129032000D01*
X96977200Y-126822200D02*
X98298000Y-128143000D01*
X89484200Y-129032000D02*
X89484200Y-127736600D01*
X76200000Y-140970000D02*
X77546200Y-140970000D01*
X89484200Y-127736600D02*
X90398600Y-126822200D01*
X98298000Y-128143000D02*
X98425000Y-128270000D01*
X90398600Y-126822200D02*
X96977200Y-126822200D01*
%TO.N,/SW1*%
X97640000Y-141550000D02*
X104140000Y-141550000D01*
X97640000Y-141550000D02*
X97640000Y-138026000D01*
X97640000Y-138026000D02*
X93599000Y-133985000D01*
X93599000Y-133985000D02*
X93472000Y-133858000D01*
%TO.N,/SW2*%
X112880000Y-141550000D02*
X119380000Y-141550000D01*
X90195400Y-126034800D02*
X88265000Y-127965200D01*
X105867200Y-126034800D02*
X90195400Y-126034800D01*
X110490000Y-126746000D02*
X109829600Y-127406400D01*
X109829600Y-129184400D02*
X109093000Y-129921000D01*
X112880000Y-141550000D02*
X112395000Y-141065000D01*
X112395000Y-141065000D02*
X112395000Y-127381000D01*
X112395000Y-127381000D02*
X111760000Y-126746000D01*
X107264200Y-129235200D02*
X107264200Y-127431800D01*
X88265000Y-127965200D02*
X88265000Y-128270000D01*
X109829600Y-127406400D02*
X109829600Y-129184400D01*
X111760000Y-126746000D02*
X110490000Y-126746000D01*
X109093000Y-129921000D02*
X107950000Y-129921000D01*
X107950000Y-129921000D02*
X107264200Y-129235200D01*
X107264200Y-127431800D02*
X105867200Y-126034800D01*
%TO.N,/SW3*%
X128120000Y-141550000D02*
X134620000Y-141550000D01*
X108585000Y-127381000D02*
X109982000Y-125984000D01*
X108585000Y-128270000D02*
X108585000Y-127381000D01*
X127326000Y-141550000D02*
X128120000Y-141550000D01*
X109982000Y-125984000D02*
X113792000Y-125984000D01*
X114909600Y-129133600D02*
X127326000Y-141550000D01*
X113792000Y-125984000D02*
X114909600Y-127101600D01*
X114909600Y-127101600D02*
X114909600Y-129133600D01*
%TO.N,/D13*%
X111277400Y-114325400D02*
X120142000Y-123190000D01*
X108585000Y-113030000D02*
X109880400Y-114325400D01*
X120142000Y-123190000D02*
X144780000Y-123190000D01*
X109880400Y-114325400D02*
X111277400Y-114325400D01*
%TO.N,/D12*%
X111125000Y-113030000D02*
X118745000Y-120650000D01*
X118745000Y-120650000D02*
X144780000Y-120650000D01*
%TO.N,/D11*%
X113665000Y-113030000D02*
X119253000Y-118618000D01*
X144272000Y-118618000D02*
X144780000Y-118110000D01*
X119253000Y-118618000D02*
X144272000Y-118618000D01*
%TO.N,/A5*%
X111277400Y-123977400D02*
X101600000Y-114300000D01*
X138836400Y-123977400D02*
X111277400Y-123977400D01*
X98425000Y-114300000D02*
X97155000Y-115570000D01*
X142087600Y-127228600D02*
X138836400Y-123977400D01*
X145542000Y-115570000D02*
X146431000Y-116459000D01*
X144780000Y-115570000D02*
X145542000Y-115570000D01*
X101600000Y-114300000D02*
X98425000Y-114300000D01*
X146431000Y-116459000D02*
X146431000Y-126314200D01*
X146431000Y-126314200D02*
X145516600Y-127228600D01*
X145516600Y-127228600D02*
X142087600Y-127228600D01*
%TO.N,/A4*%
X100428146Y-116303146D02*
X99695000Y-115570000D01*
X109267609Y-125142609D02*
X100428146Y-116303146D01*
X147116800Y-115366800D02*
X147116800Y-126695200D01*
X144780000Y-113030000D02*
X147116800Y-115366800D01*
X147116800Y-126695200D02*
X145948400Y-127863600D01*
X145948400Y-127863600D02*
X141071600Y-127863600D01*
X138350609Y-125142609D02*
X109267609Y-125142609D01*
X141071600Y-127863600D02*
X138350609Y-125142609D01*
%TO.N,Net-(C1-Pad2)*%
X70815000Y-125730000D02*
X70815000Y-128270000D01*
X64050000Y-127580000D02*
X66874000Y-127580000D01*
X67564000Y-128270000D02*
X70815000Y-128270000D01*
X66874000Y-127580000D02*
X67564000Y-128270000D01*
X70815000Y-128270000D02*
X70815000Y-129489000D01*
X72390000Y-131064000D02*
X72390000Y-133350000D01*
X70815000Y-129489000D02*
X72390000Y-131064000D01*
%TO.N,Net-(J3-Pad3)*%
X71105000Y-110780000D02*
X74625000Y-114300000D01*
X64810000Y-110780000D02*
X71105000Y-110780000D01*
%TO.N,Net-(J3-Pad2)*%
X69835000Y-113320000D02*
X74625000Y-118110000D01*
X64810000Y-113320000D02*
X69835000Y-113320000D01*
%TO.N,Net-(J3-Pad1)*%
X80899000Y-109474000D02*
X85725000Y-114300000D01*
X63715000Y-115860000D02*
X62738000Y-114883000D01*
X64810000Y-115860000D02*
X63715000Y-115860000D01*
X62738000Y-114883000D02*
X62738000Y-110721067D01*
X63985067Y-109474000D02*
X80899000Y-109474000D01*
X62738000Y-110721067D02*
X63985067Y-109474000D01*
%TO.N,Net-(R4-Pad1)*%
X76200000Y-114300000D02*
X77724000Y-114300000D01*
X82804000Y-119380000D02*
X85725000Y-119380000D01*
X77724000Y-114300000D02*
X82804000Y-119380000D01*
%TO.N,Net-(R5-Pad1)*%
X86868000Y-120650000D02*
X78740000Y-120650000D01*
X87376000Y-120142000D02*
X86868000Y-120650000D01*
X78740000Y-120650000D02*
X76200000Y-118110000D01*
X85725000Y-116840000D02*
X87376000Y-118491000D01*
X87376000Y-118491000D02*
X87376000Y-120142000D01*
%TO.N,Net-(R10-Pad2)*%
X122072400Y-100584000D02*
X117576600Y-105079800D01*
X125730000Y-97025000D02*
X125730000Y-95758000D01*
X122783600Y-95504000D02*
X122072400Y-96215200D01*
X125476000Y-95504000D02*
X122783600Y-95504000D01*
X125730000Y-95758000D02*
X125476000Y-95504000D01*
X122072400Y-96215200D02*
X122072400Y-100584000D01*
%TO.N,/REMOTE*%
X77470000Y-123190000D02*
X72390000Y-128270000D01*
X87776921Y-123190000D02*
X77470000Y-123190000D01*
X97155917Y-113811004D02*
X87776921Y-123190000D01*
X98679000Y-110871000D02*
X97155917Y-112394083D01*
X114401600Y-111252000D02*
X108432600Y-111252000D01*
X108432600Y-111252000D02*
X107340400Y-112344200D01*
X105410000Y-114427000D02*
X104749600Y-113766600D01*
X97155917Y-112394083D02*
X97155917Y-113811004D01*
X116205000Y-113030000D02*
X116179600Y-113030000D01*
X106680000Y-114427000D02*
X105410000Y-114427000D01*
X107340400Y-112344200D02*
X107340400Y-113766600D01*
X116179600Y-113030000D02*
X114401600Y-111252000D01*
X104749600Y-112471200D02*
X103149400Y-110871000D01*
X104749600Y-113766600D02*
X104749600Y-112471200D01*
X107340400Y-113766600D02*
X106680000Y-114427000D01*
X103149400Y-110871000D02*
X98679000Y-110871000D01*
D38*
%TO.N,Net-(J4-Pad2)*%
X133350000Y-85090000D02*
X133350000Y-87630000D01*
X128905000Y-92075000D02*
X126365000Y-92075000D01*
D31*
X130937000Y-90297000D02*
X130683000Y-90297000D01*
D38*
X133350000Y-87630000D02*
X130683000Y-90297000D01*
D30*
X134188000Y-95301000D02*
X133477000Y-96012000D01*
X135255000Y-92100500D02*
X135407500Y-91948000D01*
X129540000Y-92075000D02*
X128905000Y-92075000D01*
D33*
X135407500Y-91948000D02*
X135407500Y-93319500D01*
X135407500Y-93319500D02*
X134874000Y-93853000D01*
X132461000Y-93853000D02*
X129794000Y-91186000D01*
D38*
X130683000Y-90297000D02*
X129794000Y-91186000D01*
X129794000Y-91186000D02*
X128905000Y-92075000D01*
D33*
X133477000Y-93980000D02*
X133350000Y-93853000D01*
X133477000Y-96012000D02*
X133477000Y-93980000D01*
X134874000Y-93853000D02*
X133350000Y-93853000D01*
X133350000Y-93853000D02*
X132461000Y-93853000D01*
D35*
%TO.N,/+24V*%
X118745000Y-96520000D02*
X118745000Y-96647000D01*
X87172800Y-88188800D02*
X76581000Y-88188800D01*
X100812600Y-101828600D02*
X87172800Y-88188800D01*
X76581000Y-88188800D02*
X76530200Y-88239600D01*
X119126000Y-95504000D02*
X112801400Y-101828600D01*
X112801400Y-101828600D02*
X100812600Y-101828600D01*
X75565000Y-93929200D02*
X75565000Y-100965000D01*
X76530200Y-88239600D02*
X76530200Y-92964000D01*
X76530200Y-92964000D02*
X75565000Y-93929200D01*
D33*
X133832500Y-91084500D02*
X133832500Y-91948000D01*
X136398000Y-88519000D02*
X133832500Y-91084500D01*
X128270000Y-83439000D02*
X129921000Y-81788000D01*
X128270000Y-85090000D02*
X128270000Y-83439000D01*
X129921000Y-81788000D02*
X135382000Y-81788000D01*
X135382000Y-81788000D02*
X136398000Y-82804000D01*
X136398000Y-82804000D02*
X136398000Y-88519000D01*
D35*
%TO.N,/REG_5V*%
X87757000Y-100965000D02*
X88646000Y-100076000D01*
X85980000Y-101218000D02*
X86233000Y-100965000D01*
X85980000Y-104775000D02*
X85980000Y-101218000D01*
X80645000Y-100965000D02*
X86233000Y-100965000D01*
X86233000Y-100965000D02*
X87757000Y-100965000D01*
%TD*%
M02*
