%TF.GenerationSoftware,KiCad,Pcbnew,(5.1.6)-1*%
%TF.CreationDate,2020-09-05T08:23:18-07:00*%
%TF.ProjectId,pulser,70756c73-6572-42e6-9b69-6361645f7063,rev?*%
%TF.SameCoordinates,Original*%
%TF.FileFunction,Legend,Top*%
%TF.FilePolarity,Positive*%
%FSLAX46Y46*%
G04 Gerber Fmt 4.6, Leading zero omitted, Abs format (unit mm)*
G04 Created by KiCad (PCBNEW (5.1.6)-1) date 2020-09-05 08:23:18*
%MOMM*%
%LPD*%
G01*
G04 APERTURE LIST*
%ADD10C,0.150000*%
%ADD11C,0.254000*%
%ADD12C,0.120000*%
G04 APERTURE END LIST*
D10*
X63931895Y-92616400D02*
X63836657Y-92568780D01*
X63693800Y-92568780D01*
X63550942Y-92616400D01*
X63455704Y-92711638D01*
X63408085Y-92806876D01*
X63360466Y-92997352D01*
X63360466Y-93140209D01*
X63408085Y-93330685D01*
X63455704Y-93425923D01*
X63550942Y-93521161D01*
X63693800Y-93568780D01*
X63789038Y-93568780D01*
X63931895Y-93521161D01*
X63979514Y-93473542D01*
X63979514Y-93140209D01*
X63789038Y-93140209D01*
X64408085Y-93568780D02*
X64408085Y-92568780D01*
X64979514Y-93568780D01*
X64979514Y-92568780D01*
X65455704Y-93568780D02*
X65455704Y-92568780D01*
X65693800Y-92568780D01*
X65836657Y-92616400D01*
X65931895Y-92711638D01*
X65979514Y-92806876D01*
X66027133Y-92997352D01*
X66027133Y-93140209D01*
X65979514Y-93330685D01*
X65931895Y-93425923D01*
X65836657Y-93521161D01*
X65693800Y-93568780D01*
X65455704Y-93568780D01*
X124311400Y-120518180D02*
X124311400Y-119518180D01*
X124692352Y-119518180D01*
X124787590Y-119565800D01*
X124835209Y-119613419D01*
X124882828Y-119708657D01*
X124882828Y-119851514D01*
X124835209Y-119946752D01*
X124787590Y-119994371D01*
X124692352Y-120041990D01*
X124311400Y-120041990D01*
X125311400Y-119518180D02*
X125311400Y-120327704D01*
X125359019Y-120422942D01*
X125406638Y-120470561D01*
X125501876Y-120518180D01*
X125692352Y-120518180D01*
X125787590Y-120470561D01*
X125835209Y-120422942D01*
X125882828Y-120327704D01*
X125882828Y-119518180D01*
X126835209Y-120518180D02*
X126359019Y-120518180D01*
X126359019Y-119518180D01*
X127120923Y-120470561D02*
X127263780Y-120518180D01*
X127501876Y-120518180D01*
X127597114Y-120470561D01*
X127644733Y-120422942D01*
X127692352Y-120327704D01*
X127692352Y-120232466D01*
X127644733Y-120137228D01*
X127597114Y-120089609D01*
X127501876Y-120041990D01*
X127311400Y-119994371D01*
X127216161Y-119946752D01*
X127168542Y-119899133D01*
X127120923Y-119803895D01*
X127120923Y-119708657D01*
X127168542Y-119613419D01*
X127216161Y-119565800D01*
X127311400Y-119518180D01*
X127549495Y-119518180D01*
X127692352Y-119565800D01*
X128120923Y-119994371D02*
X128454257Y-119994371D01*
X128597114Y-120518180D02*
X128120923Y-120518180D01*
X128120923Y-119518180D01*
X128597114Y-119518180D01*
X129597114Y-120518180D02*
X129263780Y-120041990D01*
X129025685Y-120518180D02*
X129025685Y-119518180D01*
X129406638Y-119518180D01*
X129501876Y-119565800D01*
X129549495Y-119613419D01*
X129597114Y-119708657D01*
X129597114Y-119851514D01*
X129549495Y-119946752D01*
X129501876Y-119994371D01*
X129406638Y-120041990D01*
X129025685Y-120041990D01*
X131406638Y-119518180D02*
X131739971Y-120518180D01*
X132073304Y-119518180D01*
X132930447Y-120518180D02*
X132359019Y-120518180D01*
X132644733Y-120518180D02*
X132644733Y-119518180D01*
X132549495Y-119661038D01*
X132454257Y-119756276D01*
X132359019Y-119803895D01*
X133359019Y-120422942D02*
X133406638Y-120470561D01*
X133359019Y-120518180D01*
X133311400Y-120470561D01*
X133359019Y-120422942D01*
X133359019Y-120518180D01*
X134025685Y-119518180D02*
X134120923Y-119518180D01*
X134216161Y-119565800D01*
X134263780Y-119613419D01*
X134311400Y-119708657D01*
X134359019Y-119899133D01*
X134359019Y-120137228D01*
X134311400Y-120327704D01*
X134263780Y-120422942D01*
X134216161Y-120470561D01*
X134120923Y-120518180D01*
X134025685Y-120518180D01*
X133930447Y-120470561D01*
X133882828Y-120422942D01*
X133835209Y-120327704D01*
X133787590Y-120137228D01*
X133787590Y-119899133D01*
X133835209Y-119708657D01*
X133882828Y-119613419D01*
X133930447Y-119565800D01*
X134025685Y-119518180D01*
X141584800Y-129468571D02*
X141918133Y-129468571D01*
X142060990Y-129992380D02*
X141584800Y-129992380D01*
X141584800Y-128992380D01*
X142060990Y-128992380D01*
X142394323Y-128992380D02*
X143060990Y-129992380D01*
X143060990Y-128992380D02*
X142394323Y-129992380D01*
X143299085Y-128992380D02*
X143870514Y-128992380D01*
X143584800Y-129992380D02*
X143584800Y-128992380D01*
X144203847Y-129468571D02*
X144537180Y-129468571D01*
X144680038Y-129992380D02*
X144203847Y-129992380D01*
X144203847Y-128992380D01*
X144680038Y-128992380D01*
X145108609Y-129992380D02*
X145108609Y-128992380D01*
X145680038Y-129992380D01*
X145680038Y-128992380D01*
X146156228Y-129992380D02*
X146156228Y-128992380D01*
X146394323Y-128992380D01*
X146537180Y-129040000D01*
X146632419Y-129135238D01*
X146680038Y-129230476D01*
X146727657Y-129420952D01*
X146727657Y-129563809D01*
X146680038Y-129754285D01*
X146632419Y-129849523D01*
X146537180Y-129944761D01*
X146394323Y-129992380D01*
X146156228Y-129992380D01*
X147156228Y-129468571D02*
X147489561Y-129468571D01*
X147632419Y-129992380D02*
X147156228Y-129992380D01*
X147156228Y-128992380D01*
X147632419Y-128992380D01*
X148632419Y-129992380D02*
X148299085Y-129516190D01*
X148060990Y-129992380D02*
X148060990Y-128992380D01*
X148441942Y-128992380D01*
X148537180Y-129040000D01*
X148584800Y-129087619D01*
X148632419Y-129182857D01*
X148632419Y-129325714D01*
X148584800Y-129420952D01*
X148537180Y-129468571D01*
X148441942Y-129516190D01*
X148060990Y-129516190D01*
D11*
X128898952Y-136869714D02*
X128802190Y-136966476D01*
X128511904Y-137063238D01*
X128318380Y-137063238D01*
X128028095Y-136966476D01*
X127834571Y-136772952D01*
X127737809Y-136579428D01*
X127641047Y-136192380D01*
X127641047Y-135902095D01*
X127737809Y-135515047D01*
X127834571Y-135321523D01*
X128028095Y-135128000D01*
X128318380Y-135031238D01*
X128511904Y-135031238D01*
X128802190Y-135128000D01*
X128898952Y-135224761D01*
X113048142Y-135871857D02*
X113338428Y-135968619D01*
X113435190Y-136065380D01*
X113531952Y-136258904D01*
X113531952Y-136549190D01*
X113435190Y-136742714D01*
X113338428Y-136839476D01*
X113144904Y-136936238D01*
X112370809Y-136936238D01*
X112370809Y-134904238D01*
X113048142Y-134904238D01*
X113241666Y-135001000D01*
X113338428Y-135097761D01*
X113435190Y-135291285D01*
X113435190Y-135484809D01*
X113338428Y-135678333D01*
X113241666Y-135775095D01*
X113048142Y-135871857D01*
X112370809Y-135871857D01*
X97306190Y-136355666D02*
X98273809Y-136355666D01*
X97112666Y-136936238D02*
X97790000Y-134904238D01*
X98467333Y-136936238D01*
D10*
X76814800Y-136751961D02*
X76957657Y-136799580D01*
X77195752Y-136799580D01*
X77290990Y-136751961D01*
X77338609Y-136704342D01*
X77386228Y-136609104D01*
X77386228Y-136513866D01*
X77338609Y-136418628D01*
X77290990Y-136371009D01*
X77195752Y-136323390D01*
X77005276Y-136275771D01*
X76910038Y-136228152D01*
X76862419Y-136180533D01*
X76814800Y-136085295D01*
X76814800Y-135990057D01*
X76862419Y-135894819D01*
X76910038Y-135847200D01*
X77005276Y-135799580D01*
X77243371Y-135799580D01*
X77386228Y-135847200D01*
X77814800Y-136275771D02*
X78148133Y-136275771D01*
X78290990Y-136799580D02*
X77814800Y-136799580D01*
X77814800Y-135799580D01*
X78290990Y-135799580D01*
X79195752Y-136799580D02*
X78719561Y-136799580D01*
X78719561Y-135799580D01*
X79529085Y-136275771D02*
X79862419Y-136275771D01*
X80005276Y-136799580D02*
X79529085Y-136799580D01*
X79529085Y-135799580D01*
X80005276Y-135799580D01*
X81005276Y-136704342D02*
X80957657Y-136751961D01*
X80814800Y-136799580D01*
X80719561Y-136799580D01*
X80576704Y-136751961D01*
X80481466Y-136656723D01*
X80433847Y-136561485D01*
X80386228Y-136371009D01*
X80386228Y-136228152D01*
X80433847Y-136037676D01*
X80481466Y-135942438D01*
X80576704Y-135847200D01*
X80719561Y-135799580D01*
X80814800Y-135799580D01*
X80957657Y-135847200D01*
X81005276Y-135894819D01*
X81290990Y-135799580D02*
X81862419Y-135799580D01*
X81576704Y-136799580D02*
X81576704Y-135799580D01*
X82386228Y-135799580D02*
X82576704Y-135799580D01*
X82671942Y-135847200D01*
X82767180Y-135942438D01*
X82814800Y-136132914D01*
X82814800Y-136466247D01*
X82767180Y-136656723D01*
X82671942Y-136751961D01*
X82576704Y-136799580D01*
X82386228Y-136799580D01*
X82290990Y-136751961D01*
X82195752Y-136656723D01*
X82148133Y-136466247D01*
X82148133Y-136132914D01*
X82195752Y-135942438D01*
X82290990Y-135847200D01*
X82386228Y-135799580D01*
X83814800Y-136799580D02*
X83481466Y-136323390D01*
X83243371Y-136799580D02*
X83243371Y-135799580D01*
X83624323Y-135799580D01*
X83719561Y-135847200D01*
X83767180Y-135894819D01*
X83814800Y-135990057D01*
X83814800Y-136132914D01*
X83767180Y-136228152D01*
X83719561Y-136275771D01*
X83624323Y-136323390D01*
X83243371Y-136323390D01*
X62139771Y-136977380D02*
X61806438Y-136501190D01*
X61568342Y-136977380D02*
X61568342Y-135977380D01*
X61949295Y-135977380D01*
X62044533Y-136025000D01*
X62092152Y-136072619D01*
X62139771Y-136167857D01*
X62139771Y-136310714D01*
X62092152Y-136405952D01*
X62044533Y-136453571D01*
X61949295Y-136501190D01*
X61568342Y-136501190D01*
X62568342Y-136453571D02*
X62901676Y-136453571D01*
X63044533Y-136977380D02*
X62568342Y-136977380D01*
X62568342Y-135977380D01*
X63044533Y-135977380D01*
X63473104Y-136977380D02*
X63473104Y-135977380D01*
X63806438Y-136691666D01*
X64139771Y-135977380D01*
X64139771Y-136977380D01*
X64806438Y-135977380D02*
X64996914Y-135977380D01*
X65092152Y-136025000D01*
X65187390Y-136120238D01*
X65235009Y-136310714D01*
X65235009Y-136644047D01*
X65187390Y-136834523D01*
X65092152Y-136929761D01*
X64996914Y-136977380D01*
X64806438Y-136977380D01*
X64711200Y-136929761D01*
X64615961Y-136834523D01*
X64568342Y-136644047D01*
X64568342Y-136310714D01*
X64615961Y-136120238D01*
X64711200Y-136025000D01*
X64806438Y-135977380D01*
X65520723Y-135977380D02*
X66092152Y-135977380D01*
X65806438Y-136977380D02*
X65806438Y-135977380D01*
X66425485Y-136453571D02*
X66758819Y-136453571D01*
X66901676Y-136977380D02*
X66425485Y-136977380D01*
X66425485Y-135977380D01*
X66901676Y-135977380D01*
X62857285Y-121635780D02*
X62857285Y-120635780D01*
X63238238Y-120635780D01*
X63333476Y-120683400D01*
X63381095Y-120731019D01*
X63428714Y-120826257D01*
X63428714Y-120969114D01*
X63381095Y-121064352D01*
X63333476Y-121111971D01*
X63238238Y-121159590D01*
X62857285Y-121159590D01*
X64428714Y-121635780D02*
X64095380Y-121159590D01*
X63857285Y-121635780D02*
X63857285Y-120635780D01*
X64238238Y-120635780D01*
X64333476Y-120683400D01*
X64381095Y-120731019D01*
X64428714Y-120826257D01*
X64428714Y-120969114D01*
X64381095Y-121064352D01*
X64333476Y-121111971D01*
X64238238Y-121159590D01*
X63857285Y-121159590D01*
X65047761Y-120635780D02*
X65238238Y-120635780D01*
X65333476Y-120683400D01*
X65428714Y-120778638D01*
X65476333Y-120969114D01*
X65476333Y-121302447D01*
X65428714Y-121492923D01*
X65333476Y-121588161D01*
X65238238Y-121635780D01*
X65047761Y-121635780D01*
X64952523Y-121588161D01*
X64857285Y-121492923D01*
X64809666Y-121302447D01*
X64809666Y-120969114D01*
X64857285Y-120778638D01*
X64952523Y-120683400D01*
X65047761Y-120635780D01*
X66428714Y-120683400D02*
X66333476Y-120635780D01*
X66190619Y-120635780D01*
X66047761Y-120683400D01*
X65952523Y-120778638D01*
X65904904Y-120873876D01*
X65857285Y-121064352D01*
X65857285Y-121207209D01*
X65904904Y-121397685D01*
X65952523Y-121492923D01*
X66047761Y-121588161D01*
X66190619Y-121635780D01*
X66285857Y-121635780D01*
X66428714Y-121588161D01*
X66476333Y-121540542D01*
X66476333Y-121207209D01*
X66285857Y-121207209D01*
X95635038Y-120994466D02*
X96111228Y-120994466D01*
X95539800Y-121280180D02*
X95873133Y-120280180D01*
X96206466Y-121280180D01*
X97111228Y-121280180D02*
X96777895Y-120803990D01*
X96539800Y-121280180D02*
X96539800Y-120280180D01*
X96920752Y-120280180D01*
X97015990Y-120327800D01*
X97063609Y-120375419D01*
X97111228Y-120470657D01*
X97111228Y-120613514D01*
X97063609Y-120708752D01*
X97015990Y-120756371D01*
X96920752Y-120803990D01*
X96539800Y-120803990D01*
X97539800Y-121280180D02*
X97539800Y-120280180D01*
X97777895Y-120280180D01*
X97920752Y-120327800D01*
X98015990Y-120423038D01*
X98063609Y-120518276D01*
X98111228Y-120708752D01*
X98111228Y-120851609D01*
X98063609Y-121042085D01*
X98015990Y-121137323D01*
X97920752Y-121232561D01*
X97777895Y-121280180D01*
X97539800Y-121280180D01*
X98539800Y-120280180D02*
X98539800Y-121089704D01*
X98587419Y-121184942D01*
X98635038Y-121232561D01*
X98730276Y-121280180D01*
X98920752Y-121280180D01*
X99015990Y-121232561D01*
X99063609Y-121184942D01*
X99111228Y-121089704D01*
X99111228Y-120280180D01*
X99587419Y-121280180D02*
X99587419Y-120280180D01*
X100063609Y-121280180D02*
X100063609Y-120280180D01*
X100635038Y-121280180D01*
X100635038Y-120280180D01*
X101301704Y-120280180D02*
X101492180Y-120280180D01*
X101587419Y-120327800D01*
X101682657Y-120423038D01*
X101730276Y-120613514D01*
X101730276Y-120946847D01*
X101682657Y-121137323D01*
X101587419Y-121232561D01*
X101492180Y-121280180D01*
X101301704Y-121280180D01*
X101206466Y-121232561D01*
X101111228Y-121137323D01*
X101063609Y-120946847D01*
X101063609Y-120613514D01*
X101111228Y-120423038D01*
X101206466Y-120327800D01*
X101301704Y-120280180D01*
X102920752Y-121280180D02*
X102920752Y-120280180D01*
X103301704Y-120280180D01*
X103396942Y-120327800D01*
X103444561Y-120375419D01*
X103492180Y-120470657D01*
X103492180Y-120613514D01*
X103444561Y-120708752D01*
X103396942Y-120756371D01*
X103301704Y-120803990D01*
X102920752Y-120803990D01*
X104492180Y-121280180D02*
X104158847Y-120803990D01*
X103920752Y-121280180D02*
X103920752Y-120280180D01*
X104301704Y-120280180D01*
X104396942Y-120327800D01*
X104444561Y-120375419D01*
X104492180Y-120470657D01*
X104492180Y-120613514D01*
X104444561Y-120708752D01*
X104396942Y-120756371D01*
X104301704Y-120803990D01*
X103920752Y-120803990D01*
X105111228Y-120280180D02*
X105301704Y-120280180D01*
X105396942Y-120327800D01*
X105492180Y-120423038D01*
X105539800Y-120613514D01*
X105539800Y-120946847D01*
X105492180Y-121137323D01*
X105396942Y-121232561D01*
X105301704Y-121280180D01*
X105111228Y-121280180D01*
X105015990Y-121232561D01*
X104920752Y-121137323D01*
X104873133Y-120946847D01*
X104873133Y-120613514D01*
X104920752Y-120423038D01*
X105015990Y-120327800D01*
X105111228Y-120280180D01*
X106730276Y-121280180D02*
X106730276Y-120280180D01*
X107063609Y-120994466D01*
X107396942Y-120280180D01*
X107396942Y-121280180D01*
X107873133Y-121280180D02*
X107873133Y-120280180D01*
X108349323Y-121280180D02*
X108349323Y-120280180D01*
X108920752Y-121280180D01*
X108920752Y-120280180D01*
X109396942Y-121280180D02*
X109396942Y-120280180D01*
X101895400Y-108440600D02*
X101800161Y-108392980D01*
X101657304Y-108392980D01*
X101514447Y-108440600D01*
X101419209Y-108535838D01*
X101371590Y-108631076D01*
X101323971Y-108821552D01*
X101323971Y-108964409D01*
X101371590Y-109154885D01*
X101419209Y-109250123D01*
X101514447Y-109345361D01*
X101657304Y-109392980D01*
X101752542Y-109392980D01*
X101895400Y-109345361D01*
X101943019Y-109297742D01*
X101943019Y-108964409D01*
X101752542Y-108964409D01*
X102323971Y-109107266D02*
X102800161Y-109107266D01*
X102228733Y-109392980D02*
X102562066Y-108392980D01*
X102895400Y-109392980D01*
X103085876Y-108392980D02*
X103657304Y-108392980D01*
X103371590Y-109392980D02*
X103371590Y-108392980D01*
X103990638Y-108869171D02*
X104323971Y-108869171D01*
X104466828Y-109392980D02*
X103990638Y-109392980D01*
X103990638Y-108392980D01*
X104466828Y-108392980D01*
X107131123Y-109269161D02*
X107273980Y-109316780D01*
X107512076Y-109316780D01*
X107607314Y-109269161D01*
X107654933Y-109221542D01*
X107702552Y-109126304D01*
X107702552Y-109031066D01*
X107654933Y-108935828D01*
X107607314Y-108888209D01*
X107512076Y-108840590D01*
X107321600Y-108792971D01*
X107226361Y-108745352D01*
X107178742Y-108697733D01*
X107131123Y-108602495D01*
X107131123Y-108507257D01*
X107178742Y-108412019D01*
X107226361Y-108364400D01*
X107321600Y-108316780D01*
X107559695Y-108316780D01*
X107702552Y-108364400D01*
X108131123Y-108792971D02*
X108464457Y-108792971D01*
X108607314Y-109316780D02*
X108131123Y-109316780D01*
X108131123Y-108316780D01*
X108607314Y-108316780D01*
X109035885Y-109316780D02*
X109035885Y-108316780D01*
X109607314Y-109316780D01*
X109607314Y-108316780D01*
X110035885Y-109269161D02*
X110178742Y-109316780D01*
X110416838Y-109316780D01*
X110512076Y-109269161D01*
X110559695Y-109221542D01*
X110607314Y-109126304D01*
X110607314Y-109031066D01*
X110559695Y-108935828D01*
X110512076Y-108888209D01*
X110416838Y-108840590D01*
X110226361Y-108792971D01*
X110131123Y-108745352D01*
X110083504Y-108697733D01*
X110035885Y-108602495D01*
X110035885Y-108507257D01*
X110083504Y-108412019D01*
X110131123Y-108364400D01*
X110226361Y-108316780D01*
X110464457Y-108316780D01*
X110607314Y-108364400D01*
X111035885Y-108792971D02*
X111369219Y-108792971D01*
X111512076Y-109316780D02*
X111035885Y-109316780D01*
X111035885Y-108316780D01*
X111512076Y-108316780D01*
X139836685Y-102204828D02*
X140598590Y-102204828D01*
X140217638Y-102585780D02*
X140217638Y-101823876D01*
X141550971Y-101585780D02*
X141074780Y-101585780D01*
X141027161Y-102061971D01*
X141074780Y-102014352D01*
X141170019Y-101966733D01*
X141408114Y-101966733D01*
X141503352Y-102014352D01*
X141550971Y-102061971D01*
X141598590Y-102157209D01*
X141598590Y-102395304D01*
X141550971Y-102490542D01*
X141503352Y-102538161D01*
X141408114Y-102585780D01*
X141170019Y-102585780D01*
X141074780Y-102538161D01*
X141027161Y-102490542D01*
X141884304Y-101585780D02*
X142217638Y-102585780D01*
X142550971Y-101585780D01*
X133340600Y-100061780D02*
X133531076Y-100061780D01*
X133626314Y-100109400D01*
X133721552Y-100204638D01*
X133769171Y-100395114D01*
X133769171Y-100728447D01*
X133721552Y-100918923D01*
X133626314Y-101014161D01*
X133531076Y-101061780D01*
X133340600Y-101061780D01*
X133245361Y-101014161D01*
X133150123Y-100918923D01*
X133102504Y-100728447D01*
X133102504Y-100395114D01*
X133150123Y-100204638D01*
X133245361Y-100109400D01*
X133340600Y-100061780D01*
X134197742Y-100061780D02*
X134197742Y-100871304D01*
X134245361Y-100966542D01*
X134292980Y-101014161D01*
X134388219Y-101061780D01*
X134578695Y-101061780D01*
X134673933Y-101014161D01*
X134721552Y-100966542D01*
X134769171Y-100871304D01*
X134769171Y-100061780D01*
X135102504Y-100061780D02*
X135673933Y-100061780D01*
X135388219Y-101061780D02*
X135388219Y-100061780D01*
X137399780Y-86402561D02*
X137399780Y-86212085D01*
X137447400Y-86116847D01*
X137542638Y-86021609D01*
X137733114Y-85973990D01*
X138066447Y-85973990D01*
X138256923Y-86021609D01*
X138352161Y-86116847D01*
X138399780Y-86212085D01*
X138399780Y-86402561D01*
X138352161Y-86497800D01*
X138256923Y-86593038D01*
X138066447Y-86640657D01*
X137733114Y-86640657D01*
X137542638Y-86593038D01*
X137447400Y-86497800D01*
X137399780Y-86402561D01*
X137399780Y-85545419D02*
X138209304Y-85545419D01*
X138304542Y-85497800D01*
X138352161Y-85450180D01*
X138399780Y-85354942D01*
X138399780Y-85164466D01*
X138352161Y-85069228D01*
X138304542Y-85021609D01*
X138209304Y-84973990D01*
X137399780Y-84973990D01*
X137399780Y-84640657D02*
X137399780Y-84069228D01*
X138399780Y-84354942D02*
X137399780Y-84354942D01*
X138399780Y-83735895D02*
X137399780Y-83735895D01*
X137399780Y-83354942D01*
X137447400Y-83259704D01*
X137495019Y-83212085D01*
X137590257Y-83164466D01*
X137733114Y-83164466D01*
X137828352Y-83212085D01*
X137875971Y-83259704D01*
X137923590Y-83354942D01*
X137923590Y-83735895D01*
X137399780Y-82735895D02*
X138209304Y-82735895D01*
X138304542Y-82688276D01*
X138352161Y-82640657D01*
X138399780Y-82545419D01*
X138399780Y-82354942D01*
X138352161Y-82259704D01*
X138304542Y-82212085D01*
X138209304Y-82164466D01*
X137399780Y-82164466D01*
X137399780Y-81831133D02*
X137399780Y-81259704D01*
X138399780Y-81545419D02*
X137399780Y-81545419D01*
X115523971Y-83830942D02*
X115571590Y-83688085D01*
X115619209Y-83640466D01*
X115714447Y-83592847D01*
X115857304Y-83592847D01*
X115952542Y-83640466D01*
X116000161Y-83688085D01*
X116047780Y-83783323D01*
X116047780Y-84164276D01*
X115047780Y-84164276D01*
X115047780Y-83830942D01*
X115095400Y-83735704D01*
X115143019Y-83688085D01*
X115238257Y-83640466D01*
X115333495Y-83640466D01*
X115428733Y-83688085D01*
X115476352Y-83735704D01*
X115523971Y-83830942D01*
X115523971Y-84164276D01*
X115762066Y-83211895D02*
X115762066Y-82735704D01*
X116047780Y-83307133D02*
X115047780Y-82973800D01*
X116047780Y-82640466D01*
X115047780Y-82449990D02*
X115047780Y-81878561D01*
X116047780Y-82164276D02*
X115047780Y-82164276D01*
X115666828Y-81545228D02*
X115666828Y-80783323D01*
X102569971Y-83729342D02*
X102617590Y-83586485D01*
X102665209Y-83538866D01*
X102760447Y-83491247D01*
X102903304Y-83491247D01*
X102998542Y-83538866D01*
X103046161Y-83586485D01*
X103093780Y-83681723D01*
X103093780Y-84062676D01*
X102093780Y-84062676D01*
X102093780Y-83729342D01*
X102141400Y-83634104D01*
X102189019Y-83586485D01*
X102284257Y-83538866D01*
X102379495Y-83538866D01*
X102474733Y-83586485D01*
X102522352Y-83634104D01*
X102569971Y-83729342D01*
X102569971Y-84062676D01*
X102808066Y-83110295D02*
X102808066Y-82634104D01*
X103093780Y-83205533D02*
X102093780Y-82872200D01*
X103093780Y-82538866D01*
X102093780Y-82348390D02*
X102093780Y-81776961D01*
X103093780Y-82062676D02*
X102093780Y-82062676D01*
X102712828Y-81443628D02*
X102712828Y-80681723D01*
X103093780Y-81062676D02*
X102331876Y-81062676D01*
X89765476Y-82621380D02*
X89765476Y-81621380D01*
X90146428Y-81621380D01*
X90241666Y-81669000D01*
X90289285Y-81716619D01*
X90336904Y-81811857D01*
X90336904Y-81954714D01*
X90289285Y-82049952D01*
X90241666Y-82097571D01*
X90146428Y-82145190D01*
X89765476Y-82145190D01*
X90955952Y-81621380D02*
X91146428Y-81621380D01*
X91241666Y-81669000D01*
X91336904Y-81764238D01*
X91384523Y-81954714D01*
X91384523Y-82288047D01*
X91336904Y-82478523D01*
X91241666Y-82573761D01*
X91146428Y-82621380D01*
X90955952Y-82621380D01*
X90860714Y-82573761D01*
X90765476Y-82478523D01*
X90717857Y-82288047D01*
X90717857Y-81954714D01*
X90765476Y-81764238D01*
X90860714Y-81669000D01*
X90955952Y-81621380D01*
X91717857Y-81621380D02*
X91955952Y-82621380D01*
X92146428Y-81907095D01*
X92336904Y-82621380D01*
X92575000Y-81621380D01*
X92955952Y-82097571D02*
X93289285Y-82097571D01*
X93432142Y-82621380D02*
X92955952Y-82621380D01*
X92955952Y-81621380D01*
X93432142Y-81621380D01*
X94432142Y-82621380D02*
X94098809Y-82145190D01*
X93860714Y-82621380D02*
X93860714Y-81621380D01*
X94241666Y-81621380D01*
X94336904Y-81669000D01*
X94384523Y-81716619D01*
X94432142Y-81811857D01*
X94432142Y-81954714D01*
X94384523Y-82049952D01*
X94336904Y-82097571D01*
X94241666Y-82145190D01*
X93860714Y-82145190D01*
D12*
%TO.C,F1*%
X101695000Y-89015000D02*
X101695000Y-92215000D01*
X97695000Y-92215000D02*
X97695000Y-89015000D01*
X99695000Y-89865000D02*
X99695000Y-91465000D01*
%TO.C,J2*%
X114300000Y-87630000D02*
X104140000Y-87630000D01*
X114300000Y-87630000D02*
X114300000Y-82550000D01*
X114300000Y-82550000D02*
X104140000Y-82550000D01*
X104140000Y-82550000D02*
X104140000Y-87630000D01*
%TO.C,J4*%
X125730000Y-82550000D02*
X125730000Y-87630000D01*
X135890000Y-87630000D02*
X135890000Y-82550000D01*
X135890000Y-87630000D02*
X125730000Y-87630000D01*
X135890000Y-82550000D02*
X125730000Y-82550000D01*
%TO.C,R11*%
X134782779Y-92458000D02*
X134457221Y-92458000D01*
X134782779Y-91438000D02*
X134457221Y-91438000D01*
%TO.C,C3*%
X88401000Y-102240775D02*
X88901000Y-102240775D01*
X88651000Y-102490775D02*
X88651000Y-101990775D01*
X91266000Y-99076000D02*
G75*
G03*
X91266000Y-99076000I-2620000J0D01*
G01*
%TO.C,C2*%
X79400200Y-88239600D02*
G75*
G03*
X79400200Y-88239600I-4120000J0D01*
G01*
X80590200Y-88229600D02*
X79790200Y-88229600D01*
X80200200Y-88609600D02*
X80200200Y-87809600D01*
%TO.C,U2*%
X117475000Y-129540000D02*
X117475000Y-111760000D01*
X84455000Y-129540000D02*
X117475000Y-129540000D01*
X84455000Y-111760000D02*
X84455000Y-129540000D01*
X117475000Y-127000000D02*
X117475000Y-129670000D01*
X117475000Y-111760000D02*
X84455000Y-111760000D01*
%TO.C,U1*%
X84455000Y-94615000D02*
X71755000Y-94615000D01*
X84455000Y-103505000D02*
X84455000Y-94615000D01*
X71755000Y-103505000D02*
X84455000Y-103505000D01*
X71755000Y-94615000D02*
X71755000Y-103505000D01*
%TO.C,D1*%
X117646000Y-97344000D02*
X117646000Y-98224000D01*
X117646000Y-98224000D02*
X107906000Y-98224000D01*
X107906000Y-98224000D02*
X107906000Y-97344000D01*
X117646000Y-93664000D02*
X117646000Y-92784000D01*
X117646000Y-92784000D02*
X107906000Y-92784000D01*
X107906000Y-92784000D02*
X107906000Y-93664000D01*
X116101000Y-98224000D02*
X116101000Y-92784000D01*
X115981000Y-98224000D02*
X115981000Y-92784000D01*
X116221000Y-98224000D02*
X116221000Y-92784000D01*
%TO.C,U3*%
X127655000Y-94550000D02*
X127655000Y-91100000D01*
X127655000Y-94550000D02*
X127655000Y-96500000D01*
X122535000Y-94550000D02*
X122535000Y-92600000D01*
X122535000Y-94550000D02*
X122535000Y-96500000D01*
%TO.C,J3*%
X62380000Y-102360000D02*
X61780000Y-102360000D01*
X62380000Y-103960000D02*
X62380000Y-102360000D01*
X61780000Y-103960000D02*
X62380000Y-103960000D01*
X62380000Y-104900000D02*
X61780000Y-104900000D01*
X62380000Y-106500000D02*
X62380000Y-104900000D01*
X61780000Y-106500000D02*
X62380000Y-106500000D01*
X62380000Y-107440000D02*
X61780000Y-107440000D01*
X62380000Y-109040000D02*
X62380000Y-107440000D01*
X61780000Y-109040000D02*
X62380000Y-109040000D01*
X62380000Y-109980000D02*
X61780000Y-109980000D01*
X62380000Y-111580000D02*
X62380000Y-109980000D01*
X61780000Y-111580000D02*
X62380000Y-111580000D01*
X62380000Y-112520000D02*
X61780000Y-112520000D01*
X62380000Y-114120000D02*
X62380000Y-112520000D01*
X61780000Y-114120000D02*
X62380000Y-114120000D01*
X62380000Y-115060000D02*
X61780000Y-115060000D01*
X62380000Y-116660000D02*
X62380000Y-115060000D01*
X61780000Y-116660000D02*
X62380000Y-116660000D01*
X67800000Y-103410000D02*
X66800000Y-103410000D01*
X67800000Y-115610000D02*
X66800000Y-115610000D01*
X66270000Y-103410000D02*
X66800000Y-103160000D01*
X66270000Y-115610000D02*
X66270000Y-103410000D01*
X66800000Y-115860000D02*
X66270000Y-115610000D01*
X66800000Y-103160000D02*
X67800000Y-103160000D01*
X66800000Y-115860000D02*
X66800000Y-103160000D01*
X67800000Y-115860000D02*
X66800000Y-115860000D01*
X62810000Y-117530000D02*
X66810000Y-117530000D01*
X61780000Y-101780000D02*
X61780000Y-117240000D01*
X67800000Y-101780000D02*
X61780000Y-101780000D01*
X67800000Y-117240000D02*
X67800000Y-101780000D01*
X61780000Y-117240000D02*
X67800000Y-117240000D01*
%TO.C,J1*%
X65605000Y-127580000D02*
G75*
G03*
X65605000Y-127580000I-1555000J0D01*
G01*
X66250000Y-132890000D02*
X66250000Y-125770000D01*
X61190000Y-132890000D02*
X61190000Y-125770000D01*
X67810000Y-132890000D02*
X67810000Y-125770000D01*
X61190000Y-132890000D02*
X67810000Y-132890000D01*
X61190000Y-125770000D02*
X67810000Y-125770000D01*
X63060000Y-126400000D02*
X63136000Y-126476000D01*
X65175000Y-128515000D02*
X65230000Y-128569000D01*
X62870000Y-126590000D02*
X62924000Y-126644000D01*
X64964000Y-128683000D02*
X65040000Y-128759000D01*
X66310000Y-133130000D02*
X68050000Y-133130000D01*
X68050000Y-133130000D02*
X68050000Y-131630000D01*
X65605681Y-131053556D02*
G75*
G02*
X65436000Y-131787000I-1555681J-26444D01*
G01*
X64755733Y-132466645D02*
G75*
G02*
X63343000Y-132466000I-705733J1386645D01*
G01*
X62663355Y-131785733D02*
G75*
G02*
X62664000Y-130373000I1386645J705733D01*
G01*
X63344267Y-129693355D02*
G75*
G02*
X64757000Y-129694000I705733J-1386645D01*
G01*
X65435515Y-130374045D02*
G75*
G02*
X65605000Y-131080000I-1385515J-705955D01*
G01*
%TO.C,C4*%
X125410279Y-99185000D02*
X125084721Y-99185000D01*
X125410279Y-100205000D02*
X125084721Y-100205000D01*
%TO.C,C1*%
X71439721Y-133860000D02*
X71765279Y-133860000D01*
X71439721Y-132840000D02*
X71765279Y-132840000D01*
%TO.C,J5*%
X147210000Y-126530000D02*
X147810000Y-126530000D01*
X147210000Y-124930000D02*
X147210000Y-126530000D01*
X147810000Y-124930000D02*
X147210000Y-124930000D01*
X147210000Y-123990000D02*
X147810000Y-123990000D01*
X147210000Y-122390000D02*
X147210000Y-123990000D01*
X147810000Y-122390000D02*
X147210000Y-122390000D01*
X147210000Y-121450000D02*
X147810000Y-121450000D01*
X147210000Y-119850000D02*
X147210000Y-121450000D01*
X147810000Y-119850000D02*
X147210000Y-119850000D01*
X147210000Y-118910000D02*
X147810000Y-118910000D01*
X147210000Y-117310000D02*
X147210000Y-118910000D01*
X147810000Y-117310000D02*
X147210000Y-117310000D01*
X147210000Y-116370000D02*
X147810000Y-116370000D01*
X147210000Y-114770000D02*
X147210000Y-116370000D01*
X147810000Y-114770000D02*
X147210000Y-114770000D01*
X147210000Y-113830000D02*
X147810000Y-113830000D01*
X147210000Y-112230000D02*
X147210000Y-113830000D01*
X147810000Y-112230000D02*
X147210000Y-112230000D01*
X147210000Y-111290000D02*
X147810000Y-111290000D01*
X147210000Y-109690000D02*
X147210000Y-111290000D01*
X147810000Y-109690000D02*
X147210000Y-109690000D01*
X141790000Y-125480000D02*
X142790000Y-125480000D01*
X143320000Y-120650000D02*
X142790000Y-120650000D01*
X143320000Y-125480000D02*
X143320000Y-120650000D01*
X142790000Y-125730000D02*
X143320000Y-125480000D01*
X142790000Y-120650000D02*
X141790000Y-120650000D01*
X142790000Y-125730000D02*
X142790000Y-120650000D01*
X141790000Y-125730000D02*
X142790000Y-125730000D01*
X141790000Y-110740000D02*
X142790000Y-110740000D01*
X143320000Y-115570000D02*
X142790000Y-115570000D01*
X143320000Y-110740000D02*
X143320000Y-115570000D01*
X142790000Y-110490000D02*
X143320000Y-110740000D01*
X142790000Y-115570000D02*
X141790000Y-115570000D01*
X142790000Y-110490000D02*
X142790000Y-115570000D01*
X141790000Y-110490000D02*
X142790000Y-110490000D01*
X146780000Y-108820000D02*
X142780000Y-108820000D01*
X147810000Y-127110000D02*
X147810000Y-109110000D01*
X141790000Y-127110000D02*
X147810000Y-127110000D01*
X141790000Y-109110000D02*
X141790000Y-127110000D01*
X147810000Y-109110000D02*
X141790000Y-109110000D01*
%TO.C,SW3*%
X127870000Y-143050000D02*
X127870000Y-144550000D01*
X129120000Y-147050000D02*
X133620000Y-147050000D01*
X134870000Y-144550000D02*
X134870000Y-143050000D01*
X133620000Y-140550000D02*
X129120000Y-140550000D01*
%TO.C,SW2*%
X112630000Y-143050000D02*
X112630000Y-144550000D01*
X113880000Y-147050000D02*
X118380000Y-147050000D01*
X119630000Y-144550000D02*
X119630000Y-143050000D01*
X118380000Y-140550000D02*
X113880000Y-140550000D01*
%TO.C,SW1*%
X97390000Y-143050000D02*
X97390000Y-144550000D01*
X98640000Y-147050000D02*
X103140000Y-147050000D01*
X104390000Y-144550000D02*
X104390000Y-143050000D01*
X103140000Y-140550000D02*
X98640000Y-140550000D01*
%TO.C,SW4*%
X74930000Y-138430000D02*
X74930000Y-148590000D01*
X74930000Y-139700000D02*
X76200000Y-138430000D01*
X74930000Y-148590000D02*
X85090000Y-148590000D01*
X85090000Y-148590000D02*
X85090000Y-138430000D01*
X85090000Y-138430000D02*
X74930000Y-138430000D01*
%TO.C,R10*%
X118086600Y-106030079D02*
X118086600Y-105704521D01*
X117066600Y-106030079D02*
X117066600Y-105704521D01*
%TO.C,R9*%
X114391221Y-91442000D02*
X114716779Y-91442000D01*
X114391221Y-90422000D02*
X114716779Y-90422000D01*
%TO.C,R8*%
X91658221Y-86717600D02*
X91983779Y-86717600D01*
X91658221Y-85697600D02*
X91983779Y-85697600D01*
%TO.C,Q2*%
X117925000Y-89875000D02*
X120875000Y-89875000D01*
X119725000Y-86655000D02*
X117925000Y-86655000D01*
%TO.C,D7*%
X90336000Y-84809000D02*
X92621000Y-84809000D01*
X90336000Y-83339000D02*
X90336000Y-84809000D01*
X92621000Y-83339000D02*
X90336000Y-83339000D01*
%TO.C,TP5*%
X134747000Y-96012000D02*
G75*
G03*
X134747000Y-96012000I-1270000J0D01*
G01*
%TO.C,Q1*%
X117845000Y-85430000D02*
X120795000Y-85430000D01*
X119645000Y-82210000D02*
X117845000Y-82210000D01*
%TO.C,TP4*%
X104140000Y-106426000D02*
G75*
G03*
X104140000Y-106426000I-1270000J0D01*
G01*
%TO.C,TP2*%
X146126200Y-102031800D02*
G75*
G03*
X146126200Y-102031800I-1270000J0D01*
G01*
%TO.C,TP1*%
X66040000Y-96012000D02*
G75*
G03*
X66040000Y-96012000I-1270000J0D01*
G01*
%TO.C,R6*%
X115889721Y-133475000D02*
X116215279Y-133475000D01*
X115889721Y-134495000D02*
X116215279Y-134495000D01*
%TO.C,R4*%
X75575279Y-114810000D02*
X75249721Y-114810000D01*
X75575279Y-113790000D02*
X75249721Y-113790000D01*
%TO.C,R2*%
X71439721Y-127760000D02*
X71765279Y-127760000D01*
X71439721Y-128780000D02*
X71765279Y-128780000D01*
%TO.C,R7*%
X131129721Y-133475000D02*
X131455279Y-133475000D01*
X131129721Y-134495000D02*
X131455279Y-134495000D01*
%TO.C,R1*%
X71439721Y-125220000D02*
X71765279Y-125220000D01*
X71439721Y-126240000D02*
X71765279Y-126240000D01*
%TO.C,R5*%
X75575279Y-118620000D02*
X75249721Y-118620000D01*
X75575279Y-117600000D02*
X75249721Y-117600000D01*
%TO.C,D6*%
X132245000Y-135155000D02*
X129960000Y-135155000D01*
X129960000Y-135155000D02*
X129960000Y-136625000D01*
X129960000Y-136625000D02*
X132245000Y-136625000D01*
%TO.C,D4*%
X116852500Y-135155000D02*
X114567500Y-135155000D01*
X114567500Y-135155000D02*
X114567500Y-136625000D01*
X114567500Y-136625000D02*
X116852500Y-136625000D01*
%TO.C,D2*%
X101612500Y-135155000D02*
X99327500Y-135155000D01*
X99327500Y-135155000D02*
X99327500Y-136625000D01*
X99327500Y-136625000D02*
X101612500Y-136625000D01*
%TO.C,C5*%
X114069400Y-106004579D02*
X114069400Y-105679021D01*
X115089400Y-106004579D02*
X115089400Y-105679021D01*
%TO.C,D5*%
X89880000Y-105775000D02*
X89880000Y-103775000D01*
X89880000Y-103775000D02*
X85980000Y-103775000D01*
X89880000Y-105775000D02*
X85980000Y-105775000D01*
%TO.C,D3*%
X78070000Y-109204000D02*
X78070000Y-107204000D01*
X78070000Y-107204000D02*
X74170000Y-107204000D01*
X78070000Y-109204000D02*
X74170000Y-109204000D01*
%TO.C,TP3*%
X110490000Y-106426000D02*
G75*
G03*
X110490000Y-106426000I-1270000J0D01*
G01*
%TO.C,R3*%
X100649721Y-133475000D02*
X100975279Y-133475000D01*
X100649721Y-134495000D02*
X100975279Y-134495000D01*
%TO.C,F1*%
D10*
X102473571Y-90898333D02*
X102473571Y-91231666D01*
X102997380Y-91231666D02*
X101997380Y-91231666D01*
X101997380Y-90755476D01*
X102997380Y-89850714D02*
X102997380Y-90422142D01*
X102997380Y-90136428D02*
X101997380Y-90136428D01*
X102140238Y-90231666D01*
X102235476Y-90326904D01*
X102283095Y-90422142D01*
%TO.C,J2*%
X115617666Y-88225380D02*
X115617666Y-88939666D01*
X115570047Y-89082523D01*
X115474809Y-89177761D01*
X115331952Y-89225380D01*
X115236714Y-89225380D01*
X116046238Y-88320619D02*
X116093857Y-88273000D01*
X116189095Y-88225380D01*
X116427190Y-88225380D01*
X116522428Y-88273000D01*
X116570047Y-88320619D01*
X116617666Y-88415857D01*
X116617666Y-88511095D01*
X116570047Y-88653952D01*
X115998619Y-89225380D01*
X116617666Y-89225380D01*
%TO.C,J4*%
X137207666Y-88225380D02*
X137207666Y-88939666D01*
X137160047Y-89082523D01*
X137064809Y-89177761D01*
X136921952Y-89225380D01*
X136826714Y-89225380D01*
X138112428Y-88558714D02*
X138112428Y-89225380D01*
X137874333Y-88177761D02*
X137636238Y-88892047D01*
X138255285Y-88892047D01*
%TO.C,R11*%
X133977142Y-93830380D02*
X133643809Y-93354190D01*
X133405714Y-93830380D02*
X133405714Y-92830380D01*
X133786666Y-92830380D01*
X133881904Y-92878000D01*
X133929523Y-92925619D01*
X133977142Y-93020857D01*
X133977142Y-93163714D01*
X133929523Y-93258952D01*
X133881904Y-93306571D01*
X133786666Y-93354190D01*
X133405714Y-93354190D01*
X134929523Y-93830380D02*
X134358095Y-93830380D01*
X134643809Y-93830380D02*
X134643809Y-92830380D01*
X134548571Y-92973238D01*
X134453333Y-93068476D01*
X134358095Y-93116095D01*
X135881904Y-93830380D02*
X135310476Y-93830380D01*
X135596190Y-93830380D02*
X135596190Y-92830380D01*
X135500952Y-92973238D01*
X135405714Y-93068476D01*
X135310476Y-93116095D01*
%TO.C,C3*%
X92086133Y-101576142D02*
X92038514Y-101623761D01*
X91895657Y-101671380D01*
X91800419Y-101671380D01*
X91657561Y-101623761D01*
X91562323Y-101528523D01*
X91514704Y-101433285D01*
X91467085Y-101242809D01*
X91467085Y-101099952D01*
X91514704Y-100909476D01*
X91562323Y-100814238D01*
X91657561Y-100719000D01*
X91800419Y-100671380D01*
X91895657Y-100671380D01*
X92038514Y-100719000D01*
X92086133Y-100766619D01*
X92419466Y-100671380D02*
X93038514Y-100671380D01*
X92705180Y-101052333D01*
X92848038Y-101052333D01*
X92943276Y-101099952D01*
X92990895Y-101147571D01*
X93038514Y-101242809D01*
X93038514Y-101480904D01*
X92990895Y-101576142D01*
X92943276Y-101623761D01*
X92848038Y-101671380D01*
X92562323Y-101671380D01*
X92467085Y-101623761D01*
X92419466Y-101576142D01*
%TO.C,C2*%
X77201733Y-83389742D02*
X77154114Y-83437361D01*
X77011257Y-83484980D01*
X76916019Y-83484980D01*
X76773161Y-83437361D01*
X76677923Y-83342123D01*
X76630304Y-83246885D01*
X76582685Y-83056409D01*
X76582685Y-82913552D01*
X76630304Y-82723076D01*
X76677923Y-82627838D01*
X76773161Y-82532600D01*
X76916019Y-82484980D01*
X77011257Y-82484980D01*
X77154114Y-82532600D01*
X77201733Y-82580219D01*
X77582685Y-82580219D02*
X77630304Y-82532600D01*
X77725542Y-82484980D01*
X77963638Y-82484980D01*
X78058876Y-82532600D01*
X78106495Y-82580219D01*
X78154114Y-82675457D01*
X78154114Y-82770695D01*
X78106495Y-82913552D01*
X77535066Y-83484980D01*
X78154114Y-83484980D01*
%TO.C,U2*%
X119557895Y-112660180D02*
X119557895Y-113469704D01*
X119605514Y-113564942D01*
X119653133Y-113612561D01*
X119748371Y-113660180D01*
X119938847Y-113660180D01*
X120034085Y-113612561D01*
X120081704Y-113564942D01*
X120129323Y-113469704D01*
X120129323Y-112660180D01*
X120557895Y-112755419D02*
X120605514Y-112707800D01*
X120700752Y-112660180D01*
X120938847Y-112660180D01*
X121034085Y-112707800D01*
X121081704Y-112755419D01*
X121129323Y-112850657D01*
X121129323Y-112945895D01*
X121081704Y-113088752D01*
X120510276Y-113660180D01*
X121129323Y-113660180D01*
%TO.C,U1*%
X81534095Y-92568780D02*
X81534095Y-93378304D01*
X81581714Y-93473542D01*
X81629333Y-93521161D01*
X81724571Y-93568780D01*
X81915047Y-93568780D01*
X82010285Y-93521161D01*
X82057904Y-93473542D01*
X82105523Y-93378304D01*
X82105523Y-92568780D01*
X83105523Y-93568780D02*
X82534095Y-93568780D01*
X82819809Y-93568780D02*
X82819809Y-92568780D01*
X82724571Y-92711638D01*
X82629333Y-92806876D01*
X82534095Y-92854495D01*
%TO.C,D1*%
X112037904Y-99676380D02*
X112037904Y-98676380D01*
X112276000Y-98676380D01*
X112418857Y-98724000D01*
X112514095Y-98819238D01*
X112561714Y-98914476D01*
X112609333Y-99104952D01*
X112609333Y-99247809D01*
X112561714Y-99438285D01*
X112514095Y-99533523D01*
X112418857Y-99628761D01*
X112276000Y-99676380D01*
X112037904Y-99676380D01*
X113561714Y-99676380D02*
X112990285Y-99676380D01*
X113276000Y-99676380D02*
X113276000Y-98676380D01*
X113180761Y-98819238D01*
X113085523Y-98914476D01*
X112990285Y-98962095D01*
%TO.C,U3*%
X127947380Y-95311904D02*
X128756904Y-95311904D01*
X128852142Y-95264285D01*
X128899761Y-95216666D01*
X128947380Y-95121428D01*
X128947380Y-94930952D01*
X128899761Y-94835714D01*
X128852142Y-94788095D01*
X128756904Y-94740476D01*
X127947380Y-94740476D01*
X127947380Y-94359523D02*
X127947380Y-93740476D01*
X128328333Y-94073809D01*
X128328333Y-93930952D01*
X128375952Y-93835714D01*
X128423571Y-93788095D01*
X128518809Y-93740476D01*
X128756904Y-93740476D01*
X128852142Y-93788095D01*
X128899761Y-93835714D01*
X128947380Y-93930952D01*
X128947380Y-94216666D01*
X128899761Y-94311904D01*
X128852142Y-94359523D01*
%TO.C,J3*%
X64182666Y-118654580D02*
X64182666Y-119368866D01*
X64135047Y-119511723D01*
X64039809Y-119606961D01*
X63896952Y-119654580D01*
X63801714Y-119654580D01*
X64563619Y-118654580D02*
X65182666Y-118654580D01*
X64849333Y-119035533D01*
X64992190Y-119035533D01*
X65087428Y-119083152D01*
X65135047Y-119130771D01*
X65182666Y-119226009D01*
X65182666Y-119464104D01*
X65135047Y-119559342D01*
X65087428Y-119606961D01*
X64992190Y-119654580D01*
X64706476Y-119654580D01*
X64611238Y-119606961D01*
X64563619Y-119559342D01*
%TO.C,J1*%
X63954066Y-133970780D02*
X63954066Y-134685066D01*
X63906447Y-134827923D01*
X63811209Y-134923161D01*
X63668352Y-134970780D01*
X63573114Y-134970780D01*
X64954066Y-134970780D02*
X64382638Y-134970780D01*
X64668352Y-134970780D02*
X64668352Y-133970780D01*
X64573114Y-134113638D01*
X64477876Y-134208876D01*
X64382638Y-134256495D01*
%TO.C,C4*%
X125080833Y-101482142D02*
X125033214Y-101529761D01*
X124890357Y-101577380D01*
X124795119Y-101577380D01*
X124652261Y-101529761D01*
X124557023Y-101434523D01*
X124509404Y-101339285D01*
X124461785Y-101148809D01*
X124461785Y-101005952D01*
X124509404Y-100815476D01*
X124557023Y-100720238D01*
X124652261Y-100625000D01*
X124795119Y-100577380D01*
X124890357Y-100577380D01*
X125033214Y-100625000D01*
X125080833Y-100672619D01*
X125937976Y-100910714D02*
X125937976Y-101577380D01*
X125699880Y-100529761D02*
X125461785Y-101244047D01*
X126080833Y-101244047D01*
%TO.C,C1*%
X71308933Y-135459742D02*
X71261314Y-135507361D01*
X71118457Y-135554980D01*
X71023219Y-135554980D01*
X70880361Y-135507361D01*
X70785123Y-135412123D01*
X70737504Y-135316885D01*
X70689885Y-135126409D01*
X70689885Y-134983552D01*
X70737504Y-134793076D01*
X70785123Y-134697838D01*
X70880361Y-134602600D01*
X71023219Y-134554980D01*
X71118457Y-134554980D01*
X71261314Y-134602600D01*
X71308933Y-134650219D01*
X72261314Y-135554980D02*
X71689885Y-135554980D01*
X71975600Y-135554980D02*
X71975600Y-134554980D01*
X71880361Y-134697838D01*
X71785123Y-134793076D01*
X71689885Y-134840695D01*
%TO.C,J5*%
X144192666Y-106335580D02*
X144192666Y-107049866D01*
X144145047Y-107192723D01*
X144049809Y-107287961D01*
X143906952Y-107335580D01*
X143811714Y-107335580D01*
X145145047Y-106335580D02*
X144668857Y-106335580D01*
X144621238Y-106811771D01*
X144668857Y-106764152D01*
X144764095Y-106716533D01*
X145002190Y-106716533D01*
X145097428Y-106764152D01*
X145145047Y-106811771D01*
X145192666Y-106907009D01*
X145192666Y-107145104D01*
X145145047Y-107240342D01*
X145097428Y-107287961D01*
X145002190Y-107335580D01*
X144764095Y-107335580D01*
X144668857Y-107287961D01*
X144621238Y-107240342D01*
%TO.C,SW3*%
X130111666Y-148715361D02*
X130254523Y-148762980D01*
X130492619Y-148762980D01*
X130587857Y-148715361D01*
X130635476Y-148667742D01*
X130683095Y-148572504D01*
X130683095Y-148477266D01*
X130635476Y-148382028D01*
X130587857Y-148334409D01*
X130492619Y-148286790D01*
X130302142Y-148239171D01*
X130206904Y-148191552D01*
X130159285Y-148143933D01*
X130111666Y-148048695D01*
X130111666Y-147953457D01*
X130159285Y-147858219D01*
X130206904Y-147810600D01*
X130302142Y-147762980D01*
X130540238Y-147762980D01*
X130683095Y-147810600D01*
X131016428Y-147762980D02*
X131254523Y-148762980D01*
X131445000Y-148048695D01*
X131635476Y-148762980D01*
X131873571Y-147762980D01*
X132159285Y-147762980D02*
X132778333Y-147762980D01*
X132445000Y-148143933D01*
X132587857Y-148143933D01*
X132683095Y-148191552D01*
X132730714Y-148239171D01*
X132778333Y-148334409D01*
X132778333Y-148572504D01*
X132730714Y-148667742D01*
X132683095Y-148715361D01*
X132587857Y-148762980D01*
X132302142Y-148762980D01*
X132206904Y-148715361D01*
X132159285Y-148667742D01*
%TO.C,SW2*%
X114490666Y-148613761D02*
X114633523Y-148661380D01*
X114871619Y-148661380D01*
X114966857Y-148613761D01*
X115014476Y-148566142D01*
X115062095Y-148470904D01*
X115062095Y-148375666D01*
X115014476Y-148280428D01*
X114966857Y-148232809D01*
X114871619Y-148185190D01*
X114681142Y-148137571D01*
X114585904Y-148089952D01*
X114538285Y-148042333D01*
X114490666Y-147947095D01*
X114490666Y-147851857D01*
X114538285Y-147756619D01*
X114585904Y-147709000D01*
X114681142Y-147661380D01*
X114919238Y-147661380D01*
X115062095Y-147709000D01*
X115395428Y-147661380D02*
X115633523Y-148661380D01*
X115824000Y-147947095D01*
X116014476Y-148661380D01*
X116252571Y-147661380D01*
X116585904Y-147756619D02*
X116633523Y-147709000D01*
X116728761Y-147661380D01*
X116966857Y-147661380D01*
X117062095Y-147709000D01*
X117109714Y-147756619D01*
X117157333Y-147851857D01*
X117157333Y-147947095D01*
X117109714Y-148089952D01*
X116538285Y-148661380D01*
X117157333Y-148661380D01*
%TO.C,SW1*%
X99733266Y-148816961D02*
X99876123Y-148864580D01*
X100114219Y-148864580D01*
X100209457Y-148816961D01*
X100257076Y-148769342D01*
X100304695Y-148674104D01*
X100304695Y-148578866D01*
X100257076Y-148483628D01*
X100209457Y-148436009D01*
X100114219Y-148388390D01*
X99923742Y-148340771D01*
X99828504Y-148293152D01*
X99780885Y-148245533D01*
X99733266Y-148150295D01*
X99733266Y-148055057D01*
X99780885Y-147959819D01*
X99828504Y-147912200D01*
X99923742Y-147864580D01*
X100161838Y-147864580D01*
X100304695Y-147912200D01*
X100638028Y-147864580D02*
X100876123Y-148864580D01*
X101066600Y-148150295D01*
X101257076Y-148864580D01*
X101495171Y-147864580D01*
X102399933Y-148864580D02*
X101828504Y-148864580D01*
X102114219Y-148864580D02*
X102114219Y-147864580D01*
X102018980Y-148007438D01*
X101923742Y-148102676D01*
X101828504Y-148150295D01*
%TO.C,SW4*%
X85026666Y-141374761D02*
X85169523Y-141422380D01*
X85407619Y-141422380D01*
X85502857Y-141374761D01*
X85550476Y-141327142D01*
X85598095Y-141231904D01*
X85598095Y-141136666D01*
X85550476Y-141041428D01*
X85502857Y-140993809D01*
X85407619Y-140946190D01*
X85217142Y-140898571D01*
X85121904Y-140850952D01*
X85074285Y-140803333D01*
X85026666Y-140708095D01*
X85026666Y-140612857D01*
X85074285Y-140517619D01*
X85121904Y-140470000D01*
X85217142Y-140422380D01*
X85455238Y-140422380D01*
X85598095Y-140470000D01*
X85931428Y-140422380D02*
X86169523Y-141422380D01*
X86360000Y-140708095D01*
X86550476Y-141422380D01*
X86788571Y-140422380D01*
X87598095Y-140755714D02*
X87598095Y-141422380D01*
X87360000Y-140374761D02*
X87121904Y-141089047D01*
X87740952Y-141089047D01*
%TO.C,R10*%
X119346742Y-106802180D02*
X119013409Y-106325990D01*
X118775314Y-106802180D02*
X118775314Y-105802180D01*
X119156266Y-105802180D01*
X119251504Y-105849800D01*
X119299123Y-105897419D01*
X119346742Y-105992657D01*
X119346742Y-106135514D01*
X119299123Y-106230752D01*
X119251504Y-106278371D01*
X119156266Y-106325990D01*
X118775314Y-106325990D01*
X120299123Y-106802180D02*
X119727695Y-106802180D01*
X120013409Y-106802180D02*
X120013409Y-105802180D01*
X119918171Y-105945038D01*
X119822933Y-106040276D01*
X119727695Y-106087895D01*
X120918171Y-105802180D02*
X121013409Y-105802180D01*
X121108647Y-105849800D01*
X121156266Y-105897419D01*
X121203885Y-105992657D01*
X121251504Y-106183133D01*
X121251504Y-106421228D01*
X121203885Y-106611704D01*
X121156266Y-106706942D01*
X121108647Y-106754561D01*
X121013409Y-106802180D01*
X120918171Y-106802180D01*
X120822933Y-106754561D01*
X120775314Y-106706942D01*
X120727695Y-106611704D01*
X120680076Y-106421228D01*
X120680076Y-106183133D01*
X120727695Y-105992657D01*
X120775314Y-105897419D01*
X120822933Y-105849800D01*
X120918171Y-105802180D01*
%TO.C,R9*%
X111364833Y-91384380D02*
X111031500Y-90908190D01*
X110793404Y-91384380D02*
X110793404Y-90384380D01*
X111174357Y-90384380D01*
X111269595Y-90432000D01*
X111317214Y-90479619D01*
X111364833Y-90574857D01*
X111364833Y-90717714D01*
X111317214Y-90812952D01*
X111269595Y-90860571D01*
X111174357Y-90908190D01*
X110793404Y-90908190D01*
X111841023Y-91384380D02*
X112031500Y-91384380D01*
X112126738Y-91336761D01*
X112174357Y-91289142D01*
X112269595Y-91146285D01*
X112317214Y-90955809D01*
X112317214Y-90574857D01*
X112269595Y-90479619D01*
X112221976Y-90432000D01*
X112126738Y-90384380D01*
X111936261Y-90384380D01*
X111841023Y-90432000D01*
X111793404Y-90479619D01*
X111745785Y-90574857D01*
X111745785Y-90812952D01*
X111793404Y-90908190D01*
X111841023Y-90955809D01*
X111936261Y-91003428D01*
X112126738Y-91003428D01*
X112221976Y-90955809D01*
X112269595Y-90908190D01*
X112317214Y-90812952D01*
%TO.C,R8*%
X92721133Y-88412580D02*
X92387800Y-87936390D01*
X92149704Y-88412580D02*
X92149704Y-87412580D01*
X92530657Y-87412580D01*
X92625895Y-87460200D01*
X92673514Y-87507819D01*
X92721133Y-87603057D01*
X92721133Y-87745914D01*
X92673514Y-87841152D01*
X92625895Y-87888771D01*
X92530657Y-87936390D01*
X92149704Y-87936390D01*
X93292561Y-87841152D02*
X93197323Y-87793533D01*
X93149704Y-87745914D01*
X93102085Y-87650676D01*
X93102085Y-87603057D01*
X93149704Y-87507819D01*
X93197323Y-87460200D01*
X93292561Y-87412580D01*
X93483038Y-87412580D01*
X93578276Y-87460200D01*
X93625895Y-87507819D01*
X93673514Y-87603057D01*
X93673514Y-87650676D01*
X93625895Y-87745914D01*
X93578276Y-87793533D01*
X93483038Y-87841152D01*
X93292561Y-87841152D01*
X93197323Y-87888771D01*
X93149704Y-87936390D01*
X93102085Y-88031628D01*
X93102085Y-88222104D01*
X93149704Y-88317342D01*
X93197323Y-88364961D01*
X93292561Y-88412580D01*
X93483038Y-88412580D01*
X93578276Y-88364961D01*
X93625895Y-88317342D01*
X93673514Y-88222104D01*
X93673514Y-88031628D01*
X93625895Y-87936390D01*
X93578276Y-87888771D01*
X93483038Y-87841152D01*
%TO.C,Q2*%
X122332761Y-83859619D02*
X122237523Y-83812000D01*
X122142285Y-83716761D01*
X121999428Y-83573904D01*
X121904190Y-83526285D01*
X121808952Y-83526285D01*
X121856571Y-83764380D02*
X121761333Y-83716761D01*
X121666095Y-83621523D01*
X121618476Y-83431047D01*
X121618476Y-83097714D01*
X121666095Y-82907238D01*
X121761333Y-82812000D01*
X121856571Y-82764380D01*
X122047047Y-82764380D01*
X122142285Y-82812000D01*
X122237523Y-82907238D01*
X122285142Y-83097714D01*
X122285142Y-83431047D01*
X122237523Y-83621523D01*
X122142285Y-83716761D01*
X122047047Y-83764380D01*
X121856571Y-83764380D01*
X122666095Y-82859619D02*
X122713714Y-82812000D01*
X122808952Y-82764380D01*
X123047047Y-82764380D01*
X123142285Y-82812000D01*
X123189904Y-82859619D01*
X123237523Y-82954857D01*
X123237523Y-83050095D01*
X123189904Y-83192952D01*
X122618476Y-83764380D01*
X123237523Y-83764380D01*
%TO.C,D7*%
X93673804Y-84653380D02*
X93673804Y-83653380D01*
X93911900Y-83653380D01*
X94054757Y-83701000D01*
X94149995Y-83796238D01*
X94197614Y-83891476D01*
X94245233Y-84081952D01*
X94245233Y-84224809D01*
X94197614Y-84415285D01*
X94149995Y-84510523D01*
X94054757Y-84605761D01*
X93911900Y-84653380D01*
X93673804Y-84653380D01*
X94578566Y-83653380D02*
X95245233Y-83653380D01*
X94816661Y-84653380D01*
%TO.C,TP5*%
X132915095Y-97964380D02*
X133486523Y-97964380D01*
X133200809Y-98964380D02*
X133200809Y-97964380D01*
X133819857Y-98964380D02*
X133819857Y-97964380D01*
X134200809Y-97964380D01*
X134296047Y-98012000D01*
X134343666Y-98059619D01*
X134391285Y-98154857D01*
X134391285Y-98297714D01*
X134343666Y-98392952D01*
X134296047Y-98440571D01*
X134200809Y-98488190D01*
X133819857Y-98488190D01*
X135296047Y-97964380D02*
X134819857Y-97964380D01*
X134772238Y-98440571D01*
X134819857Y-98392952D01*
X134915095Y-98345333D01*
X135153190Y-98345333D01*
X135248428Y-98392952D01*
X135296047Y-98440571D01*
X135343666Y-98535809D01*
X135343666Y-98773904D01*
X135296047Y-98869142D01*
X135248428Y-98916761D01*
X135153190Y-98964380D01*
X134915095Y-98964380D01*
X134819857Y-98916761D01*
X134772238Y-98869142D01*
%TO.C,Q1*%
X122332761Y-88685619D02*
X122237523Y-88638000D01*
X122142285Y-88542761D01*
X121999428Y-88399904D01*
X121904190Y-88352285D01*
X121808952Y-88352285D01*
X121856571Y-88590380D02*
X121761333Y-88542761D01*
X121666095Y-88447523D01*
X121618476Y-88257047D01*
X121618476Y-87923714D01*
X121666095Y-87733238D01*
X121761333Y-87638000D01*
X121856571Y-87590380D01*
X122047047Y-87590380D01*
X122142285Y-87638000D01*
X122237523Y-87733238D01*
X122285142Y-87923714D01*
X122285142Y-88257047D01*
X122237523Y-88447523D01*
X122142285Y-88542761D01*
X122047047Y-88590380D01*
X121856571Y-88590380D01*
X123237523Y-88590380D02*
X122666095Y-88590380D01*
X122951809Y-88590380D02*
X122951809Y-87590380D01*
X122856571Y-87733238D01*
X122761333Y-87828476D01*
X122666095Y-87876095D01*
%TO.C,TP4*%
X101557295Y-103719380D02*
X102128723Y-103719380D01*
X101843009Y-104719380D02*
X101843009Y-103719380D01*
X102462057Y-104719380D02*
X102462057Y-103719380D01*
X102843009Y-103719380D01*
X102938247Y-103767000D01*
X102985866Y-103814619D01*
X103033485Y-103909857D01*
X103033485Y-104052714D01*
X102985866Y-104147952D01*
X102938247Y-104195571D01*
X102843009Y-104243190D01*
X102462057Y-104243190D01*
X103890628Y-104052714D02*
X103890628Y-104719380D01*
X103652533Y-103671761D02*
X103414438Y-104386047D01*
X104033485Y-104386047D01*
%TO.C,TP2*%
X143568895Y-98690180D02*
X144140323Y-98690180D01*
X143854609Y-99690180D02*
X143854609Y-98690180D01*
X144473657Y-99690180D02*
X144473657Y-98690180D01*
X144854609Y-98690180D01*
X144949847Y-98737800D01*
X144997466Y-98785419D01*
X145045085Y-98880657D01*
X145045085Y-99023514D01*
X144997466Y-99118752D01*
X144949847Y-99166371D01*
X144854609Y-99213990D01*
X144473657Y-99213990D01*
X145426038Y-98785419D02*
X145473657Y-98737800D01*
X145568895Y-98690180D01*
X145806990Y-98690180D01*
X145902228Y-98737800D01*
X145949847Y-98785419D01*
X145997466Y-98880657D01*
X145997466Y-98975895D01*
X145949847Y-99118752D01*
X145378419Y-99690180D01*
X145997466Y-99690180D01*
%TO.C,TP1*%
X64208095Y-97964380D02*
X64779523Y-97964380D01*
X64493809Y-98964380D02*
X64493809Y-97964380D01*
X65112857Y-98964380D02*
X65112857Y-97964380D01*
X65493809Y-97964380D01*
X65589047Y-98012000D01*
X65636666Y-98059619D01*
X65684285Y-98154857D01*
X65684285Y-98297714D01*
X65636666Y-98392952D01*
X65589047Y-98440571D01*
X65493809Y-98488190D01*
X65112857Y-98488190D01*
X66636666Y-98964380D02*
X66065238Y-98964380D01*
X66350952Y-98964380D02*
X66350952Y-97964380D01*
X66255714Y-98107238D01*
X66160476Y-98202476D01*
X66065238Y-98250095D01*
%TO.C,R6*%
X115885833Y-133007380D02*
X115552500Y-132531190D01*
X115314404Y-133007380D02*
X115314404Y-132007380D01*
X115695357Y-132007380D01*
X115790595Y-132055000D01*
X115838214Y-132102619D01*
X115885833Y-132197857D01*
X115885833Y-132340714D01*
X115838214Y-132435952D01*
X115790595Y-132483571D01*
X115695357Y-132531190D01*
X115314404Y-132531190D01*
X116742976Y-132007380D02*
X116552500Y-132007380D01*
X116457261Y-132055000D01*
X116409642Y-132102619D01*
X116314404Y-132245476D01*
X116266785Y-132435952D01*
X116266785Y-132816904D01*
X116314404Y-132912142D01*
X116362023Y-132959761D01*
X116457261Y-133007380D01*
X116647738Y-133007380D01*
X116742976Y-132959761D01*
X116790595Y-132912142D01*
X116838214Y-132816904D01*
X116838214Y-132578809D01*
X116790595Y-132483571D01*
X116742976Y-132435952D01*
X116647738Y-132388333D01*
X116457261Y-132388333D01*
X116362023Y-132435952D01*
X116314404Y-132483571D01*
X116266785Y-132578809D01*
%TO.C,R4*%
X78268533Y-114726980D02*
X77935200Y-114250790D01*
X77697104Y-114726980D02*
X77697104Y-113726980D01*
X78078057Y-113726980D01*
X78173295Y-113774600D01*
X78220914Y-113822219D01*
X78268533Y-113917457D01*
X78268533Y-114060314D01*
X78220914Y-114155552D01*
X78173295Y-114203171D01*
X78078057Y-114250790D01*
X77697104Y-114250790D01*
X79125676Y-114060314D02*
X79125676Y-114726980D01*
X78887580Y-113679361D02*
X78649485Y-114393647D01*
X79268533Y-114393647D01*
%TO.C,R2*%
X71537533Y-130627380D02*
X71204200Y-130151190D01*
X70966104Y-130627380D02*
X70966104Y-129627380D01*
X71347057Y-129627380D01*
X71442295Y-129675000D01*
X71489914Y-129722619D01*
X71537533Y-129817857D01*
X71537533Y-129960714D01*
X71489914Y-130055952D01*
X71442295Y-130103571D01*
X71347057Y-130151190D01*
X70966104Y-130151190D01*
X71918485Y-129722619D02*
X71966104Y-129675000D01*
X72061342Y-129627380D01*
X72299438Y-129627380D01*
X72394676Y-129675000D01*
X72442295Y-129722619D01*
X72489914Y-129817857D01*
X72489914Y-129913095D01*
X72442295Y-130055952D01*
X71870866Y-130627380D01*
X72489914Y-130627380D01*
%TO.C,R7*%
X131125833Y-133007380D02*
X130792500Y-132531190D01*
X130554404Y-133007380D02*
X130554404Y-132007380D01*
X130935357Y-132007380D01*
X131030595Y-132055000D01*
X131078214Y-132102619D01*
X131125833Y-132197857D01*
X131125833Y-132340714D01*
X131078214Y-132435952D01*
X131030595Y-132483571D01*
X130935357Y-132531190D01*
X130554404Y-132531190D01*
X131459166Y-132007380D02*
X132125833Y-132007380D01*
X131697261Y-133007380D01*
%TO.C,R1*%
X71715333Y-124353580D02*
X71382000Y-123877390D01*
X71143904Y-124353580D02*
X71143904Y-123353580D01*
X71524857Y-123353580D01*
X71620095Y-123401200D01*
X71667714Y-123448819D01*
X71715333Y-123544057D01*
X71715333Y-123686914D01*
X71667714Y-123782152D01*
X71620095Y-123829771D01*
X71524857Y-123877390D01*
X71143904Y-123877390D01*
X72667714Y-124353580D02*
X72096285Y-124353580D01*
X72382000Y-124353580D02*
X72382000Y-123353580D01*
X72286761Y-123496438D01*
X72191523Y-123591676D01*
X72096285Y-123639295D01*
%TO.C,R5*%
X75296733Y-120340380D02*
X74963400Y-119864190D01*
X74725304Y-120340380D02*
X74725304Y-119340380D01*
X75106257Y-119340380D01*
X75201495Y-119388000D01*
X75249114Y-119435619D01*
X75296733Y-119530857D01*
X75296733Y-119673714D01*
X75249114Y-119768952D01*
X75201495Y-119816571D01*
X75106257Y-119864190D01*
X74725304Y-119864190D01*
X76201495Y-119340380D02*
X75725304Y-119340380D01*
X75677685Y-119816571D01*
X75725304Y-119768952D01*
X75820542Y-119721333D01*
X76058638Y-119721333D01*
X76153876Y-119768952D01*
X76201495Y-119816571D01*
X76249114Y-119911809D01*
X76249114Y-120149904D01*
X76201495Y-120245142D01*
X76153876Y-120292761D01*
X76058638Y-120340380D01*
X75820542Y-120340380D01*
X75725304Y-120292761D01*
X75677685Y-120245142D01*
%TO.C,D6*%
X133907304Y-136088380D02*
X133907304Y-135088380D01*
X134145400Y-135088380D01*
X134288257Y-135136000D01*
X134383495Y-135231238D01*
X134431114Y-135326476D01*
X134478733Y-135516952D01*
X134478733Y-135659809D01*
X134431114Y-135850285D01*
X134383495Y-135945523D01*
X134288257Y-136040761D01*
X134145400Y-136088380D01*
X133907304Y-136088380D01*
X135335876Y-135088380D02*
X135145400Y-135088380D01*
X135050161Y-135136000D01*
X135002542Y-135183619D01*
X134907304Y-135326476D01*
X134859685Y-135516952D01*
X134859685Y-135897904D01*
X134907304Y-135993142D01*
X134954923Y-136040761D01*
X135050161Y-136088380D01*
X135240638Y-136088380D01*
X135335876Y-136040761D01*
X135383495Y-135993142D01*
X135431114Y-135897904D01*
X135431114Y-135659809D01*
X135383495Y-135564571D01*
X135335876Y-135516952D01*
X135240638Y-135469333D01*
X135050161Y-135469333D01*
X134954923Y-135516952D01*
X134907304Y-135564571D01*
X134859685Y-135659809D01*
%TO.C,D4*%
X118006904Y-136342380D02*
X118006904Y-135342380D01*
X118245000Y-135342380D01*
X118387857Y-135390000D01*
X118483095Y-135485238D01*
X118530714Y-135580476D01*
X118578333Y-135770952D01*
X118578333Y-135913809D01*
X118530714Y-136104285D01*
X118483095Y-136199523D01*
X118387857Y-136294761D01*
X118245000Y-136342380D01*
X118006904Y-136342380D01*
X119435476Y-135675714D02*
X119435476Y-136342380D01*
X119197380Y-135294761D02*
X118959285Y-136009047D01*
X119578333Y-136009047D01*
%TO.C,D2*%
X103096904Y-136342380D02*
X103096904Y-135342380D01*
X103335000Y-135342380D01*
X103477857Y-135390000D01*
X103573095Y-135485238D01*
X103620714Y-135580476D01*
X103668333Y-135770952D01*
X103668333Y-135913809D01*
X103620714Y-136104285D01*
X103573095Y-136199523D01*
X103477857Y-136294761D01*
X103335000Y-136342380D01*
X103096904Y-136342380D01*
X104049285Y-135437619D02*
X104096904Y-135390000D01*
X104192142Y-135342380D01*
X104430238Y-135342380D01*
X104525476Y-135390000D01*
X104573095Y-135437619D01*
X104620714Y-135532857D01*
X104620714Y-135628095D01*
X104573095Y-135770952D01*
X104001666Y-136342380D01*
X104620714Y-136342380D01*
%TO.C,C5*%
X114463533Y-108510342D02*
X114415914Y-108557961D01*
X114273057Y-108605580D01*
X114177819Y-108605580D01*
X114034961Y-108557961D01*
X113939723Y-108462723D01*
X113892104Y-108367485D01*
X113844485Y-108177009D01*
X113844485Y-108034152D01*
X113892104Y-107843676D01*
X113939723Y-107748438D01*
X114034961Y-107653200D01*
X114177819Y-107605580D01*
X114273057Y-107605580D01*
X114415914Y-107653200D01*
X114463533Y-107700819D01*
X115368295Y-107605580D02*
X114892104Y-107605580D01*
X114844485Y-108081771D01*
X114892104Y-108034152D01*
X114987342Y-107986533D01*
X115225438Y-107986533D01*
X115320676Y-108034152D01*
X115368295Y-108081771D01*
X115415914Y-108177009D01*
X115415914Y-108415104D01*
X115368295Y-108510342D01*
X115320676Y-108557961D01*
X115225438Y-108605580D01*
X114987342Y-108605580D01*
X114892104Y-108557961D01*
X114844485Y-108510342D01*
%TO.C,D5*%
X86891904Y-107227380D02*
X86891904Y-106227380D01*
X87130000Y-106227380D01*
X87272857Y-106275000D01*
X87368095Y-106370238D01*
X87415714Y-106465476D01*
X87463333Y-106655952D01*
X87463333Y-106798809D01*
X87415714Y-106989285D01*
X87368095Y-107084523D01*
X87272857Y-107179761D01*
X87130000Y-107227380D01*
X86891904Y-107227380D01*
X88368095Y-106227380D02*
X87891904Y-106227380D01*
X87844285Y-106703571D01*
X87891904Y-106655952D01*
X87987142Y-106608333D01*
X88225238Y-106608333D01*
X88320476Y-106655952D01*
X88368095Y-106703571D01*
X88415714Y-106798809D01*
X88415714Y-107036904D01*
X88368095Y-107132142D01*
X88320476Y-107179761D01*
X88225238Y-107227380D01*
X87987142Y-107227380D01*
X87891904Y-107179761D01*
X87844285Y-107132142D01*
%TO.C,D3*%
X75639704Y-111018580D02*
X75639704Y-110018580D01*
X75877800Y-110018580D01*
X76020657Y-110066200D01*
X76115895Y-110161438D01*
X76163514Y-110256676D01*
X76211133Y-110447152D01*
X76211133Y-110590009D01*
X76163514Y-110780485D01*
X76115895Y-110875723D01*
X76020657Y-110970961D01*
X75877800Y-111018580D01*
X75639704Y-111018580D01*
X76544466Y-110018580D02*
X77163514Y-110018580D01*
X76830180Y-110399533D01*
X76973038Y-110399533D01*
X77068276Y-110447152D01*
X77115895Y-110494771D01*
X77163514Y-110590009D01*
X77163514Y-110828104D01*
X77115895Y-110923342D01*
X77068276Y-110970961D01*
X76973038Y-111018580D01*
X76687323Y-111018580D01*
X76592085Y-110970961D01*
X76544466Y-110923342D01*
%TO.C,TP3*%
X108135895Y-103617780D02*
X108707323Y-103617780D01*
X108421609Y-104617780D02*
X108421609Y-103617780D01*
X109040657Y-104617780D02*
X109040657Y-103617780D01*
X109421609Y-103617780D01*
X109516847Y-103665400D01*
X109564466Y-103713019D01*
X109612085Y-103808257D01*
X109612085Y-103951114D01*
X109564466Y-104046352D01*
X109516847Y-104093971D01*
X109421609Y-104141590D01*
X109040657Y-104141590D01*
X109945419Y-103617780D02*
X110564466Y-103617780D01*
X110231133Y-103998733D01*
X110373990Y-103998733D01*
X110469228Y-104046352D01*
X110516847Y-104093971D01*
X110564466Y-104189209D01*
X110564466Y-104427304D01*
X110516847Y-104522542D01*
X110469228Y-104570161D01*
X110373990Y-104617780D01*
X110088276Y-104617780D01*
X109993038Y-104570161D01*
X109945419Y-104522542D01*
%TO.C,R3*%
X100645833Y-133007380D02*
X100312500Y-132531190D01*
X100074404Y-133007380D02*
X100074404Y-132007380D01*
X100455357Y-132007380D01*
X100550595Y-132055000D01*
X100598214Y-132102619D01*
X100645833Y-132197857D01*
X100645833Y-132340714D01*
X100598214Y-132435952D01*
X100550595Y-132483571D01*
X100455357Y-132531190D01*
X100074404Y-132531190D01*
X100979166Y-132007380D02*
X101598214Y-132007380D01*
X101264880Y-132388333D01*
X101407738Y-132388333D01*
X101502976Y-132435952D01*
X101550595Y-132483571D01*
X101598214Y-132578809D01*
X101598214Y-132816904D01*
X101550595Y-132912142D01*
X101502976Y-132959761D01*
X101407738Y-133007380D01*
X101122023Y-133007380D01*
X101026785Y-132959761D01*
X100979166Y-132912142D01*
%TD*%
M02*
