%TF.GenerationSoftware,KiCad,Pcbnew,(5.1.6)-1*%
%TF.CreationDate,2020-09-05T08:23:18-07:00*%
%TF.ProjectId,pulser,70756c73-6572-42e6-9b69-6361645f7063,rev?*%
%TF.SameCoordinates,Original*%
%TF.FileFunction,Soldermask,Top*%
%TF.FilePolarity,Negative*%
%FSLAX46Y46*%
G04 Gerber Fmt 4.6, Leading zero omitted, Abs format (unit mm)*
G04 Created by KiCad (PCBNEW (5.1.6)-1) date 2020-09-05 08:23:18*
%MOMM*%
%LPD*%
G01*
G04 APERTURE LIST*
%ADD10O,3.900000X5.600000*%
%ADD11O,3.900000X5.400000*%
%ADD12R,3.100000X3.100000*%
%ADD13C,3.100000*%
%ADD14R,1.700000X1.700000*%
%ADD15C,1.700000*%
%ADD16C,6.500000*%
%ADD17O,1.700000X1.700000*%
%ADD18C,2.100000*%
%ADD19R,2.100000X2.100000*%
%ADD20O,3.300000X3.300000*%
%ADD21R,3.300000X3.300000*%
%ADD22O,2.290000X1.840000*%
%ADD23C,2.400000*%
%ADD24R,2.400000X2.400000*%
%ADD25R,1.660000X0.750000*%
%ADD26R,1.000000X1.300000*%
G04 APERTURE END LIST*
D10*
%TO.C,F1*%
X99695000Y-86615000D03*
D11*
X99695000Y-94615000D03*
%TD*%
D12*
%TO.C,J2*%
X106680000Y-85090000D03*
D13*
X111760000Y-85090000D03*
%TD*%
D12*
%TO.C,J4*%
X128270000Y-85090000D03*
D13*
X133350000Y-85090000D03*
%TD*%
%TO.C,R11*%
G36*
G01*
X134320000Y-91666750D02*
X134320000Y-92229250D01*
G75*
G02*
X134076250Y-92473000I-243750J0D01*
G01*
X133588750Y-92473000D01*
G75*
G02*
X133345000Y-92229250I0J243750D01*
G01*
X133345000Y-91666750D01*
G75*
G02*
X133588750Y-91423000I243750J0D01*
G01*
X134076250Y-91423000D01*
G75*
G02*
X134320000Y-91666750I0J-243750D01*
G01*
G37*
G36*
G01*
X135895000Y-91666750D02*
X135895000Y-92229250D01*
G75*
G02*
X135651250Y-92473000I-243750J0D01*
G01*
X135163750Y-92473000D01*
G75*
G02*
X134920000Y-92229250I0J243750D01*
G01*
X134920000Y-91666750D01*
G75*
G02*
X135163750Y-91423000I243750J0D01*
G01*
X135651250Y-91423000D01*
G75*
G02*
X135895000Y-91666750I0J-243750D01*
G01*
G37*
%TD*%
D14*
%TO.C,C3*%
X88646000Y-100076000D03*
D15*
X88646000Y-98076000D03*
%TD*%
D14*
%TO.C,C2*%
X76530200Y-88239600D03*
D15*
X74030200Y-88239600D03*
%TD*%
D16*
%TO.C,H4*%
X65000000Y-85000000D03*
%TD*%
%TO.C,H3*%
X145000000Y-85000000D03*
%TD*%
%TO.C,H2*%
X145000000Y-145000000D03*
%TD*%
%TO.C,H1*%
X65000000Y-145000000D03*
%TD*%
D17*
%TO.C,U2*%
X97155000Y-115570000D03*
X99695000Y-115570000D03*
X107315000Y-115570000D03*
X109855000Y-115570000D03*
X85725000Y-121920000D03*
X85725000Y-119380000D03*
X116205000Y-128270000D03*
X85725000Y-116840000D03*
X113665000Y-128270000D03*
X85725000Y-114300000D03*
X111125000Y-128270000D03*
X88265000Y-113030000D03*
X108585000Y-128270000D03*
X90805000Y-113030000D03*
X106045000Y-128270000D03*
X93345000Y-113030000D03*
X103505000Y-128270000D03*
X95885000Y-113030000D03*
X100965000Y-128270000D03*
X98425000Y-113030000D03*
X98425000Y-128270000D03*
X100965000Y-113030000D03*
X95885000Y-128270000D03*
X103505000Y-113030000D03*
X93345000Y-128270000D03*
X106045000Y-113030000D03*
X90805000Y-128270000D03*
X108585000Y-113030000D03*
X88265000Y-128270000D03*
X111125000Y-113030000D03*
X85725000Y-127000000D03*
X113665000Y-113030000D03*
X85725000Y-124460000D03*
D14*
X116205000Y-113030000D03*
%TD*%
D18*
%TO.C,U1*%
X80645000Y-100965000D03*
X78105000Y-100965000D03*
D19*
X75565000Y-100965000D03*
%TD*%
D20*
%TO.C,D1*%
X106426000Y-95504000D03*
D21*
X119126000Y-95504000D03*
%TD*%
%TO.C,U3*%
G36*
G01*
X126825000Y-96000000D02*
X127175000Y-96000000D01*
G75*
G02*
X127350000Y-96175000I0J-175000D01*
G01*
X127350000Y-97875000D01*
G75*
G02*
X127175000Y-98050000I-175000J0D01*
G01*
X126825000Y-98050000D01*
G75*
G02*
X126650000Y-97875000I0J175000D01*
G01*
X126650000Y-96175000D01*
G75*
G02*
X126825000Y-96000000I175000J0D01*
G01*
G37*
G36*
G01*
X125555000Y-96000000D02*
X125905000Y-96000000D01*
G75*
G02*
X126080000Y-96175000I0J-175000D01*
G01*
X126080000Y-97875000D01*
G75*
G02*
X125905000Y-98050000I-175000J0D01*
G01*
X125555000Y-98050000D01*
G75*
G02*
X125380000Y-97875000I0J175000D01*
G01*
X125380000Y-96175000D01*
G75*
G02*
X125555000Y-96000000I175000J0D01*
G01*
G37*
G36*
G01*
X124285000Y-96000000D02*
X124635000Y-96000000D01*
G75*
G02*
X124810000Y-96175000I0J-175000D01*
G01*
X124810000Y-97875000D01*
G75*
G02*
X124635000Y-98050000I-175000J0D01*
G01*
X124285000Y-98050000D01*
G75*
G02*
X124110000Y-97875000I0J175000D01*
G01*
X124110000Y-96175000D01*
G75*
G02*
X124285000Y-96000000I175000J0D01*
G01*
G37*
G36*
G01*
X123015000Y-96000000D02*
X123365000Y-96000000D01*
G75*
G02*
X123540000Y-96175000I0J-175000D01*
G01*
X123540000Y-97875000D01*
G75*
G02*
X123365000Y-98050000I-175000J0D01*
G01*
X123015000Y-98050000D01*
G75*
G02*
X122840000Y-97875000I0J175000D01*
G01*
X122840000Y-96175000D01*
G75*
G02*
X123015000Y-96000000I175000J0D01*
G01*
G37*
G36*
G01*
X123015000Y-91050000D02*
X123365000Y-91050000D01*
G75*
G02*
X123540000Y-91225000I0J-175000D01*
G01*
X123540000Y-92925000D01*
G75*
G02*
X123365000Y-93100000I-175000J0D01*
G01*
X123015000Y-93100000D01*
G75*
G02*
X122840000Y-92925000I0J175000D01*
G01*
X122840000Y-91225000D01*
G75*
G02*
X123015000Y-91050000I175000J0D01*
G01*
G37*
G36*
G01*
X124285000Y-91050000D02*
X124635000Y-91050000D01*
G75*
G02*
X124810000Y-91225000I0J-175000D01*
G01*
X124810000Y-92925000D01*
G75*
G02*
X124635000Y-93100000I-175000J0D01*
G01*
X124285000Y-93100000D01*
G75*
G02*
X124110000Y-92925000I0J175000D01*
G01*
X124110000Y-91225000D01*
G75*
G02*
X124285000Y-91050000I175000J0D01*
G01*
G37*
G36*
G01*
X125555000Y-91050000D02*
X125905000Y-91050000D01*
G75*
G02*
X126080000Y-91225000I0J-175000D01*
G01*
X126080000Y-92925000D01*
G75*
G02*
X125905000Y-93100000I-175000J0D01*
G01*
X125555000Y-93100000D01*
G75*
G02*
X125380000Y-92925000I0J175000D01*
G01*
X125380000Y-91225000D01*
G75*
G02*
X125555000Y-91050000I175000J0D01*
G01*
G37*
G36*
G01*
X126825000Y-91050000D02*
X127175000Y-91050000D01*
G75*
G02*
X127350000Y-91225000I0J-175000D01*
G01*
X127350000Y-92925000D01*
G75*
G02*
X127175000Y-93100000I-175000J0D01*
G01*
X126825000Y-93100000D01*
G75*
G02*
X126650000Y-92925000I0J175000D01*
G01*
X126650000Y-91225000D01*
G75*
G02*
X126825000Y-91050000I175000J0D01*
G01*
G37*
%TD*%
D22*
%TO.C,J3*%
X64810000Y-103160000D03*
X64810000Y-105700000D03*
X64810000Y-108240000D03*
X64810000Y-110780000D03*
X64810000Y-113320000D03*
G36*
G01*
X65690633Y-116780000D02*
X63929367Y-116780000D01*
G75*
G02*
X63665000Y-116515633I0J264367D01*
G01*
X63665000Y-115204367D01*
G75*
G02*
X63929367Y-114940000I264367J0D01*
G01*
X65690633Y-114940000D01*
G75*
G02*
X65955000Y-115204367I0J-264367D01*
G01*
X65955000Y-116515633D01*
G75*
G02*
X65690633Y-116780000I-264367J0D01*
G01*
G37*
%TD*%
D23*
%TO.C,J1*%
X64050000Y-127580000D03*
D24*
X64050000Y-131080000D03*
%TD*%
%TO.C,C4*%
G36*
G01*
X124947500Y-99413750D02*
X124947500Y-99976250D01*
G75*
G02*
X124703750Y-100220000I-243750J0D01*
G01*
X124216250Y-100220000D01*
G75*
G02*
X123972500Y-99976250I0J243750D01*
G01*
X123972500Y-99413750D01*
G75*
G02*
X124216250Y-99170000I243750J0D01*
G01*
X124703750Y-99170000D01*
G75*
G02*
X124947500Y-99413750I0J-243750D01*
G01*
G37*
G36*
G01*
X126522500Y-99413750D02*
X126522500Y-99976250D01*
G75*
G02*
X126278750Y-100220000I-243750J0D01*
G01*
X125791250Y-100220000D01*
G75*
G02*
X125547500Y-99976250I0J243750D01*
G01*
X125547500Y-99413750D01*
G75*
G02*
X125791250Y-99170000I243750J0D01*
G01*
X126278750Y-99170000D01*
G75*
G02*
X126522500Y-99413750I0J-243750D01*
G01*
G37*
%TD*%
%TO.C,C1*%
G36*
G01*
X71902500Y-133631250D02*
X71902500Y-133068750D01*
G75*
G02*
X72146250Y-132825000I243750J0D01*
G01*
X72633750Y-132825000D01*
G75*
G02*
X72877500Y-133068750I0J-243750D01*
G01*
X72877500Y-133631250D01*
G75*
G02*
X72633750Y-133875000I-243750J0D01*
G01*
X72146250Y-133875000D01*
G75*
G02*
X71902500Y-133631250I0J243750D01*
G01*
G37*
G36*
G01*
X70327500Y-133631250D02*
X70327500Y-133068750D01*
G75*
G02*
X70571250Y-132825000I243750J0D01*
G01*
X71058750Y-132825000D01*
G75*
G02*
X71302500Y-133068750I0J-243750D01*
G01*
X71302500Y-133631250D01*
G75*
G02*
X71058750Y-133875000I-243750J0D01*
G01*
X70571250Y-133875000D01*
G75*
G02*
X70327500Y-133631250I0J243750D01*
G01*
G37*
%TD*%
D22*
%TO.C,J5*%
X144780000Y-125730000D03*
X144780000Y-123190000D03*
X144780000Y-120650000D03*
X144780000Y-118110000D03*
X144780000Y-115570000D03*
X144780000Y-113030000D03*
G36*
G01*
X143899367Y-109570000D02*
X145660633Y-109570000D01*
G75*
G02*
X145925000Y-109834367I0J-264367D01*
G01*
X145925000Y-111145633D01*
G75*
G02*
X145660633Y-111410000I-264367J0D01*
G01*
X143899367Y-111410000D01*
G75*
G02*
X143635000Y-111145633I0J264367D01*
G01*
X143635000Y-109834367D01*
G75*
G02*
X143899367Y-109570000I264367J0D01*
G01*
G37*
%TD*%
D18*
%TO.C,SW3*%
X128120000Y-146050000D03*
X128120000Y-141550000D03*
X134620000Y-146050000D03*
X134620000Y-141550000D03*
%TD*%
%TO.C,SW2*%
X112880000Y-146050000D03*
X112880000Y-141550000D03*
X119380000Y-146050000D03*
X119380000Y-141550000D03*
%TD*%
%TO.C,SW1*%
X97640000Y-146050000D03*
X97640000Y-141550000D03*
X104140000Y-146050000D03*
X104140000Y-141550000D03*
%TD*%
D17*
%TO.C,SW4*%
X83820000Y-146050000D03*
X83820000Y-143510000D03*
X83820000Y-140970000D03*
X76200000Y-146050000D03*
X76200000Y-143510000D03*
D14*
X76200000Y-140970000D03*
%TD*%
%TO.C,R10*%
G36*
G01*
X117857850Y-105567300D02*
X117295350Y-105567300D01*
G75*
G02*
X117051600Y-105323550I0J243750D01*
G01*
X117051600Y-104836050D01*
G75*
G02*
X117295350Y-104592300I243750J0D01*
G01*
X117857850Y-104592300D01*
G75*
G02*
X118101600Y-104836050I0J-243750D01*
G01*
X118101600Y-105323550D01*
G75*
G02*
X117857850Y-105567300I-243750J0D01*
G01*
G37*
G36*
G01*
X117857850Y-107142300D02*
X117295350Y-107142300D01*
G75*
G02*
X117051600Y-106898550I0J243750D01*
G01*
X117051600Y-106411050D01*
G75*
G02*
X117295350Y-106167300I243750J0D01*
G01*
X117857850Y-106167300D01*
G75*
G02*
X118101600Y-106411050I0J-243750D01*
G01*
X118101600Y-106898550D01*
G75*
G02*
X117857850Y-107142300I-243750J0D01*
G01*
G37*
%TD*%
%TO.C,R9*%
G36*
G01*
X114854000Y-91213250D02*
X114854000Y-90650750D01*
G75*
G02*
X115097750Y-90407000I243750J0D01*
G01*
X115585250Y-90407000D01*
G75*
G02*
X115829000Y-90650750I0J-243750D01*
G01*
X115829000Y-91213250D01*
G75*
G02*
X115585250Y-91457000I-243750J0D01*
G01*
X115097750Y-91457000D01*
G75*
G02*
X114854000Y-91213250I0J243750D01*
G01*
G37*
G36*
G01*
X113279000Y-91213250D02*
X113279000Y-90650750D01*
G75*
G02*
X113522750Y-90407000I243750J0D01*
G01*
X114010250Y-90407000D01*
G75*
G02*
X114254000Y-90650750I0J-243750D01*
G01*
X114254000Y-91213250D01*
G75*
G02*
X114010250Y-91457000I-243750J0D01*
G01*
X113522750Y-91457000D01*
G75*
G02*
X113279000Y-91213250I0J243750D01*
G01*
G37*
%TD*%
%TO.C,R8*%
G36*
G01*
X92121000Y-86488850D02*
X92121000Y-85926350D01*
G75*
G02*
X92364750Y-85682600I243750J0D01*
G01*
X92852250Y-85682600D01*
G75*
G02*
X93096000Y-85926350I0J-243750D01*
G01*
X93096000Y-86488850D01*
G75*
G02*
X92852250Y-86732600I-243750J0D01*
G01*
X92364750Y-86732600D01*
G75*
G02*
X92121000Y-86488850I0J243750D01*
G01*
G37*
G36*
G01*
X90546000Y-86488850D02*
X90546000Y-85926350D01*
G75*
G02*
X90789750Y-85682600I243750J0D01*
G01*
X91277250Y-85682600D01*
G75*
G02*
X91521000Y-85926350I0J-243750D01*
G01*
X91521000Y-86488850D01*
G75*
G02*
X91277250Y-86732600I-243750J0D01*
G01*
X90789750Y-86732600D01*
G75*
G02*
X90546000Y-86488850I0J243750D01*
G01*
G37*
%TD*%
D25*
%TO.C,Q2*%
X117475000Y-88265000D03*
X117475000Y-89215000D03*
X117475000Y-87315000D03*
X120175000Y-87315000D03*
X120175000Y-88265000D03*
X120175000Y-89215000D03*
%TD*%
%TO.C,D7*%
G36*
G01*
X92121000Y-84355250D02*
X92121000Y-83792750D01*
G75*
G02*
X92364750Y-83549000I243750J0D01*
G01*
X92852250Y-83549000D01*
G75*
G02*
X93096000Y-83792750I0J-243750D01*
G01*
X93096000Y-84355250D01*
G75*
G02*
X92852250Y-84599000I-243750J0D01*
G01*
X92364750Y-84599000D01*
G75*
G02*
X92121000Y-84355250I0J243750D01*
G01*
G37*
G36*
G01*
X90546000Y-84355250D02*
X90546000Y-83792750D01*
G75*
G02*
X90789750Y-83549000I243750J0D01*
G01*
X91277250Y-83549000D01*
G75*
G02*
X91521000Y-83792750I0J-243750D01*
G01*
X91521000Y-84355250D01*
G75*
G02*
X91277250Y-84599000I-243750J0D01*
G01*
X90789750Y-84599000D01*
G75*
G02*
X90546000Y-84355250I0J243750D01*
G01*
G37*
%TD*%
D18*
%TO.C,TP5*%
X133477000Y-96012000D03*
%TD*%
D25*
%TO.C,Q1*%
X117395000Y-83820000D03*
X117395000Y-84770000D03*
X117395000Y-82870000D03*
X120095000Y-82870000D03*
X120095000Y-83820000D03*
X120095000Y-84770000D03*
%TD*%
D18*
%TO.C,TP4*%
X102870000Y-106426000D03*
%TD*%
%TO.C,TP2*%
X144856200Y-102031800D03*
%TD*%
%TO.C,TP1*%
X64770000Y-96012000D03*
%TD*%
%TO.C,R6*%
G36*
G01*
X116352500Y-134266250D02*
X116352500Y-133703750D01*
G75*
G02*
X116596250Y-133460000I243750J0D01*
G01*
X117083750Y-133460000D01*
G75*
G02*
X117327500Y-133703750I0J-243750D01*
G01*
X117327500Y-134266250D01*
G75*
G02*
X117083750Y-134510000I-243750J0D01*
G01*
X116596250Y-134510000D01*
G75*
G02*
X116352500Y-134266250I0J243750D01*
G01*
G37*
G36*
G01*
X114777500Y-134266250D02*
X114777500Y-133703750D01*
G75*
G02*
X115021250Y-133460000I243750J0D01*
G01*
X115508750Y-133460000D01*
G75*
G02*
X115752500Y-133703750I0J-243750D01*
G01*
X115752500Y-134266250D01*
G75*
G02*
X115508750Y-134510000I-243750J0D01*
G01*
X115021250Y-134510000D01*
G75*
G02*
X114777500Y-134266250I0J243750D01*
G01*
G37*
%TD*%
%TO.C,R4*%
G36*
G01*
X75112500Y-114018750D02*
X75112500Y-114581250D01*
G75*
G02*
X74868750Y-114825000I-243750J0D01*
G01*
X74381250Y-114825000D01*
G75*
G02*
X74137500Y-114581250I0J243750D01*
G01*
X74137500Y-114018750D01*
G75*
G02*
X74381250Y-113775000I243750J0D01*
G01*
X74868750Y-113775000D01*
G75*
G02*
X75112500Y-114018750I0J-243750D01*
G01*
G37*
G36*
G01*
X76687500Y-114018750D02*
X76687500Y-114581250D01*
G75*
G02*
X76443750Y-114825000I-243750J0D01*
G01*
X75956250Y-114825000D01*
G75*
G02*
X75712500Y-114581250I0J243750D01*
G01*
X75712500Y-114018750D01*
G75*
G02*
X75956250Y-113775000I243750J0D01*
G01*
X76443750Y-113775000D01*
G75*
G02*
X76687500Y-114018750I0J-243750D01*
G01*
G37*
%TD*%
%TO.C,R2*%
G36*
G01*
X71902500Y-128551250D02*
X71902500Y-127988750D01*
G75*
G02*
X72146250Y-127745000I243750J0D01*
G01*
X72633750Y-127745000D01*
G75*
G02*
X72877500Y-127988750I0J-243750D01*
G01*
X72877500Y-128551250D01*
G75*
G02*
X72633750Y-128795000I-243750J0D01*
G01*
X72146250Y-128795000D01*
G75*
G02*
X71902500Y-128551250I0J243750D01*
G01*
G37*
G36*
G01*
X70327500Y-128551250D02*
X70327500Y-127988750D01*
G75*
G02*
X70571250Y-127745000I243750J0D01*
G01*
X71058750Y-127745000D01*
G75*
G02*
X71302500Y-127988750I0J-243750D01*
G01*
X71302500Y-128551250D01*
G75*
G02*
X71058750Y-128795000I-243750J0D01*
G01*
X70571250Y-128795000D01*
G75*
G02*
X70327500Y-128551250I0J243750D01*
G01*
G37*
%TD*%
%TO.C,R7*%
G36*
G01*
X131592500Y-134266250D02*
X131592500Y-133703750D01*
G75*
G02*
X131836250Y-133460000I243750J0D01*
G01*
X132323750Y-133460000D01*
G75*
G02*
X132567500Y-133703750I0J-243750D01*
G01*
X132567500Y-134266250D01*
G75*
G02*
X132323750Y-134510000I-243750J0D01*
G01*
X131836250Y-134510000D01*
G75*
G02*
X131592500Y-134266250I0J243750D01*
G01*
G37*
G36*
G01*
X130017500Y-134266250D02*
X130017500Y-133703750D01*
G75*
G02*
X130261250Y-133460000I243750J0D01*
G01*
X130748750Y-133460000D01*
G75*
G02*
X130992500Y-133703750I0J-243750D01*
G01*
X130992500Y-134266250D01*
G75*
G02*
X130748750Y-134510000I-243750J0D01*
G01*
X130261250Y-134510000D01*
G75*
G02*
X130017500Y-134266250I0J243750D01*
G01*
G37*
%TD*%
%TO.C,R1*%
G36*
G01*
X71902500Y-126011250D02*
X71902500Y-125448750D01*
G75*
G02*
X72146250Y-125205000I243750J0D01*
G01*
X72633750Y-125205000D01*
G75*
G02*
X72877500Y-125448750I0J-243750D01*
G01*
X72877500Y-126011250D01*
G75*
G02*
X72633750Y-126255000I-243750J0D01*
G01*
X72146250Y-126255000D01*
G75*
G02*
X71902500Y-126011250I0J243750D01*
G01*
G37*
G36*
G01*
X70327500Y-126011250D02*
X70327500Y-125448750D01*
G75*
G02*
X70571250Y-125205000I243750J0D01*
G01*
X71058750Y-125205000D01*
G75*
G02*
X71302500Y-125448750I0J-243750D01*
G01*
X71302500Y-126011250D01*
G75*
G02*
X71058750Y-126255000I-243750J0D01*
G01*
X70571250Y-126255000D01*
G75*
G02*
X70327500Y-126011250I0J243750D01*
G01*
G37*
%TD*%
%TO.C,R5*%
G36*
G01*
X75112500Y-117828750D02*
X75112500Y-118391250D01*
G75*
G02*
X74868750Y-118635000I-243750J0D01*
G01*
X74381250Y-118635000D01*
G75*
G02*
X74137500Y-118391250I0J243750D01*
G01*
X74137500Y-117828750D01*
G75*
G02*
X74381250Y-117585000I243750J0D01*
G01*
X74868750Y-117585000D01*
G75*
G02*
X75112500Y-117828750I0J-243750D01*
G01*
G37*
G36*
G01*
X76687500Y-117828750D02*
X76687500Y-118391250D01*
G75*
G02*
X76443750Y-118635000I-243750J0D01*
G01*
X75956250Y-118635000D01*
G75*
G02*
X75712500Y-118391250I0J243750D01*
G01*
X75712500Y-117828750D01*
G75*
G02*
X75956250Y-117585000I243750J0D01*
G01*
X76443750Y-117585000D01*
G75*
G02*
X76687500Y-117828750I0J-243750D01*
G01*
G37*
%TD*%
%TO.C,D6*%
G36*
G01*
X131745000Y-136171250D02*
X131745000Y-135608750D01*
G75*
G02*
X131988750Y-135365000I243750J0D01*
G01*
X132476250Y-135365000D01*
G75*
G02*
X132720000Y-135608750I0J-243750D01*
G01*
X132720000Y-136171250D01*
G75*
G02*
X132476250Y-136415000I-243750J0D01*
G01*
X131988750Y-136415000D01*
G75*
G02*
X131745000Y-136171250I0J243750D01*
G01*
G37*
G36*
G01*
X130170000Y-136171250D02*
X130170000Y-135608750D01*
G75*
G02*
X130413750Y-135365000I243750J0D01*
G01*
X130901250Y-135365000D01*
G75*
G02*
X131145000Y-135608750I0J-243750D01*
G01*
X131145000Y-136171250D01*
G75*
G02*
X130901250Y-136415000I-243750J0D01*
G01*
X130413750Y-136415000D01*
G75*
G02*
X130170000Y-136171250I0J243750D01*
G01*
G37*
%TD*%
%TO.C,D4*%
G36*
G01*
X116352500Y-136171250D02*
X116352500Y-135608750D01*
G75*
G02*
X116596250Y-135365000I243750J0D01*
G01*
X117083750Y-135365000D01*
G75*
G02*
X117327500Y-135608750I0J-243750D01*
G01*
X117327500Y-136171250D01*
G75*
G02*
X117083750Y-136415000I-243750J0D01*
G01*
X116596250Y-136415000D01*
G75*
G02*
X116352500Y-136171250I0J243750D01*
G01*
G37*
G36*
G01*
X114777500Y-136171250D02*
X114777500Y-135608750D01*
G75*
G02*
X115021250Y-135365000I243750J0D01*
G01*
X115508750Y-135365000D01*
G75*
G02*
X115752500Y-135608750I0J-243750D01*
G01*
X115752500Y-136171250D01*
G75*
G02*
X115508750Y-136415000I-243750J0D01*
G01*
X115021250Y-136415000D01*
G75*
G02*
X114777500Y-136171250I0J243750D01*
G01*
G37*
%TD*%
%TO.C,D2*%
G36*
G01*
X101112500Y-136171250D02*
X101112500Y-135608750D01*
G75*
G02*
X101356250Y-135365000I243750J0D01*
G01*
X101843750Y-135365000D01*
G75*
G02*
X102087500Y-135608750I0J-243750D01*
G01*
X102087500Y-136171250D01*
G75*
G02*
X101843750Y-136415000I-243750J0D01*
G01*
X101356250Y-136415000D01*
G75*
G02*
X101112500Y-136171250I0J243750D01*
G01*
G37*
G36*
G01*
X99537500Y-136171250D02*
X99537500Y-135608750D01*
G75*
G02*
X99781250Y-135365000I243750J0D01*
G01*
X100268750Y-135365000D01*
G75*
G02*
X100512500Y-135608750I0J-243750D01*
G01*
X100512500Y-136171250D01*
G75*
G02*
X100268750Y-136415000I-243750J0D01*
G01*
X99781250Y-136415000D01*
G75*
G02*
X99537500Y-136171250I0J243750D01*
G01*
G37*
%TD*%
%TO.C,C5*%
G36*
G01*
X114860650Y-105541800D02*
X114298150Y-105541800D01*
G75*
G02*
X114054400Y-105298050I0J243750D01*
G01*
X114054400Y-104810550D01*
G75*
G02*
X114298150Y-104566800I243750J0D01*
G01*
X114860650Y-104566800D01*
G75*
G02*
X115104400Y-104810550I0J-243750D01*
G01*
X115104400Y-105298050D01*
G75*
G02*
X114860650Y-105541800I-243750J0D01*
G01*
G37*
G36*
G01*
X114860650Y-107116800D02*
X114298150Y-107116800D01*
G75*
G02*
X114054400Y-106873050I0J243750D01*
G01*
X114054400Y-106385550D01*
G75*
G02*
X114298150Y-106141800I243750J0D01*
G01*
X114860650Y-106141800D01*
G75*
G02*
X115104400Y-106385550I0J-243750D01*
G01*
X115104400Y-106873050D01*
G75*
G02*
X114860650Y-107116800I-243750J0D01*
G01*
G37*
%TD*%
D26*
%TO.C,D5*%
X85980000Y-104775000D03*
X89280000Y-104775000D03*
%TD*%
%TO.C,D3*%
X74170000Y-108204000D03*
X77470000Y-108204000D03*
%TD*%
D18*
%TO.C,TP3*%
X109220000Y-106426000D03*
%TD*%
%TO.C,R3*%
G36*
G01*
X101112500Y-134266250D02*
X101112500Y-133703750D01*
G75*
G02*
X101356250Y-133460000I243750J0D01*
G01*
X101843750Y-133460000D01*
G75*
G02*
X102087500Y-133703750I0J-243750D01*
G01*
X102087500Y-134266250D01*
G75*
G02*
X101843750Y-134510000I-243750J0D01*
G01*
X101356250Y-134510000D01*
G75*
G02*
X101112500Y-134266250I0J243750D01*
G01*
G37*
G36*
G01*
X99537500Y-134266250D02*
X99537500Y-133703750D01*
G75*
G02*
X99781250Y-133460000I243750J0D01*
G01*
X100268750Y-133460000D01*
G75*
G02*
X100512500Y-133703750I0J-243750D01*
G01*
X100512500Y-134266250D01*
G75*
G02*
X100268750Y-134510000I-243750J0D01*
G01*
X99781250Y-134510000D01*
G75*
G02*
X99537500Y-134266250I0J243750D01*
G01*
G37*
%TD*%
M02*
