M48
; DRILL file {KiCad (5.1.6)-1} date 09/05/20 08:23:21
; FORMAT={-:-/ absolute / inch / decimal}
; #@! TF.CreationDate,2020-09-05T08:23:21-07:00
; #@! TF.GenerationSoftware,Kicad,Pcbnew,(5.1.6)-1
; #@! TF.FileFunction,Plated,1,2,PTH
FMAT,2
INCH
T1C0.0157
T2C0.0315
T3C0.0394
T4C0.0433
T5C0.0469
T6C0.0472
T7C0.0598
T8C0.0630
T9C0.1260
%
G90
G05
T1
X3.48Y-3.31
X3.607Y-3.726
X3.61Y-3.575
X3.685Y-5.275
X4.116Y-3.948
X4.15Y-5.27
X4.231Y-4.347
X4.513Y-4.08
X4.72Y-3.56
X4.73Y-3.39
X4.795Y-3.26
X4.86Y-3.89
T2
X2.9146Y-3.474
X3.013Y-3.474
X3.49Y-3.8613
X3.49Y-3.94
T3
X5.703Y-4.017
X2.55Y-3.78
X4.05Y-4.19
X5.255Y-3.78
X3.375Y-4.5
X3.375Y-4.6
X3.375Y-4.7
X3.375Y-4.8
X3.375Y-4.9
X3.375Y-5.0
X3.475Y-4.45
X3.475Y-5.05
X3.575Y-4.45
X3.575Y-5.05
X3.675Y-4.45
X3.675Y-5.05
X3.775Y-4.45
X3.775Y-5.05
X3.825Y-4.55
X3.875Y-4.45
X3.875Y-5.05
X3.925Y-4.55
X3.975Y-4.45
X3.975Y-5.05
X4.075Y-4.45
X4.075Y-5.05
X4.175Y-4.45
X4.175Y-5.05
X4.225Y-4.55
X4.275Y-4.45
X4.275Y-5.05
X4.325Y-4.55
X4.375Y-4.45
X4.375Y-5.05
X4.475Y-4.45
X4.475Y-5.05
X4.575Y-4.45
X4.575Y-5.05
X3.0Y-5.55
X3.0Y-5.65
X3.0Y-5.75
X3.3Y-5.55
X3.3Y-5.65
X3.3Y-5.75
X4.3Y-4.19
T4
X5.0441Y-5.5728
X5.0441Y-5.75
X5.3Y-5.5728
X5.3Y-5.75
X4.4441Y-5.5728
X4.4441Y-5.75
X4.7Y-5.5728
X4.7Y-5.75
X2.975Y-3.975
X3.075Y-3.975
X3.175Y-3.975
X3.8441Y-5.5728
X3.8441Y-5.75
X4.1Y-5.5728
X4.1Y-5.75
T5
X2.5516Y-4.0614
X2.5516Y-4.1614
X2.5516Y-4.2614
X2.5516Y-4.3614
X2.5516Y-4.4614
X2.5516Y-4.5614
X5.7Y-4.35
X5.7Y-4.45
X5.7Y-4.55
X5.7Y-4.65
X5.7Y-4.75
X5.7Y-4.85
X5.7Y-4.95
T6
X2.5217Y-5.0228
X2.5217Y-5.1606
T7
X5.05Y-3.35
X5.25Y-3.35
X4.2Y-3.35
X4.4Y-3.35
T8
X4.19Y-3.76
X4.69Y-3.76
T9
X2.5591Y-5.7087
X5.7087Y-3.3465
X2.5591Y-3.3465
X5.7087Y-5.7087
T3
G00X3.925Y-3.3608
M15
G01X3.925Y-3.4593
M16
G05
G00X3.925Y-3.6758
M15
G01X3.925Y-3.7742
M16
G05
T0
M30
